<svg width="45" height="45" viewBox="0 0 45 45" fill="none" xmlns="http://www.w3.org/2000/svg">
<rect width="45" height="45" rx="15" fill="#FFF5D9"/>
<path d="M31.9036 22.2367V16.3051C31.9036 15.0873 30.9127 14.0964 29.6949 14.0964H15.2086C13.9908 14.0964 13 15.0873 13 16.3051V25.3092C13 26.527 13.9908 27.5179 15.2086 27.5179H20.9365C21.7011 30.0524 24.057 31.9037 26.8375 31.9037C30.2355 31.9037 32.9999 29.1392 32.9999 25.7412C33 24.4401 32.5944 23.2323 31.9036 22.2367ZM23.3331 20.6751H14.3605V18.7463H30.543V20.8205C29.511 20.0414 28.2273 19.5787 26.8375 19.5787C25.5366 19.5787 24.3288 19.9843 23.3331 20.6751ZM15.2086 15.457H29.6949C30.1626 15.457 30.543 15.8374 30.543 16.3051V17.3858H14.3605V16.3051C14.3605 15.8374 14.741 15.457 15.2086 15.457ZM15.2086 26.1573C14.741 26.1573 14.3605 25.7768 14.3605 25.3092V22.0356H21.9168C21.1377 23.0677 20.6751 24.3513 20.6751 25.7412C20.6751 25.8811 20.6802 26.0197 20.6894 26.1574H15.2086V26.1573ZM26.8376 30.543C24.1898 30.543 22.0356 28.3889 22.0356 25.7411C22.0356 23.0933 24.1898 20.9392 26.8376 20.9392C29.4853 20.9392 31.6395 23.0933 31.6395 25.7411C31.6395 28.3889 29.4853 30.543 26.8376 30.543Z" fill="#FFBB38"/>
<path d="M23.5479 23.9644C23.1723 23.9644 22.8677 24.2689 22.8677 24.6446V26.8375C22.8677 27.2132 23.1723 27.5178 23.5479 27.5178H30.1266C30.5023 27.5178 30.8069 27.2132 30.8069 26.8375V24.6446C30.8069 24.2689 30.5023 23.9644 30.1266 23.9644H23.5479ZM29.4463 26.1573H24.2282V25.325H29.4463V26.1573Z" fill="#FFBB38"/>
</svg>
