<svg width="231" height="321" viewBox="0 0 231 321" fill="none" xmlns="http://www.w3.org/2000/svg">
<rect width="231" height="321" rx="20" fill="white"/>
<path d="M73.9588 39H77.304C79.3324 39 80.2486 37.9901 80.2486 36.652C80.2486 35.3011 79.3026 34.5384 78.4375 34.4915V34.4062C79.2386 34.2017 79.9077 33.6562 79.9077 32.5653C79.9077 31.2741 79.0128 30.2727 77.1548 30.2727H73.9588V39ZM75.2756 37.8707V35.0753H77.223C78.2798 35.0753 78.9403 35.7571 78.9403 36.5881C78.9403 37.321 78.4418 37.8707 77.1761 37.8707H75.2756ZM75.2756 34.0483V31.3935H77.0739C78.1179 31.3935 78.6165 31.9432 78.6165 32.6676C78.6165 33.5114 77.9261 34.0483 77.0398 34.0483H75.2756ZM82.9822 30.2727H81.7081V39H82.9822V30.2727ZM87.4535 39.1321C89.2987 39.1321 90.5046 37.7812 90.5046 35.7571C90.5046 33.7202 89.2987 32.3693 87.4535 32.3693C85.6083 32.3693 84.4023 33.7202 84.4023 35.7571C84.4023 37.7812 85.6083 39.1321 87.4535 39.1321ZM87.4577 38.0625C86.2518 38.0625 85.6893 37.0099 85.6893 35.7528C85.6893 34.5 86.2518 33.4347 87.4577 33.4347C88.6552 33.4347 89.2177 34.5 89.2177 35.7528C89.2177 37.0099 88.6552 38.0625 87.4577 38.0625ZM94.6839 39.1321C96.2308 39.1321 97.2322 38.2031 97.3729 36.929H96.1328C95.9709 37.6364 95.4212 38.054 94.6925 38.054C93.6143 38.054 92.9197 37.1548 92.9197 35.7273C92.9197 34.3253 93.6271 33.4432 94.6925 33.4432C95.5021 33.4432 95.9964 33.9545 96.1328 34.5682H97.3729C97.2365 33.2472 96.1584 32.3693 94.6712 32.3693C92.826 32.3693 91.6328 33.7585 91.6328 35.7571C91.6328 37.7301 92.7834 39.1321 94.6839 39.1321ZM98.7354 39H100.01V36.6776L100.645 36.0426L102.869 39H104.433L101.603 35.2628L104.254 32.4545H102.728L100.12 35.2244H100.01V30.2727H98.7354V39ZM115.942 33.1108C115.643 31.2443 114.182 30.1534 112.337 30.1534C110.078 30.1534 108.412 31.8452 108.412 34.6364C108.412 37.4276 110.07 39.1193 112.337 39.1193C114.254 39.1193 115.656 37.9176 115.942 36.1918L114.612 36.1875C114.386 37.304 113.449 37.9176 112.345 37.9176C110.849 37.9176 109.72 36.7713 109.72 34.6364C109.72 32.5185 110.845 31.3551 112.349 31.3551C113.462 31.3551 114.395 31.9815 114.612 33.1108H115.942ZM119.32 39.1449C120.402 39.1449 121.012 38.5952 121.255 38.1051H121.306V39H122.55V34.6534C122.55 32.7486 121.05 32.3693 120.01 32.3693C118.826 32.3693 117.735 32.8466 117.309 34.0398L118.506 34.3125C118.694 33.848 119.171 33.4006 120.027 33.4006C120.85 33.4006 121.272 33.831 121.272 34.5724V34.6023C121.272 35.0668 120.794 35.0582 119.618 35.1946C118.378 35.3395 117.108 35.6634 117.108 37.1506C117.108 38.4375 118.076 39.1449 119.32 39.1449ZM119.597 38.1222C118.877 38.1222 118.357 37.7983 118.357 37.1676C118.357 36.4858 118.962 36.2429 119.699 36.1449C120.113 36.0895 121.093 35.9787 121.276 35.7955V36.6392C121.276 37.4148 120.658 38.1222 119.597 38.1222ZM124.247 39H125.521V35.0028C125.521 34.1463 126.182 33.5284 127.085 33.5284C127.349 33.5284 127.648 33.5753 127.75 33.6051V32.3864C127.622 32.3693 127.371 32.3565 127.209 32.3565C126.442 32.3565 125.786 32.7912 125.547 33.4943H125.479V32.4545H124.247V39ZM131.069 39.1278C132.262 39.1278 132.73 38.3991 132.961 37.9815H133.067V39H134.311V30.2727H133.037V33.5156H132.961C132.73 33.1108 132.296 32.3693 131.077 32.3693C129.496 32.3693 128.333 33.6179 128.333 35.7401C128.333 37.858 129.479 39.1278 131.069 39.1278ZM131.35 38.0412C130.212 38.0412 129.62 37.0398 129.62 35.7273C129.62 34.4276 130.199 33.4517 131.35 33.4517C132.462 33.4517 133.059 34.3594 133.059 35.7273C133.059 37.1037 132.449 38.0412 131.35 38.0412Z" fill="#232323"/>
<path d="M74.9375 49H73.9688V57H74.9375V49ZM77.6768 53.3906C77.6768 52.3437 78.3252 51.75 79.208 51.75C80.0635 51.75 80.583 52.3086 80.583 53.25V57H81.5049V53.1875C81.5049 51.6562 80.6885 50.9219 79.4736 50.9219C78.5674 50.9219 78.0049 51.3281 77.7236 51.9375H77.6455V51H76.7549V57H77.6768V53.3906ZM87.4395 52.3437C87.1504 51.4922 86.502 50.9219 85.3145 50.9219C84.0488 50.9219 83.1113 51.6406 83.1113 52.6562C83.1113 53.4844 83.6035 54.0391 84.7051 54.2969L85.7051 54.5312C86.3105 54.6719 86.5957 54.9609 86.5957 55.375C86.5957 55.8906 86.0488 56.3125 85.1895 56.3125C84.4355 56.3125 83.9629 55.9883 83.7988 55.3437L82.9238 55.5625C83.1387 56.582 83.9785 57.125 85.2051 57.125C86.5996 57.125 87.5488 56.3633 87.5488 55.3281C87.5488 54.4922 87.0254 53.9648 85.9551 53.7031L85.0645 53.4844C84.3535 53.3086 84.0332 53.0703 84.0332 52.6094C84.0332 52.0937 84.5801 51.7187 85.3145 51.7187C86.1191 51.7187 86.4512 52.1641 86.6113 52.5781L87.4395 52.3437ZM91.5459 51H90.2646V49.5625H89.3428V51H88.4365V51.7812H89.3428V55.5312C89.3428 56.5781 90.1865 57.0781 90.9678 57.0781C91.3115 57.0781 91.5303 57.0156 91.6553 56.9687L91.4678 56.1406C91.3896 56.1562 91.2646 56.1875 91.0615 56.1875C90.6553 56.1875 90.2646 56.0625 90.2646 55.2812V51.7812H91.5459V51ZM94.6982 57.1406C95.7451 57.1406 96.292 56.5781 96.4795 56.1875H96.5264V57H97.4482V53.0469C97.4482 51.1406 95.9951 50.9219 95.2295 50.9219C94.3232 50.9219 93.292 51.2344 92.8232 52.3281L93.6982 52.6406C93.9014 52.2031 94.3818 51.7344 95.2607 51.7344C96.1084 51.7344 96.5264 52.1836 96.5264 52.9531V52.9844C96.5264 53.4297 96.0732 53.3906 94.9795 53.5313C93.8662 53.6758 92.6514 53.9219 92.6514 55.2969C92.6514 56.4687 93.5576 57.1406 94.6982 57.1406ZM94.8389 56.3125C94.1045 56.3125 93.5732 55.9844 93.5732 55.3437C93.5732 54.6406 94.2139 54.4219 94.9326 54.3281C95.3232 54.2812 96.3701 54.1719 96.5264 53.9844V54.8281C96.5264 55.5781 95.9326 56.3125 94.8389 56.3125ZM100.053 53.3906C100.053 52.3437 100.701 51.75 101.584 51.75C102.439 51.75 102.959 52.3086 102.959 53.25V57H103.881V53.1875C103.881 51.6562 103.064 50.9219 101.85 50.9219C100.943 50.9219 100.381 51.3281 100.1 51.9375H100.021V51H99.1309V57H100.053V53.3906ZM108.175 51H106.894V49.5625H105.972V51H105.065V51.7812H105.972V55.5312C105.972 56.5781 106.815 57.0781 107.597 57.0781C107.94 57.0781 108.159 57.0156 108.284 56.9687L108.097 56.1406C108.019 56.1562 107.894 56.1875 107.69 56.1875C107.284 56.1875 106.894 56.0625 106.894 55.2812V51.7812H108.175V51ZM110.612 49H109.69V57H110.612V49ZM112.895 59.25C113.727 59.25 114.312 58.8086 114.66 57.875L117.215 51.0156L116.207 51L114.551 55.7812H114.488L112.832 51H111.832L114.051 57.0313L113.879 57.5C113.543 58.4141 113.129 58.5 112.457 58.3281L112.223 59.1406C112.316 59.1875 112.582 59.25 112.895 59.25ZM121.653 57H122.544V56.0781H122.653C122.856 56.4062 123.247 57.125 124.403 57.125C125.903 57.125 126.95 55.9219 126.95 54.0156C126.95 52.125 125.903 50.9219 124.388 50.9219C123.216 50.9219 122.856 51.6406 122.653 51.9531H122.575V49H121.653V57ZM122.56 54C122.56 52.6562 123.153 51.75 124.278 51.75C125.45 51.75 126.028 52.7344 126.028 54C126.028 55.2812 125.435 56.2969 124.278 56.2969C123.169 56.2969 122.56 55.3594 122.56 54ZM129.282 49H128.36V57H129.282V49ZM133.408 57.125C135.033 57.125 136.127 55.8906 136.127 54.0312C136.127 52.1562 135.033 50.9219 133.408 50.9219C131.783 50.9219 130.689 52.1562 130.689 54.0312C130.689 55.8906 131.783 57.125 133.408 57.125ZM133.408 56.2969C132.174 56.2969 131.611 55.2344 131.611 54.0312C131.611 52.8281 132.174 51.75 133.408 51.75C134.643 51.75 135.205 52.8281 135.205 54.0312C135.205 55.2344 134.643 56.2969 133.408 56.2969ZM139.972 57.125C141.3 57.125 142.175 56.3125 142.331 55.25H141.409C141.237 55.9062 140.69 56.2969 139.972 56.2969C138.878 56.2969 138.175 55.3906 138.175 54C138.175 52.6406 138.894 51.75 139.972 51.75C140.784 51.75 141.269 52.25 141.409 52.7969H142.331C142.175 51.6719 141.222 50.9219 139.956 50.9219C138.331 50.9219 137.253 52.2031 137.253 54.0312C137.253 55.8281 138.284 57.125 139.972 57.125ZM143.679 57H144.601V54.7539L145.245 54.1562L147.491 57H148.663L145.94 53.5625L148.476 51H147.335L144.71 53.6719H144.601V49H143.679V57ZM153.35 59.25C154.182 59.25 154.768 58.8086 155.115 57.875L157.67 51.0156L156.662 51L155.006 55.7812H154.943L153.287 51H152.287L154.506 57.0313L154.334 57.5C153.998 58.4141 153.584 58.5 152.912 58.3281L152.678 59.1406C152.771 59.1875 153.037 59.25 153.35 59.25ZM161.112 57.125C162.737 57.125 163.831 55.8906 163.831 54.0312C163.831 52.1562 162.737 50.9219 161.112 50.9219C159.487 50.9219 158.394 52.1562 158.394 54.0312C158.394 55.8906 159.487 57.125 161.112 57.125ZM161.112 56.2969C159.878 56.2969 159.315 55.2344 159.315 54.0312C159.315 52.8281 159.878 51.75 161.112 51.75C162.347 51.75 162.909 52.8281 162.909 54.0312C162.909 55.2344 162.347 56.2969 161.112 56.2969ZM169.02 54.5469C169.02 55.6719 168.16 56.1875 167.473 56.1875C166.707 56.1875 166.16 55.625 166.16 54.75V51H165.238V54.8125C165.238 56.3437 166.051 57.0781 167.176 57.0781C168.082 57.0781 168.676 56.5937 168.957 55.9844H169.02V57H169.941V51H169.02V54.5469ZM171.63 57H172.552V53.2031C172.552 52.3906 173.192 51.7969 174.067 51.7969C174.313 51.7969 174.567 51.8438 174.63 51.8594V50.9219C174.524 50.9141 174.282 50.9062 174.146 50.9062C173.427 50.9062 172.802 51.3125 172.583 51.9062H172.521V51H171.63V57ZM181.254 57.125C182.582 57.125 183.457 56.3125 183.613 55.25H182.691C182.52 55.9062 181.973 56.2969 181.254 56.2969C180.16 56.2969 179.457 55.3906 179.457 54C179.457 52.6406 180.176 51.75 181.254 51.75C182.066 51.75 182.551 52.25 182.691 52.7969H183.613C183.457 51.6719 182.504 50.9219 181.238 50.9219C179.613 50.9219 178.535 52.2031 178.535 54.0312C178.535 55.8281 179.566 57.125 181.254 57.125ZM186.727 57.1406C187.773 57.1406 188.32 56.5781 188.508 56.1875H188.555V57H189.477V53.0469C189.477 51.1406 188.023 50.9219 187.258 50.9219C186.352 50.9219 185.32 51.2344 184.852 52.3281L185.727 52.6406C185.93 52.2031 186.41 51.7344 187.289 51.7344C188.137 51.7344 188.555 52.1836 188.555 52.9531V52.9844C188.555 53.4297 188.102 53.3906 187.008 53.5313C185.895 53.6758 184.68 53.9219 184.68 55.2969C184.68 56.4687 185.586 57.1406 186.727 57.1406ZM186.867 56.3125C186.133 56.3125 185.602 55.9844 185.602 55.3437C185.602 54.6406 186.242 54.4219 186.961 54.3281C187.352 54.2812 188.398 54.1719 188.555 53.9844V54.8281C188.555 55.5781 187.961 56.3125 186.867 56.3125ZM191.159 57H192.081V53.2031C192.081 52.3906 192.722 51.7969 193.597 51.7969C193.843 51.7969 194.097 51.8438 194.159 51.8594V50.9219C194.054 50.9141 193.812 50.9062 193.675 50.9062C192.956 50.9062 192.331 51.3125 192.112 51.9062H192.05V51H191.159V57ZM197.335 57.125C198.491 57.125 198.882 56.4062 199.085 56.0781H199.194V57H200.085V49H199.163V51.9531H199.085C198.882 51.6406 198.522 50.9219 197.351 50.9219C195.835 50.9219 194.788 52.125 194.788 54.0156C194.788 55.9219 195.835 57.125 197.335 57.125ZM197.46 56.2969C196.304 56.2969 195.71 55.2812 195.71 54C195.71 52.7344 196.288 51.75 197.46 51.75C198.585 51.75 199.179 52.6562 199.179 54C199.179 55.3594 198.569 56.2969 197.46 56.2969Z" fill="#718EBF"/>
<rect x="18" y="20" width="45" height="45" rx="15" fill="#FFF5D9"/>
<path d="M49.9036 42.2367V36.3051C49.9036 35.0873 48.9127 34.0964 47.6949 34.0964H33.2086C31.9908 34.0964 31 35.0873 31 36.3051V45.3092C31 46.527 31.9908 47.5179 33.2086 47.5179H38.9365C39.7011 50.0524 42.057 51.9037 44.8375 51.9037C48.2355 51.9037 50.9999 49.1392 50.9999 45.7412C51 44.4401 50.5944 43.2323 49.9036 42.2367ZM41.3331 40.6751H32.3605V38.7463H48.543V40.8205C47.511 40.0414 46.2273 39.5787 44.8375 39.5787C43.5366 39.5787 42.3288 39.9843 41.3331 40.6751ZM33.2086 35.457H47.6949C48.1626 35.457 48.543 35.8374 48.543 36.3051V37.3858H32.3605V36.3051C32.3605 35.8374 32.741 35.457 33.2086 35.457ZM33.2086 46.1573C32.741 46.1573 32.3605 45.7768 32.3605 45.3092V42.0356H39.9168C39.1377 43.0677 38.6751 44.3513 38.6751 45.7412C38.6751 45.8811 38.6802 46.0197 38.6894 46.1574H33.2086V46.1573ZM44.8376 50.543C42.1898 50.543 40.0356 48.3889 40.0356 45.7411C40.0356 43.0933 42.1898 40.9392 44.8376 40.9392C47.4853 40.9392 49.6395 43.0933 49.6395 45.7411C49.6395 48.3889 47.4853 50.543 44.8376 50.543Z" fill="#FFBB38"/>
<path d="M41.5479 43.9644C41.1723 43.9644 40.8677 44.2689 40.8677 44.6446V46.8375C40.8677 47.2132 41.1723 47.5178 41.5479 47.5178H48.1266C48.5023 47.5178 48.8069 47.2132 48.8069 46.8375V44.6446C48.8069 44.2689 48.5023 43.9644 48.1266 43.9644H41.5479ZM47.4463 46.1573H42.2282V45.325H47.4463V46.1573Z" fill="#FFBB38"/>
<path d="M74.696 157L75.4972 154.69H78.9062L79.7031 157H81.1009L77.9602 148.273H76.4389L73.2983 157H74.696ZM75.8807 153.582L77.1676 149.858H77.2358L78.5227 153.582H75.8807ZM84.6037 157.128C85.7969 157.128 86.2656 156.399 86.4957 155.982H86.6023V157H87.8466V148.273H86.5724V151.516H86.4957C86.2656 151.111 85.831 150.369 84.6122 150.369C83.0312 150.369 81.8679 151.618 81.8679 153.74C81.8679 155.858 83.0142 157.128 84.6037 157.128ZM84.8849 156.041C83.7472 156.041 83.1548 155.04 83.1548 153.727C83.1548 152.428 83.7344 151.452 84.8849 151.452C85.9972 151.452 86.5938 152.359 86.5938 153.727C86.5938 155.104 85.9844 156.041 84.8849 156.041ZM92.1154 157.128C93.3086 157.128 93.7773 156.399 94.0075 155.982H94.114V157H95.3583V148.273H94.0842V151.516H94.0075C93.7773 151.111 93.3427 150.369 92.1239 150.369C90.543 150.369 89.3796 151.618 89.3796 153.74C89.3796 155.858 90.5259 157.128 92.1154 157.128ZM92.3967 156.041C91.2589 156.041 90.6665 155.04 90.6665 153.727C90.6665 152.428 91.2461 151.452 92.3967 151.452C93.5089 151.452 94.1055 152.359 94.1055 153.727C94.1055 155.104 93.4961 156.041 92.3967 156.041ZM103.408 150.455H102.066V148.886H100.792V150.455H99.8327V151.477H100.792V155.342C100.787 156.531 101.695 157.107 102.701 157.085C103.105 157.081 103.378 157.004 103.527 156.949L103.297 155.896C103.212 155.913 103.054 155.952 102.85 155.952C102.436 155.952 102.066 155.815 102.066 155.078V151.477H103.408V150.455ZM107.504 157.132C109.349 157.132 110.555 155.781 110.555 153.757C110.555 151.72 109.349 150.369 107.504 150.369C105.659 150.369 104.453 151.72 104.453 153.757C104.453 155.781 105.659 157.132 107.504 157.132ZM107.509 156.062C106.303 156.062 105.74 155.01 105.74 153.753C105.74 152.5 106.303 151.435 107.509 151.435C108.706 151.435 109.268 152.5 109.268 153.753C109.268 155.01 108.706 156.062 107.509 156.062ZM121.162 151.03H122.513C122.219 149.33 120.766 148.153 118.882 148.153C116.624 148.153 114.974 149.854 114.974 152.641C114.974 155.402 116.577 157.119 118.942 157.119C121.06 157.119 122.572 155.73 122.572 153.527V152.534H119.142V153.621H121.298C121.268 155.027 120.339 155.918 118.942 155.918C117.403 155.918 116.283 154.754 116.283 152.632C116.283 150.518 117.412 149.355 118.891 149.355C120.05 149.355 120.834 149.994 121.162 151.03ZM126.899 157.132C128.744 157.132 129.95 155.781 129.95 153.757C129.95 151.72 128.744 150.369 126.899 150.369C125.054 150.369 123.848 151.72 123.848 153.757C123.848 155.781 125.054 157.132 126.899 157.132ZM126.903 156.062C125.697 156.062 125.135 155.01 125.135 153.753C125.135 152.5 125.697 151.435 126.903 151.435C128.1 151.435 128.663 152.5 128.663 153.753C128.663 155.01 128.1 156.062 126.903 156.062ZM134.129 157.132C135.974 157.132 137.18 155.781 137.18 153.757C137.18 151.72 135.974 150.369 134.129 150.369C132.284 150.369 131.078 151.72 131.078 153.757C131.078 155.781 132.284 157.132 134.129 157.132ZM134.134 156.062C132.928 156.062 132.365 155.01 132.365 153.753C132.365 152.5 132.928 151.435 134.134 151.435C135.331 151.435 135.893 152.5 135.893 153.753C135.893 155.01 135.331 156.062 134.134 156.062ZM141.347 159.591C143.013 159.591 144.3 158.828 144.3 157.145V150.455H143.051V151.516H142.958C142.732 151.111 142.28 150.369 141.061 150.369C139.48 150.369 138.317 151.618 138.317 153.702C138.317 155.79 139.506 156.902 141.053 156.902C142.255 156.902 142.719 156.224 142.949 155.807H143.03V157.094C143.03 158.121 142.327 158.564 141.36 158.564C140.299 158.564 139.885 158.031 139.659 157.656L138.564 158.108C138.909 158.909 139.783 159.591 141.347 159.591ZM141.334 155.845C140.196 155.845 139.604 154.972 139.604 153.685C139.604 152.428 140.184 151.452 141.334 151.452C142.446 151.452 143.043 152.359 143.043 153.685C143.043 155.036 142.434 155.845 141.334 155.845ZM147.283 148.273H146.009V157H147.283V148.273ZM151.818 157.132C153.246 157.132 154.256 156.429 154.545 155.364L153.339 155.146C153.109 155.764 152.555 156.08 151.831 156.08C150.74 156.08 150.007 155.372 149.973 154.111H154.626V153.659C154.626 151.294 153.212 150.369 151.729 150.369C149.905 150.369 148.703 151.759 148.703 153.77C148.703 155.803 149.888 157.132 151.818 157.132ZM149.977 153.156C150.028 152.227 150.702 151.422 151.737 151.422C152.726 151.422 153.374 152.155 153.378 153.156H149.977ZM159.318 157H160.635V153.932H162.425C164.449 153.932 165.45 152.709 165.45 151.098C165.45 149.491 164.457 148.273 162.429 148.273H159.318V157ZM160.635 152.815V149.402H162.288C163.592 149.402 164.125 150.109 164.125 151.098C164.125 152.087 163.592 152.815 162.305 152.815H160.635ZM168.738 157.145C169.82 157.145 170.43 156.595 170.673 156.105H170.724V157H171.968V152.653C171.968 150.749 170.468 150.369 169.428 150.369C168.244 150.369 167.153 150.847 166.727 152.04L167.924 152.312C168.112 151.848 168.589 151.401 169.445 151.401C170.268 151.401 170.69 151.831 170.69 152.572V152.602C170.69 153.067 170.212 153.058 169.036 153.195C167.796 153.339 166.526 153.663 166.526 155.151C166.526 156.438 167.494 157.145 168.738 157.145ZM169.015 156.122C168.295 156.122 167.775 155.798 167.775 155.168C167.775 154.486 168.38 154.243 169.117 154.145C169.531 154.089 170.511 153.979 170.694 153.795V154.639C170.694 155.415 170.076 156.122 169.015 156.122ZM174.236 159.455C175.289 159.455 175.953 158.905 176.333 157.874L179.039 150.467L177.662 150.455L176.005 155.534H175.936L174.279 150.455H172.915L175.31 157.085L175.152 157.52C174.828 158.389 174.373 158.462 173.674 158.27L173.367 159.314C173.52 159.382 173.853 159.455 174.236 159.455Z" fill="#232323"/>
<path d="M75.4219 175H76.4219L78.1875 168.625H78.25L80.0156 175H81.0156L83.2031 167H82.2188L80.5469 173.516H80.4688L78.7656 167H77.6719L75.9688 173.516H75.8906L74.2188 167H73.2344L75.4219 175ZM84.2852 175H85.207V169H84.2852V175ZM84.7539 168C85.1133 168 85.4102 167.719 85.4102 167.375C85.4102 167.031 85.1133 166.75 84.7539 166.75C84.3945 166.75 84.0977 167.031 84.0977 167.375C84.0977 167.719 84.3945 168 84.7539 168ZM89.5049 169H88.2236V167.562H87.3018V169H86.3955V169.781H87.3018V173.531C87.3018 174.578 88.1455 175.078 88.9268 175.078C89.2705 175.078 89.4893 175.016 89.6143 174.969L89.4268 174.141C89.3486 174.156 89.2236 174.187 89.0205 174.187C88.6143 174.187 88.2236 174.062 88.2236 173.281V169.781H89.5049V169ZM91.9424 171.391C91.9424 170.344 92.6104 169.75 93.5205 169.75C94.3877 169.75 94.9111 170.297 94.9111 171.25V175H95.833V171.188C95.833 169.645 95.0127 168.922 93.7861 168.922C92.8408 168.922 92.3018 169.316 92.0205 169.937H91.9424V167H91.0205V175H91.9424V171.391ZM99.7852 175.125C100.941 175.125 101.332 174.406 101.535 174.078H101.645V175H102.535V167H101.613V169.953H101.535C101.332 169.641 100.973 168.922 99.8008 168.922C98.2852 168.922 97.2383 170.125 97.2383 172.016C97.2383 173.922 98.2852 175.125 99.7852 175.125ZM99.9102 174.297C98.7539 174.297 98.1602 173.281 98.1602 172C98.1602 170.734 98.7383 169.75 99.9102 169.75C101.035 169.75 101.629 170.656 101.629 172C101.629 173.359 101.02 174.297 99.9102 174.297ZM104.352 175H105.273V171.203C105.273 170.391 105.914 169.797 106.789 169.797C107.035 169.797 107.289 169.844 107.352 169.859V168.922C107.246 168.914 107.004 168.906 106.867 168.906C106.148 168.906 105.523 169.312 105.305 169.906H105.242V169H104.352V175ZM110.21 175.141C111.257 175.141 111.804 174.578 111.991 174.187H112.038V175H112.96V171.047C112.96 169.141 111.507 168.922 110.741 168.922C109.835 168.922 108.804 169.234 108.335 170.328L109.21 170.641C109.413 170.203 109.894 169.734 110.772 169.734C111.62 169.734 112.038 170.184 112.038 170.953V170.984C112.038 171.43 111.585 171.391 110.491 171.531C109.378 171.676 108.163 171.922 108.163 173.297C108.163 174.469 109.069 175.141 110.21 175.141ZM110.351 174.312C109.616 174.312 109.085 173.984 109.085 173.344C109.085 172.641 109.726 172.422 110.444 172.328C110.835 172.281 111.882 172.172 112.038 171.984V172.828C112.038 173.578 111.444 174.312 110.351 174.312ZM116.002 175H116.908L118.221 170.391H118.314L119.627 175H120.533L122.361 169H121.393L120.096 173.578H120.033L118.768 169H117.783L116.502 173.594H116.439L115.143 169H114.174L116.002 175ZM128.033 175H128.939L130.252 170.391H130.346L131.658 175H132.564L134.393 169H133.424L132.127 173.578H132.064L130.799 169H129.814L128.533 173.594H128.471L127.174 169H126.205L128.033 175ZM135.611 175H136.533V169H135.611V175ZM136.08 168C136.439 168 136.736 167.719 136.736 167.375C136.736 167.031 136.439 166.75 136.08 166.75C135.721 166.75 135.424 167.031 135.424 167.375C135.424 167.719 135.721 168 136.08 168ZM140.831 169H139.55V167.562H138.628V169H137.722V169.781H138.628V173.531C138.628 174.578 139.472 175.078 140.253 175.078C140.597 175.078 140.815 175.016 140.94 174.969L140.753 174.141C140.675 174.156 140.55 174.187 140.347 174.187C139.94 174.187 139.55 174.062 139.55 173.281V169.781H140.831V169ZM143.269 171.391C143.269 170.344 143.937 169.75 144.847 169.75C145.714 169.75 146.237 170.297 146.237 171.25V175H147.159V171.188C147.159 169.645 146.339 168.922 145.112 168.922C144.167 168.922 143.628 169.316 143.347 169.937H143.269V167H142.347V175H143.269V171.391ZM151.283 175.125C152.908 175.125 154.002 173.891 154.002 172.031C154.002 170.156 152.908 168.922 151.283 168.922C149.658 168.922 148.564 170.156 148.564 172.031C148.564 173.891 149.658 175.125 151.283 175.125ZM151.283 174.297C150.049 174.297 149.486 173.234 149.486 172.031C149.486 170.828 150.049 169.75 151.283 169.75C152.518 169.75 153.08 170.828 153.08 172.031C153.08 173.234 152.518 174.297 151.283 174.297ZM159.19 172.547C159.19 173.672 158.331 174.187 157.644 174.187C156.878 174.187 156.331 173.625 156.331 172.75V169H155.409V172.812C155.409 174.344 156.222 175.078 157.347 175.078C158.253 175.078 158.847 174.594 159.128 173.984H159.19V175H160.112V169H159.19V172.547ZM164.41 169H163.129V167.562H162.207V169H161.301V169.781H162.207V173.531C162.207 174.578 163.051 175.078 163.832 175.078C164.176 175.078 164.395 175.016 164.52 174.969L164.332 174.141C164.254 174.156 164.129 174.187 163.926 174.187C163.52 174.187 163.129 174.062 163.129 173.281V169.781H164.41V169ZM170.656 175.141C171.703 175.141 172.25 174.578 172.438 174.187H172.484V175H173.406V171.047C173.406 169.141 171.953 168.922 171.188 168.922C170.281 168.922 169.25 169.234 168.781 170.328L169.656 170.641C169.859 170.203 170.34 169.734 171.219 169.734C172.066 169.734 172.484 170.184 172.484 170.953V170.984C172.484 171.43 172.031 171.391 170.938 171.531C169.824 171.676 168.609 171.922 168.609 173.297C168.609 174.469 169.516 175.141 170.656 175.141ZM170.797 174.312C170.063 174.312 169.531 173.984 169.531 173.344C169.531 172.641 170.172 172.422 170.891 172.328C171.281 172.281 172.328 172.172 172.484 171.984V172.828C172.484 173.578 171.891 174.312 170.797 174.312ZM176.011 171.391C176.011 170.344 176.659 169.75 177.542 169.75C178.397 169.75 178.917 170.309 178.917 171.25V175H179.839V171.188C179.839 169.656 179.022 168.922 177.808 168.922C176.901 168.922 176.339 169.328 176.058 169.937H175.979V169H175.089V175H176.011V171.391ZM181.902 177.25C182.734 177.25 183.32 176.809 183.668 175.875L186.223 169.016L185.215 169L183.559 173.781H183.496L181.84 169H180.84L183.059 175.031L182.887 175.5C182.551 176.414 182.137 176.5 181.465 176.328L181.23 177.141C181.324 177.188 181.59 177.25 181.902 177.25ZM192.974 175.125C194.302 175.125 195.177 174.312 195.333 173.25H194.411C194.239 173.906 193.692 174.297 192.974 174.297C191.88 174.297 191.177 173.391 191.177 172C191.177 170.641 191.896 169.75 192.974 169.75C193.786 169.75 194.271 170.25 194.411 170.797H195.333C195.177 169.672 194.224 168.922 192.958 168.922C191.333 168.922 190.255 170.203 190.255 172.031C190.255 173.828 191.286 175.125 192.974 175.125ZM198.446 175.141C199.493 175.141 200.04 174.578 200.228 174.187H200.274V175H201.196V171.047C201.196 169.141 199.743 168.922 198.978 168.922C198.071 168.922 197.04 169.234 196.571 170.328L197.446 170.641C197.649 170.203 198.13 169.734 199.009 169.734C199.856 169.734 200.274 170.184 200.274 170.953V170.984C200.274 171.43 199.821 171.391 198.728 171.531C197.614 171.676 196.399 171.922 196.399 173.297C196.399 174.469 197.306 175.141 198.446 175.141ZM198.587 174.312C197.853 174.312 197.321 173.984 197.321 173.344C197.321 172.641 197.962 172.422 198.681 172.328C199.071 172.281 200.118 172.172 200.274 171.984V172.828C200.274 173.578 199.681 174.312 198.587 174.312ZM202.879 175H203.801V171.203C203.801 170.391 204.441 169.797 205.316 169.797C205.563 169.797 205.816 169.844 205.879 169.859V168.922C205.773 168.914 205.531 168.906 205.395 168.906C204.676 168.906 204.051 169.312 203.832 169.906H203.77V169H202.879V175ZM209.055 175.125C210.211 175.125 210.602 174.406 210.805 174.078H210.914V175H211.805V167H210.883V169.953H210.805C210.602 169.641 210.242 168.922 209.07 168.922C207.555 168.922 206.508 170.125 206.508 172.016C206.508 173.922 207.555 175.125 209.055 175.125ZM209.18 174.297C208.023 174.297 207.43 173.281 207.43 172C207.43 170.734 208.008 169.75 209.18 169.75C210.305 169.75 210.898 170.656 210.898 172C210.898 173.359 210.289 174.297 209.18 174.297Z" fill="#718EBF"/>
<rect x="18" y="138" width="45" height="45" rx="15" fill="#FFE0EB"/>
<g clip-path="url(#clip0_1_2277)">
<path d="M42.25 160V162.5H48.15C47.55 166 44.75 168.5 41.25 168.5C37.15 168.5 33.75 165.1 33.75 161C33.75 156.9 37.15 153.5 41.25 153.5C43.35 153.5 45.15 154.4 46.45 155.8L48.25 154C46.45 152.2 44.05 151 41.25 151C35.75 151 31.25 155.5 31.25 161C31.25 166.5 35.75 171 41.25 171C46.75 171 50.75 166.5 50.75 161V160H42.25Z" fill="#FF82AC"/>
</g>
<path d="M74.696 216L75.4972 213.69H78.9062L79.7031 216H81.1009L77.9602 207.273H76.4389L73.2983 216H74.696ZM75.8807 212.582L77.1676 208.858H77.2358L78.5227 212.582H75.8807ZM84.6037 216.128C85.7969 216.128 86.2656 215.399 86.4957 214.982H86.6023V216H87.8466V207.273H86.5724V210.516H86.4957C86.2656 210.111 85.831 209.369 84.6122 209.369C83.0312 209.369 81.8679 210.618 81.8679 212.74C81.8679 214.858 83.0142 216.128 84.6037 216.128ZM84.8849 215.041C83.7472 215.041 83.1548 214.04 83.1548 212.727C83.1548 211.428 83.7344 210.452 84.8849 210.452C85.9972 210.452 86.5938 211.359 86.5938 212.727C86.5938 214.104 85.9844 215.041 84.8849 215.041ZM92.1154 216.128C93.3086 216.128 93.7773 215.399 94.0075 214.982H94.114V216H95.3583V207.273H94.0842V210.516H94.0075C93.7773 210.111 93.3427 209.369 92.1239 209.369C90.543 209.369 89.3796 210.618 89.3796 212.74C89.3796 214.858 90.5259 216.128 92.1154 216.128ZM92.3967 215.041C91.2589 215.041 90.6665 214.04 90.6665 212.727C90.6665 211.428 91.2461 210.452 92.3967 210.452C93.5089 210.452 94.1055 211.359 94.1055 212.727C94.1055 214.104 93.4961 215.041 92.3967 215.041ZM103.408 209.455H102.066V207.886H100.792V209.455H99.8327V210.477H100.792V214.342C100.787 215.531 101.695 216.107 102.701 216.085C103.105 216.081 103.378 216.004 103.527 215.949L103.297 214.896C103.212 214.913 103.054 214.952 102.85 214.952C102.436 214.952 102.066 214.815 102.066 214.078V210.477H103.408V209.455ZM107.504 216.132C109.349 216.132 110.555 214.781 110.555 212.757C110.555 210.72 109.349 209.369 107.504 209.369C105.659 209.369 104.453 210.72 104.453 212.757C104.453 214.781 105.659 216.132 107.504 216.132ZM107.509 215.062C106.303 215.062 105.74 214.01 105.74 212.753C105.74 211.5 106.303 210.435 107.509 210.435C108.706 210.435 109.268 211.5 109.268 212.753C109.268 214.01 108.706 215.062 107.509 215.062ZM115.993 216L116.794 213.69H120.203L121 216H122.398L119.257 207.273H117.736L114.595 216H115.993ZM117.178 212.582L118.464 208.858H118.533L119.82 212.582H117.178ZM123.556 218.455H124.83V214.982H124.907C125.137 215.399 125.605 216.128 126.799 216.128C128.384 216.128 129.534 214.858 129.534 212.74C129.534 210.618 128.367 209.369 126.786 209.369C125.571 209.369 125.132 210.111 124.907 210.516H124.8V209.455H123.556V218.455ZM124.804 212.727C124.804 211.359 125.401 210.452 126.513 210.452C127.668 210.452 128.248 211.428 128.248 212.727C128.248 214.04 127.651 215.041 126.513 215.041C125.418 215.041 124.804 214.104 124.804 212.727ZM130.962 218.455H132.236V214.982H132.313C132.543 215.399 133.012 216.128 134.205 216.128C135.79 216.128 136.941 214.858 136.941 212.74C136.941 210.618 135.773 209.369 134.192 209.369C132.978 209.369 132.539 210.111 132.313 210.516H132.206V209.455H130.962V218.455ZM132.211 212.727C132.211 211.359 132.807 210.452 133.919 210.452C135.074 210.452 135.654 211.428 135.654 212.727C135.654 214.04 135.057 215.041 133.919 215.041C132.824 215.041 132.211 214.104 132.211 212.727ZM139.642 207.273H138.368V216H139.642V207.273ZM144.178 216.132C145.605 216.132 146.615 215.429 146.905 214.364L145.699 214.146C145.469 214.764 144.915 215.08 144.19 215.08C143.099 215.08 142.366 214.372 142.332 213.111H146.986V212.659C146.986 210.294 145.571 209.369 144.088 209.369C142.264 209.369 141.062 210.759 141.062 212.77C141.062 214.803 142.247 216.132 144.178 216.132ZM142.337 212.156C142.388 211.227 143.061 210.422 144.097 210.422C145.085 210.422 145.733 211.155 145.737 212.156H142.337ZM151.678 216H152.994V212.932H154.784C156.808 212.932 157.81 211.709 157.81 210.098C157.81 208.491 156.817 207.273 154.788 207.273H151.678V216ZM152.994 211.815V208.402H154.648C155.952 208.402 156.484 209.109 156.484 210.098C156.484 211.087 155.952 211.815 154.665 211.815H152.994ZM161.097 216.145C162.18 216.145 162.789 215.595 163.032 215.105H163.083V216H164.327V211.653C164.327 209.749 162.827 209.369 161.788 209.369C160.603 209.369 159.512 209.847 159.086 211.04L160.283 211.312C160.471 210.848 160.948 210.401 161.805 210.401C162.627 210.401 163.049 210.831 163.049 211.572V211.602C163.049 212.067 162.572 212.058 161.396 212.195C160.156 212.339 158.886 212.663 158.886 214.151C158.886 215.438 159.853 216.145 161.097 216.145ZM161.374 215.122C160.654 215.122 160.134 214.798 160.134 214.168C160.134 213.486 160.739 213.243 161.477 213.145C161.89 213.089 162.87 212.979 163.053 212.795V213.639C163.053 214.415 162.435 215.122 161.374 215.122ZM166.596 218.455C167.648 218.455 168.313 217.905 168.692 216.874L171.398 209.467L170.022 209.455L168.364 214.534H168.296L166.638 209.455H165.275L167.669 216.085L167.512 216.52C167.188 217.389 166.732 217.462 166.033 217.27L165.726 218.314C165.88 218.382 166.212 218.455 166.596 218.455Z" fill="#232323"/>
<path d="M75.4219 234H76.4219L78.1875 227.625H78.25L80.0156 234H81.0156L83.2031 226H82.2188L80.5469 232.516H80.4688L78.7656 226H77.6719L75.9688 232.516H75.8906L74.2188 226H73.2344L75.4219 234ZM84.2852 234H85.207V228H84.2852V234ZM84.7539 227C85.1133 227 85.4102 226.719 85.4102 226.375C85.4102 226.031 85.1133 225.75 84.7539 225.75C84.3945 225.75 84.0977 226.031 84.0977 226.375C84.0977 226.719 84.3945 227 84.7539 227ZM89.5049 228H88.2236V226.562H87.3018V228H86.3955V228.781H87.3018V232.531C87.3018 233.578 88.1455 234.078 88.9268 234.078C89.2705 234.078 89.4893 234.016 89.6143 233.969L89.4268 233.141C89.3486 233.156 89.2236 233.187 89.0205 233.187C88.6143 233.187 88.2236 233.062 88.2236 232.281V228.781H89.5049V228ZM91.9424 230.391C91.9424 229.344 92.6104 228.75 93.5205 228.75C94.3877 228.75 94.9111 229.297 94.9111 230.25V234H95.833V230.188C95.833 228.645 95.0127 227.922 93.7861 227.922C92.8408 227.922 92.3018 228.316 92.0205 228.937H91.9424V226H91.0205V234H91.9424V230.391ZM99.7852 234.125C100.941 234.125 101.332 233.406 101.535 233.078H101.645V234H102.535V226H101.613V228.953H101.535C101.332 228.641 100.973 227.922 99.8008 227.922C98.2852 227.922 97.2383 229.125 97.2383 231.016C97.2383 232.922 98.2852 234.125 99.7852 234.125ZM99.9102 233.297C98.7539 233.297 98.1602 232.281 98.1602 231C98.1602 229.734 98.7383 228.75 99.9102 228.75C101.035 228.75 101.629 229.656 101.629 231C101.629 232.359 101.02 233.297 99.9102 233.297ZM104.352 234H105.273V230.203C105.273 229.391 105.914 228.797 106.789 228.797C107.035 228.797 107.289 228.844 107.352 228.859V227.922C107.246 227.914 107.004 227.906 106.867 227.906C106.148 227.906 105.523 228.312 105.305 228.906H105.242V228H104.352V234ZM110.21 234.141C111.257 234.141 111.804 233.578 111.991 233.187H112.038V234H112.96V230.047C112.96 228.141 111.507 227.922 110.741 227.922C109.835 227.922 108.804 228.234 108.335 229.328L109.21 229.641C109.413 229.203 109.894 228.734 110.772 228.734C111.62 228.734 112.038 229.184 112.038 229.953V229.984C112.038 230.43 111.585 230.391 110.491 230.531C109.378 230.676 108.163 230.922 108.163 232.297C108.163 233.469 109.069 234.141 110.21 234.141ZM110.351 233.312C109.616 233.312 109.085 232.984 109.085 232.344C109.085 231.641 109.726 231.422 110.444 231.328C110.835 231.281 111.882 231.172 112.038 230.984V231.828C112.038 232.578 111.444 233.312 110.351 233.312ZM116.002 234H116.908L118.221 229.391H118.314L119.627 234H120.533L122.361 228H121.393L120.096 232.578H120.033L118.768 228H117.783L116.502 232.594H116.439L115.143 228H114.174L116.002 234ZM128.033 234H128.939L130.252 229.391H130.346L131.658 234H132.564L134.393 228H133.424L132.127 232.578H132.064L130.799 228H129.814L128.533 232.594H128.471L127.174 228H126.205L128.033 234ZM135.611 234H136.533V228H135.611V234ZM136.08 227C136.439 227 136.736 226.719 136.736 226.375C136.736 226.031 136.439 225.75 136.08 225.75C135.721 225.75 135.424 226.031 135.424 226.375C135.424 226.719 135.721 227 136.08 227ZM140.831 228H139.55V226.562H138.628V228H137.722V228.781H138.628V232.531C138.628 233.578 139.472 234.078 140.253 234.078C140.597 234.078 140.815 234.016 140.94 233.969L140.753 233.141C140.675 233.156 140.55 233.187 140.347 233.187C139.94 233.187 139.55 233.062 139.55 232.281V228.781H140.831V228ZM143.269 230.391C143.269 229.344 143.937 228.75 144.847 228.75C145.714 228.75 146.237 229.297 146.237 230.25V234H147.159V230.188C147.159 228.645 146.339 227.922 145.112 227.922C144.167 227.922 143.628 228.316 143.347 228.937H143.269V226H142.347V234H143.269V230.391ZM151.283 234.125C152.908 234.125 154.002 232.891 154.002 231.031C154.002 229.156 152.908 227.922 151.283 227.922C149.658 227.922 148.564 229.156 148.564 231.031C148.564 232.891 149.658 234.125 151.283 234.125ZM151.283 233.297C150.049 233.297 149.486 232.234 149.486 231.031C149.486 229.828 150.049 228.75 151.283 228.75C152.518 228.75 153.08 229.828 153.08 231.031C153.08 232.234 152.518 233.297 151.283 233.297ZM159.19 231.547C159.19 232.672 158.331 233.187 157.644 233.187C156.878 233.187 156.331 232.625 156.331 231.75V228H155.409V231.812C155.409 233.344 156.222 234.078 157.347 234.078C158.253 234.078 158.847 233.594 159.128 232.984H159.19V234H160.112V228H159.19V231.547ZM164.41 228H163.129V226.562H162.207V228H161.301V228.781H162.207V232.531C162.207 233.578 163.051 234.078 163.832 234.078C164.176 234.078 164.395 234.016 164.52 233.969L164.332 233.141C164.254 233.156 164.129 233.187 163.926 233.187C163.52 233.187 163.129 233.062 163.129 232.281V228.781H164.41V228ZM170.656 234.141C171.703 234.141 172.25 233.578 172.438 233.187H172.484V234H173.406V230.047C173.406 228.141 171.953 227.922 171.188 227.922C170.281 227.922 169.25 228.234 168.781 229.328L169.656 229.641C169.859 229.203 170.34 228.734 171.219 228.734C172.066 228.734 172.484 229.184 172.484 229.953V229.984C172.484 230.43 172.031 230.391 170.938 230.531C169.824 230.676 168.609 230.922 168.609 232.297C168.609 233.469 169.516 234.141 170.656 234.141ZM170.797 233.312C170.063 233.312 169.531 232.984 169.531 232.344C169.531 231.641 170.172 231.422 170.891 231.328C171.281 231.281 172.328 231.172 172.484 230.984V231.828C172.484 232.578 171.891 233.312 170.797 233.312ZM176.011 230.391C176.011 229.344 176.659 228.75 177.542 228.75C178.397 228.75 178.917 229.309 178.917 230.25V234H179.839V230.188C179.839 228.656 179.022 227.922 177.808 227.922C176.901 227.922 176.339 228.328 176.058 228.937H175.979V228H175.089V234H176.011V230.391ZM181.902 236.25C182.734 236.25 183.32 235.809 183.668 234.875L186.223 228.016L185.215 228L183.559 232.781H183.496L181.84 228H180.84L183.059 234.031L182.887 234.5C182.551 235.414 182.137 235.5 181.465 235.328L181.23 236.141C181.324 236.188 181.59 236.25 181.902 236.25ZM192.974 234.125C194.302 234.125 195.177 233.312 195.333 232.25H194.411C194.239 232.906 193.692 233.297 192.974 233.297C191.88 233.297 191.177 232.391 191.177 231C191.177 229.641 191.896 228.75 192.974 228.75C193.786 228.75 194.271 229.25 194.411 229.797H195.333C195.177 228.672 194.224 227.922 192.958 227.922C191.333 227.922 190.255 229.203 190.255 231.031C190.255 232.828 191.286 234.125 192.974 234.125ZM198.446 234.141C199.493 234.141 200.04 233.578 200.228 233.187H200.274V234H201.196V230.047C201.196 228.141 199.743 227.922 198.978 227.922C198.071 227.922 197.04 228.234 196.571 229.328L197.446 229.641C197.649 229.203 198.13 228.734 199.009 228.734C199.856 228.734 200.274 229.184 200.274 229.953V229.984C200.274 230.43 199.821 230.391 198.728 230.531C197.614 230.676 196.399 230.922 196.399 232.297C196.399 233.469 197.306 234.141 198.446 234.141ZM198.587 233.312C197.853 233.312 197.321 232.984 197.321 232.344C197.321 231.641 197.962 231.422 198.681 231.328C199.071 231.281 200.118 231.172 200.274 230.984V231.828C200.274 232.578 199.681 233.312 198.587 233.312ZM202.879 234H203.801V230.203C203.801 229.391 204.441 228.797 205.316 228.797C205.563 228.797 205.816 228.844 205.879 228.859V227.922C205.773 227.914 205.531 227.906 205.395 227.906C204.676 227.906 204.051 228.312 203.832 228.906H203.77V228H202.879V234ZM209.055 234.125C210.211 234.125 210.602 233.406 210.805 233.078H210.914V234H211.805V226H210.883V228.953H210.805C210.602 228.641 210.242 227.922 209.07 227.922C207.555 227.922 206.508 229.125 206.508 231.016C206.508 232.922 207.555 234.125 209.055 234.125ZM209.18 233.297C208.023 233.297 207.43 232.281 207.43 231C207.43 229.734 208.008 228.75 209.18 228.75C210.305 228.75 210.898 229.656 210.898 231C210.898 232.359 210.289 233.297 209.18 233.297Z" fill="#718EBF"/>
<rect x="18" y="197" width="45" height="45" rx="15" fill="#DCFAF8"/>
<g clip-path="url(#clip1_1_2277)">
<path d="M43.2508 214.687L43.355 214.91C42.9345 215.011 42.5601 215.152 42.2509 215.273C42.1778 215.301 42.1097 215.328 42.0455 215.354C41.9699 215.384 41.8997 215.411 41.8331 215.437L41.7617 215.336C42.2943 215.237 42.8019 215.011 43.2508 214.687Z" fill="#16DBCC" stroke="#16DBCC" stroke-width="2"/>
</g>
<path d="M81.2074 92.1108C80.9091 90.2443 79.4474 89.1534 77.6023 89.1534C75.3438 89.1534 73.6776 90.8452 73.6776 93.6364C73.6776 96.4276 75.3352 98.1193 77.6023 98.1193C79.5199 98.1193 80.9219 96.9176 81.2074 95.1918L79.8778 95.1875C79.652 96.304 78.7145 96.9176 77.6108 96.9176C76.1151 96.9176 74.9858 95.7713 74.9858 93.6364C74.9858 91.5185 76.1108 90.3551 77.6151 90.3551C78.7273 90.3551 79.6605 90.9815 79.8778 92.1108H81.2074ZM83.9549 94.1136C83.9549 93.0696 84.6154 92.473 85.5231 92.473C86.4009 92.473 86.9251 93.0312 86.9251 93.9901V98H88.1992V93.8366C88.1992 92.2045 87.3043 91.3693 85.9577 91.3693C84.9393 91.3693 84.3256 91.8125 84.0188 92.5199H83.9379V89.2727H82.6808V98H83.9549V94.1136ZM91.8043 98.1449C92.8867 98.1449 93.4961 97.5952 93.739 97.1051H93.7901V98H95.0344V93.6534C95.0344 91.7486 93.5344 91.3693 92.4947 91.3693C91.31 91.3693 90.2191 91.8466 89.793 93.0398L90.9904 93.3125C91.1779 92.848 91.6552 92.4006 92.5117 92.4006C93.3342 92.4006 93.756 92.831 93.756 93.5724V93.6023C93.756 94.0668 93.2788 94.0582 92.1026 94.1946C90.8626 94.3395 89.5927 94.6634 89.5927 96.1506C89.5927 97.4375 90.56 98.1449 91.8043 98.1449ZM92.0813 97.1222C91.3612 97.1222 90.8413 96.7983 90.8413 96.1676C90.8413 95.4858 91.4464 95.2429 92.1836 95.1449C92.5969 95.0895 93.5771 94.9787 93.7603 94.7955V95.6392C93.7603 96.4148 93.1424 97.1222 92.0813 97.1222ZM98.0057 94.1136C98.0057 93.0696 98.6449 92.473 99.5312 92.473C100.396 92.473 100.92 93.0398 100.92 93.9901V98H102.195V93.8366C102.195 92.2173 101.304 91.3693 99.9659 91.3693C98.9815 91.3693 98.3381 91.8253 98.0355 92.5199H97.9545V91.4545H96.7315V98H98.0057V94.1136ZM106.648 100.591C108.314 100.591 109.601 99.8281 109.601 98.1449V91.4545H108.352V92.5156H108.259C108.033 92.1108 107.581 91.3693 106.362 91.3693C104.781 91.3693 103.618 92.6179 103.618 94.7017C103.618 96.7898 104.807 97.902 106.354 97.902C107.555 97.902 108.02 97.2244 108.25 96.8068H108.331V98.0938C108.331 99.1207 107.628 99.5639 106.661 99.5639C105.599 99.5639 105.186 99.0312 104.96 98.6562L103.865 99.108C104.21 99.9091 105.084 100.591 106.648 100.591ZM106.635 96.8452C105.497 96.8452 104.905 95.9716 104.905 94.6847C104.905 93.4276 105.484 92.4517 106.635 92.4517C107.747 92.4517 108.344 93.3594 108.344 94.6847C108.344 96.0355 107.734 96.8452 106.635 96.8452ZM114.131 98.1321C115.558 98.1321 116.568 97.429 116.858 96.3636L115.652 96.1463C115.422 96.7642 114.868 97.0795 114.143 97.0795C113.053 97.0795 112.32 96.3722 112.286 95.1108H116.939V94.6591C116.939 92.294 115.524 91.3693 114.041 91.3693C112.217 91.3693 111.016 92.7585 111.016 94.7699C111.016 96.8026 112.2 98.1321 114.131 98.1321ZM112.29 94.1562C112.341 93.2273 113.014 92.4219 114.05 92.4219C115.038 92.4219 115.686 93.1548 115.69 94.1562H112.29ZM121.631 98H122.947V94.9318H124.737C126.761 94.9318 127.763 93.7088 127.763 92.098C127.763 90.4915 126.77 89.2727 124.741 89.2727H121.631V98ZM122.947 93.8153V90.402H124.601C125.905 90.402 126.438 91.1094 126.438 92.098C126.438 93.0866 125.905 93.8153 124.618 93.8153H122.947ZM129.204 98H130.478V91.4545H129.204V98ZM129.848 90.4446C130.287 90.4446 130.653 90.1037 130.653 89.6861C130.653 89.2685 130.287 88.9233 129.848 88.9233C129.404 88.9233 129.042 89.2685 129.042 89.6861C129.042 90.1037 129.404 90.4446 129.848 90.4446ZM134.95 98.1321C136.496 98.1321 137.498 97.2031 137.638 95.929H136.398C136.237 96.6364 135.687 97.054 134.958 97.054C133.88 97.054 133.185 96.1548 133.185 94.7273C133.185 93.3253 133.893 92.4432 134.958 92.4432C135.768 92.4432 136.262 92.9545 136.398 93.5682H137.638C137.502 92.2472 136.424 91.3693 134.937 91.3693C133.092 91.3693 131.898 92.7585 131.898 94.7571C131.898 96.7301 133.049 98.1321 134.95 98.1321ZM149.528 92.1108C149.229 90.2443 147.768 89.1534 145.923 89.1534C143.664 89.1534 141.998 90.8452 141.998 93.6364C141.998 96.4276 143.656 98.1193 145.923 98.1193C147.84 98.1193 149.242 96.9176 149.528 95.1918L148.198 95.1875C147.972 96.304 147.035 96.9176 145.931 96.9176C144.435 96.9176 143.306 95.7713 143.306 93.6364C143.306 91.5185 144.431 90.3551 145.935 90.3551C147.048 90.3551 147.981 90.9815 148.198 92.1108H149.528ZM153.758 98.1321C155.603 98.1321 156.809 96.7812 156.809 94.7571C156.809 92.7202 155.603 91.3693 153.758 91.3693C151.913 91.3693 150.707 92.7202 150.707 94.7571C150.707 96.7812 151.913 98.1321 153.758 98.1321ZM153.762 97.0625C152.556 97.0625 151.994 96.0099 151.994 94.7528C151.994 93.5 152.556 92.4347 153.762 92.4347C154.96 92.4347 155.522 93.5 155.522 94.7528C155.522 96.0099 154.96 97.0625 153.762 97.0625ZM160.682 98.1278C161.875 98.1278 162.344 97.3991 162.574 96.9815H162.68V98H163.925V89.2727H162.651V92.5156H162.574C162.344 92.1108 161.909 91.3693 160.69 91.3693C159.109 91.3693 157.946 92.6179 157.946 94.7401C157.946 96.858 159.092 98.1278 160.682 98.1278ZM160.963 97.0412C159.825 97.0412 159.233 96.0398 159.233 94.7273C159.233 93.4276 159.812 92.4517 160.963 92.4517C162.075 92.4517 162.672 93.3594 162.672 94.7273C162.672 96.1037 162.062 97.0412 160.963 97.0412ZM168.564 98.1321C169.992 98.1321 171.002 97.429 171.292 96.3636L170.086 96.1463C169.855 96.7642 169.301 97.0795 168.577 97.0795C167.486 97.0795 166.753 96.3722 166.719 95.1108H171.373V94.6591C171.373 92.294 169.958 91.3693 168.475 91.3693C166.651 91.3693 165.449 92.7585 165.449 94.7699C165.449 96.8026 166.634 98.1321 168.564 98.1321ZM166.723 94.1562C166.775 93.2273 167.448 92.4219 168.483 92.4219C169.472 92.4219 170.12 93.1548 170.124 94.1562H166.723Z" fill="#232323"/>
<path d="M75.4219 116H76.4219L78.1875 109.625H78.25L80.0156 116H81.0156L83.2031 108H82.2188L80.5469 114.516H80.4688L78.7656 108H77.6719L75.9688 114.516H75.8906L74.2188 108H73.2344L75.4219 116ZM84.2852 116H85.207V110H84.2852V116ZM84.7539 109C85.1133 109 85.4102 108.719 85.4102 108.375C85.4102 108.031 85.1133 107.75 84.7539 107.75C84.3945 107.75 84.0977 108.031 84.0977 108.375C84.0977 108.719 84.3945 109 84.7539 109ZM89.5049 110H88.2236V108.562H87.3018V110H86.3955V110.781H87.3018V114.531C87.3018 115.578 88.1455 116.078 88.9268 116.078C89.2705 116.078 89.4893 116.016 89.6143 115.969L89.4268 115.141C89.3486 115.156 89.2236 115.187 89.0205 115.187C88.6143 115.187 88.2236 115.062 88.2236 114.281V110.781H89.5049V110ZM91.9424 112.391C91.9424 111.344 92.6104 110.75 93.5205 110.75C94.3877 110.75 94.9111 111.297 94.9111 112.25V116H95.833V112.188C95.833 110.645 95.0127 109.922 93.7861 109.922C92.8408 109.922 92.3018 110.316 92.0205 110.937H91.9424V108H91.0205V116H91.9424V112.391ZM99.7852 116.125C100.941 116.125 101.332 115.406 101.535 115.078H101.645V116H102.535V108H101.613V110.953H101.535C101.332 110.641 100.973 109.922 99.8008 109.922C98.2852 109.922 97.2383 111.125 97.2383 113.016C97.2383 114.922 98.2852 116.125 99.7852 116.125ZM99.9102 115.297C98.7539 115.297 98.1602 114.281 98.1602 113C98.1602 111.734 98.7383 110.75 99.9102 110.75C101.035 110.75 101.629 111.656 101.629 113C101.629 114.359 101.02 115.297 99.9102 115.297ZM104.352 116H105.273V112.203C105.273 111.391 105.914 110.797 106.789 110.797C107.035 110.797 107.289 110.844 107.352 110.859V109.922C107.246 109.914 107.004 109.906 106.867 109.906C106.148 109.906 105.523 110.312 105.305 110.906H105.242V110H104.352V116ZM110.21 116.141C111.257 116.141 111.804 115.578 111.991 115.187H112.038V116H112.96V112.047C112.96 110.141 111.507 109.922 110.741 109.922C109.835 109.922 108.804 110.234 108.335 111.328L109.21 111.641C109.413 111.203 109.894 110.734 110.772 110.734C111.62 110.734 112.038 111.184 112.038 111.953V111.984C112.038 112.43 111.585 112.391 110.491 112.531C109.378 112.676 108.163 112.922 108.163 114.297C108.163 115.469 109.069 116.141 110.21 116.141ZM110.351 115.312C109.616 115.312 109.085 114.984 109.085 114.344C109.085 113.641 109.726 113.422 110.444 113.328C110.835 113.281 111.882 113.172 112.038 112.984V113.828C112.038 114.578 111.444 115.312 110.351 115.312ZM116.002 116H116.908L118.221 111.391H118.314L119.627 116H120.533L122.361 110H121.393L120.096 114.578H120.033L118.768 110H117.783L116.502 114.594H116.439L115.143 110H114.174L116.002 116ZM128.033 116H128.939L130.252 111.391H130.346L131.658 116H132.564L134.393 110H133.424L132.127 114.578H132.064L130.799 110H129.814L128.533 114.594H128.471L127.174 110H126.205L128.033 116ZM135.611 116H136.533V110H135.611V116ZM136.08 109C136.439 109 136.736 108.719 136.736 108.375C136.736 108.031 136.439 107.75 136.08 107.75C135.721 107.75 135.424 108.031 135.424 108.375C135.424 108.719 135.721 109 136.08 109ZM140.831 110H139.55V108.562H138.628V110H137.722V110.781H138.628V114.531C138.628 115.578 139.472 116.078 140.253 116.078C140.597 116.078 140.815 116.016 140.94 115.969L140.753 115.141C140.675 115.156 140.55 115.187 140.347 115.187C139.94 115.187 139.55 115.062 139.55 114.281V110.781H140.831V110ZM143.269 112.391C143.269 111.344 143.937 110.75 144.847 110.75C145.714 110.75 146.237 111.297 146.237 112.25V116H147.159V112.188C147.159 110.645 146.339 109.922 145.112 109.922C144.167 109.922 143.628 110.316 143.347 110.937H143.269V108H142.347V116H143.269V112.391ZM151.283 116.125C152.908 116.125 154.002 114.891 154.002 113.031C154.002 111.156 152.908 109.922 151.283 109.922C149.658 109.922 148.564 111.156 148.564 113.031C148.564 114.891 149.658 116.125 151.283 116.125ZM151.283 115.297C150.049 115.297 149.486 114.234 149.486 113.031C149.486 111.828 150.049 110.75 151.283 110.75C152.518 110.75 153.08 111.828 153.08 113.031C153.08 114.234 152.518 115.297 151.283 115.297ZM159.19 113.547C159.19 114.672 158.331 115.187 157.644 115.187C156.878 115.187 156.331 114.625 156.331 113.75V110H155.409V113.812C155.409 115.344 156.222 116.078 157.347 116.078C158.253 116.078 158.847 115.594 159.128 114.984H159.19V116H160.112V110H159.19V113.547ZM164.41 110H163.129V108.562H162.207V110H161.301V110.781H162.207V114.531C162.207 115.578 163.051 116.078 163.832 116.078C164.176 116.078 164.395 116.016 164.52 115.969L164.332 115.141C164.254 115.156 164.129 115.187 163.926 115.187C163.52 115.187 163.129 115.062 163.129 114.281V110.781H164.41V110ZM170.656 116.141C171.703 116.141 172.25 115.578 172.438 115.187H172.484V116H173.406V112.047C173.406 110.141 171.953 109.922 171.188 109.922C170.281 109.922 169.25 110.234 168.781 111.328L169.656 111.641C169.859 111.203 170.34 110.734 171.219 110.734C172.066 110.734 172.484 111.184 172.484 111.953V111.984C172.484 112.43 172.031 112.391 170.938 112.531C169.824 112.676 168.609 112.922 168.609 114.297C168.609 115.469 169.516 116.141 170.656 116.141ZM170.797 115.312C170.063 115.312 169.531 114.984 169.531 114.344C169.531 113.641 170.172 113.422 170.891 113.328C171.281 113.281 172.328 113.172 172.484 112.984V113.828C172.484 114.578 171.891 115.312 170.797 115.312ZM176.011 112.391C176.011 111.344 176.659 110.75 177.542 110.75C178.397 110.75 178.917 111.309 178.917 112.25V116H179.839V112.188C179.839 110.656 179.022 109.922 177.808 109.922C176.901 109.922 176.339 110.328 176.058 110.937H175.979V110H175.089V116H176.011V112.391ZM181.902 118.25C182.734 118.25 183.32 117.809 183.668 116.875L186.223 110.016L185.215 110L183.559 114.781H183.496L181.84 110H180.84L183.059 116.031L182.887 116.5C182.551 117.414 182.137 117.5 181.465 117.328L181.23 118.141C181.324 118.188 181.59 118.25 181.902 118.25ZM192.974 116.125C194.302 116.125 195.177 115.312 195.333 114.25H194.411C194.239 114.906 193.692 115.297 192.974 115.297C191.88 115.297 191.177 114.391 191.177 113C191.177 111.641 191.896 110.75 192.974 110.75C193.786 110.75 194.271 111.25 194.411 111.797H195.333C195.177 110.672 194.224 109.922 192.958 109.922C191.333 109.922 190.255 111.203 190.255 113.031C190.255 114.828 191.286 116.125 192.974 116.125ZM198.446 116.141C199.493 116.141 200.04 115.578 200.228 115.187H200.274V116H201.196V112.047C201.196 110.141 199.743 109.922 198.978 109.922C198.071 109.922 197.04 110.234 196.571 111.328L197.446 111.641C197.649 111.203 198.13 110.734 199.009 110.734C199.856 110.734 200.274 111.184 200.274 111.953V111.984C200.274 112.43 199.821 112.391 198.728 112.531C197.614 112.676 196.399 112.922 196.399 114.297C196.399 115.469 197.306 116.141 198.446 116.141ZM198.587 115.312C197.853 115.312 197.321 114.984 197.321 114.344C197.321 113.641 197.962 113.422 198.681 113.328C199.071 113.281 200.118 113.172 200.274 112.984V113.828C200.274 114.578 199.681 115.312 198.587 115.312ZM202.879 116H203.801V112.203C203.801 111.391 204.441 110.797 205.316 110.797C205.563 110.797 205.816 110.844 205.879 110.859V109.922C205.773 109.914 205.531 109.906 205.395 109.906C204.676 109.906 204.051 110.312 203.832 110.906H203.77V110H202.879V116ZM209.055 116.125C210.211 116.125 210.602 115.406 210.805 115.078H210.914V116H211.805V108H210.883V110.953H210.805C210.602 110.641 210.242 109.922 209.07 109.922C207.555 109.922 206.508 111.125 206.508 113.016C206.508 114.922 207.555 116.125 209.055 116.125ZM209.18 115.297C208.023 115.297 207.43 114.281 207.43 113C207.43 111.734 208.008 110.75 209.18 110.75C210.305 110.75 210.898 111.656 210.898 113C210.898 114.359 210.289 115.297 209.18 115.297Z" fill="#718EBF"/>
<rect x="18" y="79" width="45" height="45" rx="15" fill="#E7EDFF"/>
<path d="M46.625 99.3438H45.2173V96.1316C45.2173 93.8534 43.3248 92 40.9986 92C38.6723 92 36.7798 93.8534 36.7798 96.1316V99.3438H35.375C34.0827 99.3438 33.0312 100.395 33.0312 101.688V109.656C33.0312 110.949 34.0827 112 35.375 112H46.625C47.9173 112 48.9688 110.949 48.9688 109.656V101.688C48.9688 100.395 47.9173 99.3438 46.625 99.3438ZM38.3423 96.1316C38.3423 94.715 39.5339 93.5625 40.9986 93.5625C42.4632 93.5625 43.6548 94.715 43.6548 96.1316V99.3438H38.3423V96.1316ZM47.4062 109.656C47.4062 110.087 47.0558 110.438 46.625 110.438H35.375C34.9442 110.438 34.5938 110.087 34.5938 109.656V101.688C34.5938 101.257 34.9442 100.906 35.375 100.906H46.625C47.0558 100.906 47.4062 101.257 47.4062 101.688V109.656Z" fill="#396AFF"/>
<path d="M41 103.172C40.2018 103.172 39.5547 103.819 39.5547 104.617C39.5547 105.127 39.8187 105.575 40.2173 105.832V107.547C40.2173 107.978 40.5671 108.328 40.9986 108.328C41.43 108.328 41.7798 107.978 41.7798 107.547V105.834C42.18 105.577 42.4453 105.128 42.4453 104.617C42.4453 103.819 41.7982 103.172 41 103.172Z" fill="#396AFF"/>
<path d="M74.696 275L75.4972 272.69H78.9062L79.7031 275H81.1009L77.9602 266.273H76.4389L73.2983 275H74.696ZM75.8807 271.582L77.1676 267.858H77.2358L78.5227 271.582H75.8807ZM84.6037 275.128C85.7969 275.128 86.2656 274.399 86.4957 273.982H86.6023V275H87.8466V266.273H86.5724V269.516H86.4957C86.2656 269.111 85.831 268.369 84.6122 268.369C83.0312 268.369 81.8679 269.618 81.8679 271.74C81.8679 273.858 83.0142 275.128 84.6037 275.128ZM84.8849 274.041C83.7472 274.041 83.1548 273.04 83.1548 271.727C83.1548 270.428 83.7344 269.452 84.8849 269.452C85.9972 269.452 86.5938 270.359 86.5938 271.727C86.5938 273.104 85.9844 274.041 84.8849 274.041ZM92.1154 275.128C93.3086 275.128 93.7773 274.399 94.0075 273.982H94.114V275H95.3583V266.273H94.0842V269.516H94.0075C93.7773 269.111 93.3427 268.369 92.1239 268.369C90.543 268.369 89.3796 269.618 89.3796 271.74C89.3796 273.858 90.5259 275.128 92.1154 275.128ZM92.3967 274.041C91.2589 274.041 90.6665 273.04 90.6665 271.727C90.6665 270.428 91.2461 269.452 92.3967 269.452C93.5089 269.452 94.1055 270.359 94.1055 271.727C94.1055 273.104 93.4961 274.041 92.3967 274.041ZM103.408 268.455H102.066V266.886H100.792V268.455H99.8327V269.477H100.792V273.342C100.787 274.531 101.695 275.107 102.701 275.085C103.105 275.081 103.378 275.004 103.527 274.949L103.297 273.896C103.212 273.913 103.054 273.952 102.85 273.952C102.436 273.952 102.066 273.815 102.066 273.078V269.477H103.408V268.455ZM107.504 275.132C109.349 275.132 110.555 273.781 110.555 271.757C110.555 269.72 109.349 268.369 107.504 268.369C105.659 268.369 104.453 269.72 104.453 271.757C104.453 273.781 105.659 275.132 107.504 275.132ZM107.509 274.062C106.303 274.062 105.74 273.01 105.74 271.753C105.74 270.5 106.303 269.435 107.509 269.435C108.706 269.435 109.268 270.5 109.268 271.753C109.268 273.01 108.706 274.062 107.509 274.062ZM115.993 275L116.794 272.69H120.203L121 275H122.398L119.257 266.273H117.736L114.595 275H115.993ZM117.178 271.582L118.464 267.858H118.533L119.82 271.582H117.178ZM123.556 277.455H124.83V273.982H124.907C125.137 274.399 125.605 275.128 126.799 275.128C128.384 275.128 129.534 273.858 129.534 271.74C129.534 269.618 128.367 268.369 126.786 268.369C125.571 268.369 125.132 269.111 124.907 269.516H124.8V268.455H123.556V277.455ZM124.804 271.727C124.804 270.359 125.401 269.452 126.513 269.452C127.668 269.452 128.248 270.428 128.248 271.727C128.248 273.04 127.651 274.041 126.513 274.041C125.418 274.041 124.804 273.104 124.804 271.727ZM130.962 277.455H132.236V273.982H132.313C132.543 274.399 133.012 275.128 134.205 275.128C135.79 275.128 136.941 273.858 136.941 271.74C136.941 269.618 135.773 268.369 134.192 268.369C132.978 268.369 132.539 269.111 132.313 269.516H132.206V268.455H130.962V277.455ZM132.211 271.727C132.211 270.359 132.807 269.452 133.919 269.452C135.074 269.452 135.654 270.428 135.654 271.727C135.654 273.04 135.057 274.041 133.919 274.041C132.824 274.041 132.211 273.104 132.211 271.727ZM139.642 266.273H138.368V275H139.642V266.273ZM144.178 275.132C145.605 275.132 146.615 274.429 146.905 273.364L145.699 273.146C145.469 273.764 144.915 274.08 144.19 274.08C143.099 274.08 142.366 273.372 142.332 272.111H146.986V271.659C146.986 269.294 145.571 268.369 144.088 268.369C142.264 268.369 141.062 269.759 141.062 271.77C141.062 273.803 142.247 275.132 144.178 275.132ZM142.337 271.156C142.388 270.227 143.061 269.422 144.097 269.422C145.085 269.422 145.733 270.155 145.737 271.156H142.337ZM156.438 268.565H157.707C157.669 267.168 156.433 266.153 154.661 266.153C152.909 266.153 151.567 267.155 151.567 268.659C151.567 269.874 152.436 270.585 153.838 270.964L154.869 271.246C155.803 271.493 156.523 271.8 156.523 272.575C156.523 273.428 155.709 273.99 154.588 273.99C153.574 273.99 152.73 273.538 152.653 272.588H151.332C151.418 274.169 152.641 275.145 154.597 275.145C156.646 275.145 157.827 274.067 157.827 272.588C157.827 271.016 156.425 270.406 155.317 270.134L154.464 269.912C153.783 269.737 152.875 269.418 152.879 268.582C152.879 267.841 153.557 267.291 154.631 267.291C155.632 267.291 156.344 267.76 156.438 268.565ZM162.353 268.455H161.011V266.886H159.737V268.455H158.778V269.477H159.737V273.342C159.733 274.531 160.64 275.107 161.646 275.085C162.051 275.081 162.324 275.004 162.473 274.949L162.243 273.896C162.157 273.913 162 273.952 161.795 273.952C161.382 273.952 161.011 273.815 161.011 273.078V269.477H162.353V268.455ZM166.45 275.132C168.295 275.132 169.501 273.781 169.501 271.757C169.501 269.72 168.295 268.369 166.45 268.369C164.604 268.369 163.398 269.72 163.398 271.757C163.398 273.781 164.604 275.132 166.45 275.132ZM166.454 274.062C165.248 274.062 164.685 273.01 164.685 271.753C164.685 270.5 165.248 269.435 166.454 269.435C167.651 269.435 168.214 270.5 168.214 271.753C168.214 273.01 167.651 274.062 166.454 274.062ZM170.923 275H172.197V271.003C172.197 270.146 172.858 269.528 173.761 269.528C174.025 269.528 174.324 269.575 174.426 269.605V268.386C174.298 268.369 174.047 268.357 173.885 268.357C173.118 268.357 172.461 268.791 172.223 269.494H172.154V268.455H170.923V275ZM178.115 275.132C179.543 275.132 180.553 274.429 180.842 273.364L179.636 273.146C179.406 273.764 178.852 274.08 178.128 274.08C177.037 274.08 176.304 273.372 176.27 272.111H180.923V271.659C180.923 269.294 179.509 268.369 178.026 268.369C176.202 268.369 175 269.759 175 271.77C175 273.803 176.185 275.132 178.115 275.132ZM176.274 271.156C176.325 270.227 176.999 269.422 178.034 269.422C179.023 269.422 179.67 270.155 179.675 271.156H176.274Z" fill="#232323"/>
<path d="M75.4219 293H76.4219L78.1875 286.625H78.25L80.0156 293H81.0156L83.2031 285H82.2188L80.5469 291.516H80.4688L78.7656 285H77.6719L75.9688 291.516H75.8906L74.2188 285H73.2344L75.4219 293ZM84.2852 293H85.207V287H84.2852V293ZM84.7539 286C85.1133 286 85.4102 285.719 85.4102 285.375C85.4102 285.031 85.1133 284.75 84.7539 284.75C84.3945 284.75 84.0977 285.031 84.0977 285.375C84.0977 285.719 84.3945 286 84.7539 286ZM89.5049 287H88.2236V285.562H87.3018V287H86.3955V287.781H87.3018V291.531C87.3018 292.578 88.1455 293.078 88.9268 293.078C89.2705 293.078 89.4893 293.016 89.6143 292.969L89.4268 292.141C89.3486 292.156 89.2236 292.187 89.0205 292.187C88.6143 292.187 88.2236 292.062 88.2236 291.281V287.781H89.5049V287ZM91.9424 289.391C91.9424 288.344 92.6104 287.75 93.5205 287.75C94.3877 287.75 94.9111 288.297 94.9111 289.25V293H95.833V289.188C95.833 287.645 95.0127 286.922 93.7861 286.922C92.8408 286.922 92.3018 287.316 92.0205 287.937H91.9424V285H91.0205V293H91.9424V289.391ZM99.7852 293.125C100.941 293.125 101.332 292.406 101.535 292.078H101.645V293H102.535V285H101.613V287.953H101.535C101.332 287.641 100.973 286.922 99.8008 286.922C98.2852 286.922 97.2383 288.125 97.2383 290.016C97.2383 291.922 98.2852 293.125 99.7852 293.125ZM99.9102 292.297C98.7539 292.297 98.1602 291.281 98.1602 290C98.1602 288.734 98.7383 287.75 99.9102 287.75C101.035 287.75 101.629 288.656 101.629 290C101.629 291.359 101.02 292.297 99.9102 292.297ZM104.352 293H105.273V289.203C105.273 288.391 105.914 287.797 106.789 287.797C107.035 287.797 107.289 287.844 107.352 287.859V286.922C107.246 286.914 107.004 286.906 106.867 286.906C106.148 286.906 105.523 287.312 105.305 287.906H105.242V287H104.352V293ZM110.21 293.141C111.257 293.141 111.804 292.578 111.991 292.187H112.038V293H112.96V289.047C112.96 287.141 111.507 286.922 110.741 286.922C109.835 286.922 108.804 287.234 108.335 288.328L109.21 288.641C109.413 288.203 109.894 287.734 110.772 287.734C111.62 287.734 112.038 288.184 112.038 288.953V288.984C112.038 289.43 111.585 289.391 110.491 289.531C109.378 289.676 108.163 289.922 108.163 291.297C108.163 292.469 109.069 293.141 110.21 293.141ZM110.351 292.312C109.616 292.312 109.085 291.984 109.085 291.344C109.085 290.641 109.726 290.422 110.444 290.328C110.835 290.281 111.882 290.172 112.038 289.984V290.828C112.038 291.578 111.444 292.312 110.351 292.312ZM116.002 293H116.908L118.221 288.391H118.314L119.627 293H120.533L122.361 287H121.393L120.096 291.578H120.033L118.768 287H117.783L116.502 291.594H116.439L115.143 287H114.174L116.002 293ZM128.033 293H128.939L130.252 288.391H130.346L131.658 293H132.564L134.393 287H133.424L132.127 291.578H132.064L130.799 287H129.814L128.533 291.594H128.471L127.174 287H126.205L128.033 293ZM135.611 293H136.533V287H135.611V293ZM136.08 286C136.439 286 136.736 285.719 136.736 285.375C136.736 285.031 136.439 284.75 136.08 284.75C135.721 284.75 135.424 285.031 135.424 285.375C135.424 285.719 135.721 286 136.08 286ZM140.831 287H139.55V285.562H138.628V287H137.722V287.781H138.628V291.531C138.628 292.578 139.472 293.078 140.253 293.078C140.597 293.078 140.815 293.016 140.94 292.969L140.753 292.141C140.675 292.156 140.55 292.187 140.347 292.187C139.94 292.187 139.55 292.062 139.55 291.281V287.781H140.831V287ZM143.269 289.391C143.269 288.344 143.937 287.75 144.847 287.75C145.714 287.75 146.237 288.297 146.237 289.25V293H147.159V289.188C147.159 287.645 146.339 286.922 145.112 286.922C144.167 286.922 143.628 287.316 143.347 287.937H143.269V285H142.347V293H143.269V289.391ZM151.283 293.125C152.908 293.125 154.002 291.891 154.002 290.031C154.002 288.156 152.908 286.922 151.283 286.922C149.658 286.922 148.564 288.156 148.564 290.031C148.564 291.891 149.658 293.125 151.283 293.125ZM151.283 292.297C150.049 292.297 149.486 291.234 149.486 290.031C149.486 288.828 150.049 287.75 151.283 287.75C152.518 287.75 153.08 288.828 153.08 290.031C153.08 291.234 152.518 292.297 151.283 292.297ZM159.19 290.547C159.19 291.672 158.331 292.187 157.644 292.187C156.878 292.187 156.331 291.625 156.331 290.75V287H155.409V290.812C155.409 292.344 156.222 293.078 157.347 293.078C158.253 293.078 158.847 292.594 159.128 291.984H159.19V293H160.112V287H159.19V290.547ZM164.41 287H163.129V285.562H162.207V287H161.301V287.781H162.207V291.531C162.207 292.578 163.051 293.078 163.832 293.078C164.176 293.078 164.395 293.016 164.52 292.969L164.332 292.141C164.254 292.156 164.129 292.187 163.926 292.187C163.52 292.187 163.129 292.062 163.129 291.281V287.781H164.41V287ZM170.656 293.141C171.703 293.141 172.25 292.578 172.438 292.187H172.484V293H173.406V289.047C173.406 287.141 171.953 286.922 171.188 286.922C170.281 286.922 169.25 287.234 168.781 288.328L169.656 288.641C169.859 288.203 170.34 287.734 171.219 287.734C172.066 287.734 172.484 288.184 172.484 288.953V288.984C172.484 289.43 172.031 289.391 170.938 289.531C169.824 289.676 168.609 289.922 168.609 291.297C168.609 292.469 169.516 293.141 170.656 293.141ZM170.797 292.312C170.063 292.312 169.531 291.984 169.531 291.344C169.531 290.641 170.172 290.422 170.891 290.328C171.281 290.281 172.328 290.172 172.484 289.984V290.828C172.484 291.578 171.891 292.312 170.797 292.312ZM176.011 289.391C176.011 288.344 176.659 287.75 177.542 287.75C178.397 287.75 178.917 288.309 178.917 289.25V293H179.839V289.188C179.839 287.656 179.022 286.922 177.808 286.922C176.901 286.922 176.339 287.328 176.058 287.937H175.979V287H175.089V293H176.011V289.391ZM181.902 295.25C182.734 295.25 183.32 294.809 183.668 293.875L186.223 287.016L185.215 287L183.559 291.781H183.496L181.84 287H180.84L183.059 293.031L182.887 293.5C182.551 294.414 182.137 294.5 181.465 294.328L181.23 295.141C181.324 295.188 181.59 295.25 181.902 295.25ZM192.974 293.125C194.302 293.125 195.177 292.312 195.333 291.25H194.411C194.239 291.906 193.692 292.297 192.974 292.297C191.88 292.297 191.177 291.391 191.177 290C191.177 288.641 191.896 287.75 192.974 287.75C193.786 287.75 194.271 288.25 194.411 288.797H195.333C195.177 287.672 194.224 286.922 192.958 286.922C191.333 286.922 190.255 288.203 190.255 290.031C190.255 291.828 191.286 293.125 192.974 293.125ZM198.446 293.141C199.493 293.141 200.04 292.578 200.228 292.187H200.274V293H201.196V289.047C201.196 287.141 199.743 286.922 198.978 286.922C198.071 286.922 197.04 287.234 196.571 288.328L197.446 288.641C197.649 288.203 198.13 287.734 199.009 287.734C199.856 287.734 200.274 288.184 200.274 288.953V288.984C200.274 289.43 199.821 289.391 198.728 289.531C197.614 289.676 196.399 289.922 196.399 291.297C196.399 292.469 197.306 293.141 198.446 293.141ZM198.587 292.312C197.853 292.312 197.321 291.984 197.321 291.344C197.321 290.641 197.962 290.422 198.681 290.328C199.071 290.281 200.118 290.172 200.274 289.984V290.828C200.274 291.578 199.681 292.312 198.587 292.312ZM202.879 293H203.801V289.203C203.801 288.391 204.441 287.797 205.316 287.797C205.563 287.797 205.816 287.844 205.879 287.859V286.922C205.773 286.914 205.531 286.906 205.395 286.906C204.676 286.906 204.051 287.312 203.832 287.906H203.77V287H202.879V293ZM209.055 293.125C210.211 293.125 210.602 292.406 210.805 292.078H210.914V293H211.805V285H210.883V287.953H210.805C210.602 287.641 210.242 286.922 209.07 286.922C207.555 286.922 206.508 288.125 206.508 290.016C206.508 291.922 207.555 293.125 209.055 293.125ZM209.18 292.297C208.023 292.297 207.43 291.281 207.43 290C207.43 288.734 208.008 287.75 209.18 287.75C210.305 287.75 210.898 288.656 210.898 290C210.898 291.359 210.289 292.297 209.18 292.297Z" fill="#718EBF"/>
<rect x="18" y="256" width="45" height="45" rx="15" fill="#DCFAF8"/>
<g clip-path="url(#clip2_1_2277)">
<path d="M43.2508 273.687L43.355 273.91C42.9345 274.011 42.5601 274.152 42.2509 274.273C42.1778 274.301 42.1097 274.328 42.0455 274.354C41.9699 274.384 41.8997 274.411 41.8331 274.437L41.7617 274.336C42.2943 274.237 42.8019 274.011 43.2508 273.687Z" fill="#16DBCC" stroke="#16DBCC" stroke-width="2"/>
</g>
<defs>
<clipPath id="clip0_1_2277">
<rect width="20" height="20" fill="white" transform="translate(31 151)"/>
</clipPath>
<clipPath id="clip1_1_2277">
<rect width="20" height="20" fill="white" transform="translate(31 210)"/>
</clipPath>
<clipPath id="clip2_1_2277">
<rect width="20" height="20" fill="white" transform="translate(31 269)"/>
</clipPath>
</defs>
</svg>
