<svg width="325" height="69" viewBox="0 0 325 69" fill="none" xmlns="http://www.w3.org/2000/svg">
<rect width="325" height="69" rx="10" fill="white"/>
<rect x="12" y="12" width="45" height="45" rx="12" fill="#FFE0EB"/>
<g clip-path="url(#clip0_1_2520)">
<path d="M42.6621 30.5103V30.2367C42.6621 28.979 41.6389 27.9557 40.3812 27.9557H27.2809C26.0232 27.9558 25 28.979 25 30.2367V30.5103H42.6621Z" fill="#FF82AC"/>
<path d="M35.4347 37.8474C35.4347 36.6643 35.8152 35.5397 36.5178 34.6129H25V37.7946C25 39.0523 26.0232 40.0756 27.2809 40.0756H35.9162C35.601 39.3851 35.4347 38.6291 35.4347 37.8474ZM33.8311 37.1561H31.8625V35.9842H33.8311V37.1561ZM27.6273 35.9842H30.6906V37.1561H27.6273V35.9842Z" fill="#FF82AC"/>
<path d="M37.7344 33.4411C38.6281 32.8158 39.6898 32.4789 40.8033 32.4789C41.4478 32.4789 42.0748 32.5921 42.6621 32.8084V31.6822H25V33.4411H37.7344Z" fill="#FF82AC"/>
<path d="M45 37.8474C45 35.5297 43.1211 33.6508 40.8033 33.6508C38.4855 33.6508 36.6066 35.5297 36.6066 37.8474C36.6066 40.1652 38.4855 42.0441 40.8033 42.0441C43.1211 42.0441 45 40.1652 45 37.8474ZM41.369 40.0894V40.5663H40.7831V40.5664V40.5663H40.1971V40.0929C39.8429 39.973 39.553 39.7619 39.27 39.5549L39.9618 38.609C40.3421 38.8872 40.5367 39.0208 40.8033 39.0208C40.9541 39.0208 41.0762 38.9491 41.1219 38.8336C41.1773 38.6937 41.0991 38.5649 40.9124 38.4889C40.9124 38.4889 40.0749 38.2096 39.6877 37.8148C39.3628 37.4836 39.2594 37.0168 39.3628 36.5728C39.467 36.1257 39.7689 35.7761 40.1971 35.6016V35.1285H41.369V35.582C41.6666 35.6646 41.9185 35.7868 42.0634 35.8654L41.5043 36.8953C41.1336 36.6941 40.7926 36.6337 40.6598 36.6791C40.531 36.7231 40.5115 36.807 40.5041 36.8387C40.4937 36.8835 40.4881 36.9522 40.5597 37.0321C40.6287 37.1089 41.3543 37.4036 41.3543 37.4036C42.1371 37.7223 42.5056 38.5226 42.2114 39.2652C42.0585 39.6512 41.7509 39.9435 41.369 40.0894Z" fill="#FF82AC"/>
</g>
<path d="M78.5753 24.1293C78.2273 21.9517 76.522 20.679 74.3693 20.679C71.7344 20.679 69.7905 22.6527 69.7905 25.9091C69.7905 29.1655 71.7244 31.1392 74.3693 31.1392C76.6065 31.1392 78.2422 29.7372 78.5753 27.7237L77.0241 27.7188C76.7607 29.0213 75.6669 29.7372 74.3793 29.7372C72.6342 29.7372 71.3168 28.3999 71.3168 25.9091C71.3168 23.4382 72.6293 22.081 74.3842 22.081C75.6818 22.081 76.7706 22.8118 77.0241 24.1293H78.5753ZM82.5165 31.169C83.7793 31.169 84.4902 30.5277 84.7736 29.956H84.8333V31H86.285V25.929C86.285 23.7067 84.535 23.2642 83.3219 23.2642C81.9398 23.2642 80.6671 23.821 80.1699 25.2131L81.5669 25.5312C81.7857 24.9893 82.3425 24.4673 83.3418 24.4673C84.3013 24.4673 84.7935 24.9695 84.7935 25.8345V25.8693C84.7935 26.4112 84.2367 26.4013 82.8645 26.5604C81.4178 26.7294 79.9363 27.1072 79.9363 28.8423C79.9363 30.3438 81.0648 31.169 82.5165 31.169ZM82.8397 29.9759C81.9995 29.9759 81.3929 29.598 81.3929 28.8622C81.3929 28.0668 82.0989 27.7834 82.959 27.669C83.4412 27.6044 84.5847 27.4751 84.7985 27.2614V28.2457C84.7985 29.1506 84.0776 29.9759 82.8397 29.9759ZM88.2649 31H89.7514V26.3366C89.7514 25.3374 90.522 24.6165 91.576 24.6165C91.8842 24.6165 92.2322 24.6712 92.3516 24.706V23.2841C92.2024 23.2642 91.9091 23.2493 91.7202 23.2493C90.8253 23.2493 90.0597 23.7564 89.7812 24.5767H89.7017V23.3636H88.2649V31ZM96.2232 31.1491C97.6152 31.1491 98.1621 30.299 98.4306 29.8118H98.5549V31H100.007V20.8182H98.5201V24.6016H98.4306C98.1621 24.1293 97.655 23.2642 96.2331 23.2642C94.3887 23.2642 93.0314 24.7209 93.0314 27.1967C93.0314 29.6676 94.3688 31.1491 96.2232 31.1491ZM96.5513 29.8814C95.2239 29.8814 94.5328 28.7131 94.5328 27.1818C94.5328 25.6655 95.209 24.527 96.5513 24.527C97.8489 24.527 98.5449 25.5859 98.5449 27.1818C98.5449 28.7876 97.834 29.8814 96.5513 29.8814ZM105.45 22.1406H108.622V31H110.154V22.1406H113.33V20.8182H105.45V22.1406ZM115.017 33.8636C116.245 33.8636 117.021 33.2223 117.463 32.0192L120.62 23.3786L119.014 23.3636L117.08 29.2898H117.001L115.067 23.3636H113.476L116.27 31.0994L116.086 31.6065C115.708 32.6207 115.176 32.7053 114.361 32.4815L114.003 33.6996C114.182 33.7791 114.57 33.8636 115.017 33.8636ZM122.021 33.8636H123.507V29.8118H123.597C123.865 30.299 124.412 31.1491 125.804 31.1491C127.654 31.1491 128.996 29.6676 128.996 27.1967C128.996 24.7209 127.634 23.2642 125.789 23.2642C124.372 23.2642 123.86 24.1293 123.597 24.6016H123.472V23.3636H122.021V33.8636ZM123.477 27.1818C123.477 25.5859 124.173 24.527 125.471 24.527C126.818 24.527 127.494 25.6655 127.494 27.1818C127.494 28.7131 126.798 29.8814 125.471 29.8814C124.193 29.8814 123.477 28.7876 123.477 27.1818ZM133.953 31.1541C135.618 31.1541 136.796 30.3338 137.134 29.0909L135.727 28.8374C135.459 29.5582 134.813 29.9261 133.968 29.9261C132.695 29.9261 131.84 29.1009 131.8 27.6293H137.229V27.1023C137.229 24.343 135.578 23.2642 133.848 23.2642C131.72 23.2642 130.318 24.8849 130.318 27.2315C130.318 29.603 131.7 31.1541 133.953 31.1541ZM131.805 26.5156C131.865 25.4318 132.65 24.4922 133.858 24.4922C135.012 24.4922 135.767 25.3473 135.772 26.5156H131.805Z" fill="#232323"/>
<path d="M74.8295 43.4545H75.8523C75.8054 42.1378 74.5909 41.1534 72.9034 41.1534C71.233 41.1534 69.9205 42.125 69.9205 43.5909C69.9205 44.767 70.7727 45.4659 72.1364 45.858L73.2102 46.1648C74.1307 46.4205 74.9489 46.7443 74.9489 47.6136C74.9489 48.5682 74.0284 49.1989 72.8182 49.1989C71.7784 49.1989 70.858 48.7386 70.7727 47.75H69.6818C69.7841 49.1818 70.9432 50.1534 72.8182 50.1534C74.8295 50.1534 75.9716 49.0455 75.9716 47.6307C75.9716 45.9943 74.4205 45.4659 73.517 45.2273L72.6307 44.9886C71.983 44.8182 70.9432 44.4773 70.9432 43.5398C70.9432 42.7045 71.7102 42.0909 72.8693 42.0909C73.9261 42.0909 74.7273 42.5938 74.8295 43.4545ZM80.3171 50.1364C81.6467 50.1364 82.6183 49.4716 82.9251 48.483L81.9535 48.2102C81.6978 48.892 81.1055 49.233 80.3171 49.233C79.1367 49.233 78.3228 48.4702 78.2759 47.0682H83.0273V46.642C83.0273 44.2045 81.5785 43.3693 80.2148 43.3693C78.4421 43.3693 77.266 44.767 77.266 46.7784C77.266 48.7898 78.4251 50.1364 80.3171 50.1364ZM78.2759 46.1989C78.3441 45.1804 79.0643 44.2727 80.2148 44.2727C81.3058 44.2727 82.0046 45.0909 82.0046 46.1989H78.2759ZM87.2163 50.1364C88.6651 50.1364 89.6197 49.25 89.7901 48.0909H88.7844C88.5969 48.8068 88.0004 49.233 87.2163 49.233C86.0231 49.233 85.256 48.2443 85.256 46.7273C85.256 45.2443 86.0401 44.2727 87.2163 44.2727C88.1026 44.2727 88.631 44.8182 88.7844 45.4148H89.7901C89.6197 44.1875 88.5799 43.3693 87.1992 43.3693C85.4265 43.3693 84.2504 44.767 84.2504 46.7614C84.2504 48.7216 85.3754 50.1364 87.2163 50.1364ZM93.9194 50.1364C95.6921 50.1364 96.8853 48.7898 96.8853 46.7614C96.8853 44.7159 95.6921 43.3693 93.9194 43.3693C92.1467 43.3693 90.9535 44.7159 90.9535 46.7614C90.9535 48.7898 92.1467 50.1364 93.9194 50.1364ZM93.9194 49.233C92.5728 49.233 91.9592 48.0739 91.9592 46.7614C91.9592 45.4489 92.5728 44.2727 93.9194 44.2727C95.266 44.2727 95.8796 45.4489 95.8796 46.7614C95.8796 48.0739 95.266 49.233 93.9194 49.233ZM99.4261 46.0625C99.4261 44.9205 100.134 44.2727 101.097 44.2727C102.03 44.2727 102.597 44.8821 102.597 45.9091V50H103.602V45.8409C103.602 44.1705 102.712 43.3693 101.386 43.3693C100.398 43.3693 99.7841 43.8125 99.4773 44.4773H99.392V43.4545H98.4205V50H99.4261V46.0625ZM107.912 50.1364C109.173 50.1364 109.599 49.3523 109.821 48.9943H109.94V50H110.912V41.2727H109.906V44.4943H109.821C109.599 44.1534 109.207 43.3693 107.929 43.3693C106.275 43.3693 105.133 44.6818 105.133 46.7443C105.133 48.8239 106.275 50.1364 107.912 50.1364ZM108.048 49.233C106.787 49.233 106.139 48.125 106.139 46.7273C106.139 45.3466 106.77 44.2727 108.048 44.2727C109.275 44.2727 109.923 45.2614 109.923 46.7273C109.923 48.2102 109.258 49.233 108.048 49.233ZM114.819 50.1534C115.961 50.1534 116.558 49.5398 116.762 49.1136H116.814V50H117.819V45.6875C117.819 43.608 116.234 43.3693 115.399 43.3693C114.41 43.3693 113.285 43.7102 112.774 44.9034L113.728 45.2443C113.95 44.767 114.474 44.2557 115.433 44.2557C116.358 44.2557 116.814 44.7457 116.814 45.5852V45.6193C116.814 46.1051 116.319 46.0625 115.126 46.2159C113.912 46.3736 112.586 46.642 112.586 48.142C112.586 49.4205 113.575 50.1534 114.819 50.1534ZM114.973 49.25C114.172 49.25 113.592 48.892 113.592 48.1932C113.592 47.4261 114.291 47.1875 115.075 47.0852C115.501 47.0341 116.643 46.9148 116.814 46.7102V47.6307C116.814 48.4489 116.166 49.25 114.973 49.25ZM119.655 50H120.661V45.858C120.661 44.9716 121.359 44.3239 122.314 44.3239C122.582 44.3239 122.859 44.375 122.928 44.392V43.3693C122.812 43.3608 122.548 43.3523 122.399 43.3523C121.615 43.3523 120.933 43.7955 120.695 44.4432H120.626V43.4545H119.655V50ZM124.967 52.4545C125.874 52.4545 126.513 51.973 126.893 50.9545L129.68 43.4716L128.58 43.4545L126.773 48.6705H126.705L124.898 43.4545H123.808L126.228 50.0341L126.04 50.5455C125.674 51.5426 125.222 51.6364 124.489 51.4489L124.234 52.3352C124.336 52.3864 124.626 52.4545 124.967 52.4545Z" fill="#718EBF"/>
<path d="M167.119 31H171.021C173.388 31 174.457 29.8217 174.457 28.2607C174.457 26.6847 173.353 25.7947 172.344 25.7401V25.6406C173.278 25.402 174.059 24.7656 174.059 23.4929C174.059 21.9865 173.015 20.8182 170.847 20.8182H167.119V31ZM168.655 29.6825V26.4212H170.927C172.16 26.4212 172.93 27.2166 172.93 28.1861C172.93 29.0412 172.349 29.6825 170.872 29.6825H168.655ZM168.655 25.223V22.1257H170.753C171.971 22.1257 172.553 22.767 172.553 23.6122C172.553 24.5966 171.747 25.223 170.713 25.223H168.655ZM178.382 31.169C179.645 31.169 180.355 30.5277 180.639 29.956H180.699V31H182.15V25.929C182.15 23.7067 180.4 23.2642 179.187 23.2642C177.805 23.2642 176.532 23.821 176.035 25.2131L177.432 25.5312C177.651 24.9893 178.208 24.4673 179.207 24.4673C180.167 24.4673 180.659 24.9695 180.659 25.8345V25.8693C180.659 26.4112 180.102 26.4013 178.73 26.5604C177.283 26.7294 175.801 27.1072 175.801 28.8423C175.801 30.3438 176.93 31.169 178.382 31.169ZM178.705 29.9759C177.865 29.9759 177.258 29.598 177.258 28.8622C177.258 28.0668 177.964 27.7834 178.824 27.669C179.306 27.6044 180.45 27.4751 180.664 27.2614V28.2457C180.664 29.1506 179.943 29.9759 178.705 29.9759ZM185.617 26.4659C185.617 25.2479 186.362 24.5518 187.396 24.5518C188.406 24.5518 189.017 25.2131 189.017 26.3217V31H190.504V26.1428C190.504 24.2536 189.465 23.2642 187.904 23.2642C186.755 23.2642 186.004 23.7962 185.651 24.6065H185.557V23.3636H184.13V31H185.617V26.4659ZM192.497 31H193.984V28.2905L194.725 27.5497L197.32 31H199.144L195.843 26.6399L198.936 23.3636H197.156L194.113 26.5952H193.984V20.8182H192.497V31Z" fill="#232323"/>
<path d="M167.057 50H170.21C172.273 50 173.125 48.9943 173.125 47.6818C173.125 46.3011 172.17 45.5511 171.369 45.5V45.4148C172.119 45.2102 172.784 44.7159 172.784 43.5909C172.784 42.3125 171.932 41.2727 170.108 41.2727H167.057V50ZM168.114 49.0625V46.0284H170.261C171.403 46.0284 172.119 46.7955 172.119 47.6818C172.119 48.4489 171.591 49.0625 170.21 49.0625H168.114ZM168.114 45.108V42.2102H170.108C171.267 42.2102 171.778 42.8239 171.778 43.5909C171.778 44.5114 171.028 45.108 170.074 45.108H168.114ZM174.862 50H175.918V46.5909H177.827C177.904 46.5909 177.977 46.5909 178.049 46.5866L179.89 50H181.117L179.144 46.3949C180.256 46.0156 180.776 45.108 180.776 43.9489C180.776 42.4062 179.856 41.2727 177.81 41.2727H174.862V50ZM175.918 45.6364V42.2102H177.776C179.191 42.2102 179.737 42.9006 179.737 43.9489C179.737 44.9972 179.191 45.6364 177.793 45.6364H175.918ZM189.56 44C189.236 42.2102 187.804 41.1534 186.049 41.1534C183.816 41.1534 182.196 42.875 182.196 45.6364C182.196 48.3977 183.816 50.1193 186.049 50.1193C187.804 50.1193 189.236 49.0625 189.56 47.2727H188.503C188.248 48.483 187.208 49.1307 186.049 49.1307C184.463 49.1307 183.219 47.9034 183.219 45.6364C183.219 43.3693 184.463 42.142 186.049 42.142C187.208 42.142 188.248 42.7898 188.503 44H189.56ZM194.643 50H197.796C199.859 50 200.711 48.9943 200.711 47.6818C200.711 46.3011 199.756 45.5511 198.955 45.5V45.4148C199.705 45.2102 200.37 44.7159 200.37 43.5909C200.37 42.3125 199.518 41.2727 197.694 41.2727H194.643V50ZM195.7 49.0625V46.0284H197.847C198.989 46.0284 199.705 46.7955 199.705 47.6818C199.705 48.4489 199.177 49.0625 197.796 49.0625H195.7ZM195.7 45.108V42.2102H197.694C198.853 42.2102 199.364 42.8239 199.364 43.5909C199.364 44.5114 198.614 45.108 197.66 45.108H195.7ZM204.237 50.1534C205.379 50.1534 205.976 49.5398 206.18 49.1136H206.232V50H207.237V45.6875C207.237 43.608 205.652 43.3693 204.817 43.3693C203.828 43.3693 202.703 43.7102 202.192 44.9034L203.146 45.2443C203.368 44.767 203.892 44.2557 204.851 44.2557C205.776 44.2557 206.232 44.7457 206.232 45.5852V45.6193C206.232 46.1051 205.737 46.0625 204.544 46.2159C203.33 46.3736 202.004 46.642 202.004 48.142C202.004 49.4205 202.993 50.1534 204.237 50.1534ZM204.391 49.25C203.589 49.25 203.01 48.892 203.01 48.1932C203.01 47.4261 203.709 47.1875 204.493 47.0852C204.919 47.0341 206.061 46.9148 206.232 46.7102V47.6307C206.232 48.4489 205.584 49.25 204.391 49.25ZM210.078 46.0625C210.078 44.9205 210.786 44.2727 211.749 44.2727C212.682 44.2727 213.249 44.8821 213.249 45.9091V50H214.255V45.8409C214.255 44.1705 213.364 43.3693 212.039 43.3693C211.05 43.3693 210.436 43.8125 210.13 44.4773H210.044V43.4545H209.073V50H210.078V46.0625ZM216.092 50H217.098V47.5497L217.801 46.8977L220.251 50H221.53L218.56 46.25L221.325 43.4545H220.081L217.217 46.3693H217.098V41.2727H216.092V50Z" fill="#718EBF"/>
<path d="M246.578 31H245.273L248.152 39H249.547L252.426 31H251.121L248.895 37.5156H248.805L246.578 31ZM253.487 39H254.655V33H253.487V39ZM254.077 32.0742C254.479 32.0742 254.815 31.7617 254.815 31.3789C254.815 30.9961 254.479 30.6797 254.077 30.6797C253.671 30.6797 253.339 30.9961 253.339 31.3789C253.339 31.7617 253.671 32.0742 254.077 32.0742ZM258.812 39.1211C260.121 39.1211 261.047 38.4766 261.313 37.5L260.207 37.3008C259.996 37.8672 259.488 38.1562 258.824 38.1562C257.824 38.1562 257.152 37.5078 257.121 36.3516H261.387V35.9375C261.387 33.7695 260.09 32.9219 258.73 32.9219C257.059 32.9219 255.957 34.1953 255.957 36.0391C255.957 37.9023 257.043 39.1211 258.812 39.1211ZM257.125 35.4766C257.172 34.625 257.789 33.8867 258.738 33.8867C259.645 33.8867 260.238 34.5586 260.242 35.4766H257.125ZM263.973 39H265.16L266.379 34.668H266.469L267.688 39H268.879L270.641 33H269.434L268.266 37.3867H268.207L267.035 33H265.828L264.648 37.4062H264.59L263.414 33H262.207L263.973 39ZM277.344 39C279.781 39 281.191 37.4883 281.191 34.9883C281.191 32.5 279.781 31 277.426 31H274.754V39H277.344ZM275.961 37.9453V32.0547H277.352C279.102 32.0547 280.004 33.1016 280.004 34.9883C280.004 36.8828 279.102 37.9453 277.277 37.9453H275.961ZM285.185 39.1211C286.493 39.1211 287.419 38.4766 287.685 37.5L286.579 37.3008C286.368 37.8672 285.86 38.1562 285.196 38.1562C284.196 38.1562 283.524 37.5078 283.493 36.3516H287.759V35.9375C287.759 33.7695 286.462 32.9219 285.103 32.9219C283.431 32.9219 282.329 34.1953 282.329 36.0391C282.329 37.9023 283.415 39.1211 285.185 39.1211ZM283.497 35.4766C283.544 34.625 284.161 33.8867 285.11 33.8867C286.017 33.8867 286.61 34.5586 286.614 35.4766H283.497ZM291.855 33H290.625V31.5625H289.457V33H288.578V33.9375H289.457V37.4805C289.453 38.5703 290.285 39.0977 291.207 39.0781C291.578 39.0742 291.828 39.0039 291.965 38.9531L291.754 37.9883C291.676 38.0039 291.531 38.0391 291.344 38.0391C290.965 38.0391 290.625 37.9141 290.625 37.2383V33.9375H291.855V33ZM294.894 39.1328C295.886 39.1328 296.444 38.6289 296.667 38.1797H296.714V39H297.854V35.0156C297.854 33.2695 296.479 32.9219 295.526 32.9219C294.44 32.9219 293.44 33.3594 293.05 34.4531L294.147 34.7031C294.319 34.2773 294.757 33.8672 295.542 33.8672C296.296 33.8672 296.683 34.2617 296.683 34.9414V34.9687C296.683 35.3945 296.245 35.3867 295.167 35.5117C294.03 35.6445 292.866 35.9414 292.866 37.3047C292.866 38.4844 293.753 39.1328 294.894 39.1328ZM295.147 38.1953C294.487 38.1953 294.011 37.8984 294.011 37.3203C294.011 36.6953 294.565 36.4727 295.241 36.3828C295.62 36.332 296.519 36.2305 296.687 36.0625V36.8359C296.687 37.5469 296.12 38.1953 295.147 38.1953ZM299.41 39H300.578V33H299.41V39ZM300 32.0742C300.402 32.0742 300.738 31.7617 300.738 31.3789C300.738 30.9961 300.402 30.6797 300 30.6797C299.594 30.6797 299.262 30.9961 299.262 31.3789C299.262 31.7617 299.594 32.0742 300 32.0742ZM303.317 31H302.149V39H303.317V31ZM309.385 34.4648C309.143 33.5312 308.412 32.9219 307.115 32.9219C305.76 32.9219 304.799 33.6367 304.799 34.6992C304.799 35.5508 305.314 36.1172 306.439 36.3672L307.455 36.5898C308.033 36.7187 308.303 36.9766 308.303 37.3516C308.303 37.8164 307.807 38.1797 307.041 38.1797C306.342 38.1797 305.893 37.8789 305.752 37.2891L304.623 37.4609C304.818 38.5234 305.701 39.1211 307.049 39.1211C308.498 39.1211 309.502 38.3516 309.502 37.2656C309.502 36.418 308.963 35.8945 307.861 35.6406L306.908 35.4219C306.248 35.2656 305.963 35.043 305.967 34.6367C305.963 34.1758 306.463 33.8477 307.127 33.8477C307.854 33.8477 308.189 34.25 308.326 34.6523L309.385 34.4648Z" fill="#1814F3"/>
<defs>
<clipPath id="clip0_1_2520">
<rect width="20" height="20" fill="white" transform="translate(25 25)"/>
</clipPath>
</defs>
</svg>
