<svg width="325" height="245" viewBox="0 0 325 245" fill="none" xmlns="http://www.w3.org/2000/svg">
<rect width="325" height="245" rx="15" fill="white"/>
<rect x="21" y="118" width="10" height="85" rx="4" fill="#FC7900"/>
<rect x="36" y="50" width="10" height="153" rx="4" fill="#1814F3"/>
<path d="M29.9428 218.455H30.9656C30.9187 217.138 29.7042 216.153 28.0167 216.153C26.3462 216.153 25.0337 217.125 25.0337 218.591C25.0337 219.767 25.886 220.466 27.2496 220.858L28.3235 221.165C29.244 221.42 30.0621 221.744 30.0621 222.614C30.0621 223.568 29.1417 224.199 27.9315 224.199C26.8917 224.199 25.9712 223.739 25.886 222.75H24.7951C24.8974 224.182 26.0565 225.153 27.9315 225.153C29.9428 225.153 31.0849 224.045 31.0849 222.631C31.0849 220.994 29.5337 220.466 28.6303 220.227L27.744 219.989C27.0962 219.818 26.0565 219.477 26.0565 218.54C26.0565 217.705 26.8235 217.091 27.9826 217.091C29.0394 217.091 29.8406 217.594 29.9428 218.455ZM34.6122 225.153C35.7543 225.153 36.3509 224.54 36.5554 224.114H36.6065V225H37.6122V220.688C37.6122 218.608 36.027 218.369 35.1918 218.369C34.2031 218.369 33.0781 218.71 32.5668 219.903L33.5213 220.244C33.7429 219.767 34.267 219.256 35.2259 219.256C36.1506 219.256 36.6065 219.746 36.6065 220.585V220.619C36.6065 221.105 36.1122 221.062 34.919 221.216C33.7045 221.374 32.3793 221.642 32.3793 223.142C32.3793 224.42 33.3679 225.153 34.6122 225.153ZM34.7656 224.25C33.9645 224.25 33.3849 223.892 33.3849 223.193C33.3849 222.426 34.0838 222.188 34.8679 222.085C35.294 222.034 36.4361 221.915 36.6065 221.71V222.631C36.6065 223.449 35.9588 224.25 34.7656 224.25ZM42.2944 218.455H40.8967V216.886H39.891V218.455H38.9023V219.307H39.891V223.398C39.891 224.54 40.8114 225.085 41.6637 225.085C42.0387 225.085 42.2773 225.017 42.4137 224.966L42.2092 224.062C42.1239 224.08 41.9876 224.114 41.766 224.114C41.3228 224.114 40.8967 223.977 40.8967 223.125V219.307H42.2944V218.455Z" fill="#718EBF"/>
<rect x="64" y="147" width="10" height="56" rx="4" fill="#FC7900"/>
<rect x="79" y="83" width="10" height="120" rx="4" fill="#1814F3"/>
<path d="M72.0073 218.455H73.03C72.9831 217.138 71.7686 216.153 70.0811 216.153C68.4107 216.153 67.0982 217.125 67.0982 218.591C67.0982 219.767 67.9505 220.466 69.3141 220.858L70.388 221.165C71.3084 221.42 72.1266 221.744 72.1266 222.614C72.1266 223.568 71.2061 224.199 69.9959 224.199C68.9561 224.199 68.0357 223.739 67.9505 222.75H66.8596C66.9618 224.182 68.1209 225.153 69.9959 225.153C72.0073 225.153 73.1493 224.045 73.1493 222.631C73.1493 220.994 71.5982 220.466 70.6948 220.227L69.8084 219.989C69.1607 219.818 68.1209 219.477 68.1209 218.54C68.1209 217.705 68.888 217.091 70.0471 217.091C71.1039 217.091 71.905 217.594 72.0073 218.455ZM78.8755 222.324C78.8755 223.551 77.938 224.114 77.188 224.114C76.3528 224.114 75.7562 223.5 75.7562 222.545V218.455H74.7505V222.614C74.7505 224.284 75.6369 225.085 76.8642 225.085C77.8528 225.085 78.5005 224.557 78.8074 223.892H78.8755V225H79.8812V218.455H78.8755V222.324ZM82.7289 221.062C82.7289 219.92 83.4363 219.273 84.3993 219.273C85.3326 219.273 85.8993 219.882 85.8993 220.909V225H86.905V220.841C86.905 219.17 86.0144 218.369 84.6891 218.369C83.7005 218.369 83.0868 218.812 82.78 219.477H82.6948V218.455H81.7232V225H82.7289V221.062Z" fill="#718EBF"/>
<rect x="107" y="151" width="10" height="52" rx="4" fill="#FC7900"/>
<rect x="122" y="128" width="10" height="75" rx="4" fill="#1814F3"/>
<path d="M108.129 216.273V225H109.118V218.369H109.203L111.93 225H112.885L115.612 218.369H115.697V225H116.686V216.273H115.425L112.459 223.517H112.356L109.39 216.273H108.129ZM121.328 225.136C123.1 225.136 124.294 223.79 124.294 221.761C124.294 219.716 123.1 218.369 121.328 218.369C119.555 218.369 118.362 219.716 118.362 221.761C118.362 223.79 119.555 225.136 121.328 225.136ZM121.328 224.233C119.981 224.233 119.367 223.074 119.367 221.761C119.367 220.449 119.981 219.273 121.328 219.273C122.674 219.273 123.288 220.449 123.288 221.761C123.288 223.074 122.674 224.233 121.328 224.233ZM126.834 221.062C126.834 219.92 127.542 219.273 128.505 219.273C129.438 219.273 130.005 219.882 130.005 220.909V225H131.01V220.841C131.01 219.17 130.12 218.369 128.795 218.369C127.806 218.369 127.192 218.812 126.885 219.477H126.8V218.455H125.829V225H126.834V221.062Z" fill="#718EBF"/>
<rect x="150" y="74" width="10" height="129" rx="4" fill="#FC7900"/>
<rect x="165" y="130" width="10" height="73" rx="4" fill="#1814F3"/>
<path d="M152.697 217.21H155.441V225H156.498V217.21H159.242V216.273H152.697V217.21ZM163.971 222.324C163.971 223.551 163.034 224.114 162.284 224.114C161.449 224.114 160.852 223.5 160.852 222.545V218.455H159.846V222.614C159.846 224.284 160.733 225.085 161.96 225.085C162.949 225.085 163.596 224.557 163.903 223.892H163.971V225H164.977V218.455H163.971V222.324ZM169.563 225.136C170.893 225.136 171.864 224.472 172.171 223.483L171.2 223.21C170.944 223.892 170.352 224.233 169.563 224.233C168.383 224.233 167.569 223.47 167.522 222.068H172.273V221.642C172.273 219.205 170.825 218.369 169.461 218.369C167.688 218.369 166.512 219.767 166.512 221.778C166.512 223.79 167.671 225.136 169.563 225.136ZM167.522 221.199C167.59 220.18 168.31 219.273 169.461 219.273C170.552 219.273 171.251 220.091 171.251 221.199H167.522Z" fill="#718EBF"/>
<rect x="236" y="107" width="10" height="96" rx="4" fill="#FC7900"/>
<rect x="251" y="148" width="10" height="55" rx="4" fill="#1814F3"/>
<path d="M238.699 217.21H241.443V225H242.5V217.21H245.244V216.273H238.699V217.21ZM247.744 221.062C247.744 219.92 248.473 219.273 249.466 219.273C250.412 219.273 250.983 219.869 250.983 220.909V225H251.989V220.841C251.989 219.158 251.094 218.369 249.756 218.369C248.725 218.369 248.137 218.8 247.83 219.477H247.744V216.273H246.739V225H247.744V221.062ZM257.954 222.324C257.954 223.551 257.016 224.114 256.266 224.114C255.431 224.114 254.834 223.5 254.834 222.545V218.455H253.829V222.614C253.829 224.284 254.715 225.085 255.942 225.085C256.931 225.085 257.579 224.557 257.885 223.892H257.954V225H258.959V218.455H257.954V222.324Z" fill="#718EBF"/>
<rect x="279" y="90" width="10" height="113" rx="4" fill="#FC7900"/>
<rect x="294" y="60" width="10" height="143" rx="4" fill="#1814F3"/>
<path d="M285.414 225H286.471V221.097H290.255V220.159H286.471V217.21H290.647V216.273H285.414V225ZM292.251 225H293.256V220.858C293.256 219.972 293.955 219.324 294.91 219.324C295.178 219.324 295.455 219.375 295.523 219.392V218.369C295.408 218.361 295.144 218.352 294.995 218.352C294.211 218.352 293.529 218.795 293.29 219.443H293.222V218.455H292.251V225ZM296.715 225H297.721V218.455H296.715V225ZM297.227 217.364C297.619 217.364 297.943 217.057 297.943 216.682C297.943 216.307 297.619 216 297.227 216C296.835 216 296.511 216.307 296.511 216.682C296.511 217.057 296.835 217.364 297.227 217.364Z" fill="#718EBF"/>
<rect x="193" y="111" width="10" height="92" rx="4" fill="#FC7900"/>
<rect x="208" y="67" width="10" height="136" rx="4" fill="#1814F3"/>
<path d="M195.033 225H196.124L198.05 218.045H198.118L200.044 225H201.135L203.521 216.273H202.447L200.624 223.381H200.538L198.68 216.273H197.487L195.629 223.381H195.544L193.72 216.273H192.646L195.033 225ZM206.837 225.136C208.166 225.136 209.138 224.472 209.445 223.483L208.473 223.21C208.217 223.892 207.625 224.233 206.837 224.233C205.656 224.233 204.842 223.47 204.795 222.068H209.547V221.642C209.547 219.205 208.098 218.369 206.734 218.369C204.962 218.369 203.786 219.767 203.786 221.778C203.786 223.79 204.945 225.136 206.837 225.136ZM204.795 221.199C204.864 220.18 205.584 219.273 206.734 219.273C207.825 219.273 208.524 220.091 208.524 221.199H204.795ZM213.548 225.136C214.81 225.136 215.236 224.352 215.457 223.994H215.577V225H216.548V216.273H215.543V219.494H215.457C215.236 219.153 214.844 218.369 213.565 218.369C211.912 218.369 210.77 219.682 210.77 221.744C210.77 223.824 211.912 225.136 213.548 225.136ZM213.685 224.233C212.423 224.233 211.776 223.125 211.776 221.727C211.776 220.347 212.406 219.273 213.685 219.273C214.912 219.273 215.56 220.261 215.56 221.727C215.56 223.21 214.895 224.233 213.685 224.233Z" fill="#718EBF"/>
<g filter="url(#filter0_i_1_1497)">
<rect x="175" y="20" width="12" height="12" rx="4" fill="#4C78FF"/>
</g>
<path d="M200.75 30C203.409 30 204.909 28.3466 204.909 25.6193C204.909 22.9091 203.409 21.2727 200.869 21.2727H198.057V30H200.75ZM199.114 29.0625V22.2102H200.801C202.847 22.2102 203.886 23.5057 203.886 25.6193C203.886 27.75 202.847 29.0625 200.682 29.0625H199.114ZM209.29 30.1364C210.619 30.1364 211.591 29.4716 211.898 28.483L210.926 28.2102C210.67 28.892 210.078 29.233 209.29 29.233C208.109 29.233 207.295 28.4702 207.249 27.0682H212V26.642C212 24.2045 210.551 23.3693 209.188 23.3693C207.415 23.3693 206.239 24.767 206.239 26.7784C206.239 28.7898 207.398 30.1364 209.29 30.1364ZM207.249 26.1989C207.317 25.1804 208.037 24.2727 209.188 24.2727C210.278 24.2727 210.977 25.0909 210.977 26.1989H207.249ZM213.666 30H214.638V28.9943H214.757C214.979 29.3523 215.405 30.1364 216.666 30.1364C218.303 30.1364 219.445 28.8239 219.445 26.7443C219.445 24.6818 218.303 23.3693 216.649 23.3693C215.371 23.3693 214.979 24.1534 214.757 24.4943H214.672V21.2727H213.666V30ZM214.655 26.7273C214.655 25.2614 215.303 24.2727 216.53 24.2727C217.808 24.2727 218.439 25.3466 218.439 26.7273C218.439 28.125 217.791 29.233 216.53 29.233C215.32 29.233 214.655 28.2102 214.655 26.7273ZM220.983 30H221.989V23.4545H220.983V30ZM221.494 22.3636C221.886 22.3636 222.21 22.0568 222.21 21.6818C222.21 21.3068 221.886 21 221.494 21C221.102 21 220.778 21.3068 220.778 21.6818C220.778 22.0568 221.102 22.3636 221.494 22.3636ZM226.677 23.4545H225.279V21.8864H224.274V23.4545H223.285V24.3068H224.274V28.3977C224.274 29.5398 225.194 30.0852 226.047 30.0852C226.422 30.0852 226.66 30.017 226.797 29.9659L226.592 29.0625C226.507 29.0795 226.37 29.1136 226.149 29.1136C225.706 29.1136 225.279 28.9773 225.279 28.125V24.3068H226.677V23.4545Z" fill="#718EBF"/>
<g filter="url(#filter1_i_1_1497)">
<rect x="248" y="20" width="12" height="12" rx="4" fill="#FF82AC"/>
</g>
<path d="M278.08 24C277.756 22.2102 276.324 21.1534 274.568 21.1534C272.335 21.1534 270.716 22.875 270.716 25.6364C270.716 28.3977 272.335 30.1193 274.568 30.1193C276.324 30.1193 277.756 29.0625 278.08 27.2727H277.023C276.767 28.483 275.727 29.1307 274.568 29.1307C272.983 29.1307 271.739 27.9034 271.739 25.6364C271.739 23.3693 272.983 22.142 274.568 22.142C275.727 22.142 276.767 22.7898 277.023 24H278.08ZM279.651 30H280.657V25.858C280.657 24.9716 281.355 24.3239 282.31 24.3239C282.578 24.3239 282.855 24.375 282.924 24.392V23.3693C282.809 23.3608 282.544 23.3523 282.395 23.3523C281.611 23.3523 280.929 23.7955 280.691 24.4432H280.623V23.4545H279.651V30ZM286.661 30.1364C287.99 30.1364 288.962 29.4716 289.269 28.483L288.297 28.2102C288.042 28.892 287.449 29.233 286.661 29.233C285.48 29.233 284.667 28.4702 284.62 27.0682H289.371V26.642C289.371 24.2045 287.922 23.3693 286.559 23.3693C284.786 23.3693 283.61 24.767 283.61 26.7784C283.61 28.7898 284.769 30.1364 286.661 30.1364ZM284.62 26.1989C284.688 25.1804 285.408 24.2727 286.559 24.2727C287.65 24.2727 288.348 25.0909 288.348 26.1989H284.62ZM293.373 30.1364C294.634 30.1364 295.06 29.3523 295.282 28.9943H295.401V30H296.373V21.2727H295.367V24.4943H295.282C295.06 24.1534 294.668 23.3693 293.39 23.3693C291.736 23.3693 290.594 24.6818 290.594 26.7443C290.594 28.8239 291.736 30.1364 293.373 30.1364ZM293.509 29.233C292.248 29.233 291.6 28.125 291.6 26.7273C291.6 25.3466 292.23 24.2727 293.509 24.2727C294.736 24.2727 295.384 25.2614 295.384 26.7273C295.384 28.2102 294.719 29.233 293.509 29.233ZM298.354 30H299.36V23.4545H298.354V30ZM298.865 22.3636C299.257 22.3636 299.581 22.0568 299.581 21.6818C299.581 21.3068 299.257 21 298.865 21C298.473 21 298.15 21.3068 298.15 21.6818C298.15 22.0568 298.473 22.3636 298.865 22.3636ZM304.048 23.4545H302.651V21.8864H301.645V23.4545H300.656V24.3068H301.645V28.3977C301.645 29.5398 302.565 30.0852 303.418 30.0852C303.793 30.0852 304.031 30.017 304.168 29.9659L303.963 29.0625C303.878 29.0795 303.741 29.1136 303.52 29.1136C303.077 29.1136 302.651 28.9773 302.651 28.125V24.3068H304.048V23.4545Z" fill="#718EBF"/>
<defs>
<filter id="filter0_i_1_1497" x="175" y="20" width="12" height="12" filterUnits="userSpaceOnUse" color-interpolation-filters="sRGB">
<feFlood flood-opacity="0" result="BackgroundImageFix"/>
<feBlend mode="normal" in="SourceGraphic" in2="BackgroundImageFix" result="shape"/>
<feColorMatrix in="SourceAlpha" type="matrix" values="0 0 0 0 0 0 0 0 0 0 0 0 0 0 0 0 0 0 127 0" result="hardAlpha"/>
<feOffset/>
<feGaussianBlur stdDeviation="7.5"/>
<feComposite in2="hardAlpha" operator="arithmetic" k2="-1" k3="1"/>
<feColorMatrix type="matrix" values="0 0 0 0 0.0672743 0 0 0 0 0.203342 0 0 0 0 0.520833 0 0 0 0.5 0"/>
<feBlend mode="normal" in2="shape" result="effect1_innerShadow_1_1497"/>
</filter>
<filter id="filter1_i_1_1497" x="248" y="20" width="12" height="12" filterUnits="userSpaceOnUse" color-interpolation-filters="sRGB">
<feFlood flood-opacity="0" result="BackgroundImageFix"/>
<feBlend mode="normal" in="SourceGraphic" in2="BackgroundImageFix" result="shape"/>
<feColorMatrix in="SourceAlpha" type="matrix" values="0 0 0 0 0 0 0 0 0 0 0 0 0 0 0 0 0 0 127 0" result="hardAlpha"/>
<feOffset/>
<feGaussianBlur stdDeviation="7.5"/>
<feComposite in2="hardAlpha" operator="arithmetic" k2="-1" k3="1"/>
<feColorMatrix type="matrix" values="0 0 0 0 0.675 0 0 0 0 0.050625 0 0 0 0 0.42301 0 0 0 0.5 0"/>
<feBlend mode="normal" in2="shape" result="effect1_innerShadow_1_1497"/>
</filter>
</defs>
</svg>
