<svg width="325" height="240" viewBox="0 0 325 240" fill="none" xmlns="http://www.w3.org/2000/svg">
<rect width="325" height="240" rx="15" fill="white"/>
<path d="M263.624 120.448C262.453 90.6656 250.534 63.6606 231.62 43.1854L154.358 120.448H263.624Z" fill="#FC7900"/>
<path d="M145.995 119.287L215.931 49.3502C197.558 32.3727 173 22 145.995 22C119.005 22 94.4465 32.3877 76.0579 49.3502L145.995 119.287Z" fill="#343C6A"/>
<path d="M149.088 127.404V217.501C197.979 215.579 237.263 176.295 239.185 127.404H149.088Z" fill="#1814F3"/>
<path d="M142.69 125.8L83.5767 66.6859C69.5713 81.8471 61 102.112 61 124.389C61 170.233 97.2668 207.595 142.675 209.381V125.8H142.69Z" fill="#FA00FF"/>
<path d="M135.504 52.0077C137.694 52.0077 139.26 50.8033 139.255 49.1371C139.26 47.9231 138.489 47.0567 137.056 46.8758V46.7996C138.146 46.6044 138.898 45.8332 138.893 44.7383C138.898 43.2006 137.551 41.9914 135.532 41.9914C133.533 41.9914 132.029 43.1625 132 44.8478H133.976C134 44.1051 134.68 43.6243 135.523 43.6243C136.356 43.6243 136.913 44.1289 136.908 44.8621C136.913 45.6285 136.261 46.1474 135.323 46.1474H134.414V47.6613H135.323C136.427 47.6613 137.118 48.2135 137.113 48.999C137.118 49.775 136.451 50.3082 135.509 50.3082C134.599 50.3082 133.919 49.8321 133.88 49.118H131.805C131.838 50.8223 133.362 52.0077 135.504 52.0077ZM144.56 52.0886C147.011 52.0886 148.492 50.2225 148.497 47.0091C148.501 43.8195 147.002 41.9914 144.56 41.9914C142.113 41.9914 140.627 43.8147 140.623 47.0091C140.613 50.2129 142.103 52.0839 144.56 52.0886ZM144.56 50.3796C143.441 50.3796 142.717 49.2561 142.722 47.0091C142.727 44.7954 143.446 43.6814 144.56 43.6814C145.669 43.6814 146.392 44.7954 146.392 47.0091C146.397 49.2561 145.674 50.3796 144.56 50.3796ZM155.303 50.0463C155.308 51.2174 156.055 52.2124 157.45 52.2124C158.831 52.2124 159.602 51.2174 159.597 50.0463V49.5322C159.602 48.3516 158.85 47.3661 157.45 47.3661C156.074 47.3661 155.308 48.3611 155.303 49.5322V50.0463ZM150.3 44.4669C150.304 45.638 151.052 46.6235 152.442 46.6235C153.827 46.6235 154.599 45.6476 154.594 44.4669V43.9528C154.599 42.7722 153.846 41.7867 152.442 41.7867C151.08 41.7867 150.304 42.7722 150.3 43.9528V44.4669ZM150.766 51.8744H152.009L158.712 42.1247H157.469L150.766 51.8744ZM156.688 49.5322C156.693 49.0656 156.879 48.5848 157.45 48.5848C158.05 48.5848 158.207 49.0656 158.202 49.5322V50.0463C158.207 50.5129 158.031 50.9842 157.45 50.9842C156.869 50.9842 156.693 50.4986 156.688 50.0463V49.5322ZM151.695 43.9528C151.699 43.5005 151.875 43.0054 152.442 43.0054C153.042 43.0054 153.204 43.4863 153.199 43.9528V44.4669C153.204 44.9335 153.023 45.4048 152.442 45.4048C151.88 45.4048 151.699 44.9335 151.695 44.4669V43.9528ZM107.313 66.8744H112.803V65.4581H109.031V63.5182H112.506V62.1019H109.031V60.1659H112.788V58.7497H107.313V66.8744ZM115.812 63.3516C115.815 62.5661 116.284 62.1059 116.966 62.1059C117.644 62.1059 118.053 62.5502 118.049 63.296V66.8744H119.739V62.9945C119.739 61.5743 118.906 60.7015 117.636 60.7015C116.732 60.7015 116.077 61.1458 115.804 61.8559H115.732V60.7809H114.122V66.8744H115.812V63.3516ZM124.312 60.7809H123.166V59.3209H121.476V60.7809H120.643V62.0503H121.476V65.2241C121.468 66.4182 122.281 67.0093 123.507 66.9577C123.943 66.9418 124.253 66.8546 124.423 66.799L124.157 65.5414C124.074 65.5573 123.896 65.597 123.737 65.597C123.4 65.597 123.166 65.47 123.166 65.0019V62.0503H124.312V60.7809ZM128.125 66.9934C129.632 66.9934 130.648 66.2595 130.886 65.1288L129.323 65.0257C129.152 65.4899 128.716 65.7319 128.152 65.7319C127.307 65.7319 126.772 65.1725 126.772 64.264V64.26H130.921V63.7959C130.921 61.725 129.668 60.7015 128.057 60.7015C126.264 60.7015 125.102 61.975 125.102 63.8554C125.102 65.7874 126.248 66.9934 128.125 66.9934ZM126.772 63.2127C126.807 62.5185 127.335 61.9631 128.085 61.9631C128.819 61.9631 129.327 62.4867 129.331 63.2127H126.772ZM132.024 66.8744H133.714V63.4269C133.714 62.6771 134.262 62.1614 135.008 62.1614C135.242 62.1614 135.563 62.2011 135.722 62.2527V60.7531C135.571 60.7174 135.361 60.6936 135.19 60.6936C134.508 60.6936 133.948 61.0903 133.726 61.844H133.663V60.7809H132.024V66.8744ZM140.142 60.7809H138.996V59.3209H137.306V60.7809H136.472V62.0503H137.306V65.2241C137.298 66.4182 138.111 67.0093 139.337 66.9577C139.773 66.9418 140.083 66.8546 140.253 66.799L139.987 65.5414C139.904 65.5573 139.725 65.597 139.567 65.597C139.23 65.597 138.996 65.47 138.996 65.0019V62.0503H140.142V60.7809ZM142.981 66.9894C143.881 66.9894 144.464 66.5967 144.762 66.0294H144.809V66.8744H146.412V62.7644C146.412 61.3124 145.182 60.7015 143.826 60.7015C142.366 60.7015 141.406 61.3997 141.172 62.5105L142.735 62.6375C142.85 62.2328 143.211 61.9353 143.818 61.9353C144.393 61.9353 144.722 62.2249 144.722 62.7248V62.7486C144.722 63.1413 144.306 63.1929 143.246 63.296C142.04 63.4071 140.957 63.8118 140.957 65.1725C140.957 66.3785 141.818 66.9894 142.981 66.9894ZM143.465 65.8231C142.945 65.8231 142.572 65.5811 142.572 65.1169C142.572 64.6409 142.965 64.4068 143.56 64.3235C143.929 64.2719 144.532 64.1847 144.734 64.0498V64.6964C144.734 65.3351 144.206 65.8231 143.465 65.8231ZM147.723 66.8744H149.413V60.7809H147.723V66.8744ZM148.572 59.9954C149.076 59.9954 149.489 59.6105 149.489 59.1385C149.489 58.6703 149.076 58.2855 148.572 58.2855C148.072 58.2855 147.66 58.6703 147.66 59.1385C147.66 59.6105 148.072 59.9954 148.572 59.9954ZM152.457 63.3516C152.461 62.5661 152.929 62.1059 153.611 62.1059C154.29 62.1059 154.698 62.5502 154.695 63.296V66.8744H156.385V62.9945C156.385 61.5743 155.551 60.7015 154.282 60.7015C153.377 60.7015 152.723 61.1458 152.449 61.8559H152.378V60.7809H150.767V66.8744H152.457V63.3516ZM157.716 66.8744H159.407V63.2167C159.407 62.5423 159.835 62.094 160.398 62.094C160.954 62.094 161.327 62.4748 161.327 63.0739V66.8744H162.965V63.1532C162.965 62.5224 163.326 62.094 163.941 62.094C164.48 62.094 164.885 62.4312 164.885 63.1096V66.8744H166.571V62.7763C166.571 61.4553 165.786 60.7015 164.651 60.7015C163.758 60.7015 163.064 61.1577 162.814 61.8559H162.751C162.556 61.1498 161.934 60.7015 161.097 60.7015C160.275 60.7015 159.652 61.1379 159.399 61.8559H159.327V60.7809H157.716V66.8744ZM170.683 66.9934C172.191 66.9934 173.206 66.2595 173.444 65.1288L171.881 65.0257C171.711 65.4899 171.274 65.7319 170.711 65.7319C169.866 65.7319 169.33 65.1725 169.33 64.264V64.26H173.48V63.7959C173.48 61.725 172.226 60.7015 170.616 60.7015C168.823 60.7015 167.66 61.975 167.66 63.8554C167.66 65.7874 168.807 66.9934 170.683 66.9934ZM169.33 63.2127C169.366 62.5185 169.894 61.9631 170.643 61.9631C171.377 61.9631 171.885 62.4867 171.889 63.2127H169.33ZM176.273 63.3516C176.277 62.5661 176.745 62.1059 177.427 62.1059C178.106 62.1059 178.514 62.5502 178.51 63.296V66.8744H180.2V62.9945C180.2 61.5743 179.367 60.7015 178.098 60.7015C177.193 60.7015 176.539 61.1458 176.265 61.8559H176.193V60.7809H174.583V66.8744H176.273V63.3516ZM184.773 60.7809H183.627V59.3209H181.937V60.7809H181.104V62.0503H181.937V65.2241C181.929 66.4182 182.742 67.0093 183.968 66.9577C184.404 66.9418 184.714 66.8546 184.885 66.799L184.619 65.5414C184.535 65.5573 184.357 65.597 184.198 65.597C183.861 65.597 183.627 65.47 183.627 65.0019V62.0503H184.773V60.7809Z" fill="white"/>
<path d="M88.5276 135.661H95.4781V133.975H91.384V133.909L92.8074 132.514C94.8116 130.686 95.3495 129.772 95.3495 128.662C95.3495 126.972 93.969 125.778 91.8791 125.778C89.832 125.778 88.4277 127.001 88.4324 128.915H90.389C90.3843 127.982 90.9746 127.41 91.8648 127.41C92.7217 127.41 93.3596 127.944 93.3596 128.801C93.3596 129.577 92.8836 130.11 91.9981 130.962L88.5276 134.175V135.661ZM100.794 135.875C103.246 135.875 104.727 134.009 104.731 130.795C104.736 127.606 103.237 125.778 100.794 125.778C98.3475 125.778 96.8622 127.601 96.8575 130.795C96.8479 133.999 98.338 135.87 100.794 135.875ZM100.794 134.166C99.6757 134.166 98.9521 133.042 98.9569 130.795C98.9616 128.582 99.6805 127.468 100.794 127.468C101.904 127.468 102.627 128.582 102.627 130.795C102.632 133.042 101.908 134.166 100.794 134.166ZM111.538 133.832C111.543 135.004 112.29 135.999 113.685 135.999C115.065 135.999 115.837 135.004 115.832 133.832V133.318C115.837 132.138 115.085 131.152 113.685 131.152C112.309 131.152 111.543 132.147 111.538 133.318V133.832ZM106.535 128.253C106.539 129.424 107.287 130.41 108.677 130.41C110.062 130.41 110.833 129.434 110.829 128.253V127.739C110.833 126.558 110.081 125.573 108.677 125.573C107.315 125.573 106.539 126.558 106.535 127.739V128.253ZM107.001 135.661H108.244L114.946 125.911H113.704L107.001 135.661ZM112.923 133.318C112.928 132.852 113.114 132.371 113.685 132.371C114.285 132.371 114.442 132.852 114.437 133.318V133.832C114.442 134.299 114.266 134.77 113.685 134.77C113.104 134.77 112.928 134.285 112.923 133.832V133.318ZM107.929 127.739C107.934 127.287 108.11 126.792 108.677 126.792C109.277 126.792 109.438 127.272 109.434 127.739V128.253C109.438 128.72 109.258 129.191 108.677 129.191C108.115 129.191 107.934 128.72 107.929 128.253V127.739ZM73.9332 142.536H72.2154V150.661H73.9332V142.536ZM77.0048 147.138C77.0087 146.352 77.4769 145.892 78.1592 145.892C78.8376 145.892 79.2462 146.336 79.2422 147.082V150.661H80.9322V146.781C80.9322 145.36 80.0991 144.488 78.8296 144.488C77.9251 144.488 77.2706 144.932 76.9968 145.642H76.9254V144.567H75.3148V150.661H77.0048V147.138ZM87.727 144.567H85.9378L84.6762 148.927H84.6128L83.3472 144.567H81.562L83.6924 150.661H85.5966L87.727 144.567ZM91.1615 150.78C92.669 150.78 93.6846 150.046 93.9227 148.915L92.3596 148.812C92.189 149.276 91.7526 149.518 91.1893 149.518C90.3443 149.518 89.8087 148.959 89.8087 148.05V148.046H93.9584V147.582C93.9584 145.511 92.7047 144.488 91.0941 144.488C89.3009 144.488 88.1386 145.761 88.1386 147.642C88.1386 149.574 89.2851 150.78 91.1615 150.78ZM89.8087 146.999C89.8444 146.305 90.3721 145.749 91.1219 145.749C91.8558 145.749 92.3636 146.273 92.3675 146.999H89.8087ZM100.131 146.305C99.9805 145.182 99.076 144.488 97.5367 144.488C95.9776 144.488 94.9502 145.21 94.9541 146.384C94.9502 147.296 95.5254 147.887 96.7155 148.126L97.7708 148.336C98.3024 148.443 98.5444 148.637 98.5523 148.943C98.5444 149.304 98.1516 149.562 97.5605 149.562C96.9575 149.562 96.5568 149.304 96.4537 148.808L94.7915 148.895C94.9502 150.061 95.9419 150.78 97.5566 150.78C99.1355 150.78 100.266 149.974 100.27 148.772C100.266 147.891 99.6909 147.364 98.5087 147.122L97.4058 146.9C96.8385 146.777 96.6283 146.582 96.6322 146.289C96.6283 145.924 97.0408 145.686 97.5645 145.686C98.1516 145.686 98.5007 146.007 98.5841 146.4L100.131 146.305ZM104.575 144.567H103.429V143.107H101.739V144.567H100.906V145.836H101.739V149.01C101.731 150.204 102.544 150.795 103.77 150.744C104.206 150.728 104.516 150.641 104.687 150.585L104.421 149.328C104.337 149.343 104.159 149.383 104 149.383C103.663 149.383 103.429 149.256 103.429 148.788V145.836H104.575V144.567ZM105.676 150.661H107.366V147.003C107.366 146.328 107.795 145.88 108.358 145.88C108.914 145.88 109.286 146.261 109.286 146.86V150.661H110.925V146.939C110.925 146.309 111.286 145.88 111.901 145.88C112.44 145.88 112.845 146.217 112.845 146.896V150.661H114.531V146.562C114.531 145.241 113.745 144.488 112.611 144.488C111.718 144.488 111.024 144.944 110.774 145.642H110.711C110.516 144.936 109.893 144.488 109.056 144.488C108.235 144.488 107.612 144.924 107.358 145.642H107.287V144.567H105.676V150.661ZM118.643 150.78C120.15 150.78 121.166 150.046 121.404 148.915L119.841 148.812C119.67 149.276 119.234 149.518 118.671 149.518C117.826 149.518 117.29 148.959 117.29 148.05V148.046H121.44V147.582C121.44 145.511 120.186 144.488 118.576 144.488C116.782 144.488 115.62 145.761 115.62 147.642C115.62 149.574 116.766 150.78 118.643 150.78ZM117.29 146.999C117.326 146.305 117.853 145.749 118.603 145.749C119.337 145.749 119.845 146.273 119.849 146.999H117.29ZM124.233 147.138C124.237 146.352 124.705 145.892 125.387 145.892C126.065 145.892 126.474 146.336 126.47 147.082V150.661H128.16V146.781C128.16 145.36 127.327 144.488 126.058 144.488C125.153 144.488 124.498 144.932 124.225 145.642H124.153V144.567H122.543V150.661H124.233V147.138ZM132.733 144.567H131.587V143.107H129.897V144.567H129.064V145.836H129.897V149.01C129.889 150.204 130.702 150.795 131.928 150.744C132.364 150.728 132.674 150.641 132.844 150.585L132.579 149.328C132.495 149.343 132.317 149.383 132.158 149.383C131.821 149.383 131.587 149.256 131.587 148.788V145.836H132.733V144.567Z" fill="white"/>
<path d="M179.367 155.902C181.557 155.902 183.123 154.698 183.119 153.032C183.123 151.818 182.352 150.951 180.919 150.771V150.694C182.009 150.499 182.762 149.728 182.757 148.633C182.762 147.095 181.414 145.886 179.396 145.886C177.396 145.886 175.892 147.057 175.864 148.743H177.839C177.863 148 178.544 147.519 179.386 147.519C180.219 147.519 180.776 148.024 180.772 148.757C180.776 149.523 180.124 150.042 179.186 150.042H178.277V151.556H179.186C180.291 151.556 180.981 152.108 180.976 152.894C180.981 153.67 180.315 154.203 179.372 154.203C178.463 154.203 177.782 153.727 177.744 153.013H175.668C175.702 154.717 177.225 155.902 179.367 155.902ZM188.161 155.902C190.332 155.902 191.808 154.489 191.803 152.518C191.808 150.652 190.503 149.309 188.747 149.309C187.89 149.309 187.152 149.666 186.809 150.147H186.752L187.004 147.705H191.265V146.02H185.305L184.843 151.161L186.676 151.489C186.976 151.085 187.557 150.832 188.133 150.832C189.113 150.837 189.818 151.547 189.818 152.57C189.818 153.584 189.128 154.284 188.161 154.284C187.342 154.284 186.681 153.77 186.633 153.013H184.634C184.672 154.698 186.143 155.902 188.161 155.902ZM198.577 153.941C198.582 155.112 199.33 156.107 200.724 156.107C202.105 156.107 202.876 155.112 202.871 153.941V153.427C202.876 152.246 202.124 151.261 200.724 151.261C199.349 151.261 198.582 152.256 198.577 153.427V153.941ZM193.574 148.362C193.579 149.533 194.326 150.518 195.716 150.518C197.102 150.518 197.873 149.542 197.868 148.362V147.848C197.873 146.667 197.121 145.682 195.716 145.682C194.355 145.682 193.579 146.667 193.574 147.848V148.362ZM194.041 155.769H195.283L201.986 146.02H200.743L194.041 155.769ZM199.963 153.427C199.967 152.96 200.153 152.48 200.724 152.48C201.324 152.48 201.481 152.96 201.477 153.427V153.941C201.481 154.408 201.305 154.879 200.724 154.879C200.144 154.879 199.967 154.393 199.963 153.941V153.427ZM194.969 147.848C194.974 147.395 195.15 146.9 195.716 146.9C196.316 146.9 196.478 147.381 196.473 147.848V148.362C196.478 148.828 196.297 149.3 195.716 149.3C195.155 149.3 194.974 148.828 194.969 148.362V147.848ZM178.793 166.707C178.793 164.049 177.142 162.533 174.988 162.533C172.822 162.533 171.184 164.049 171.184 166.707C171.184 169.353 172.822 170.88 174.988 170.88C177.142 170.88 178.793 169.365 178.793 166.707ZM177.051 166.707C177.051 168.429 176.234 169.361 174.988 169.361C173.739 169.361 172.925 168.429 172.925 166.707C172.925 164.985 173.739 164.053 174.988 164.053C176.234 164.053 177.051 164.985 177.051 166.707ZM183.275 164.676H182.128V163.216H180.438V164.676H179.605V165.945H180.438V169.119C180.43 170.313 181.243 170.904 182.469 170.852C182.906 170.837 183.215 170.749 183.386 170.694L183.12 169.436C183.037 169.452 182.858 169.492 182.699 169.492C182.362 169.492 182.128 169.365 182.128 168.897V165.945H183.275V164.676ZM186.196 167.246C186.2 166.461 186.68 166.001 187.371 166.001C188.057 166.001 188.462 166.441 188.458 167.191V170.769H190.148V166.889C190.152 165.461 189.311 164.596 188.041 164.596C187.117 164.596 186.498 165.033 186.22 165.751H186.149V162.644H184.506V170.769H186.196V167.246ZM194.255 170.888C195.762 170.888 196.778 170.154 197.016 169.024L195.453 168.92C195.282 169.385 194.846 169.627 194.282 169.627C193.437 169.627 192.902 169.067 192.902 168.159V168.155H197.051V167.691C197.051 165.62 195.798 164.596 194.187 164.596C192.394 164.596 191.232 165.87 191.232 167.75C191.232 169.682 192.378 170.888 194.255 170.888ZM192.902 167.107C192.938 166.413 193.465 165.858 194.215 165.858C194.949 165.858 195.457 166.382 195.461 167.107H192.902ZM198.154 170.769H199.844V167.322C199.844 166.572 200.392 166.056 201.138 166.056C201.372 166.056 201.693 166.096 201.852 166.147V164.648C201.701 164.612 201.491 164.588 201.32 164.588C200.638 164.588 200.078 164.985 199.856 165.739H199.793V164.676H198.154V170.769ZM207.795 166.413C207.645 165.291 206.74 164.596 205.201 164.596C203.642 164.596 202.614 165.318 202.618 166.493C202.614 167.405 203.19 167.996 204.38 168.234L205.435 168.444C205.967 168.552 206.209 168.746 206.217 169.051C206.209 169.412 205.816 169.67 205.225 169.67C204.622 169.67 204.221 169.412 204.118 168.917L202.456 169.004C202.614 170.17 203.606 170.888 205.221 170.888C206.8 170.888 207.93 170.083 207.934 168.881C207.93 168 207.355 167.472 206.173 167.23L205.07 167.008C204.503 166.885 204.292 166.691 204.296 166.397C204.292 166.032 204.705 165.794 205.229 165.794C205.816 165.794 206.165 166.116 206.248 166.508L207.795 166.413Z" fill="white"/>
<path d="M207.956 84.5763H206.018L203.605 86.1045V87.9325L205.837 86.5329H205.894V94.326H207.956V84.5763ZM213.834 94.4593C216.005 94.4593 217.48 93.0454 217.476 91.0745C217.48 89.2084 216.176 87.8659 214.419 87.8659C213.563 87.8659 212.825 88.2229 212.482 88.7037H212.425L212.677 86.2616H216.938V84.5763H210.978L210.516 89.7178L212.349 90.0462C212.648 89.6416 213.229 89.3893 213.805 89.3893C214.786 89.394 215.491 90.1034 215.491 91.1269C215.491 92.1409 214.8 92.8407 213.834 92.8407C213.015 92.8407 212.353 92.3265 212.306 91.5696H210.306C210.344 93.2549 211.815 94.4593 213.834 94.4593ZM224.25 92.4979C224.255 93.669 225.002 94.664 226.397 94.664C227.778 94.664 228.549 93.669 228.544 92.4979V91.9838C228.549 90.8032 227.797 89.8177 226.397 89.8177C225.021 89.8177 224.255 90.8127 224.25 91.9838V92.4979ZM219.247 86.9185C219.251 88.0896 219.999 89.0751 221.389 89.0751C222.774 89.0751 223.545 88.0992 223.541 86.9185V86.4044C223.545 85.2238 222.793 84.2383 221.389 84.2383C220.027 84.2383 219.251 85.2238 219.247 86.4044V86.9185ZM219.713 94.326H220.956L227.659 84.5763H226.416L219.713 94.326ZM225.635 91.9838C225.64 91.5172 225.826 91.0364 226.397 91.0364C226.997 91.0364 227.154 91.5172 227.149 91.9838V92.4979C227.154 92.9645 226.978 93.4358 226.397 93.4358C225.816 93.4358 225.64 92.9502 225.635 92.4979V91.9838ZM220.641 86.4044C220.646 85.9521 220.822 85.457 221.389 85.457C221.989 85.457 222.151 85.9379 222.146 86.4044V86.9185C222.151 87.3851 221.97 87.8564 221.389 87.8564C220.827 87.8564 220.646 87.3851 220.641 86.9185V86.4044ZM183.988 109.326H187.459C189.284 109.326 190.256 108.374 190.256 107.081C190.256 105.879 189.395 105.153 188.471 105.109V105.03C189.316 104.839 189.939 104.24 189.939 103.284C189.939 102.066 189.034 101.201 187.241 101.201H183.988V109.326ZM185.706 107.922V105.763H187.146C187.971 105.763 188.483 106.24 188.483 106.91C188.483 107.521 188.066 107.922 187.106 107.922H185.706ZM185.706 104.601V102.59H187.011C187.773 102.59 188.205 102.983 188.205 103.57C188.205 104.212 187.682 104.601 186.979 104.601H185.706ZM191.342 109.326H193.032V103.232H191.342V109.326ZM192.191 102.447C192.695 102.447 193.108 102.062 193.108 101.59C193.108 101.122 192.695 100.737 192.191 100.737C191.691 100.737 191.279 101.122 191.279 101.59C191.279 102.062 191.691 102.447 192.191 102.447ZM196.076 101.201H194.386V109.326H196.076V101.201ZM199.12 101.201H197.43V109.326H199.12V101.201ZM203.091 109.326H208.582V107.91H204.809V105.97H208.284V104.554H204.809V102.618H208.566V101.201H203.091V109.326ZM211.312 103.232H209.566L211.312 106.279L209.503 109.326H211.248L212.431 107.219L213.633 109.326H215.358L213.545 106.279L215.311 103.232H213.577L212.431 105.363L211.312 103.232ZM216.315 111.611H218.005V108.35H218.056C218.29 108.858 218.802 109.425 219.786 109.425C221.174 109.425 222.257 108.326 222.257 106.287C222.257 104.193 221.127 103.153 219.79 103.153C218.77 103.153 218.282 103.76 218.056 104.256H217.981V103.232H216.315V111.611ZM217.969 106.279C217.969 105.192 218.429 104.498 219.25 104.498C220.087 104.498 220.532 105.224 220.532 106.279C220.532 107.342 220.079 108.08 219.25 108.08C218.437 108.08 217.969 107.366 217.969 106.279ZM226.161 109.445C227.668 109.445 228.684 108.711 228.922 107.58L227.359 107.477C227.188 107.941 226.752 108.183 226.189 108.183C225.344 108.183 224.808 107.624 224.808 106.716V106.712H228.958V106.247C228.958 104.177 227.704 103.153 226.094 103.153C224.3 103.153 223.138 104.427 223.138 106.307C223.138 108.239 224.285 109.445 226.161 109.445ZM224.808 105.664C224.844 104.97 225.372 104.415 226.121 104.415C226.855 104.415 227.363 104.938 227.367 105.664H224.808ZM231.751 105.803C231.755 105.018 232.223 104.557 232.905 104.557C233.584 104.557 233.992 105.002 233.988 105.748V109.326H235.678V105.446C235.678 104.026 234.845 103.153 233.576 103.153C232.671 103.153 232.016 103.597 231.743 104.308H231.671V103.232H230.061V109.326H231.751V105.803ZM242.08 104.97C241.929 103.847 241.025 103.153 239.486 103.153C237.927 103.153 236.899 103.875 236.903 105.049C236.899 105.962 237.474 106.553 238.664 106.791L239.72 107.001C240.251 107.108 240.493 107.303 240.501 107.608C240.493 107.969 240.101 108.227 239.509 108.227C238.906 108.227 238.506 107.969 238.403 107.473L236.74 107.561C236.899 108.727 237.891 109.445 239.505 109.445C241.084 109.445 242.215 108.64 242.219 107.438C242.215 106.557 241.64 106.029 240.458 105.787L239.355 105.565C238.787 105.442 238.577 105.248 238.581 104.954C238.577 104.589 238.99 104.351 239.513 104.351C240.101 104.351 240.45 104.673 240.533 105.065L242.08 104.97ZM246.06 109.445C247.568 109.445 248.583 108.711 248.821 107.58L247.258 107.477C247.088 107.941 246.651 108.183 246.088 108.183C245.243 108.183 244.707 107.624 244.707 106.716V106.712H248.857V106.247C248.857 104.177 247.603 103.153 245.993 103.153C244.2 103.153 243.037 104.427 243.037 106.307C243.037 108.239 244.184 109.445 246.06 109.445ZM244.707 105.664C244.743 104.97 245.271 104.415 246.021 104.415C246.754 104.415 247.262 104.938 247.266 105.664H244.707Z" fill="white"/>
</svg>
