<svg width="350" height="364" viewBox="0 0 350 364" fill="none" xmlns="http://www.w3.org/2000/svg">
<rect width="350" height="364" rx="25" fill="white"/>
<rect x="25" y="30" width="60" height="60" rx="20" fill="#DCFAF8"/>
<g clip-path="url(#clip0_1_185)">
<path d="M65.0478 65.2021C64.2664 64.733 62.6411 63.7564 62.6411 61.216C62.6411 59.0719 64.076 57.9898 64.8467 57.4086L64.8628 57.3964C65.1722 57.1631 65.2459 56.7287 65.0312 56.4061C63.3093 53.8207 60.352 53.7461 59.7771 53.7568H59.7737C59.3793 53.7573 59.003 53.8027 58.6462 53.8744C58.778 53.769 58.9059 53.6567 59.0289 53.5377C60.2608 52.3458 60.9377 50.5873 60.8855 48.7116C60.8743 48.3158 60.5502 48 60.1539 48C58.8214 48 57.3065 48.796 56.2 50.0777C55.0853 51.3692 54.5645 52.9163 54.7719 54.322C54.789 54.4386 54.8339 54.545 54.8983 54.6363C54.7031 54.5709 54.4966 54.4948 54.2926 54.4196C53.5176 54.1341 52.6385 53.8105 51.8157 53.8105C51.7991 53.8105 50.126 53.8227 48.4553 54.8603C46.994 55.7686 45.2516 57.6589 45.2516 61.5093C45.2516 63.5119 46.034 66.3154 47.2449 68.6523C48.0814 70.2668 49.8175 72.9766 52.047 72.9893H52.0709C53.6967 72.9893 55.0438 72.0292 55.9599 72.0292C57.5246 72.0292 58.0815 73 59.7737 73C61.2906 73 62.7607 71.8477 64.1434 69.5757C64.651 68.7411 65.0458 67.9158 65.2874 67.3701C65.7486 66.3305 65.7486 66.1919 65.7486 66.0904C65.7486 65.6233 65.3923 65.409 65.0478 65.2021ZM57.3084 51.0343C57.9092 50.3384 58.6662 49.822 59.3832 49.594C59.2461 50.7308 58.7658 51.7552 58.0108 52.4854C57.4817 52.9974 56.8467 53.3302 56.202 53.4449C56.2703 52.6406 56.6549 51.7913 57.3084 51.0343ZM62.8217 68.9295C61.7767 70.6104 60.6942 71.5358 59.7737 71.5358C58.5071 71.5358 57.9151 70.565 55.9599 70.565C54.6406 70.565 53.3819 71.5319 52.0553 71.525C51.0206 71.5192 49.6755 70.1604 48.5451 67.9787C47.4338 65.8346 46.7158 63.2952 46.7158 61.5093C46.7158 58.9811 47.547 57.1718 49.185 56.1313C50.4603 55.3216 51.7649 55.2762 51.8201 55.2747C52.9631 55.2776 54.5498 56.2894 55.7061 56.2894C56.7471 56.2894 58.1411 55.221 59.779 55.221H59.8059C60.2032 55.2132 62.0788 55.2576 63.3966 56.6877C62.4654 57.472 61.1769 58.8825 61.1769 61.216C61.1769 64.3855 63.1814 65.777 64.1282 66.3573C63.8925 66.9284 63.443 67.9304 62.8217 68.9295Z" fill="#16DBCC"/>
</g>
<path d="M107.261 53L108.33 49.9205H112.875L113.938 53H115.801L111.614 41.3636H109.585L105.398 53H107.261ZM108.841 48.4432L110.557 43.4773H110.648L112.364 48.4432H108.841ZM117.345 56.2727H119.044V51.642H119.146C119.453 52.1989 120.078 53.1705 121.669 53.1705C123.783 53.1705 125.317 51.4773 125.317 48.6534C125.317 45.8239 123.76 44.1591 121.652 44.1591C120.033 44.1591 119.447 45.1477 119.146 45.6875H119.004V44.2727H117.345V56.2727ZM119.01 48.6364C119.01 46.8125 119.805 45.6023 121.288 45.6023C122.828 45.6023 123.601 46.9034 123.601 48.6364C123.601 50.3864 122.805 51.7216 121.288 51.7216C119.828 51.7216 119.01 50.4716 119.01 48.6364ZM127.22 56.2727H128.919V51.642H129.021C129.328 52.1989 129.953 53.1705 131.544 53.1705C133.658 53.1705 135.192 51.4773 135.192 48.6534C135.192 45.8239 133.635 44.1591 131.527 44.1591C129.908 44.1591 129.322 45.1477 129.021 45.6875H128.879V44.2727H127.22V56.2727ZM128.885 48.6364C128.885 46.8125 129.68 45.6023 131.163 45.6023C132.703 45.6023 133.476 46.9034 133.476 48.6364C133.476 50.3864 132.68 51.7216 131.163 51.7216C129.703 51.7216 128.885 50.4716 128.885 48.6364ZM138.794 41.3636H137.095V53H138.794V41.3636ZM144.841 53.1761C146.744 53.1761 148.091 52.2386 148.477 50.8182L146.869 50.5284C146.562 51.3523 145.824 51.7727 144.858 51.7727C143.403 51.7727 142.426 50.8295 142.381 49.1477H148.585V48.5455C148.585 45.392 146.699 44.1591 144.722 44.1591C142.29 44.1591 140.688 46.0114 140.688 48.6932C140.688 51.4034 142.267 53.1761 144.841 53.1761ZM142.386 47.875C142.455 46.6364 143.352 45.5625 144.733 45.5625C146.051 45.5625 146.915 46.5398 146.92 47.875H142.386ZM161.188 44.4205H162.881C162.83 42.5568 161.182 41.2045 158.818 41.2045C156.483 41.2045 154.693 42.5398 154.693 44.5455C154.693 46.1648 155.852 47.1136 157.722 47.6193L159.097 47.9943C160.341 48.3239 161.301 48.733 161.301 49.767C161.301 50.9034 160.216 51.6534 158.722 51.6534C157.369 51.6534 156.244 51.0511 156.142 49.7841H154.381C154.494 51.892 156.125 53.1932 158.733 53.1932C161.466 53.1932 163.04 51.7557 163.04 49.7841C163.04 47.6875 161.17 46.875 159.693 46.5114L158.557 46.2159C157.648 45.983 156.438 45.5568 156.443 44.4432C156.443 43.4545 157.347 42.7216 158.778 42.7216C160.114 42.7216 161.062 43.3466 161.188 44.4205ZM169.075 44.2727H167.286V42.1818H165.587V44.2727H164.308V45.6364H165.587V50.7898C165.581 52.375 166.791 53.142 168.132 53.1136C168.672 53.108 169.036 53.0057 169.234 52.9318L168.928 51.5284C168.814 51.5511 168.604 51.6023 168.331 51.6023C167.78 51.6023 167.286 51.4205 167.286 50.4375V45.6364H169.075V44.2727ZM174.537 53.1761C176.997 53.1761 178.605 51.375 178.605 48.6761C178.605 45.9602 176.997 44.1591 174.537 44.1591C172.077 44.1591 170.469 45.9602 170.469 48.6761C170.469 51.375 172.077 53.1761 174.537 53.1761ZM174.543 51.75C172.935 51.75 172.185 50.3466 172.185 48.6705C172.185 47 172.935 45.5795 174.543 45.5795C176.139 45.5795 176.889 47 176.889 48.6705C176.889 50.3466 176.139 51.75 174.543 51.75ZM180.501 53H182.2V47.6705C182.2 46.5284 183.081 45.7045 184.286 45.7045C184.638 45.7045 185.036 45.767 185.172 45.8068V44.1818C185.001 44.1591 184.666 44.142 184.45 44.142C183.428 44.142 182.553 44.7216 182.234 45.6591H182.143V44.2727H180.501V53ZM190.091 53.1761C191.994 53.1761 193.341 52.2386 193.727 50.8182L192.119 50.5284C191.812 51.3523 191.074 51.7727 190.108 51.7727C188.653 51.7727 187.676 50.8295 187.631 49.1477H193.835V48.5455C193.835 45.392 191.949 44.1591 189.972 44.1591C187.54 44.1591 185.938 46.0114 185.938 48.6932C185.938 51.4034 187.517 53.1761 190.091 53.1761ZM187.636 47.875C187.705 46.6364 188.602 45.5625 189.983 45.5625C191.301 45.5625 192.165 46.5398 192.17 47.875H187.636Z" fill="#B1B1B1"/>
<path d="M109.538 78.1491C111.616 78.1491 113.139 76.6151 113.139 74.527C113.139 72.4123 111.669 70.8622 109.666 70.8622C108.931 70.8622 108.217 71.1232 107.77 71.4801H107.706L108.089 68.2628H112.649V67.0909H106.982L106.321 72.4602L107.557 72.6094C108.01 72.2844 108.782 72.0501 109.453 72.0554C110.843 72.0661 111.861 73.1207 111.861 74.5483C111.861 75.9492 110.881 76.9773 109.538 76.9773C108.42 76.9773 107.53 76.2582 107.429 75.2727H106.151C106.23 76.9347 107.663 78.1491 109.538 78.1491ZM116.534 73.0781C116.534 71.6506 117.445 70.8409 118.686 70.8409C119.868 70.8409 120.582 71.5866 120.582 72.8864V78H121.839V72.8011C121.839 70.6971 120.72 69.7116 119.048 69.7116C117.759 69.7116 117.024 70.2496 116.64 71.0966H116.534V67.0909H115.277V78H116.534V73.0781ZM130.765 78.1918C132.193 78.1918 132.939 77.4247 133.194 76.892H133.258V78H134.515V72.6094C134.515 70.0099 132.534 69.7116 131.49 69.7116C130.254 69.7116 128.848 70.1378 128.208 71.6293L129.402 72.0554C129.679 71.4588 130.334 70.8196 131.532 70.8196C132.688 70.8196 133.258 71.4322 133.258 72.4815V72.5241C133.258 73.1314 132.64 73.0781 131.149 73.2699C129.631 73.467 127.974 73.8026 127.974 75.6776C127.974 77.2756 129.21 78.1918 130.765 78.1918ZM130.957 77.0625C129.956 77.0625 129.231 76.6151 129.231 75.7415C129.231 74.7827 130.105 74.4844 131.085 74.3565C131.618 74.2926 133.045 74.1435 133.258 73.8878V75.0384C133.258 76.0611 132.449 77.0625 130.957 77.0625ZM140.112 81.2386C142.073 81.2386 143.649 80.3438 143.649 78.2344V69.8182H142.435V71.1179H142.307C142.03 70.6918 141.519 69.7116 139.921 69.7116C137.854 69.7116 136.426 71.3523 136.426 73.8665C136.426 76.4233 137.918 77.8722 139.899 77.8722C141.497 77.8722 142.009 76.9347 142.286 76.4872H142.392V78.1491C142.392 79.5128 141.433 80.1307 140.112 80.1307C138.626 80.1307 138.104 79.3477 137.769 78.8949L136.767 79.598C137.278 80.4556 138.285 81.2386 140.112 81.2386ZM140.07 76.7429C138.493 76.7429 137.683 75.5497 137.683 73.8452C137.683 72.1832 138.472 70.8409 140.07 70.8409C141.604 70.8409 142.413 72.0767 142.413 73.8452C142.413 75.6562 141.582 76.7429 140.07 76.7429ZM149.274 78.1705C151.49 78.1705 152.982 76.4872 152.982 73.9517C152.982 71.3949 151.49 69.7116 149.274 69.7116C147.058 69.7116 145.567 71.3949 145.567 73.9517C145.567 76.4872 147.058 78.1705 149.274 78.1705ZM149.274 77.0412C147.591 77.0412 146.824 75.5923 146.824 73.9517C146.824 72.3111 147.591 70.8409 149.274 70.8409C150.957 70.8409 151.725 72.3111 151.725 73.9517C151.725 75.5923 150.957 77.0412 149.274 77.0412Z" fill="#718EBF"/>
<path d="M289.433 67.4545H290.365V66.1875C292.751 66.0227 294.092 64.6136 294.092 62.8409C294.092 60.6591 292.024 59.9545 290.82 59.6364L290.365 59.5114V55.4716C291.57 55.5909 292.445 56.2386 292.57 57.2727H293.933C293.876 55.6136 292.422 54.3523 290.365 54.2159V52.9091H289.433V54.233C287.484 54.4318 286.024 55.6705 286.024 57.4545C286.024 59.0227 287.161 59.9545 288.979 60.4773L289.433 60.608V64.9091C288.24 64.7841 287.263 64.1705 287.161 63H285.706C285.837 64.7898 287.2 66.0398 289.433 66.1875V67.4545ZM290.365 64.9091V60.875L290.411 60.8864C291.638 61.2273 292.729 61.6591 292.729 62.8182C292.729 63.9602 291.74 64.7557 290.365 64.9091ZM289.433 59.2614C288.57 59.017 287.388 58.5398 287.388 57.3864C287.388 56.4034 288.183 55.6534 289.433 55.4886V59.2614ZM295.932 63.6136H301.409V66H302.75V63.6136H304.341V62.3636H302.75V54.3636H301.045L295.932 62.4545V63.6136ZM301.409 62.3636H297.455V62.2727L301.318 56.1591H301.409V62.3636ZM310.107 66.1591C312.322 66.1591 313.947 64.5227 313.947 62.2955C313.947 60.0398 312.379 58.3864 310.243 58.3864C309.459 58.3864 308.697 58.6648 308.22 59.0455H308.152L308.561 55.6136H313.425V54.3636H307.379L306.675 60.0909L307.993 60.25C308.476 59.9034 309.3 59.6534 310.016 59.6591C311.499 59.6705 312.584 60.7955 312.584 62.3182C312.584 63.8125 311.538 64.9091 310.107 64.9091C308.913 64.9091 307.964 64.142 307.857 63.0909H306.493C306.578 64.8636 308.107 66.1591 310.107 66.1591ZM320 66.1591C322.568 66.1591 324.045 63.983 324.045 60.1818C324.045 56.4091 322.545 54.2045 320 54.2045C317.455 54.2045 315.955 56.4091 315.955 60.1818C315.955 63.983 317.432 66.1591 320 66.1591ZM320 64.9091C318.307 64.9091 317.318 63.2102 317.318 60.1818C317.318 57.1591 318.318 55.4318 320 55.4318C321.682 55.4318 322.682 57.1591 322.682 60.1818C322.682 63.2102 321.693 64.9091 320 64.9091Z" fill="#718EBF"/>
<rect x="25" y="273" width="60" height="60" rx="20" fill="#FFE0EB"/>
<path d="M64.3389 307.161C62.9774 305.8 61.3569 304.792 59.5888 304.182C61.4825 302.877 62.7266 300.695 62.7266 298.227C62.7266 294.242 59.4847 291 55.5 291C51.5153 291 48.2734 294.242 48.2734 298.227C48.2734 300.695 49.5175 302.877 51.4112 304.182C49.6432 304.792 48.0227 305.8 46.6612 307.161C44.3002 309.522 43 312.661 43 316H44.9531C44.9531 310.184 49.6844 305.453 55.5 305.453C61.3156 305.453 66.0469 310.184 66.0469 316H68C68 312.661 66.6998 309.522 64.3389 307.161ZM55.5 303.5C52.5922 303.5 50.2266 301.134 50.2266 298.227C50.2266 295.319 52.5922 292.953 55.5 292.953C58.4078 292.953 60.7734 295.319 60.7734 298.227C60.7734 301.134 58.4078 303.5 55.5 303.5Z" fill="#FF82AC"/>
<path d="M108.557 296H110.33L112.778 287.284H112.869L115.318 296H117.085L120.318 284.364H118.466L116.205 293.381H116.097L113.739 284.364H111.909L109.551 293.375H109.443L107.176 284.364H105.33L108.557 296ZM121.783 296H123.482V287.273H121.783V296ZM122.641 285.926C123.226 285.926 123.714 285.472 123.714 284.915C123.714 284.358 123.226 283.898 122.641 283.898C122.05 283.898 121.567 284.358 121.567 284.915C121.567 285.472 122.05 285.926 122.641 285.926ZM127.466 284.364H125.767V296H127.466V284.364ZM131.45 284.364H129.751V296H131.45V284.364ZM133.736 296H135.435V287.273H133.736V296ZM134.594 285.926C135.179 285.926 135.668 285.472 135.668 284.915C135.668 284.358 135.179 283.898 134.594 283.898C134.003 283.898 133.52 284.358 133.52 284.915C133.52 285.472 134.003 285.926 134.594 285.926ZM140.26 296.193C141.703 296.193 142.516 295.46 142.839 294.807H142.908V296H144.567V290.205C144.567 287.665 142.567 287.159 141.18 287.159C139.601 287.159 138.146 287.795 137.578 289.386L139.175 289.75C139.425 289.131 140.061 288.534 141.203 288.534C142.3 288.534 142.862 289.108 142.862 290.097V290.136C142.862 290.756 142.226 290.744 140.658 290.926C139.004 291.119 137.311 291.551 137.311 293.534C137.311 295.25 138.601 296.193 140.26 296.193ZM140.629 294.83C139.669 294.83 138.976 294.398 138.976 293.557C138.976 292.648 139.783 292.324 140.766 292.193C141.317 292.119 142.624 291.972 142.868 291.727V292.852C142.868 293.886 142.044 294.83 140.629 294.83ZM146.83 296H148.528V290.619C148.528 289.443 149.352 288.625 150.318 288.625C151.261 288.625 151.915 289.25 151.915 290.199V296H153.608V290.438C153.608 289.386 154.25 288.625 155.358 288.625C156.256 288.625 156.994 289.125 156.994 290.307V296H158.693V290.148C158.693 288.153 157.58 287.159 156 287.159C154.744 287.159 153.801 287.761 153.381 288.693H153.29C152.909 287.739 152.108 287.159 150.943 287.159C149.79 287.159 148.932 287.733 148.568 288.693H148.46V287.273H146.83V296Z" fill="#B1B1B1"/>
<path d="M109.964 310.091H108.643L105.916 311.902V313.244L108.58 311.476H108.643V321H109.964V310.091ZM116.66 321.149C119.068 321.149 120.453 319.109 120.453 315.545C120.453 312.009 119.047 309.942 116.66 309.942C114.274 309.942 112.868 312.009 112.868 315.545C112.868 319.109 114.252 321.149 116.66 321.149ZM116.66 319.977C115.073 319.977 114.146 318.385 114.146 315.545C114.146 312.712 115.083 311.092 116.66 311.092C118.237 311.092 119.174 312.712 119.174 315.545C119.174 318.385 118.248 319.977 116.66 319.977ZM129.806 321.17C131.383 321.17 131.916 320.19 132.193 319.743H132.342V321H133.556V310.091H132.299V314.118H132.193C131.916 313.692 131.426 312.712 129.828 312.712C127.761 312.712 126.333 314.352 126.333 316.93C126.333 319.53 127.761 321.17 129.806 321.17ZM129.977 320.041C128.4 320.041 127.591 318.656 127.591 316.909C127.591 315.183 128.379 313.841 129.977 313.841C131.511 313.841 132.321 315.077 132.321 316.909C132.321 318.763 131.49 320.041 129.977 320.041ZM138.441 321.192C139.869 321.192 140.614 320.425 140.87 319.892H140.934V321H142.191V315.609C142.191 313.01 140.21 312.712 139.165 312.712C137.93 312.712 136.523 313.138 135.884 314.629L137.077 315.055C137.354 314.459 138.01 313.82 139.208 313.82C140.364 313.82 140.934 314.432 140.934 315.482V315.524C140.934 316.131 140.316 316.078 138.825 316.27C137.306 316.467 135.65 316.803 135.65 318.678C135.65 320.276 136.886 321.192 138.441 321.192ZM138.633 320.062C137.631 320.062 136.907 319.615 136.907 318.741C136.907 317.783 137.781 317.484 138.761 317.357C139.293 317.293 140.721 317.143 140.934 316.888V318.038C140.934 319.061 140.124 320.062 138.633 320.062ZM145.002 324.068C146.137 324.068 146.936 323.466 147.41 322.193L150.894 312.839L149.519 312.818L147.261 319.338H147.176L144.917 312.818H143.553L146.579 321.043L146.345 321.682C145.886 322.928 145.322 323.045 144.406 322.811L144.086 323.919C144.214 323.983 144.576 324.068 145.002 324.068ZM158.352 314.651C157.958 313.489 157.074 312.712 155.455 312.712C153.729 312.712 152.45 313.692 152.45 315.077C152.45 316.206 153.121 316.962 154.624 317.314L155.987 317.634C156.813 317.825 157.202 318.219 157.202 318.784C157.202 319.487 156.456 320.062 155.284 320.062C154.256 320.062 153.612 319.62 153.388 318.741L152.195 319.04C152.488 320.43 153.633 321.17 155.305 321.17C157.207 321.17 158.501 320.132 158.501 318.72C158.501 317.58 157.788 316.861 156.328 316.504L155.114 316.206C154.144 315.966 153.707 315.641 153.707 315.013C153.707 314.31 154.453 313.798 155.455 313.798C156.552 313.798 157.005 314.406 157.223 314.97L158.352 314.651ZM167.02 321.192C168.448 321.192 169.193 320.425 169.449 319.892H169.513V321H170.77V315.609C170.77 313.01 168.789 312.712 167.745 312.712C166.509 312.712 165.103 313.138 164.463 314.629L165.657 315.055C165.934 314.459 166.589 313.82 167.787 313.82C168.943 313.82 169.513 314.432 169.513 315.482V315.524C169.513 316.131 168.895 316.078 167.404 316.27C165.886 316.467 164.229 316.803 164.229 318.678C164.229 320.276 165.465 321.192 167.02 321.192ZM167.212 320.062C166.21 320.062 165.486 319.615 165.486 318.741C165.486 317.783 166.36 317.484 167.34 317.357C167.872 317.293 169.3 317.143 169.513 316.888V318.038C169.513 319.061 168.703 320.062 167.212 320.062ZM176.367 324.239C178.327 324.239 179.904 323.344 179.904 321.234V312.818H178.69V314.118H178.562C178.285 313.692 177.773 312.712 176.175 312.712C174.109 312.712 172.681 314.352 172.681 316.866C172.681 319.423 174.173 320.872 176.154 320.872C177.752 320.872 178.263 319.935 178.54 319.487H178.647V321.149C178.647 322.513 177.688 323.131 176.367 323.131C174.881 323.131 174.359 322.348 174.023 321.895L173.022 322.598C173.533 323.456 174.54 324.239 176.367 324.239ZM176.325 319.743C174.748 319.743 173.938 318.55 173.938 316.845C173.938 315.183 174.727 313.841 176.325 313.841C177.859 313.841 178.668 315.077 178.668 316.845C178.668 318.656 177.837 319.743 176.325 319.743ZM185.529 321.17C187.745 321.17 189.237 319.487 189.237 316.952C189.237 314.395 187.745 312.712 185.529 312.712C183.313 312.712 181.822 314.395 181.822 316.952C181.822 319.487 183.313 321.17 185.529 321.17ZM185.529 320.041C183.846 320.041 183.079 318.592 183.079 316.952C183.079 315.311 183.846 313.841 185.529 313.841C187.212 313.841 187.979 315.311 187.979 316.952C187.979 318.592 187.212 320.041 185.529 320.041Z" fill="#718EBF"/>
<path d="M299.449 310.455H300.381V309.188C302.767 309.023 304.108 307.614 304.108 305.841C304.108 303.659 302.04 302.955 300.835 302.636L300.381 302.511V298.472C301.585 298.591 302.46 299.239 302.585 300.273H303.949C303.892 298.614 302.438 297.352 300.381 297.216V295.909H299.449V297.233C297.5 297.432 296.04 298.67 296.04 300.455C296.04 302.023 297.176 302.955 298.994 303.477L299.449 303.608V307.909C298.256 307.784 297.278 307.17 297.176 306H295.722C295.852 307.79 297.216 309.04 299.449 309.188V310.455ZM300.381 307.909V303.875L300.426 303.886C301.653 304.227 302.744 304.659 302.744 305.818C302.744 306.96 301.756 307.756 300.381 307.909ZM299.449 302.261C298.585 302.017 297.403 301.54 297.403 300.386C297.403 299.403 298.199 298.653 299.449 298.489V302.261ZM309.925 297.205C307.561 297.176 306.038 298.955 306.038 301.091C306.038 303.341 307.697 304.955 309.697 304.955C310.902 304.955 311.925 304.364 312.561 303.409H312.652C312.652 306.273 311.538 307.909 309.743 307.909C308.516 307.909 307.766 307.136 307.516 306.068H306.129C306.402 307.909 307.788 309.159 309.743 309.159C312.357 309.159 313.97 306.841 313.97 302.705C313.97 298.432 311.834 297.227 309.925 297.205ZM309.925 298.455C311.379 298.455 312.447 299.705 312.447 301.068C312.447 302.455 311.311 303.705 309.879 303.705C308.447 303.705 307.402 302.545 307.402 301.091C307.402 299.636 308.493 298.455 309.925 298.455ZM320 309.159C322.568 309.159 324.045 306.983 324.045 303.182C324.045 299.409 322.545 297.205 320 297.205C317.455 297.205 315.955 299.409 315.955 303.182C315.955 306.983 317.432 309.159 320 309.159ZM320 307.909C318.307 307.909 317.318 306.21 317.318 303.182C317.318 300.159 318.318 298.432 320 298.432C321.682 298.432 322.682 300.159 322.682 303.182C322.682 306.21 321.693 307.909 320 307.909Z" fill="#718EBF"/>
<rect x="25" y="111" width="60" height="60" rx="20" fill="#FFF5D9"/>
<path d="M106.278 122.364V134H107.949V125.574H108.057L111.489 133.983H112.875L116.307 125.58H116.415V134H118.085V122.364H115.955L112.25 131.409H112.114L108.409 122.364H106.278ZM120.501 134H122.2V125.273H120.501V134ZM121.359 123.926C121.945 123.926 122.433 123.472 122.433 122.915C122.433 122.358 121.945 121.898 121.359 121.898C120.768 121.898 120.286 122.358 120.286 122.915C120.286 123.472 120.768 123.926 121.359 123.926ZM128.162 134.176C130.224 134.176 131.56 132.938 131.747 131.239H130.094C129.878 132.182 129.145 132.739 128.173 132.739C126.736 132.739 125.81 131.54 125.81 129.636C125.81 127.767 126.753 126.591 128.173 126.591C129.253 126.591 129.912 127.273 130.094 128.091H131.747C131.565 126.33 130.128 125.159 128.145 125.159C125.685 125.159 124.094 127.011 124.094 129.676C124.094 132.307 125.628 134.176 128.162 134.176ZM135.263 128.818C135.263 127.426 136.143 126.631 137.354 126.631C138.524 126.631 139.223 127.375 139.223 128.653V134H140.922V128.449C140.922 126.273 139.729 125.159 137.933 125.159C136.575 125.159 135.757 125.75 135.348 126.693H135.24V122.364H133.564V134H135.263V128.818ZM145.729 134.193C147.172 134.193 147.984 133.46 148.308 132.807H148.376V134H150.036V128.205C150.036 125.665 148.036 125.159 146.649 125.159C145.07 125.159 143.615 125.795 143.047 127.386L144.643 127.75C144.893 127.131 145.53 126.534 146.672 126.534C147.768 126.534 148.331 127.108 148.331 128.097V128.136C148.331 128.756 147.695 128.744 146.126 128.926C144.473 129.119 142.78 129.551 142.78 131.534C142.78 133.25 144.07 134.193 145.729 134.193ZM146.098 132.83C145.138 132.83 144.445 132.398 144.445 131.557C144.445 130.648 145.251 130.324 146.234 130.193C146.786 130.119 148.092 129.972 148.337 129.727V130.852C148.337 131.886 147.513 132.83 146.098 132.83ZM156.06 134.176C157.963 134.176 159.31 133.239 159.696 131.818L158.088 131.528C157.781 132.352 157.043 132.773 156.077 132.773C154.622 132.773 153.645 131.83 153.599 130.148H159.804V129.545C159.804 126.392 157.918 125.159 155.94 125.159C153.509 125.159 151.906 127.011 151.906 129.693C151.906 132.403 153.486 134.176 156.06 134.176ZM153.605 128.875C153.673 127.636 154.571 126.562 155.952 126.562C157.27 126.562 158.134 127.54 158.139 128.875H153.605ZM163.388 122.364H161.689V134H163.388V122.364Z" fill="#B1B1B1"/>
<path d="M106.129 159H113.011V157.828H107.94V157.743L110.391 155.122C112.266 153.114 112.82 152.176 112.82 150.967C112.82 149.284 111.456 147.942 109.538 147.942C107.626 147.942 106.172 149.241 106.172 151.159H107.429C107.429 149.918 108.233 149.092 109.496 149.092C110.678 149.092 111.584 149.817 111.584 150.967C111.584 151.974 110.993 152.72 109.73 154.099L106.129 158.041V159ZM122.541 159.17C124.118 159.17 124.65 158.19 124.927 157.743H125.076V159H126.291V148.091H125.034V152.118H124.927C124.65 151.692 124.16 150.712 122.562 150.712C120.495 150.712 119.068 152.352 119.068 154.93C119.068 157.53 120.495 159.17 122.541 159.17ZM122.711 158.041C121.135 158.041 120.325 156.656 120.325 154.909C120.325 153.183 121.113 151.841 122.711 151.841C124.245 151.841 125.055 153.077 125.055 154.909C125.055 156.763 124.224 158.041 122.711 158.041ZM131.175 159.192C132.603 159.192 133.349 158.425 133.604 157.892H133.668V159H134.925V153.609C134.925 151.01 132.944 150.712 131.9 150.712C130.664 150.712 129.258 151.138 128.619 152.629L129.812 153.055C130.089 152.459 130.744 151.82 131.942 151.82C133.098 151.82 133.668 152.432 133.668 153.482V153.524C133.668 154.131 133.05 154.078 131.559 154.27C130.041 154.467 128.384 154.803 128.384 156.678C128.384 158.276 129.62 159.192 131.175 159.192ZM131.367 158.062C130.366 158.062 129.641 157.615 129.641 156.741C129.641 155.783 130.515 155.484 131.495 155.357C132.028 155.293 133.455 155.143 133.668 154.888V156.038C133.668 157.061 132.859 158.062 131.367 158.062ZM137.737 162.068C138.871 162.068 139.67 161.466 140.144 160.193L143.628 150.839L142.254 150.818L139.995 157.338H139.91L137.651 150.818H136.288L139.313 159.043L139.079 159.682C138.621 160.928 138.056 161.045 137.14 160.811L136.82 161.919C136.948 161.983 137.31 162.068 137.737 162.068ZM151.087 152.651C150.692 151.489 149.808 150.712 148.189 150.712C146.463 150.712 145.185 151.692 145.185 153.077C145.185 154.206 145.856 154.962 147.358 155.314L148.722 155.634C149.547 155.825 149.936 156.219 149.936 156.784C149.936 157.487 149.19 158.062 148.018 158.062C146.99 158.062 146.346 157.62 146.122 156.741L144.929 157.04C145.222 158.43 146.367 159.17 148.04 159.17C149.941 159.17 151.236 158.132 151.236 156.72C151.236 155.58 150.522 154.861 149.062 154.504L147.848 154.206C146.879 153.966 146.442 153.641 146.442 153.013C146.442 152.31 147.188 151.798 148.189 151.798C149.286 151.798 149.739 152.406 149.957 152.97L151.087 152.651ZM159.755 159.192C161.182 159.192 161.928 158.425 162.184 157.892H162.247V159H163.505V153.609C163.505 151.01 161.523 150.712 160.479 150.712C159.243 150.712 157.837 151.138 157.198 152.629L158.391 153.055C158.668 152.459 159.323 151.82 160.522 151.82C161.677 151.82 162.247 152.432 162.247 153.482V153.524C162.247 154.131 161.63 154.078 160.138 154.27C158.62 154.467 156.963 154.803 156.963 156.678C156.963 158.276 158.199 159.192 159.755 159.192ZM159.946 158.062C158.945 158.062 158.22 157.615 158.22 156.741C158.22 155.783 159.094 155.484 160.074 155.357C160.607 155.293 162.034 155.143 162.247 154.888V156.038C162.247 157.061 161.438 158.062 159.946 158.062ZM169.102 162.239C171.062 162.239 172.638 161.344 172.638 159.234V150.818H171.424V152.118H171.296C171.019 151.692 170.508 150.712 168.91 150.712C166.843 150.712 165.415 152.352 165.415 154.866C165.415 157.423 166.907 158.872 168.888 158.872C170.487 158.872 170.998 157.935 171.275 157.487H171.381V159.149C171.381 160.513 170.423 161.131 169.102 161.131C167.615 161.131 167.093 160.348 166.758 159.895L165.756 160.598C166.268 161.456 167.275 162.239 169.102 162.239ZM169.059 157.743C167.482 157.743 166.673 156.55 166.673 154.845C166.673 153.183 167.461 151.841 169.059 151.841C170.593 151.841 171.403 153.077 171.403 154.845C171.403 156.656 170.572 157.743 169.059 157.743ZM178.263 159.17C180.479 159.17 181.971 157.487 181.971 154.952C181.971 152.395 180.479 150.712 178.263 150.712C176.048 150.712 174.556 152.395 174.556 154.952C174.556 157.487 176.048 159.17 178.263 159.17ZM178.263 158.041C176.58 158.041 175.813 156.592 175.813 154.952C175.813 153.311 176.58 151.841 178.263 151.841C179.947 151.841 180.714 153.311 180.714 154.952C180.714 156.592 179.947 158.041 178.263 158.041Z" fill="#718EBF"/>
<path d="M292.011 148.455H292.943V147.188C295.33 147.023 296.67 145.614 296.67 143.841C296.67 141.659 294.602 140.955 293.398 140.636L292.943 140.511V136.472C294.148 136.591 295.023 137.239 295.148 138.273H296.511C296.455 136.614 295 135.352 292.943 135.216V133.909H292.011V135.233C290.062 135.432 288.602 136.67 288.602 138.455C288.602 140.023 289.739 140.955 291.557 141.477L292.011 141.608V145.909C290.818 145.784 289.841 145.17 289.739 144H288.284C288.415 145.79 289.778 147.04 292.011 147.188V148.455ZM292.943 145.909V141.875L292.989 141.886C294.216 142.227 295.307 142.659 295.307 143.818C295.307 144.96 294.318 145.756 292.943 145.909ZM292.011 140.261C291.148 140.017 289.966 139.54 289.966 138.386C289.966 137.403 290.761 136.653 292.011 136.489V140.261ZM302.874 135.364H301.464L298.555 137.295V138.727L301.396 136.841H301.464V147H302.874V135.364ZM310.084 147.159C312.436 147.188 313.97 145.415 313.97 143.25C313.97 141 312.305 139.386 310.311 139.386C309.112 139.386 308.084 139.972 307.447 140.932H307.357C307.362 138.097 308.464 136.455 310.266 136.455C311.493 136.455 312.232 137.227 312.493 138.273H313.879C313.595 136.466 312.22 135.205 310.266 135.205C307.646 135.205 306.038 137.523 306.038 141.636C306.038 145.938 308.175 147.136 310.084 147.159ZM310.084 145.909C308.624 145.909 307.555 144.665 307.561 143.273C307.567 141.881 308.686 140.636 310.129 140.636C311.555 140.636 312.607 141.807 312.607 143.25C312.607 144.727 311.51 145.909 310.084 145.909ZM320 147.159C322.568 147.159 324.045 144.983 324.045 141.182C324.045 137.409 322.545 135.205 320 135.205C317.455 135.205 315.955 137.409 315.955 141.182C315.955 144.983 317.432 147.159 320 147.159ZM320 145.909C318.307 145.909 317.318 144.21 317.318 141.182C317.318 138.159 318.318 136.432 320 136.432C321.682 136.432 322.682 138.159 322.682 141.182C322.682 144.21 321.693 145.909 320 145.909Z" fill="#718EBF"/>
<g clip-path="url(#clip1_1_185)">
<path d="M64.3389 145.161C62.9774 143.8 61.3569 142.792 59.5888 142.182C61.4825 140.877 62.7266 138.695 62.7266 136.227C62.7266 132.242 59.4847 129 55.5 129C51.5153 129 48.2734 132.242 48.2734 136.227C48.2734 138.695 49.5175 140.877 51.4112 142.182C49.6432 142.792 48.0227 143.8 46.6612 145.161C44.3002 147.522 43 150.661 43 154H44.9531C44.9531 148.184 49.6844 143.453 55.5 143.453C61.3156 143.453 66.0469 148.184 66.0469 154H68C68 150.661 66.6998 147.522 64.3389 145.161ZM55.5 141.5C52.5922 141.5 50.2266 139.134 50.2266 136.227C50.2266 133.319 52.5922 130.953 55.5 130.953C58.4078 130.953 60.7734 133.319 60.7734 136.227C60.7734 139.134 58.4078 141.5 55.5 141.5Z" fill="#FFBB38"/>
</g>
<rect x="25" y="192" width="60" height="60" rx="20" fill="#E7EDFF"/>
<path d="M106.278 215H108.034V210.909H110.42C113.119 210.909 114.455 209.278 114.455 207.131C114.455 204.989 113.131 203.364 110.426 203.364H106.278V215ZM108.034 209.42V204.869H110.239C111.977 204.869 112.688 205.812 112.688 207.131C112.688 208.449 111.977 209.42 110.261 209.42H108.034ZM118.075 203.364H116.376V215H118.075V203.364ZM122.901 215.193C124.344 215.193 125.156 214.46 125.48 213.807H125.548V215H127.207V209.205C127.207 206.665 125.207 206.159 123.821 206.159C122.241 206.159 120.787 206.795 120.219 208.386L121.815 208.75C122.065 208.131 122.702 207.534 123.844 207.534C124.94 207.534 125.503 208.108 125.503 209.097V209.136C125.503 209.756 124.866 209.744 123.298 209.926C121.645 210.119 119.952 210.551 119.952 212.534C119.952 214.25 121.241 215.193 122.901 215.193ZM123.27 213.83C122.31 213.83 121.616 213.398 121.616 212.557C121.616 211.648 122.423 211.324 123.406 211.193C123.957 211.119 125.264 210.972 125.509 210.727V211.852C125.509 212.886 124.685 213.83 123.27 213.83ZM130.232 218.273C131.635 218.273 132.521 217.54 133.027 216.165L136.635 206.29L134.8 206.273L132.589 213.045H132.499L130.288 206.273H128.47L131.663 215.114L131.453 215.693C131.021 216.852 130.413 216.949 129.482 216.693L129.072 218.085C129.277 218.176 129.72 218.273 130.232 218.273ZM144.776 208.403C144.423 207.045 143.361 206.159 141.474 206.159C139.503 206.159 138.105 207.199 138.105 208.744C138.105 209.983 138.855 210.807 140.491 211.17L141.969 211.494C142.81 211.682 143.202 212.057 143.202 212.602C143.202 213.278 142.48 213.807 141.366 213.807C140.349 213.807 139.696 213.369 139.491 212.511L137.849 212.761C138.134 214.307 139.418 215.176 141.378 215.176C143.486 215.176 144.946 214.057 144.946 212.477C144.946 211.244 144.162 210.483 142.56 210.114L141.173 209.795C140.213 209.568 139.798 209.244 139.804 208.653C139.798 207.983 140.526 207.506 141.491 207.506C142.548 207.506 143.037 208.091 143.236 208.676L144.776 208.403ZM150.888 206.273H149.098V204.182H147.399V206.273H146.121V207.636H147.399V212.79C147.393 214.375 148.604 215.142 149.945 215.114C150.484 215.108 150.848 215.006 151.047 214.932L150.74 213.528C150.626 213.551 150.416 213.602 150.143 213.602C149.592 213.602 149.098 213.42 149.098 212.438V207.636H150.888V206.273ZM155.307 215.193C156.75 215.193 157.562 214.46 157.886 213.807H157.955V215H159.614V209.205C159.614 206.665 157.614 206.159 156.227 206.159C154.648 206.159 153.193 206.795 152.625 208.386L154.222 208.75C154.472 208.131 155.108 207.534 156.25 207.534C157.347 207.534 157.909 208.108 157.909 209.097V209.136C157.909 209.756 157.273 209.744 155.705 209.926C154.051 210.119 152.358 210.551 152.358 212.534C152.358 214.25 153.648 215.193 155.307 215.193ZM155.676 213.83C154.716 213.83 154.023 213.398 154.023 212.557C154.023 211.648 154.83 211.324 155.812 211.193C156.364 211.119 157.67 210.972 157.915 210.727V211.852C157.915 212.886 157.091 213.83 155.676 213.83ZM165.95 206.273H164.161V204.182H162.462V206.273H161.183V207.636H162.462V212.79C162.456 214.375 163.666 215.142 165.007 215.114C165.547 215.108 165.911 215.006 166.109 214.932L165.803 213.528C165.689 213.551 165.479 213.602 165.206 213.602C164.655 213.602 164.161 213.42 164.161 212.438V207.636H165.95V206.273ZM167.83 215H169.528V206.273H167.83V215ZM168.688 204.926C169.273 204.926 169.761 204.472 169.761 203.915C169.761 203.358 169.273 202.898 168.688 202.898C168.097 202.898 167.614 203.358 167.614 203.915C167.614 204.472 168.097 204.926 168.688 204.926ZM175.49 215.176C177.95 215.176 179.558 213.375 179.558 210.676C179.558 207.96 177.95 206.159 175.49 206.159C173.03 206.159 171.422 207.96 171.422 210.676C171.422 213.375 173.03 215.176 175.49 215.176ZM175.496 213.75C173.888 213.75 173.138 212.347 173.138 210.67C173.138 209 173.888 207.58 175.496 207.58C177.092 207.58 177.842 209 177.842 210.67C177.842 212.347 177.092 213.75 175.496 213.75ZM183.153 209.818C183.153 208.426 184.006 207.631 185.188 207.631C186.341 207.631 187.04 208.386 187.04 209.653V215H188.739V209.449C188.739 207.29 187.551 206.159 185.767 206.159C184.455 206.159 183.597 206.767 183.193 207.693H183.085V206.273H181.455V215H183.153V209.818Z" fill="#B1B1B1"/>
<path d="M109.538 240.149C111.616 240.149 113.139 238.615 113.139 236.527C113.139 234.412 111.669 232.862 109.666 232.862C108.931 232.862 108.217 233.123 107.77 233.48H107.706L108.089 230.263H112.649V229.091H106.982L106.321 234.46L107.557 234.609C108.01 234.284 108.782 234.05 109.453 234.055C110.843 234.066 111.861 235.121 111.861 236.548C111.861 237.949 110.881 238.977 109.538 238.977C108.42 238.977 107.53 238.258 107.429 237.273H106.151C106.23 238.935 107.663 240.149 109.538 240.149ZM122.585 240.17C124.161 240.17 124.694 239.19 124.971 238.743H125.12V240H126.335V229.091H125.078V233.118H124.971C124.694 232.692 124.204 231.712 122.606 231.712C120.539 231.712 119.112 233.352 119.112 235.93C119.112 238.53 120.539 240.17 122.585 240.17ZM122.755 239.041C121.179 239.041 120.369 237.656 120.369 235.909C120.369 234.183 121.157 232.841 122.755 232.841C124.289 232.841 125.099 234.077 125.099 235.909C125.099 237.763 124.268 239.041 122.755 239.041ZM131.219 240.192C132.647 240.192 133.393 239.425 133.648 238.892H133.712V240H134.969V234.609C134.969 232.01 132.988 231.712 131.944 231.712C130.708 231.712 129.302 232.138 128.663 233.629L129.856 234.055C130.133 233.459 130.788 232.82 131.986 232.82C133.142 232.82 133.712 233.432 133.712 234.482V234.524C133.712 235.131 133.094 235.078 131.603 235.27C130.085 235.467 128.428 235.803 128.428 237.678C128.428 239.276 129.664 240.192 131.219 240.192ZM131.411 239.062C130.41 239.062 129.685 238.615 129.685 237.741C129.685 236.783 130.559 236.484 131.539 236.357C132.072 236.293 133.499 236.143 133.712 235.888V237.038C133.712 238.061 132.903 239.062 131.411 239.062ZM137.781 243.068C138.915 243.068 139.714 242.466 140.188 241.193L143.672 231.839L142.298 231.818L140.039 238.338H139.954L137.695 231.818H136.332L139.357 240.043L139.123 240.682C138.665 241.928 138.1 242.045 137.184 241.811L136.864 242.919C136.992 242.983 137.354 243.068 137.781 243.068ZM151.131 233.651C150.736 232.489 149.852 231.712 148.233 231.712C146.507 231.712 145.229 232.692 145.229 234.077C145.229 235.206 145.9 235.962 147.402 236.314L148.766 236.634C149.591 236.825 149.98 237.219 149.98 237.784C149.98 238.487 149.234 239.062 148.062 239.062C147.034 239.062 146.39 238.62 146.166 237.741L144.973 238.04C145.266 239.43 146.411 240.17 148.084 240.17C149.985 240.17 151.28 239.132 151.28 237.72C151.28 236.58 150.566 235.861 149.106 235.504L147.892 235.206C146.922 234.966 146.486 234.641 146.486 234.013C146.486 233.31 147.231 232.798 148.233 232.798C149.33 232.798 149.783 233.406 150.001 233.97L151.131 233.651ZM159.798 240.192C161.226 240.192 161.972 239.425 162.227 238.892H162.291V240H163.548V234.609C163.548 232.01 161.567 231.712 160.523 231.712C159.287 231.712 157.881 232.138 157.242 233.629L158.435 234.055C158.712 233.459 159.367 232.82 160.566 232.82C161.721 232.82 162.291 233.432 162.291 234.482V234.524C162.291 235.131 161.673 235.078 160.182 235.27C158.664 235.467 157.007 235.803 157.007 237.678C157.007 239.276 158.243 240.192 159.798 240.192ZM159.99 239.062C158.989 239.062 158.264 238.615 158.264 237.741C158.264 236.783 159.138 236.484 160.118 236.357C160.651 236.293 162.078 236.143 162.291 235.888V237.038C162.291 238.061 161.482 239.062 159.99 239.062ZM169.146 243.239C171.106 243.239 172.682 242.344 172.682 240.234V231.818H171.468V233.118H171.34C171.063 232.692 170.552 231.712 168.954 231.712C166.887 231.712 165.459 233.352 165.459 235.866C165.459 238.423 166.951 239.872 168.932 239.872C170.53 239.872 171.042 238.935 171.319 238.487H171.425V240.149C171.425 241.513 170.467 242.131 169.146 242.131C167.659 242.131 167.137 241.348 166.802 240.895L165.8 241.598C166.312 242.456 167.318 243.239 169.146 243.239ZM169.103 238.743C167.526 238.743 166.717 237.55 166.717 235.845C166.717 234.183 167.505 232.841 169.103 232.841C170.637 232.841 171.447 234.077 171.447 235.845C171.447 237.656 170.616 238.743 169.103 238.743ZM178.307 240.17C180.523 240.17 182.015 238.487 182.015 235.952C182.015 233.395 180.523 231.712 178.307 231.712C176.092 231.712 174.6 233.395 174.6 235.952C174.6 238.487 176.092 240.17 178.307 240.17ZM178.307 239.041C176.624 239.041 175.857 237.592 175.857 235.952C175.857 234.311 176.624 232.841 178.307 232.841C179.991 232.841 180.758 234.311 180.758 235.952C180.758 237.592 179.991 239.041 178.307 239.041Z" fill="#718EBF"/>
<path d="M282.402 229.455H283.334V228.188C285.72 228.023 287.061 226.614 287.061 224.841C287.061 222.659 284.993 221.955 283.788 221.636L283.334 221.511V217.472C284.538 217.591 285.413 218.239 285.538 219.273H286.902C286.845 217.614 285.391 216.352 283.334 216.216V214.909H282.402V216.233C280.453 216.432 278.993 217.67 278.993 219.455C278.993 221.023 280.129 221.955 281.947 222.477L282.402 222.608V226.909C281.209 226.784 280.232 226.17 280.129 225H278.675C278.805 226.79 280.169 228.04 282.402 228.188V229.455ZM283.334 226.909V222.875L283.379 222.886C284.607 223.227 285.697 223.659 285.697 224.818C285.697 225.96 284.709 226.756 283.334 226.909ZM282.402 221.261C281.538 221.017 280.357 220.54 280.357 219.386C280.357 218.403 281.152 217.653 282.402 217.489V221.261ZM293.264 216.364H291.855L288.946 218.295V219.727L291.787 217.841H291.855V228H293.264V216.364ZM300.406 228.159C302.974 228.159 304.452 225.983 304.452 222.182C304.452 218.409 302.952 216.205 300.406 216.205C297.861 216.205 296.361 218.409 296.361 222.182C296.361 225.983 297.838 228.159 300.406 228.159ZM300.406 226.909C298.713 226.909 297.724 225.21 297.724 222.182C297.724 219.159 298.724 217.432 300.406 217.432C302.088 217.432 303.088 219.159 303.088 222.182C303.088 225.21 302.099 226.909 300.406 226.909ZM310.338 228.159C312.662 228.159 314.281 226.801 314.293 224.909C314.281 223.438 313.298 222.188 312.043 221.955V221.886C313.134 221.602 313.849 220.534 313.861 219.295C313.849 217.523 312.361 216.205 310.338 216.205C308.293 216.205 306.804 217.523 306.815 219.295C306.804 220.534 307.52 221.602 308.634 221.886V221.955C307.355 222.188 306.372 223.438 306.384 224.909C306.372 226.801 307.991 228.159 310.338 228.159ZM310.338 226.909C308.741 226.909 307.759 226.091 307.77 224.841C307.759 223.528 308.844 222.591 310.338 222.591C311.81 222.591 312.895 223.528 312.906 224.841C312.895 226.091 311.912 226.909 310.338 226.909ZM310.338 221.386C309.065 221.386 308.168 220.591 308.179 219.386C308.168 218.205 309.031 217.432 310.338 217.432C311.622 217.432 312.486 218.205 312.497 219.386C312.486 220.591 311.588 221.386 310.338 221.386ZM320.107 228.159C322.322 228.159 323.947 226.523 323.947 224.295C323.947 222.04 322.379 220.386 320.243 220.386C319.459 220.386 318.697 220.665 318.22 221.045H318.152L318.561 217.614H323.425V216.364H317.379L316.675 222.091L317.993 222.25C318.476 221.903 319.3 221.653 320.016 221.659C321.499 221.67 322.584 222.795 322.584 224.318C322.584 225.812 321.538 226.909 320.107 226.909C318.913 226.909 317.964 226.142 317.857 225.091H316.493C316.578 226.864 318.107 228.159 320.107 228.159Z" fill="#718EBF"/>
<g clip-path="url(#clip2_1_185)">
<path d="M63.2995 223.265C62.8339 223.265 62.3737 223.333 61.9316 223.467L56.2316 225.045V216.984C56.2316 216.58 56.5602 216.251 56.964 216.251C57.3679 216.251 57.6965 216.58 57.6965 216.984V222.681H58.4289C61.2559 222.681 63.5558 220.381 63.5558 217.554C63.5558 215.267 62.0193 213.237 59.8162 212.618L50.356 210V222.556L46.56 223.607C46.1118 223.719 45.6821 223.897 45.2827 224.137C43.0602 225.469 42.3362 228.361 43.6688 230.584C44.1966 231.464 44.9768 232.133 45.9252 232.519C46.4905 232.749 47.0994 232.866 47.7075 232.866C48.0851 232.866 48.4625 232.821 48.8287 232.73L50.356 232.308V233.576L55.4992 235L64.6585 232.465L64.6776 232.459C65.6193 232.171 66.4651 231.576 67.0593 230.785C67.6742 229.966 67.9992 228.991 67.9992 227.965C67.9992 225.373 65.8909 223.265 63.2995 223.265ZM50.3559 226.672L46.5042 227.738L46.895 229.15L50.3559 228.192V230.788L48.4671 231.311C48.2076 231.374 47.9468 231.405 47.6895 231.405C46.5733 231.405 45.5219 230.826 44.9251 229.831C44.0079 228.301 44.5062 226.31 46.036 225.393C46.3135 225.226 46.6118 225.103 46.9224 225.026L50.3559 224.076V226.672ZM54.7668 216.984V233.277L51.8208 232.462V211.925L59.4227 214.029C60.9938 214.47 62.091 215.92 62.091 217.554C62.091 219.323 60.8307 220.803 59.1613 221.143V216.984C59.1613 215.772 58.1756 214.786 56.964 214.786C55.7525 214.786 54.7668 215.772 54.7668 216.984ZM64.2574 231.056L56.2316 233.277V230.681L64.4947 228.394L64.1039 226.982L56.2316 229.161V226.565L62.3315 224.877L62.3506 224.871C62.6567 224.777 62.9759 224.73 63.2995 224.73C65.0832 224.73 66.5344 226.181 66.5344 227.965C66.5343 229.393 65.6196 230.634 64.2574 231.056Z" fill="#396AFF"/>
</g>
<defs>
<clipPath id="clip0_1_185">
<rect width="25" height="25" fill="white" transform="translate(43 48)"/>
</clipPath>
<clipPath id="clip1_1_185">
<rect width="25" height="25" fill="white" transform="translate(43 129)"/>
</clipPath>
<clipPath id="clip2_1_185">
<rect width="25" height="25" fill="white" transform="translate(43 210)"/>
</clipPath>
</defs>
</svg>
