<svg width="730" height="235" viewBox="0 0 730 235" fill="none" xmlns="http://www.w3.org/2000/svg">
<rect width="730" height="235" rx="25" fill="white"/>
<path d="M112.625 36.4205H114.318C114.267 34.5568 112.619 33.2045 110.256 33.2045C107.92 33.2045 106.131 34.5398 106.131 36.5455C106.131 38.1648 107.29 39.1136 109.159 39.6193L110.534 39.9943C111.778 40.3239 112.739 40.733 112.739 41.767C112.739 42.9034 111.653 43.6534 110.159 43.6534C108.807 43.6534 107.682 43.0511 107.58 41.7841H105.818C105.932 43.892 107.562 45.1932 110.17 45.1932C112.903 45.1932 114.477 43.7557 114.477 41.7841C114.477 39.6875 112.608 38.875 111.131 38.5114L109.994 38.2159C109.085 37.983 107.875 37.5568 107.881 36.4432C107.881 35.4545 108.784 34.7216 110.216 34.7216C111.551 34.7216 112.5 35.3466 112.625 36.4205ZM116.439 48.2727H118.138V43.642H118.24C118.547 44.1989 119.172 45.1705 120.763 45.1705C122.876 45.1705 124.411 43.4773 124.411 40.6534C124.411 37.8239 122.854 36.1591 120.746 36.1591C119.126 36.1591 118.541 37.1477 118.24 37.6875H118.098V36.2727H116.439V48.2727ZM118.104 40.6364C118.104 38.8125 118.899 37.6023 120.382 37.6023C121.922 37.6023 122.695 38.9034 122.695 40.6364C122.695 42.3864 121.899 43.7216 120.382 43.7216C118.922 43.7216 118.104 42.4716 118.104 40.6364ZM129.99 45.1761C132.45 45.1761 134.058 43.375 134.058 40.6761C134.058 37.9602 132.45 36.1591 129.99 36.1591C127.53 36.1591 125.922 37.9602 125.922 40.6761C125.922 43.375 127.53 45.1761 129.99 45.1761ZM129.996 43.75C128.388 43.75 127.638 42.3466 127.638 40.6705C127.638 39 128.388 37.5795 129.996 37.5795C131.592 37.5795 132.342 39 132.342 40.6705C132.342 42.3466 131.592 43.75 129.996 43.75ZM140.028 36.2727H138.239V34.1818H136.54V36.2727H135.261V37.6364H136.54V42.7898C136.534 44.375 137.744 45.142 139.085 45.1136C139.625 45.108 139.989 45.0057 140.188 44.9318L139.881 43.5284C139.767 43.5511 139.557 43.6023 139.284 43.6023C138.733 43.6023 138.239 43.4205 138.239 42.4375V37.6364H140.028V36.2727ZM141.908 45H143.607V36.2727H141.908V45ZM142.766 34.9261C143.351 34.9261 143.839 34.4716 143.839 33.9148C143.839 33.358 143.351 32.8977 142.766 32.8977C142.175 32.8977 141.692 33.358 141.692 33.9148C141.692 34.4716 142.175 34.9261 142.766 34.9261ZM150.045 36.2727H148.165V35.4886C148.165 34.7159 148.483 34.2955 149.312 34.2955C149.665 34.2955 149.915 34.375 150.074 34.4261L150.472 33.0511C150.233 32.9602 149.739 32.8182 149.051 32.8182C147.67 32.8182 146.46 33.625 146.46 35.2614V36.2727H145.114V37.6364H146.46V45H148.165V37.6364H150.045V36.2727ZM152.872 48.2727C154.276 48.2727 155.162 47.5398 155.668 46.1648L159.276 36.2898L157.44 36.2727L155.23 43.0455H155.139L152.929 36.2727H151.111L154.304 45.1136L154.094 45.6932C153.662 46.8523 153.054 46.9489 152.122 46.6932L151.713 48.0852C151.918 48.1761 152.361 48.2727 152.872 48.2727ZM171.594 36.4205H173.287C173.236 34.5568 171.588 33.2045 169.224 33.2045C166.889 33.2045 165.099 34.5398 165.099 36.5455C165.099 38.1648 166.259 39.1136 168.128 39.6193L169.503 39.9943C170.747 40.3239 171.707 40.733 171.707 41.767C171.707 42.9034 170.622 43.6534 169.128 43.6534C167.776 43.6534 166.651 43.0511 166.548 41.7841H164.787C164.901 43.892 166.531 45.1932 169.139 45.1932C171.872 45.1932 173.446 43.7557 173.446 41.7841C173.446 39.6875 171.577 38.875 170.099 38.5114L168.963 38.2159C168.054 37.983 166.844 37.5568 166.849 36.4432C166.849 35.4545 167.753 34.7216 169.185 34.7216C170.52 34.7216 171.469 35.3466 171.594 36.4205ZM180.936 41.3807C180.942 42.8636 179.839 43.5682 178.885 43.5682C177.834 43.5682 177.107 42.8068 177.107 41.6193V36.2727H175.408V41.8239C175.408 43.9886 176.595 45.1136 178.271 45.1136C179.584 45.1136 180.476 44.4205 180.879 43.4886H180.97V45H182.641V36.2727H180.936V41.3807ZM185.06 45H186.719V43.642H186.861C187.168 44.1989 187.793 45.1705 189.384 45.1705C191.497 45.1705 193.031 43.4773 193.031 40.6534C193.031 37.8239 191.474 36.1591 189.366 36.1591C187.747 36.1591 187.162 37.1477 186.861 37.6875H186.759V33.3636H185.06V45ZM186.724 40.6364C186.724 38.8125 187.52 37.6023 189.003 37.6023C190.543 37.6023 191.315 38.9034 191.315 40.6364C191.315 42.3864 190.52 43.7216 189.003 43.7216C187.543 43.7216 186.724 42.4716 186.724 40.6364ZM201.479 38.4034C201.126 37.0455 200.064 36.1591 198.178 36.1591C196.206 36.1591 194.808 37.1989 194.808 38.7443C194.808 39.983 195.558 40.8068 197.195 41.1705L198.672 41.4943C199.513 41.6818 199.905 42.0568 199.905 42.6023C199.905 43.2784 199.183 43.8068 198.07 43.8068C197.053 43.8068 196.399 43.3693 196.195 42.5114L194.553 42.7614C194.837 44.3068 196.121 45.1761 198.081 45.1761C200.189 45.1761 201.649 44.0568 201.649 42.4773C201.649 41.2443 200.865 40.483 199.263 40.1136L197.876 39.7955C196.916 39.5682 196.501 39.2443 196.507 38.6534C196.501 37.983 197.229 37.5057 198.195 37.5057C199.251 37.5057 199.74 38.0909 199.939 38.6761L201.479 38.4034ZM207.193 45.1761C209.256 45.1761 210.591 43.9375 210.778 42.2386H209.125C208.909 43.1818 208.176 43.7386 207.205 43.7386C205.767 43.7386 204.841 42.5398 204.841 40.6364C204.841 38.767 205.784 37.5909 207.205 37.5909C208.284 37.5909 208.943 38.2727 209.125 39.0909H210.778C210.597 37.3295 209.159 36.1591 207.176 36.1591C204.716 36.1591 203.125 38.0114 203.125 40.6761C203.125 43.3068 204.659 45.1761 207.193 45.1761ZM212.595 45H214.294V39.6705C214.294 38.5284 215.175 37.7045 216.379 37.7045C216.732 37.7045 217.129 37.767 217.266 37.8068V36.1818C217.095 36.1591 216.76 36.142 216.544 36.142C215.521 36.142 214.646 36.7216 214.328 37.6591H214.237V36.2727H212.595V45ZM218.736 45H220.435V36.2727H218.736V45ZM219.594 34.9261C220.179 34.9261 220.668 34.4716 220.668 33.9148C220.668 33.358 220.179 32.8977 219.594 32.8977C219.003 32.8977 218.52 33.358 218.52 33.9148C218.52 34.4716 219.003 34.9261 219.594 34.9261ZM222.72 48.2727H224.419V43.642H224.521C224.828 44.1989 225.453 45.1705 227.044 45.1705C229.158 45.1705 230.692 43.4773 230.692 40.6534C230.692 37.8239 229.135 36.1591 227.027 36.1591C225.408 36.1591 224.822 37.1477 224.521 37.6875H224.379V36.2727H222.72V48.2727ZM224.385 40.6364C224.385 38.8125 225.18 37.6023 226.663 37.6023C228.203 37.6023 228.976 38.9034 228.976 40.6364C228.976 42.3864 228.18 43.7216 226.663 43.7216C225.203 43.7216 224.385 42.4716 224.385 40.6364ZM236.669 36.2727H234.879V34.1818H233.18V36.2727H231.902V37.6364H233.18V42.7898C233.175 44.375 234.385 45.142 235.726 45.1136C236.266 45.108 236.629 45.0057 236.828 44.9318L236.521 43.5284C236.408 43.5511 236.197 43.6023 235.925 43.6023C235.374 43.6023 234.879 43.4205 234.879 42.4375V37.6364H236.669V36.2727ZM238.548 45H240.247V36.2727H238.548V45ZM239.406 34.9261C239.991 34.9261 240.48 34.4716 240.48 33.9148C240.48 33.358 239.991 32.8977 239.406 32.8977C238.815 32.8977 238.332 33.358 238.332 33.9148C238.332 34.4716 238.815 34.9261 239.406 34.9261ZM246.209 45.1761C248.669 45.1761 250.277 43.375 250.277 40.6761C250.277 37.9602 248.669 36.1591 246.209 36.1591C243.749 36.1591 242.141 37.9602 242.141 40.6761C242.141 43.375 243.749 45.1761 246.209 45.1761ZM246.214 43.75C244.607 43.75 243.857 42.3466 243.857 40.6705C243.857 39 244.607 37.5795 246.214 37.5795C247.811 37.5795 248.561 39 248.561 40.6705C248.561 42.3466 247.811 43.75 246.214 43.75ZM253.872 39.8182C253.872 38.4261 254.724 37.6307 255.906 37.6307C257.06 37.6307 257.759 38.3864 257.759 39.6534V45H259.457V39.4489C259.457 37.2898 258.27 36.1591 256.486 36.1591C255.173 36.1591 254.315 36.767 253.912 37.6932H253.804V36.2727H252.173V45H253.872V39.8182Z" fill="#232323"/>
<path d="M106.129 70H113.011V68.8281H107.94V68.7429L110.391 66.1222C112.266 64.114 112.82 63.1765 112.82 61.9673C112.82 60.2841 111.456 58.9418 109.538 58.9418C107.626 58.9418 106.172 60.2415 106.172 62.1591H107.429C107.429 60.918 108.233 60.0923 109.496 60.0923C110.678 60.0923 111.584 60.8168 111.584 61.9673C111.584 62.9741 110.993 63.7198 109.73 65.0994L106.129 69.0412V70ZM118.62 70.1491C120.698 70.1491 122.221 68.6151 122.221 66.527C122.221 64.4123 120.751 62.8622 118.748 62.8622C118.013 62.8622 117.299 63.1232 116.852 63.4801H116.788L117.172 60.2628H121.731V59.0909H116.064L115.403 64.4602L116.639 64.6094C117.092 64.2844 117.864 64.0501 118.535 64.0554C119.925 64.0661 120.943 65.1207 120.943 66.5483C120.943 67.9492 119.963 68.9773 118.62 68.9773C117.502 68.9773 116.612 68.2582 116.511 67.2727H115.233C115.312 68.9347 116.745 70.1491 118.62 70.1491ZM132.924 59.0909V66.8892C132.924 68.2475 132.274 68.9773 131.134 68.9773C130.095 68.9773 129.344 68.37 129.344 67.4432H128.045C128.045 69.1211 129.344 70.1491 131.134 70.1491C133.03 70.1491 134.245 68.9826 134.245 66.8892V59.0909H132.924ZM139.13 70.1918C140.557 70.1918 141.303 69.4247 141.559 68.892H141.622V70H142.88V64.6094C142.88 62.0099 140.898 61.7116 139.854 61.7116C138.618 61.7116 137.212 62.1378 136.573 63.6293L137.766 64.0554C138.043 63.4588 138.698 62.8196 139.897 62.8196C141.052 62.8196 141.622 63.4322 141.622 64.4815V64.5241C141.622 65.1314 141.005 65.0781 139.513 65.2699C137.995 65.467 136.338 65.8026 136.338 67.6776C136.338 69.2756 137.574 70.1918 139.13 70.1918ZM139.321 69.0625C138.32 69.0625 137.595 68.6151 137.595 67.7415C137.595 66.7827 138.469 66.4844 139.449 66.3565C139.982 66.2926 141.409 66.1435 141.622 65.8878V67.0384C141.622 68.0611 140.813 69.0625 139.321 69.0625ZM146.431 65.0781C146.431 63.6506 147.315 62.8409 148.519 62.8409C149.686 62.8409 150.394 63.6026 150.394 64.8864V70H151.651V64.8011C151.651 62.7131 150.538 61.7116 148.881 61.7116C147.646 61.7116 146.879 62.2656 146.495 63.0966H146.388V61.8182H145.174V70H146.431V65.0781ZM158.146 70H165.028V68.8281H159.957V68.7429L162.407 66.1222C164.282 64.114 164.836 63.1765 164.836 61.9673C164.836 60.2841 163.473 58.9418 161.555 58.9418C159.643 58.9418 158.188 60.2415 158.188 62.1591H159.446C159.446 60.918 160.25 60.0923 161.512 60.0923C162.695 60.0923 163.6 60.8168 163.6 61.9673C163.6 62.9741 163.009 63.7198 161.747 65.0994L158.146 69.0412V70ZM170.786 70.1491C173.194 70.1491 174.579 68.109 174.579 64.5455C174.579 61.0085 173.172 58.9418 170.786 58.9418C168.4 58.9418 166.994 61.0085 166.994 64.5455C166.994 68.109 168.378 70.1491 170.786 70.1491ZM170.786 68.9773C169.199 68.9773 168.272 67.3846 168.272 64.5455C168.272 61.7116 169.209 60.0923 170.786 60.0923C172.363 60.0923 173.3 61.7116 173.3 64.5455C173.3 67.3846 172.373 68.9773 170.786 68.9773ZM176.603 70H183.485V68.8281H178.414V68.7429L180.864 66.1222C182.739 64.114 183.293 63.1765 183.293 61.9673C183.293 60.2841 181.93 58.9418 180.012 58.9418C178.1 58.9418 176.646 60.2415 176.646 62.1591H177.903C177.903 60.918 178.707 60.0923 179.969 60.0923C181.152 60.0923 182.057 60.8168 182.057 61.9673C182.057 62.9741 181.466 63.7198 180.204 65.0994L176.603 69.0412V70ZM189.52 59.0909H188.199L185.472 60.902V62.2443L188.135 60.4759H188.199V70H189.52V59.0909Z" fill="#718EBF"/>
<path d="M528.409 58H529.818V53.75H532.364C535.074 53.75 536.295 52.1023 536.295 50.0455C536.295 47.9886 535.074 46.3636 532.341 46.3636H528.409V58ZM529.818 52.5V47.6136H532.295C534.188 47.6136 534.909 48.6477 534.909 50.0455C534.909 51.4432 534.188 52.5 532.318 52.5H529.818ZM541.949 58.1818C543.722 58.1818 545.017 57.2955 545.426 55.9773L544.131 55.6136C543.79 56.5227 543 56.9773 541.949 56.9773C540.375 56.9773 539.29 55.9602 539.227 54.0909H545.562V53.5227C545.562 50.2727 543.631 49.1591 541.812 49.1591C539.449 49.1591 537.881 51.0227 537.881 53.7045C537.881 56.3864 539.426 58.1818 541.949 58.1818ZM539.227 52.9318C539.318 51.5739 540.278 50.3636 541.812 50.3636C543.267 50.3636 544.199 51.4545 544.199 52.9318H539.227ZM548.943 52.75C548.943 51.2273 549.886 50.3636 551.17 50.3636C552.415 50.3636 553.17 51.1761 553.17 52.5455V58H554.511V52.4545C554.511 50.2273 553.324 49.1591 551.557 49.1591C550.239 49.1591 549.42 49.75 549.011 50.6364H548.898V49.2727H547.602V58H548.943V52.75ZM560.257 58.1818C561.939 58.1818 562.507 57.1364 562.803 56.6591H562.962V58H564.257V46.3636H562.916V50.6591H562.803C562.507 50.2045 561.984 49.1591 560.28 49.1591C558.075 49.1591 556.553 50.9091 556.553 53.6591C556.553 56.4318 558.075 58.1818 560.257 58.1818ZM560.439 56.9773C558.757 56.9773 557.893 55.5 557.893 53.6364C557.893 51.7955 558.734 50.3636 560.439 50.3636C562.075 50.3636 562.939 51.6818 562.939 53.6364C562.939 55.6136 562.053 56.9773 560.439 56.9773ZM566.899 58H568.24V49.2727H566.899V58ZM567.581 47.8182C568.104 47.8182 568.536 47.4091 568.536 46.9091C568.536 46.4091 568.104 46 567.581 46C567.058 46 566.626 46.4091 566.626 46.9091C566.626 47.4091 567.058 47.8182 567.581 47.8182ZM572.037 52.75C572.037 51.2273 572.98 50.3636 574.264 50.3636C575.509 50.3636 576.264 51.1761 576.264 52.5455V58H577.605V52.4545C577.605 50.2273 576.418 49.1591 574.651 49.1591C573.332 49.1591 572.514 49.75 572.105 50.6364H571.991V49.2727H570.696V58H572.037V52.75ZM583.578 61.4545C585.669 61.4545 587.351 60.5 587.351 58.25V49.2727H586.055V50.6591H585.919C585.624 50.2045 585.078 49.1591 583.374 49.1591C581.169 49.1591 579.646 50.9091 579.646 53.5909C579.646 56.3182 581.237 57.8636 583.351 57.8636C585.055 57.8636 585.601 56.8636 585.896 56.3864H586.01V58.1591C586.01 59.6136 584.987 60.2727 583.578 60.2727C581.993 60.2727 581.436 59.4375 581.078 58.9545L580.01 59.7045C580.555 60.6193 581.629 61.4545 583.578 61.4545ZM583.533 56.6591C581.851 56.6591 580.987 55.3864 580.987 53.5682C580.987 51.7955 581.828 50.3636 583.533 50.3636C585.169 50.3636 586.033 51.6818 586.033 53.5682C586.033 55.5 585.146 56.6591 583.533 56.6591Z" fill="#718EBF"/>
<path d="M412.295 46.3636H410.886L407.977 48.2955V49.7273L410.818 47.8409H410.886V58H412.295V46.3636ZM415.642 58H422.983V56.75H417.574V56.6591L420.188 53.8636C422.188 51.7216 422.778 50.7216 422.778 49.4318C422.778 47.6364 421.324 46.2045 419.278 46.2045C417.239 46.2045 415.688 47.5909 415.688 49.6364H417.028C417.028 48.3125 417.886 47.4318 419.233 47.4318C420.494 47.4318 421.46 48.2045 421.46 49.4318C421.46 50.5057 420.83 51.3011 419.483 52.7727L415.642 56.9773V58ZM429.261 58.1591C431.517 58.1591 433.193 56.7443 433.193 54.8409C433.193 53.3636 432.318 52.2898 430.852 52.0455V51.9545C432.028 51.5966 432.761 50.6307 432.761 49.3182C432.761 47.6705 431.46 46.2045 429.307 46.2045C427.295 46.2045 425.625 47.4432 425.557 49.2727H426.92C426.972 48.1136 428.074 47.4318 429.284 47.4318C430.568 47.4318 431.398 48.2102 431.398 49.3864C431.398 50.6136 430.438 51.4091 429.057 51.4091H428.125V52.6591H429.057C430.824 52.6591 431.807 53.5568 431.807 54.8409C431.807 56.0739 430.733 56.9091 429.239 56.9091C427.892 56.9091 426.824 56.2159 426.739 55.0909H425.307C425.392 56.9205 427.006 58.1591 429.261 58.1591ZM435.244 55.6136H440.722V58H442.062V55.6136H443.653V54.3636H442.062V46.3636H440.358L435.244 54.4545V55.6136ZM440.722 54.3636H436.767V54.2727L440.631 48.1591H440.722V54.3636ZM452.533 52.9091H453.624L453.533 50.4091L455.646 51.75L456.192 50.7955L453.964 49.6364L456.192 48.4773L455.646 47.5227L453.533 48.8636L453.624 46.3636H452.533L452.624 48.8636L450.51 47.5227L449.964 48.4773L452.192 49.6364L449.964 50.7955L450.51 51.75L452.624 50.4091L452.533 52.9091ZM460.533 52.9091H461.624L461.533 50.4091L463.646 51.75L464.192 50.7955L461.964 49.6364L464.192 48.4773L463.646 47.5227L461.533 48.8636L461.624 46.3636H460.533L460.624 48.8636L458.51 47.5227L457.964 48.4773L460.192 49.6364L457.964 50.7955L458.51 51.75L460.624 50.4091L460.533 52.9091ZM468.533 52.9091H469.624L469.533 50.4091L471.646 51.75L472.192 50.7955L469.964 49.6364L472.192 48.4773L471.646 47.5227L469.533 48.8636L469.624 46.3636H468.533L468.624 48.8636L466.51 47.5227L465.964 48.4773L468.192 49.6364L465.964 50.7955L466.51 51.75L468.624 50.4091L468.533 52.9091ZM476.533 52.9091H477.624L477.533 50.4091L479.646 51.75L480.192 50.7955L477.964 49.6364L480.192 48.4773L479.646 47.5227L477.533 48.8636L477.624 46.3636H476.533L476.624 48.8636L474.51 47.5227L473.964 48.4773L476.192 49.6364L473.964 50.7955L474.51 51.75L476.624 50.4091L476.533 52.9091Z" fill="#718EBF"/>
<path d="M299.773 49.2727H301.136C301.074 47.517 299.455 46.2045 297.205 46.2045C294.977 46.2045 293.227 47.5 293.227 49.4545C293.227 51.0227 294.364 51.9545 296.182 52.4773L297.614 52.8864C298.841 53.2273 299.932 53.6591 299.932 54.8182C299.932 56.0909 298.705 56.9318 297.091 56.9318C295.705 56.9318 294.477 56.3182 294.364 55H292.909C293.045 56.9091 294.591 58.2045 297.091 58.2045C299.773 58.2045 301.295 56.7273 301.295 54.8409C301.295 52.6591 299.227 51.9545 298.023 51.6364L296.841 51.3182C295.977 51.0909 294.591 50.6364 294.591 49.3864C294.591 48.2727 295.614 47.4545 297.159 47.4545C298.568 47.4545 299.636 48.125 299.773 49.2727ZM304.771 52.75C304.771 51.2273 305.743 50.3636 307.067 50.3636C308.328 50.3636 309.089 51.1591 309.089 52.5455V58H310.43V52.4545C310.43 50.2102 309.237 49.1591 307.453 49.1591C306.078 49.1591 305.294 49.733 304.885 50.6364H304.771V46.3636H303.43V58H304.771V52.75ZM316.429 58.1818C318.793 58.1818 320.384 56.3864 320.384 53.6818C320.384 50.9545 318.793 49.1591 316.429 49.1591C314.065 49.1591 312.474 50.9545 312.474 53.6818C312.474 56.3864 314.065 58.1818 316.429 58.1818ZM316.429 56.9773C314.634 56.9773 313.815 55.4318 313.815 53.6818C313.815 51.9318 314.634 50.3636 316.429 50.3636C318.224 50.3636 319.043 51.9318 319.043 53.6818C319.043 55.4318 318.224 56.9773 316.429 56.9773ZM322.43 61.2727H323.771V56.6591H323.885C324.18 57.1364 324.749 58.1818 326.43 58.1818C328.612 58.1818 330.135 56.4318 330.135 53.6591C330.135 50.9091 328.612 49.1591 326.408 49.1591C324.703 49.1591 324.18 50.2045 323.885 50.6591H323.726V49.2727H322.43V61.2727ZM323.749 53.6364C323.749 51.6818 324.612 50.3636 326.249 50.3636C327.953 50.3636 328.794 51.7955 328.794 53.6364C328.794 55.5 327.93 56.9773 326.249 56.9773C324.635 56.9773 323.749 55.6136 323.749 53.6364ZM332.18 61.2727H333.521V56.6591H333.635C333.93 57.1364 334.499 58.1818 336.18 58.1818C338.362 58.1818 339.885 56.4318 339.885 53.6591C339.885 50.9091 338.362 49.1591 336.158 49.1591C334.453 49.1591 333.93 50.2045 333.635 50.6591H333.476V49.2727H332.18V61.2727ZM333.499 53.6364C333.499 51.6818 334.362 50.3636 335.999 50.3636C337.703 50.3636 338.544 51.7955 338.544 53.6364C338.544 55.5 337.68 56.9773 335.999 56.9773C334.385 56.9773 333.499 55.6136 333.499 53.6364ZM341.93 58H343.271V49.2727H341.93V58ZM342.612 47.8182C343.135 47.8182 343.567 47.4091 343.567 46.9091C343.567 46.4091 343.135 46 342.612 46C342.089 46 341.658 46.4091 341.658 46.9091C341.658 47.4091 342.089 47.8182 342.612 47.8182ZM347.068 52.75C347.068 51.2273 348.011 50.3636 349.295 50.3636C350.54 50.3636 351.295 51.1761 351.295 52.5455V58H352.636V52.4545C352.636 50.2273 351.449 49.1591 349.682 49.1591C348.364 49.1591 347.545 49.75 347.136 50.6364H347.023V49.2727H345.727V58H347.068V52.75ZM358.609 61.4545C360.7 61.4545 362.382 60.5 362.382 58.25V49.2727H361.087V50.6591H360.95C360.655 50.2045 360.109 49.1591 358.405 49.1591C356.2 49.1591 354.678 50.9091 354.678 53.5909C354.678 56.3182 356.268 57.8636 358.382 57.8636C360.087 57.8636 360.632 56.8636 360.928 56.3864H361.041V58.1591C361.041 59.6136 360.018 60.2727 358.609 60.2727C357.024 60.2727 356.467 59.4375 356.109 58.9545L355.041 59.7045C355.587 60.6193 356.661 61.4545 358.609 61.4545ZM358.564 56.6591C356.882 56.6591 356.018 55.3864 356.018 53.5682C356.018 51.7955 356.859 50.3636 358.564 50.3636C360.2 50.3636 361.064 51.6818 361.064 53.5682C361.064 55.5 360.178 56.6591 358.564 56.6591Z" fill="#718EBF"/>
<path d="M665.768 51.4489H660.609V52.9205H665.768V51.4489ZM671.516 59.4545H672.584L672.589 58.1761C674.993 58 676.368 56.625 676.368 54.7841C676.368 52.6875 674.499 51.875 673.021 51.5114L672.607 51.4034L672.618 47.7557C673.68 47.8977 674.408 48.4886 674.516 49.4205H676.209C676.163 47.6875 674.732 46.392 672.624 46.2216L672.629 44.9091H671.561L671.555 46.233C669.516 46.4375 668.021 47.7102 668.021 49.5455C668.021 51.1648 669.18 52.1136 671.05 52.6193L671.538 52.75L671.527 56.6193C670.419 56.483 669.561 55.8807 669.47 54.7841H667.709C667.817 56.7443 669.232 58.0057 671.521 58.1761L671.516 59.4545ZM672.595 56.6193L672.607 53.0455C673.76 53.3636 674.629 53.7841 674.629 54.767C674.629 55.7614 673.8 56.4602 672.595 56.6193ZM671.544 51.1193C670.697 50.8693 669.766 50.4205 669.771 49.4432C669.771 48.5909 670.447 47.9261 671.55 47.7614L671.544 51.1193ZM682.722 46.3636H681.011L678.108 48.2614V49.9432L680.892 48.125H680.96V58H682.722V46.3636ZM689.71 58.1591C692.051 58.1591 693.722 56.5057 693.716 54.2386C693.722 51.9886 692.153 50.3523 690.034 50.3523C689.17 50.3523 688.369 50.6818 687.915 51.125H687.847L688.216 47.8693H693.153V46.3636H686.756L686.102 52.2273L687.71 52.4659C688.148 52.0739 688.932 51.8068 689.636 51.8068C691.017 51.8182 692.017 52.8523 692.017 54.2727C692.017 55.6705 691.045 56.6818 689.71 56.6818C688.585 56.6818 687.693 55.9659 687.602 54.9659H685.898C685.966 56.8182 687.574 58.1591 689.71 58.1591ZM699.842 58.1932C702.53 58.1932 704.104 56 704.104 52.1875C704.104 48.4034 702.507 46.2045 699.842 46.2045C697.172 46.2045 695.581 48.3977 695.575 52.1875C695.575 55.9943 697.149 58.1875 699.842 58.1932ZM699.842 56.6761C698.268 56.6761 697.32 55.0966 697.32 52.1875C697.325 49.2898 698.274 47.6932 699.842 47.6932C701.405 47.6932 702.359 49.2898 702.359 52.1875C702.359 55.0966 701.411 56.6761 699.842 56.6761Z" fill="#FE5C73"/>
<rect x="25" y="25" width="55" height="55" rx="20" fill="#DCFAF8"/>
<g clip-path="url(#clip0_1_97)">
<path d="M64.3716 53.0971C63.938 53.0452 63.5444 53.355 63.4925 53.7888C62.8424 59.2356 58.2035 63.3432 52.7021 63.3432C47.754 63.3432 43.5046 60.0204 42.2264 55.3893L43.1727 55.909C43.5557 56.1194 44.0367 55.9793 44.2468 55.5966C44.4571 55.2136 44.3172 54.7326 43.9343 54.5223L41.5069 53.1891C41.1244 52.979 40.6438 53.1185 40.4333 53.5008L39.0982 55.9251C38.8875 56.3078 39.027 56.7888 39.4095 56.9996C39.8046 57.1843 40.2561 57.0935 40.4839 56.6883L40.7933 56.1266C42.3607 61.2681 47.1471 64.9252 52.7021 64.9252C59.0041 64.9252 64.3183 60.2182 65.0631 53.9762C65.1151 53.5424 64.8052 53.1488 64.3716 53.0971Z" fill="#16DBCC"/>
<path d="M65.5214 46.8098C65.1206 46.637 64.655 46.8218 64.482 47.223L64.2327 47.8006C63.4539 45.8962 62.2039 44.1921 60.5939 42.8727C58.3772 41.0557 55.5745 40.0552 52.702 40.0552C49.8295 40.0552 47.0268 41.0557 44.8099 42.8727C42.6237 44.6644 41.1002 47.1651 40.5201 49.9139C40.4299 50.3413 40.7035 50.7609 41.1309 50.8511C41.5577 50.9414 41.9779 50.668 42.0679 50.2406C42.5741 47.8426 43.9039 45.6606 45.8127 44.0961C47.7473 42.5104 50.1941 41.6372 52.702 41.6372C55.2097 41.6372 57.6565 42.5104 59.5912 44.0961C61.0782 45.3147 62.2136 46.9085 62.8823 48.687L61.8807 48.2563C61.4795 48.0839 61.0141 48.269 60.8415 48.6703C60.6689 49.0716 60.8543 49.5367 61.2556 49.7093L63.7999 50.8038C64.2329 50.9828 64.6546 50.7998 64.839 50.3903L65.9346 47.8492C66.1077 47.4482 65.9227 46.9828 65.5214 46.8098Z" fill="#16DBCC"/>
<path d="M57.5772 46.6711C57.8042 46.2132 57.839 45.6941 57.6756 45.2098C57.5123 44.7255 57.1701 44.3339 56.7122 44.1069C55.7667 43.6385 54.6167 44.0266 54.148 44.9719C54.0457 45.1787 53.9826 45.3979 53.9591 45.6208C53.3482 45.5645 52.7271 45.6214 52.1252 45.7946C50.9272 46.139 49.9081 46.914 49.256 47.9763L47.1201 51.455C46.8348 51.404 46.5398 51.4252 46.2576 51.5203C45.8161 51.6693 45.4592 51.9811 45.2525 52.3983L45.1116 52.6823C44.6848 53.5438 45.0383 54.5921 45.9 55.0189L50.5236 57.3099C50.0684 58.257 50.2723 59.3214 51.4539 59.9159C52.4898 60.3415 53.6429 59.9245 54.0908 59.0775L54.5796 59.3195C54.8239 59.4407 55.0871 59.5018 55.352 59.5018C55.5397 59.5018 55.7282 59.4712 55.9111 59.4094C56.3523 59.2606 56.7093 58.9488 56.9161 58.5314L57.0568 58.2474C57.2636 57.83 57.2956 57.3573 57.1466 56.9158C57.0515 56.6336 56.8896 56.386 56.6762 56.1899L58.1502 52.3834C58.6003 51.2208 58.5995 49.9406 58.148 48.7788C57.9212 48.195 57.5901 47.6665 57.1755 47.2143C57.3384 47.0606 57.4748 46.8779 57.5772 46.6711ZM55.8613 45.4871C56.0448 45.4871 56.1935 45.6358 56.1935 45.8191C56.1935 46.0027 56.0448 46.1512 55.8613 46.1512C55.6779 46.1512 55.5292 46.0025 55.5292 45.8191C55.5292 45.6358 55.6779 45.4871 55.8613 45.4871ZM52.4696 58.5195C52.3658 58.5547 52.2546 58.5471 52.1563 58.4985C52.0581 58.4499 51.9847 58.3658 51.9497 58.262C51.9223 58.1808 51.9213 58.0949 51.9454 58.0146L52.6692 58.3732C52.6196 58.441 52.5508 58.4923 52.4696 58.5195ZM56.6749 51.8122L55.0692 55.9584C54.8433 56.4707 55.0593 57.0771 55.5659 57.3284H55.5661C55.6487 57.3725 55.679 57.4632 55.6394 57.5451L55.4985 57.8292C55.4513 57.9116 55.3673 57.9386 55.282 57.9021L46.6024 53.6015C46.5225 53.5619 46.4895 53.4647 46.5291 53.385L46.67 53.1009C46.7081 53.0307 46.782 52.9808 46.8867 53.0278C47.139 53.1528 47.4249 53.172 47.6919 53.0822C47.9438 52.9971 48.1504 52.8243 48.2779 52.5929L50.604 48.8041C51.0491 48.0791 51.7447 47.5501 52.5625 47.3148C53.3801 47.0796 54.2504 47.1581 55.0126 47.5359C55.0128 47.5359 55.0128 47.5359 55.013 47.5361C55.0132 47.5361 55.0132 47.5361 55.0134 47.5363C55.7758 47.9141 56.3653 48.5588 56.6735 49.3519C56.9816 50.1449 56.9821 51.0187 56.6749 51.8122Z" fill="#16DBCC"/>
</g>
<path d="M106.278 98.3636V110H107.949V101.574H108.057L111.489 109.983H112.875L116.307 101.58H116.415V110H118.085V98.3636H115.955L112.25 107.409H112.114L108.409 98.3636H106.278ZM124.178 110.176C126.638 110.176 128.246 108.375 128.246 105.676C128.246 102.96 126.638 101.159 124.178 101.159C121.717 101.159 120.109 102.96 120.109 105.676C120.109 108.375 121.717 110.176 124.178 110.176ZM124.183 108.75C122.575 108.75 121.825 107.347 121.825 105.67C121.825 104 122.575 102.58 124.183 102.58C125.78 102.58 126.53 104 126.53 105.67C126.53 107.347 125.78 108.75 124.183 108.75ZM130.278 110H131.938V108.642H132.08C132.386 109.199 133.011 110.17 134.602 110.17C136.716 110.17 138.25 108.477 138.25 105.653C138.25 102.824 136.693 101.159 134.585 101.159C132.966 101.159 132.381 102.148 132.08 102.688H131.977V98.3636H130.278V110ZM131.943 105.636C131.943 103.812 132.739 102.602 134.222 102.602C135.761 102.602 136.534 103.903 136.534 105.636C136.534 107.386 135.739 108.722 134.222 108.722C132.761 108.722 131.943 107.472 131.943 105.636ZM140.158 110H141.857V101.273H140.158V110ZM141.016 99.9261C141.601 99.9261 142.089 99.4716 142.089 98.9148C142.089 98.358 141.601 97.8977 141.016 97.8977C140.425 97.8977 139.942 98.358 139.942 98.9148C139.942 99.4716 140.425 99.9261 141.016 99.9261ZM145.841 98.3636H144.142V110H145.841V98.3636ZM151.888 110.176C153.791 110.176 155.138 109.239 155.524 107.818L153.916 107.528C153.609 108.352 152.871 108.773 151.905 108.773C150.45 108.773 149.473 107.83 149.428 106.148H155.632V105.545C155.632 102.392 153.746 101.159 151.768 101.159C149.337 101.159 147.734 103.011 147.734 105.693C147.734 108.403 149.314 110.176 151.888 110.176ZM149.433 104.875C149.501 103.636 150.399 102.562 151.78 102.562C153.098 102.562 153.962 103.54 153.967 104.875H149.433ZM168.234 101.42H169.928C169.876 99.5568 168.229 98.2045 165.865 98.2045C163.53 98.2045 161.74 99.5398 161.74 101.545C161.74 103.165 162.899 104.114 164.768 104.619L166.143 104.994C167.388 105.324 168.348 105.733 168.348 106.767C168.348 107.903 167.263 108.653 165.768 108.653C164.416 108.653 163.291 108.051 163.189 106.784H161.428C161.541 108.892 163.172 110.193 165.78 110.193C168.513 110.193 170.087 108.756 170.087 106.784C170.087 104.688 168.217 103.875 166.74 103.511L165.604 103.216C164.695 102.983 163.484 102.557 163.49 101.443C163.49 100.455 164.393 99.7216 165.825 99.7216C167.161 99.7216 168.109 100.347 168.234 101.42ZM175.81 110.176C177.713 110.176 179.06 109.239 179.446 107.818L177.838 107.528C177.531 108.352 176.793 108.773 175.827 108.773C174.372 108.773 173.395 107.83 173.349 106.148H179.554V105.545C179.554 102.392 177.668 101.159 175.69 101.159C173.259 101.159 171.656 103.011 171.656 105.693C171.656 108.403 173.236 110.176 175.81 110.176ZM173.355 104.875C173.423 103.636 174.321 102.562 175.702 102.562C177.02 102.562 177.884 103.54 177.889 104.875H173.355ZM181.439 110H183.138V104.67C183.138 103.528 184.018 102.705 185.223 102.705C185.575 102.705 185.973 102.767 186.109 102.807V101.182C185.939 101.159 185.604 101.142 185.388 101.142C184.365 101.142 183.49 101.722 183.172 102.659H183.081V101.273H181.439V110ZM195.311 101.273H193.487L191.283 107.989H191.192L188.982 101.273H187.158L190.328 110H192.146L195.311 101.273ZM196.908 110H198.607V101.273H196.908V110ZM197.766 99.9261C198.351 99.9261 198.839 99.4716 198.839 98.9148C198.839 98.358 198.351 97.8977 197.766 97.8977C197.175 97.8977 196.692 98.358 196.692 98.9148C196.692 99.4716 197.175 99.9261 197.766 99.9261ZM204.568 110.176C206.631 110.176 207.966 108.938 208.153 107.239H206.5C206.284 108.182 205.551 108.739 204.58 108.739C203.142 108.739 202.216 107.54 202.216 105.636C202.216 103.767 203.159 102.591 204.58 102.591C205.659 102.591 206.318 103.273 206.5 104.091H208.153C207.972 102.33 206.534 101.159 204.551 101.159C202.091 101.159 200.5 103.011 200.5 105.676C200.5 108.307 202.034 110.176 204.568 110.176ZM213.732 110.176C215.635 110.176 216.982 109.239 217.368 107.818L215.76 107.528C215.453 108.352 214.714 108.773 213.749 108.773C212.294 108.773 211.317 107.83 211.271 106.148H217.476V105.545C217.476 102.392 215.589 101.159 213.612 101.159C211.18 101.159 209.578 103.011 209.578 105.693C209.578 108.403 211.158 110.176 213.732 110.176ZM211.277 104.875C211.345 103.636 212.243 102.562 213.624 102.562C214.942 102.562 215.805 103.54 215.811 104.875H211.277Z" fill="#232323"/>
<path d="M106.129 135H113.011V133.828H107.94V133.743L110.391 131.122C112.266 129.114 112.82 128.176 112.82 126.967C112.82 125.284 111.456 123.942 109.538 123.942C107.626 123.942 106.172 125.241 106.172 127.159H107.429C107.429 125.918 108.233 125.092 109.496 125.092C110.678 125.092 111.584 125.817 111.584 126.967C111.584 127.974 110.993 128.72 109.73 130.099L106.129 134.041V135ZM118.62 135.149C120.698 135.149 122.221 133.615 122.221 131.527C122.221 129.412 120.751 127.862 118.748 127.862C118.013 127.862 117.299 128.123 116.852 128.48H116.788L117.172 125.263H121.731V124.091H116.064L115.403 129.46L116.639 129.609C117.092 129.284 117.864 129.05 118.535 129.055C119.925 129.066 120.943 130.121 120.943 131.548C120.943 132.949 119.963 133.977 118.62 133.977C117.502 133.977 116.612 133.258 116.511 132.273H115.233C115.312 133.935 116.745 135.149 118.62 135.149ZM132.924 124.091V131.889C132.924 133.248 132.274 133.977 131.134 133.977C130.095 133.977 129.344 133.37 129.344 132.443H128.045C128.045 134.121 129.344 135.149 131.134 135.149C133.03 135.149 134.245 133.983 134.245 131.889V124.091H132.924ZM139.13 135.192C140.557 135.192 141.303 134.425 141.559 133.892H141.622V135H142.88V129.609C142.88 127.01 140.898 126.712 139.854 126.712C138.618 126.712 137.212 127.138 136.573 128.629L137.766 129.055C138.043 128.459 138.698 127.82 139.897 127.82C141.052 127.82 141.622 128.432 141.622 129.482V129.524C141.622 130.131 141.005 130.078 139.513 130.27C137.995 130.467 136.338 130.803 136.338 132.678C136.338 134.276 137.574 135.192 139.13 135.192ZM139.321 134.062C138.32 134.062 137.595 133.615 137.595 132.741C137.595 131.783 138.469 131.484 139.449 131.357C139.982 131.293 141.409 131.143 141.622 130.888V132.038C141.622 133.061 140.813 134.062 139.321 134.062ZM146.431 130.078C146.431 128.651 147.315 127.841 148.519 127.841C149.686 127.841 150.394 128.603 150.394 129.886V135H151.651V129.801C151.651 127.713 150.538 126.712 148.881 126.712C147.646 126.712 146.879 127.266 146.495 128.097H146.388V126.818H145.174V135H146.431V130.078ZM158.146 135H165.028V133.828H159.957V133.743L162.407 131.122C164.282 129.114 164.836 128.176 164.836 126.967C164.836 125.284 163.473 123.942 161.555 123.942C159.643 123.942 158.188 125.241 158.188 127.159H159.446C159.446 125.918 160.25 125.092 161.512 125.092C162.695 125.092 163.6 125.817 163.6 126.967C163.6 127.974 163.009 128.72 161.747 130.099L158.146 134.041V135ZM170.786 135.149C173.194 135.149 174.579 133.109 174.579 129.545C174.579 126.009 173.172 123.942 170.786 123.942C168.4 123.942 166.994 126.009 166.994 129.545C166.994 133.109 168.378 135.149 170.786 135.149ZM170.786 133.977C169.199 133.977 168.272 132.385 168.272 129.545C168.272 126.712 169.209 125.092 170.786 125.092C172.363 125.092 173.3 126.712 173.3 129.545C173.3 132.385 172.373 133.977 170.786 133.977ZM176.603 135H183.485V133.828H178.414V133.743L180.864 131.122C182.739 129.114 183.293 128.176 183.293 126.967C183.293 125.284 181.93 123.942 180.012 123.942C178.1 123.942 176.646 125.241 176.646 127.159H177.903C177.903 125.918 178.707 125.092 179.969 125.092C181.152 125.092 182.057 125.817 182.057 126.967C182.057 127.974 181.466 128.72 180.204 130.099L176.603 134.041V135ZM189.52 124.091H188.199L185.472 125.902V127.244L188.135 125.476H188.199V135H189.52V124.091Z" fill="#718EBF"/>
<path d="M537.773 115C537.341 112.614 535.432 111.205 533.091 111.205C530.114 111.205 527.955 113.5 527.955 117.182C527.955 120.864 530.114 123.159 533.091 123.159C535.432 123.159 537.341 121.75 537.773 119.364H536.364C536.023 120.977 534.636 121.841 533.091 121.841C530.977 121.841 529.318 120.205 529.318 117.182C529.318 114.159 530.977 112.523 533.091 112.523C534.636 112.523 536.023 113.386 536.364 115H537.773ZM543.413 123.182C545.777 123.182 547.368 121.386 547.368 118.682C547.368 115.955 545.777 114.159 543.413 114.159C541.05 114.159 539.459 115.955 539.459 118.682C539.459 121.386 541.05 123.182 543.413 123.182ZM543.413 121.977C541.618 121.977 540.8 120.432 540.8 118.682C540.8 116.932 541.618 115.364 543.413 115.364C545.209 115.364 546.027 116.932 546.027 118.682C546.027 120.432 545.209 121.977 543.413 121.977ZM549.415 123H550.756V117.545C550.756 116.267 551.688 115.364 552.733 115.364C553.75 115.364 554.46 116.028 554.46 117.023V123H555.824V117.318C555.824 116.193 556.528 115.364 557.756 115.364C558.71 115.364 559.528 115.869 559.528 117.159V123H560.869V117.159C560.869 115.108 559.767 114.159 558.21 114.159C556.96 114.159 556.045 114.733 555.597 115.636H555.506C555.074 114.705 554.312 114.159 553.165 114.159C552.028 114.159 551.188 114.705 550.824 115.636H550.71V114.273H549.415V123ZM563.321 126.273H564.662V121.659H564.776C565.071 122.136 565.639 123.182 567.321 123.182C569.503 123.182 571.026 121.432 571.026 118.659C571.026 115.909 569.503 114.159 567.298 114.159C565.594 114.159 565.071 115.205 564.776 115.659H564.616V114.273H563.321V126.273ZM564.639 118.636C564.639 116.682 565.503 115.364 567.139 115.364C568.844 115.364 569.685 116.795 569.685 118.636C569.685 120.5 568.821 121.977 567.139 121.977C565.526 121.977 564.639 120.614 564.639 118.636ZM574.412 111.364H573.071V123H574.412V111.364ZM580.527 123.182C582.3 123.182 583.595 122.295 584.004 120.977L582.709 120.614C582.368 121.523 581.578 121.977 580.527 121.977C578.953 121.977 577.868 120.96 577.805 119.091H584.141V118.523C584.141 115.273 582.209 114.159 580.391 114.159C578.027 114.159 576.459 116.023 576.459 118.705C576.459 121.386 578.004 123.182 580.527 123.182ZM577.805 117.932C577.896 116.574 578.857 115.364 580.391 115.364C581.845 115.364 582.777 116.455 582.777 117.932H577.805ZM589.976 114.273H588.112V112.182H586.771V114.273H585.453V115.409H586.771V120.864C586.771 122.386 587.999 123.114 589.135 123.114C589.635 123.114 589.953 123.023 590.135 122.955L589.862 121.75C589.749 121.773 589.567 121.818 589.271 121.818C588.68 121.818 588.112 121.636 588.112 120.5V115.409H589.976V114.273ZM595.558 123.182C597.331 123.182 598.626 122.295 599.036 120.977L597.74 120.614C597.399 121.523 596.609 121.977 595.558 121.977C593.984 121.977 592.899 120.96 592.837 119.091H599.172V118.523C599.172 115.273 597.24 114.159 595.422 114.159C593.058 114.159 591.49 116.023 591.49 118.705C591.49 121.386 593.036 123.182 595.558 123.182ZM592.837 117.932C592.928 116.574 593.888 115.364 595.422 115.364C596.876 115.364 597.808 116.455 597.808 117.932H592.837ZM604.507 123.182C606.189 123.182 606.757 122.136 607.053 121.659H607.212V123H608.507V111.364H607.166V115.659H607.053C606.757 115.205 606.234 114.159 604.53 114.159C602.325 114.159 600.803 115.909 600.803 118.659C600.803 121.432 602.325 123.182 604.507 123.182ZM604.689 121.977C603.007 121.977 602.143 120.5 602.143 118.636C602.143 116.795 602.984 115.364 604.689 115.364C606.325 115.364 607.189 116.682 607.189 118.636C607.189 120.614 606.303 121.977 604.689 121.977Z" fill="#718EBF"/>
<path d="M412.295 111.364H410.886L407.977 113.295V114.727L410.818 112.841H410.886V123H412.295V111.364ZM415.642 123H422.983V121.75H417.574V121.659L420.188 118.864C422.188 116.722 422.778 115.722 422.778 114.432C422.778 112.636 421.324 111.205 419.278 111.205C417.239 111.205 415.688 112.591 415.688 114.636H417.028C417.028 113.312 417.886 112.432 419.233 112.432C420.494 112.432 421.46 113.205 421.46 114.432C421.46 115.506 420.83 116.301 419.483 117.773L415.642 121.977V123ZM429.261 123.159C431.517 123.159 433.193 121.744 433.193 119.841C433.193 118.364 432.318 117.29 430.852 117.045V116.955C432.028 116.597 432.761 115.631 432.761 114.318C432.761 112.67 431.46 111.205 429.307 111.205C427.295 111.205 425.625 112.443 425.557 114.273H426.92C426.972 113.114 428.074 112.432 429.284 112.432C430.568 112.432 431.398 113.21 431.398 114.386C431.398 115.614 430.438 116.409 429.057 116.409H428.125V117.659H429.057C430.824 117.659 431.807 118.557 431.807 119.841C431.807 121.074 430.733 121.909 429.239 121.909C427.892 121.909 426.824 121.216 426.739 120.091H425.307C425.392 121.92 427.006 123.159 429.261 123.159ZM435.244 120.614H440.722V123H442.062V120.614H443.653V119.364H442.062V111.364H440.358L435.244 119.455V120.614ZM440.722 119.364H436.767V119.273L440.631 113.159H440.722V119.364ZM452.533 117.909H453.624L453.533 115.409L455.646 116.75L456.192 115.795L453.964 114.636L456.192 113.477L455.646 112.523L453.533 113.864L453.624 111.364H452.533L452.624 113.864L450.51 112.523L449.964 113.477L452.192 114.636L449.964 115.795L450.51 116.75L452.624 115.409L452.533 117.909ZM460.533 117.909H461.624L461.533 115.409L463.646 116.75L464.192 115.795L461.964 114.636L464.192 113.477L463.646 112.523L461.533 113.864L461.624 111.364H460.533L460.624 113.864L458.51 112.523L457.964 113.477L460.192 114.636L457.964 115.795L458.51 116.75L460.624 115.409L460.533 117.909ZM468.533 117.909H469.624L469.533 115.409L471.646 116.75L472.192 115.795L469.964 114.636L472.192 113.477L471.646 112.523L469.533 113.864L469.624 111.364H468.533L468.624 113.864L466.51 112.523L465.964 113.477L468.192 114.636L465.964 115.795L466.51 116.75L468.624 115.409L468.533 117.909ZM476.533 117.909H477.624L477.533 115.409L479.646 116.75L480.192 115.795L477.964 114.636L480.192 113.477L479.646 112.523L477.533 113.864L477.624 111.364H476.533L476.624 113.864L474.51 112.523L473.964 113.477L476.192 114.636L473.964 115.795L474.51 116.75L476.624 115.409L476.533 117.909Z" fill="#718EBF"/>
<path d="M299.773 114.273H301.136C301.074 112.517 299.455 111.205 297.205 111.205C294.977 111.205 293.227 112.5 293.227 114.455C293.227 116.023 294.364 116.955 296.182 117.477L297.614 117.886C298.841 118.227 299.932 118.659 299.932 119.818C299.932 121.091 298.705 121.932 297.091 121.932C295.705 121.932 294.477 121.318 294.364 120H292.909C293.045 121.909 294.591 123.205 297.091 123.205C299.773 123.205 301.295 121.727 301.295 119.841C301.295 117.659 299.227 116.955 298.023 116.636L296.841 116.318C295.977 116.091 294.591 115.636 294.591 114.386C294.591 113.273 295.614 112.455 297.159 112.455C298.568 112.455 299.636 113.125 299.773 114.273ZM307.089 123.182C308.862 123.182 310.158 122.295 310.567 120.977L309.271 120.614C308.93 121.523 308.141 121.977 307.089 121.977C305.516 121.977 304.43 120.96 304.368 119.091H310.703V118.523C310.703 115.273 308.771 114.159 306.953 114.159C304.589 114.159 303.021 116.023 303.021 118.705C303.021 121.386 304.567 123.182 307.089 123.182ZM304.368 117.932C304.459 116.574 305.419 115.364 306.953 115.364C308.408 115.364 309.339 116.455 309.339 117.932H304.368ZM312.743 123H314.084V117.477C314.084 116.295 315.016 115.432 316.288 115.432C316.646 115.432 317.016 115.5 317.107 115.523V114.159C316.953 114.148 316.601 114.136 316.402 114.136C315.357 114.136 314.447 114.727 314.129 115.591H314.038V114.273H312.743V123ZM326.098 114.273H324.643L322.234 121.227H322.143L319.734 114.273H318.28L321.507 123H322.871L326.098 114.273ZM327.868 123H329.209V114.273H327.868V123ZM328.55 112.818C329.072 112.818 329.504 112.409 329.504 111.909C329.504 111.409 329.072 111 328.55 111C328.027 111 327.595 111.409 327.595 111.909C327.595 112.409 328.027 112.818 328.55 112.818ZM335.21 123.182C337.142 123.182 338.415 122 338.642 120.455H337.301C337.051 121.409 336.256 121.977 335.21 121.977C333.619 121.977 332.597 120.659 332.597 118.636C332.597 116.659 333.642 115.364 335.21 115.364C336.392 115.364 337.097 116.091 337.301 116.886H338.642C338.415 115.25 337.028 114.159 335.188 114.159C332.824 114.159 331.256 116.023 331.256 118.682C331.256 121.295 332.756 123.182 335.21 123.182ZM344.261 123.182C346.034 123.182 347.33 122.295 347.739 120.977L346.443 120.614C346.102 121.523 345.312 121.977 344.261 121.977C342.688 121.977 341.602 120.96 341.54 119.091H347.875V118.523C347.875 115.273 345.943 114.159 344.125 114.159C341.761 114.159 340.193 116.023 340.193 118.705C340.193 121.386 341.739 123.182 344.261 123.182ZM341.54 117.932C341.631 116.574 342.591 115.364 344.125 115.364C345.58 115.364 346.511 116.455 346.511 117.932H341.54Z" fill="#718EBF"/>
<path d="M662.472 116.449H657.312V117.92H662.472V116.449ZM668.219 124.455H669.287L669.293 123.176C671.696 123 673.071 121.625 673.071 119.784C673.071 117.688 671.202 116.875 669.724 116.511L669.31 116.403L669.321 112.756C670.384 112.898 671.111 113.489 671.219 114.42H672.912C672.866 112.688 671.435 111.392 669.327 111.222L669.332 109.909H668.264L668.259 111.233C666.219 111.438 664.724 112.71 664.724 114.545C664.724 116.165 665.884 117.114 667.753 117.619L668.241 117.75L668.23 121.619C667.122 121.483 666.264 120.881 666.173 119.784H664.412C664.52 121.744 665.935 123.006 668.224 123.176L668.219 124.455ZM669.298 121.619L669.31 118.045C670.463 118.364 671.332 118.784 671.332 119.767C671.332 120.761 670.503 121.46 669.298 121.619ZM668.247 116.119C667.401 115.869 666.469 115.42 666.474 114.443C666.474 113.591 667.151 112.926 668.253 112.761L668.247 116.119ZM679.061 123.159C681.436 123.159 683.18 121.739 683.175 119.807C683.18 118.335 682.288 117.278 680.743 117.04V116.949C681.959 116.636 682.749 115.682 682.743 114.375C682.749 112.665 681.345 111.205 679.107 111.205C676.97 111.205 675.254 112.494 675.197 114.386H676.896C676.936 113.318 677.942 112.67 679.084 112.67C680.271 112.67 681.05 113.392 681.044 114.466C681.05 115.591 680.146 116.33 678.857 116.33H677.874V117.761H678.857C680.47 117.761 681.402 118.58 681.402 119.75C681.402 120.881 680.419 121.648 679.05 121.648C677.788 121.648 676.805 121 676.737 119.966H674.953C675.027 121.864 676.709 123.159 679.061 123.159ZM685.078 120.727H690.595V123H692.271V120.727H693.811V119.239H692.271V111.364H690.107L685.078 119.307V120.727ZM690.607 119.239H686.919V119.148L690.516 113.455H690.607V119.239ZM699.842 123.193C702.53 123.193 704.104 121 704.104 117.188C704.104 113.403 702.507 111.205 699.842 111.205C697.172 111.205 695.581 113.398 695.575 117.188C695.575 120.994 697.149 123.188 699.842 123.193ZM699.842 121.676C698.268 121.676 697.32 120.097 697.32 117.188C697.325 114.29 698.274 112.693 699.842 112.693C701.405 112.693 702.359 114.29 702.359 117.188C702.359 120.097 701.411 121.676 699.842 121.676Z" fill="#FE5C73"/>
<rect x="25" y="90" width="55" height="55" rx="20" fill="#E7EDFF"/>
<g clip-path="url(#clip1_1_97)">
<path d="M44.209 126.523C44.6135 126.523 44.9414 126.195 44.9414 125.79C44.9414 125.386 44.6135 125.058 44.209 125.058C43.8045 125.058 43.4766 125.386 43.4766 125.79C43.4766 126.195 43.8045 126.523 44.209 126.523Z" fill="#396AFF"/>
<path d="M59.8336 117.037C61.127 116.846 62.3005 116.256 63.2274 115.329C64.1098 114.447 64.6905 113.333 64.9069 112.108C65.1182 110.911 64.9696 109.695 64.4772 108.589C64.2683 108.12 63.6529 108.006 63.2902 108.369L60.2898 111.369C60.1659 111.493 59.9645 111.493 59.8406 111.369L58.6308 110.159C58.5072 110.036 58.5072 109.834 58.6308 109.711L61.6315 106.71C61.9947 106.347 61.8803 105.732 61.4116 105.523C60.3057 105.031 59.0887 104.882 57.8922 105.093C56.6672 105.31 55.5533 105.891 54.6709 106.773C53.7441 107.7 53.1535 108.873 52.9632 110.167C52.8062 111.234 52.9315 112.302 53.3254 113.289L51.1283 115.093L46.2219 110.187L47.0851 109.324C47.3944 109.015 47.3652 108.504 47.0219 108.232L43.701 105.602C43.4096 105.371 42.9913 105.395 42.7284 105.658L40.6568 107.729C40.3939 107.992 40.3696 108.411 40.6005 108.702L43.2309 112.023C43.5028 112.366 44.0133 112.396 44.323 112.086L45.1861 111.223L49.991 116.027L40.9719 123.436C39.7711 124.386 39.6675 126.172 40.7498 127.255L42.7449 129.25C43.8271 130.332 45.6138 130.228 46.5638 129.028L53.9725 120.009L54.7168 120.753L53.6462 121.824C53.3711 122.099 53.3591 122.541 53.6189 122.83L59.2002 129.053C60.2979 130.271 62.1914 130.322 63.3521 129.161L64.1606 128.352C65.3237 127.189 65.2686 125.282 64.0393 124.188C64.0387 124.188 64.0382 124.188 64.0378 124.187L57.7867 118.656C57.4968 118.399 57.0572 118.413 56.7834 118.686L55.7525 119.717L54.9067 118.872L56.7115 116.675C57.6982 117.068 58.7661 117.194 59.8336 117.037ZM43.8686 110.469L42.1538 108.304L43.3028 107.155L45.4678 108.87L43.8686 110.469ZM57.332 120.209L63.0661 125.283C63.3565 125.542 63.5227 125.898 63.534 126.287C63.5454 126.676 63.4001 127.042 63.1249 127.317L62.3164 128.125C62.0424 128.399 61.6782 128.545 61.2913 128.534C60.9041 128.524 60.548 128.36 60.2897 128.074L55.1726 122.369L57.332 120.209ZM55.9371 115.31L53.3517 118.457C53.3513 118.457 53.351 118.458 53.3506 118.458L45.4273 128.103C45.4239 128.108 45.4205 128.112 45.4172 128.116C45.0112 128.633 44.2466 128.68 43.7807 128.214L41.7856 126.219C41.3208 125.754 41.3654 124.989 41.8836 124.582C41.8878 124.579 41.8919 124.576 41.8961 124.572L51.5419 116.649C51.5421 116.649 51.5424 116.649 51.5427 116.648L54.6902 114.063C54.9575 113.844 55.0347 113.467 54.8756 113.16C53.9525 111.379 54.2865 109.229 55.7066 107.809C56.5813 106.934 57.7653 106.469 58.9626 106.469C59.2206 106.469 59.4792 106.491 59.7355 106.535L57.5949 108.675C56.9003 109.37 56.9003 110.5 57.595 111.195L58.8048 112.405C59.4997 113.1 60.6306 113.1 61.3255 112.405L63.4656 110.265C63.7122 111.71 63.2546 113.23 62.1916 114.293C60.7713 115.713 58.6208 116.047 56.84 115.124C56.5331 114.965 56.1565 115.042 55.9371 115.31Z" fill="#396AFF"/>
</g>
<path d="M106.278 175H113.642V173.489H108.034V169.926H113.193V168.42H108.034V164.875H113.574V163.364H106.278V175ZM115.783 175H117.482V169.619C117.482 168.443 118.305 167.625 119.271 167.625C120.214 167.625 120.868 168.25 120.868 169.199V175H122.561V169.438C122.561 168.386 123.203 167.625 124.311 167.625C125.209 167.625 125.947 168.125 125.947 169.307V175H127.646V169.148C127.646 167.153 126.533 166.159 124.953 166.159C123.697 166.159 122.754 166.761 122.334 167.693H122.243C121.862 166.739 121.061 166.159 119.896 166.159C118.743 166.159 117.885 166.733 117.521 167.693H117.413V166.273H115.783V175ZM129.923 175H131.622V166.273H129.923V175ZM130.781 164.926C131.366 164.926 131.855 164.472 131.855 163.915C131.855 163.358 131.366 162.898 130.781 162.898C130.19 162.898 129.707 163.358 129.707 163.915C129.707 164.472 130.19 164.926 130.781 164.926ZM135.607 163.364H133.908V175H135.607V163.364ZM139.591 163.364H137.892V175H139.591V163.364ZM142.95 178.273C144.354 178.273 145.24 177.54 145.746 176.165L149.354 166.29L147.518 166.273L145.308 173.045H145.217L143.007 166.273H141.189L144.382 175.114L144.172 175.693C143.74 176.852 143.132 176.949 142.2 176.693L141.791 178.085C141.996 178.176 142.439 178.273 142.95 178.273ZM157.604 175H159.376L161.825 166.284H161.916L164.365 175H166.132L169.365 163.364H167.513L165.251 172.381H165.143L162.786 163.364H160.956L158.598 172.375H158.49L156.223 163.364H154.376L157.604 175ZM170.83 175H172.528V166.273H170.83V175ZM171.688 164.926C172.273 164.926 172.761 164.472 172.761 163.915C172.761 163.358 172.273 162.898 171.688 162.898C171.097 162.898 170.614 163.358 170.614 163.915C170.614 164.472 171.097 164.926 171.688 164.926ZM176.513 163.364H174.814V175H176.513V163.364ZM185.338 168.403C184.986 167.045 183.923 166.159 182.037 166.159C180.065 166.159 178.668 167.199 178.668 168.744C178.668 169.983 179.418 170.807 181.054 171.17L182.531 171.494C183.372 171.682 183.764 172.057 183.764 172.602C183.764 173.278 183.043 173.807 181.929 173.807C180.912 173.807 180.259 173.369 180.054 172.511L178.412 172.761C178.696 174.307 179.98 175.176 181.94 175.176C184.048 175.176 185.509 174.057 185.509 172.477C185.509 171.244 184.724 170.483 183.122 170.114L181.736 169.795C180.776 169.568 180.361 169.244 180.366 168.653C180.361 167.983 181.088 167.506 182.054 167.506C183.111 167.506 183.599 168.091 183.798 168.676L185.338 168.403ZM191.053 175.176C193.513 175.176 195.121 173.375 195.121 170.676C195.121 167.96 193.513 166.159 191.053 166.159C188.592 166.159 186.984 167.96 186.984 170.676C186.984 173.375 188.592 175.176 191.053 175.176ZM191.058 173.75C189.45 173.75 188.7 172.347 188.7 170.67C188.7 169 189.45 167.58 191.058 167.58C192.655 167.58 193.405 169 193.405 170.67C193.405 172.347 192.655 173.75 191.058 173.75ZM198.716 169.818C198.716 168.426 199.568 167.631 200.75 167.631C201.903 167.631 202.602 168.386 202.602 169.653V175H204.301V169.449C204.301 167.29 203.114 166.159 201.33 166.159C200.017 166.159 199.159 166.767 198.756 167.693H198.648V166.273H197.017V175H198.716V169.818Z" fill="#232323"/>
<path d="M106.129 200H113.011V198.828H107.94V198.743L110.391 196.122C112.266 194.114 112.82 193.176 112.82 191.967C112.82 190.284 111.456 188.942 109.538 188.942C107.626 188.942 106.172 190.241 106.172 192.159H107.429C107.429 190.918 108.233 190.092 109.496 190.092C110.678 190.092 111.584 190.817 111.584 191.967C111.584 192.974 110.993 193.72 109.73 195.099L106.129 199.041V200ZM118.62 200.149C120.698 200.149 122.221 198.615 122.221 196.527C122.221 194.412 120.751 192.862 118.748 192.862C118.013 192.862 117.299 193.123 116.852 193.48H116.788L117.172 190.263H121.731V189.091H116.064L115.403 194.46L116.639 194.609C117.092 194.284 117.864 194.05 118.535 194.055C119.925 194.066 120.943 195.121 120.943 196.548C120.943 197.949 119.963 198.977 118.62 198.977C117.502 198.977 116.612 198.258 116.511 197.273H115.233C115.312 198.935 116.745 200.149 118.62 200.149ZM132.924 189.091V196.889C132.924 198.248 132.274 198.977 131.134 198.977C130.095 198.977 129.344 198.37 129.344 197.443H128.045C128.045 199.121 129.344 200.149 131.134 200.149C133.03 200.149 134.245 198.983 134.245 196.889V189.091H132.924ZM139.13 200.192C140.557 200.192 141.303 199.425 141.559 198.892H141.622V200H142.88V194.609C142.88 192.01 140.898 191.712 139.854 191.712C138.618 191.712 137.212 192.138 136.573 193.629L137.766 194.055C138.043 193.459 138.698 192.82 139.897 192.82C141.052 192.82 141.622 193.432 141.622 194.482V194.524C141.622 195.131 141.005 195.078 139.513 195.27C137.995 195.467 136.338 195.803 136.338 197.678C136.338 199.276 137.574 200.192 139.13 200.192ZM139.321 199.062C138.32 199.062 137.595 198.615 137.595 197.741C137.595 196.783 138.469 196.484 139.449 196.357C139.982 196.293 141.409 196.143 141.622 195.888V197.038C141.622 198.061 140.813 199.062 139.321 199.062ZM146.431 195.078C146.431 193.651 147.315 192.841 148.519 192.841C149.686 192.841 150.394 193.603 150.394 194.886V200H151.651V194.801C151.651 192.713 150.538 191.712 148.881 191.712C147.646 191.712 146.879 192.266 146.495 193.097H146.388V191.818H145.174V200H146.431V195.078ZM158.146 200H165.028V198.828H159.957V198.743L162.407 196.122C164.282 194.114 164.836 193.176 164.836 191.967C164.836 190.284 163.473 188.942 161.555 188.942C159.643 188.942 158.188 190.241 158.188 192.159H159.446C159.446 190.918 160.25 190.092 161.512 190.092C162.695 190.092 163.6 190.817 163.6 191.967C163.6 192.974 163.009 193.72 161.747 195.099L158.146 199.041V200ZM170.786 200.149C173.194 200.149 174.579 198.109 174.579 194.545C174.579 191.009 173.172 188.942 170.786 188.942C168.4 188.942 166.994 191.009 166.994 194.545C166.994 198.109 168.378 200.149 170.786 200.149ZM170.786 198.977C169.199 198.977 168.272 197.385 168.272 194.545C168.272 191.712 169.209 190.092 170.786 190.092C172.363 190.092 173.3 191.712 173.3 194.545C173.3 197.385 172.373 198.977 170.786 198.977ZM176.603 200H183.485V198.828H178.414V198.743L180.864 196.122C182.739 194.114 183.293 193.176 183.293 191.967C183.293 190.284 181.93 188.942 180.012 188.942C178.1 188.942 176.646 190.241 176.646 192.159H177.903C177.903 190.918 178.707 190.092 179.969 190.092C181.152 190.092 182.057 190.817 182.057 191.967C182.057 192.974 181.466 193.72 180.204 195.099L176.603 199.041V200ZM189.52 189.091H188.199L185.472 190.902V192.244L188.135 190.476H188.199V200H189.52V189.091Z" fill="#718EBF"/>
<path d="M537.773 180C537.341 177.614 535.432 176.205 533.091 176.205C530.114 176.205 527.955 178.5 527.955 182.182C527.955 185.864 530.114 188.159 533.091 188.159C535.432 188.159 537.341 186.75 537.773 184.364H536.364C536.023 185.977 534.636 186.841 533.091 186.841C530.977 186.841 529.318 185.205 529.318 182.182C529.318 179.159 530.977 177.523 533.091 177.523C534.636 177.523 536.023 178.386 536.364 180H537.773ZM543.413 188.182C545.777 188.182 547.368 186.386 547.368 183.682C547.368 180.955 545.777 179.159 543.413 179.159C541.05 179.159 539.459 180.955 539.459 183.682C539.459 186.386 541.05 188.182 543.413 188.182ZM543.413 186.977C541.618 186.977 540.8 185.432 540.8 183.682C540.8 181.932 541.618 180.364 543.413 180.364C545.209 180.364 546.027 181.932 546.027 183.682C546.027 185.432 545.209 186.977 543.413 186.977ZM549.415 188H550.756V182.545C550.756 181.267 551.688 180.364 552.733 180.364C553.75 180.364 554.46 181.028 554.46 182.023V188H555.824V182.318C555.824 181.193 556.528 180.364 557.756 180.364C558.71 180.364 559.528 180.869 559.528 182.159V188H560.869V182.159C560.869 180.108 559.767 179.159 558.21 179.159C556.96 179.159 556.045 179.733 555.597 180.636H555.506C555.074 179.705 554.312 179.159 553.165 179.159C552.028 179.159 551.188 179.705 550.824 180.636H550.71V179.273H549.415V188ZM563.321 191.273H564.662V186.659H564.776C565.071 187.136 565.639 188.182 567.321 188.182C569.503 188.182 571.026 186.432 571.026 183.659C571.026 180.909 569.503 179.159 567.298 179.159C565.594 179.159 565.071 180.205 564.776 180.659H564.616V179.273H563.321V191.273ZM564.639 183.636C564.639 181.682 565.503 180.364 567.139 180.364C568.844 180.364 569.685 181.795 569.685 183.636C569.685 185.5 568.821 186.977 567.139 186.977C565.526 186.977 564.639 185.614 564.639 183.636ZM574.412 176.364H573.071V188H574.412V176.364ZM580.527 188.182C582.3 188.182 583.595 187.295 584.004 185.977L582.709 185.614C582.368 186.523 581.578 186.977 580.527 186.977C578.953 186.977 577.868 185.96 577.805 184.091H584.141V183.523C584.141 180.273 582.209 179.159 580.391 179.159C578.027 179.159 576.459 181.023 576.459 183.705C576.459 186.386 578.004 188.182 580.527 188.182ZM577.805 182.932C577.896 181.574 578.857 180.364 580.391 180.364C581.845 180.364 582.777 181.455 582.777 182.932H577.805ZM589.976 179.273H588.112V177.182H586.771V179.273H585.453V180.409H586.771V185.864C586.771 187.386 587.999 188.114 589.135 188.114C589.635 188.114 589.953 188.023 590.135 187.955L589.862 186.75C589.749 186.773 589.567 186.818 589.271 186.818C588.68 186.818 588.112 186.636 588.112 185.5V180.409H589.976V179.273ZM595.558 188.182C597.331 188.182 598.626 187.295 599.036 185.977L597.74 185.614C597.399 186.523 596.609 186.977 595.558 186.977C593.984 186.977 592.899 185.96 592.837 184.091H599.172V183.523C599.172 180.273 597.24 179.159 595.422 179.159C593.058 179.159 591.49 181.023 591.49 183.705C591.49 186.386 593.036 188.182 595.558 188.182ZM592.837 182.932C592.928 181.574 593.888 180.364 595.422 180.364C596.876 180.364 597.808 181.455 597.808 182.932H592.837ZM604.507 188.182C606.189 188.182 606.757 187.136 607.053 186.659H607.212V188H608.507V176.364H607.166V180.659H607.053C606.757 180.205 606.234 179.159 604.53 179.159C602.325 179.159 600.803 180.909 600.803 183.659C600.803 186.432 602.325 188.182 604.507 188.182ZM604.689 186.977C603.007 186.977 602.143 185.5 602.143 183.636C602.143 181.795 602.984 180.364 604.689 180.364C606.325 180.364 607.189 181.682 607.189 183.636C607.189 185.614 606.303 186.977 604.689 186.977Z" fill="#718EBF"/>
<path d="M412.295 176.364H410.886L407.977 178.295V179.727L410.818 177.841H410.886V188H412.295V176.364ZM415.642 188H422.983V186.75H417.574V186.659L420.188 183.864C422.188 181.722 422.778 180.722 422.778 179.432C422.778 177.636 421.324 176.205 419.278 176.205C417.239 176.205 415.688 177.591 415.688 179.636H417.028C417.028 178.312 417.886 177.432 419.233 177.432C420.494 177.432 421.46 178.205 421.46 179.432C421.46 180.506 420.83 181.301 419.483 182.773L415.642 186.977V188ZM429.261 188.159C431.517 188.159 433.193 186.744 433.193 184.841C433.193 183.364 432.318 182.29 430.852 182.045V181.955C432.028 181.597 432.761 180.631 432.761 179.318C432.761 177.67 431.46 176.205 429.307 176.205C427.295 176.205 425.625 177.443 425.557 179.273H426.92C426.972 178.114 428.074 177.432 429.284 177.432C430.568 177.432 431.398 178.21 431.398 179.386C431.398 180.614 430.438 181.409 429.057 181.409H428.125V182.659H429.057C430.824 182.659 431.807 183.557 431.807 184.841C431.807 186.074 430.733 186.909 429.239 186.909C427.892 186.909 426.824 186.216 426.739 185.091H425.307C425.392 186.92 427.006 188.159 429.261 188.159ZM435.244 185.614H440.722V188H442.062V185.614H443.653V184.364H442.062V176.364H440.358L435.244 184.455V185.614ZM440.722 184.364H436.767V184.273L440.631 178.159H440.722V184.364ZM452.533 182.909H453.624L453.533 180.409L455.646 181.75L456.192 180.795L453.964 179.636L456.192 178.477L455.646 177.523L453.533 178.864L453.624 176.364H452.533L452.624 178.864L450.51 177.523L449.964 178.477L452.192 179.636L449.964 180.795L450.51 181.75L452.624 180.409L452.533 182.909ZM460.533 182.909H461.624L461.533 180.409L463.646 181.75L464.192 180.795L461.964 179.636L464.192 178.477L463.646 177.523L461.533 178.864L461.624 176.364H460.533L460.624 178.864L458.51 177.523L457.964 178.477L460.192 179.636L457.964 180.795L458.51 181.75L460.624 180.409L460.533 182.909ZM468.533 182.909H469.624L469.533 180.409L471.646 181.75L472.192 180.795L469.964 179.636L472.192 178.477L471.646 177.523L469.533 178.864L469.624 176.364H468.533L468.624 178.864L466.51 177.523L465.964 178.477L468.192 179.636L465.964 180.795L466.51 181.75L468.624 180.409L468.533 182.909ZM476.533 182.909H477.624L477.533 180.409L479.646 181.75L480.192 180.795L477.964 179.636L480.192 178.477L479.646 177.523L477.533 178.864L477.624 176.364H476.533L476.624 178.864L474.51 177.523L473.964 178.477L476.192 179.636L473.964 180.795L474.51 181.75L476.624 180.409L476.533 182.909Z" fill="#718EBF"/>
<path d="M292.773 177.614H296.432V188H297.841V177.614H301.5V176.364H292.773V177.614ZM302.587 188H303.928V182.477C303.928 181.295 304.859 180.432 306.132 180.432C306.49 180.432 306.859 180.5 306.95 180.523V179.159C306.797 179.148 306.445 179.136 306.246 179.136C305.2 179.136 304.291 179.727 303.973 180.591H303.882V179.273H302.587V188ZM311.108 188.205C312.631 188.205 313.426 187.386 313.699 186.818H313.767V188H315.108V182.25C315.108 179.477 312.994 179.159 311.881 179.159C310.562 179.159 309.062 179.614 308.381 181.205L309.653 181.659C309.949 181.023 310.648 180.341 311.926 180.341C313.159 180.341 313.767 180.994 313.767 182.114V182.159C313.767 182.807 313.108 182.75 311.517 182.955C309.898 183.165 308.131 183.523 308.131 185.523C308.131 187.227 309.449 188.205 311.108 188.205ZM311.312 187C310.244 187 309.472 186.523 309.472 185.591C309.472 184.568 310.403 184.25 311.449 184.114C312.017 184.045 313.54 183.886 313.767 183.614V184.841C313.767 185.932 312.903 187 311.312 187ZM318.896 182.75C318.896 181.227 319.839 180.364 321.124 180.364C322.368 180.364 323.124 181.176 323.124 182.545V188H324.464V182.455C324.464 180.227 323.277 179.159 321.51 179.159C320.192 179.159 319.374 179.75 318.964 180.636H318.851V179.273H317.555V188H318.896V182.75ZM333.097 181.227C332.676 179.989 331.733 179.159 330.006 179.159C328.165 179.159 326.801 180.205 326.801 181.682C326.801 182.886 327.517 183.693 329.119 184.068L330.574 184.409C331.455 184.614 331.869 185.034 331.869 185.636C331.869 186.386 331.074 187 329.824 187C328.727 187 328.04 186.528 327.801 185.591L326.528 185.909C326.841 187.392 328.062 188.182 329.847 188.182C331.875 188.182 333.256 187.074 333.256 185.568C333.256 184.352 332.494 183.585 330.938 183.205L329.642 182.886C328.608 182.631 328.142 182.284 328.142 181.614C328.142 180.864 328.938 180.318 330.006 180.318C331.176 180.318 331.659 180.966 331.892 181.568L333.097 181.227ZM339.161 179.273H337.206V178.386C337.206 177.523 337.57 177.068 338.456 177.068C338.842 177.068 339.07 177.159 339.206 177.205L339.592 176.045C339.388 175.955 338.979 175.818 338.32 175.818C337.07 175.818 335.865 176.568 335.865 178.068V179.273H334.456V180.409H335.865V188H337.206V180.409H339.161V179.273ZM344.339 188.182C346.112 188.182 347.408 187.295 347.817 185.977L346.521 185.614C346.18 186.523 345.391 186.977 344.339 186.977C342.766 186.977 341.68 185.96 341.618 184.091H347.953V183.523C347.953 180.273 346.021 179.159 344.203 179.159C341.839 179.159 340.271 181.023 340.271 183.705C340.271 186.386 341.817 188.182 344.339 188.182ZM341.618 182.932C341.709 181.574 342.669 180.364 344.203 180.364C345.658 180.364 346.589 181.455 346.589 182.932H341.618ZM349.993 188H351.334V182.477C351.334 181.295 352.266 180.432 353.538 180.432C353.896 180.432 354.266 180.5 354.357 180.523V179.159C354.203 179.148 353.851 179.136 353.652 179.136C352.607 179.136 351.697 179.727 351.379 180.591H351.288V179.273H349.993V188Z" fill="#718EBF"/>
<path d="M659.141 186.045H660.669V182.966H663.749V181.438H660.669V178.364H659.141V181.438H656.067V182.966H659.141V186.045ZM669.859 189.455H670.928L670.933 188.176C673.337 188 674.712 186.625 674.712 184.784C674.712 182.688 672.842 181.875 671.365 181.511L670.95 181.403L670.962 177.756C672.024 177.898 672.751 178.489 672.859 179.42H674.553C674.507 177.688 673.075 176.392 670.967 176.222L670.973 174.909H669.905L669.899 176.233C667.859 176.438 666.365 177.71 666.365 179.545C666.365 181.165 667.524 182.114 669.393 182.619L669.882 182.75L669.871 186.619C668.763 186.483 667.905 185.881 667.814 184.784H666.053C666.161 186.744 667.575 188.006 669.865 188.176L669.859 189.455ZM670.939 186.619L670.95 183.045C672.104 183.364 672.973 183.784 672.973 184.767C672.973 185.761 672.143 186.46 670.939 186.619ZM669.888 181.119C669.041 180.869 668.109 180.42 668.115 179.443C668.115 178.591 668.791 177.926 669.893 177.761L669.888 181.119ZM677.043 188H678.878L683.94 177.92V176.364H676.247V177.869H682.122V177.955L677.043 188ZM689.614 188.159C692.034 188.159 693.744 186.784 693.756 184.898C693.744 183.432 692.716 182.199 691.415 181.966V181.898C692.545 181.625 693.312 180.562 693.324 179.307C693.312 177.528 691.744 176.205 689.614 176.205C687.46 176.205 685.892 177.528 685.903 179.307C685.892 180.557 686.659 181.625 687.812 181.898V181.966C686.489 182.199 685.46 183.432 685.472 184.898C685.46 186.784 687.17 188.159 689.614 188.159ZM689.614 186.722C688.159 186.722 687.239 185.949 687.25 184.784C687.239 183.574 688.239 182.71 689.614 182.71C690.966 182.71 691.966 183.574 691.977 184.784C691.966 185.949 691.051 186.722 689.614 186.722ZM689.614 181.307C688.438 181.307 687.602 180.562 687.614 179.455C687.602 178.364 688.409 177.642 689.614 177.642C690.795 177.642 691.602 178.364 691.614 179.455C691.602 180.562 690.773 181.307 689.614 181.307ZM699.842 188.193C702.53 188.193 704.104 186 704.104 182.188C704.104 178.403 702.507 176.205 699.842 176.205C697.172 176.205 695.581 178.398 695.575 182.188C695.575 185.994 697.149 188.188 699.842 188.193ZM699.842 186.676C698.268 186.676 697.32 185.097 697.32 182.188C697.325 179.29 698.274 177.693 699.842 177.693C701.405 177.693 702.359 179.29 702.359 182.188C702.359 185.097 701.411 186.676 699.842 186.676Z" fill="#16DBAA"/>
<rect x="25" y="155" width="55" height="55" rx="20" fill="#FFE0EB"/>
<g clip-path="url(#clip2_1_97)">
<path d="M61.3389 186.161C59.9774 184.8 58.3569 183.792 56.5888 183.182C58.4825 181.877 59.7266 179.695 59.7266 177.227C59.7266 173.242 56.4847 170 52.5 170C48.5153 170 45.2734 173.242 45.2734 177.227C45.2734 179.695 46.5175 181.877 48.4112 183.182C46.6432 183.792 45.0227 184.8 43.6612 186.161C41.3002 188.522 40 191.661 40 195H41.9531C41.9531 189.184 46.6844 184.453 52.5 184.453C58.3156 184.453 63.0469 189.184 63.0469 195H65C65 191.661 63.6998 188.522 61.3389 186.161ZM52.5 182.5C49.5922 182.5 47.2266 180.134 47.2266 177.227C47.2266 174.319 49.5922 171.953 52.5 171.953C55.4078 171.953 57.7734 174.319 57.7734 177.227C57.7734 180.134 55.4078 182.5 52.5 182.5Z" fill="#FF82AC"/>
</g>
<defs>
<clipPath id="clip0_1_97">
<rect width="27" height="27" fill="white" transform="translate(39 39)"/>
</clipPath>
<clipPath id="clip1_1_97">
<rect width="25" height="25" fill="white" transform="translate(40 105)"/>
</clipPath>
<clipPath id="clip2_1_97">
<rect width="25" height="25" fill="white" transform="translate(40 170)"/>
</clipPath>
</defs>
</svg>
