<svg width="325" height="199" viewBox="0 0 325 199" fill="none" xmlns="http://www.w3.org/2000/svg">
<rect width="325" height="199" rx="15" fill="white"/>
<path d="M83.6719 31.4929H85.1534C85.1087 29.8622 83.6669 28.679 81.5987 28.679C79.5554 28.679 77.9893 29.8473 77.9893 31.6023C77.9893 33.0192 79.0036 33.8494 80.6392 34.2919L81.8423 34.62C82.9311 34.9084 83.7713 35.2663 83.7713 36.1712C83.7713 37.1655 82.8217 37.8217 81.5142 37.8217C80.331 37.8217 79.3466 37.2947 79.2571 36.1861H77.7159C77.8153 38.0305 79.2422 39.169 81.5241 39.169C83.9155 39.169 85.2926 37.9112 85.2926 36.1861C85.2926 34.3516 83.657 33.6406 82.3643 33.3224L81.37 33.0639C80.5746 32.8601 79.5156 32.4872 79.5206 31.5128C79.5206 30.6477 80.3111 30.0064 81.5639 30.0064C82.7322 30.0064 83.5625 30.5533 83.6719 31.4929ZM87.0091 41.8636H88.4956V37.8118H88.585C88.8535 38.299 89.4004 39.1491 90.7924 39.1491C92.6419 39.1491 93.9842 37.6676 93.9842 35.1967C93.9842 32.7209 92.622 31.2642 90.7775 31.2642C89.3606 31.2642 88.8485 32.1293 88.585 32.6016H88.4608V31.3636H87.0091V41.8636ZM88.4657 35.1818C88.4657 33.5859 89.1618 32.527 90.4593 32.527C91.8066 32.527 92.4828 33.6655 92.4828 35.1818C92.4828 36.7131 91.7868 37.8814 90.4593 37.8814C89.1816 37.8814 88.4657 36.7876 88.4657 35.1818ZM98.8663 39.1541C101.019 39.1541 102.426 37.5781 102.426 35.2166C102.426 32.8402 101.019 31.2642 98.8663 31.2642C96.7136 31.2642 95.3066 32.8402 95.3066 35.2166C95.3066 37.5781 96.7136 39.1541 98.8663 39.1541ZM98.8713 37.9062C97.4643 37.9062 96.8081 36.6783 96.8081 35.2116C96.8081 33.75 97.4643 32.5071 98.8713 32.5071C100.268 32.5071 100.925 33.75 100.925 35.2116C100.925 36.6783 100.268 37.9062 98.8713 37.9062ZM107.65 31.3636H106.084V29.5341H104.597V31.3636H103.479V32.5568H104.597V37.0661C104.592 38.4531 105.651 39.1243 106.825 39.0994C107.297 39.0945 107.615 39.005 107.789 38.9403L107.521 37.7124C107.421 37.7322 107.237 37.777 106.999 37.777C106.516 37.777 106.084 37.6179 106.084 36.7578V32.5568H107.65V31.3636ZM109.294 39H110.781V31.3636H109.294V39ZM110.045 30.1854C110.557 30.1854 110.985 29.7876 110.985 29.3004C110.985 28.8132 110.557 28.4105 110.045 28.4105C109.528 28.4105 109.105 28.8132 109.105 29.3004C109.105 29.7876 109.528 30.1854 110.045 30.1854ZM116.415 31.3636H114.769V30.6776C114.769 30.0014 115.048 29.6335 115.773 29.6335C116.082 29.6335 116.3 29.7031 116.44 29.7479L116.788 28.5447C116.579 28.4652 116.146 28.3409 115.545 28.3409C114.337 28.3409 113.278 29.0469 113.278 30.4787V31.3636H112.099V32.5568H113.278V39H114.769V32.5568H116.415V31.3636ZM118.888 41.8636C120.116 41.8636 120.892 41.2223 121.334 40.0192L124.491 31.3786L122.885 31.3636L120.951 37.2898H120.872L118.938 31.3636H117.347L120.141 39.0994L119.957 39.6065C119.579 40.6207 119.047 40.7053 118.232 40.4815L117.874 41.6996C118.053 41.7791 118.441 41.8636 118.888 41.8636ZM135.27 31.4929H136.751C136.706 29.8622 135.265 28.679 133.196 28.679C131.153 28.679 129.587 29.8473 129.587 31.6023C129.587 33.0192 130.601 33.8494 132.237 34.2919L133.44 34.62C134.529 34.9084 135.369 35.2663 135.369 36.1712C135.369 37.1655 134.419 37.8217 133.112 37.8217C131.929 37.8217 130.944 37.2947 130.855 36.1861H129.314C129.413 38.0305 130.84 39.169 133.122 39.169C135.513 39.169 136.89 37.9112 136.89 36.1861C136.89 34.3516 135.255 33.6406 133.962 33.3224L132.968 33.0639C132.172 32.8601 131.113 32.4872 131.118 31.5128C131.118 30.6477 131.909 30.0064 133.162 30.0064C134.33 30.0064 135.16 30.5533 135.27 31.4929ZM143.444 35.8331C143.449 37.1307 142.485 37.7472 141.649 37.7472C140.73 37.7472 140.093 37.081 140.093 36.0419V31.3636H138.607V36.2209C138.607 38.1151 139.646 39.0994 141.112 39.0994C142.261 39.0994 143.041 38.4929 143.394 37.6776H143.474V39H144.936V31.3636H143.444V35.8331ZM147.052 39H148.504V37.8118H148.628C148.897 38.299 149.444 39.1491 150.836 39.1491C152.685 39.1491 154.027 37.6676 154.027 35.1967C154.027 32.7209 152.665 31.2642 150.821 31.2642C149.404 31.2642 148.892 32.1293 148.628 32.6016H148.539V28.8182H147.052V39ZM148.509 35.1818C148.509 33.5859 149.205 32.527 150.502 32.527C151.85 32.527 152.526 33.6655 152.526 35.1818C152.526 36.7131 151.83 37.8814 150.502 37.8814C149.225 37.8814 148.509 36.7876 148.509 35.1818ZM161.419 33.228C161.111 32.0398 160.181 31.2642 158.53 31.2642C156.805 31.2642 155.582 32.174 155.582 33.5263C155.582 34.6101 156.238 35.331 157.67 35.6491L158.963 35.9325C159.699 36.0966 160.042 36.4247 160.042 36.902C160.042 37.4936 159.41 37.956 158.436 37.956C157.546 37.956 156.974 37.5732 156.795 36.8224L155.358 37.0412C155.607 38.3935 156.731 39.1541 158.446 39.1541C160.29 39.1541 161.568 38.1747 161.568 36.7926C161.568 35.7138 160.882 35.0476 159.48 34.7244L158.267 34.446C157.427 34.2472 157.064 33.9638 157.069 33.4467C157.064 32.8601 157.7 32.4425 158.545 32.4425C159.47 32.4425 159.898 32.9545 160.072 33.4666L161.419 33.228ZM166.419 39.1541C168.224 39.1541 169.392 38.0703 169.556 36.5838H168.109C167.92 37.4091 167.279 37.8963 166.429 37.8963C165.171 37.8963 164.361 36.8473 164.361 35.1818C164.361 33.5462 165.186 32.517 166.429 32.517C167.374 32.517 167.95 33.1136 168.109 33.8295H169.556C169.397 32.2884 168.139 31.2642 166.404 31.2642C164.251 31.2642 162.859 32.8849 162.859 35.2166C162.859 37.5185 164.202 39.1541 166.419 39.1541ZM171.146 39H172.632V34.3366C172.632 33.3374 173.403 32.6165 174.457 32.6165C174.765 32.6165 175.113 32.6712 175.232 32.706V31.2841C175.083 31.2642 174.79 31.2493 174.601 31.2493C173.706 31.2493 172.941 31.7564 172.662 32.5767H172.583V31.3636H171.146V39ZM176.519 39H178.005V31.3636H176.519V39ZM177.27 30.1854C177.782 30.1854 178.209 29.7876 178.209 29.3004C178.209 28.8132 177.782 28.4105 177.27 28.4105C176.752 28.4105 176.33 28.8132 176.33 29.3004C176.33 29.7876 176.752 30.1854 177.27 30.1854ZM180.005 41.8636H181.492V37.8118H181.581C181.85 38.299 182.396 39.1491 183.789 39.1491C185.638 39.1491 186.98 37.6676 186.98 35.1967C186.98 32.7209 185.618 31.2642 183.774 31.2642C182.357 31.2642 181.845 32.1293 181.581 32.6016H181.457V31.3636H180.005V41.8636ZM181.462 35.1818C181.462 33.5859 182.158 32.527 183.455 32.527C184.803 32.527 185.479 33.6655 185.479 35.1818C185.479 36.7131 184.783 37.8814 183.455 37.8814C182.178 37.8814 181.462 36.7876 181.462 35.1818ZM192.21 31.3636H190.644V29.5341H189.158V31.3636H188.039V32.5568H189.158V37.0661C189.153 38.4531 190.212 39.1243 191.385 39.0994C191.857 39.0945 192.176 39.005 192.35 38.9403L192.081 37.7124C191.982 37.7322 191.798 37.777 191.559 37.777C191.077 37.777 190.644 37.6179 190.644 36.7578V32.5568H192.21V31.3636ZM193.855 39H195.341V31.3636H193.855V39ZM194.605 30.1854C195.118 30.1854 195.545 29.7876 195.545 29.3004C195.545 28.8132 195.118 28.4105 194.605 28.4105C194.088 28.4105 193.666 28.8132 193.666 29.3004C193.666 29.7876 194.088 30.1854 194.605 30.1854ZM200.558 39.1541C202.71 39.1541 204.117 37.5781 204.117 35.2166C204.117 32.8402 202.71 31.2642 200.558 31.2642C198.405 31.2642 196.998 32.8402 196.998 35.2166C196.998 37.5781 198.405 39.1541 200.558 39.1541ZM200.563 37.9062C199.156 37.9062 198.499 36.6783 198.499 35.2116C198.499 33.75 199.156 32.5071 200.563 32.5071C201.96 32.5071 202.616 33.75 202.616 35.2116C202.616 36.6783 201.96 37.9062 200.563 37.9062ZM207.263 34.4659C207.263 33.2479 208.009 32.5518 209.043 32.5518C210.052 32.5518 210.664 33.2131 210.664 34.3217V39H212.15V34.1428C212.15 32.2536 211.111 31.2642 209.55 31.2642C208.402 31.2642 207.651 31.7962 207.298 32.6065H207.203V31.3636H205.777V39H207.263V34.4659Z" fill="#333B69"/>
<path d="M77.9034 58H83.4091V57.0625H79.3523V56.9943L81.3125 54.8977C82.8125 53.2912 83.2557 52.5412 83.2557 51.5739C83.2557 50.2273 82.1648 49.1534 80.6307 49.1534C79.1009 49.1534 77.9375 50.1932 77.9375 51.7273H78.9432C78.9432 50.7344 79.5866 50.0739 80.5966 50.0739C81.5426 50.0739 82.267 50.6534 82.267 51.5739C82.267 52.3793 81.794 52.9759 80.7841 54.0795L77.9034 57.233V58ZM87.8963 58.1193C89.5582 58.1193 90.777 56.892 90.777 55.2216C90.777 53.5298 89.6009 52.2898 87.9986 52.2898C87.4105 52.2898 86.8395 52.4986 86.4815 52.7841H86.4304L86.7372 50.2102H90.3849V49.2727H85.8509L85.3224 53.5682L86.3111 53.6875C86.6733 53.4276 87.2912 53.2401 87.8281 53.2443C88.9403 53.2528 89.7543 54.0966 89.7543 55.2386C89.7543 56.3594 88.9702 57.1818 87.8963 57.1818C87.0014 57.1818 86.2898 56.6065 86.2088 55.8182H85.1861C85.25 57.1477 86.3963 58.1193 87.8963 58.1193ZM99.3391 49.2727V55.5114C99.3391 56.598 98.8192 57.1818 97.9073 57.1818C97.0763 57.1818 96.4755 56.696 96.4755 55.9545H95.4357C95.4357 57.2969 96.4755 58.1193 97.9073 58.1193C99.4244 58.1193 100.396 57.1861 100.396 55.5114V49.2727H99.3391ZM104.304 58.1534C105.446 58.1534 106.042 57.5398 106.247 57.1136H106.298V58H107.304V53.6875C107.304 51.608 105.718 51.3693 104.883 51.3693C103.895 51.3693 102.77 51.7102 102.258 52.9034L103.213 53.2443C103.434 52.767 103.958 52.2557 104.917 52.2557C105.842 52.2557 106.298 52.7457 106.298 53.5852V53.6193C106.298 54.1051 105.804 54.0625 104.61 54.2159C103.396 54.3736 102.071 54.642 102.071 56.142C102.071 57.4205 103.059 58.1534 104.304 58.1534ZM104.457 57.25C103.656 57.25 103.076 56.892 103.076 56.1932C103.076 55.4261 103.775 55.1875 104.559 55.0852C104.985 55.0341 106.127 54.9148 106.298 54.7102V55.6307C106.298 56.4489 105.65 57.25 104.457 57.25ZM110.145 54.0625C110.145 52.9205 110.852 52.2727 111.815 52.2727C112.749 52.2727 113.315 52.8821 113.315 53.9091V58H114.321V53.8409C114.321 52.1705 113.43 51.3693 112.105 51.3693C111.116 51.3693 110.503 51.8125 110.196 52.4773H110.111V51.4545H109.139V58H110.145V54.0625ZM119.517 58H125.022V57.0625H120.966V56.9943L122.926 54.8977C124.426 53.2912 124.869 52.5412 124.869 51.5739C124.869 50.2273 123.778 49.1534 122.244 49.1534C120.714 49.1534 119.551 50.1932 119.551 51.7273H120.556C120.556 50.7344 121.2 50.0739 122.21 50.0739C123.156 50.0739 123.88 50.6534 123.88 51.5739C123.88 52.3793 123.407 52.9759 122.397 54.0795L119.517 57.233V58ZM129.629 58.1193C131.555 58.1193 132.663 56.4872 132.663 53.6364C132.663 50.8068 131.538 49.1534 129.629 49.1534C127.72 49.1534 126.595 50.8068 126.595 53.6364C126.595 56.4872 127.703 58.1193 129.629 58.1193ZM129.629 57.1818C128.359 57.1818 127.618 55.9077 127.618 53.6364C127.618 51.3693 128.368 50.0739 129.629 50.0739C130.89 50.0739 131.64 51.3693 131.64 53.6364C131.64 55.9077 130.899 57.1818 129.629 57.1818ZM134.282 58H139.788V57.0625H135.731V56.9943L137.691 54.8977C139.191 53.2912 139.635 52.5412 139.635 51.5739C139.635 50.2273 138.544 49.1534 137.01 49.1534C135.48 49.1534 134.316 50.1932 134.316 51.7273H135.322C135.322 50.7344 135.966 50.0739 136.975 50.0739C137.922 50.0739 138.646 50.6534 138.646 51.5739C138.646 52.3793 138.173 52.9759 137.163 54.0795L134.282 57.233V58ZM144.616 49.2727H143.559L141.377 50.7216V51.7955L143.508 50.3807H143.559V58H144.616V49.2727Z" fill="#718EBF"/>
<rect x="20" y="20" width="45" height="45" rx="12" fill="#DCFAF8"/>
<g clip-path="url(#clip0_1_1442)">
<path d="M51.7938 43.4424C51.4726 43.4039 51.181 43.6334 51.1426 43.9548C50.661 47.9894 47.2248 51.0321 43.1497 51.0321C39.4844 51.0321 36.3367 48.5708 35.3899 45.1403L36.0909 45.5253C36.3746 45.6811 36.7309 45.5774 36.8865 45.2938C37.0423 45.0102 36.9387 44.6539 36.655 44.4981L34.857 43.5106C34.5736 43.3549 34.2176 43.4582 34.0617 43.7414L33.0728 45.5372C32.9167 45.8207 33.02 46.177 33.3033 46.3331C33.596 46.47 33.9305 46.4027 34.0992 46.1026L34.3284 45.6865C35.4894 49.495 39.0349 52.204 43.1497 52.204C47.8179 52.204 51.7543 48.7173 52.306 44.0936C52.3445 43.7723 52.115 43.4807 51.7938 43.4424Z" fill="#16DBCC"/>
<path d="M52.6455 38.7849C52.3486 38.6569 52.0037 38.7938 51.8755 39.091L51.6909 39.5189C51.114 38.1082 50.1881 36.8459 48.9955 35.8686C47.3535 34.5226 45.2774 33.7815 43.1496 33.7815C41.0218 33.7815 38.9457 34.5226 37.3036 35.8686C35.6842 37.1957 34.5557 39.0481 34.126 41.0842C34.0592 41.4009 34.2618 41.7117 34.5784 41.7785C34.8946 41.8453 35.2059 41.6429 35.2726 41.3262C35.6475 39.55 36.6325 37.9337 38.0464 36.7748C39.4795 35.6002 41.2919 34.9534 43.1496 34.9534C45.0072 34.9534 46.8196 35.6002 48.2527 36.7748C49.3542 37.6775 50.1953 38.858 50.6906 40.1754L49.9487 39.8564C49.6515 39.7287 49.3068 39.8658 49.1789 40.1631C49.051 40.4603 49.1884 40.8049 49.4856 40.9327L51.3703 41.7434C51.6911 41.876 52.0034 41.7405 52.14 41.4372L52.9516 39.5549C53.0797 39.2578 52.9427 38.9131 52.6455 38.7849Z" fill="#16DBCC"/>
<path d="M46.7609 38.6823C46.9291 38.3431 46.9549 37.9586 46.8339 37.5999C46.7129 37.2412 46.4594 36.9511 46.1202 36.783C45.4199 36.436 44.568 36.7234 44.2208 37.4237C44.145 37.5769 44.0983 37.7392 44.0809 37.9043C43.6283 37.8627 43.1683 37.9048 42.7224 38.0331C41.835 38.2882 41.0802 38.8622 40.5971 39.6491L39.0149 42.226C38.8036 42.1881 38.5851 42.2039 38.3761 42.2744C38.0491 42.3847 37.7846 42.6157 37.6316 42.9247L37.5272 43.1351C37.2111 43.7732 37.4729 44.5497 38.1112 44.8659L41.5361 46.5629C41.1989 47.2645 41.3499 48.0529 42.2252 48.4933C42.9925 48.8085 43.8467 48.4997 44.1784 47.8723L44.5405 48.0516C44.7215 48.1413 44.9165 48.1866 45.1127 48.1866C45.2517 48.1866 45.3913 48.1639 45.5268 48.1181C45.8537 48.0079 46.1181 47.7769 46.2713 47.4678L46.3755 47.2573C46.5287 46.9482 46.5523 46.598 46.442 46.271C46.3715 46.062 46.2516 45.8786 46.0935 45.7333L47.1854 42.9137C47.5188 42.0525 47.5182 41.1042 47.1837 40.2436C47.0157 39.8112 46.7705 39.4196 46.4634 39.0847C46.5841 38.9709 46.6851 38.8355 46.7609 38.6823ZM45.4899 37.8053C45.6258 37.8053 45.736 37.9154 45.736 38.0512C45.736 38.1872 45.6258 38.2972 45.4899 38.2972C45.3541 38.2972 45.2439 38.187 45.2439 38.0512C45.2439 37.9154 45.3541 37.8053 45.4899 37.8053ZM42.9776 47.4589C42.9007 47.485 42.8183 47.4794 42.7455 47.4433C42.6727 47.4073 42.6184 47.3451 42.5924 47.2682C42.5722 47.2081 42.5714 47.1444 42.5892 47.0849L43.1254 47.3506C43.0887 47.4008 43.0377 47.4388 42.9776 47.4589ZM46.0926 42.4906L44.9032 45.5618C44.7358 45.9413 44.8959 46.3905 45.2711 46.5767H45.2712C45.3324 46.6093 45.3549 46.6765 45.3256 46.7372L45.2212 46.9476C45.1862 47.0086 45.124 47.0286 45.0608 47.0016L38.6315 43.8159C38.5723 43.7866 38.5479 43.7146 38.5772 43.6556L38.6815 43.4451C38.7098 43.3931 38.7645 43.3562 38.842 43.391C39.029 43.4836 39.2408 43.4978 39.4385 43.4313C39.6251 43.3682 39.7782 43.2402 39.8726 43.0689L41.5956 40.2624C41.9253 39.7253 42.4406 39.3334 43.0464 39.1592C43.652 38.9849 44.2967 39.0431 44.8612 39.3229C44.8614 39.3229 44.8614 39.3229 44.8615 39.323C44.8617 39.323 44.8617 39.323 44.8618 39.3232C45.4266 39.603 45.8633 40.0806 46.0915 40.6681C46.3198 41.2555 46.3201 41.9028 46.0926 42.4906Z" fill="#16DBCC"/>
</g>
<path d="M275.576 42.0866H271.707V43.1903H275.576V42.0866ZM279.887 48.0909H280.688L280.692 47.1321C282.495 47 283.526 45.9688 283.526 44.5881C283.526 43.0156 282.124 42.4062 281.016 42.1335L280.705 42.0526L280.713 39.3168C281.51 39.4233 282.056 39.8665 282.137 40.5653H283.407C283.373 39.2656 282.299 38.294 280.718 38.1662L280.722 37.1818H279.921L279.917 38.1747C278.387 38.3281 277.266 39.2827 277.266 40.6591C277.266 41.8736 278.135 42.5852 279.537 42.9645L279.904 43.0625L279.895 45.9645C279.064 45.8622 278.421 45.4105 278.353 44.5881H277.032C277.113 46.0582 278.174 47.0043 279.891 47.1321L279.887 48.0909ZM280.696 45.9645L280.705 43.2841C281.57 43.5227 282.222 43.8381 282.222 44.5753C282.222 45.321 281.6 45.8452 280.696 45.9645ZM279.908 41.8395C279.273 41.652 278.574 41.3153 278.578 40.5824C278.578 39.9432 279.086 39.4446 279.912 39.321L279.908 41.8395ZM288.291 38.2727H287.009L284.831 39.696V40.9574L286.919 39.5938H286.97V47H288.291V38.2727ZM293.533 47.1193C295.288 47.1193 296.541 45.8793 296.537 44.179C296.541 42.4915 295.365 41.2642 293.776 41.2642C293.128 41.2642 292.527 41.5114 292.186 41.8438H292.135L292.412 39.402H296.115V38.2727H291.317L290.827 42.6705L292.033 42.8494C292.361 42.5554 292.949 42.3551 293.477 42.3551C294.513 42.3636 295.263 43.1392 295.263 44.2045C295.263 45.2528 294.534 46.0114 293.533 46.0114C292.689 46.0114 292.02 45.4744 291.952 44.7244H290.673C290.724 46.1136 291.93 47.1193 293.533 47.1193ZM301.132 47.1449C303.147 47.1449 304.328 45.5 304.328 42.6406C304.328 39.8026 303.13 38.1534 301.132 38.1534C299.129 38.1534 297.936 39.7983 297.931 42.6406C297.931 45.4957 299.112 47.1406 301.132 47.1449ZM301.132 46.0071C299.951 46.0071 299.24 44.8224 299.24 42.6406C299.244 40.4673 299.956 39.2699 301.132 39.2699C302.304 39.2699 303.02 40.4673 303.02 42.6406C303.02 44.8224 302.308 46.0071 301.132 46.0071Z" fill="#FE5C73"/>
<path d="M78.1186 85.8182V96H79.5803V88.6271H79.6747L82.6776 95.9851H83.8906L86.8935 88.6321H86.9879V96H88.4496V85.8182H86.5852L83.3438 93.733H83.2244L79.983 85.8182H78.1186ZM93.7804 96.1541C95.9331 96.1541 97.34 94.5781 97.34 92.2166C97.34 89.8402 95.9331 88.2642 93.7804 88.2642C91.6277 88.2642 90.2207 89.8402 90.2207 92.2166C90.2207 94.5781 91.6277 96.1541 93.7804 96.1541ZM93.7853 94.9062C92.3784 94.9062 91.7221 93.6783 91.7221 92.2116C91.7221 90.75 92.3784 89.5071 93.7853 89.5071C95.1824 89.5071 95.8386 90.75 95.8386 92.2116C95.8386 93.6783 95.1824 94.9062 93.7853 94.9062ZM99.1186 96H100.57V94.8118H100.695C100.963 95.299 101.51 96.1491 102.902 96.1491C104.751 96.1491 106.094 94.6676 106.094 92.1967C106.094 89.7209 104.732 88.2642 102.887 88.2642C101.47 88.2642 100.958 89.1293 100.695 89.6016H100.605V85.8182H99.1186V96ZM100.575 92.1818C100.575 90.5859 101.271 89.527 102.569 89.527C103.916 89.527 104.592 90.6655 104.592 92.1818C104.592 93.7131 103.896 94.8814 102.569 94.8814C101.291 94.8814 100.575 93.7876 100.575 92.1818ZM107.763 96H109.249V88.3636H107.763V96ZM108.514 87.1854C109.026 87.1854 109.453 86.7876 109.453 86.3004C109.453 85.8132 109.026 85.4105 108.514 85.4105C107.997 85.4105 107.574 85.8132 107.574 86.3004C107.574 86.7876 107.997 87.1854 108.514 87.1854ZM112.736 85.8182H111.249V96H112.736V85.8182ZM118.027 96.1541C119.692 96.1541 120.871 95.3338 121.209 94.0909L119.802 93.8374C119.533 94.5582 118.887 94.9261 118.042 94.9261C116.769 94.9261 115.914 94.1009 115.874 92.6293H121.303V92.1023C121.303 89.343 119.653 88.2642 117.922 88.2642C115.795 88.2642 114.393 89.8849 114.393 92.2315C114.393 94.603 115.775 96.1541 118.027 96.1541ZM115.879 91.5156C115.939 90.4318 116.724 89.4922 117.932 89.4922C119.086 89.4922 119.841 90.3473 119.846 91.5156H115.879ZM132.33 88.4929H133.812C133.767 86.8622 132.325 85.679 130.257 85.679C128.214 85.679 126.648 86.8473 126.648 88.6023C126.648 90.0192 127.662 90.8494 129.297 91.2919L130.501 91.62C131.589 91.9084 132.43 92.2663 132.43 93.1712C132.43 94.1655 131.48 94.8217 130.172 94.8217C128.989 94.8217 128.005 94.2947 127.915 93.1861H126.374C126.474 95.0305 127.9 96.169 130.182 96.169C132.574 96.169 133.951 94.9112 133.951 93.1861C133.951 91.3516 132.315 90.6406 131.023 90.3224L130.028 90.0639C129.233 89.8601 128.174 89.4872 128.179 88.5128C128.179 87.6477 128.969 87.0064 130.222 87.0064C131.39 87.0064 132.221 87.5533 132.33 88.4929ZM138.958 96.1541C140.624 96.1541 141.802 95.3338 142.14 94.0909L140.733 93.8374C140.465 94.5582 139.819 94.9261 138.973 94.9261C137.701 94.9261 136.846 94.1009 136.806 92.6293H142.235V92.1023C142.235 89.343 140.584 88.2642 138.854 88.2642C136.726 88.2642 135.324 89.8849 135.324 92.2315C135.324 94.603 136.706 96.1541 138.958 96.1541ZM136.811 91.5156C136.87 90.4318 137.656 89.4922 138.864 89.4922C140.017 89.4922 140.773 90.3473 140.778 91.5156H136.811ZM143.884 96H145.371V91.3366C145.371 90.3374 146.141 89.6165 147.195 89.6165C147.503 89.6165 147.851 89.6712 147.971 89.706V88.2841C147.822 88.2642 147.528 88.2493 147.339 88.2493C146.444 88.2493 145.679 88.7564 145.4 89.5767H145.321V88.3636H143.884V96ZM156.022 88.3636H154.426L152.497 94.2401H152.418L150.484 88.3636H148.888L151.662 96H153.253L156.022 88.3636ZM157.419 96H158.906V88.3636H157.419V96ZM158.17 87.1854C158.682 87.1854 159.11 86.7876 159.11 86.3004C159.11 85.8132 158.682 85.4105 158.17 85.4105C157.653 85.4105 157.23 85.8132 157.23 86.3004C157.23 86.7876 157.653 87.1854 158.17 87.1854ZM164.122 96.1541C165.927 96.1541 167.095 95.0703 167.259 93.5838H165.812C165.624 94.4091 164.982 94.8963 164.132 94.8963C162.874 94.8963 162.064 93.8473 162.064 92.1818C162.064 90.5462 162.889 89.517 164.132 89.517C165.077 89.517 165.653 90.1136 165.812 90.8295H167.259C167.1 89.2884 165.842 88.2642 164.107 88.2642C161.955 88.2642 160.562 89.8849 160.562 92.2166C160.562 94.5185 161.905 96.1541 164.122 96.1541ZM172.14 96.1541C173.806 96.1541 174.984 95.3338 175.322 94.0909L173.915 93.8374C173.646 94.5582 173 94.9261 172.155 94.9261C170.882 94.9261 170.027 94.1009 169.987 92.6293H175.416V92.1023C175.416 89.343 173.766 88.2642 172.036 88.2642C169.908 88.2642 168.506 89.8849 168.506 92.2315C168.506 94.603 169.888 96.1541 172.14 96.1541ZM169.992 91.5156C170.052 90.4318 170.838 89.4922 172.046 89.4922C173.199 89.4922 173.955 90.3473 173.96 91.5156H169.992Z" fill="#333B69"/>
<path d="M77.9034 115H83.4091V114.062H79.3523V113.994L81.3125 111.898C82.8125 110.291 83.2557 109.541 83.2557 108.574C83.2557 107.227 82.1648 106.153 80.6307 106.153C79.1009 106.153 77.9375 107.193 77.9375 108.727H78.9432C78.9432 107.734 79.5866 107.074 80.5966 107.074C81.5426 107.074 82.267 107.653 82.267 108.574C82.267 109.379 81.794 109.976 80.7841 111.08L77.9034 114.233V115ZM87.8963 115.119C89.5582 115.119 90.777 113.892 90.777 112.222C90.777 110.53 89.6009 109.29 87.9986 109.29C87.4105 109.29 86.8395 109.499 86.4815 109.784H86.4304L86.7372 107.21H90.3849V106.273H85.8509L85.3224 110.568L86.3111 110.688C86.6733 110.428 87.2912 110.24 87.8281 110.244C88.9403 110.253 89.7543 111.097 89.7543 112.239C89.7543 113.359 88.9702 114.182 87.8963 114.182C87.0014 114.182 86.2898 113.607 86.2088 112.818H85.1861C85.25 114.148 86.3963 115.119 87.8963 115.119ZM99.3391 106.273V112.511C99.3391 113.598 98.8192 114.182 97.9073 114.182C97.0763 114.182 96.4755 113.696 96.4755 112.955H95.4357C95.4357 114.297 96.4755 115.119 97.9073 115.119C99.4244 115.119 100.396 114.186 100.396 112.511V106.273H99.3391ZM104.304 115.153C105.446 115.153 106.042 114.54 106.247 114.114H106.298V115H107.304V110.688C107.304 108.608 105.718 108.369 104.883 108.369C103.895 108.369 102.77 108.71 102.258 109.903L103.213 110.244C103.434 109.767 103.958 109.256 104.917 109.256C105.842 109.256 106.298 109.746 106.298 110.585V110.619C106.298 111.105 105.804 111.062 104.61 111.216C103.396 111.374 102.071 111.642 102.071 113.142C102.071 114.42 103.059 115.153 104.304 115.153ZM104.457 114.25C103.656 114.25 103.076 113.892 103.076 113.193C103.076 112.426 103.775 112.188 104.559 112.085C104.985 112.034 106.127 111.915 106.298 111.71V112.631C106.298 113.449 105.65 114.25 104.457 114.25ZM110.145 111.062C110.145 109.92 110.852 109.273 111.815 109.273C112.749 109.273 113.315 109.882 113.315 110.909V115H114.321V110.841C114.321 109.17 113.43 108.369 112.105 108.369C111.116 108.369 110.503 108.812 110.196 109.477H110.111V108.455H109.139V115H110.145V111.062ZM119.517 115H125.022V114.062H120.966V113.994L122.926 111.898C124.426 110.291 124.869 109.541 124.869 108.574C124.869 107.227 123.778 106.153 122.244 106.153C120.714 106.153 119.551 107.193 119.551 108.727H120.556C120.556 107.734 121.2 107.074 122.21 107.074C123.156 107.074 123.88 107.653 123.88 108.574C123.88 109.379 123.407 109.976 122.397 111.08L119.517 114.233V115ZM129.629 115.119C131.555 115.119 132.663 113.487 132.663 110.636C132.663 107.807 131.538 106.153 129.629 106.153C127.72 106.153 126.595 107.807 126.595 110.636C126.595 113.487 127.703 115.119 129.629 115.119ZM129.629 114.182C128.359 114.182 127.618 112.908 127.618 110.636C127.618 108.369 128.368 107.074 129.629 107.074C130.89 107.074 131.64 108.369 131.64 110.636C131.64 112.908 130.899 114.182 129.629 114.182ZM134.282 115H139.788V114.062H135.731V113.994L137.691 111.898C139.191 110.291 139.635 109.541 139.635 108.574C139.635 107.227 138.544 106.153 137.01 106.153C135.48 106.153 134.316 107.193 134.316 108.727H135.322C135.322 107.734 135.966 107.074 136.975 107.074C137.922 107.074 138.646 107.653 138.646 108.574C138.646 109.379 138.173 109.976 137.163 111.08L134.282 114.233V115ZM144.616 106.273H143.559L141.377 107.722V108.795L143.508 107.381H143.559V115H144.616V106.273Z" fill="#718EBF"/>
<path d="M273.104 99.0866H269.234V100.19H273.104V99.0866ZM277.414 105.091H278.215L278.219 104.132C280.022 104 281.053 102.969 281.053 101.588C281.053 100.016 279.651 99.4062 278.543 99.1335L278.232 99.0526L278.241 96.3168C279.038 96.4233 279.583 96.8665 279.664 97.5653H280.934C280.9 96.2656 279.826 95.294 278.245 95.1662L278.249 94.1818H277.448L277.444 95.1747C275.914 95.3281 274.793 96.2827 274.793 97.6591C274.793 98.8736 275.663 99.5852 277.065 99.9645L277.431 100.062L277.423 102.964C276.592 102.862 275.948 102.411 275.88 101.588H274.559C274.64 103.058 275.701 104.004 277.418 104.132L277.414 105.091ZM278.224 102.964L278.232 100.284C279.097 100.523 279.749 100.838 279.749 101.575C279.749 102.321 279.127 102.845 278.224 102.964ZM277.435 98.8395C276.8 98.652 276.102 98.3153 276.106 97.5824C276.106 96.9432 276.613 96.4446 277.44 96.321L277.435 98.8395ZM285.546 104.119C287.327 104.119 288.635 103.054 288.631 101.605C288.635 100.501 287.966 99.7088 286.807 99.5298V99.4616C287.719 99.2273 288.311 98.5114 288.307 97.5312C288.311 96.2486 287.259 95.1534 285.58 95.1534C283.978 95.1534 282.691 96.1207 282.648 97.5398H283.922C283.952 96.7386 284.706 96.2528 285.563 96.2528C286.453 96.2528 287.037 96.794 287.033 97.5994C287.037 98.4432 286.36 98.9972 285.392 98.9972H284.655V100.071H285.392C286.603 100.071 287.301 100.685 287.301 101.562C287.301 102.411 286.564 102.986 285.537 102.986C284.591 102.986 283.854 102.5 283.803 101.724H282.465C282.52 103.148 283.782 104.119 285.546 104.119ZM290.059 102.295H294.196V104H295.453V102.295H296.608V101.179H295.453V95.2727H293.83L290.059 101.23V102.295ZM294.205 101.179H291.439V101.111L294.137 96.8409H294.205V101.179ZM301.132 104.145C303.147 104.145 304.328 102.5 304.328 99.6406C304.328 96.8026 303.13 95.1534 301.132 95.1534C299.129 95.1534 297.936 96.7983 297.931 99.6406C297.931 102.496 299.112 104.141 301.132 104.145ZM301.132 103.007C299.951 103.007 299.24 101.822 299.24 99.6406C299.244 97.4673 299.956 96.2699 301.132 96.2699C302.304 96.2699 303.02 97.4673 303.02 99.6406C303.02 101.822 302.308 103.007 301.132 103.007Z" fill="#FE5C73"/>
<path d="M78.1186 153H84.5618V151.678H79.6548V148.56H84.169V147.243H79.6548V144.141H84.5021V142.818H78.1186V153ZM86.4348 153H87.9213V148.292C87.9213 147.263 88.6422 146.547 89.4874 146.547C90.3127 146.547 90.8844 147.094 90.8844 147.924V153H92.3659V148.133C92.3659 147.213 92.9277 146.547 93.8972 146.547C94.6827 146.547 95.329 146.984 95.329 148.018V153H96.8155V147.879C96.8155 146.134 95.8411 145.264 94.459 145.264C93.3603 145.264 92.535 145.791 92.1671 146.607H92.0875C91.7544 145.771 91.0534 145.264 90.0343 145.264C89.025 145.264 88.2743 145.766 87.9561 146.607H87.8617V145.364H86.4348V153ZM98.8079 153H100.294V145.364H98.8079V153ZM99.5586 144.185C100.071 144.185 100.498 143.788 100.498 143.3C100.498 142.813 100.071 142.411 99.5586 142.411C99.0415 142.411 98.619 142.813 98.619 143.3C98.619 143.788 99.0415 144.185 99.5586 144.185ZM103.781 142.818H102.294V153H103.781V142.818ZM107.267 142.818H105.781V153H107.267V142.818ZM110.206 155.864C111.434 155.864 112.21 155.222 112.653 154.019L115.809 145.379L114.204 145.364L112.27 151.29H112.19L110.256 145.364H108.665L111.459 153.099L111.275 153.607C110.898 154.621 110.366 154.705 109.55 154.482L109.192 155.7C109.371 155.779 109.759 155.864 110.206 155.864ZM123.028 153H124.579L126.722 145.374H126.802L128.944 153H130.491L133.319 142.818H131.699L129.72 150.708H129.626L127.562 142.818H125.961L123.898 150.703H123.804L121.82 142.818H120.204L123.028 153ZM134.601 153H136.087V145.364H134.601V153ZM135.352 144.185C135.864 144.185 136.291 143.788 136.291 143.3C136.291 142.813 135.864 142.411 135.352 142.411C134.835 142.411 134.412 142.813 134.412 143.3C134.412 143.788 134.835 144.185 135.352 144.185ZM139.574 142.818H138.087V153H139.574V142.818ZM147.296 147.228C146.988 146.04 146.058 145.264 144.407 145.264C142.682 145.264 141.459 146.174 141.459 147.526C141.459 148.61 142.115 149.331 143.547 149.649L144.84 149.933C145.576 150.097 145.919 150.425 145.919 150.902C145.919 151.494 145.287 151.956 144.313 151.956C143.423 151.956 142.851 151.573 142.672 150.822L141.235 151.041C141.484 152.393 142.608 153.154 144.323 153.154C146.167 153.154 147.445 152.175 147.445 150.793C147.445 149.714 146.759 149.048 145.357 148.724L144.144 148.446C143.304 148.247 142.941 147.964 142.946 147.447C142.941 146.86 143.577 146.442 144.422 146.442C145.347 146.442 145.775 146.955 145.949 147.467L147.296 147.228ZM152.296 153.154C154.449 153.154 155.856 151.578 155.856 149.217C155.856 146.84 154.449 145.264 152.296 145.264C150.143 145.264 148.736 146.84 148.736 149.217C148.736 151.578 150.143 153.154 152.296 153.154ZM152.301 151.906C150.894 151.906 150.238 150.678 150.238 149.212C150.238 147.75 150.894 146.507 152.301 146.507C153.698 146.507 154.354 147.75 154.354 149.212C154.354 150.678 153.698 151.906 152.301 151.906ZM159.001 148.466C159.001 147.248 159.747 146.552 160.781 146.552C161.79 146.552 162.402 147.213 162.402 148.322V153H163.888V148.143C163.888 146.254 162.849 145.264 161.288 145.264C160.14 145.264 159.389 145.796 159.036 146.607H158.942V145.364H157.515V153H159.001V148.466Z" fill="#333B69"/>
<path d="M77.9034 172H83.4091V171.062H79.3523V170.994L81.3125 168.898C82.8125 167.291 83.2557 166.541 83.2557 165.574C83.2557 164.227 82.1648 163.153 80.6307 163.153C79.1009 163.153 77.9375 164.193 77.9375 165.727H78.9432C78.9432 164.734 79.5866 164.074 80.5966 164.074C81.5426 164.074 82.267 164.653 82.267 165.574C82.267 166.379 81.794 166.976 80.7841 168.08L77.9034 171.233V172ZM87.8963 172.119C89.5582 172.119 90.777 170.892 90.777 169.222C90.777 167.53 89.6009 166.29 87.9986 166.29C87.4105 166.29 86.8395 166.499 86.4815 166.784H86.4304L86.7372 164.21H90.3849V163.273H85.8509L85.3224 167.568L86.3111 167.688C86.6733 167.428 87.2912 167.24 87.8281 167.244C88.9403 167.253 89.7543 168.097 89.7543 169.239C89.7543 170.359 88.9702 171.182 87.8963 171.182C87.0014 171.182 86.2898 170.607 86.2088 169.818H85.1861C85.25 171.148 86.3963 172.119 87.8963 172.119ZM99.3391 163.273V169.511C99.3391 170.598 98.8192 171.182 97.9073 171.182C97.0763 171.182 96.4755 170.696 96.4755 169.955H95.4357C95.4357 171.297 96.4755 172.119 97.9073 172.119C99.4244 172.119 100.396 171.186 100.396 169.511V163.273H99.3391ZM104.304 172.153C105.446 172.153 106.042 171.54 106.247 171.114H106.298V172H107.304V167.688C107.304 165.608 105.718 165.369 104.883 165.369C103.895 165.369 102.77 165.71 102.258 166.903L103.213 167.244C103.434 166.767 103.958 166.256 104.917 166.256C105.842 166.256 106.298 166.746 106.298 167.585V167.619C106.298 168.105 105.804 168.062 104.61 168.216C103.396 168.374 102.071 168.642 102.071 170.142C102.071 171.42 103.059 172.153 104.304 172.153ZM104.457 171.25C103.656 171.25 103.076 170.892 103.076 170.193C103.076 169.426 103.775 169.188 104.559 169.085C104.985 169.034 106.127 168.915 106.298 168.71V169.631C106.298 170.449 105.65 171.25 104.457 171.25ZM110.145 168.062C110.145 166.92 110.852 166.273 111.815 166.273C112.749 166.273 113.315 166.882 113.315 167.909V172H114.321V167.841C114.321 166.17 113.43 165.369 112.105 165.369C111.116 165.369 110.503 165.812 110.196 166.477H110.111V165.455H109.139V172H110.145V168.062ZM119.517 172H125.022V171.062H120.966V170.994L122.926 168.898C124.426 167.291 124.869 166.541 124.869 165.574C124.869 164.227 123.778 163.153 122.244 163.153C120.714 163.153 119.551 164.193 119.551 165.727H120.556C120.556 164.734 121.2 164.074 122.21 164.074C123.156 164.074 123.88 164.653 123.88 165.574C123.88 166.379 123.407 166.976 122.397 168.08L119.517 171.233V172ZM129.629 172.119C131.555 172.119 132.663 170.487 132.663 167.636C132.663 164.807 131.538 163.153 129.629 163.153C127.72 163.153 126.595 164.807 126.595 167.636C126.595 170.487 127.703 172.119 129.629 172.119ZM129.629 171.182C128.359 171.182 127.618 169.908 127.618 167.636C127.618 165.369 128.368 164.074 129.629 164.074C130.89 164.074 131.64 165.369 131.64 167.636C131.64 169.908 130.899 171.182 129.629 171.182ZM134.282 172H139.788V171.062H135.731V170.994L137.691 168.898C139.191 167.291 139.635 166.541 139.635 165.574C139.635 164.227 138.544 163.153 137.01 163.153C135.48 163.153 134.316 164.193 134.316 165.727H135.322C135.322 164.734 135.966 164.074 136.975 164.074C137.922 164.074 138.646 164.653 138.646 165.574C138.646 166.379 138.173 166.976 137.163 168.08L134.282 171.233V172ZM144.616 163.273H143.559L141.377 164.722V165.795L143.508 164.381H143.559V172H144.616V163.273Z" fill="#718EBF"/>
<path d="M270.605 159.534H271.752V157.224H274.061V156.078H271.752V153.773H270.605V156.078H268.3V157.224H270.605V159.534ZM278.645 162.091H279.446L279.45 161.132C281.252 161 282.284 159.969 282.284 158.588C282.284 157.016 280.882 156.406 279.774 156.134L279.463 156.053L279.471 153.317C280.268 153.423 280.814 153.866 280.895 154.565H282.164C282.13 153.266 281.056 152.294 279.475 152.166L279.48 151.182H278.679L278.674 152.175C277.145 152.328 276.024 153.283 276.024 154.659C276.024 155.874 276.893 156.585 278.295 156.964L278.662 157.062L278.653 159.964C277.822 159.862 277.179 159.411 277.11 158.588H275.789C275.87 160.058 276.931 161.004 278.649 161.132L278.645 162.091ZM279.454 159.964L279.463 157.284C280.328 157.523 280.98 157.838 280.98 158.575C280.98 159.321 280.358 159.845 279.454 159.964ZM278.666 155.839C278.031 155.652 277.332 155.315 277.336 154.582C277.336 153.943 277.843 153.445 278.67 153.321L278.666 155.839ZM284.032 161H285.408L289.205 153.44V152.273H283.435V153.402H287.842V153.466L284.032 161ZM293.46 161.119C295.276 161.119 296.558 160.088 296.567 158.673C296.558 157.574 295.787 156.649 294.811 156.474V156.423C295.659 156.219 296.234 155.422 296.243 154.48C296.234 153.146 295.058 152.153 293.46 152.153C291.845 152.153 290.669 153.146 290.678 154.48C290.669 155.418 291.244 156.219 292.109 156.423V156.474C291.116 156.649 290.345 157.574 290.354 158.673C290.345 160.088 291.628 161.119 293.46 161.119ZM293.46 160.041C292.369 160.041 291.679 159.462 291.688 158.588C291.679 157.68 292.429 157.033 293.46 157.033C294.474 157.033 295.224 157.68 295.233 158.588C295.224 159.462 294.538 160.041 293.46 160.041ZM293.46 155.98C292.578 155.98 291.952 155.422 291.96 154.591C291.952 153.773 292.557 153.232 293.46 153.232C294.347 153.232 294.952 153.773 294.96 154.591C294.952 155.422 294.33 155.98 293.46 155.98ZM301.132 161.145C303.147 161.145 304.328 159.5 304.328 156.641C304.328 153.803 303.13 152.153 301.132 152.153C299.129 152.153 297.936 153.798 297.931 156.641C297.931 159.496 299.112 161.141 301.132 161.145ZM301.132 160.007C299.951 160.007 299.24 158.822 299.24 156.641C299.244 154.467 299.956 153.27 301.132 153.27C302.304 153.27 303.02 154.467 303.02 156.641C303.02 158.822 302.308 160.007 301.132 160.007Z" fill="#16DBAA"/>
<rect x="20" y="77" width="45" height="45" rx="12" fill="#E7EDFF"/>
<g clip-path="url(#clip1_1_1442)">
<path d="M36.3672 107.218C36.6908 107.218 36.9531 106.956 36.9531 106.632C36.9531 106.308 36.6908 106.046 36.3672 106.046C36.0436 106.046 35.7812 106.308 35.7812 106.632C35.7812 106.956 36.0436 107.218 36.3672 107.218Z" fill="#396AFF"/>
<path d="M48.8669 99.6293C49.9016 99.477 50.8405 99.0047 51.582 98.2632C52.2879 97.5573 52.7525 96.6662 52.9256 95.6863C53.0946 94.7291 52.9757 93.7555 52.5818 92.8708C52.4147 92.4956 51.9224 92.4046 51.6322 92.6948L49.2319 95.0951C49.1328 95.1941 48.9716 95.1941 48.8725 95.0951L47.9047 94.1273C47.8058 94.0284 47.8058 93.8675 47.9047 93.7686L50.3053 91.368C50.5958 91.0775 50.5043 90.5854 50.1293 90.4185C49.2446 90.0245 48.271 89.9056 47.3138 90.0746C46.3338 90.2477 45.4427 90.7123 44.7368 91.4182C43.9953 92.1596 43.5229 93.0985 43.3707 94.1332C43.245 94.9871 43.3453 95.8414 43.6604 96.6307L41.9027 98.0745L37.9776 94.1495L38.6681 93.459C38.9156 93.2116 38.8922 92.8029 38.6176 92.5854L35.9609 90.4812C35.7277 90.2966 35.3931 90.3159 35.1828 90.5262L33.5255 92.1834C33.3152 92.3937 33.2958 92.7283 33.4805 92.9615L35.5848 95.6181C35.8023 95.8927 36.2107 95.9163 36.4584 95.6686L37.1489 94.9781L40.9929 98.8218L33.7776 104.749C32.817 105.508 32.7341 106.938 33.5999 107.804L35.196 109.4C36.0617 110.265 37.4911 110.183 38.2511 109.222L44.1781 102.007L44.7735 102.602L43.9171 103.459C43.697 103.679 43.6874 104.033 43.8952 104.264L48.3602 109.242C49.2384 110.217 50.7532 110.257 51.6817 109.329L52.3286 108.682C53.2591 107.751 53.215 106.226 52.2315 105.351C52.2311 105.35 52.2307 105.35 52.2303 105.35L47.2294 100.925C46.9975 100.719 46.6459 100.73 46.4268 100.949L45.6021 101.774L44.9254 101.097L46.3693 99.3395C47.1586 99.6547 48.013 99.7549 48.8669 99.6293ZM36.095 94.3748L34.7231 92.643L35.6423 91.7238L37.3743 93.0955L36.095 94.3748ZM46.8657 102.167L51.453 106.226C51.6853 106.433 51.8182 106.718 51.8273 107.029C51.8364 107.341 51.7202 107.633 51.5 107.853L50.8532 108.5C50.634 108.719 50.3427 108.836 50.0331 108.827C49.7233 108.819 49.4385 108.688 49.2318 108.459L45.1381 103.895L46.8657 102.167ZM45.7497 98.2477L43.6814 100.765C43.6811 100.766 43.6809 100.766 43.6806 100.766L37.3419 108.483C37.3392 108.486 37.3365 108.489 37.3338 108.493C37.009 108.906 36.3974 108.944 36.0246 108.571L34.4286 106.975C34.0567 106.603 34.0924 105.991 34.507 105.666C34.5103 105.663 34.5136 105.661 34.517 105.658L42.2336 99.3192C42.2338 99.319 42.234 99.3189 42.2342 99.3187L44.7523 97.2503C44.9661 97.0747 45.0279 96.7735 44.9005 96.5279C44.1621 95.1034 44.4293 93.3829 45.5654 92.2468C46.2651 91.5471 47.2123 91.1754 48.1702 91.1754C48.3765 91.1754 48.5834 91.1926 48.7884 91.2276L47.076 92.9399C46.5203 93.4957 46.5203 94.4 47.0761 94.9559L48.0439 95.9236C48.5998 96.4796 49.5045 96.4797 50.0605 95.9236L51.7726 94.2116C51.9698 95.368 51.6038 96.5842 50.7534 97.4346C49.6171 98.5707 47.8967 98.8378 46.4721 98.0994C46.2266 97.9721 45.9253 98.0339 45.7497 98.2477Z" fill="#396AFF"/>
</g>
<rect x="20" y="134" width="45" height="45" rx="12" fill="#FFE0EB"/>
<g clip-path="url(#clip2_1_1442)">
<path d="M50.0711 159.929C48.9819 158.84 47.6855 158.033 46.2711 157.545C47.786 156.502 48.7812 154.756 48.7812 152.781C48.7812 149.593 46.1878 147 43 147C39.8122 147 37.2188 149.593 37.2188 152.781C37.2188 154.756 38.214 156.502 39.729 157.545C38.3145 158.033 37.0181 158.84 35.9289 159.929C34.0402 161.818 33 164.329 33 167H34.5625C34.5625 162.348 38.3475 158.562 43 158.562C47.6525 158.562 51.4375 162.348 51.4375 167H53C53 164.329 51.9598 161.818 50.0711 159.929ZM43 157C40.6738 157 38.7812 155.108 38.7812 152.781C38.7812 150.455 40.6738 148.562 43 148.562C45.3262 148.562 47.2188 150.455 47.2188 152.781C47.2188 155.108 45.3262 157 43 157Z" fill="#FF82AC"/>
</g>
<defs>
<clipPath id="clip0_1_1442">
<rect width="20" height="20" fill="white" transform="translate(33 33)"/>
</clipPath>
<clipPath id="clip1_1_1442">
<rect width="20" height="20" fill="white" transform="translate(33 90)"/>
</clipPath>
<clipPath id="clip2_1_1442">
<rect width="20" height="20" fill="white" transform="translate(33 147)"/>
</clipPath>
</defs>
</svg>
