<svg width="635" height="90" viewBox="0 0 635 90" fill="none" xmlns="http://www.w3.org/2000/svg">
<rect width="635" height="90" rx="20" fill="white"/>
<rect x="15" y="15" width="60" height="60" rx="20" fill="#FFE0EB"/>
<path d="M54.6167 52.4826C54.2386 53.356 53.7911 54.16 53.2726 54.8992C52.5658 55.9069 51.9871 56.6044 51.5411 56.9917C50.8498 57.6275 50.1091 57.9531 49.3159 57.9716C48.7465 57.9716 48.0597 57.8096 47.2604 57.4809C46.4584 57.1537 45.7214 56.9917 45.0475 56.9917C44.3407 56.9917 43.5827 57.1537 42.772 57.4809C41.9599 57.8096 41.3058 57.9809 40.8056 57.9979C40.045 58.0303 39.2869 57.6954 38.5301 56.9917C38.0471 56.5704 37.443 55.8482 36.7192 54.8251C35.9427 53.7325 35.3043 52.4656 34.8041 51.0212C34.2685 49.4611 34 47.9503 34 46.4877C34 44.8123 34.362 43.3673 35.0872 42.1564C35.6571 41.1837 36.4152 40.4165 37.3641 39.8532C38.313 39.29 39.3383 39.0029 40.4424 38.9846C41.0466 38.9846 41.8388 39.1714 42.8233 39.5387C43.8051 39.9072 44.4355 40.0941 44.7119 40.0941C44.9185 40.0941 45.6188 39.8756 46.8059 39.44C47.9286 39.036 48.8761 38.8687 49.6523 38.9346C51.7556 39.1043 53.3358 39.9334 54.3867 41.4272C52.5056 42.567 51.5751 44.1634 51.5936 46.2113C51.6106 47.8065 52.1893 49.1339 53.3266 50.1879C53.842 50.6771 54.4176 51.0552 55.058 51.3237C54.9191 51.7264 54.7725 52.1123 54.6167 52.4826V52.4826ZM49.7927 33.5001C49.7927 34.7504 49.3359 35.9178 48.4255 36.9983C47.3268 38.2829 45.9978 39.0251 44.5566 38.908C44.5373 38.7508 44.5276 38.5926 44.5276 38.4342C44.5276 37.234 45.0501 35.9494 45.978 34.8992C46.4413 34.3674 47.0305 33.9252 47.7449 33.5725C48.4579 33.2251 49.1323 33.0329 49.7665 33C49.785 33.1671 49.7927 33.3343 49.7927 33.5001V33.5001Z" fill="#FF82AC"/>
<path d="M97.2614 38L98.3295 34.9205H102.875L103.938 38H105.801L101.614 26.3636H99.5852L95.3977 38H97.2614ZM98.8409 33.4432L100.557 28.4773H100.648L102.364 33.4432H98.8409ZM107.345 41.2727H109.044V36.642H109.146C109.453 37.1989 110.078 38.1705 111.669 38.1705C113.783 38.1705 115.317 36.4773 115.317 33.6534C115.317 30.8239 113.76 29.1591 111.652 29.1591C110.033 29.1591 109.447 30.1477 109.146 30.6875H109.004V29.2727H107.345V41.2727ZM109.01 33.6364C109.01 31.8125 109.805 30.6023 111.288 30.6023C112.828 30.6023 113.601 31.9034 113.601 33.6364C113.601 35.3864 112.805 36.7216 111.288 36.7216C109.828 36.7216 109.01 35.4716 109.01 33.6364ZM117.22 41.2727H118.919V36.642H119.021C119.328 37.1989 119.953 38.1705 121.544 38.1705C123.658 38.1705 125.192 36.4773 125.192 33.6534C125.192 30.8239 123.635 29.1591 121.527 29.1591C119.908 29.1591 119.322 30.1477 119.021 30.6875H118.879V29.2727H117.22V41.2727ZM118.885 33.6364C118.885 31.8125 119.68 30.6023 121.163 30.6023C122.703 30.6023 123.476 31.9034 123.476 33.6364C123.476 35.3864 122.68 36.7216 121.163 36.7216C119.703 36.7216 118.885 35.4716 118.885 33.6364ZM128.794 26.3636H127.095V38H128.794V26.3636ZM134.841 38.1761C136.744 38.1761 138.091 37.2386 138.477 35.8182L136.869 35.5284C136.562 36.3523 135.824 36.7727 134.858 36.7727C133.403 36.7727 132.426 35.8295 132.381 34.1477H138.585V33.5455C138.585 30.392 136.699 29.1591 134.722 29.1591C132.29 29.1591 130.688 31.0114 130.688 33.6932C130.688 36.4034 132.267 38.1761 134.841 38.1761ZM132.386 32.875C132.455 31.6364 133.352 30.5625 134.733 30.5625C136.051 30.5625 136.915 31.5398 136.92 32.875H132.386ZM151.188 29.4205H152.881C152.83 27.5568 151.182 26.2045 148.818 26.2045C146.483 26.2045 144.693 27.5398 144.693 29.5455C144.693 31.1648 145.852 32.1136 147.722 32.6193L149.097 32.9943C150.341 33.3239 151.301 33.733 151.301 34.767C151.301 35.9034 150.216 36.6534 148.722 36.6534C147.369 36.6534 146.244 36.0511 146.142 34.7841H144.381C144.494 36.892 146.125 38.1932 148.733 38.1932C151.466 38.1932 153.04 36.7557 153.04 34.7841C153.04 32.6875 151.17 31.875 149.693 31.5114L148.557 31.2159C147.648 30.983 146.438 30.5568 146.443 29.4432C146.443 28.4545 147.347 27.7216 148.778 27.7216C150.114 27.7216 151.062 28.3466 151.188 29.4205ZM159.075 29.2727H157.286V27.1818H155.587V29.2727H154.308V30.6364H155.587V35.7898C155.581 37.375 156.791 38.142 158.132 38.1136C158.672 38.108 159.036 38.0057 159.234 37.9318L158.928 36.5284C158.814 36.5511 158.604 36.6023 158.331 36.6023C157.78 36.6023 157.286 36.4205 157.286 35.4375V30.6364H159.075V29.2727ZM164.537 38.1761C166.997 38.1761 168.605 36.375 168.605 33.6761C168.605 30.9602 166.997 29.1591 164.537 29.1591C162.077 29.1591 160.469 30.9602 160.469 33.6761C160.469 36.375 162.077 38.1761 164.537 38.1761ZM164.543 36.75C162.935 36.75 162.185 35.3466 162.185 33.6705C162.185 32 162.935 30.5795 164.543 30.5795C166.139 30.5795 166.889 32 166.889 33.6705C166.889 35.3466 166.139 36.75 164.543 36.75ZM170.501 38H172.2V32.6705C172.2 31.5284 173.081 30.7045 174.286 30.7045C174.638 30.7045 175.036 30.767 175.172 30.8068V29.1818C175.001 29.1591 174.666 29.142 174.45 29.142C173.428 29.142 172.553 29.7216 172.234 30.6591H172.143V29.2727H170.501V38ZM180.091 38.1761C181.994 38.1761 183.341 37.2386 183.727 35.8182L182.119 35.5284C181.812 36.3523 181.074 36.7727 180.108 36.7727C178.653 36.7727 177.676 35.8295 177.631 34.1477H183.835V33.5455C183.835 30.392 181.949 29.1591 179.972 29.1591C177.54 29.1591 175.938 31.0114 175.938 33.6932C175.938 36.4034 177.517 38.1761 180.091 38.1761ZM177.636 32.875C177.705 31.6364 178.602 30.5625 179.983 30.5625C181.301 30.5625 182.165 31.5398 182.17 32.875H177.636Z" fill="#232323"/>
<path d="M96.321 63H102.99V61.8281H97.642V58.1207H102.564V56.9489H97.642V53.2628H102.905V52.0909H96.321V63ZM109.803 57.7372H105.03V58.9091H109.803V57.7372ZM115.339 63.1705C117.15 63.1705 118.343 62.0625 118.556 60.6136H117.299C117.065 61.5085 116.319 62.0412 115.339 62.0412C113.847 62.0412 112.888 60.8054 112.888 58.9091C112.888 57.0554 113.869 55.8409 115.339 55.8409C116.447 55.8409 117.107 56.5227 117.299 57.2685H118.556C118.343 55.7344 117.043 54.7116 115.317 54.7116C113.101 54.7116 111.631 56.4588 111.631 58.9517C111.631 61.402 113.038 63.1705 115.339 63.1705ZM123.718 63.1705C125.934 63.1705 127.425 61.4872 127.425 58.9517C127.425 56.3949 125.934 54.7116 123.718 54.7116C121.502 54.7116 120.01 56.3949 120.01 58.9517C120.01 61.4872 121.502 63.1705 123.718 63.1705ZM123.718 62.0412C122.034 62.0412 121.267 60.5923 121.267 58.9517C121.267 57.3111 122.034 55.8409 123.718 55.8409C125.401 55.8409 126.168 57.3111 126.168 58.9517C126.168 60.5923 125.401 62.0412 123.718 62.0412ZM129.344 63H130.601V57.8864C130.601 56.6879 131.475 55.8409 132.455 55.8409C133.408 55.8409 134.074 56.4641 134.074 57.3963V63H135.352V57.6733C135.352 56.6186 136.013 55.8409 137.164 55.8409C138.058 55.8409 138.825 56.315 138.825 57.5241V63H140.083V57.5241C140.083 55.6012 139.049 54.7116 137.59 54.7116C136.418 54.7116 135.56 55.2496 135.139 56.0966H135.054C134.649 55.223 133.936 54.7116 132.86 54.7116C131.794 54.7116 131.006 55.223 130.665 56.0966H130.558V54.8182H129.344V63ZM142.381 63H143.638V57.8864C143.638 56.6879 144.512 55.8409 145.492 55.8409C146.445 55.8409 147.111 56.4641 147.111 57.3963V63H148.39V57.6733C148.39 56.6186 149.05 55.8409 150.201 55.8409C151.096 55.8409 151.863 56.315 151.863 57.5241V63H153.12V57.5241C153.12 55.6012 152.086 54.7116 150.627 54.7116C149.455 54.7116 148.597 55.2496 148.176 56.0966H148.091C147.686 55.223 146.973 54.7116 145.897 54.7116C144.831 54.7116 144.043 55.223 143.702 56.0966H143.596V54.8182H142.381V63ZM158.849 63.1705C160.51 63.1705 161.725 62.3395 162.108 61.1037L160.894 60.7628C160.574 61.6151 159.834 62.0412 158.849 62.0412C157.373 62.0412 156.356 61.0877 156.297 59.3352H162.236V58.8026C162.236 55.7557 160.425 54.7116 158.721 54.7116C156.505 54.7116 155.035 56.4588 155.035 58.973C155.035 61.4872 156.483 63.1705 158.849 63.1705ZM156.297 58.2486C156.382 56.9755 157.282 55.8409 158.721 55.8409C160.084 55.8409 160.958 56.8636 160.958 58.2486H156.297ZM164.149 63H165.406V57.8224C165.406 56.7145 166.279 55.9048 167.472 55.9048C167.808 55.9048 168.154 55.9688 168.24 55.9901V54.7116C168.096 54.701 167.765 54.6903 167.579 54.6903C166.599 54.6903 165.747 55.2443 165.448 56.054H165.363V54.8182H164.149V63ZM172.805 63.1705C174.616 63.1705 175.809 62.0625 176.022 60.6136H174.765C174.53 61.5085 173.785 62.0412 172.805 62.0412C171.313 62.0412 170.354 60.8054 170.354 58.9091C170.354 57.0554 171.334 55.8409 172.805 55.8409C173.912 55.8409 174.573 56.5227 174.765 57.2685H176.022C175.809 55.7344 174.509 54.7116 172.783 54.7116C170.567 54.7116 169.097 56.4588 169.097 58.9517C169.097 61.402 170.503 63.1705 172.805 63.1705ZM181.29 63.1705C182.952 63.1705 184.166 62.3395 184.55 61.1037L183.335 60.7628C183.016 61.6151 182.275 62.0412 181.29 62.0412C179.814 62.0412 178.797 61.0877 178.738 59.3352H184.678V58.8026C184.678 55.7557 182.867 54.7116 181.162 54.7116C178.946 54.7116 177.476 56.4588 177.476 58.973C177.476 61.4872 178.925 63.1705 181.29 63.1705ZM178.738 58.2486C178.824 56.9755 179.724 55.8409 181.162 55.8409C182.526 55.8409 183.399 56.8636 183.399 58.2486H178.738ZM188.465 61.5085H187.101L187.037 62.1051C186.883 63.5487 186.579 64.9869 186.441 65.6634H187.4C187.655 64.9389 188.199 63.2983 188.38 62.0838L188.465 61.5085ZM195.183 52.0909V63H196.419V54.7116H196.526L199.935 63H201.128L204.537 54.7116H204.644V63H205.879V52.0909H204.303L200.595 61.1463H200.467L196.76 52.0909H195.183ZM210.765 63.1918C212.193 63.1918 212.939 62.4247 213.194 61.892H213.258V63H214.515V57.6094C214.515 55.0099 212.534 54.7116 211.49 54.7116C210.254 54.7116 208.848 55.1378 208.208 56.6293L209.402 57.0554C209.679 56.4588 210.334 55.8196 211.532 55.8196C212.688 55.8196 213.258 56.4322 213.258 57.4815V57.5241C213.258 58.1314 212.64 58.0781 211.149 58.2699C209.631 58.467 207.974 58.8026 207.974 60.6776C207.974 62.2756 209.21 63.1918 210.765 63.1918ZM210.957 62.0625C209.956 62.0625 209.231 61.6151 209.231 60.7415C209.231 59.7827 210.105 59.4844 211.085 59.3565C211.618 59.2926 213.045 59.1435 213.258 58.8878V60.0384C213.258 61.0611 212.449 62.0625 210.957 62.0625ZM216.81 63H218.067V57.8224C218.067 56.7145 218.94 55.9048 220.134 55.9048C220.469 55.9048 220.815 55.9688 220.901 55.9901V54.7116C220.757 54.701 220.427 54.6903 220.24 54.6903C219.26 54.6903 218.408 55.2443 218.109 56.054H218.024V54.8182H216.81V63ZM222.391 63H223.648V59.9371L224.527 59.1222L227.59 63H229.188L225.475 58.3125L228.932 54.8182H227.377L223.797 58.4616H223.648V52.0909H222.391V63ZM233.643 63.1705C235.305 63.1705 236.52 62.3395 236.903 61.1037L235.689 60.7628C235.369 61.6151 234.629 62.0412 233.643 62.0412C232.168 62.0412 231.151 61.0877 231.092 59.3352H237.031V58.8026C237.031 55.7557 235.22 54.7116 233.516 54.7116C231.3 54.7116 229.83 56.4588 229.83 58.973C229.83 61.4872 231.278 63.1705 233.643 63.1705ZM231.092 58.2486C231.177 56.9755 232.077 55.8409 233.516 55.8409C234.879 55.8409 235.753 56.8636 235.753 58.2486H231.092ZM242.502 54.8182H240.755V52.858H239.498V54.8182H238.262V55.8835H239.498V60.9972C239.498 62.4247 240.648 63.1065 241.713 63.1065C242.182 63.1065 242.48 63.0213 242.651 62.9574L242.395 61.8281C242.289 61.8494 242.118 61.892 241.841 61.892C241.287 61.892 240.755 61.7216 240.755 60.6562V55.8835H242.502V54.8182ZM244.393 66.0682H245.65V61.7429H245.756C246.033 62.1903 246.566 63.1705 248.143 63.1705C250.188 63.1705 251.616 61.5298 251.616 58.9304C251.616 56.3523 250.188 54.7116 248.121 54.7116C246.523 54.7116 246.033 55.6918 245.756 56.1179H245.607V54.8182H244.393V66.0682ZM245.629 58.9091C245.629 57.0767 246.438 55.8409 247.972 55.8409C249.57 55.8409 250.359 57.1832 250.359 58.9091C250.359 60.6562 249.549 62.0412 247.972 62.0412C246.46 62.0412 245.629 60.7628 245.629 58.9091ZM254.79 52.0909H253.533V63H254.79V52.0909ZM259.501 63.1918C260.928 63.1918 261.674 62.4247 261.93 61.892H261.994V63H263.251V57.6094C263.251 55.0099 261.269 54.7116 260.225 54.7116C258.989 54.7116 257.583 55.1378 256.944 56.6293L258.137 57.0554C258.414 56.4588 259.069 55.8196 260.268 55.8196C261.424 55.8196 261.994 56.4322 261.994 57.4815V57.5241C261.994 58.1314 261.376 58.0781 259.884 58.2699C258.366 58.467 256.709 58.8026 256.709 60.6776C256.709 62.2756 257.945 63.1918 259.501 63.1918ZM259.692 62.0625C258.691 62.0625 257.967 61.6151 257.967 60.7415C257.967 59.7827 258.84 59.4844 259.82 59.3565C260.353 59.2926 261.78 59.1435 261.994 58.8878V60.0384C261.994 61.0611 261.184 62.0625 259.692 62.0625ZM268.869 63.1705C270.68 63.1705 271.873 62.0625 272.086 60.6136H270.829C270.595 61.5085 269.849 62.0412 268.869 62.0412C267.377 62.0412 266.419 60.8054 266.419 58.9091C266.419 57.0554 267.399 55.8409 268.869 55.8409C269.977 55.8409 270.637 56.5227 270.829 57.2685H272.086C271.873 55.7344 270.574 54.7116 268.848 54.7116C266.632 54.7116 265.162 56.4588 265.162 58.9517C265.162 61.402 266.568 63.1705 268.869 63.1705ZM277.354 63.1705C279.016 63.1705 280.231 62.3395 280.614 61.1037L279.4 60.7628C279.08 61.6151 278.34 62.0412 277.354 62.0412C275.879 62.0412 274.862 61.0877 274.803 59.3352H280.742V58.8026C280.742 55.7557 278.931 54.7116 277.227 54.7116C275.011 54.7116 273.54 56.4588 273.54 58.973C273.54 61.4872 274.989 63.1705 277.354 63.1705ZM274.803 58.2486C274.888 56.9755 275.788 55.8409 277.227 55.8409C278.59 55.8409 279.464 56.8636 279.464 58.2486H274.803Z" fill="#718EBF"/>
<path d="M342.625 39.4545H343.693L343.699 38.1761C346.102 38 347.477 36.625 347.477 34.7841C347.477 32.6875 345.608 31.875 344.131 31.5114L343.716 31.4034L343.727 27.7557C344.79 27.8977 345.517 28.4886 345.625 29.4205H347.318C347.273 27.6875 345.841 26.392 343.733 26.2216L343.739 24.9091H342.67L342.665 26.233C340.625 26.4375 339.131 27.7102 339.131 29.5455C339.131 31.1648 340.29 32.1136 342.159 32.6193L342.648 32.75L342.636 36.6193C341.528 36.483 340.67 35.8807 340.58 34.7841H338.818C338.926 36.7443 340.341 38.0057 342.631 38.1761L342.625 39.4545ZM343.705 36.6193L343.716 33.0455C344.869 33.3636 345.739 33.7841 345.739 34.767C345.739 35.7614 344.909 36.4602 343.705 36.6193ZM342.653 31.1193C341.807 30.8693 340.875 30.4205 340.881 29.4432C340.881 28.5909 341.557 27.9261 342.659 27.7614L342.653 31.1193ZM353.257 38.1591C355.598 38.1591 357.268 36.5057 357.263 34.2386C357.268 31.9886 355.7 30.3523 353.581 30.3523C352.717 30.3523 351.916 30.6818 351.462 31.125H351.393L351.763 27.8693H356.7V26.3636H350.303L349.649 32.2273L351.257 32.4659C351.695 32.0739 352.479 31.8068 353.183 31.8068C354.564 31.8182 355.564 32.8523 355.564 34.2727C355.564 35.6705 354.592 36.6818 353.257 36.6818C352.132 36.6818 351.24 35.9659 351.149 34.9659H349.445C349.513 36.8182 351.121 38.1591 353.257 38.1591ZM359.094 35.7273H364.611V38H366.287V35.7273H367.827V34.2386H366.287V26.3636H364.122L359.094 34.3068V35.7273ZM364.622 34.2386H360.935V34.1477L364.531 28.4545H364.622V34.2386ZM371.602 36.4091H369.966L369.909 37.0455C369.778 38.5852 369.415 40.1364 369.261 40.8409H370.466C370.739 40.0966 371.341 38.392 371.517 37.0284L371.602 36.4091ZM377.592 38.1932C380.28 38.1932 381.854 36 381.854 32.1875C381.854 28.4034 380.257 26.2045 377.592 26.2045C374.922 26.2045 373.331 28.3977 373.325 32.1875C373.325 35.9943 374.899 38.1875 377.592 38.1932ZM377.592 36.6761C376.018 36.6761 375.07 35.0966 375.07 32.1875C375.075 29.2898 376.024 27.6932 377.592 27.6932C379.155 27.6932 380.109 29.2898 380.109 32.1875C380.109 35.0966 379.161 36.6761 377.592 36.6761ZM387.92 38.1932C390.608 38.1932 392.182 36 392.182 32.1875C392.182 28.4034 390.585 26.2045 387.92 26.2045C385.25 26.2045 383.659 28.3977 383.653 32.1875C383.653 35.9943 385.227 38.1875 387.92 38.1932ZM387.92 36.6761C386.347 36.6761 385.398 35.0966 385.398 32.1875C385.403 29.2898 386.352 27.6932 387.92 27.6932C389.483 27.6932 390.438 29.2898 390.438 32.1875C390.438 35.0966 389.489 36.6761 387.92 36.6761ZM398.249 38.1932C400.936 38.1932 402.51 36 402.51 32.1875C402.51 28.4034 400.913 26.2045 398.249 26.2045C395.578 26.2045 393.987 28.3977 393.982 32.1875C393.982 35.9943 395.555 38.1875 398.249 38.1932ZM398.249 36.6761C396.675 36.6761 395.726 35.0966 395.726 32.1875C395.732 29.2898 396.68 27.6932 398.249 27.6932C399.811 27.6932 400.766 29.2898 400.766 32.1875C400.766 35.0966 399.817 36.6761 398.249 36.6761Z" fill="#232323"/>
<path d="M339.321 63H345.99V61.8281H340.642V58.1207H345.564V56.9489H340.642V53.2628H345.905V52.0909H339.321V63ZM349.373 58.0781C349.373 56.6506 350.257 55.8409 351.461 55.8409C352.627 55.8409 353.336 56.6026 353.336 57.8864V63H354.593V57.8011C354.593 55.7131 353.479 54.7116 351.823 54.7116C350.587 54.7116 349.82 55.2656 349.436 56.0966H349.33V54.8182H348.115V63H349.373V58.0781ZM363.287 54.8182H361.924L359.665 61.3381H359.58L357.321 54.8182H355.958L358.983 63H360.262L363.287 54.8182ZM368.084 63.1705C369.746 63.1705 370.96 62.3395 371.344 61.1037L370.129 60.7628C369.81 61.6151 369.069 62.0412 368.084 62.0412C366.608 62.0412 365.591 61.0877 365.532 59.3352H371.472V58.8026C371.472 55.7557 369.661 54.7116 367.956 54.7116C365.74 54.7116 364.27 56.4588 364.27 58.973C364.27 61.4872 365.719 63.1705 368.084 63.1705ZM365.532 58.2486C365.618 56.9755 366.518 55.8409 367.956 55.8409C369.32 55.8409 370.193 56.8636 370.193 58.2486H365.532ZM379.179 56.6506C378.785 55.4893 377.901 54.7116 376.282 54.7116C374.556 54.7116 373.277 55.6918 373.277 57.0767C373.277 58.206 373.949 58.9624 375.451 59.3139L376.814 59.6335C377.64 59.8253 378.029 60.2195 378.029 60.7841C378.029 61.4872 377.283 62.0625 376.111 62.0625C375.083 62.0625 374.439 61.6204 374.215 60.7415L373.022 61.0398C373.315 62.43 374.46 63.1705 376.133 63.1705C378.034 63.1705 379.329 62.1317 379.329 60.7202C379.329 59.5803 378.615 58.8612 377.155 58.5043L375.941 58.206C374.971 57.9663 374.535 57.6413 374.535 57.0128C374.535 56.3097 375.28 55.7983 376.282 55.7983C377.379 55.7983 377.832 56.4055 378.05 56.9702L379.179 56.6506ZM384.779 54.8182H383.032V52.858H381.775V54.8182H380.539V55.8835H381.775V60.9972C381.775 62.4247 382.925 63.1065 383.991 63.1065C384.46 63.1065 384.758 63.0213 384.928 62.9574L384.673 61.8281C384.566 61.8494 384.396 61.892 384.119 61.892C383.565 61.892 383.032 61.7216 383.032 60.6562V55.8835H384.779V54.8182ZM386.67 63H387.927V57.8864C387.927 56.6879 388.801 55.8409 389.781 55.8409C390.734 55.8409 391.4 56.4641 391.4 57.3963V63H392.679V57.6733C392.679 56.6186 393.339 55.8409 394.49 55.8409C395.385 55.8409 396.152 56.315 396.152 57.5241V63H397.409V57.5241C397.409 55.6012 396.375 54.7116 394.916 54.7116C393.744 54.7116 392.886 55.2496 392.466 56.0966H392.38C391.975 55.223 391.262 54.7116 390.186 54.7116C389.12 54.7116 388.332 55.223 387.991 56.0966H387.885V54.8182H386.67V63ZM403.138 63.1705C404.8 63.1705 406.014 62.3395 406.398 61.1037L405.183 60.7628C404.863 61.6151 404.123 62.0412 403.138 62.0412C401.662 62.0412 400.645 61.0877 400.586 59.3352H406.525V58.8026C406.525 55.7557 404.714 54.7116 403.01 54.7116C400.794 54.7116 399.324 56.4588 399.324 58.973C399.324 61.4872 400.773 63.1705 403.138 63.1705ZM400.586 58.2486C400.671 56.9755 401.572 55.8409 403.01 55.8409C404.373 55.8409 405.247 56.8636 405.247 58.2486H400.586ZM409.695 58.0781C409.695 56.6506 410.579 55.8409 411.783 55.8409C412.949 55.8409 413.658 56.6026 413.658 57.8864V63H414.915V57.8011C414.915 55.7131 413.802 54.7116 412.145 54.7116C410.909 54.7116 410.142 55.2656 409.759 56.0966H409.652V54.8182H408.438V63H409.695V58.0781ZM420.77 54.8182H419.023V52.858H417.766V54.8182H416.53V55.8835H417.766V60.9972C417.766 62.4247 418.917 63.1065 419.982 63.1065C420.451 63.1065 420.749 63.0213 420.919 62.9574L420.664 61.8281C420.557 61.8494 420.387 61.892 420.11 61.892C419.556 61.892 419.023 61.7216 419.023 60.6562V55.8835H420.77V54.8182ZM427.498 52.0909H426.113L430.119 63H431.482L435.488 52.0909H434.103L430.864 61.2741H430.737L427.498 52.0909ZM438.663 63.1918C440.09 63.1918 440.836 62.4247 441.092 61.892H441.156V63H442.413V57.6094C442.413 55.0099 440.431 54.7116 439.387 54.7116C438.151 54.7116 436.745 55.1378 436.106 56.6293L437.299 57.0554C437.576 56.4588 438.231 55.8196 439.43 55.8196C440.586 55.8196 441.156 56.4322 441.156 57.4815V57.5241C441.156 58.1314 440.538 58.0781 439.046 58.2699C437.528 58.467 435.872 58.8026 435.872 60.6776C435.872 62.2756 437.107 63.1918 438.663 63.1918ZM438.854 62.0625C437.853 62.0625 437.129 61.6151 437.129 60.7415C437.129 59.7827 438.002 59.4844 438.982 59.3565C439.515 59.2926 440.943 59.1435 441.156 58.8878V60.0384C441.156 61.0611 440.346 62.0625 438.854 62.0625ZM445.964 52.0909H444.707V63H445.964V52.0909ZM453.423 59.6548C453.423 61.1889 452.251 61.892 451.314 61.892C450.27 61.892 449.524 61.125 449.524 59.9318V54.8182H448.267V60.017C448.267 62.1051 449.375 63.1065 450.909 63.1065C452.145 63.1065 452.954 62.446 453.338 61.6151H453.423V63H454.68V54.8182H453.423V59.6548ZM460.413 63.1705C462.075 63.1705 463.289 62.3395 463.673 61.1037L462.458 60.7628C462.139 61.6151 461.398 62.0412 460.413 62.0412C458.938 62.0412 457.92 61.0877 457.862 59.3352H463.801V58.8026C463.801 55.7557 461.99 54.7116 460.285 54.7116C458.069 54.7116 456.599 56.4588 456.599 58.973C456.599 61.4872 458.048 63.1705 460.413 63.1705ZM457.862 58.2486C457.947 56.9755 458.847 55.8409 460.285 55.8409C461.649 55.8409 462.522 56.8636 462.522 58.2486H457.862Z" fill="#718EBF"/>
<path d="M513.562 36.0455H515.091V32.9659H518.17V31.4375H515.091V28.3636H513.562V31.4375H510.489V32.9659H513.562V36.0455ZM525.19 26.3636H523.48L520.577 28.2614V29.9432L523.361 28.125H523.429V38H525.19V26.3636ZM532.401 38.1591C534.832 38.1818 536.446 36.4318 536.44 34.1989C536.446 31.9716 534.827 30.375 532.81 30.375C531.582 30.375 530.52 30.9659 529.923 31.9489H529.838C529.844 29.3068 530.844 27.7386 532.548 27.7386C533.668 27.7386 534.372 28.4205 534.611 29.3864H536.344C536.077 27.5455 534.628 26.2045 532.548 26.2045C529.844 26.2045 528.156 28.5284 528.156 32.5739C528.151 36.858 530.332 38.142 532.401 38.1591ZM532.395 36.6818C531.043 36.6818 530.054 35.5455 530.054 34.2386C530.06 32.9375 531.094 31.8011 532.435 31.8011C533.764 31.8011 534.741 32.875 534.736 34.2216C534.741 35.5966 533.724 36.6818 532.395 36.6818ZM544.584 35.8182C544.589 37.1307 545.413 38.2386 546.953 38.2386C548.476 38.2386 549.311 37.1307 549.311 35.8182V35.2045C549.311 33.8864 548.499 32.7841 546.953 32.7841C545.436 32.7841 544.589 33.892 544.584 35.2045V35.8182ZM538.732 29.1591C538.732 30.4716 539.561 31.5795 541.101 31.5795C542.618 31.5795 543.459 30.4773 543.453 29.1591V28.5455C543.459 27.2273 542.641 26.125 541.101 26.125C539.589 26.125 538.732 27.2273 538.732 28.5455V29.1591ZM539.209 38H540.567L548.567 26.3636H547.209L539.209 38ZM545.908 35.2045C545.913 34.5511 546.197 33.9205 546.953 33.9205C547.737 33.9205 547.982 34.5511 547.982 35.2045V35.8182C547.982 36.4716 547.714 37.1023 546.953 37.1023C546.18 37.1023 545.913 36.4659 545.908 35.8182V35.2045ZM540.061 28.5455C540.061 27.8977 540.345 27.2614 541.101 27.2614C541.885 27.2614 542.129 27.892 542.129 28.5455V29.1591C542.129 29.8125 541.862 30.4432 541.101 30.4432C540.328 30.4432 540.061 29.8125 540.061 29.1591V28.5455Z" fill="#16DBAA"/>
<path d="M510.321 63H511.642V58.7386H514.028C514.124 58.7386 514.215 58.7386 514.305 58.7333L516.607 63H518.141L515.674 58.4936C517.065 58.0195 517.714 56.8849 517.714 55.4361C517.714 53.5078 516.564 52.0909 514.007 52.0909H510.321V63ZM511.642 57.5455V53.2628H513.964C515.733 53.2628 516.415 54.1257 516.415 55.4361C516.415 56.7464 515.733 57.5455 513.986 57.5455H511.642ZM523.088 63.1705C524.75 63.1705 525.964 62.3395 526.348 61.1037L525.133 60.7628C524.814 61.6151 524.073 62.0412 523.088 62.0412C521.612 62.0412 520.595 61.0877 520.536 59.3352H526.476V58.8026C526.476 55.7557 524.665 54.7116 522.96 54.7116C520.744 54.7116 519.274 56.4588 519.274 58.973C519.274 61.4872 520.723 63.1705 523.088 63.1705ZM520.536 58.2486C520.622 56.9755 521.522 55.8409 522.96 55.8409C524.324 55.8409 525.197 56.8636 525.197 58.2486H520.536ZM531.946 54.8182H530.199V52.858H528.942V54.8182H527.706V55.8835H528.942V60.9972C528.942 62.4247 530.092 63.1065 531.158 63.1065C531.627 63.1065 531.925 63.0213 532.095 62.9574L531.84 61.8281C531.733 61.8494 531.563 61.892 531.286 61.892C530.732 61.892 530.199 61.7216 530.199 60.6562V55.8835H531.946V54.8182ZM538.993 59.6548C538.993 61.1889 537.821 61.892 536.884 61.892C535.84 61.892 535.094 61.125 535.094 59.9318V54.8182H533.837V60.017C533.837 62.1051 534.945 63.1065 536.479 63.1065C537.715 63.1065 538.525 62.446 538.908 61.6151H538.993V63H540.25V54.8182H538.993V59.6548ZM542.553 63H543.81V57.8224C543.81 56.7145 544.684 55.9048 545.877 55.9048C546.212 55.9048 546.559 55.9688 546.644 55.9901V54.7116C546.5 54.701 546.17 54.6903 545.983 54.6903C545.003 54.6903 544.151 55.2443 543.853 56.054H543.767V54.8182H542.553V63ZM549.391 58.0781C549.391 56.6506 550.275 55.8409 551.479 55.8409C552.646 55.8409 553.354 56.6026 553.354 57.8864V63H554.611V57.8011C554.611 55.7131 553.498 54.7116 551.841 54.7116C550.606 54.7116 549.839 55.2656 549.455 56.0966H549.348V54.8182H548.134V63H549.391V58.0781ZM561.745 52.0909H560.36L564.366 63H565.729L569.735 52.0909H568.35L565.112 61.2741H564.984L561.745 52.0909ZM572.91 63.1918C574.337 63.1918 575.083 62.4247 575.339 61.892H575.403V63H576.66V57.6094C576.66 55.0099 574.678 54.7116 573.634 54.7116C572.398 54.7116 570.992 55.1378 570.353 56.6293L571.546 57.0554C571.823 56.4588 572.478 55.8196 573.677 55.8196C574.833 55.8196 575.403 56.4322 575.403 57.4815V57.5241C575.403 58.1314 574.785 58.0781 573.293 58.2699C571.775 58.467 570.119 58.8026 570.119 60.6776C570.119 62.2756 571.354 63.1918 572.91 63.1918ZM573.102 62.0625C572.1 62.0625 571.376 61.6151 571.376 60.7415C571.376 59.7827 572.249 59.4844 573.229 59.3565C573.762 59.2926 575.19 59.1435 575.403 58.8878V60.0384C575.403 61.0611 574.593 62.0625 573.102 62.0625ZM580.211 52.0909H578.954V63H580.211V52.0909ZM587.67 59.6548C587.67 61.1889 586.498 61.892 585.561 61.892C584.517 61.892 583.771 61.125 583.771 59.9318V54.8182H582.514V60.017C582.514 62.1051 583.622 63.1065 585.156 63.1065C586.392 63.1065 587.201 62.446 587.585 61.6151H587.67V63H588.927V54.8182H587.67V59.6548ZM594.66 63.1705C596.322 63.1705 597.536 62.3395 597.92 61.1037L596.706 60.7628C596.386 61.6151 595.646 62.0412 594.66 62.0412C593.185 62.0412 592.167 61.0877 592.109 59.3352H598.048V58.8026C598.048 55.7557 596.237 54.7116 594.532 54.7116C592.316 54.7116 590.846 56.4588 590.846 58.973C590.846 61.4872 592.295 63.1705 594.66 63.1705ZM592.109 58.2486C592.194 56.9755 593.094 55.8409 594.532 55.8409C595.896 55.8409 596.769 56.8636 596.769 58.2486H592.109Z" fill="#718EBF"/>
</svg>
