<svg width="635" height="90" viewBox="0 0 635 90" fill="none" xmlns="http://www.w3.org/2000/svg">
<rect width="635" height="90" rx="20" fill="white"/>
<path d="M102.625 29.4205H104.318C104.267 27.5568 102.619 26.2045 100.256 26.2045C97.9205 26.2045 96.1307 27.5398 96.1307 29.5455C96.1307 31.1648 97.2898 32.1136 99.1591 32.6193L100.534 32.9943C101.778 33.3239 102.739 33.733 102.739 34.767C102.739 35.9034 101.653 36.6534 100.159 36.6534C98.8068 36.6534 97.6818 36.0511 97.5795 34.7841H95.8182C95.9318 36.892 97.5625 38.1932 100.17 38.1932C102.903 38.1932 104.477 36.7557 104.477 34.7841C104.477 32.6875 102.608 31.875 101.131 31.5114L99.9943 31.2159C99.0852 30.983 97.875 30.5568 97.8807 29.4432C97.8807 28.4545 98.7841 27.7216 100.216 27.7216C101.551 27.7216 102.5 28.3466 102.625 29.4205ZM108.979 38.1932C110.422 38.1932 111.234 37.4602 111.558 36.8068H111.626V38H113.286V32.2045C113.286 29.6648 111.286 29.1591 109.899 29.1591C108.32 29.1591 106.865 29.7955 106.297 31.3864L107.893 31.75C108.143 31.1307 108.78 30.5341 109.922 30.5341C111.018 30.5341 111.581 31.108 111.581 32.0966V32.1364C111.581 32.7557 110.945 32.7443 109.376 32.9261C107.723 33.1193 106.03 33.5511 106.03 35.5341C106.03 37.25 107.32 38.1932 108.979 38.1932ZM109.348 36.8295C108.388 36.8295 107.695 36.3977 107.695 35.5568C107.695 34.6477 108.501 34.3239 109.484 34.1932C110.036 34.1193 111.342 33.9716 111.587 33.7273V34.8523C111.587 35.8864 110.763 36.8295 109.348 36.8295ZM115.548 38H117.247V32.6193C117.247 31.4432 118.071 30.625 119.037 30.625C119.98 30.625 120.634 31.25 120.634 32.1989V38H122.327V32.4375C122.327 31.3864 122.969 30.625 124.077 30.625C124.974 30.625 125.713 31.125 125.713 32.3068V38H127.412V32.1477C127.412 30.1534 126.298 29.1591 124.719 29.1591C123.463 29.1591 122.52 29.7614 122.099 30.6932H122.009C121.628 29.7386 120.827 29.1591 119.662 29.1591C118.509 29.1591 117.651 29.733 117.287 30.6932H117.179V29.2727H115.548V38ZM136.229 31.4034C135.876 30.0455 134.814 29.1591 132.928 29.1591C130.956 29.1591 129.558 30.1989 129.558 31.7443C129.558 32.983 130.308 33.8068 131.945 34.1705L133.422 34.4943C134.263 34.6818 134.655 35.0568 134.655 35.6023C134.655 36.2784 133.933 36.8068 132.82 36.8068C131.803 36.8068 131.149 36.3693 130.945 35.5114L129.303 35.7614C129.587 37.3068 130.871 38.1761 132.831 38.1761C134.939 38.1761 136.399 37.0568 136.399 35.4773C136.399 34.2443 135.615 33.483 134.013 33.1136L132.626 32.7955C131.666 32.5682 131.251 32.2443 131.257 31.6534C131.251 30.983 131.979 30.5057 132.945 30.5057C134.001 30.5057 134.49 31.0909 134.689 31.6761L136.229 31.4034ZM143.795 34.3807C143.801 35.8636 142.699 36.5682 141.744 36.5682C140.693 36.5682 139.966 35.8068 139.966 34.6193V29.2727H138.267V34.8239C138.267 36.9886 139.455 38.1136 141.131 38.1136C142.443 38.1136 143.335 37.4205 143.739 36.4886H143.83V38H145.5V29.2727H143.795V34.3807ZM149.482 32.8182C149.482 31.4261 150.334 30.6307 151.516 30.6307C152.669 30.6307 153.368 31.3864 153.368 32.6534V38H155.067V32.4489C155.067 30.2898 153.879 29.1591 152.095 29.1591C150.783 29.1591 149.925 29.767 149.521 30.6932H149.413V29.2727H147.783V38H149.482V32.8182ZM161.004 41.4545C163.226 41.4545 164.942 40.4375 164.942 38.1932V29.2727H163.277V30.6875H163.152C162.851 30.1477 162.249 29.1591 160.624 29.1591C158.516 29.1591 156.964 30.8239 156.964 33.6023C156.964 36.3864 158.55 37.8693 160.612 37.8693C162.214 37.8693 162.834 36.9659 163.141 36.4091H163.249V38.125C163.249 39.4943 162.311 40.0852 161.021 40.0852C159.607 40.0852 159.055 39.375 158.754 38.875L157.294 39.4773C157.754 40.5455 158.919 41.4545 161.004 41.4545ZM160.987 36.4602C159.47 36.4602 158.68 35.2955 158.68 33.5795C158.68 31.9034 159.453 30.6023 160.987 30.6023C162.47 30.6023 163.266 31.8125 163.266 33.5795C163.266 35.3807 162.453 36.4602 160.987 36.4602ZM171.591 26.3636V38H173.261V29.5739H173.369L176.801 37.983H178.188L181.619 29.5795H181.727V38H183.398V26.3636H181.267L177.562 35.4091H177.426L173.722 26.3636H171.591ZM189.49 38.1761C191.95 38.1761 193.558 36.375 193.558 33.6761C193.558 30.9602 191.95 29.1591 189.49 29.1591C187.03 29.1591 185.422 30.9602 185.422 33.6761C185.422 36.375 187.03 38.1761 189.49 38.1761ZM189.496 36.75C187.888 36.75 187.138 35.3466 187.138 33.6705C187.138 32 187.888 30.5795 189.496 30.5795C191.092 30.5795 191.842 32 191.842 33.6705C191.842 35.3466 191.092 36.75 189.496 36.75ZM195.591 38H197.25V36.642H197.392C197.699 37.1989 198.324 38.1705 199.915 38.1705C202.028 38.1705 203.562 36.4773 203.562 33.6534C203.562 30.8239 202.006 29.1591 199.898 29.1591C198.278 29.1591 197.693 30.1477 197.392 30.6875H197.29V26.3636H195.591V38ZM197.256 33.6364C197.256 31.8125 198.051 30.6023 199.534 30.6023C201.074 30.6023 201.847 31.9034 201.847 33.6364C201.847 35.3864 201.051 36.7216 199.534 36.7216C198.074 36.7216 197.256 35.4716 197.256 33.6364ZM205.47 38H207.169V29.2727H205.47V38ZM206.328 27.9261C206.913 27.9261 207.402 27.4716 207.402 26.9148C207.402 26.358 206.913 25.8977 206.328 25.8977C205.737 25.8977 205.254 26.358 205.254 26.9148C205.254 27.4716 205.737 27.9261 206.328 27.9261ZM211.153 26.3636H209.455V38H211.153V26.3636ZM217.2 38.1761C219.104 38.1761 220.45 37.2386 220.837 35.8182L219.229 35.5284C218.922 36.3523 218.183 36.7727 217.217 36.7727C215.763 36.7727 214.786 35.8295 214.74 34.1477H220.945V33.5455C220.945 30.392 219.058 29.1591 217.081 29.1591C214.649 29.1591 213.047 31.0114 213.047 33.6932C213.047 36.4034 214.626 38.1761 217.2 38.1761ZM214.746 32.875C214.814 31.6364 215.712 30.5625 217.092 30.5625C218.411 30.5625 219.274 31.5398 219.28 32.875H214.746Z" fill="#232323"/>
<path d="M96.321 63H102.99V61.8281H97.642V58.1207H102.564V56.9489H97.642V53.2628H102.905V52.0909H96.321V63ZM109.803 57.7372H105.03V58.9091H109.803V57.7372ZM115.339 63.1705C117.15 63.1705 118.343 62.0625 118.556 60.6136H117.299C117.065 61.5085 116.319 62.0412 115.339 62.0412C113.847 62.0412 112.888 60.8054 112.888 58.9091C112.888 57.0554 113.869 55.8409 115.339 55.8409C116.447 55.8409 117.107 56.5227 117.299 57.2685H118.556C118.343 55.7344 117.043 54.7116 115.317 54.7116C113.101 54.7116 111.631 56.4588 111.631 58.9517C111.631 61.402 113.038 63.1705 115.339 63.1705ZM123.718 63.1705C125.934 63.1705 127.425 61.4872 127.425 58.9517C127.425 56.3949 125.934 54.7116 123.718 54.7116C121.502 54.7116 120.01 56.3949 120.01 58.9517C120.01 61.4872 121.502 63.1705 123.718 63.1705ZM123.718 62.0412C122.034 62.0412 121.267 60.5923 121.267 58.9517C121.267 57.3111 122.034 55.8409 123.718 55.8409C125.401 55.8409 126.168 57.3111 126.168 58.9517C126.168 60.5923 125.401 62.0412 123.718 62.0412ZM129.344 63H130.601V57.8864C130.601 56.6879 131.475 55.8409 132.455 55.8409C133.408 55.8409 134.074 56.4641 134.074 57.3963V63H135.352V57.6733C135.352 56.6186 136.013 55.8409 137.164 55.8409C138.058 55.8409 138.825 56.315 138.825 57.5241V63H140.083V57.5241C140.083 55.6012 139.049 54.7116 137.59 54.7116C136.418 54.7116 135.56 55.2496 135.139 56.0966H135.054C134.649 55.223 133.936 54.7116 132.86 54.7116C131.794 54.7116 131.006 55.223 130.665 56.0966H130.558V54.8182H129.344V63ZM142.381 63H143.638V57.8864C143.638 56.6879 144.512 55.8409 145.492 55.8409C146.445 55.8409 147.111 56.4641 147.111 57.3963V63H148.39V57.6733C148.39 56.6186 149.05 55.8409 150.201 55.8409C151.096 55.8409 151.863 56.315 151.863 57.5241V63H153.12V57.5241C153.12 55.6012 152.086 54.7116 150.627 54.7116C149.455 54.7116 148.597 55.2496 148.176 56.0966H148.091C147.686 55.223 146.973 54.7116 145.897 54.7116C144.831 54.7116 144.043 55.223 143.702 56.0966H143.596V54.8182H142.381V63ZM158.849 63.1705C160.51 63.1705 161.725 62.3395 162.108 61.1037L160.894 60.7628C160.574 61.6151 159.834 62.0412 158.849 62.0412C157.373 62.0412 156.356 61.0877 156.297 59.3352H162.236V58.8026C162.236 55.7557 160.425 54.7116 158.721 54.7116C156.505 54.7116 155.035 56.4588 155.035 58.973C155.035 61.4872 156.483 63.1705 158.849 63.1705ZM156.297 58.2486C156.382 56.9755 157.282 55.8409 158.721 55.8409C160.084 55.8409 160.958 56.8636 160.958 58.2486H156.297ZM164.149 63H165.406V57.8224C165.406 56.7145 166.279 55.9048 167.472 55.9048C167.808 55.9048 168.154 55.9688 168.24 55.9901V54.7116C168.096 54.701 167.765 54.6903 167.579 54.6903C166.599 54.6903 165.747 55.2443 165.448 56.054H165.363V54.8182H164.149V63ZM172.805 63.1705C174.616 63.1705 175.809 62.0625 176.022 60.6136H174.765C174.53 61.5085 173.785 62.0412 172.805 62.0412C171.313 62.0412 170.354 60.8054 170.354 58.9091C170.354 57.0554 171.334 55.8409 172.805 55.8409C173.912 55.8409 174.573 56.5227 174.765 57.2685H176.022C175.809 55.7344 174.509 54.7116 172.783 54.7116C170.567 54.7116 169.097 56.4588 169.097 58.9517C169.097 61.402 170.503 63.1705 172.805 63.1705ZM181.29 63.1705C182.952 63.1705 184.166 62.3395 184.55 61.1037L183.335 60.7628C183.016 61.6151 182.275 62.0412 181.29 62.0412C179.814 62.0412 178.797 61.0877 178.738 59.3352H184.678V58.8026C184.678 55.7557 182.867 54.7116 181.162 54.7116C178.946 54.7116 177.476 56.4588 177.476 58.973C177.476 61.4872 178.925 63.1705 181.29 63.1705ZM178.738 58.2486C178.824 56.9755 179.724 55.8409 181.162 55.8409C182.526 55.8409 183.399 56.8636 183.399 58.2486H178.738ZM188.465 61.5085H187.101L187.037 62.1051C186.883 63.5487 186.579 64.9869 186.441 65.6634H187.4C187.655 64.9389 188.199 63.2983 188.38 62.0838L188.465 61.5085ZM195.183 52.0909V63H196.419V54.7116H196.526L199.935 63H201.128L204.537 54.7116H204.644V63H205.879V52.0909H204.303L200.595 61.1463H200.467L196.76 52.0909H195.183ZM210.765 63.1918C212.193 63.1918 212.939 62.4247 213.194 61.892H213.258V63H214.515V57.6094C214.515 55.0099 212.534 54.7116 211.49 54.7116C210.254 54.7116 208.848 55.1378 208.208 56.6293L209.402 57.0554C209.679 56.4588 210.334 55.8196 211.532 55.8196C212.688 55.8196 213.258 56.4322 213.258 57.4815V57.5241C213.258 58.1314 212.64 58.0781 211.149 58.2699C209.631 58.467 207.974 58.8026 207.974 60.6776C207.974 62.2756 209.21 63.1918 210.765 63.1918ZM210.957 62.0625C209.956 62.0625 209.231 61.6151 209.231 60.7415C209.231 59.7827 210.105 59.4844 211.085 59.3565C211.618 59.2926 213.045 59.1435 213.258 58.8878V60.0384C213.258 61.0611 212.449 62.0625 210.957 62.0625ZM216.81 63H218.067V57.8224C218.067 56.7145 218.94 55.9048 220.134 55.9048C220.469 55.9048 220.815 55.9688 220.901 55.9901V54.7116C220.757 54.701 220.427 54.6903 220.24 54.6903C219.26 54.6903 218.408 55.2443 218.109 56.054H218.024V54.8182H216.81V63ZM222.391 63H223.648V59.9371L224.527 59.1222L227.59 63H229.188L225.475 58.3125L228.932 54.8182H227.377L223.797 58.4616H223.648V52.0909H222.391V63ZM233.643 63.1705C235.305 63.1705 236.52 62.3395 236.903 61.1037L235.689 60.7628C235.369 61.6151 234.629 62.0412 233.643 62.0412C232.168 62.0412 231.151 61.0877 231.092 59.3352H237.031V58.8026C237.031 55.7557 235.22 54.7116 233.516 54.7116C231.3 54.7116 229.83 56.4588 229.83 58.973C229.83 61.4872 231.278 63.1705 233.643 63.1705ZM231.092 58.2486C231.177 56.9755 232.077 55.8409 233.516 55.8409C234.879 55.8409 235.753 56.8636 235.753 58.2486H231.092ZM242.502 54.8182H240.755V52.858H239.498V54.8182H238.262V55.8835H239.498V60.9972C239.498 62.4247 240.648 63.1065 241.713 63.1065C242.182 63.1065 242.48 63.0213 242.651 62.9574L242.395 61.8281C242.289 61.8494 242.118 61.892 241.841 61.892C241.287 61.892 240.755 61.7216 240.755 60.6562V55.8835H242.502V54.8182ZM244.393 66.0682H245.65V61.7429H245.756C246.033 62.1903 246.566 63.1705 248.143 63.1705C250.188 63.1705 251.616 61.5298 251.616 58.9304C251.616 56.3523 250.188 54.7116 248.121 54.7116C246.523 54.7116 246.033 55.6918 245.756 56.1179H245.607V54.8182H244.393V66.0682ZM245.629 58.9091C245.629 57.0767 246.438 55.8409 247.972 55.8409C249.57 55.8409 250.359 57.1832 250.359 58.9091C250.359 60.6562 249.549 62.0412 247.972 62.0412C246.46 62.0412 245.629 60.7628 245.629 58.9091ZM254.79 52.0909H253.533V63H254.79V52.0909ZM259.501 63.1918C260.928 63.1918 261.674 62.4247 261.93 61.892H261.994V63H263.251V57.6094C263.251 55.0099 261.269 54.7116 260.225 54.7116C258.989 54.7116 257.583 55.1378 256.944 56.6293L258.137 57.0554C258.414 56.4588 259.069 55.8196 260.268 55.8196C261.424 55.8196 261.994 56.4322 261.994 57.4815V57.5241C261.994 58.1314 261.376 58.0781 259.884 58.2699C258.366 58.467 256.709 58.8026 256.709 60.6776C256.709 62.2756 257.945 63.1918 259.501 63.1918ZM259.692 62.0625C258.691 62.0625 257.967 61.6151 257.967 60.7415C257.967 59.7827 258.84 59.4844 259.82 59.3565C260.353 59.2926 261.78 59.1435 261.994 58.8878V60.0384C261.994 61.0611 261.184 62.0625 259.692 62.0625ZM268.869 63.1705C270.68 63.1705 271.873 62.0625 272.086 60.6136H270.829C270.595 61.5085 269.849 62.0412 268.869 62.0412C267.377 62.0412 266.419 60.8054 266.419 58.9091C266.419 57.0554 267.399 55.8409 268.869 55.8409C269.977 55.8409 270.637 56.5227 270.829 57.2685H272.086C271.873 55.7344 270.574 54.7116 268.848 54.7116C266.632 54.7116 265.162 56.4588 265.162 58.9517C265.162 61.402 266.568 63.1705 268.869 63.1705ZM277.354 63.1705C279.016 63.1705 280.231 62.3395 280.614 61.1037L279.4 60.7628C279.08 61.6151 278.34 62.0412 277.354 62.0412C275.879 62.0412 274.862 61.0877 274.803 59.3352H280.742V58.8026C280.742 55.7557 278.931 54.7116 277.227 54.7116C275.011 54.7116 273.54 56.4588 273.54 58.973C273.54 61.4872 274.989 63.1705 277.354 63.1705ZM274.803 58.2486C274.888 56.9755 275.788 55.8409 277.227 55.8409C278.59 55.8409 279.464 56.8636 279.464 58.2486H274.803Z" fill="#718EBF"/>
<path d="M342.625 39.4545H343.693L343.699 38.1761C346.102 38 347.477 36.625 347.477 34.7841C347.477 32.6875 345.608 31.875 344.131 31.5114L343.716 31.4034L343.727 27.7557C344.79 27.8977 345.517 28.4886 345.625 29.4205H347.318C347.273 27.6875 345.841 26.392 343.733 26.2216L343.739 24.9091H342.67L342.665 26.233C340.625 26.4375 339.131 27.7102 339.131 29.5455C339.131 31.1648 340.29 32.1136 342.159 32.6193L342.648 32.75L342.636 36.6193C341.528 36.483 340.67 35.8807 340.58 34.7841H338.818C338.926 36.7443 340.341 38.0057 342.631 38.1761L342.625 39.4545ZM343.705 36.6193L343.716 33.0455C344.869 33.3636 345.739 33.7841 345.739 34.767C345.739 35.7614 344.909 36.4602 343.705 36.6193ZM342.653 31.1193C341.807 30.8693 340.875 30.4205 340.881 29.4432C340.881 28.5909 341.557 27.9261 342.659 27.7614L342.653 31.1193ZM349.416 38H357.075V36.4943H351.837V36.4091L354.149 33.9886C356.28 31.8352 356.888 30.8068 356.888 29.5057C356.888 27.6364 355.365 26.2045 353.172 26.2045C350.996 26.2045 349.405 27.6136 349.405 29.7386H351.081C351.075 28.4886 351.882 27.6705 353.138 27.6705C354.32 27.6705 355.217 28.3977 355.217 29.5568C355.217 30.5852 354.604 31.3239 353.354 32.6477L349.416 36.7273V38ZM363.07 38.1591C365.411 38.1591 367.081 36.5057 367.075 34.2386C367.081 31.9886 365.513 30.3523 363.393 30.3523C362.53 30.3523 361.729 30.6818 361.274 31.125H361.206L361.575 27.8693H366.513V26.3636H360.115L359.462 32.2273L361.07 32.4659C361.507 32.0739 362.291 31.8068 362.996 31.8068C364.376 31.8182 365.376 32.8523 365.376 34.2727C365.376 35.6705 364.405 36.6818 363.07 36.6818C361.945 36.6818 361.053 35.9659 360.962 34.9659H359.257C359.325 36.8182 360.933 38.1591 363.07 38.1591ZM370.977 36.4091H369.341L369.284 37.0455C369.153 38.5852 368.79 40.1364 368.636 40.8409H369.841C370.114 40.0966 370.716 38.392 370.892 37.0284L370.977 36.4091ZM376.999 38.1591C379.374 38.1591 381.118 36.7386 381.112 34.8068C381.118 33.3352 380.226 32.2784 378.68 32.0398V31.9489C379.896 31.6364 380.686 30.6818 380.68 29.375C380.686 27.6648 379.283 26.2045 377.044 26.2045C374.908 26.2045 373.192 27.4943 373.135 29.3864H374.834C374.874 28.3182 375.879 27.6705 377.021 27.6705C378.209 27.6705 378.987 28.392 378.982 29.4659C378.987 30.5909 378.084 31.3295 376.794 31.3295H375.811V32.7614H376.794C378.408 32.7614 379.339 33.5795 379.339 34.75C379.339 35.8807 378.357 36.6477 376.987 36.6477C375.726 36.6477 374.743 36 374.675 34.9659H372.891C372.964 36.8636 374.646 38.1591 376.999 38.1591ZM387.311 38.1932C389.999 38.1932 391.572 36 391.572 32.1875C391.572 28.4034 389.976 26.2045 387.311 26.2045C384.641 26.2045 383.05 28.3977 383.044 32.1875C383.044 35.9943 384.618 38.1875 387.311 38.1932ZM387.311 36.6761C385.737 36.6761 384.788 35.0966 384.788 32.1875C384.794 29.2898 385.743 27.6932 387.311 27.6932C388.874 27.6932 389.828 29.2898 389.828 32.1875C389.828 35.0966 388.879 36.6761 387.311 36.6761ZM397.639 38.1932C400.327 38.1932 401.901 36 401.901 32.1875C401.901 28.4034 400.304 26.2045 397.639 26.2045C394.969 26.2045 393.378 28.3977 393.372 32.1875C393.372 35.9943 394.946 38.1875 397.639 38.1932ZM397.639 36.6761C396.065 36.6761 395.116 35.0966 395.116 32.1875C395.122 29.2898 396.071 27.6932 397.639 27.6932C399.202 27.6932 400.156 29.2898 400.156 32.1875C400.156 35.0966 399.207 36.6761 397.639 36.6761Z" fill="#232323"/>
<path d="M339.321 63H345.99V61.8281H340.642V58.1207H345.564V56.9489H340.642V53.2628H345.905V52.0909H339.321V63ZM349.373 58.0781C349.373 56.6506 350.257 55.8409 351.461 55.8409C352.627 55.8409 353.336 56.6026 353.336 57.8864V63H354.593V57.8011C354.593 55.7131 353.479 54.7116 351.823 54.7116C350.587 54.7116 349.82 55.2656 349.436 56.0966H349.33V54.8182H348.115V63H349.373V58.0781ZM363.287 54.8182H361.924L359.665 61.3381H359.58L357.321 54.8182H355.958L358.983 63H360.262L363.287 54.8182ZM368.084 63.1705C369.746 63.1705 370.96 62.3395 371.344 61.1037L370.129 60.7628C369.81 61.6151 369.069 62.0412 368.084 62.0412C366.608 62.0412 365.591 61.0877 365.532 59.3352H371.472V58.8026C371.472 55.7557 369.661 54.7116 367.956 54.7116C365.74 54.7116 364.27 56.4588 364.27 58.973C364.27 61.4872 365.719 63.1705 368.084 63.1705ZM365.532 58.2486C365.618 56.9755 366.518 55.8409 367.956 55.8409C369.32 55.8409 370.193 56.8636 370.193 58.2486H365.532ZM379.179 56.6506C378.785 55.4893 377.901 54.7116 376.282 54.7116C374.556 54.7116 373.277 55.6918 373.277 57.0767C373.277 58.206 373.949 58.9624 375.451 59.3139L376.814 59.6335C377.64 59.8253 378.029 60.2195 378.029 60.7841C378.029 61.4872 377.283 62.0625 376.111 62.0625C375.083 62.0625 374.439 61.6204 374.215 60.7415L373.022 61.0398C373.315 62.43 374.46 63.1705 376.133 63.1705C378.034 63.1705 379.329 62.1317 379.329 60.7202C379.329 59.5803 378.615 58.8612 377.155 58.5043L375.941 58.206C374.971 57.9663 374.535 57.6413 374.535 57.0128C374.535 56.3097 375.28 55.7983 376.282 55.7983C377.379 55.7983 377.832 56.4055 378.05 56.9702L379.179 56.6506ZM384.779 54.8182H383.032V52.858H381.775V54.8182H380.539V55.8835H381.775V60.9972C381.775 62.4247 382.925 63.1065 383.991 63.1065C384.46 63.1065 384.758 63.0213 384.928 62.9574L384.673 61.8281C384.566 61.8494 384.396 61.892 384.119 61.892C383.565 61.892 383.032 61.7216 383.032 60.6562V55.8835H384.779V54.8182ZM386.67 63H387.927V57.8864C387.927 56.6879 388.801 55.8409 389.781 55.8409C390.734 55.8409 391.4 56.4641 391.4 57.3963V63H392.679V57.6733C392.679 56.6186 393.339 55.8409 394.49 55.8409C395.385 55.8409 396.152 56.315 396.152 57.5241V63H397.409V57.5241C397.409 55.6012 396.375 54.7116 394.916 54.7116C393.744 54.7116 392.886 55.2496 392.466 56.0966H392.38C391.975 55.223 391.262 54.7116 390.186 54.7116C389.12 54.7116 388.332 55.223 387.991 56.0966H387.885V54.8182H386.67V63ZM403.138 63.1705C404.8 63.1705 406.014 62.3395 406.398 61.1037L405.183 60.7628C404.863 61.6151 404.123 62.0412 403.138 62.0412C401.662 62.0412 400.645 61.0877 400.586 59.3352H406.525V58.8026C406.525 55.7557 404.714 54.7116 403.01 54.7116C400.794 54.7116 399.324 56.4588 399.324 58.973C399.324 61.4872 400.773 63.1705 403.138 63.1705ZM400.586 58.2486C400.671 56.9755 401.572 55.8409 403.01 55.8409C404.373 55.8409 405.247 56.8636 405.247 58.2486H400.586ZM409.695 58.0781C409.695 56.6506 410.579 55.8409 411.783 55.8409C412.949 55.8409 413.658 56.6026 413.658 57.8864V63H414.915V57.8011C414.915 55.7131 413.802 54.7116 412.145 54.7116C410.909 54.7116 410.142 55.2656 409.759 56.0966H409.652V54.8182H408.438V63H409.695V58.0781ZM420.77 54.8182H419.023V52.858H417.766V54.8182H416.53V55.8835H417.766V60.9972C417.766 62.4247 418.917 63.1065 419.982 63.1065C420.451 63.1065 420.749 63.0213 420.919 62.9574L420.664 61.8281C420.557 61.8494 420.387 61.892 420.11 61.892C419.556 61.892 419.023 61.7216 419.023 60.6562V55.8835H420.77V54.8182ZM427.498 52.0909H426.113L430.119 63H431.482L435.488 52.0909H434.103L430.864 61.2741H430.737L427.498 52.0909ZM438.663 63.1918C440.09 63.1918 440.836 62.4247 441.092 61.892H441.156V63H442.413V57.6094C442.413 55.0099 440.431 54.7116 439.387 54.7116C438.151 54.7116 436.745 55.1378 436.106 56.6293L437.299 57.0554C437.576 56.4588 438.231 55.8196 439.43 55.8196C440.586 55.8196 441.156 56.4322 441.156 57.4815V57.5241C441.156 58.1314 440.538 58.0781 439.046 58.2699C437.528 58.467 435.872 58.8026 435.872 60.6776C435.872 62.2756 437.107 63.1918 438.663 63.1918ZM438.854 62.0625C437.853 62.0625 437.129 61.6151 437.129 60.7415C437.129 59.7827 438.002 59.4844 438.982 59.3565C439.515 59.2926 440.943 59.1435 441.156 58.8878V60.0384C441.156 61.0611 440.346 62.0625 438.854 62.0625ZM445.964 52.0909H444.707V63H445.964V52.0909ZM453.423 59.6548C453.423 61.1889 452.251 61.892 451.314 61.892C450.27 61.892 449.524 61.125 449.524 59.9318V54.8182H448.267V60.017C448.267 62.1051 449.375 63.1065 450.909 63.1065C452.145 63.1065 452.954 62.446 453.338 61.6151H453.423V63H454.68V54.8182H453.423V59.6548ZM460.413 63.1705C462.075 63.1705 463.289 62.3395 463.673 61.1037L462.458 60.7628C462.139 61.6151 461.398 62.0412 460.413 62.0412C458.938 62.0412 457.92 61.0877 457.862 59.3352H463.801V58.8026C463.801 55.7557 461.99 54.7116 460.285 54.7116C458.069 54.7116 456.599 56.4588 456.599 58.973C456.599 61.4872 458.048 63.1705 460.413 63.1705ZM457.862 58.2486C457.947 56.9755 458.847 55.8409 460.285 55.8409C461.649 55.8409 462.522 56.8636 462.522 58.2486H457.862Z" fill="#718EBF"/>
<path d="M515.284 31.4489H510.125V32.9205H515.284V31.4489ZM517.281 35.7273H522.798V38H524.474V35.7273H526.014V34.2386H524.474V26.3636H522.31L517.281 34.3068V35.7273ZM522.81 34.2386H519.122V34.1477L522.719 28.4545H522.81V34.2386ZM534.068 35.8182C534.074 37.1307 534.898 38.2386 536.438 38.2386C537.96 38.2386 538.795 37.1307 538.795 35.8182V35.2045C538.795 33.8864 537.983 32.7841 536.438 32.7841C534.92 32.7841 534.074 33.892 534.068 35.2045V35.8182ZM528.216 29.1591C528.216 30.4716 529.045 31.5795 530.585 31.5795C532.102 31.5795 532.943 30.4773 532.938 29.1591V28.5455C532.943 27.2273 532.125 26.125 530.585 26.125C529.074 26.125 528.216 27.2273 528.216 28.5455V29.1591ZM528.693 38H530.051L538.051 26.3636H536.693L528.693 38ZM535.392 35.2045C535.398 34.5511 535.682 33.9205 536.438 33.9205C537.222 33.9205 537.466 34.5511 537.466 35.2045V35.8182C537.466 36.4716 537.199 37.1023 536.438 37.1023C535.665 37.1023 535.398 36.4659 535.392 35.8182V35.2045ZM529.545 28.5455C529.545 27.8977 529.83 27.2614 530.585 27.2614C531.369 27.2614 531.614 27.892 531.614 28.5455V29.1591C531.614 29.8125 531.347 30.4432 530.585 30.4432C529.812 30.4432 529.545 29.8125 529.545 29.1591V28.5455Z" fill="#FE5C73"/>
<path d="M510.321 63H511.642V58.7386H514.028C514.124 58.7386 514.215 58.7386 514.305 58.7333L516.607 63H518.141L515.674 58.4936C517.065 58.0195 517.714 56.8849 517.714 55.4361C517.714 53.5078 516.564 52.0909 514.007 52.0909H510.321V63ZM511.642 57.5455V53.2628H513.964C515.733 53.2628 516.415 54.1257 516.415 55.4361C516.415 56.7464 515.733 57.5455 513.986 57.5455H511.642ZM523.088 63.1705C524.75 63.1705 525.964 62.3395 526.348 61.1037L525.133 60.7628C524.814 61.6151 524.073 62.0412 523.088 62.0412C521.612 62.0412 520.595 61.0877 520.536 59.3352H526.476V58.8026C526.476 55.7557 524.665 54.7116 522.96 54.7116C520.744 54.7116 519.274 56.4588 519.274 58.973C519.274 61.4872 520.723 63.1705 523.088 63.1705ZM520.536 58.2486C520.622 56.9755 521.522 55.8409 522.96 55.8409C524.324 55.8409 525.197 56.8636 525.197 58.2486H520.536ZM531.946 54.8182H530.199V52.858H528.942V54.8182H527.706V55.8835H528.942V60.9972C528.942 62.4247 530.092 63.1065 531.158 63.1065C531.627 63.1065 531.925 63.0213 532.095 62.9574L531.84 61.8281C531.733 61.8494 531.563 61.892 531.286 61.892C530.732 61.892 530.199 61.7216 530.199 60.6562V55.8835H531.946V54.8182ZM538.993 59.6548C538.993 61.1889 537.821 61.892 536.884 61.892C535.84 61.892 535.094 61.125 535.094 59.9318V54.8182H533.837V60.017C533.837 62.1051 534.945 63.1065 536.479 63.1065C537.715 63.1065 538.525 62.446 538.908 61.6151H538.993V63H540.25V54.8182H538.993V59.6548ZM542.553 63H543.81V57.8224C543.81 56.7145 544.684 55.9048 545.877 55.9048C546.212 55.9048 546.559 55.9688 546.644 55.9901V54.7116C546.5 54.701 546.17 54.6903 545.983 54.6903C545.003 54.6903 544.151 55.2443 543.853 56.054H543.767V54.8182H542.553V63ZM549.391 58.0781C549.391 56.6506 550.275 55.8409 551.479 55.8409C552.646 55.8409 553.354 56.6026 553.354 57.8864V63H554.611V57.8011C554.611 55.7131 553.498 54.7116 551.841 54.7116C550.606 54.7116 549.839 55.2656 549.455 56.0966H549.348V54.8182H548.134V63H549.391V58.0781ZM561.745 52.0909H560.36L564.366 63H565.729L569.735 52.0909H568.35L565.112 61.2741H564.984L561.745 52.0909ZM572.91 63.1918C574.337 63.1918 575.083 62.4247 575.339 61.892H575.403V63H576.66V57.6094C576.66 55.0099 574.678 54.7116 573.634 54.7116C572.398 54.7116 570.992 55.1378 570.353 56.6293L571.546 57.0554C571.823 56.4588 572.478 55.8196 573.677 55.8196C574.833 55.8196 575.403 56.4322 575.403 57.4815V57.5241C575.403 58.1314 574.785 58.0781 573.293 58.2699C571.775 58.467 570.119 58.8026 570.119 60.6776C570.119 62.2756 571.354 63.1918 572.91 63.1918ZM573.102 62.0625C572.1 62.0625 571.376 61.6151 571.376 60.7415C571.376 59.7827 572.249 59.4844 573.229 59.3565C573.762 59.2926 575.19 59.1435 575.403 58.8878V60.0384C575.403 61.0611 574.593 62.0625 573.102 62.0625ZM580.211 52.0909H578.954V63H580.211V52.0909ZM587.67 59.6548C587.67 61.1889 586.498 61.892 585.561 61.892C584.517 61.892 583.771 61.125 583.771 59.9318V54.8182H582.514V60.017C582.514 62.1051 583.622 63.1065 585.156 63.1065C586.392 63.1065 587.201 62.446 587.585 61.6151H587.67V63H588.927V54.8182H587.67V59.6548ZM594.66 63.1705C596.322 63.1705 597.536 62.3395 597.92 61.1037L596.706 60.7628C596.386 61.6151 595.646 62.0412 594.66 62.0412C593.185 62.0412 592.167 61.0877 592.109 59.3352H598.048V58.8026C598.048 55.7557 596.237 54.7116 594.532 54.7116C592.316 54.7116 590.846 56.4588 590.846 58.973C590.846 61.4872 592.295 63.1705 594.66 63.1705ZM592.109 58.2486C592.194 56.9755 593.094 55.8409 594.532 55.8409C595.896 55.8409 596.769 56.8636 596.769 58.2486H592.109Z" fill="#718EBF"/>
<rect x="15" y="15" width="60" height="60" rx="20" fill="#E7EDFF"/>
<path d="M57.5021 45.7852C57.5032 44.9334 57.4311 44.0831 57.2868 43.2437H45.499V48.0577H52.2505C52.1124 48.8266 51.82 49.5595 51.3909 50.2124C50.9619 50.8652 50.4051 51.4244 49.7541 51.8562V54.9811H53.7835C56.1428 52.8058 57.5021 49.5889 57.5021 45.7852Z" fill="#4471FF"/>
<path d="M45.4991 57.9999C48.8722 57.9999 51.7124 56.8923 53.7835 54.9826L49.7542 51.8577C48.6327 52.6181 47.1883 53.0521 45.4991 53.0521C42.2388 53.0521 39.4715 50.8543 38.482 47.8926H34.3311V51.113C35.3714 53.1832 36.9667 54.9235 38.9388 56.1396C40.9109 57.3557 43.1822 57.9998 45.4991 57.9999Z" fill="#4471FF"/>
<path d="M38.4819 47.8926C37.9587 46.3407 37.9587 44.66 38.4819 43.1081V39.8877H34.331C33.4558 41.6292 33 43.5513 33 45.5004C33 47.4494 33.4558 49.3715 34.331 51.113L38.4819 47.8926Z" fill="#4471FF"/>
<path d="M45.4991 37.9486C47.2816 37.9195 49.0041 38.593 50.2941 39.8235L53.8617 36.2559C51.5994 34.1311 48.6025 32.9646 45.4991 33.0008C43.1822 33.0009 40.9109 33.645 38.9388 34.8611C36.9667 36.0772 35.3714 37.8175 34.3311 39.8877L38.482 43.1081C39.4715 40.1464 42.2388 37.9486 45.4991 37.9486Z" fill="#4471FF"/>
</svg>
