<svg width="325" height="69" viewBox="0 0 325 69" fill="none" xmlns="http://www.w3.org/2000/svg">
<rect width="325" height="69" rx="10" fill="white"/>
<path d="M69.6165 22.1406H72.7884V31H74.3196V22.1406H77.4964V20.8182H69.6165V22.1406ZM81.3022 31.1541C82.9677 31.1541 84.146 30.3338 84.484 29.0909L83.0771 28.8374C82.8086 29.5582 82.1623 29.9261 81.3171 29.9261C80.0444 29.9261 79.1893 29.1009 79.1495 27.6293H84.5785V27.1023C84.5785 24.343 82.9279 23.2642 81.1978 23.2642C79.07 23.2642 77.668 24.8849 77.668 27.2315C77.668 29.603 79.0501 31.1541 81.3022 31.1541ZM79.1545 26.5156C79.2141 25.4318 79.9996 24.4922 81.2077 24.4922C82.3612 24.4922 83.1168 25.3473 83.1218 26.5156H79.1545ZM91.9501 25.228C91.6419 24.0398 90.7122 23.2642 89.0616 23.2642C87.3365 23.2642 86.1135 24.174 86.1135 25.5263C86.1135 26.6101 86.7697 27.331 88.2015 27.6491L89.4941 27.9325C90.2299 28.0966 90.573 28.4247 90.573 28.902C90.573 29.4936 89.9416 29.956 88.9672 29.956C88.0772 29.956 87.5055 29.5732 87.3265 28.8224L85.8897 29.0412C86.1383 30.3935 87.2619 31.1541 88.9771 31.1541C90.8216 31.1541 92.0993 30.1747 92.0993 28.7926C92.0993 27.7138 91.4132 27.0476 90.0112 26.7244L88.7981 26.446C87.9579 26.2472 87.595 25.9638 87.6 25.4467C87.595 24.8601 88.2314 24.4425 89.0765 24.4425C90.0012 24.4425 90.4288 24.9545 90.6028 25.4666L91.9501 25.228ZM95.2202 20.8182H93.7337V31H95.2202V20.8182ZM99.4423 31.169C100.705 31.169 101.416 30.5277 101.699 29.956H101.759V31H103.211V25.929C103.211 23.7067 101.461 23.2642 100.248 23.2642C98.8656 23.2642 97.5929 23.821 97.0957 25.2131L98.4927 25.5312C98.7115 24.9893 99.2683 24.4673 100.268 24.4673C101.227 24.4673 101.719 24.9695 101.719 25.8345V25.8693C101.719 26.4112 101.162 26.4013 99.7903 26.5604C98.3436 26.7294 96.862 27.1072 96.862 28.8423C96.862 30.3438 97.9906 31.169 99.4423 31.169ZM99.7654 29.9759C98.9252 29.9759 98.3187 29.598 98.3187 28.8622C98.3187 28.0668 99.0247 27.7834 99.8848 27.669C100.367 27.6044 101.51 27.4751 101.724 27.2614V28.2457C101.724 29.1506 101.003 29.9759 99.7654 29.9759ZM109.015 20.8182V31H110.477V23.6271H110.571L113.574 30.9851H114.787L117.79 23.6321H117.884V31H119.346V20.8182H117.482L114.24 28.733H114.121L110.879 20.8182H109.015ZM124.677 31.1541C126.83 31.1541 128.237 29.5781 128.237 27.2166C128.237 24.8402 126.83 23.2642 124.677 23.2642C122.524 23.2642 121.117 24.8402 121.117 27.2166C121.117 29.5781 122.524 31.1541 124.677 31.1541ZM124.682 29.9062C123.275 29.9062 122.619 28.6783 122.619 27.2116C122.619 25.75 123.275 24.5071 124.682 24.5071C126.079 24.5071 126.735 25.75 126.735 27.2116C126.735 28.6783 126.079 29.9062 124.682 29.9062ZM133.46 23.3636H131.894V21.5341H130.408V23.3636H129.289V24.5568H130.408V29.0661C130.403 30.4531 131.462 31.1243 132.635 31.0994C133.107 31.0945 133.426 31.005 133.6 30.9403L133.331 29.7124C133.232 29.7322 133.048 29.777 132.809 29.777C132.327 29.777 131.894 29.6179 131.894 28.7578V24.5568H133.46V23.3636ZM138.239 31.1541C140.392 31.1541 141.799 29.5781 141.799 27.2166C141.799 24.8402 140.392 23.2642 138.239 23.2642C136.087 23.2642 134.68 24.8402 134.68 27.2166C134.68 29.5781 136.087 31.1541 138.239 31.1541ZM138.244 29.9062C136.837 29.9062 136.181 28.6783 136.181 27.2116C136.181 25.75 136.837 24.5071 138.244 24.5071C139.641 24.5071 140.298 25.75 140.298 27.2116C140.298 28.6783 139.641 29.9062 138.244 29.9062ZM143.458 31H144.945V26.3366C144.945 25.3374 145.715 24.6165 146.769 24.6165C147.078 24.6165 147.426 24.6712 147.545 24.706V23.2841C147.396 23.2642 147.102 23.2493 146.914 23.2493C146.019 23.2493 145.253 23.7564 144.975 24.5767H144.895V23.3636H143.458V31ZM154.554 25.228C154.245 24.0398 153.316 23.2642 151.665 23.2642C149.94 23.2642 148.717 24.174 148.717 25.5263C148.717 26.6101 149.373 27.331 150.805 27.6491L152.098 27.9325C152.833 28.0966 153.176 28.4247 153.176 28.902C153.176 29.4936 152.545 29.956 151.571 29.956C150.681 29.956 150.109 29.5732 149.93 28.8224L148.493 29.0412C148.742 30.3935 149.865 31.1541 151.581 31.1541C153.425 31.1541 154.703 30.1747 154.703 28.7926C154.703 27.7138 154.017 27.0476 152.615 26.7244L151.402 26.446C150.561 26.2472 150.199 25.9638 150.203 25.4467C150.199 24.8601 150.835 24.4425 151.68 24.4425C152.605 24.4425 153.032 24.9545 153.206 25.4666L154.554 25.228Z" fill="#232323"/>
<path d="M70.0568 50H75.392V49.0625H71.1136V46.0966H75.0511V45.1591H71.1136V42.2102H75.3239V41.2727H70.0568V50ZM78.098 41.2727H77.0923V50H78.098V41.2727ZM82.6843 50.1364C84.0138 50.1364 84.9854 49.4716 85.2923 48.483L84.3207 48.2102C84.065 48.892 83.4727 49.233 82.6843 49.233C81.5039 49.233 80.69 48.4702 80.6431 47.0682H85.3945V46.642C85.3945 44.2045 83.9457 43.3693 82.582 43.3693C80.8093 43.3693 79.6332 44.767 79.6332 46.7784C79.6332 48.7898 80.7923 50.1364 82.6843 50.1364ZM80.6431 46.1989C80.7113 45.1804 81.4315 44.2727 82.582 44.2727C83.6729 44.2727 84.3718 45.0909 84.3718 46.1989H80.6431ZM89.5835 50.1364C91.0323 50.1364 91.9869 49.25 92.1573 48.0909H91.1516C90.9641 48.8068 90.3675 49.233 89.5835 49.233C88.3903 49.233 87.6232 48.2443 87.6232 46.7273C87.6232 45.2443 88.4073 44.2727 89.5835 44.2727C90.4698 44.2727 90.9982 44.8182 91.1516 45.4148H92.1573C91.9869 44.1875 90.9471 43.3693 89.5664 43.3693C87.7937 43.3693 86.6175 44.767 86.6175 46.7614C86.6175 48.7216 87.7425 50.1364 89.5835 50.1364ZM96.4741 43.4545H95.0763V41.8864H94.0707V43.4545H93.082V44.3068H94.0707V48.3977C94.0707 49.5398 94.9911 50.0852 95.8434 50.0852C96.2184 50.0852 96.457 50.017 96.5934 49.9659L96.3888 49.0625C96.3036 49.0795 96.1673 49.1136 95.9457 49.1136C95.5025 49.1136 95.0763 48.9773 95.0763 48.125V44.3068H96.4741V43.4545ZM97.9869 50H98.9925V45.858C98.9925 44.9716 99.6914 44.3239 100.646 44.3239C100.914 44.3239 101.191 44.375 101.26 44.392V43.3693C101.145 43.3608 100.88 43.3523 100.731 43.3523C99.9471 43.3523 99.2653 43.7955 99.0266 44.4432H98.9585V43.4545H97.9869V50ZM102.452 50H103.457V43.4545H102.452V50ZM102.963 42.3636C103.355 42.3636 103.679 42.0568 103.679 41.6818C103.679 41.3068 103.355 41 102.963 41C102.571 41 102.247 41.3068 102.247 41.6818C102.247 42.0568 102.571 42.3636 102.963 42.3636ZM107.958 50.1364C109.407 50.1364 110.362 49.25 110.532 48.0909H109.527C109.339 48.8068 108.743 49.233 107.958 49.233C106.765 49.233 105.998 48.2443 105.998 46.7273C105.998 45.2443 106.782 44.2727 107.958 44.2727C108.845 44.2727 109.373 44.8182 109.527 45.4148H110.532C110.362 44.1875 109.322 43.3693 107.941 43.3693C106.169 43.3693 104.993 44.767 104.993 46.7614C104.993 48.7216 106.118 50.1364 107.958 50.1364ZM115.872 41.2727H114.764L117.968 50H119.059L122.264 41.2727H121.156L118.565 48.6193H118.463L115.872 41.2727ZM125.622 50.1364C126.951 50.1364 127.923 49.4716 128.23 48.483L127.258 48.2102C127.002 48.892 126.41 49.233 125.622 49.233C124.441 49.233 123.627 48.4702 123.581 47.0682H128.332V46.642C128.332 44.2045 126.883 43.3693 125.52 43.3693C123.747 43.3693 122.571 44.767 122.571 46.7784C122.571 48.7898 123.73 50.1364 125.622 50.1364ZM123.581 46.1989C123.649 45.1804 124.369 44.2727 125.52 44.2727C126.61 44.2727 127.309 45.0909 127.309 46.1989H123.581ZM130.868 46.0625C130.868 44.9205 131.596 44.2727 132.589 44.2727C133.535 44.2727 134.106 44.8693 134.106 45.9091V50H135.112V45.8409C135.112 44.1577 134.217 43.3693 132.879 43.3693C131.848 43.3693 131.26 43.7997 130.953 44.4773H130.868V41.2727H129.862V50H130.868V46.0625ZM136.952 50H137.957V43.4545H136.952V50ZM137.463 42.3636C137.855 42.3636 138.179 42.0568 138.179 41.6818C138.179 41.3068 137.855 41 137.463 41C137.071 41 136.747 41.3068 136.747 41.6818C136.747 42.0568 137.071 42.3636 137.463 42.3636ZM142.458 50.1364C143.907 50.1364 144.862 49.25 145.032 48.0909H144.027C143.839 48.8068 143.243 49.233 142.458 49.233C141.265 49.233 140.498 48.2443 140.498 46.7273C140.498 45.2443 141.282 44.2727 142.458 44.2727C143.345 44.2727 143.873 44.8182 144.027 45.4148H145.032C144.862 44.1875 143.822 43.3693 142.441 43.3693C140.669 43.3693 139.493 44.767 139.493 46.7614C139.493 48.7216 140.618 50.1364 142.458 50.1364ZM147.508 41.2727H146.502V50H147.508V41.2727ZM152.094 50.1364C153.424 50.1364 154.396 49.4716 154.702 48.483L153.731 48.2102C153.475 48.892 152.883 49.233 152.094 49.233C150.914 49.233 150.1 48.4702 150.053 47.0682H154.805V46.642C154.805 44.2045 153.356 43.3693 151.992 43.3693C150.219 43.3693 149.043 44.767 149.043 46.7784C149.043 48.7898 150.202 50.1364 152.094 50.1364ZM150.053 46.1989C150.121 45.1804 150.842 44.2727 151.992 44.2727C153.083 44.2727 153.782 45.0909 153.782 46.1989H150.053ZM160.971 44.9205C160.656 43.9915 159.948 43.3693 158.653 43.3693C157.272 43.3693 156.249 44.1534 156.249 45.2614C156.249 46.1648 156.786 46.7699 157.988 47.0511L159.079 47.3068C159.739 47.4602 160.05 47.7756 160.05 48.2273C160.05 48.7898 159.454 49.25 158.516 49.25C157.694 49.25 157.178 48.8963 156.999 48.1932L156.045 48.4318C156.279 49.544 157.195 50.1364 158.533 50.1364C160.055 50.1364 161.09 49.3054 161.09 48.1761C161.09 47.2642 160.519 46.6889 159.352 46.4034L158.38 46.1648C157.604 45.973 157.255 45.7131 157.255 45.2102C157.255 44.6477 157.852 44.2386 158.653 44.2386C159.531 44.2386 159.893 44.7244 160.067 45.1761L160.971 44.9205Z" fill="#718EBF"/>
<path d="M281.043 37.5341H282.189V35.2244H284.499V34.0781H282.189V31.7727H281.043V34.0781H278.738V35.2244H281.043V37.5341ZM286.101 39H291.846V37.8707H287.917V37.8068L289.651 35.9915C291.249 34.3764 291.705 33.6051 291.705 32.6293C291.705 31.2273 290.563 30.1534 288.918 30.1534C287.286 30.1534 286.093 31.2102 286.093 32.804H287.35C287.346 31.8665 287.951 31.2528 288.892 31.2528C289.779 31.2528 290.452 31.7983 290.452 32.6676C290.452 33.4389 289.992 33.9929 289.054 34.9858L286.101 38.0455V39ZM296.341 39.1193C298.097 39.1193 299.35 37.8793 299.346 36.179C299.35 34.4915 298.174 33.2642 296.584 33.2642C295.936 33.2642 295.336 33.5114 294.995 33.8438H294.944L295.221 31.402H298.924V30.2727H294.125L293.635 34.6705L294.841 34.8494C295.169 34.5554 295.757 34.3551 296.286 34.3551C297.321 34.3636 298.071 35.1392 298.071 36.2045C298.071 37.2528 297.343 38.0114 296.341 38.0114C295.498 38.0114 294.828 37.4744 294.76 36.7244H293.482C293.533 38.1136 294.739 39.1193 296.341 39.1193ZM305.457 37.3636C305.462 38.348 306.08 39.179 307.234 39.179C308.376 39.179 309.003 38.348 309.003 37.3636V36.9034C309.003 35.9148 308.393 35.0881 307.234 35.0881C306.097 35.0881 305.462 35.919 305.457 36.9034V37.3636ZM301.068 32.3693C301.068 33.3537 301.69 34.1847 302.845 34.1847C303.983 34.1847 304.614 33.358 304.609 32.3693V31.9091C304.614 30.9205 304 30.0938 302.845 30.0938C301.712 30.0938 301.068 30.9205 301.068 31.9091V32.3693ZM301.426 39H302.445L308.445 30.2727H307.426L301.426 39ZM306.45 36.9034C306.455 36.4134 306.668 35.9403 307.234 35.9403C307.822 35.9403 308.006 36.4134 308.006 36.9034V37.3636C308.006 37.8537 307.805 38.3267 307.234 38.3267C306.655 38.3267 306.455 37.8494 306.45 37.3636V36.9034ZM302.065 31.9091C302.065 31.4233 302.278 30.946 302.845 30.946C303.433 30.946 303.616 31.419 303.616 31.9091V32.3693C303.616 32.8594 303.416 33.3324 302.845 33.3324C302.266 33.3324 302.065 32.8594 302.065 32.3693V31.9091Z" fill="#16DBAA"/>
<rect x="12" y="12" width="45" height="45" rx="12" fill="#FFF5D9"/>
<path d="M34.044 45L36.854 29.1967C39.5324 29.1967 40.3772 29.4904 40.4992 30.6892C40.4992 30.6892 42.2959 30.0192 43.2021 28.6586C39.6659 27.02 36.1127 26.9461 36.1127 26.9461L34.0394 29.4714L34.044 29.471L31.9707 26.9457C31.9707 26.9457 28.4175 27.0197 24.8817 28.6583C25.7871 30.0189 27.5845 30.6889 27.5845 30.6889C27.7072 29.49 28.551 29.1963 31.2114 29.1944L34.044 45Z" fill="#FFBB38"/>
<path d="M34.0429 26.2166C36.9014 26.1948 40.1734 26.6588 43.5229 28.1187C43.9706 27.3129 44.0857 26.9568 44.0857 26.9568C40.4242 25.5082 36.9952 25.0124 34.0425 25C31.0898 25.0124 27.661 25.5083 24 26.9568C24 26.9568 24.1633 27.3955 24.5624 28.1187C27.9113 26.6588 31.1838 26.1948 34.0425 26.2166H34.0429Z" fill="#FFBB38"/>
</svg>
