<svg width="325" height="69" viewBox="0 0 325 69" fill="none" xmlns="http://www.w3.org/2000/svg">
<rect width="325" height="69" rx="10" fill="white"/>
<rect x="12" y="12" width="45" height="45" rx="12" fill="#E7EDFF"/>
<path d="M44.6017 35.2282C44.6025 34.5468 44.5449 33.8665 44.4295 33.1949H34.9992V37.0462H40.4004C40.2899 37.6613 40.056 38.2477 39.7127 38.7699C39.3695 39.2922 38.924 39.7395 38.4033 40.085V42.5849H41.6268C43.5142 40.8447 44.6017 38.2712 44.6017 35.2282Z" fill="#4471FF"/>
<path d="M34.9992 44.9999C37.6978 44.9999 39.9699 44.1138 41.6268 42.5861L38.4033 40.0862C37.5061 40.6945 36.3506 41.0417 34.9992 41.0417C32.391 41.0417 30.1772 39.2834 29.3855 36.9141H26.0648V39.4904C26.8971 41.1465 28.1733 42.5388 29.751 43.5117C31.3287 44.4846 33.1457 44.9998 34.9992 44.9999Z" fill="#4471FF"/>
<path d="M29.3855 36.9141C28.967 35.6725 28.967 34.328 29.3855 33.0864V30.5101H26.0648C25.3646 31.9034 25 33.441 25 35.0003C25 36.5595 25.3646 38.0972 26.0648 39.4904L29.3855 36.9141Z" fill="#4471FF"/>
<path d="M34.9992 28.9589C36.4253 28.9356 37.8032 29.4744 38.8352 30.4588L41.6893 27.6047C39.8795 25.9049 37.482 24.9717 34.9992 25.0007C33.1457 25.0007 31.3287 25.516 29.751 26.4889C28.1733 27.4618 26.8971 28.854 26.0648 30.5102L29.3855 33.0865C30.1772 30.7171 32.391 28.9589 34.9992 28.9589Z" fill="#4471FF"/>
<path d="M75.6719 23.4929H77.1534C77.1087 21.8622 75.6669 20.679 73.5987 20.679C71.5554 20.679 69.9893 21.8473 69.9893 23.6023C69.9893 25.0192 71.0036 25.8494 72.6392 26.2919L73.8423 26.62C74.9311 26.9084 75.7713 27.2663 75.7713 28.1712C75.7713 29.1655 74.8217 29.8217 73.5142 29.8217C72.331 29.8217 71.3466 29.2947 71.2571 28.1861H69.7159C69.8153 30.0305 71.2422 31.169 73.5241 31.169C75.9155 31.169 77.2926 29.9112 77.2926 28.1861C77.2926 26.3516 75.657 25.6406 74.3643 25.3224L73.37 25.0639C72.5746 24.8601 71.5156 24.4872 71.5206 23.5128C71.5206 22.6477 72.3111 22.0064 73.5639 22.0064C74.7322 22.0064 75.5625 22.5533 75.6719 23.4929ZM81.2314 31.169C82.4941 31.169 83.2051 30.5277 83.4885 29.956H83.5481V31H84.9998V25.929C84.9998 23.7067 83.2498 23.2642 82.0368 23.2642C80.6547 23.2642 79.3819 23.821 78.8848 25.2131L80.2818 25.5312C80.5005 24.9893 81.0574 24.4673 82.0566 24.4673C83.0162 24.4673 83.5083 24.9695 83.5083 25.8345V25.8693C83.5083 26.4112 82.9515 26.4013 81.5794 26.5604C80.1326 26.7294 78.6511 27.1072 78.6511 28.8423C78.6511 30.3438 79.7797 31.169 81.2314 31.169ZM81.5545 29.9759C80.7143 29.9759 80.1078 29.598 80.1078 28.8622C80.1078 28.0668 80.8137 27.7834 81.6738 27.669C82.1561 27.6044 83.2995 27.4751 83.5133 27.2614V28.2457C83.5133 29.1506 82.7924 29.9759 81.5545 29.9759ZM86.9798 31H88.4663V26.2919C88.4663 25.2628 89.1871 24.5469 90.0323 24.5469C90.8576 24.5469 91.4293 25.0938 91.4293 25.924V31H92.9109V26.1328C92.9109 25.2131 93.4727 24.5469 94.4421 24.5469C95.2276 24.5469 95.8739 24.9844 95.8739 26.0185V31H97.3604V25.8793C97.3604 24.1342 96.386 23.2642 95.0039 23.2642C93.9052 23.2642 93.0799 23.7912 92.712 24.6065H92.6325C92.2994 23.7713 91.5984 23.2642 90.5792 23.2642C89.57 23.2642 88.8192 23.7663 88.5011 24.6065H88.4066V23.3636H86.9798V31ZM105.075 25.228C104.767 24.0398 103.837 23.2642 102.187 23.2642C100.461 23.2642 99.2385 24.174 99.2385 25.5263C99.2385 26.6101 99.8947 27.331 101.327 27.6491L102.619 27.9325C103.355 28.0966 103.698 28.4247 103.698 28.902C103.698 29.4936 103.067 29.956 102.092 29.956C101.202 29.956 100.631 29.5732 100.452 28.8224L99.0147 29.0412C99.2633 30.3935 100.387 31.1541 102.102 31.1541C103.947 31.1541 105.224 30.1747 105.224 28.7926C105.224 27.7138 104.538 27.0476 103.136 26.7244L101.923 26.446C101.083 26.2472 100.72 25.9638 100.725 25.4467C100.72 24.8601 101.356 24.4425 102.202 24.4425C103.126 24.4425 103.554 24.9545 103.728 25.4666L105.075 25.228ZM111.696 27.8331C111.701 29.1307 110.737 29.7472 109.901 29.7472C108.982 29.7472 108.345 29.081 108.345 28.0419V23.3636H106.859V28.2209C106.859 30.1151 107.898 31.0994 109.364 31.0994C110.513 31.0994 111.293 30.4929 111.646 29.6776H111.726V31H113.188V23.3636H111.696V27.8331ZM116.671 26.4659C116.671 25.2479 117.417 24.5518 118.451 24.5518C119.46 24.5518 120.072 25.2131 120.072 26.3217V31H121.558V26.1428C121.558 24.2536 120.519 23.2642 118.958 23.2642C117.81 23.2642 117.059 23.7962 116.706 24.6065H116.612V23.3636H115.185V31H116.671V26.4659ZM126.754 34.0227C128.698 34.0227 130.199 33.1328 130.199 31.169V23.3636H128.742V24.6016H128.633C128.369 24.1293 127.843 23.2642 126.421 23.2642C124.576 23.2642 123.219 24.7209 123.219 27.152C123.219 29.5881 124.606 30.8857 126.411 30.8857C127.813 30.8857 128.355 30.0952 128.623 29.608H128.718V31.1094C128.718 32.3075 127.897 32.8246 126.769 32.8246C125.531 32.8246 125.048 32.2031 124.785 31.7656L123.507 32.2926C123.91 33.2273 124.929 34.0227 126.754 34.0227ZM126.739 29.6527C125.411 29.6527 124.72 28.6335 124.72 27.1321C124.72 25.6655 125.396 24.527 126.739 24.527C128.036 24.527 128.732 25.5859 128.732 27.1321C128.732 28.7081 128.021 29.6527 126.739 29.6527ZM136.017 20.8182V31H137.479V23.6271H137.573L140.576 30.9851H141.789L144.792 23.6321H144.886V31H146.348V20.8182H144.484L141.242 28.733H141.123L137.881 20.8182H136.017ZM151.679 31.1541C153.831 31.1541 155.238 29.5781 155.238 27.2166C155.238 24.8402 153.831 23.2642 151.679 23.2642C149.526 23.2642 148.119 24.8402 148.119 27.2166C148.119 29.5781 149.526 31.1541 151.679 31.1541ZM151.684 29.9062C150.277 29.9062 149.621 28.6783 149.621 27.2116C149.621 25.75 150.277 24.5071 151.684 24.5071C153.081 24.5071 153.737 25.75 153.737 27.2116C153.737 28.6783 153.081 29.9062 151.684 29.9062ZM157.017 31H158.469V29.8118H158.593C158.862 30.299 159.408 31.1491 160.8 31.1491C162.65 31.1491 163.992 29.6676 163.992 27.1967C163.992 24.7209 162.63 23.2642 160.786 23.2642C159.369 23.2642 158.857 24.1293 158.593 24.6016H158.504V20.8182H157.017V31ZM158.474 27.1818C158.474 25.5859 159.17 24.527 160.467 24.527C161.815 24.527 162.491 25.6655 162.491 27.1818C162.491 28.7131 161.795 29.8814 160.467 29.8814C159.19 29.8814 158.474 28.7876 158.474 27.1818ZM165.661 31H167.148V23.3636H165.661V31ZM166.412 22.1854C166.924 22.1854 167.352 21.7876 167.352 21.3004C167.352 20.8132 166.924 20.4105 166.412 20.4105C165.895 20.4105 165.472 20.8132 165.472 21.3004C165.472 21.7876 165.895 22.1854 166.412 22.1854ZM170.634 20.8182H169.148V31H170.634V20.8182ZM175.925 31.1541C177.591 31.1541 178.769 30.3338 179.107 29.0909L177.7 28.8374C177.432 29.5582 176.785 29.9261 175.94 29.9261C174.667 29.9261 173.812 29.1009 173.773 27.6293H179.202V27.1023C179.202 24.343 177.551 23.2642 175.821 23.2642C173.693 23.2642 172.291 24.8849 172.291 27.2315C172.291 29.603 173.673 31.1541 175.925 31.1541ZM173.778 26.5156C173.837 25.4318 174.623 24.4922 175.831 24.4922C176.984 24.4922 177.74 25.3473 177.745 26.5156H173.778Z" fill="#232323"/>
<path d="M70.0568 50H75.392V49.0625H71.1136V46.0966H75.0511V45.1591H71.1136V42.2102H75.3239V41.2727H70.0568V50ZM80.8423 45.7898H77.0241V46.7273H80.8423V45.7898ZM85.271 50.1364C86.7198 50.1364 87.6744 49.25 87.8448 48.0909H86.8391C86.6516 48.8068 86.055 49.233 85.271 49.233C84.0778 49.233 83.3107 48.2443 83.3107 46.7273C83.3107 45.2443 84.0948 44.2727 85.271 44.2727C86.1573 44.2727 86.6857 44.8182 86.8391 45.4148H87.8448C87.6744 44.1875 86.6346 43.3693 85.2539 43.3693C83.4812 43.3693 82.305 44.767 82.305 46.7614C82.305 48.7216 83.43 50.1364 85.271 50.1364ZM91.9741 50.1364C93.7468 50.1364 94.94 48.7898 94.94 46.7614C94.94 44.7159 93.7468 43.3693 91.9741 43.3693C90.2013 43.3693 89.0082 44.7159 89.0082 46.7614C89.0082 48.7898 90.2013 50.1364 91.9741 50.1364ZM91.9741 49.233C90.6275 49.233 90.0138 48.0739 90.0138 46.7614C90.0138 45.4489 90.6275 44.2727 91.9741 44.2727C93.3207 44.2727 93.9343 45.4489 93.9343 46.7614C93.9343 48.0739 93.3207 49.233 91.9741 49.233ZM96.4751 50H97.4808V45.9091C97.4808 44.9503 98.1797 44.2727 98.9638 44.2727C99.7266 44.2727 100.259 44.7713 100.259 45.517V50H101.282V45.7386C101.282 44.8949 101.81 44.2727 102.731 44.2727C103.447 44.2727 104.06 44.652 104.06 45.6193V50H105.066V45.6193C105.066 44.081 104.239 43.3693 103.072 43.3693C102.134 43.3693 101.448 43.7997 101.112 44.4773H101.043C100.719 43.7784 100.148 43.3693 99.2876 43.3693C98.4354 43.3693 97.8047 43.7784 97.532 44.4773H97.4467V43.4545H96.4751V50ZM106.905 50H107.911V45.9091C107.911 44.9503 108.609 44.2727 109.393 44.2727C110.156 44.2727 110.689 44.7713 110.689 45.517V50H111.712V45.7386C111.712 44.8949 112.24 44.2727 113.161 44.2727C113.876 44.2727 114.49 44.652 114.49 45.6193V50H115.496V45.6193C115.496 44.081 114.669 43.3693 113.501 43.3693C112.564 43.3693 111.878 43.7997 111.541 44.4773H111.473C111.149 43.7784 110.578 43.3693 109.717 43.3693C108.865 43.3693 108.234 43.7784 107.962 44.4773H107.876V43.4545H106.905V50ZM120.079 50.1364C121.408 50.1364 122.38 49.4716 122.687 48.483L121.715 48.2102C121.46 48.892 120.867 49.233 120.079 49.233C118.898 49.233 118.085 48.4702 118.038 47.0682H122.789V46.642C122.789 44.2045 121.34 43.3693 119.977 43.3693C118.204 43.3693 117.028 44.767 117.028 46.7784C117.028 48.7898 118.187 50.1364 120.079 50.1364ZM118.038 46.1989C118.106 45.1804 118.826 44.2727 119.977 44.2727C121.067 44.2727 121.766 45.0909 121.766 46.1989H118.038ZM124.319 50H125.325V45.858C125.325 44.9716 126.023 44.3239 126.978 44.3239C127.246 44.3239 127.523 44.375 127.592 44.392V43.3693C127.477 43.3608 127.212 43.3523 127.063 43.3523C126.279 43.3523 125.597 43.7955 125.359 44.4432H125.29V43.4545H124.319V50ZM131.244 50.1364C132.692 50.1364 133.647 49.25 133.817 48.0909H132.812C132.624 48.8068 132.028 49.233 131.244 49.233C130.05 49.233 129.283 48.2443 129.283 46.7273C129.283 45.2443 130.067 44.2727 131.244 44.2727C132.13 44.2727 132.658 44.8182 132.812 45.4148H133.817C133.647 44.1875 132.607 43.3693 131.227 43.3693C129.454 43.3693 128.278 44.767 128.278 46.7614C128.278 48.7216 129.403 50.1364 131.244 50.1364ZM138.032 50.1364C139.362 50.1364 140.333 49.4716 140.64 48.483L139.668 48.2102C139.413 48.892 138.82 49.233 138.032 49.233C136.852 49.233 136.038 48.4702 135.991 47.0682H140.742V46.642C140.742 44.2045 139.293 43.3693 137.93 43.3693C136.157 43.3693 134.981 44.767 134.981 46.7784C134.981 48.7898 136.14 50.1364 138.032 50.1364ZM135.991 46.1989C136.059 45.1804 136.779 44.2727 137.93 44.2727C139.021 44.2727 139.719 45.0909 139.719 46.1989H135.991ZM143.772 48.8068H142.681L142.63 49.2841C142.506 50.4389 142.263 51.5895 142.153 52.1307H142.92C143.124 51.5511 143.559 50.2386 143.704 49.267L143.772 48.8068ZM149.147 41.2727V50H150.135V43.3693H150.221L152.948 50H153.902L156.63 43.3693H156.715V50H157.703V41.2727H156.442L153.476 48.517H153.374L150.408 41.2727H149.147ZM161.612 50.1534C162.754 50.1534 163.351 49.5398 163.555 49.1136H163.607V50H164.612V45.6875C164.612 43.608 163.027 43.3693 162.192 43.3693C161.203 43.3693 160.078 43.7102 159.567 44.9034L160.521 45.2443C160.743 44.767 161.267 44.2557 162.226 44.2557C163.151 44.2557 163.607 44.7457 163.607 45.5852V45.6193C163.607 46.1051 163.112 46.0625 161.919 46.2159C160.705 46.3736 159.379 46.642 159.379 48.142C159.379 49.4205 160.368 50.1534 161.612 50.1534ZM161.766 49.25C160.964 49.25 160.385 48.892 160.385 48.1932C160.385 47.4261 161.084 47.1875 161.868 47.0852C162.294 47.0341 163.436 46.9148 163.607 46.7102V47.6307C163.607 48.4489 162.959 49.25 161.766 49.25ZM166.448 50H167.453V45.858C167.453 44.9716 168.152 44.3239 169.107 44.3239C169.375 44.3239 169.652 44.375 169.721 44.392V43.3693C169.605 43.3608 169.341 43.3523 169.192 43.3523C168.408 43.3523 167.726 43.7955 167.488 44.4432H167.419V43.4545H166.448V50ZM170.913 50H171.918V47.5497L172.621 46.8977L175.072 50H176.35L173.38 46.25L176.146 43.4545H174.901L172.038 46.3693H171.918V41.2727H170.913V50ZM179.915 50.1364C181.244 50.1364 182.216 49.4716 182.523 48.483L181.551 48.2102C181.295 48.892 180.703 49.233 179.915 49.233C178.734 49.233 177.92 48.4702 177.874 47.0682H182.625V46.642C182.625 44.2045 181.176 43.3693 179.812 43.3693C178.04 43.3693 176.864 44.767 176.864 46.7784C176.864 48.7898 178.023 50.1364 179.915 50.1364ZM177.874 46.1989C177.942 45.1804 178.662 44.2727 179.812 44.2727C180.903 44.2727 181.602 45.0909 181.602 46.1989H177.874ZM187.001 43.4545H185.604V41.8864H184.598V43.4545H183.609V44.3068H184.598V48.3977C184.598 49.5398 185.518 50.0852 186.371 50.0852C186.746 50.0852 186.984 50.017 187.121 49.9659L186.916 49.0625C186.831 49.0795 186.695 49.1136 186.473 49.1136C186.03 49.1136 185.604 48.9773 185.604 48.125V44.3068H187.001V43.4545ZM188.514 52.4545H189.52V48.9943H189.605C189.827 49.3523 190.253 50.1364 191.514 50.1364C193.151 50.1364 194.293 48.8239 194.293 46.7443C194.293 44.6818 193.151 43.3693 191.497 43.3693C190.219 43.3693 189.827 44.1534 189.605 44.4943H189.486V43.4545H188.514V52.4545ZM189.503 46.7273C189.503 45.2614 190.151 44.2727 191.378 44.2727C192.656 44.2727 193.287 45.3466 193.287 46.7273C193.287 48.125 192.639 49.233 191.378 49.233C190.168 49.233 189.503 48.2102 189.503 46.7273ZM196.832 41.2727H195.827V50H196.832V41.2727ZM200.6 50.1534C201.743 50.1534 202.339 49.5398 202.544 49.1136H202.595V50H203.6V45.6875C203.6 43.608 202.015 43.3693 201.18 43.3693C200.191 43.3693 199.066 43.7102 198.555 44.9034L199.51 45.2443C199.731 44.767 200.255 44.2557 201.214 44.2557C202.139 44.2557 202.595 44.7457 202.595 45.5852V45.6193C202.595 46.1051 202.1 46.0625 200.907 46.2159C199.693 46.3736 198.368 46.642 198.368 48.142C198.368 49.4205 199.356 50.1534 200.6 50.1534ZM200.754 49.25C199.953 49.25 199.373 48.892 199.373 48.1932C199.373 47.4261 200.072 47.1875 200.856 47.0852C201.282 47.0341 202.424 46.9148 202.595 46.7102V47.6307C202.595 48.4489 201.947 49.25 200.754 49.25ZM208.095 50.1364C209.544 50.1364 210.499 49.25 210.669 48.0909H209.663C209.476 48.8068 208.879 49.233 208.095 49.233C206.902 49.233 206.135 48.2443 206.135 46.7273C206.135 45.2443 206.919 44.2727 208.095 44.2727C208.982 44.2727 209.51 44.8182 209.663 45.4148H210.669C210.499 44.1875 209.459 43.3693 208.078 43.3693C206.305 43.3693 205.129 44.767 205.129 46.7614C205.129 48.7216 206.254 50.1364 208.095 50.1364ZM214.884 50.1364C216.213 50.1364 217.185 49.4716 217.491 48.483L216.52 48.2102C216.264 48.892 215.672 49.233 214.884 49.233C213.703 49.233 212.889 48.4702 212.842 47.0682H217.594V46.642C217.594 44.2045 216.145 43.3693 214.781 43.3693C213.009 43.3693 211.832 44.767 211.832 46.7784C211.832 48.7898 212.991 50.1364 214.884 50.1364ZM212.842 46.1989C212.911 45.1804 213.631 44.2727 214.781 44.2727C215.872 44.2727 216.571 45.0909 216.571 46.1989H212.842Z" fill="#718EBF"/>
<path d="M291.369 34.0866H287.5V35.1903H291.369V34.0866ZM292.867 37.2955H297.005V39H298.262V37.2955H299.417V36.179H298.262V30.2727H296.638L292.867 36.2301V37.2955ZM297.013 36.179H294.248V36.1108L296.945 31.8409H297.013V36.179ZM305.457 37.3636C305.462 38.348 306.08 39.179 307.234 39.179C308.376 39.179 309.003 38.348 309.003 37.3636V36.9034C309.003 35.9148 308.393 35.0881 307.234 35.0881C306.097 35.0881 305.462 35.919 305.457 36.9034V37.3636ZM301.068 32.3693C301.068 33.3537 301.69 34.1847 302.845 34.1847C303.983 34.1847 304.614 33.358 304.609 32.3693V31.9091C304.614 30.9205 304 30.0938 302.845 30.0938C301.712 30.0938 301.068 30.9205 301.068 31.9091V32.3693ZM301.426 39H302.445L308.445 30.2727H307.426L301.426 39ZM306.45 36.9034C306.455 36.4134 306.668 35.9403 307.234 35.9403C307.822 35.9403 308.006 36.4134 308.006 36.9034V37.3636C308.006 37.8537 307.805 38.3267 307.234 38.3267C306.655 38.3267 306.455 37.8494 306.45 37.3636V36.9034ZM302.065 31.9091C302.065 31.4233 302.278 30.946 302.845 30.946C303.433 30.946 303.616 31.419 303.616 31.9091V32.3693C303.616 32.8594 303.416 33.3324 302.845 33.3324C302.266 33.3324 302.065 32.8594 302.065 32.3693V31.9091Z" fill="#16DBAA"/>
</svg>
