<svg width="325" height="69" viewBox="0 0 325 69" fill="none" xmlns="http://www.w3.org/2000/svg">
<rect width="325" height="69" rx="10" fill="white"/>
<rect x="12" y="12" width="45" height="45" rx="12" fill="#FFE0EB"/>
<path d="M42.4933 40.5861C42.1909 41.2848 41.8328 41.928 41.4181 42.5194C40.8526 43.3255 40.3897 43.8835 40.0329 44.1934C39.4798 44.702 38.8873 44.9625 38.2527 44.9773C37.7972 44.9773 37.2478 44.8477 36.6083 44.5847C35.9667 44.323 35.3771 44.1934 34.838 44.1934C34.2726 44.1934 33.6662 44.323 33.0176 44.5847C32.368 44.8477 31.8446 44.9847 31.4445 44.9983C30.836 45.0242 30.2295 44.7563 29.6241 44.1934C29.2377 43.8563 28.7544 43.2786 28.1754 42.4601C27.5541 41.586 27.0434 40.5725 26.6433 39.417C26.2148 38.1689 26 36.9603 26 35.7902C26 34.4498 26.2896 33.2938 26.8697 32.3251C27.3256 31.547 27.9322 30.9332 28.6913 30.4826C29.4504 30.032 30.2706 29.8023 31.1539 29.7877C31.6372 29.7877 32.271 29.9372 33.0587 30.231C33.8441 30.5258 34.3484 30.6753 34.5695 30.6753C34.7348 30.6753 35.295 30.5005 36.2447 30.152C37.1429 29.8288 37.9009 29.6949 38.5218 29.7477C40.2045 29.8834 41.4687 30.5468 42.3094 31.7418C40.8045 32.6536 40.06 33.9307 40.0749 35.5691C40.0885 36.8452 40.5514 37.9071 41.4612 38.7503C41.8736 39.1417 42.3341 39.4441 42.8464 39.659C42.7353 39.9812 42.618 40.2898 42.4933 40.5861V40.5861ZM38.6342 25.4001C38.6342 26.4003 38.2688 27.3343 37.5404 28.1987C36.6614 29.2263 35.5982 29.8201 34.4453 29.7264C34.4299 29.6007 34.4221 29.4741 34.4221 29.3474C34.4221 28.3872 34.8401 27.3596 35.5824 26.5193C35.953 26.0939 36.4244 25.7402 36.996 25.458C37.5663 25.1801 38.1058 25.0263 38.6132 25C38.628 25.1337 38.6342 25.2674 38.6342 25.4001V25.4001Z" fill="#FF82AC"/>
<path d="M70.9787 31L71.9134 28.3054H75.8906L76.8203 31H78.451L74.7869 20.8182H73.0121L69.348 31H70.9787ZM72.3608 27.0128L73.8622 22.6676H73.9418L75.4432 27.0128H72.3608ZM79.802 33.8636H81.2885V29.8118H81.378C81.6465 30.299 82.1934 31.1491 83.5854 31.1491C85.4348 31.1491 86.7772 29.6676 86.7772 27.1967C86.7772 24.7209 85.415 23.2642 83.5705 23.2642C82.1536 23.2642 81.6415 24.1293 81.378 24.6016H81.2537V23.3636H79.802V33.8636ZM81.2587 27.1818C81.2587 25.5859 81.9547 24.527 83.2523 24.527C84.5996 24.527 85.2757 25.6655 85.2757 27.1818C85.2757 28.7131 84.5797 29.8814 83.2523 29.8814C81.9746 29.8814 81.2587 28.7876 81.2587 27.1818ZM88.4426 33.8636H89.9292V29.8118H90.0186C90.2871 30.299 90.834 31.1491 92.226 31.1491C94.0755 31.1491 95.4178 29.6676 95.4178 27.1967C95.4178 24.7209 94.0556 23.2642 92.2111 23.2642C90.7942 23.2642 90.2821 24.1293 90.0186 24.6016H89.8944V23.3636H88.4426V33.8636ZM89.8993 27.1818C89.8993 25.5859 90.5953 24.527 91.8929 24.527C93.2402 24.527 93.9164 25.6655 93.9164 27.1818C93.9164 28.7131 93.2203 29.8814 91.8929 29.8814C90.6152 29.8814 89.8993 28.7876 89.8993 27.1818ZM98.5698 20.8182H97.0833V31H98.5698V20.8182ZM103.861 31.1541C105.526 31.1541 106.705 30.3338 107.043 29.0909L105.636 28.8374C105.367 29.5582 104.721 29.9261 103.876 29.9261C102.603 29.9261 101.748 29.1009 101.708 27.6293H107.137V27.1023C107.137 24.343 105.487 23.2642 103.756 23.2642C101.629 23.2642 100.227 24.8849 100.227 27.2315C100.227 29.603 101.609 31.1541 103.861 31.1541ZM101.713 26.5156C101.773 25.4318 102.558 24.4922 103.766 24.4922C104.92 24.4922 105.675 25.3473 105.68 26.5156H101.713ZM118.164 23.4929H119.646C119.601 21.8622 118.159 20.679 116.091 20.679C114.048 20.679 112.482 21.8473 112.482 23.6023C112.482 25.0192 113.496 25.8494 115.131 26.2919L116.335 26.62C117.423 26.9084 118.263 27.2663 118.263 28.1712C118.263 29.1655 117.314 29.8217 116.006 29.8217C114.823 29.8217 113.839 29.2947 113.749 28.1861H112.208C112.308 30.0305 113.734 31.169 116.016 31.169C118.408 31.169 119.785 29.9112 119.785 28.1861C119.785 26.3516 118.149 25.6406 116.857 25.3224L115.862 25.0639C115.067 24.8601 114.008 24.4872 114.013 23.5128C114.013 22.6477 114.803 22.0064 116.056 22.0064C117.224 22.0064 118.055 22.5533 118.164 23.4929ZM125.066 23.3636H123.5V21.5341H122.013V23.3636H120.895V24.5568H122.013V29.0661C122.008 30.4531 123.067 31.1243 124.241 31.0994C124.713 31.0945 125.031 31.005 125.205 30.9403L124.937 29.7124C124.837 29.7322 124.653 29.777 124.415 29.777C123.932 29.777 123.5 29.6179 123.5 28.7578V24.5568H125.066V23.3636ZM129.845 31.1541C131.998 31.1541 133.404 29.5781 133.404 27.2166C133.404 24.8402 131.998 23.2642 129.845 23.2642C127.692 23.2642 126.285 24.8402 126.285 27.2166C126.285 29.5781 127.692 31.1541 129.845 31.1541ZM129.85 29.9062C128.443 29.9062 127.787 28.6783 127.787 27.2116C127.787 25.75 128.443 24.5071 129.85 24.5071C131.247 24.5071 131.903 25.75 131.903 27.2116C131.903 28.6783 131.247 29.9062 129.85 29.9062ZM135.064 31H136.55V26.3366C136.55 25.3374 137.321 24.6165 138.375 24.6165C138.683 24.6165 139.031 24.6712 139.15 24.706V23.2841C139.001 23.2642 138.708 23.2493 138.519 23.2493C137.624 23.2493 136.858 23.7564 136.58 24.5767H136.501V23.3636H135.064V31ZM143.455 31.1541C145.12 31.1541 146.298 30.3338 146.636 29.0909L145.229 28.8374C144.961 29.5582 144.315 29.9261 143.469 29.9261C142.197 29.9261 141.342 29.1009 141.302 27.6293H146.731V27.1023C146.731 24.343 145.08 23.2642 143.35 23.2642C141.222 23.2642 139.82 24.8849 139.82 27.2315C139.82 29.603 141.202 31.1541 143.455 31.1541ZM141.307 26.5156C141.366 25.4318 142.152 24.4922 143.36 24.4922C144.513 24.4922 145.269 25.3473 145.274 26.5156H141.307Z" fill="#232323"/>
<path d="M70.0568 50H75.392V49.0625H71.1136V46.0966H75.0511V45.1591H71.1136V42.2102H75.3239V41.2727H70.0568V50ZM80.8423 45.7898H77.0241V46.7273H80.8423V45.7898ZM85.271 50.1364C86.7198 50.1364 87.6744 49.25 87.8448 48.0909H86.8391C86.6516 48.8068 86.055 49.233 85.271 49.233C84.0778 49.233 83.3107 48.2443 83.3107 46.7273C83.3107 45.2443 84.0948 44.2727 85.271 44.2727C86.1573 44.2727 86.6857 44.8182 86.8391 45.4148H87.8448C87.6744 44.1875 86.6346 43.3693 85.2539 43.3693C83.4812 43.3693 82.305 44.767 82.305 46.7614C82.305 48.7216 83.43 50.1364 85.271 50.1364ZM91.9741 50.1364C93.7468 50.1364 94.94 48.7898 94.94 46.7614C94.94 44.7159 93.7468 43.3693 91.9741 43.3693C90.2013 43.3693 89.0082 44.7159 89.0082 46.7614C89.0082 48.7898 90.2013 50.1364 91.9741 50.1364ZM91.9741 49.233C90.6275 49.233 90.0138 48.0739 90.0138 46.7614C90.0138 45.4489 90.6275 44.2727 91.9741 44.2727C93.3207 44.2727 93.9343 45.4489 93.9343 46.7614C93.9343 48.0739 93.3207 49.233 91.9741 49.233ZM96.4751 50H97.4808V45.9091C97.4808 44.9503 98.1797 44.2727 98.9638 44.2727C99.7266 44.2727 100.259 44.7713 100.259 45.517V50H101.282V45.7386C101.282 44.8949 101.81 44.2727 102.731 44.2727C103.447 44.2727 104.06 44.652 104.06 45.6193V50H105.066V45.6193C105.066 44.081 104.239 43.3693 103.072 43.3693C102.134 43.3693 101.448 43.7997 101.112 44.4773H101.043C100.719 43.7784 100.148 43.3693 99.2876 43.3693C98.4354 43.3693 97.8047 43.7784 97.532 44.4773H97.4467V43.4545H96.4751V50ZM106.905 50H107.911V45.9091C107.911 44.9503 108.609 44.2727 109.393 44.2727C110.156 44.2727 110.689 44.7713 110.689 45.517V50H111.712V45.7386C111.712 44.8949 112.24 44.2727 113.161 44.2727C113.876 44.2727 114.49 44.652 114.49 45.6193V50H115.496V45.6193C115.496 44.081 114.669 43.3693 113.501 43.3693C112.564 43.3693 111.878 43.7997 111.541 44.4773H111.473C111.149 43.7784 110.578 43.3693 109.717 43.3693C108.865 43.3693 108.234 43.7784 107.962 44.4773H107.876V43.4545H106.905V50ZM120.079 50.1364C121.408 50.1364 122.38 49.4716 122.687 48.483L121.715 48.2102C121.46 48.892 120.867 49.233 120.079 49.233C118.898 49.233 118.085 48.4702 118.038 47.0682H122.789V46.642C122.789 44.2045 121.34 43.3693 119.977 43.3693C118.204 43.3693 117.028 44.767 117.028 46.7784C117.028 48.7898 118.187 50.1364 120.079 50.1364ZM118.038 46.1989C118.106 45.1804 118.826 44.2727 119.977 44.2727C121.067 44.2727 121.766 45.0909 121.766 46.1989H118.038ZM124.319 50H125.325V45.858C125.325 44.9716 126.023 44.3239 126.978 44.3239C127.246 44.3239 127.523 44.375 127.592 44.392V43.3693C127.477 43.3608 127.212 43.3523 127.063 43.3523C126.279 43.3523 125.597 43.7955 125.359 44.4432H125.29V43.4545H124.319V50ZM131.244 50.1364C132.692 50.1364 133.647 49.25 133.817 48.0909H132.812C132.624 48.8068 132.028 49.233 131.244 49.233C130.05 49.233 129.283 48.2443 129.283 46.7273C129.283 45.2443 130.067 44.2727 131.244 44.2727C132.13 44.2727 132.658 44.8182 132.812 45.4148H133.817C133.647 44.1875 132.607 43.3693 131.227 43.3693C129.454 43.3693 128.278 44.767 128.278 46.7614C128.278 48.7216 129.403 50.1364 131.244 50.1364ZM138.032 50.1364C139.362 50.1364 140.333 49.4716 140.64 48.483L139.668 48.2102C139.413 48.892 138.82 49.233 138.032 49.233C136.852 49.233 136.038 48.4702 135.991 47.0682H140.742V46.642C140.742 44.2045 139.293 43.3693 137.93 43.3693C136.157 43.3693 134.981 44.767 134.981 46.7784C134.981 48.7898 136.14 50.1364 138.032 50.1364ZM135.991 46.1989C136.059 45.1804 136.779 44.2727 137.93 44.2727C139.021 44.2727 139.719 45.0909 139.719 46.1989H135.991ZM143.772 48.8068H142.681L142.63 49.2841C142.506 50.4389 142.263 51.5895 142.153 52.1307H142.92C143.124 51.5511 143.559 50.2386 143.704 49.267L143.772 48.8068ZM149.147 41.2727V50H150.135V43.3693H150.221L152.948 50H153.902L156.63 43.3693H156.715V50H157.703V41.2727H156.442L153.476 48.517H153.374L150.408 41.2727H149.147ZM161.612 50.1534C162.754 50.1534 163.351 49.5398 163.555 49.1136H163.607V50H164.612V45.6875C164.612 43.608 163.027 43.3693 162.192 43.3693C161.203 43.3693 160.078 43.7102 159.567 44.9034L160.521 45.2443C160.743 44.767 161.267 44.2557 162.226 44.2557C163.151 44.2557 163.607 44.7457 163.607 45.5852V45.6193C163.607 46.1051 163.112 46.0625 161.919 46.2159C160.705 46.3736 159.379 46.642 159.379 48.142C159.379 49.4205 160.368 50.1534 161.612 50.1534ZM161.766 49.25C160.964 49.25 160.385 48.892 160.385 48.1932C160.385 47.4261 161.084 47.1875 161.868 47.0852C162.294 47.0341 163.436 46.9148 163.607 46.7102V47.6307C163.607 48.4489 162.959 49.25 161.766 49.25ZM166.448 50H167.453V45.858C167.453 44.9716 168.152 44.3239 169.107 44.3239C169.375 44.3239 169.652 44.375 169.721 44.392V43.3693C169.605 43.3608 169.341 43.3523 169.192 43.3523C168.408 43.3523 167.726 43.7955 167.488 44.4432H167.419V43.4545H166.448V50ZM170.913 50H171.918V47.5497L172.621 46.8977L175.072 50H176.35L173.38 46.25L176.146 43.4545H174.901L172.038 46.3693H171.918V41.2727H170.913V50ZM179.915 50.1364C181.244 50.1364 182.216 49.4716 182.523 48.483L181.551 48.2102C181.295 48.892 180.703 49.233 179.915 49.233C178.734 49.233 177.92 48.4702 177.874 47.0682H182.625V46.642C182.625 44.2045 181.176 43.3693 179.812 43.3693C178.04 43.3693 176.864 44.767 176.864 46.7784C176.864 48.7898 178.023 50.1364 179.915 50.1364ZM177.874 46.1989C177.942 45.1804 178.662 44.2727 179.812 44.2727C180.903 44.2727 181.602 45.0909 181.602 46.1989H177.874ZM187.001 43.4545H185.604V41.8864H184.598V43.4545H183.609V44.3068H184.598V48.3977C184.598 49.5398 185.518 50.0852 186.371 50.0852C186.746 50.0852 186.984 50.017 187.121 49.9659L186.916 49.0625C186.831 49.0795 186.695 49.1136 186.473 49.1136C186.03 49.1136 185.604 48.9773 185.604 48.125V44.3068H187.001V43.4545ZM188.514 52.4545H189.52V48.9943H189.605C189.827 49.3523 190.253 50.1364 191.514 50.1364C193.151 50.1364 194.293 48.8239 194.293 46.7443C194.293 44.6818 193.151 43.3693 191.497 43.3693C190.219 43.3693 189.827 44.1534 189.605 44.4943H189.486V43.4545H188.514V52.4545ZM189.503 46.7273C189.503 45.2614 190.151 44.2727 191.378 44.2727C192.656 44.2727 193.287 45.3466 193.287 46.7273C193.287 48.125 192.639 49.233 191.378 49.233C190.168 49.233 189.503 48.2102 189.503 46.7273ZM196.832 41.2727H195.827V50H196.832V41.2727ZM200.6 50.1534C201.743 50.1534 202.339 49.5398 202.544 49.1136H202.595V50H203.6V45.6875C203.6 43.608 202.015 43.3693 201.18 43.3693C200.191 43.3693 199.066 43.7102 198.555 44.9034L199.51 45.2443C199.731 44.767 200.255 44.2557 201.214 44.2557C202.139 44.2557 202.595 44.7457 202.595 45.5852V45.6193C202.595 46.1051 202.1 46.0625 200.907 46.2159C199.693 46.3736 198.368 46.642 198.368 48.142C198.368 49.4205 199.356 50.1534 200.6 50.1534ZM200.754 49.25C199.953 49.25 199.373 48.892 199.373 48.1932C199.373 47.4261 200.072 47.1875 200.856 47.0852C201.282 47.0341 202.424 46.9148 202.595 46.7102V47.6307C202.595 48.4489 201.947 49.25 200.754 49.25ZM208.095 50.1364C209.544 50.1364 210.499 49.25 210.669 48.0909H209.663C209.476 48.8068 208.879 49.233 208.095 49.233C206.902 49.233 206.135 48.2443 206.135 46.7273C206.135 45.2443 206.919 44.2727 208.095 44.2727C208.982 44.2727 209.51 44.8182 209.663 45.4148H210.669C210.499 44.1875 209.459 43.3693 208.078 43.3693C206.305 43.3693 205.129 44.767 205.129 46.7614C205.129 48.7216 206.254 50.1364 208.095 50.1364ZM214.884 50.1364C216.213 50.1364 217.185 49.4716 217.491 48.483L216.52 48.2102C216.264 48.892 215.672 49.233 214.884 49.233C213.703 49.233 212.889 48.4702 212.842 47.0682H217.594V46.642C217.594 44.2045 216.145 43.3693 214.781 43.3693C213.009 43.3693 211.832 44.767 211.832 46.7784C211.832 48.7898 212.991 50.1364 214.884 50.1364ZM212.842 46.1989C212.911 45.1804 213.631 44.2727 214.781 44.2727C215.872 44.2727 216.571 45.0909 216.571 46.1989H212.842Z" fill="#718EBF"/>
<path d="M282.191 37.5341H283.338V35.2244H285.647V34.0781H283.338V31.7727H282.191V34.0781H279.886V35.2244H282.191V37.5341ZM290.912 30.2727H289.63L287.452 31.696V32.9574L289.54 31.5938H289.591V39H290.912V30.2727ZM296.32 39.1193C298.144 39.1364 299.354 37.8239 299.35 36.1491C299.354 34.4787 298.14 33.2812 296.627 33.2812C295.706 33.2812 294.909 33.7244 294.462 34.4616H294.398C294.402 32.4801 295.152 31.304 296.431 31.304C297.27 31.304 297.799 31.8153 297.978 32.5398H299.277C299.077 31.1591 297.99 30.1534 296.431 30.1534C294.402 30.1534 293.137 31.8963 293.137 34.9304C293.132 38.1435 294.769 39.1065 296.32 39.1193ZM296.316 38.0114C295.301 38.0114 294.56 37.1591 294.56 36.179C294.564 35.2031 295.34 34.3509 296.346 34.3509C297.343 34.3509 298.076 35.1562 298.071 36.1662C298.076 37.1974 297.313 38.0114 296.316 38.0114ZM305.457 37.3636C305.462 38.348 306.08 39.179 307.234 39.179C308.376 39.179 309.003 38.348 309.003 37.3636V36.9034C309.003 35.9148 308.393 35.0881 307.234 35.0881C306.097 35.0881 305.462 35.919 305.457 36.9034V37.3636ZM301.068 32.3693C301.068 33.3537 301.69 34.1847 302.845 34.1847C303.983 34.1847 304.614 33.358 304.609 32.3693V31.9091C304.614 30.9205 304 30.0938 302.845 30.0938C301.712 30.0938 301.068 30.9205 301.068 31.9091V32.3693ZM301.426 39H302.445L308.445 30.2727H307.426L301.426 39ZM306.45 36.9034C306.455 36.4134 306.668 35.9403 307.234 35.9403C307.822 35.9403 308.006 36.4134 308.006 36.9034V37.3636C308.006 37.8537 307.805 38.3267 307.234 38.3267C306.655 38.3267 306.455 37.8494 306.45 37.3636V36.9034ZM302.065 31.9091C302.065 31.4233 302.278 30.946 302.845 30.946C303.433 30.946 303.616 31.419 303.616 31.9091V32.3693C303.616 32.8594 303.416 33.3324 302.845 33.3324C302.266 33.3324 302.065 32.8594 302.065 32.3693V31.9091Z" fill="#16DBAA"/>
</svg>
