<svg width="325" height="299" viewBox="0 0 325 299" fill="none" xmlns="http://www.w3.org/2000/svg">
<rect width="325" height="299" rx="15" fill="white"/>
<path d="M73.1953 25.0291H74.571C74.5295 23.5149 73.1907 22.4162 71.2702 22.4162C69.3729 22.4162 67.9187 23.5011 67.9187 25.1307C67.9187 26.4464 68.8604 27.2173 70.3793 27.6282L71.4964 27.9329C72.5075 28.2006 73.2876 28.533 73.2876 29.3732C73.2876 30.2965 72.4059 30.9059 71.1918 30.9059C70.093 30.9059 69.179 30.4165 69.0959 29.3871H67.6648C67.7571 31.0998 69.082 32.157 71.201 32.157C73.4215 32.157 74.7003 30.989 74.7003 29.3871C74.7003 27.6836 73.1815 27.0234 71.9812 26.728L71.0579 26.4879C70.3192 26.2987 69.3359 25.9524 69.3406 25.0476C69.3406 24.2443 70.0746 23.6488 71.2379 23.6488C72.3228 23.6488 73.0938 24.1566 73.1953 25.0291ZM76.2941 34.6591H77.6744V30.8967H77.7575C78.0068 31.3491 78.5146 32.1385 79.8073 32.1385C81.5246 32.1385 82.771 30.7628 82.771 28.4684C82.771 26.1694 81.5061 24.8168 79.7934 24.8168C78.4777 24.8168 78.0022 25.62 77.7575 26.0586H77.6421V24.9091H76.2941V34.6591ZM77.6468 28.4545C77.6468 26.9727 78.2931 25.9893 79.498 25.9893C80.749 25.9893 81.3769 27.0465 81.3769 28.4545C81.3769 29.8764 80.7306 30.9613 79.498 30.9613C78.3115 30.9613 77.6468 29.9457 77.6468 28.4545ZM87.3044 32.1431C89.3034 32.1431 90.6098 30.6797 90.6098 28.4869C90.6098 26.2802 89.3034 24.8168 87.3044 24.8168C85.3055 24.8168 83.999 26.2802 83.999 28.4869C83.999 30.6797 85.3055 32.1431 87.3044 32.1431ZM87.309 30.9844C86.0026 30.9844 85.3932 29.8441 85.3932 28.4822C85.3932 27.125 86.0026 25.9709 87.309 25.9709C88.6063 25.9709 89.2156 27.125 89.2156 28.4822C89.2156 29.8441 88.6063 30.9844 87.309 30.9844ZM95.4606 24.9091H94.0064V23.2102H92.6261V24.9091H91.5874V26.017H92.6261V30.2042C92.6214 31.4922 93.6048 32.1154 94.6942 32.0923C95.1328 32.0877 95.4283 32.0046 95.5898 31.9446L95.3406 30.8043C95.2482 30.8228 95.0774 30.8643 94.8558 30.8643C94.408 30.8643 94.0064 30.7166 94.0064 29.918V26.017H95.4606V24.9091ZM96.9875 32H98.3678V24.9091H96.9875V32ZM97.6846 23.815C98.1601 23.815 98.5571 23.4457 98.5571 22.9933C98.5571 22.5408 98.1601 22.1669 97.6846 22.1669C97.2045 22.1669 96.8121 22.5408 96.8121 22.9933C96.8121 23.4457 97.2045 23.815 97.6846 23.815ZM103.599 24.9091H102.071V24.272C102.071 23.6442 102.33 23.3026 103.004 23.3026C103.29 23.3026 103.493 23.3672 103.623 23.4087L103.946 22.2915C103.752 22.2177 103.35 22.1023 102.792 22.1023C101.67 22.1023 100.686 22.7578 100.686 24.0874V24.9091H99.5923V26.017H100.686V32H102.071V26.017H103.599V24.9091ZM105.896 34.6591C107.036 34.6591 107.757 34.0636 108.167 32.9464L111.099 24.9229L109.608 24.9091L107.812 30.4119H107.738L105.942 24.9091H104.465L107.059 32.0923L106.889 32.5632C106.538 33.505 106.044 33.5835 105.287 33.3757L104.954 34.5067C105.121 34.5806 105.481 34.6591 105.896 34.6591ZM121.107 25.0291H122.483C122.442 23.5149 121.103 22.4162 119.182 22.4162C117.285 22.4162 115.831 23.5011 115.831 25.1307C115.831 26.4464 116.773 27.2173 118.291 27.6282L119.409 27.9329C120.42 28.2006 121.2 28.533 121.2 29.3732C121.2 30.2965 120.318 30.9059 119.104 30.9059C118.005 30.9059 117.091 30.4165 117.008 29.3871H115.577C115.669 31.0998 116.994 32.157 119.113 32.157C121.334 32.157 122.612 30.989 122.612 29.3871C122.612 27.6836 121.094 27.0234 119.893 26.728L118.97 26.4879C118.231 26.2987 117.248 25.9524 117.253 25.0476C117.253 24.2443 117.987 23.6488 119.15 23.6488C120.235 23.6488 121.006 24.1566 121.107 25.0291ZM128.698 29.0593C128.703 30.2642 127.807 30.8366 127.032 30.8366C126.177 30.8366 125.587 30.218 125.587 29.2532V24.9091H124.206V29.4194C124.206 31.1783 125.171 32.0923 126.533 32.0923C127.599 32.0923 128.324 31.5291 128.652 30.772H128.726V32H130.083V24.9091H128.698V29.0593ZM132.048 32H133.396V30.8967H133.512C133.761 31.3491 134.269 32.1385 135.562 32.1385C137.279 32.1385 138.525 30.7628 138.525 28.4684C138.525 26.1694 137.26 24.8168 135.548 24.8168C134.232 24.8168 133.757 25.62 133.512 26.0586H133.429V22.5455H132.048V32ZM133.401 28.4545C133.401 26.9727 134.047 25.9893 135.252 25.9893C136.503 25.9893 137.131 27.0465 137.131 28.4545C137.131 29.8764 136.485 30.9613 135.252 30.9613C134.066 30.9613 133.401 29.9457 133.401 28.4545ZM145.389 26.6403C145.103 25.5369 144.239 24.8168 142.707 24.8168C141.105 24.8168 139.969 25.6616 139.969 26.9173C139.969 27.9237 140.579 28.593 141.908 28.8885L143.108 29.1516C143.792 29.304 144.11 29.6087 144.11 30.0518C144.11 30.6012 143.524 31.0305 142.619 31.0305C141.793 31.0305 141.262 30.6751 141.096 29.978L139.761 30.1811C139.992 31.4368 141.036 32.1431 142.628 32.1431C144.341 32.1431 145.527 31.2337 145.527 29.9503C145.527 28.9485 144.89 28.3299 143.589 28.0298L142.462 27.7713C141.682 27.5866 141.345 27.3235 141.35 26.8434C141.345 26.2987 141.936 25.9109 142.721 25.9109C143.579 25.9109 143.976 26.3864 144.138 26.8619L145.389 26.6403ZM150.032 32.1431C151.708 32.1431 152.793 31.1367 152.945 29.7564H151.602C151.426 30.5227 150.831 30.9751 150.041 30.9751C148.873 30.9751 148.121 30.0011 148.121 28.4545C148.121 26.9357 148.887 25.9801 150.041 25.9801C150.918 25.9801 151.454 26.5341 151.602 27.1989H152.945C152.797 25.7678 151.629 24.8168 150.018 24.8168C148.019 24.8168 146.727 26.3217 146.727 28.4869C146.727 30.6243 147.973 32.1431 150.032 32.1431ZM154.421 32H155.801V27.6697C155.801 26.7418 156.517 26.0724 157.496 26.0724C157.782 26.0724 158.105 26.1232 158.216 26.1555V24.8352C158.077 24.8168 157.805 24.8029 157.63 24.8029C156.799 24.8029 156.088 25.2738 155.829 26.0355H155.755V24.9091H154.421V32ZM159.41 32H160.791V24.9091H159.41V32ZM160.107 23.815C160.583 23.815 160.98 23.4457 160.98 22.9933C160.98 22.5408 160.583 22.1669 160.107 22.1669C159.627 22.1669 159.235 22.5408 159.235 22.9933C159.235 23.4457 159.627 23.815 160.107 23.815ZM162.648 34.6591H164.028V30.8967H164.111C164.36 31.3491 164.868 32.1385 166.161 32.1385C167.878 32.1385 169.125 30.7628 169.125 28.4684C169.125 26.1694 167.86 24.8168 166.147 24.8168C164.831 24.8168 164.356 25.62 164.111 26.0586H163.996V24.9091H162.648V34.6591ZM164 28.4545C164 26.9727 164.647 25.9893 165.851 25.9893C167.103 25.9893 167.73 27.0465 167.73 28.4545C167.73 29.8764 167.084 30.9613 165.851 30.9613C164.665 30.9613 164 29.9457 164 28.4545ZM173.981 24.9091H172.527V23.2102H171.147V24.9091H170.108V26.017H171.147V30.2042C171.142 31.4922 172.125 32.1154 173.215 32.0923C173.653 32.0877 173.949 32.0046 174.11 31.9446L173.861 30.8043C173.769 30.8228 173.598 30.8643 173.376 30.8643C172.929 30.8643 172.527 30.7166 172.527 29.918V26.017H173.981V24.9091ZM175.508 32H176.888V24.9091H175.508V32ZM176.205 23.815C176.681 23.815 177.078 23.4457 177.078 22.9933C177.078 22.5408 176.681 22.1669 176.205 22.1669C175.725 22.1669 175.333 22.5408 175.333 22.9933C175.333 23.4457 175.725 23.815 176.205 23.815ZM181.732 32.1431C183.731 32.1431 185.038 30.6797 185.038 28.4869C185.038 26.2802 183.731 24.8168 181.732 24.8168C179.733 24.8168 178.427 26.2802 178.427 28.4869C178.427 30.6797 179.733 32.1431 181.732 32.1431ZM181.737 30.9844C180.43 30.9844 179.821 29.8441 179.821 28.4822C179.821 27.125 180.43 25.9709 181.737 25.9709C183.034 25.9709 183.643 27.125 183.643 28.4822C183.643 29.8441 183.034 30.9844 181.737 30.9844ZM187.959 27.7898C187.959 26.6587 188.651 26.0124 189.611 26.0124C190.548 26.0124 191.116 26.6264 191.116 27.6559V32H192.497V27.4897C192.497 25.7354 191.532 24.8168 190.082 24.8168C189.016 24.8168 188.319 25.3107 187.991 26.0632H187.903V24.9091H186.578V32H187.959V27.7898Z" fill="#232323"/>
<path d="M67.9034 52H73.4091V51.0625H69.3523V50.9943L71.3125 48.8977C72.8125 47.2912 73.2557 46.5412 73.2557 45.5739C73.2557 44.2273 72.1648 43.1534 70.6307 43.1534C69.1009 43.1534 67.9375 44.1932 67.9375 45.7273H68.9432C68.9432 44.7344 69.5866 44.0739 70.5966 44.0739C71.5426 44.0739 72.267 44.6534 72.267 45.5739C72.267 46.3793 71.794 46.9759 70.7841 48.0795L67.9034 51.233V52ZM77.9645 52.1193C79.7074 52.1193 80.9219 51.1009 80.9304 49.6818C80.9219 48.5781 80.1847 47.6406 79.2429 47.4659V47.4148C80.0611 47.2017 80.598 46.4006 80.6065 45.4716C80.598 44.142 79.4815 43.1534 77.9645 43.1534C76.4304 43.1534 75.3139 44.142 75.3224 45.4716C75.3139 46.4006 75.8509 47.2017 76.6861 47.4148V47.4659C75.7273 47.6406 74.9901 48.5781 74.9986 49.6818C74.9901 51.1009 76.2045 52.1193 77.9645 52.1193ZM77.9645 51.1818C76.767 51.1818 76.0298 50.5682 76.0384 49.6307C76.0298 48.6463 76.8438 47.9432 77.9645 47.9432C79.0682 47.9432 79.8821 48.6463 79.8906 49.6307C79.8821 50.5682 79.1449 51.1818 77.9645 51.1818ZM77.9645 47.0398C77.0099 47.0398 76.3366 46.4432 76.3452 45.5398C76.3366 44.6534 76.9844 44.0739 77.9645 44.0739C78.9276 44.0739 79.5753 44.6534 79.5838 45.5398C79.5753 46.4432 78.902 47.0398 77.9645 47.0398ZM89.4329 43.2727V49.5114C89.4329 50.598 88.913 51.1818 88.0011 51.1818C87.1701 51.1818 86.5692 50.696 86.5692 49.9545H85.5295C85.5295 51.2969 86.5692 52.1193 88.0011 52.1193C89.5181 52.1193 90.4897 51.1861 90.4897 49.5114V43.2727H89.4329ZM94.3974 52.1534C95.5394 52.1534 96.136 51.5398 96.3406 51.1136H96.3917V52H97.3974V47.6875C97.3974 45.608 95.8121 45.3693 94.9769 45.3693C93.9883 45.3693 92.8633 45.7102 92.3519 46.9034L93.3065 47.2443C93.5281 46.767 94.0522 46.2557 95.011 46.2557C95.9357 46.2557 96.3917 46.7457 96.3917 47.5852V47.6193C96.3917 48.1051 95.8974 48.0625 94.7042 48.2159C93.4897 48.3736 92.1644 48.642 92.1644 50.142C92.1644 51.4205 93.1531 52.1534 94.3974 52.1534ZM94.5508 51.25C93.7496 51.25 93.1701 50.892 93.1701 50.1932C93.1701 49.4261 93.869 49.1875 94.6531 49.0852C95.0792 49.0341 96.2212 48.9148 96.3917 48.7102V49.6307C96.3917 50.4489 95.744 51.25 94.5508 51.25ZM100.239 48.0625C100.239 46.9205 100.946 46.2727 101.909 46.2727C102.842 46.2727 103.409 46.8821 103.409 47.9091V52H104.415V47.8409C104.415 46.1705 103.524 45.3693 102.199 45.3693C101.21 45.3693 100.597 45.8125 100.29 46.4773H100.205V45.4545H99.233V52H100.239V48.0625ZM107.752 50.8068H106.662L106.61 51.2841C106.487 52.4389 106.244 53.5895 106.133 54.1307H106.9C107.105 53.5511 107.539 52.2386 107.684 51.267L107.752 50.8068ZM116.042 43.2727H114.985L112.803 44.7216V45.7955L114.934 44.3807H114.985V52H116.042V43.2727ZM118.552 52H124.058V51.0625H120.001V50.9943L121.961 48.8977C123.461 47.2912 123.904 46.5412 123.904 45.5739C123.904 44.2273 122.813 43.1534 121.279 43.1534C119.749 43.1534 118.586 44.1932 118.586 45.7273H119.592C119.592 44.7344 120.235 44.0739 121.245 44.0739C122.191 44.0739 122.915 44.6534 122.915 45.5739C122.915 46.3793 122.442 46.9759 121.433 48.0795L118.552 51.233V52ZM126.567 52.0682C126.989 52.0682 127.335 51.723 127.335 51.3011C127.335 50.8793 126.989 50.5341 126.567 50.5341C126.146 50.5341 125.8 50.8793 125.8 51.3011C125.8 51.723 126.146 52.0682 126.567 52.0682ZM131.743 52.1193C133.435 52.1193 134.692 51.0582 134.692 49.6307C134.692 48.5227 134.036 47.7173 132.936 47.5341V47.4659C133.818 47.1974 134.368 46.473 134.368 45.4886C134.368 44.2528 133.392 43.1534 131.777 43.1534C130.268 43.1534 129.016 44.0824 128.964 45.4545H129.987C130.026 44.5852 130.852 44.0739 131.76 44.0739C132.723 44.0739 133.345 44.6577 133.345 45.5398C133.345 46.4602 132.625 47.0568 131.589 47.0568H130.891V47.9943H131.589C132.915 47.9943 133.652 48.6676 133.652 49.6307C133.652 50.5554 132.847 51.1818 131.726 51.1818C130.716 51.1818 129.915 50.6619 129.851 49.8182H128.777C128.841 51.1903 130.051 52.1193 131.743 52.1193ZM139.281 52.1193C141.207 52.1193 142.315 50.4872 142.315 47.6364C142.315 44.8068 141.19 43.1534 139.281 43.1534C137.372 43.1534 136.247 44.8068 136.247 47.6364C136.247 50.4872 137.355 52.1193 139.281 52.1193ZM139.281 51.1818C138.011 51.1818 137.27 49.9077 137.27 47.6364C137.27 45.3693 138.02 44.0739 139.281 44.0739C140.543 44.0739 141.293 45.3693 141.293 47.6364C141.293 49.9077 140.551 51.1818 139.281 51.1818ZM147.821 52L148.699 49.5284H152.227L153.105 52H154.213L151.009 43.2727H149.918L146.713 52H147.821ZM149.031 48.5909L150.429 44.6534H150.497L151.895 48.5909H149.031ZM155.572 43.2727V52H156.561V45.3693H156.646L159.374 52H160.328L163.055 45.3693H163.141V52H164.129V43.2727H162.868L159.902 50.517H159.8L156.834 43.2727H155.572Z" fill="#718EBF"/>
<circle cx="37.5" cy="37.5" r="16.5" stroke="#718EBF" stroke-width="2"/>
<path d="M37.601 30.649C37.2691 30.317 36.7309 30.317 36.399 30.649L30.9896 36.0583C30.6576 36.3903 30.6576 36.9285 30.9896 37.2604C31.3215 37.5924 31.8597 37.5924 32.1917 37.2604L37 32.4521L41.8083 37.2604C42.1403 37.5924 42.6785 37.5924 43.0104 37.2604C43.3424 36.9285 43.3424 36.3903 43.0104 36.0583L37.601 30.649ZM37.85 45L37.85 31.25L36.15 31.25L36.15 45L37.85 45Z" fill="#718EBF"/>
<path d="M259.312 36.6772H255.12V37.8729H259.312V36.6772ZM263.981 43.1818H264.849L264.854 42.1431C266.807 42 267.924 40.8828 267.924 39.3871C267.924 37.6836 266.405 37.0234 265.205 36.728L264.868 36.6403L264.877 33.6765C265.74 33.7919 266.331 34.272 266.419 35.0291H267.795C267.758 33.6211 266.594 32.5685 264.882 32.43L264.886 31.3636H264.018L264.014 32.4393C262.356 32.6055 261.142 33.6396 261.142 35.1307C261.142 36.4464 262.084 37.2173 263.603 37.6282L264 37.7344L263.991 40.8782C263.09 40.7674 262.393 40.2781 262.32 39.3871H260.888C260.976 40.9798 262.126 42.0046 263.986 42.1431L263.981 43.1818ZM264.859 40.8782L264.868 37.9744C265.805 38.233 266.511 38.5746 266.511 39.3732C266.511 40.1811 265.837 40.7489 264.859 40.8782ZM264.005 36.4094C263.317 36.2063 262.56 35.8416 262.564 35.0476C262.564 34.3551 263.114 33.815 264.009 33.6811L264.005 36.4094ZM269.499 42H275.722V40.7766H271.466V40.7074L273.345 38.7408C275.076 36.9911 275.57 36.1555 275.57 35.0984C275.57 33.5795 274.333 32.4162 272.551 32.4162C270.783 32.4162 269.49 33.5611 269.49 35.2876H270.852C270.847 34.272 271.503 33.6072 272.523 33.6072C273.483 33.6072 274.213 34.1982 274.213 35.1399C274.213 35.9755 273.714 36.5756 272.699 37.6513L269.499 40.9659V42ZM279.286 40.7074H277.957L277.911 41.2244C277.804 42.4755 277.509 43.7358 277.384 44.3082H278.363C278.585 43.7035 279.074 42.3185 279.217 41.2106L279.286 40.7074ZM284.185 42.1293C286.087 42.1293 287.445 40.7859 287.44 38.9439C287.445 37.1158 286.171 35.7862 284.449 35.7862C283.747 35.7862 283.096 36.054 282.727 36.4141H282.671L282.971 33.7688H286.983V32.5455H281.785L281.254 37.3097L282.56 37.5036C282.916 37.185 283.553 36.968 284.125 36.968C285.247 36.9773 286.06 37.8175 286.06 38.9716C286.06 40.1072 285.27 40.929 284.185 40.929C283.271 40.929 282.547 40.3473 282.473 39.5348H281.088C281.143 41.0398 282.45 42.1293 284.185 42.1293ZM292.418 42.157C294.601 42.157 295.88 40.375 295.88 37.2773C295.88 34.2028 294.583 32.4162 292.418 32.4162C290.248 32.4162 288.955 34.1982 288.951 37.2773C288.951 40.3704 290.23 42.1523 292.418 42.157ZM292.418 40.9244C291.139 40.9244 290.368 39.641 290.368 37.2773C290.373 34.9229 291.144 33.6257 292.418 33.6257C293.687 33.6257 294.463 34.9229 294.463 37.2773C294.463 39.641 293.692 40.9244 292.418 40.9244ZM300.809 42.157C302.993 42.157 304.272 40.375 304.272 37.2773C304.272 34.2028 302.975 32.4162 300.809 32.4162C298.64 32.4162 297.347 34.1982 297.342 37.2773C297.342 40.3704 298.621 42.1523 300.809 42.157ZM300.809 40.9244C299.531 40.9244 298.76 39.641 298.76 37.2773C298.764 34.9229 299.535 33.6257 300.809 33.6257C302.079 33.6257 302.854 34.9229 302.854 37.2773C302.854 39.641 302.084 40.9244 300.809 40.9244Z" fill="#FE5C73"/>
<path d="M68.0387 88H69.4652V83.8775H73.4815V82.6541H69.4652V79.7734H73.9016V78.5455H68.0387V88ZM75.4562 88H76.8366V83.6697C76.8366 82.7418 77.5521 82.0724 78.5308 82.0724C78.817 82.0724 79.1402 82.1232 79.251 82.1555V80.8352C79.1125 80.8168 78.8401 80.8029 78.6647 80.8029C77.8337 80.8029 77.1228 81.2738 76.8643 82.0355H76.7904V80.9091H75.4562V88ZM83.2477 88.1431C84.7942 88.1431 85.8883 87.3814 86.2022 86.2273L84.8958 85.9918C84.6465 86.6612 84.0463 87.0028 83.2615 87.0028C82.0797 87.0028 81.2857 86.2365 81.2488 84.87H86.29V84.3807C86.29 81.8185 84.7573 80.8168 83.1507 80.8168C81.1749 80.8168 79.873 82.3217 79.873 84.5007C79.873 86.7028 81.1564 88.1431 83.2477 88.1431ZM81.2534 83.8359C81.3088 82.8295 82.0382 81.957 83.16 81.957C84.231 81.957 84.9327 82.7511 84.9373 83.8359H81.2534ZM90.8776 88.1431C92.4241 88.1431 93.5182 87.3814 93.8321 86.2273L92.5257 85.9918C92.2764 86.6612 91.6762 87.0028 90.8914 87.0028C89.7096 87.0028 88.9156 86.2365 88.8786 84.87H93.9198V84.3807C93.9198 81.8185 92.3872 80.8168 90.7806 80.8168C88.8048 80.8168 87.5029 82.3217 87.5029 84.5007C87.5029 86.7028 88.7863 88.1431 90.8776 88.1431ZM88.8833 83.8359C88.9387 82.8295 89.6681 81.957 90.7899 81.957C91.8609 81.957 92.5626 82.7511 92.5672 83.8359H88.8833ZM95.4513 90.6591H96.8317V86.8967H96.9148C97.1641 87.3491 97.6719 88.1385 98.9645 88.1385C100.682 88.1385 101.928 86.7628 101.928 84.4684C101.928 82.1694 100.663 80.8168 98.9506 80.8168C97.6349 80.8168 97.1594 81.62 96.9148 82.0586H96.7994V80.9091H95.4513V90.6591ZM96.804 84.4545C96.804 82.9727 97.4503 81.9893 98.6552 81.9893C99.9062 81.9893 100.534 83.0465 100.534 84.4545C100.534 85.8764 99.8878 86.9613 98.6552 86.9613C97.4688 86.9613 96.804 85.9457 96.804 84.4545ZM103.475 88H104.855V80.9091H103.475V88ZM104.172 79.815C104.647 79.815 105.044 79.4457 105.044 78.9933C105.044 78.5408 104.647 78.1669 104.172 78.1669C103.692 78.1669 103.299 78.5408 103.299 78.9933C103.299 79.4457 103.692 79.815 104.172 79.815ZM106.712 88H108.092V85.484L108.78 84.7962L111.19 88H112.884L109.819 83.9513L112.69 80.9091H111.038L108.212 83.9098H108.092V78.5455H106.712V88ZM122.656 81.0291H124.032C123.99 79.5149 122.652 78.4162 120.731 78.4162C118.834 78.4162 117.38 79.5011 117.38 81.1307C117.38 82.4464 118.321 83.2173 119.84 83.6282L120.957 83.9329C121.968 84.2006 122.749 84.533 122.749 85.3732C122.749 86.2965 121.867 86.9059 120.653 86.9059C119.554 86.9059 118.64 86.4165 118.557 85.3871H117.126C117.218 87.0998 118.543 88.157 120.662 88.157C122.882 88.157 124.161 86.989 124.161 85.3871C124.161 83.6836 122.642 83.0234 121.442 82.728L120.519 82.4879C119.78 82.2987 118.797 81.9524 118.801 81.0476C118.801 80.2443 119.536 79.6488 120.699 79.6488C121.784 79.6488 122.555 80.1566 122.656 81.0291ZM127.819 88.157C128.991 88.157 129.651 87.5614 129.915 87.0305H129.97V88H131.318V83.2912C131.318 81.2276 129.693 80.8168 128.566 80.8168C127.283 80.8168 126.101 81.3338 125.64 82.6264L126.937 82.9219C127.14 82.4187 127.657 81.9339 128.585 81.9339C129.476 81.9339 129.933 82.4002 129.933 83.2035V83.2358C129.933 83.739 129.416 83.7298 128.142 83.8775C126.798 84.0344 125.423 84.3853 125.423 85.9964C125.423 87.3906 126.471 88.157 127.819 88.157ZM128.119 87.049C127.339 87.049 126.775 86.6982 126.775 86.0149C126.775 85.2763 127.431 85.0131 128.229 84.907C128.677 84.8469 129.739 84.7269 129.938 84.5284V85.4425C129.938 86.2827 129.268 87.049 128.119 87.049ZM134.537 78.5455H133.156V88H134.537V78.5455ZM139.45 88.1431C140.996 88.1431 142.09 87.3814 142.404 86.2273L141.098 85.9918C140.849 86.6612 140.248 87.0028 139.464 87.0028C138.282 87.0028 137.488 86.2365 137.451 84.87H142.492V84.3807C142.492 81.8185 140.959 80.8168 139.353 80.8168C137.377 80.8168 136.075 82.3217 136.075 84.5007C136.075 86.7028 137.359 88.1431 139.45 88.1431ZM137.456 83.8359C137.511 82.8295 138.24 81.957 139.362 81.957C140.433 81.957 141.135 82.7511 141.139 83.8359H137.456ZM149.337 82.6403C149.051 81.5369 148.188 80.8168 146.655 80.8168C145.053 80.8168 143.917 81.6616 143.917 82.9173C143.917 83.9237 144.527 84.593 145.856 84.8885L147.057 85.1516C147.74 85.304 148.058 85.6087 148.058 86.0518C148.058 86.6012 147.472 87.0305 146.567 87.0305C145.741 87.0305 145.21 86.6751 145.044 85.978L143.71 86.1811C143.941 87.4368 144.984 88.1431 146.577 88.1431C148.289 88.1431 149.476 87.2337 149.476 85.9503C149.476 84.9485 148.839 84.3299 147.537 84.0298L146.41 83.7713C145.63 83.5866 145.293 83.3235 145.298 82.8434C145.293 82.2987 145.884 81.9109 146.669 81.9109C147.528 81.9109 147.925 82.3864 148.086 82.8619L149.337 82.6403Z" fill="#232323"/>
<path d="M67.9034 108H73.4091V107.062H69.3523V106.994L71.3125 104.898C72.8125 103.291 73.2557 102.541 73.2557 101.574C73.2557 100.227 72.1648 99.1534 70.6307 99.1534C69.1009 99.1534 67.9375 100.193 67.9375 101.727H68.9432C68.9432 100.734 69.5866 100.074 70.5966 100.074C71.5426 100.074 72.267 100.653 72.267 101.574C72.267 102.379 71.794 102.976 70.7841 104.08L67.9034 107.233V108ZM77.8963 108.119C79.5582 108.119 80.777 106.892 80.777 105.222C80.777 103.53 79.6009 102.29 77.9986 102.29C77.4105 102.29 76.8395 102.499 76.4815 102.784H76.4304L76.7372 100.21H80.3849V99.2727H75.8509L75.3224 103.568L76.3111 103.688C76.6733 103.428 77.2912 103.24 77.8281 103.244C78.9403 103.253 79.7543 104.097 79.7543 105.239C79.7543 106.359 78.9702 107.182 77.8963 107.182C77.0014 107.182 76.2898 106.607 76.2088 105.818H75.1861C75.25 107.148 76.3963 108.119 77.8963 108.119ZM89.3391 99.2727V105.511C89.3391 106.598 88.8192 107.182 87.9073 107.182C87.0763 107.182 86.4755 106.696 86.4755 105.955H85.4357C85.4357 107.297 86.4755 108.119 87.9073 108.119C89.4244 108.119 90.396 107.186 90.396 105.511V99.2727H89.3391ZM94.3036 108.153C95.4457 108.153 96.0423 107.54 96.2468 107.114H96.2979V108H97.3036V103.688C97.3036 101.608 95.7184 101.369 94.8832 101.369C93.8945 101.369 92.7695 101.71 92.2582 102.903L93.2127 103.244C93.4343 102.767 93.9585 102.256 94.9173 102.256C95.842 102.256 96.2979 102.746 96.2979 103.585V103.619C96.2979 104.105 95.8036 104.062 94.6104 104.216C93.396 104.374 92.0707 104.642 92.0707 106.142C92.0707 107.42 93.0593 108.153 94.3036 108.153ZM94.457 107.25C93.6559 107.25 93.0763 106.892 93.0763 106.193C93.0763 105.426 93.7752 105.188 94.5593 105.085C94.9854 105.034 96.1275 104.915 96.2979 104.71V105.631C96.2979 106.449 95.6502 107.25 94.457 107.25ZM100.145 104.062C100.145 102.92 100.852 102.273 101.815 102.273C102.749 102.273 103.315 102.882 103.315 103.909V108H104.321V103.841C104.321 102.17 103.43 101.369 102.105 101.369C101.116 101.369 100.503 101.812 100.196 102.477H100.111V101.455H99.1392V108H100.145V104.062ZM107.659 106.807H106.568L106.517 107.284C106.393 108.439 106.15 109.589 106.039 110.131H106.806C107.011 109.551 107.446 108.239 107.591 107.267L107.659 106.807ZM115.948 99.2727H114.891L112.71 100.722V101.795L114.84 100.381H114.891V108H115.948V99.2727ZM121.305 108.119C123.231 108.119 124.339 106.487 124.339 103.636C124.339 100.807 123.214 99.1534 121.305 99.1534C119.396 99.1534 118.271 100.807 118.271 103.636C118.271 106.487 119.379 108.119 121.305 108.119ZM121.305 107.182C120.035 107.182 119.293 105.908 119.293 103.636C119.293 101.369 120.043 100.074 121.305 100.074C122.566 100.074 123.316 101.369 123.316 103.636C123.316 105.908 122.575 107.182 121.305 107.182ZM126.403 108.068C126.825 108.068 127.17 107.723 127.17 107.301C127.17 106.879 126.825 106.534 126.403 106.534C125.982 106.534 125.636 106.879 125.636 107.301C125.636 107.723 125.982 108.068 126.403 108.068ZM128.754 106.21H132.862V108H133.867V106.21H135.06V105.273H133.867V99.2727H132.589L128.754 105.341V106.21ZM132.862 105.273H129.896V105.205L132.793 100.619H132.862V105.273ZM139.504 108.119C141.43 108.119 142.538 106.487 142.538 103.636C142.538 100.807 141.413 99.1534 139.504 99.1534C137.595 99.1534 136.47 100.807 136.47 103.636C136.47 106.487 137.578 108.119 139.504 108.119ZM139.504 107.182C138.234 107.182 137.493 105.908 137.493 103.636C137.493 101.369 138.243 100.074 139.504 100.074C140.765 100.074 141.515 101.369 141.515 103.636C141.515 105.908 140.774 107.182 139.504 107.182ZM147.686 108H148.743V104.812H150.652C152.684 104.812 153.6 103.577 153.6 102.034C153.6 100.491 152.684 99.2727 150.635 99.2727H147.686V108ZM148.743 103.875V100.21H150.6C152.02 100.21 152.561 100.986 152.561 102.034C152.561 103.082 152.02 103.875 150.618 103.875H148.743ZM155.303 99.2727V108H156.292V101.369H156.377L159.104 108H160.059L162.786 101.369H162.871V108H163.86V99.2727H162.598L159.632 106.517H159.53L156.564 99.2727H155.303Z" fill="#718EBF"/>
<circle cx="37.5" cy="93.5" r="16.5" transform="rotate(180 37.5 93.5)" stroke="#718EBF" stroke-width="2"/>
<path d="M37.399 100.351C37.7309 100.683 38.2691 100.683 38.601 100.351L44.0104 94.9417C44.3424 94.6097 44.3424 94.0715 44.0104 93.7396C43.6785 93.4076 43.1403 93.4076 42.8083 93.7396L38 98.5479L33.1917 93.7396C32.8597 93.4076 32.3215 93.4076 31.9896 93.7396C31.6576 94.0715 31.6576 94.6097 31.9896 94.9417L37.399 100.351ZM37.15 86L37.15 99.75L38.85 99.75L38.85 86L37.15 86Z" fill="#718EBF"/>
<path d="M267.828 96.4119H269.07V93.9098H271.572V92.668H269.07V90.1705H267.828V92.668H265.331V93.9098H267.828V96.4119ZM276.537 99.1818H277.405L277.41 98.1431C279.362 98 280.48 96.8828 280.48 95.3871C280.48 93.6836 278.961 93.0234 277.76 92.728L277.423 92.6403L277.433 89.6765C278.296 89.7919 278.887 90.272 278.975 91.0291H280.35C280.313 89.6211 279.15 88.5685 277.437 88.43L277.442 87.3636H276.574L276.569 88.4393C274.912 88.6055 273.698 89.6396 273.698 91.1307C273.698 92.4464 274.64 93.2173 276.159 93.6282L276.556 93.7344L276.546 96.8782C275.646 96.7674 274.949 96.2781 274.875 95.3871H273.444C273.532 96.9798 274.681 98.0046 276.542 98.1431L276.537 99.1818ZM277.414 96.8782L277.423 93.9744C278.361 94.233 279.067 94.5746 279.067 95.3732C279.067 96.1811 278.393 96.7489 277.414 96.8782ZM276.56 92.4094C275.872 92.2063 275.115 91.8416 275.12 91.0476C275.12 90.3551 275.669 89.815 276.565 89.6811L276.56 92.4094ZM282.373 98H283.865L287.978 89.8104V88.5455H281.727V89.7688H286.501V89.8381L282.373 98ZM292.577 98.1293C294.479 98.1293 295.836 96.7859 295.832 94.9439C295.836 93.1158 294.562 91.7862 292.84 91.7862C292.138 91.7862 291.488 92.054 291.118 92.4141H291.063L291.363 89.7688H295.375V88.5455H290.176L289.646 93.3097L290.952 93.5036C291.308 93.185 291.945 92.968 292.517 92.968C293.639 92.9773 294.451 93.8175 294.451 94.9716C294.451 96.1072 293.662 96.929 292.577 96.929C291.663 96.929 290.938 96.3473 290.864 95.5348H289.479C289.535 97.0398 290.841 98.1293 292.577 98.1293ZM300.809 98.157C302.993 98.157 304.272 96.375 304.272 93.2773C304.272 90.2028 302.975 88.4162 300.809 88.4162C298.64 88.4162 297.347 90.1982 297.342 93.2773C297.342 96.3704 298.621 98.1523 300.809 98.157ZM300.809 96.9244C299.531 96.9244 298.76 95.641 298.76 93.2773C298.764 90.9229 299.535 89.6257 300.809 89.6257C302.079 89.6257 302.854 90.9229 302.854 93.2773C302.854 95.641 302.084 96.9244 300.809 96.9244Z" fill="#16DBAA"/>
<path d="M68.0387 134.545V144H69.396V137.154H69.4837L72.272 143.986H73.3984L76.1868 137.158H76.2745V144H77.6317V134.545H75.9006L72.8906 141.895H72.7798L69.7699 134.545H68.0387ZM82.5818 144.143C84.5807 144.143 85.8872 142.68 85.8872 140.487C85.8872 138.28 84.5807 136.817 82.5818 136.817C80.5828 136.817 79.2764 138.28 79.2764 140.487C79.2764 142.68 80.5828 144.143 82.5818 144.143ZM82.5864 142.984C81.2799 142.984 80.6705 141.844 80.6705 140.482C80.6705 139.125 81.2799 137.971 82.5864 137.971C83.8836 137.971 84.493 139.125 84.493 140.482C84.493 141.844 83.8836 142.984 82.5864 142.984ZM87.5387 144H88.8867V142.897H89.0021C89.2514 143.349 89.7592 144.138 91.0518 144.138C92.7692 144.138 94.0156 142.763 94.0156 140.468C94.0156 138.169 92.7507 136.817 91.038 136.817C89.7223 136.817 89.2468 137.62 89.0021 138.059H88.919V134.545H87.5387V144ZM88.8913 140.455C88.8913 138.973 89.5376 137.989 90.7425 137.989C91.9936 137.989 92.6214 139.047 92.6214 140.455C92.6214 141.876 91.9751 142.961 90.7425 142.961C89.5561 142.961 88.8913 141.946 88.8913 140.455ZM95.5656 144H96.9459V136.909H95.5656V144ZM96.2627 135.815C96.7382 135.815 97.1352 135.446 97.1352 134.993C97.1352 134.541 96.7382 134.167 96.2627 134.167C95.7826 134.167 95.3902 134.541 95.3902 134.993C95.3902 135.446 95.7826 135.815 96.2627 135.815ZM100.183 134.545H98.8029V144H100.183V134.545ZM105.096 144.143C106.643 144.143 107.737 143.381 108.051 142.227L106.744 141.992C106.495 142.661 105.895 143.003 105.11 143.003C103.928 143.003 103.134 142.237 103.097 140.87H108.139V140.381C108.139 137.819 106.606 136.817 104.999 136.817C103.024 136.817 101.722 138.322 101.722 140.501C101.722 142.703 103.005 144.143 105.096 144.143ZM103.102 139.836C103.157 138.83 103.887 137.957 105.009 137.957C106.08 137.957 106.781 138.751 106.786 139.836H103.102ZM118.378 137.029H119.754C119.712 135.515 118.373 134.416 116.453 134.416C114.555 134.416 113.101 135.501 113.101 137.131C113.101 138.446 114.043 139.217 115.562 139.628L116.679 139.933C117.69 140.201 118.47 140.533 118.47 141.373C118.47 142.297 117.589 142.906 116.374 142.906C115.276 142.906 114.362 142.417 114.278 141.387H112.847C112.94 143.1 114.265 144.157 116.384 144.157C118.604 144.157 119.883 142.989 119.883 141.387C119.883 139.684 118.364 139.023 117.164 138.728L116.241 138.488C115.502 138.299 114.519 137.952 114.523 137.048C114.523 136.244 115.257 135.649 116.421 135.649C117.505 135.649 118.276 136.157 118.378 137.029ZM124.533 144.143C126.079 144.143 127.173 143.381 127.487 142.227L126.181 141.992C125.932 142.661 125.331 143.003 124.547 143.003C123.365 143.003 122.571 142.237 122.534 140.87H127.575V140.381C127.575 137.819 126.042 136.817 124.436 136.817C122.46 136.817 121.158 138.322 121.158 140.501C121.158 142.703 122.442 144.143 124.533 144.143ZM122.539 139.836C122.594 138.83 123.323 137.957 124.445 137.957C125.516 137.957 126.218 138.751 126.222 139.836H122.539ZM129.107 144H130.487V139.67C130.487 138.742 131.203 138.072 132.181 138.072C132.467 138.072 132.791 138.123 132.901 138.156V136.835C132.763 136.817 132.491 136.803 132.315 136.803C131.484 136.803 130.773 137.274 130.515 138.036H130.441V136.909H129.107V144ZM140.378 136.909H138.896L137.105 142.366H137.031L135.235 136.909H133.753L136.329 144H137.806L140.378 136.909ZM141.675 144H143.055V136.909H141.675V144ZM142.372 135.815C142.848 135.815 143.245 135.446 143.245 134.993C143.245 134.541 142.848 134.167 142.372 134.167C141.892 134.167 141.5 134.541 141.5 134.993C141.5 135.446 141.892 135.815 142.372 135.815ZM147.899 144.143C149.575 144.143 150.66 143.137 150.812 141.756H149.469C149.293 142.523 148.698 142.975 147.908 142.975C146.74 142.975 145.988 142.001 145.988 140.455C145.988 138.936 146.754 137.98 147.908 137.98C148.786 137.98 149.321 138.534 149.469 139.199H150.812C150.664 137.768 149.496 136.817 147.885 136.817C145.886 136.817 144.594 138.322 144.594 140.487C144.594 142.624 145.84 144.143 147.899 144.143ZM155.344 144.143C156.891 144.143 157.985 143.381 158.299 142.227L156.992 141.992C156.743 142.661 156.143 143.003 155.358 143.003C154.176 143.003 153.382 142.237 153.345 140.87H158.387V140.381C158.387 137.819 156.854 136.817 155.247 136.817C153.272 136.817 151.97 138.322 151.97 140.501C151.97 142.703 153.253 144.143 155.344 144.143ZM153.35 139.836C153.405 138.83 154.135 137.957 155.257 137.957C156.328 137.957 157.029 138.751 157.034 139.836H153.35Z" fill="#232323"/>
<path d="M67.9034 164H73.4091V163.062H69.3523V162.994L71.3125 160.898C72.8125 159.291 73.2557 158.541 73.2557 157.574C73.2557 156.227 72.1648 155.153 70.6307 155.153C69.1009 155.153 67.9375 156.193 67.9375 157.727H68.9432C68.9432 156.734 69.5866 156.074 70.5966 156.074C71.5426 156.074 72.267 156.653 72.267 157.574C72.267 158.379 71.794 158.976 70.7841 160.08L67.9034 163.233V164ZM78.0156 164.119C79.9418 164.119 81.0497 162.487 81.0497 159.636C81.0497 156.807 79.9247 155.153 78.0156 155.153C76.1065 155.153 74.9815 156.807 74.9815 159.636C74.9815 162.487 76.0895 164.119 78.0156 164.119ZM78.0156 163.182C76.7457 163.182 76.0043 161.908 76.0043 159.636C76.0043 157.369 76.7543 156.074 78.0156 156.074C79.277 156.074 80.027 157.369 80.027 159.636C80.027 161.908 79.2855 163.182 78.0156 163.182ZM89.5384 155.273V161.511C89.5384 162.598 89.0185 163.182 88.1065 163.182C87.2756 163.182 86.6747 162.696 86.6747 161.955H85.6349C85.6349 163.297 86.6747 164.119 88.1065 164.119C89.6236 164.119 90.5952 163.186 90.5952 161.511V155.273H89.5384ZM94.5028 164.153C95.6449 164.153 96.2415 163.54 96.446 163.114H96.4972V164H97.5028V159.688C97.5028 157.608 95.9176 157.369 95.0824 157.369C94.0938 157.369 92.9688 157.71 92.4574 158.903L93.4119 159.244C93.6335 158.767 94.1577 158.256 95.1165 158.256C96.0412 158.256 96.4972 158.746 96.4972 159.585V159.619C96.4972 160.105 96.0028 160.062 94.8097 160.216C93.5952 160.374 92.2699 160.642 92.2699 162.142C92.2699 163.42 93.2585 164.153 94.5028 164.153ZM94.6562 163.25C93.8551 163.25 93.2756 162.892 93.2756 162.193C93.2756 161.426 93.9744 161.188 94.7585 161.085C95.1847 161.034 96.3267 160.915 96.4972 160.71V161.631C96.4972 162.449 95.8494 163.25 94.6562 163.25ZM100.344 160.062C100.344 158.92 101.051 158.273 102.015 158.273C102.948 158.273 103.515 158.882 103.515 159.909V164H104.52V159.841C104.52 158.17 103.63 157.369 102.304 157.369C101.316 157.369 100.702 157.812 100.395 158.477H100.31V157.455H99.3384V164H100.344V160.062ZM107.858 162.807H106.767L106.716 163.284C106.592 164.439 106.349 165.589 106.239 166.131H107.006C107.21 165.551 107.645 164.239 107.79 163.267L107.858 162.807ZM116.147 155.273H115.091L112.909 156.722V157.795L115.039 156.381H115.091V164H116.147V155.273ZM121.504 164.119C123.43 164.119 124.538 162.487 124.538 159.636C124.538 156.807 123.413 155.153 121.504 155.153C119.595 155.153 118.47 156.807 118.47 159.636C118.47 162.487 119.578 164.119 121.504 164.119ZM121.504 163.182C120.234 163.182 119.493 161.908 119.493 159.636C119.493 157.369 120.243 156.074 121.504 156.074C122.765 156.074 123.515 157.369 123.515 159.636C123.515 161.908 122.774 163.182 121.504 163.182ZM126.603 164.068C127.025 164.068 127.37 163.723 127.37 163.301C127.37 162.879 127.025 162.534 126.603 162.534C126.181 162.534 125.836 162.879 125.836 163.301C125.836 163.723 126.181 164.068 126.603 164.068ZM128.953 162.21H133.061V164H134.066V162.21H135.26V161.273H134.066V155.273H132.788L128.953 161.341V162.21ZM133.061 161.273H130.095V161.205L132.993 156.619H133.061V161.273ZM139.703 164.119C141.629 164.119 142.737 162.487 142.737 159.636C142.737 156.807 141.612 155.153 139.703 155.153C137.794 155.153 136.669 156.807 136.669 159.636C136.669 162.487 137.777 164.119 139.703 164.119ZM139.703 163.182C138.433 163.182 137.692 161.908 137.692 159.636C137.692 157.369 138.442 156.074 139.703 156.074C140.964 156.074 141.714 157.369 141.714 159.636C141.714 161.908 140.973 163.182 139.703 163.182ZM147.885 164H148.942V160.812H150.851C152.884 160.812 153.8 159.577 153.8 158.034C153.8 156.491 152.884 155.273 150.834 155.273H147.885V164ZM148.942 159.875V156.21H150.8C152.219 156.21 152.76 156.986 152.76 158.034C152.76 159.082 152.219 159.875 150.817 159.875H148.942ZM155.502 155.273V164H156.491V157.369H156.576L159.303 164H160.258L162.985 157.369H163.07V164H164.059V155.273H162.798L159.832 162.517H159.729L156.763 155.273H155.502Z" fill="#718EBF"/>
<circle cx="37.5" cy="149.5" r="16.5" stroke="#718EBF" stroke-width="2"/>
<path d="M37.601 142.649C37.2691 142.317 36.7309 142.317 36.399 142.649L30.9896 148.058C30.6576 148.39 30.6576 148.928 30.9896 149.26C31.3215 149.592 31.8597 149.592 32.1917 149.26L37 144.452L41.8083 149.26C42.1403 149.592 42.6785 149.592 43.0104 149.26C43.3424 148.928 43.3424 148.39 43.0104 148.058L37.601 142.649ZM37.85 157L37.85 143.25L36.15 143.25L36.15 157L37.85 157Z" fill="#718EBF"/>
<path d="M273.124 148.677H268.933V149.873H273.124V148.677ZM277.794 155.182H278.662L278.666 154.143C280.619 154 281.736 152.883 281.736 151.387C281.736 149.684 280.218 149.023 279.017 148.728L278.68 148.64L278.69 145.676C279.553 145.792 280.144 146.272 280.231 147.029H281.607C281.57 145.621 280.407 144.569 278.694 144.43L278.699 143.364H277.831L277.826 144.439C276.169 144.605 274.955 145.64 274.955 147.131C274.955 148.446 275.897 149.217 277.415 149.628L277.812 149.734L277.803 152.878C276.903 152.767 276.206 152.278 276.132 151.387H274.701C274.789 152.98 275.938 154.005 277.799 154.143L277.794 155.182ZM278.671 152.878L278.68 149.974C279.617 150.233 280.324 150.575 280.324 151.373C280.324 152.181 279.65 152.749 278.671 152.878ZM277.817 148.409C277.129 148.206 276.372 147.842 276.377 147.048C276.377 146.355 276.926 145.815 277.822 145.681L277.817 148.409ZM286.899 144.545H285.509L283.15 146.087V147.454L285.412 145.977H285.468V154H286.899V144.545ZM292.577 154.129C294.479 154.129 295.836 152.786 295.832 150.944C295.836 149.116 294.562 147.786 292.84 147.786C292.138 147.786 291.488 148.054 291.118 148.414H291.063L291.363 145.769H295.375V144.545H290.176L289.646 149.31L290.952 149.504C291.308 149.185 291.945 148.968 292.517 148.968C293.639 148.977 294.451 149.817 294.451 150.972C294.451 152.107 293.662 152.929 292.577 152.929C291.663 152.929 290.938 152.347 290.864 151.535H289.479C289.535 153.04 290.841 154.129 292.577 154.129ZM300.809 154.157C302.993 154.157 304.272 152.375 304.272 149.277C304.272 146.203 302.975 144.416 300.809 144.416C298.64 144.416 297.347 146.198 297.342 149.277C297.342 152.37 298.621 154.152 300.809 154.157ZM300.809 152.924C299.531 152.924 298.76 151.641 298.76 149.277C298.764 146.923 299.535 145.626 300.809 145.626C302.079 145.626 302.854 146.923 302.854 149.277C302.854 151.641 302.084 152.924 300.809 152.924Z" fill="#FE5C73"/>
<path d="M69.8899 200H71.3303L73.32 192.918H73.3938L75.3835 200H76.8192L79.446 190.545H77.9411L76.1037 197.872H76.016L74.1001 190.545H72.6136L70.6978 197.867H70.6101L68.7681 190.545H67.2678L69.8899 200ZM80.6359 200H82.0162V192.909H80.6359V200ZM81.333 191.815C81.8085 191.815 82.2055 191.446 82.2055 190.993C82.2055 190.541 81.8085 190.167 81.333 190.167C80.8529 190.167 80.4605 190.541 80.4605 190.993C80.4605 191.446 80.8529 191.815 81.333 191.815ZM85.2536 190.545H83.8732V200H85.2536V190.545ZM92.4241 194.64C92.1379 193.537 91.2746 192.817 89.7419 192.817C88.14 192.817 87.0044 193.662 87.0044 194.917C87.0044 195.924 87.6137 196.593 88.9433 196.888L90.1436 197.152C90.8268 197.304 91.1453 197.609 91.1453 198.052C91.1453 198.601 90.559 199.031 89.6542 199.031C88.8279 199.031 88.297 198.675 88.1308 197.978L86.7966 198.181C87.0274 199.437 88.0708 200.143 89.6634 200.143C91.3762 200.143 92.5626 199.234 92.5626 197.95C92.5626 196.949 91.9255 196.33 90.6237 196.03L89.4972 195.771C88.7171 195.587 88.3801 195.324 88.3847 194.843C88.3801 194.299 88.971 193.911 89.7558 193.911C90.6144 193.911 91.0115 194.386 91.173 194.862L92.4241 194.64ZM97.0671 200.143C99.0661 200.143 100.373 198.68 100.373 196.487C100.373 194.28 99.0661 192.817 97.0671 192.817C95.0682 192.817 93.7617 194.28 93.7617 196.487C93.7617 198.68 95.0682 200.143 97.0671 200.143ZM97.0717 198.984C95.7653 198.984 95.1559 197.844 95.1559 196.482C95.1559 195.125 95.7653 193.971 97.0717 193.971C98.369 193.971 98.9783 195.125 98.9783 196.482C98.9783 197.844 98.369 198.984 97.0717 198.984ZM103.294 195.79C103.294 194.659 103.986 194.012 104.946 194.012C105.883 194.012 106.451 194.626 106.451 195.656V200H107.832V195.49C107.832 193.735 106.867 192.817 105.417 192.817C104.351 192.817 103.654 193.311 103.326 194.063H103.238V192.909H101.913V200H103.294V195.79Z" fill="#232323"/>
<path d="M70.9716 211.273H69.9148L67.733 212.722V213.795L69.8636 212.381H69.9148V220H70.9716V211.273ZM76.2088 220.119C77.8707 220.119 79.0895 218.892 79.0895 217.222C79.0895 215.53 77.9134 214.29 76.3111 214.29C75.723 214.29 75.152 214.499 74.794 214.784H74.7429L75.0497 212.21H78.6974V211.273H74.1634L73.6349 215.568L74.6236 215.688C74.9858 215.428 75.6037 215.24 76.1406 215.244C77.2528 215.253 78.0668 216.097 78.0668 217.239C78.0668 218.359 77.2827 219.182 76.2088 219.182C75.3139 219.182 74.6023 218.607 74.5213 217.818H73.4986C73.5625 219.148 74.7088 220.119 76.2088 220.119ZM87.6516 211.273V217.511C87.6516 218.598 87.1317 219.182 86.2198 219.182C85.3888 219.182 84.788 218.696 84.788 217.955H83.7482C83.7482 219.297 84.788 220.119 86.2198 220.119C87.7369 220.119 88.7085 219.186 88.7085 217.511V211.273H87.6516ZM92.6161 220.153C93.7582 220.153 94.3548 219.54 94.5593 219.114H94.6104V220H95.6161V215.688C95.6161 213.608 94.0309 213.369 93.1957 213.369C92.207 213.369 91.082 213.71 90.5707 214.903L91.5252 215.244C91.7468 214.767 92.271 214.256 93.2298 214.256C94.1545 214.256 94.6104 214.746 94.6104 215.585V215.619C94.6104 216.105 94.1161 216.062 92.9229 216.216C91.7085 216.374 90.3832 216.642 90.3832 218.142C90.3832 219.42 91.3718 220.153 92.6161 220.153ZM92.7695 219.25C91.9684 219.25 91.3888 218.892 91.3888 218.193C91.3888 217.426 92.0877 217.188 92.8718 217.085C93.2979 217.034 94.44 216.915 94.6104 216.71V217.631C94.6104 218.449 93.9627 219.25 92.7695 219.25ZM98.4574 216.062C98.4574 214.92 99.1648 214.273 100.128 214.273C101.061 214.273 101.628 214.882 101.628 215.909V220H102.634V215.841C102.634 214.17 101.743 213.369 100.418 213.369C99.429 213.369 98.8153 213.812 98.5085 214.477H98.4233V213.455H97.4517V220H98.4574V216.062ZM105.971 218.807H104.88L104.829 219.284C104.706 220.439 104.463 221.589 104.352 222.131H105.119C105.324 221.551 105.758 220.239 105.903 219.267L105.971 218.807ZM114.039 220.119C115.965 220.119 117.073 218.487 117.073 215.636C117.073 212.807 115.948 211.153 114.039 211.153C112.13 211.153 111.005 212.807 111.005 215.636C111.005 218.487 112.113 220.119 114.039 220.119ZM114.039 219.182C112.769 219.182 112.028 217.908 112.028 215.636C112.028 213.369 112.778 212.074 114.039 212.074C115.3 212.074 116.05 213.369 116.05 215.636C116.05 217.908 115.309 219.182 114.039 219.182ZM121.641 220.119C123.333 220.119 124.59 219.058 124.59 217.631C124.59 216.523 123.934 215.717 122.835 215.534V215.466C123.717 215.197 124.266 214.473 124.266 213.489C124.266 212.253 123.29 211.153 121.675 211.153C120.167 211.153 118.914 212.082 118.863 213.455H119.886C119.924 212.585 120.751 212.074 121.658 212.074C122.621 212.074 123.244 212.658 123.244 213.54C123.244 214.46 122.523 215.057 121.488 215.057H120.789V215.994H121.488C122.813 215.994 123.55 216.668 123.55 217.631C123.55 218.555 122.745 219.182 121.624 219.182C120.614 219.182 119.813 218.662 119.749 217.818H118.675C118.739 219.19 119.95 220.119 121.641 220.119ZM126.814 220.068C127.235 220.068 127.581 219.723 127.581 219.301C127.581 218.879 127.235 218.534 126.814 218.534C126.392 218.534 126.047 218.879 126.047 219.301C126.047 219.723 126.392 220.068 126.814 220.068ZM129.368 220H134.874V219.062H130.817V218.994L132.777 216.898C134.277 215.291 134.721 214.541 134.721 213.574C134.721 212.227 133.63 211.153 132.096 211.153C130.566 211.153 129.402 212.193 129.402 213.727H130.408C130.408 212.734 131.051 212.074 132.061 212.074C133.007 212.074 133.732 212.653 133.732 213.574C133.732 214.379 133.259 214.976 132.249 216.08L129.368 219.233V220ZM139.412 211.153C137.64 211.132 136.498 212.466 136.498 214.068C136.498 215.756 137.742 216.966 139.242 216.966C140.145 216.966 140.912 216.523 141.39 215.807H141.458C141.458 217.955 140.623 219.182 139.276 219.182C138.355 219.182 137.793 218.602 137.605 217.801H136.566C136.77 219.182 137.81 220.119 139.276 220.119C141.236 220.119 142.446 218.381 142.446 215.278C142.446 212.074 140.844 211.17 139.412 211.153ZM139.412 212.091C140.503 212.091 141.304 213.028 141.304 214.051C141.304 215.091 140.452 216.028 139.378 216.028C138.304 216.028 137.52 215.159 137.52 214.068C137.52 212.977 138.338 212.091 139.412 212.091ZM147.651 220H148.707V216.812H150.616C152.649 216.812 153.565 215.577 153.565 214.034C153.565 212.491 152.649 211.273 150.599 211.273H147.651V220ZM148.707 215.875V212.21H150.565C151.984 212.21 152.526 212.986 152.526 214.034C152.526 215.082 151.984 215.875 150.582 215.875H148.707ZM155.268 211.273V220H156.256V213.369H156.342L159.069 220H160.023L162.751 213.369H162.836V220H163.825V211.273H162.563L159.597 218.517H159.495L156.529 211.273H155.268Z" fill="#718EBF"/>
<circle cx="37.5" cy="205.5" r="16.5" stroke="#718EBF" stroke-width="2"/>
<path d="M37.601 198.649C37.2691 198.317 36.7309 198.317 36.399 198.649L30.9896 204.058C30.6576 204.39 30.6576 204.928 30.9896 205.26C31.3215 205.592 31.8597 205.592 32.1917 205.26L37 200.452L41.8083 205.26C42.1403 205.592 42.6785 205.592 43.0104 205.26C43.3424 204.928 43.3424 204.39 43.0104 204.058L37.601 198.649ZM37.85 213L37.85 199.25L36.15 199.25L36.15 213L37.85 213Z" fill="#718EBF"/>
<path d="M264.733 204.677H260.541V205.873H264.733V204.677ZM269.402 211.182H270.27L270.275 210.143C272.228 210 273.345 208.883 273.345 207.387C273.345 205.684 271.826 205.023 270.626 204.728L270.289 204.64L270.298 201.676C271.161 201.792 271.752 202.272 271.84 203.029H273.216C273.179 201.621 272.015 200.569 270.303 200.43L270.307 199.364H269.439L269.435 200.439C267.777 200.605 266.563 201.64 266.563 203.131C266.563 204.446 267.505 205.217 269.024 205.628L269.421 205.734L269.412 208.878C268.511 208.767 267.814 208.278 267.74 207.387H266.309C266.397 208.98 267.547 210.005 269.407 210.143L269.402 211.182ZM270.279 208.878L270.289 205.974C271.226 206.233 271.932 206.575 271.932 207.373C271.932 208.181 271.258 208.749 270.279 208.878ZM269.425 204.409C268.738 204.206 267.98 203.842 267.985 203.048C267.985 202.355 268.534 201.815 269.43 201.681L269.425 204.409ZM278.507 200.545H277.118L274.759 202.087V203.454L277.021 201.977H277.076V210H278.507V200.545ZM284.356 210.157C286.54 210.157 287.819 208.375 287.819 205.277C287.819 202.203 286.521 200.416 284.356 200.416C282.187 200.416 280.894 202.198 280.889 205.277C280.889 208.37 282.168 210.152 284.356 210.157ZM284.356 208.924C283.078 208.924 282.307 207.641 282.307 205.277C282.311 202.923 283.082 201.626 284.356 201.626C285.626 201.626 286.401 202.923 286.401 205.277C286.401 207.641 285.63 208.924 284.356 208.924ZM292.577 210.129C294.479 210.129 295.836 208.786 295.832 206.944C295.836 205.116 294.562 203.786 292.84 203.786C292.138 203.786 291.488 204.054 291.118 204.414H291.063L291.363 201.769H295.375V200.545H290.176L289.646 205.31L290.952 205.504C291.308 205.185 291.945 204.968 292.517 204.968C293.639 204.977 294.451 205.817 294.451 206.972C294.451 208.107 293.662 208.929 292.577 208.929C291.663 208.929 290.938 208.347 290.864 207.535H289.479C289.535 209.04 290.841 210.129 292.577 210.129ZM300.809 210.157C302.993 210.157 304.272 208.375 304.272 205.277C304.272 202.203 302.975 200.416 300.809 200.416C298.64 200.416 297.347 202.198 297.342 205.277C297.342 208.37 298.621 210.152 300.809 210.157ZM300.809 208.924C299.531 208.924 298.76 207.641 298.76 205.277C298.764 202.923 299.535 201.626 300.809 201.626C302.079 201.626 302.854 202.923 302.854 205.277C302.854 207.641 302.084 208.924 300.809 208.924Z" fill="#FE5C73"/>
<path d="M68.0387 256H74.0217V254.772H69.4652V251.877H73.657V250.654H69.4652V247.773H73.9663V246.545H68.0387V256ZM75.7609 256H77.1412V251.628C77.1412 250.673 77.8106 250.008 78.5954 250.008C79.3618 250.008 79.8927 250.516 79.8927 251.287V256H81.2684V251.48C81.2684 250.626 81.79 250.008 82.6903 250.008C83.4197 250.008 84.0198 250.414 84.0198 251.374V256H85.4001V251.245C85.4001 249.625 84.4953 248.817 83.2119 248.817C82.1917 248.817 81.4253 249.306 81.0837 250.063H81.0099C80.7006 249.288 80.0496 248.817 79.1032 248.817C78.1661 248.817 77.469 249.283 77.1736 250.063H77.0858V248.909H75.7609V256ZM87.2502 256H88.6305V248.909H87.2502V256ZM87.9473 247.815C88.4228 247.815 88.8198 247.446 88.8198 246.993C88.8198 246.541 88.4228 246.167 87.9473 246.167C87.4672 246.167 87.0748 246.541 87.0748 246.993C87.0748 247.446 87.4672 247.815 87.9473 247.815ZM91.8678 246.545H90.4875V256H91.8678V246.545ZM95.1051 246.545H93.7248V256H95.1051V246.545ZM97.8346 258.659C98.9749 258.659 99.695 258.064 100.106 256.946L103.037 248.923L101.546 248.909L99.7504 254.412H99.6766L97.8808 248.909H96.4035L98.998 256.092L98.8271 256.563C98.4763 257.505 97.9823 257.583 97.2252 257.376L96.8928 258.507C97.059 258.581 97.4191 258.659 97.8346 258.659Z" fill="#232323"/>
<path d="M70.9716 267.273H69.9148L67.733 268.722V269.795L69.8636 268.381H69.9148V276H70.9716V267.273ZM73.277 274.21H77.3849V276H78.3906V274.21H79.5838V273.273H78.3906V267.273H77.1122L73.277 273.341V274.21ZM77.3849 273.273H74.419V273.205L77.3168 268.619H77.3849V273.273ZM88.0501 267.273V273.511C88.0501 274.598 87.5302 275.182 86.6183 275.182C85.7873 275.182 85.1864 274.696 85.1864 273.955H84.1467C84.1467 275.297 85.1864 276.119 86.6183 276.119C88.1353 276.119 89.1069 275.186 89.1069 273.511V267.273H88.0501ZM93.0146 276.153C94.1566 276.153 94.7532 275.54 94.9577 275.114H95.0089V276H96.0146V271.688C96.0146 269.608 94.4293 269.369 93.5941 269.369C92.6055 269.369 91.4805 269.71 90.9691 270.903L91.9237 271.244C92.1452 270.767 92.6694 270.256 93.6282 270.256C94.5529 270.256 95.0089 270.746 95.0089 271.585V271.619C95.0089 272.105 94.5146 272.062 93.3214 272.216C92.1069 272.374 90.7816 272.642 90.7816 274.142C90.7816 275.42 91.7702 276.153 93.0146 276.153ZM93.168 275.25C92.3668 275.25 91.7873 274.892 91.7873 274.193C91.7873 273.426 92.4862 273.188 93.2702 273.085C93.6964 273.034 94.8384 272.915 95.0089 272.71V273.631C95.0089 274.449 94.3612 275.25 93.168 275.25ZM98.8558 272.062C98.8558 270.92 99.5632 270.273 100.526 270.273C101.46 270.273 102.026 270.882 102.026 271.909V276H103.032V271.841C103.032 270.17 102.141 269.369 100.816 269.369C99.8274 269.369 99.2138 269.812 98.907 270.477H98.8217V269.455H97.8501V276H98.8558V272.062ZM106.37 274.807H105.279L105.228 275.284C105.104 276.439 104.861 277.589 104.75 278.131H105.517C105.722 277.551 106.157 276.239 106.301 275.267L106.37 274.807ZM114.659 267.273H113.602L111.42 268.722V269.795L113.551 268.381H113.602V276H114.659V267.273ZM120.016 276.119C121.942 276.119 123.05 274.487 123.05 271.636C123.05 268.807 121.925 267.153 120.016 267.153C118.107 267.153 116.982 268.807 116.982 271.636C116.982 274.487 118.089 276.119 120.016 276.119ZM120.016 275.182C118.746 275.182 118.004 273.908 118.004 271.636C118.004 269.369 118.754 268.074 120.016 268.074C121.277 268.074 122.027 269.369 122.027 271.636C122.027 273.908 121.286 275.182 120.016 275.182ZM125.114 276.068C125.536 276.068 125.881 275.723 125.881 275.301C125.881 274.879 125.536 274.534 125.114 274.534C124.692 274.534 124.347 274.879 124.347 275.301C124.347 275.723 124.692 276.068 125.114 276.068ZM127.464 274.21H131.572V276H132.578V274.21H133.771V273.273H132.578V267.273H131.3L127.464 273.341V274.21ZM131.572 273.273H128.607V273.205L131.504 268.619H131.572V273.273ZM138.215 276.119C140.141 276.119 141.249 274.487 141.249 271.636C141.249 268.807 140.124 267.153 138.215 267.153C136.306 267.153 135.181 268.807 135.181 271.636C135.181 274.487 136.289 276.119 138.215 276.119ZM138.215 275.182C136.945 275.182 136.203 273.908 136.203 271.636C136.203 269.369 136.953 268.074 138.215 268.074C139.476 268.074 140.226 269.369 140.226 271.636C140.226 273.908 139.485 275.182 138.215 275.182ZM146.397 276H147.453V272.812H149.363C151.395 272.812 152.311 271.577 152.311 270.034C152.311 268.491 151.395 267.273 149.346 267.273H146.397V276ZM147.453 271.875V268.21H149.311C150.73 268.21 151.272 268.986 151.272 270.034C151.272 271.082 150.73 271.875 149.328 271.875H147.453ZM154.014 267.273V276H155.002V269.369H155.088L157.815 276H158.77L161.497 269.369H161.582V276H162.571V267.273H161.309L158.343 274.517H158.241L155.275 267.273H154.014Z" fill="#718EBF"/>
<circle cx="37.5" cy="261.5" r="16.5" transform="rotate(180 37.5 261.5)" stroke="#718EBF" stroke-width="2"/>
<path d="M37.399 268.351C37.7309 268.683 38.2691 268.683 38.601 268.351L44.0104 262.942C44.3424 262.61 44.3424 262.072 44.0104 261.74C43.6785 261.408 43.1403 261.408 42.8083 261.74L38 266.548L33.1917 261.74C32.8597 261.408 32.3215 261.408 31.9896 261.74C31.6576 262.072 31.6576 262.61 31.9896 262.942L37.399 268.351ZM37.15 254L37.15 267.75L38.85 267.75L38.85 254L37.15 254Z" fill="#718EBF"/>
<path d="M266.571 264.412H267.813V261.91H270.315V260.668H267.813V258.17H266.571V260.668H264.074V261.91H266.571V264.412ZM275.28 267.182H276.148L276.153 266.143C278.106 266 279.223 264.883 279.223 263.387C279.223 261.684 277.704 261.023 276.504 260.728L276.167 260.64L276.176 257.676C277.039 257.792 277.63 258.272 277.718 259.029H279.093C279.057 257.621 277.893 256.569 276.18 256.43L276.185 255.364H275.317L275.313 256.439C273.655 256.605 272.441 257.64 272.441 259.131C272.441 260.446 273.383 261.217 274.902 261.628L275.299 261.734L275.29 264.878C274.389 264.767 273.692 264.278 273.618 263.387H272.187C272.275 264.98 273.424 266.005 275.285 266.143L275.28 267.182ZM276.157 264.878L276.167 261.974C277.104 262.233 277.81 262.575 277.81 263.373C277.81 264.181 277.136 264.749 276.157 264.878ZM275.303 260.409C274.616 260.206 273.858 259.842 273.863 259.048C273.863 258.355 274.412 257.815 275.308 257.681L275.303 260.409ZM283.993 266.129C285.959 266.129 287.349 265.012 287.358 263.479C287.349 262.288 286.513 261.287 285.456 261.097V261.042C286.375 260.82 286.998 259.957 287.007 258.937C286.998 257.492 285.724 256.416 283.993 256.416C282.243 256.416 280.969 257.492 280.978 258.937C280.969 259.952 281.592 260.82 282.529 261.042V261.097C281.454 261.287 280.618 262.288 280.627 263.479C280.618 265.012 282.008 266.129 283.993 266.129ZM283.993 264.961C282.811 264.961 282.063 264.333 282.072 263.387C282.063 262.404 282.876 261.702 283.993 261.702C285.091 261.702 285.904 262.404 285.913 263.387C285.904 264.333 285.161 264.961 283.993 264.961ZM283.993 260.562C283.037 260.562 282.358 259.957 282.368 259.057C282.358 258.17 283.014 257.584 283.993 257.584C284.953 257.584 285.608 258.17 285.618 259.057C285.608 259.957 284.934 260.562 283.993 260.562ZM288.813 264.153H293.296V266H294.658V264.153H295.909V262.944H294.658V256.545H292.899L288.813 262.999V264.153ZM293.305 262.944H290.309V262.87L293.231 258.244H293.305V262.944ZM300.809 266.157C302.993 266.157 304.272 264.375 304.272 261.277C304.272 258.203 302.975 256.416 300.809 256.416C298.64 256.416 297.347 258.198 297.342 261.277C297.342 264.37 298.621 266.152 300.809 266.157ZM300.809 264.924C299.531 264.924 298.76 263.641 298.76 261.277C298.764 258.923 299.535 257.626 300.809 257.626C302.079 257.626 302.854 258.923 302.854 261.277C302.854 263.641 302.084 264.924 300.809 264.924Z" fill="#16DBAA"/>
<rect x="20" y="64" width="285" height="1" fill="#E6EFF5"/>
<rect x="20" y="120" width="285" height="1" fill="#E6EFF5"/>
<rect x="20" y="176" width="285" height="1" fill="#E6EFF5"/>
<rect x="20" y="232" width="285" height="1" fill="#E6EFF5"/>
</svg>
