<svg width="325" height="223" viewBox="0 0 325 223" fill="none" xmlns="http://www.w3.org/2000/svg">
<rect width="325" height="223" rx="15" fill="white"/>
<mask id="path-2-inside-1_1_1155" fill="white">
<path d="M55.3977 192.273V198.511C55.3977 199.598 54.8778 200.182 53.9659 200.182C53.1349 200.182 52.5341 199.696 52.5341 198.955H51.4943C51.4943 200.297 52.5341 201.119 53.9659 201.119C55.483 201.119 56.4545 200.186 56.4545 198.511V192.273H55.3977ZM62.5611 198.324C62.5611 199.551 61.6236 200.114 60.8736 200.114C60.0384 200.114 59.4418 199.5 59.4418 198.545V194.455H58.4361V198.614C58.4361 200.284 59.3224 201.085 60.5497 201.085C61.5384 201.085 62.1861 200.557 62.4929 199.892H62.5611V201H63.5668V194.455H62.5611V198.324ZM66.4144 192.273H65.4087V201H66.4144V192.273Z"/>
</mask>
<path d="M55.3977 192.273V198.511C55.3977 199.598 54.8778 200.182 53.9659 200.182C53.1349 200.182 52.5341 199.696 52.5341 198.955H51.4943C51.4943 200.297 52.5341 201.119 53.9659 201.119C55.483 201.119 56.4545 200.186 56.4545 198.511V192.273H55.3977ZM62.5611 198.324C62.5611 199.551 61.6236 200.114 60.8736 200.114C60.0384 200.114 59.4418 199.5 59.4418 198.545V194.455H58.4361V198.614C58.4361 200.284 59.3224 201.085 60.5497 201.085C61.5384 201.085 62.1861 200.557 62.4929 199.892H62.5611V201H63.5668V194.455H62.5611V198.324ZM66.4144 192.273H65.4087V201H66.4144V192.273Z" fill="#718EBF"/>
<path d="M55.3977 192.273V191.273H54.3977V192.273H55.3977ZM52.5341 198.955H53.5341V197.955H52.5341V198.955ZM51.4943 198.955V197.955H50.4943V198.955H51.4943ZM56.4545 192.273H57.4545V191.273H56.4545V192.273ZM54.3977 192.273V198.511H56.3977V192.273H54.3977ZM54.3977 198.511C54.3977 198.91 54.3014 199.061 54.2678 199.1C54.2536 199.116 54.1987 199.182 53.9659 199.182V201.182C54.6451 201.182 55.3061 200.956 55.7798 200.409C56.2342 199.884 56.3977 199.199 56.3977 198.511H54.3977ZM53.9659 199.182C53.7396 199.182 53.6238 199.116 53.5828 199.082C53.563 199.065 53.5539 199.051 53.5485 199.039C53.5433 199.028 53.5341 199.003 53.5341 198.955H51.5341C51.5341 199.617 51.8123 200.205 52.294 200.611C52.7611 201.005 53.3612 201.182 53.9659 201.182V199.182ZM52.5341 197.955H51.4943V199.955H52.5341V197.955ZM50.4943 198.955C50.4943 199.905 50.8725 200.73 51.5452 201.302C52.2014 201.86 53.0652 202.119 53.9659 202.119V200.119C53.4348 200.119 53.0628 199.967 52.8412 199.779C52.636 199.604 52.4943 199.346 52.4943 198.955H50.4943ZM53.9659 202.119C54.9312 202.119 55.8341 201.818 56.4944 201.142C57.1526 200.469 57.4545 199.541 57.4545 198.511H55.4545C55.4545 199.157 55.2707 199.533 55.0639 199.744C54.8591 199.954 54.5176 200.119 53.9659 200.119V202.119ZM57.4545 198.511V192.273H55.4545V198.511H57.4545ZM56.4545 191.273H55.3977V193.273H56.4545V191.273ZM59.4418 194.455H60.4418V193.455H59.4418V194.455ZM58.4361 194.455V193.455H57.4361V194.455H58.4361ZM62.4929 199.892V198.892H61.8531L61.5849 199.473L62.4929 199.892ZM62.5611 199.892H63.5611V198.892H62.5611V199.892ZM62.5611 201H61.5611V202H62.5611V201ZM63.5668 201V202H64.5668V201H63.5668ZM63.5668 194.455H64.5668V193.455H63.5668V194.455ZM62.5611 194.455V193.455H61.5611V194.455H62.5611ZM61.5611 198.324C61.5611 198.659 61.4435 198.834 61.3312 198.934C61.1963 199.055 61.0157 199.114 60.8736 199.114V201.114C62.0699 201.114 63.5611 200.204 63.5611 198.324H61.5611ZM60.8736 199.114C60.7114 199.114 60.6265 199.06 60.5768 199.007C60.5227 198.948 60.4418 198.813 60.4418 198.545H58.4418C58.4418 199.232 58.6591 199.881 59.1121 200.368C59.5695 200.86 60.2005 201.114 60.8736 201.114V199.114ZM60.4418 198.545V194.455H58.4418V198.545H60.4418ZM59.4418 193.455H58.4361V195.455H59.4418V193.455ZM57.4361 194.455V198.614H59.4361V194.455H57.4361ZM57.4361 198.614C57.4361 199.619 57.7043 200.507 58.2955 201.152C58.8953 201.806 59.7127 202.085 60.5497 202.085V200.085C60.1594 200.085 59.9201 199.964 59.7698 199.8C59.611 199.627 59.4361 199.279 59.4361 198.614H57.4361ZM60.5497 202.085C61.9554 202.085 62.9422 201.305 63.4009 200.311L61.5849 199.473C61.43 199.809 61.1213 200.085 60.5497 200.085V202.085ZM62.4929 200.892H62.5611V198.892H62.4929V200.892ZM61.5611 199.892V201H63.5611V199.892H61.5611ZM62.5611 202H63.5668V200H62.5611V202ZM64.5668 201V194.455H62.5668V201H64.5668ZM63.5668 193.455H62.5611V195.455H63.5668V193.455ZM61.5611 194.455V198.324H63.5611V194.455H61.5611ZM66.4144 192.273H67.4144V191.273H66.4144V192.273ZM65.4087 192.273V191.273H64.4087V192.273H65.4087ZM65.4087 201H64.4087V202H65.4087V201ZM66.4144 201V202H67.4144V201H66.4144ZM66.4144 191.273H65.4087V193.273H66.4144V191.273ZM64.4087 192.273V201H66.4087V192.273H64.4087ZM65.4087 202H66.4144V200H65.4087V202ZM67.4144 201V192.273H65.4144V201H67.4144Z" fill="#718EBF" mask="url(#path-2-inside-1_1_1155)"/>
<path d="M52 185.309V181" stroke="#718EBF"/>
<mask id="path-5-inside-2_1_1155" fill="white">
<path d="M89.4148 201L90.2926 198.528H93.821L94.6989 201H95.8068L92.6023 192.273H91.5114L88.3068 201H89.4148ZM90.625 197.591L92.0227 193.653H92.0909L93.4886 197.591H90.625ZM101.155 198.324C101.155 199.551 100.217 200.114 99.4673 200.114C98.6321 200.114 98.0355 199.5 98.0355 198.545V194.455H97.0298V198.614C97.0298 200.284 97.9162 201.085 99.1435 201.085C100.132 201.085 100.78 200.557 101.087 199.892H101.155V201H102.161V194.455H101.155V198.324ZM106.645 203.591C108.213 203.591 109.474 202.875 109.474 201.188V194.455H108.502V195.494H108.4C108.179 195.153 107.77 194.369 106.491 194.369C104.838 194.369 103.696 195.682 103.696 197.693C103.696 199.739 104.889 200.898 106.474 200.898C107.752 200.898 108.162 200.148 108.383 199.79H108.468V201.119C108.468 202.21 107.701 202.705 106.645 202.705C105.456 202.705 105.038 202.078 104.77 201.716L103.968 202.278C104.377 202.964 105.183 203.591 106.645 203.591ZM106.61 199.994C105.349 199.994 104.701 199.04 104.701 197.676C104.701 196.347 105.332 195.273 106.61 195.273C107.838 195.273 108.485 196.261 108.485 197.676C108.485 199.125 107.821 199.994 106.61 199.994Z"/>
</mask>
<path d="M89.4148 201L90.2926 198.528H93.821L94.6989 201H95.8068L92.6023 192.273H91.5114L88.3068 201H89.4148ZM90.625 197.591L92.0227 193.653H92.0909L93.4886 197.591H90.625ZM101.155 198.324C101.155 199.551 100.217 200.114 99.4673 200.114C98.6321 200.114 98.0355 199.5 98.0355 198.545V194.455H97.0298V198.614C97.0298 200.284 97.9162 201.085 99.1435 201.085C100.132 201.085 100.78 200.557 101.087 199.892H101.155V201H102.161V194.455H101.155V198.324ZM106.645 203.591C108.213 203.591 109.474 202.875 109.474 201.188V194.455H108.502V195.494H108.4C108.179 195.153 107.77 194.369 106.491 194.369C104.838 194.369 103.696 195.682 103.696 197.693C103.696 199.739 104.889 200.898 106.474 200.898C107.752 200.898 108.162 200.148 108.383 199.79H108.468V201.119C108.468 202.21 107.701 202.705 106.645 202.705C105.456 202.705 105.038 202.078 104.77 201.716L103.968 202.278C104.377 202.964 105.183 203.591 106.645 203.591ZM106.61 199.994C105.349 199.994 104.701 199.04 104.701 197.676C104.701 196.347 105.332 195.273 106.61 195.273C107.838 195.273 108.485 196.261 108.485 197.676C108.485 199.125 107.821 199.994 106.61 199.994Z" fill="#718EBF"/>
<path d="M89.4148 201V202H90.1208L90.3571 201.335L89.4148 201ZM90.2926 198.528V197.528H89.5866L89.3503 198.194L90.2926 198.528ZM93.821 198.528L94.7634 198.194L94.5271 197.528H93.821V198.528ZM94.6989 201L93.7565 201.335L93.9928 202H94.6989V201ZM95.8068 201V202H97.2393L96.7455 200.655L95.8068 201ZM92.6023 192.273L93.541 191.928L93.3004 191.273H92.6023V192.273ZM91.5114 192.273V191.273H90.8133L90.5726 191.928L91.5114 192.273ZM88.3068 201L87.3681 200.655L86.8743 202H88.3068V201ZM90.625 197.591L89.6826 197.256L89.2089 198.591H90.625V197.591ZM92.0227 193.653V192.653H91.3166L91.0803 193.319L92.0227 193.653ZM92.0909 193.653L93.0333 193.319L92.7971 192.653H92.0909V193.653ZM93.4886 197.591V198.591H94.9048L94.431 197.256L93.4886 197.591ZM90.3571 201.335L91.2349 198.863L89.3503 198.194L88.4724 200.665L90.3571 201.335ZM90.2926 199.528H93.821V197.528H90.2926V199.528ZM92.8787 198.863L93.7565 201.335L95.6412 200.665L94.7634 198.194L92.8787 198.863ZM94.6989 202H95.8068V200H94.6989V202ZM96.7455 200.655L93.541 191.928L91.6636 192.617L94.8681 201.345L96.7455 200.655ZM92.6023 191.273H91.5114V193.273H92.6023V191.273ZM90.5726 191.928L87.3681 200.655L89.2455 201.345L92.4501 192.617L90.5726 191.928ZM88.3068 202H89.4148V200H88.3068V202ZM91.5674 197.925L92.9651 193.988L91.0803 193.319L89.6826 197.256L91.5674 197.925ZM92.0227 194.653H92.0909V192.653H92.0227V194.653ZM91.1485 193.988L92.5463 197.925L94.431 197.256L93.0333 193.319L91.1485 193.988ZM93.4886 196.591H90.625V198.591H93.4886V196.591ZM98.0355 194.455H99.0355V193.455H98.0355V194.455ZM97.0298 194.455V193.455H96.0298V194.455H97.0298ZM101.087 199.892V198.892H100.447L100.179 199.473L101.087 199.892ZM101.155 199.892H102.155V198.892H101.155V199.892ZM101.155 201H100.155V202H101.155V201ZM102.161 201V202H103.161V201H102.161ZM102.161 194.455H103.161V193.455H102.161V194.455ZM101.155 194.455V193.455H100.155V194.455H101.155ZM100.155 198.324C100.155 198.659 100.037 198.834 99.925 198.934C99.79 199.055 99.6094 199.114 99.4673 199.114V201.114C100.664 201.114 102.155 200.204 102.155 198.324H100.155ZM99.4673 199.114C99.3052 199.114 99.2202 199.06 99.1706 199.007C99.1165 198.948 99.0355 198.813 99.0355 198.545H97.0355C97.0355 199.232 97.2529 199.881 97.7058 200.368C98.1633 200.86 98.7943 201.114 99.4673 201.114V199.114ZM99.0355 198.545V194.455H97.0355V198.545H99.0355ZM98.0355 193.455H97.0298V195.455H98.0355V193.455ZM96.0298 194.455V198.614H98.0298V194.455H96.0298ZM96.0298 198.614C96.0298 199.619 96.2981 200.507 96.8893 201.152C97.489 201.806 98.3065 202.085 99.1435 202.085V200.085C98.7532 200.085 98.5138 199.964 98.3636 199.8C98.2048 199.627 98.0298 199.279 98.0298 198.614H96.0298ZM99.1435 202.085C100.549 202.085 101.536 201.305 101.995 200.311L100.179 199.473C100.024 199.809 99.7151 200.085 99.1435 200.085V202.085ZM101.087 200.892H101.155V198.892H101.087V200.892ZM100.155 199.892V201H102.155V199.892H100.155ZM101.155 202H102.161V200H101.155V202ZM103.161 201V194.455H101.161V201H103.161ZM102.161 193.455H101.155V195.455H102.161V193.455ZM100.155 194.455V198.324H102.155V194.455H100.155ZM109.474 194.455H110.474V193.455H109.474V194.455ZM108.502 194.455V193.455H107.502V194.455H108.502ZM108.502 195.494V196.494H109.502V195.494H108.502ZM108.4 195.494L107.562 196.039L107.858 196.494H108.4V195.494ZM108.383 199.79V198.79H107.826L107.533 199.263L108.383 199.79ZM108.468 199.79H109.468V198.79H108.468V199.79ZM104.77 201.716L105.573 201.12L104.993 200.337L104.195 200.897L104.77 201.716ZM103.968 202.278L103.394 201.46L102.634 201.993L103.109 202.791L103.968 202.278ZM106.645 204.591C107.562 204.591 108.51 204.384 109.254 203.817C110.038 203.219 110.474 202.311 110.474 201.188H108.474C108.474 201.751 108.28 202.045 108.041 202.227C107.762 202.44 107.296 202.591 106.645 202.591V204.591ZM110.474 201.188V194.455H108.474V201.188H110.474ZM109.474 193.455H108.502V195.455H109.474V193.455ZM107.502 194.455V195.494H109.502V194.455H107.502ZM108.502 194.494H108.4V196.494H108.502V194.494ZM109.239 194.949C109.162 194.832 108.914 194.391 108.478 194.032C108.006 193.644 107.358 193.369 106.491 193.369V195.369C106.902 195.369 107.098 195.487 107.206 195.576C107.349 195.694 107.416 195.816 107.562 196.039L109.239 194.949ZM106.491 193.369C105.38 193.369 104.399 193.819 103.711 194.63C103.034 195.427 102.696 196.503 102.696 197.693H104.696C104.696 196.872 104.928 196.286 105.236 195.924C105.532 195.576 105.948 195.369 106.491 195.369V193.369ZM102.696 197.693C102.696 198.909 103.053 199.969 103.751 200.736C104.455 201.509 105.427 201.898 106.474 201.898V199.898C105.935 199.898 105.519 199.707 105.23 199.389C104.935 199.065 104.696 198.523 104.696 197.693H102.696ZM106.474 201.898C107.33 201.898 107.975 201.64 108.45 201.258C108.897 200.9 109.14 200.467 109.233 200.316L107.533 199.263C107.405 199.47 107.332 199.591 107.2 199.698C107.096 199.781 106.897 199.898 106.474 199.898V201.898ZM108.383 200.79H108.468V198.79H108.383V200.79ZM107.468 199.79V201.119H109.468V199.79H107.468ZM107.468 201.119C107.468 201.408 107.38 201.498 107.327 201.541C107.239 201.611 107.034 201.705 106.645 201.705V203.705C107.311 203.705 108.018 203.551 108.579 203.101C109.173 202.624 109.468 201.921 109.468 201.119H107.468ZM106.645 201.705C106.242 201.705 106.044 201.604 105.938 201.529C105.805 201.435 105.725 201.326 105.573 201.12L103.966 202.311C104.082 202.468 104.345 202.853 104.786 203.164C105.252 203.492 105.858 203.705 106.645 203.705V201.705ZM104.195 200.897L103.394 201.46L104.543 203.097L105.344 202.534L104.195 200.897ZM103.109 202.791C103.706 203.79 104.844 204.591 106.645 204.591V202.591C105.522 202.591 105.049 202.139 104.827 201.766L103.109 202.791ZM106.61 198.994C106.26 198.994 106.085 198.876 105.971 198.731C105.831 198.552 105.701 198.215 105.701 197.676H103.701C103.701 198.501 103.895 199.323 104.395 199.962C104.92 200.635 105.7 200.994 106.61 200.994V198.994ZM105.701 197.676C105.701 197.153 105.828 196.78 105.984 196.566C106.114 196.388 106.291 196.273 106.61 196.273V194.273C105.652 194.273 104.874 194.694 104.369 195.386C103.89 196.041 103.701 196.87 103.701 197.676H105.701ZM106.61 196.273C106.921 196.273 107.087 196.38 107.206 196.541C107.352 196.738 107.485 197.104 107.485 197.676H109.485C109.485 196.833 109.295 195.998 108.811 195.347C108.299 194.659 107.528 194.273 106.61 194.273V196.273ZM107.485 197.676C107.485 198.264 107.349 198.594 107.22 198.755C107.117 198.884 106.954 198.994 106.61 198.994V200.994C107.478 200.994 108.252 200.67 108.784 200.002C109.29 199.367 109.485 198.537 109.485 197.676H107.485Z" fill="#718EBF" mask="url(#path-5-inside-2_1_1155)"/>
<path d="M88 185.309V181" stroke="#718EBF"/>
<mask id="path-8-inside-3_1_1155" fill="white">
<path d="M130.83 194.455H131.852C131.805 193.138 130.591 192.153 128.903 192.153C127.233 192.153 125.92 193.125 125.92 194.591C125.92 195.767 126.773 196.466 128.136 196.858L129.21 197.165C130.131 197.42 130.949 197.744 130.949 198.614C130.949 199.568 130.028 200.199 128.818 200.199C127.778 200.199 126.858 199.739 126.773 198.75H125.682C125.784 200.182 126.943 201.153 128.818 201.153C130.83 201.153 131.972 200.045 131.972 198.631C131.972 196.994 130.42 196.466 129.517 196.227L128.631 195.989C127.983 195.818 126.943 195.477 126.943 194.54C126.943 193.705 127.71 193.091 128.869 193.091C129.926 193.091 130.727 193.594 130.83 194.455ZM136.317 201.136C137.647 201.136 138.618 200.472 138.925 199.483L137.953 199.21C137.698 199.892 137.105 200.233 136.317 200.233C135.137 200.233 134.323 199.47 134.276 198.068H139.027V197.642C139.027 195.205 137.578 194.369 136.215 194.369C134.442 194.369 133.266 195.767 133.266 197.778C133.266 199.79 134.425 201.136 136.317 201.136ZM134.276 197.199C134.344 196.18 135.064 195.273 136.215 195.273C137.306 195.273 138.005 196.091 138.005 197.199H134.276ZM140.557 203.455H141.563V199.994H141.648C141.87 200.352 142.296 201.136 143.557 201.136C145.194 201.136 146.336 199.824 146.336 197.744C146.336 195.682 145.194 194.369 143.54 194.369C142.262 194.369 141.87 195.153 141.648 195.494H141.529V194.455H140.557V203.455ZM141.546 197.727C141.546 196.261 142.194 195.273 143.421 195.273C144.699 195.273 145.33 196.347 145.33 197.727C145.33 199.125 144.682 200.233 143.421 200.233C142.211 200.233 141.546 199.21 141.546 197.727Z"/>
</mask>
<path d="M130.83 194.455H131.852C131.805 193.138 130.591 192.153 128.903 192.153C127.233 192.153 125.92 193.125 125.92 194.591C125.92 195.767 126.773 196.466 128.136 196.858L129.21 197.165C130.131 197.42 130.949 197.744 130.949 198.614C130.949 199.568 130.028 200.199 128.818 200.199C127.778 200.199 126.858 199.739 126.773 198.75H125.682C125.784 200.182 126.943 201.153 128.818 201.153C130.83 201.153 131.972 200.045 131.972 198.631C131.972 196.994 130.42 196.466 129.517 196.227L128.631 195.989C127.983 195.818 126.943 195.477 126.943 194.54C126.943 193.705 127.71 193.091 128.869 193.091C129.926 193.091 130.727 193.594 130.83 194.455ZM136.317 201.136C137.647 201.136 138.618 200.472 138.925 199.483L137.953 199.21C137.698 199.892 137.105 200.233 136.317 200.233C135.137 200.233 134.323 199.47 134.276 198.068H139.027V197.642C139.027 195.205 137.578 194.369 136.215 194.369C134.442 194.369 133.266 195.767 133.266 197.778C133.266 199.79 134.425 201.136 136.317 201.136ZM134.276 197.199C134.344 196.18 135.064 195.273 136.215 195.273C137.306 195.273 138.005 196.091 138.005 197.199H134.276ZM140.557 203.455H141.563V199.994H141.648C141.87 200.352 142.296 201.136 143.557 201.136C145.194 201.136 146.336 199.824 146.336 197.744C146.336 195.682 145.194 194.369 143.54 194.369C142.262 194.369 141.87 195.153 141.648 195.494H141.529V194.455H140.557V203.455ZM141.546 197.727C141.546 196.261 142.194 195.273 143.421 195.273C144.699 195.273 145.33 196.347 145.33 197.727C145.33 199.125 144.682 200.233 143.421 200.233C142.211 200.233 141.546 199.21 141.546 197.727Z" fill="#718EBF"/>
<path d="M130.83 194.455L129.837 194.573L129.941 195.455H130.83V194.455ZM131.852 194.455V195.455H132.889L132.852 194.419L131.852 194.455ZM128.136 196.858L127.86 197.819L127.862 197.819L128.136 196.858ZM129.21 197.165L128.935 198.126L128.943 198.128L129.21 197.165ZM126.773 198.75L127.769 198.664L127.69 197.75H126.773V198.75ZM125.682 198.75V197.75H124.608L124.684 198.821L125.682 198.75ZM129.517 196.227L129.257 197.193L129.262 197.194L129.517 196.227ZM128.631 195.989L128.891 195.023L128.885 195.022L128.631 195.989ZM130.83 195.455H131.852V193.455H130.83V195.455ZM132.852 194.419C132.779 192.39 130.936 191.153 128.903 191.153V193.153C130.246 193.153 130.831 193.886 130.853 194.49L132.852 194.419ZM128.903 191.153C126.909 191.153 124.92 192.37 124.92 194.591H126.92C126.92 193.88 127.557 193.153 128.903 193.153V191.153ZM124.92 194.591C124.92 195.453 125.246 196.181 125.822 196.737C126.369 197.266 127.095 197.599 127.86 197.819L128.413 195.897C127.814 195.725 127.433 195.513 127.212 195.299C127.021 195.115 126.92 194.904 126.92 194.591H124.92ZM127.862 197.819L128.936 198.126L129.485 196.203L128.411 195.896L127.862 197.819ZM128.943 198.128C129.403 198.256 129.688 198.365 129.855 198.481C129.925 198.53 129.942 198.558 129.942 198.559C129.943 198.56 129.943 198.561 129.944 198.565C129.945 198.569 129.949 198.584 129.949 198.614H131.949C131.949 197.787 131.526 197.206 130.994 196.837C130.522 196.51 129.938 196.329 129.478 196.201L128.943 198.128ZM129.949 198.614C129.949 198.731 129.906 198.842 129.75 198.955C129.575 199.082 129.261 199.199 128.818 199.199V201.199C129.586 201.199 130.337 201 130.925 200.573C131.532 200.133 131.949 199.45 131.949 198.614H129.949ZM128.818 199.199C128.43 199.199 128.144 199.111 127.979 199.004C127.845 198.918 127.783 198.823 127.769 198.664L125.776 198.836C125.848 199.666 126.289 200.295 126.896 200.686C127.472 201.057 128.166 201.199 128.818 201.199V199.199ZM126.773 197.75H125.682V199.75H126.773V197.75ZM124.684 198.821C124.755 199.807 125.2 200.672 125.967 201.275C126.721 201.867 127.714 202.153 128.818 202.153V200.153C128.048 200.153 127.524 199.954 127.203 199.702C126.897 199.462 126.711 199.125 126.679 198.679L124.684 198.821ZM128.818 202.153C130.003 202.153 131.038 201.826 131.795 201.186C132.563 200.537 132.972 199.624 132.972 198.631H130.972C130.972 199.052 130.81 199.4 130.504 199.659C130.187 199.927 129.645 200.153 128.818 200.153V202.153ZM132.972 198.631C132.972 197.432 132.377 196.613 131.674 196.098C131.013 195.614 130.244 195.385 129.772 195.26L129.262 197.194C129.693 197.308 130.152 197.462 130.492 197.712C130.79 197.93 130.972 198.193 130.972 198.631H132.972ZM129.777 195.262L128.891 195.023L128.371 196.954L129.257 197.193L129.777 195.262ZM128.885 195.022C128.571 194.939 128.287 194.844 128.093 194.716C128.004 194.657 127.968 194.614 127.956 194.595C127.95 194.586 127.943 194.577 127.943 194.54H125.943C125.943 195.456 126.48 196.05 126.995 196.388C127.483 196.708 128.042 196.868 128.376 196.956L128.885 195.022ZM127.943 194.54C127.943 194.458 127.97 194.38 128.08 194.296C128.205 194.2 128.458 194.091 128.869 194.091V192.091C128.122 192.091 127.412 192.288 126.864 192.708C126.3 193.14 125.943 193.787 125.943 194.54H127.943ZM128.869 194.091C129.249 194.091 129.505 194.182 129.647 194.278C129.77 194.362 129.822 194.452 129.837 194.573L131.823 194.337C131.635 192.757 130.181 192.091 128.869 192.091V194.091ZM138.925 199.483L139.88 199.779L140.185 198.798L139.195 198.52L138.925 199.483ZM137.953 199.21L138.224 198.247L137.34 197.999L137.017 198.859L137.953 199.21ZM134.276 198.068V197.068H133.242L133.276 198.102L134.276 198.068ZM139.027 198.068V199.068H140.027V198.068H139.027ZM134.276 197.199L133.278 197.132L133.207 198.199H134.276V197.199ZM138.005 197.199V198.199H139.005V197.199H138.005ZM136.317 202.136C137.981 202.136 139.415 201.278 139.88 199.779L137.97 199.187C137.821 199.665 137.312 200.136 136.317 200.136V202.136ZM139.195 198.52L138.224 198.247L137.683 200.173L138.655 200.446L139.195 198.52ZM137.017 198.859C136.939 199.068 136.785 199.233 136.317 199.233V201.233C137.426 201.233 138.457 200.716 138.89 199.561L137.017 198.859ZM136.317 199.233C135.948 199.233 135.725 199.119 135.587 198.978C135.445 198.832 135.293 198.551 135.275 198.035L133.276 198.102C133.306 198.988 133.585 199.789 134.156 200.375C134.732 200.965 135.505 201.233 136.317 201.233V199.233ZM134.276 199.068H139.027V197.068H134.276V199.068ZM140.027 198.068V197.642H138.027V198.068H140.027ZM140.027 197.642C140.027 196.22 139.599 195.116 138.826 194.372C138.066 193.639 137.092 193.369 136.215 193.369V195.369C136.702 195.369 137.133 195.518 137.438 195.812C137.731 196.094 138.027 196.627 138.027 197.642H140.027ZM136.215 193.369C135.046 193.369 134.028 193.839 133.317 194.668C132.616 195.484 132.266 196.583 132.266 197.778H134.266C134.266 196.963 134.504 196.357 134.835 195.971C135.154 195.598 135.611 195.369 136.215 195.369V193.369ZM132.266 197.778C132.266 198.971 132.611 200.068 133.337 200.879C134.074 201.702 135.12 202.136 136.317 202.136V200.136C135.622 200.136 135.143 199.897 134.827 199.545C134.5 199.18 134.266 198.597 134.266 197.778H132.266ZM135.274 197.266C135.315 196.65 135.705 196.273 136.215 196.273V194.273C134.423 194.273 133.373 195.711 133.278 197.132L135.274 197.266ZM136.215 196.273C136.495 196.273 136.668 196.37 136.778 196.492C136.897 196.623 137.005 196.853 137.005 197.199H139.005C139.005 196.437 138.763 195.703 138.26 195.149C137.748 194.584 137.026 194.273 136.215 194.273V196.273ZM138.005 196.199H134.276V198.199H138.005V196.199ZM140.557 203.455H139.557V204.455H140.557V203.455ZM141.563 203.455V204.455H142.563V203.455H141.563ZM141.563 199.994V198.994H140.563V199.994H141.563ZM141.648 199.994L142.498 199.468L142.205 198.994H141.648V199.994ZM141.648 195.494V196.494H142.191L142.487 196.039L141.648 195.494ZM141.529 195.494H140.529V196.494H141.529V195.494ZM141.529 194.455H142.529V193.455H141.529V194.455ZM140.557 194.455V193.455H139.557V194.455H140.557ZM140.557 204.455H141.563V202.455H140.557V204.455ZM142.563 203.455V199.994H140.563V203.455H142.563ZM141.563 200.994H141.648V198.994H141.563V200.994ZM140.798 200.521C140.89 200.67 141.135 201.107 141.576 201.471C142.048 201.86 142.695 202.136 143.557 202.136V200.136C143.158 200.136 142.961 200.02 142.849 199.928C142.707 199.811 142.628 199.677 142.498 199.468L140.798 200.521ZM143.557 202.136C144.664 202.136 145.643 201.683 146.328 200.86C147.001 200.053 147.336 198.961 147.336 197.744H145.336C145.336 198.607 145.099 199.211 144.792 199.58C144.497 199.934 144.087 200.136 143.557 200.136V202.136ZM147.336 197.744C147.336 196.535 147 195.445 146.324 194.64C145.635 193.82 144.652 193.369 143.54 193.369V195.369C144.082 195.369 144.497 195.575 144.792 195.927C145.1 196.293 145.336 196.892 145.336 197.744H147.336ZM143.54 193.369C142.672 193.369 142.026 193.644 141.556 194.037C141.126 194.396 140.878 194.844 140.81 194.949L142.487 196.039C142.64 195.804 142.699 195.689 142.839 195.571C142.94 195.487 143.13 195.369 143.54 195.369V193.369ZM141.648 194.494H141.529V196.494H141.648V194.494ZM142.529 195.494V194.455H140.529V195.494H142.529ZM141.529 193.455H140.557V195.455H141.529V193.455ZM139.557 194.455V203.455H141.557V194.455H139.557ZM142.546 197.727C142.546 197.123 142.682 196.743 142.83 196.541C142.949 196.379 143.112 196.273 143.421 196.273V194.273C142.502 194.273 141.728 194.661 141.216 195.359C140.734 196.018 140.546 196.865 140.546 197.727H142.546ZM143.421 196.273C143.739 196.273 143.914 196.387 144.043 196.566C144.201 196.785 144.33 197.171 144.33 197.727H146.33C146.33 196.902 146.144 196.062 145.666 195.398C145.161 194.695 144.381 194.273 143.421 194.273V196.273ZM144.33 197.727C144.33 198.289 144.197 198.693 144.032 198.927C143.893 199.124 143.715 199.233 143.421 199.233V201.233C144.388 201.233 145.165 200.788 145.665 200.082C146.138 199.412 146.33 198.564 146.33 197.727H144.33ZM143.421 199.233C143.137 199.233 142.97 199.132 142.841 198.952C142.685 198.735 142.546 198.336 142.546 197.727H140.546C140.546 198.601 140.739 199.456 141.218 200.12C141.723 200.823 142.494 201.233 143.421 201.233V199.233Z" fill="#718EBF" mask="url(#path-8-inside-3_1_1155)"/>
<path d="M125 185.309V181" stroke="#718EBF"/>
<mask id="path-11-inside-4_1_1155" fill="white">
<path d="M170.42 196.636C170.42 193.875 168.801 192.153 166.568 192.153C164.335 192.153 162.716 193.875 162.716 196.636C162.716 199.398 164.335 201.119 166.568 201.119C168.801 201.119 170.42 199.398 170.42 196.636ZM169.398 196.636C169.398 198.903 168.153 200.131 166.568 200.131C164.983 200.131 163.739 198.903 163.739 196.636C163.739 194.369 164.983 193.142 166.568 193.142C168.153 193.142 169.398 194.369 169.398 196.636ZM174.72 201.136C176.169 201.136 177.124 200.25 177.294 199.091H176.288C176.101 199.807 175.504 200.233 174.72 200.233C173.527 200.233 172.76 199.244 172.76 197.727C172.76 196.244 173.544 195.273 174.72 195.273C175.607 195.273 176.135 195.818 176.288 196.415H177.294C177.124 195.188 176.084 194.369 174.703 194.369C172.93 194.369 171.754 195.767 171.754 197.761C171.754 199.722 172.879 201.136 174.72 201.136ZM181.611 194.455H180.213V192.886H179.207V194.455H178.219V195.307H179.207V199.398C179.207 200.54 180.128 201.085 180.98 201.085C181.355 201.085 181.594 201.017 181.73 200.966L181.526 200.062C181.44 200.08 181.304 200.114 181.082 200.114C180.639 200.114 180.213 199.977 180.213 199.125V195.307H181.611V194.455Z"/>
</mask>
<path d="M170.42 196.636C170.42 193.875 168.801 192.153 166.568 192.153C164.335 192.153 162.716 193.875 162.716 196.636C162.716 199.398 164.335 201.119 166.568 201.119C168.801 201.119 170.42 199.398 170.42 196.636ZM169.398 196.636C169.398 198.903 168.153 200.131 166.568 200.131C164.983 200.131 163.739 198.903 163.739 196.636C163.739 194.369 164.983 193.142 166.568 193.142C168.153 193.142 169.398 194.369 169.398 196.636ZM174.72 201.136C176.169 201.136 177.124 200.25 177.294 199.091H176.288C176.101 199.807 175.504 200.233 174.72 200.233C173.527 200.233 172.76 199.244 172.76 197.727C172.76 196.244 173.544 195.273 174.72 195.273C175.607 195.273 176.135 195.818 176.288 196.415H177.294C177.124 195.188 176.084 194.369 174.703 194.369C172.93 194.369 171.754 195.767 171.754 197.761C171.754 199.722 172.879 201.136 174.72 201.136ZM181.611 194.455H180.213V192.886H179.207V194.455H178.219V195.307H179.207V199.398C179.207 200.54 180.128 201.085 180.98 201.085C181.355 201.085 181.594 201.017 181.73 200.966L181.526 200.062C181.44 200.08 181.304 200.114 181.082 200.114C180.639 200.114 180.213 199.977 180.213 199.125V195.307H181.611V194.455Z" fill="#718EBF"/>
<path d="M171.42 196.636C171.42 195.063 170.957 193.691 170.082 192.698C169.198 191.696 167.956 191.153 166.568 191.153V193.153C167.413 193.153 168.097 193.472 168.582 194.021C169.074 194.579 169.42 195.449 169.42 196.636H171.42ZM166.568 191.153C165.18 191.153 163.938 191.696 163.055 192.698C162.179 193.691 161.716 195.063 161.716 196.636H163.716C163.716 195.449 164.062 194.579 164.555 194.021C165.039 193.472 165.723 193.153 166.568 193.153V191.153ZM161.716 196.636C161.716 198.21 162.179 199.582 163.055 200.575C163.938 201.577 165.18 202.119 166.568 202.119V200.119C165.723 200.119 165.039 199.801 164.555 199.252C164.062 198.694 163.716 197.824 163.716 196.636H161.716ZM166.568 202.119C167.956 202.119 169.198 201.577 170.082 200.575C170.957 199.582 171.42 198.21 171.42 196.636H169.42C169.42 197.824 169.074 198.694 168.582 199.252C168.097 199.801 167.413 200.119 166.568 200.119V202.119ZM168.398 196.636C168.398 197.591 168.137 198.213 167.82 198.58C167.513 198.937 167.088 199.131 166.568 199.131V201.131C167.633 201.131 168.624 200.711 169.335 199.887C170.036 199.074 170.398 197.948 170.398 196.636H168.398ZM166.568 199.131C166.048 199.131 165.624 198.937 165.316 198.58C164.999 198.213 164.739 197.591 164.739 196.636H162.739C162.739 197.948 163.1 199.074 163.802 199.887C164.513 200.711 165.503 201.131 166.568 201.131V199.131ZM164.739 196.636C164.739 195.681 164.999 195.059 165.316 194.692C165.624 194.336 166.048 194.142 166.568 194.142V192.142C165.503 192.142 164.513 192.562 163.802 193.386C163.1 194.199 162.739 195.324 162.739 196.636H164.739ZM166.568 194.142C167.088 194.142 167.513 194.336 167.82 194.692C168.137 195.059 168.398 195.681 168.398 196.636H170.398C170.398 195.324 170.036 194.199 169.335 193.386C168.624 192.562 167.633 192.142 166.568 192.142V194.142ZM177.294 199.091L178.283 199.236L178.452 198.091H177.294V199.091ZM176.288 199.091V198.091H175.517L175.321 198.838L176.288 199.091ZM176.288 196.415L175.32 196.664L175.513 197.415H176.288V196.415ZM177.294 196.415V197.415H178.443L178.285 196.277L177.294 196.415ZM174.72 202.136C176.631 202.136 178.036 200.919 178.283 199.236L176.305 198.945C176.211 199.581 175.707 200.136 174.72 200.136V202.136ZM177.294 198.091H176.288V200.091H177.294V198.091ZM175.321 198.838C175.261 199.065 175.102 199.233 174.72 199.233V201.233C175.907 201.233 176.94 200.549 177.256 199.344L175.321 198.838ZM174.72 199.233C174.429 199.233 174.231 199.125 174.081 198.934C173.913 198.718 173.76 198.328 173.76 197.727H171.76C171.76 198.643 171.991 199.506 172.504 200.164C173.037 200.846 173.819 201.233 174.72 201.233V199.233ZM173.76 197.727C173.76 197.153 173.912 196.778 174.079 196.569C174.231 196.38 174.433 196.273 174.72 196.273V194.273C173.831 194.273 173.053 194.652 172.519 195.319C172 195.966 171.76 196.818 171.76 197.727H173.76ZM174.72 196.273C174.948 196.273 175.077 196.339 175.152 196.399C175.235 196.465 175.293 196.559 175.32 196.664L177.257 196.166C176.997 195.157 176.093 194.273 174.72 194.273V196.273ZM176.288 197.415H177.294V195.415H176.288V197.415ZM178.285 196.277C178.034 194.473 176.495 193.369 174.703 193.369V195.369C175.673 195.369 176.213 195.902 176.304 196.552L178.285 196.277ZM174.703 193.369C173.535 193.369 172.518 193.839 171.806 194.665C171.106 195.478 170.754 196.572 170.754 197.761H172.754C172.754 196.956 172.991 196.354 173.322 195.97C173.641 195.599 174.099 195.369 174.703 195.369V193.369ZM170.754 197.761C170.754 198.926 171.089 200.017 171.786 200.833C172.498 201.666 173.523 202.136 174.72 202.136V200.136C174.076 200.136 173.619 199.899 173.307 199.534C172.982 199.154 172.754 198.557 172.754 197.761H170.754ZM181.611 194.455H182.611V193.455H181.611V194.455ZM180.213 194.455H179.213V195.455H180.213V194.455ZM180.213 192.886H181.213V191.886H180.213V192.886ZM179.207 192.886V191.886H178.207V192.886H179.207ZM179.207 194.455V195.455H180.207V194.455H179.207ZM178.219 194.455V193.455H177.219V194.455H178.219ZM178.219 195.307H177.219V196.307H178.219V195.307ZM179.207 195.307H180.207V194.307H179.207V195.307ZM181.73 200.966L182.081 201.902L182.898 201.596L182.705 200.745L181.73 200.966ZM181.526 200.062L182.501 199.842L182.286 198.891L181.329 199.082L181.526 200.062ZM180.213 195.307V194.307H179.213V195.307H180.213ZM181.611 195.307V196.307H182.611V195.307H181.611ZM181.611 193.455H180.213V195.455H181.611V193.455ZM181.213 194.455V192.886H179.213V194.455H181.213ZM180.213 191.886H179.207V193.886H180.213V191.886ZM178.207 192.886V194.455H180.207V192.886H178.207ZM179.207 193.455H178.219V195.455H179.207V193.455ZM177.219 194.455V195.307H179.219V194.455H177.219ZM178.219 196.307H179.207V194.307H178.219V196.307ZM178.207 195.307V199.398H180.207V195.307H178.207ZM178.207 199.398C178.207 200.267 178.571 200.971 179.136 201.44C179.676 201.888 180.355 202.085 180.98 202.085V200.085C180.753 200.085 180.545 200.01 180.412 199.9C180.304 199.81 180.207 199.67 180.207 199.398H178.207ZM180.98 202.085C181.486 202.085 181.843 201.992 182.081 201.902L181.379 200.03C181.344 200.043 181.225 200.085 180.98 200.085V202.085ZM182.705 200.745L182.501 199.842L180.55 200.283L180.755 201.187L182.705 200.745ZM181.329 199.082C181.258 199.096 181.248 199.099 181.21 199.105C181.181 199.109 181.14 199.114 181.082 199.114V201.114C181.418 201.114 181.649 201.058 181.722 201.043L181.329 199.082ZM181.082 199.114C181.052 199.114 181.031 199.112 181.017 199.111C181.003 199.11 181.001 199.109 181.007 199.11C181.021 199.114 181.076 199.131 181.137 199.184C181.166 199.209 181.189 199.236 181.206 199.261C181.222 199.286 181.228 199.303 181.229 199.306C181.23 199.309 181.213 199.26 181.213 199.125H179.213C179.213 199.699 179.357 200.287 179.826 200.694C180.269 201.078 180.795 201.114 181.082 201.114V199.114ZM181.213 199.125V195.307H179.213V199.125H181.213ZM180.213 196.307H181.611V194.307H180.213V196.307ZM182.611 195.307V194.455H180.611V195.307H182.611Z" fill="#718EBF" mask="url(#path-11-inside-4_1_1155)"/>
<path d="M162 185.309V181" stroke="#718EBF"/>
<mask id="path-14-inside-5_1_1155" fill="white">
<path d="M205.977 192.273H204.938V199.142H204.852L200.08 192.273H199.057V201H200.114V194.148H200.199L204.955 201H205.977V192.273ZM210.615 201.136C212.387 201.136 213.581 199.79 213.581 197.761C213.581 195.716 212.387 194.369 210.615 194.369C208.842 194.369 207.649 195.716 207.649 197.761C207.649 199.79 208.842 201.136 210.615 201.136ZM210.615 200.233C209.268 200.233 208.654 199.074 208.654 197.761C208.654 196.449 209.268 195.273 210.615 195.273C211.961 195.273 212.575 196.449 212.575 197.761C212.575 199.074 211.961 200.233 210.615 200.233ZM220.234 194.455H219.143L217.336 199.67H217.268L215.461 194.455H214.37L216.79 201H217.813L220.234 194.455Z"/>
</mask>
<path d="M205.977 192.273H204.938V199.142H204.852L200.08 192.273H199.057V201H200.114V194.148H200.199L204.955 201H205.977V192.273ZM210.615 201.136C212.387 201.136 213.581 199.79 213.581 197.761C213.581 195.716 212.387 194.369 210.615 194.369C208.842 194.369 207.649 195.716 207.649 197.761C207.649 199.79 208.842 201.136 210.615 201.136ZM210.615 200.233C209.268 200.233 208.654 199.074 208.654 197.761C208.654 196.449 209.268 195.273 210.615 195.273C211.961 195.273 212.575 196.449 212.575 197.761C212.575 199.074 211.961 200.233 210.615 200.233ZM220.234 194.455H219.143L217.336 199.67H217.268L215.461 194.455H214.37L216.79 201H217.813L220.234 194.455Z" fill="#718EBF"/>
<path d="M205.977 192.273H206.977V191.273H205.977V192.273ZM204.938 192.273V191.273H203.938V192.273H204.938ZM204.938 199.142V200.142H205.938V199.142H204.938ZM204.852 199.142L204.031 199.713L204.329 200.142H204.852V199.142ZM200.08 192.273L200.901 191.702L200.602 191.273H200.08V192.273ZM199.057 192.273V191.273H198.057V192.273H199.057ZM199.057 201H198.057V202H199.057V201ZM200.114 201V202H201.114V201H200.114ZM200.114 194.148V193.148H199.114V194.148H200.114ZM200.199 194.148L201.02 193.578L200.722 193.148H200.199V194.148ZM204.955 201L204.133 201.57L204.431 202H204.955V201ZM205.977 201V202H206.977V201H205.977ZM205.977 191.273H204.938V193.273H205.977V191.273ZM203.938 192.273V199.142H205.938V192.273H203.938ZM204.938 198.142H204.852V200.142H204.938V198.142ZM205.674 198.571L200.901 191.702L199.258 192.843L204.031 199.713L205.674 198.571ZM200.08 191.273H199.057V193.273H200.08V191.273ZM198.057 192.273V201H200.057V192.273H198.057ZM199.057 202H200.114V200H199.057V202ZM201.114 201V194.148H199.114V201H201.114ZM200.114 195.148H200.199V193.148H200.114V195.148ZM199.377 194.718L204.133 201.57L205.776 200.43L201.02 193.578L199.377 194.718ZM204.955 202H205.977V200H204.955V202ZM206.977 201V192.273H204.977V201H206.977ZM210.615 202.136C211.77 202.136 212.792 201.689 213.513 200.871C214.224 200.063 214.581 198.968 214.581 197.761H212.581C212.581 198.583 212.34 199.176 212.012 199.549C211.694 199.91 211.232 200.136 210.615 200.136V202.136ZM214.581 197.761C214.581 196.548 214.225 195.449 213.514 194.639C212.792 193.817 211.771 193.369 210.615 193.369V195.369C211.232 195.369 211.693 195.595 212.011 195.958C212.339 196.332 212.581 196.929 212.581 197.761H214.581ZM210.615 193.369C209.459 193.369 208.437 193.817 207.715 194.639C207.004 195.449 206.649 196.548 206.649 197.761H208.649C208.649 196.929 208.89 196.332 209.219 195.958C209.537 195.595 209.998 195.369 210.615 195.369V193.369ZM206.649 197.761C206.649 198.968 207.005 200.063 207.717 200.871C208.438 201.689 209.459 202.136 210.615 202.136V200.136C209.998 200.136 209.536 199.91 209.217 199.549C208.889 199.176 208.649 198.583 208.649 197.761H206.649ZM210.615 199.233C210.273 199.233 210.084 199.106 209.945 198.911C209.778 198.675 209.654 198.28 209.654 197.761H207.654C207.654 198.555 207.837 199.396 208.314 200.068C208.819 200.78 209.61 201.233 210.615 201.233V199.233ZM209.654 197.761C209.654 197.242 209.779 196.841 209.948 196.6C210.089 196.398 210.279 196.273 210.615 196.273V194.273C209.604 194.273 208.813 194.735 208.311 195.45C207.837 196.125 207.654 196.968 207.654 197.761H209.654ZM210.615 196.273C210.951 196.273 211.14 196.398 211.281 196.6C211.451 196.841 211.575 197.242 211.575 197.761H213.575C213.575 196.968 213.392 196.125 212.918 195.45C212.416 194.735 211.625 194.273 210.615 194.273V196.273ZM211.575 197.761C211.575 198.28 211.451 198.675 211.284 198.911C211.145 199.106 210.956 199.233 210.615 199.233V201.233C211.62 201.233 212.411 200.78 212.916 200.068C213.392 199.396 213.575 198.555 213.575 197.761H211.575ZM220.234 194.455L221.172 194.801L221.67 193.455H220.234V194.455ZM219.143 194.455V193.455H218.431L218.198 194.127L219.143 194.455ZM217.336 199.67V200.67H218.048L218.281 199.998L217.336 199.67ZM217.268 199.67L216.323 199.998L216.556 200.67H217.268V199.67ZM215.461 194.455L216.406 194.127L216.173 193.455H215.461V194.455ZM214.37 194.455V193.455H212.934L213.432 194.801L214.37 194.455ZM216.79 201L215.853 201.347L216.094 202H216.79V201ZM217.813 201V202H218.51L218.751 201.347L217.813 201ZM220.234 193.455H219.143V195.455H220.234V193.455ZM218.198 194.127L216.391 199.343L218.281 199.998L220.088 194.782L218.198 194.127ZM217.336 198.67H217.268V200.67H217.336V198.67ZM218.213 199.343L216.406 194.127L214.516 194.782L216.323 199.998L218.213 199.343ZM215.461 193.455H214.37V195.455H215.461V193.455ZM213.432 194.801L215.853 201.347L217.728 200.653L215.308 194.108L213.432 194.801ZM216.79 202H217.813V200H216.79V202ZM218.751 201.347L221.172 194.801L219.296 194.108L216.875 200.653L218.751 201.347Z" fill="#718EBF" mask="url(#path-14-inside-5_1_1155)"/>
<path d="M198 185.309V181" stroke="#718EBF"/>
<mask id="path-17-inside-6_1_1155" fill="white">
<path d="M237.75 201.309C240.409 201.309 241.909 199.656 241.909 196.928C241.909 194.218 240.409 192.582 237.869 192.582H235.057V201.309H237.75ZM236.114 200.372V193.519H237.801C239.847 193.519 240.886 194.815 240.886 196.928C240.886 199.059 239.847 200.372 237.682 200.372H236.114ZM246.29 201.445C247.619 201.445 248.591 200.781 248.898 199.792L247.926 199.519C247.67 200.201 247.078 200.542 246.29 200.542C245.109 200.542 244.295 199.779 244.249 198.377H249V197.951C249 195.514 247.551 194.678 246.188 194.678C244.415 194.678 243.239 196.076 243.239 198.087C243.239 200.099 244.398 201.445 246.29 201.445ZM244.249 197.508C244.317 196.489 245.037 195.582 246.188 195.582C247.278 195.582 247.977 196.4 247.977 197.508H244.249ZM253.189 201.445C254.638 201.445 255.592 200.559 255.763 199.4H254.757C254.57 200.116 253.973 200.542 253.189 200.542C251.996 200.542 251.229 199.553 251.229 198.036C251.229 196.553 252.013 195.582 253.189 195.582C254.075 195.582 254.604 196.127 254.757 196.724H255.763C255.592 195.497 254.553 194.678 253.172 194.678C251.399 194.678 250.223 196.076 250.223 198.07C250.223 200.031 251.348 201.445 253.189 201.445Z"/>
</mask>
<path d="M237.75 201.309C240.409 201.309 241.909 199.656 241.909 196.928C241.909 194.218 240.409 192.582 237.869 192.582H235.057V201.309H237.75ZM236.114 200.372V193.519H237.801C239.847 193.519 240.886 194.815 240.886 196.928C240.886 199.059 239.847 200.372 237.682 200.372H236.114ZM246.29 201.445C247.619 201.445 248.591 200.781 248.898 199.792L247.926 199.519C247.67 200.201 247.078 200.542 246.29 200.542C245.109 200.542 244.295 199.779 244.249 198.377H249V197.951C249 195.514 247.551 194.678 246.188 194.678C244.415 194.678 243.239 196.076 243.239 198.087C243.239 200.099 244.398 201.445 246.29 201.445ZM244.249 197.508C244.317 196.489 245.037 195.582 246.188 195.582C247.278 195.582 247.977 196.4 247.977 197.508H244.249ZM253.189 201.445C254.638 201.445 255.592 200.559 255.763 199.4H254.757C254.57 200.116 253.973 200.542 253.189 200.542C251.996 200.542 251.229 199.553 251.229 198.036C251.229 196.553 252.013 195.582 253.189 195.582C254.075 195.582 254.604 196.127 254.757 196.724H255.763C255.592 195.497 254.553 194.678 253.172 194.678C251.399 194.678 250.223 196.076 250.223 198.07C250.223 200.031 251.348 201.445 253.189 201.445Z" fill="#718EBF"/>
<path d="M235.057 192.582V191.582H234.057V192.582H235.057ZM235.057 201.309H234.057V202.309H235.057V201.309ZM236.114 200.372H235.114V201.372H236.114V200.372ZM236.114 193.519V192.519H235.114V193.519H236.114ZM237.75 202.309C239.292 202.309 240.62 201.824 241.556 200.826C242.484 199.837 242.909 198.469 242.909 196.928H240.909C240.909 198.115 240.585 198.938 240.097 199.457C239.619 199.968 238.867 200.309 237.75 200.309V202.309ZM242.909 196.928C242.909 195.395 242.483 194.04 241.575 193.059C240.658 192.069 239.361 191.582 237.869 191.582V193.582C238.917 193.582 239.64 193.913 240.108 194.418C240.585 194.934 240.909 195.752 240.909 196.928H242.909ZM237.869 191.582H235.057V193.582H237.869V191.582ZM234.057 192.582V201.309H236.057V192.582H234.057ZM235.057 202.309H237.75V200.309H235.057V202.309ZM237.114 200.372V193.519H235.114V200.372H237.114ZM236.114 194.519H237.801V192.519H236.114V194.519ZM237.801 194.519C238.603 194.519 239.074 194.765 239.359 195.091C239.663 195.437 239.886 196.022 239.886 196.928H241.886C241.886 195.721 241.59 194.602 240.863 193.772C240.117 192.921 239.044 192.519 237.801 192.519V194.519ZM239.886 196.928C239.886 197.846 239.662 198.434 239.35 198.783C239.055 199.113 238.557 199.372 237.682 199.372V201.372C238.972 201.372 240.076 200.973 240.842 200.115C241.591 199.276 241.886 198.142 241.886 196.928H239.886ZM237.682 199.372H236.114V201.372H237.682V199.372ZM248.898 199.792L249.853 200.088L250.157 199.107L249.168 198.829L248.898 199.792ZM247.926 199.519L248.196 198.557L247.312 198.308L246.99 199.168L247.926 199.519ZM244.249 198.377V197.377H243.215L243.249 198.411L244.249 198.377ZM249 198.377V199.377H250V198.377H249ZM244.249 197.508L243.251 197.441L243.179 198.508H244.249V197.508ZM247.977 197.508V198.508H248.977V197.508H247.977ZM246.29 202.445C247.954 202.445 249.388 201.587 249.853 200.088L247.943 199.496C247.794 199.975 247.285 200.445 246.29 200.445V202.445ZM249.168 198.829L248.196 198.557L247.656 200.482L248.627 200.755L249.168 198.829ZM246.99 199.168C246.912 199.377 246.757 199.542 246.29 199.542V201.542C247.399 201.542 248.429 201.025 248.862 199.87L246.99 199.168ZM246.29 199.542C245.921 199.542 245.698 199.428 245.56 199.287C245.417 199.141 245.265 198.86 245.248 198.344L243.249 198.411C243.279 199.297 243.557 200.098 244.128 200.684C244.704 201.274 245.478 201.542 246.29 201.542V199.542ZM244.249 199.377H249V197.377H244.249V199.377ZM250 198.377V197.951H248V198.377H250ZM250 197.951C250 196.529 249.571 195.425 248.799 194.681C248.039 193.948 247.064 193.678 246.188 193.678V195.678C246.674 195.678 247.106 195.827 247.411 196.121C247.704 196.403 248 196.936 248 197.951H250ZM246.188 193.678C245.019 193.678 244.001 194.148 243.289 194.977C242.589 195.793 242.239 196.892 242.239 198.087H244.239C244.239 197.272 244.476 196.666 244.807 196.28C245.127 195.908 245.583 195.678 246.188 195.678V193.678ZM242.239 198.087C242.239 199.281 242.584 200.377 243.31 201.188C244.047 202.011 245.092 202.445 246.29 202.445V200.445C245.595 200.445 245.115 200.206 244.8 199.854C244.473 199.489 244.239 198.906 244.239 198.087H242.239ZM245.246 197.575C245.288 196.959 245.678 196.582 246.188 196.582V194.582C244.396 194.582 243.346 196.02 243.251 197.441L245.246 197.575ZM246.188 196.582C246.468 196.582 246.64 196.679 246.751 196.801C246.87 196.933 246.977 197.162 246.977 197.508H248.977C248.977 196.746 248.735 196.012 248.232 195.458C247.721 194.893 246.998 194.582 246.188 194.582V196.582ZM247.977 196.508H244.249V198.508H247.977V196.508ZM255.763 199.4L256.752 199.545L256.921 198.4H255.763V199.4ZM254.757 199.4V198.4H253.985L253.79 199.147L254.757 199.4ZM254.757 196.724L253.789 196.973L253.982 197.724H254.757V196.724ZM255.763 196.724V197.724H256.911L256.753 196.586L255.763 196.724ZM253.189 202.445C255.1 202.445 256.505 201.228 256.752 199.545L254.773 199.254C254.68 199.89 254.176 200.445 253.189 200.445V202.445ZM255.763 198.4H254.757V200.4H255.763V198.4ZM253.79 199.147C253.73 199.374 253.571 199.542 253.189 199.542V201.542C254.376 201.542 255.409 200.858 255.724 199.653L253.79 199.147ZM253.189 199.542C252.897 199.542 252.699 199.434 252.55 199.243C252.381 199.027 252.229 198.637 252.229 198.036H250.229C250.229 198.952 250.459 199.815 250.973 200.473C251.505 201.155 252.287 201.542 253.189 201.542V199.542ZM252.229 198.036C252.229 197.462 252.381 197.087 252.548 196.878C252.7 196.689 252.902 196.582 253.189 196.582V194.582C252.3 194.582 251.522 194.961 250.987 195.628C250.469 196.275 250.229 197.128 250.229 198.036H252.229ZM253.189 196.582C253.417 196.582 253.546 196.648 253.621 196.708C253.703 196.775 253.762 196.869 253.789 196.973L255.726 196.475C255.466 195.466 254.562 194.582 253.189 194.582V196.582ZM254.757 197.724H255.763V195.724H254.757V197.724ZM256.753 196.586C256.503 194.782 254.963 193.678 253.172 193.678V195.678C254.142 195.678 254.682 196.211 254.772 196.861L256.753 196.586ZM253.172 193.678C252.003 193.678 250.986 194.148 250.275 194.974C249.575 195.787 249.223 196.881 249.223 198.07H251.223C251.223 197.265 251.459 196.663 251.79 196.279C252.11 195.908 252.568 195.678 253.172 195.678V193.678ZM249.223 198.07C249.223 199.235 249.558 200.326 250.255 201.142C250.967 201.975 251.992 202.445 253.189 202.445V200.445C252.545 200.445 252.087 200.208 251.776 199.844C251.451 199.463 251.223 198.866 251.223 198.07H249.223Z" fill="#718EBF" mask="url(#path-17-inside-6_1_1155)"/>
<path d="M234 185.309V181" stroke="#718EBF"/>
<mask id="path-20-inside-7_1_1155" fill="white">
<path d="M275.398 192.273V198.511C275.398 199.598 274.878 200.182 273.966 200.182C273.135 200.182 272.534 199.696 272.534 198.955H271.494C271.494 200.297 272.534 201.119 273.966 201.119C275.483 201.119 276.455 200.186 276.455 198.511V192.273H275.398ZM280.362 201.153C281.504 201.153 282.101 200.54 282.305 200.114H282.357V201H283.362V196.688C283.362 194.608 281.777 194.369 280.942 194.369C279.953 194.369 278.828 194.71 278.317 195.903L279.271 196.244C279.493 195.767 280.017 195.256 280.976 195.256C281.901 195.256 282.357 195.746 282.357 196.585V196.619C282.357 197.105 281.862 197.062 280.669 197.216C279.455 197.374 278.129 197.642 278.129 199.142C278.129 200.42 279.118 201.153 280.362 201.153ZM280.516 200.25C279.714 200.25 279.135 199.892 279.135 199.193C279.135 198.426 279.834 198.188 280.618 198.085C281.044 198.034 282.186 197.915 282.357 197.71V198.631C282.357 199.449 281.709 200.25 280.516 200.25ZM286.203 197.062C286.203 195.92 286.911 195.273 287.874 195.273C288.807 195.273 289.374 195.882 289.374 196.909V201H290.38V196.841C290.38 195.17 289.489 194.369 288.164 194.369C287.175 194.369 286.561 194.812 286.255 195.477H286.169V194.455H285.198V201H286.203V197.062Z"/>
</mask>
<path d="M275.398 192.273V198.511C275.398 199.598 274.878 200.182 273.966 200.182C273.135 200.182 272.534 199.696 272.534 198.955H271.494C271.494 200.297 272.534 201.119 273.966 201.119C275.483 201.119 276.455 200.186 276.455 198.511V192.273H275.398ZM280.362 201.153C281.504 201.153 282.101 200.54 282.305 200.114H282.357V201H283.362V196.688C283.362 194.608 281.777 194.369 280.942 194.369C279.953 194.369 278.828 194.71 278.317 195.903L279.271 196.244C279.493 195.767 280.017 195.256 280.976 195.256C281.901 195.256 282.357 195.746 282.357 196.585V196.619C282.357 197.105 281.862 197.062 280.669 197.216C279.455 197.374 278.129 197.642 278.129 199.142C278.129 200.42 279.118 201.153 280.362 201.153ZM280.516 200.25C279.714 200.25 279.135 199.892 279.135 199.193C279.135 198.426 279.834 198.188 280.618 198.085C281.044 198.034 282.186 197.915 282.357 197.71V198.631C282.357 199.449 281.709 200.25 280.516 200.25ZM286.203 197.062C286.203 195.92 286.911 195.273 287.874 195.273C288.807 195.273 289.374 195.882 289.374 196.909V201H290.38V196.841C290.38 195.17 289.489 194.369 288.164 194.369C287.175 194.369 286.561 194.812 286.255 195.477H286.169V194.455H285.198V201H286.203V197.062Z" fill="#718EBF"/>
<path d="M275.398 192.273V191.273H274.398V192.273H275.398ZM272.534 198.955H273.534V197.955H272.534V198.955ZM271.494 198.955V197.955H270.494V198.955H271.494ZM276.455 192.273H277.455V191.273H276.455V192.273ZM274.398 192.273V198.511H276.398V192.273H274.398ZM274.398 198.511C274.398 198.91 274.301 199.061 274.268 199.1C274.254 199.116 274.199 199.182 273.966 199.182V201.182C274.645 201.182 275.306 200.956 275.78 200.409C276.234 199.884 276.398 199.199 276.398 198.511H274.398ZM273.966 199.182C273.74 199.182 273.624 199.116 273.583 199.082C273.563 199.065 273.554 199.051 273.549 199.039C273.543 199.028 273.534 199.003 273.534 198.955H271.534C271.534 199.617 271.812 200.205 272.294 200.611C272.761 201.005 273.361 201.182 273.966 201.182V199.182ZM272.534 197.955H271.494V199.955H272.534V197.955ZM270.494 198.955C270.494 199.905 270.873 200.73 271.545 201.302C272.201 201.86 273.065 202.119 273.966 202.119V200.119C273.435 200.119 273.063 199.967 272.841 199.779C272.636 199.604 272.494 199.346 272.494 198.955H270.494ZM273.966 202.119C274.931 202.119 275.834 201.818 276.494 201.142C277.153 200.469 277.455 199.541 277.455 198.511H275.455C275.455 199.157 275.271 199.533 275.064 199.744C274.859 199.954 274.518 200.119 273.966 200.119V202.119ZM277.455 198.511V192.273H275.455V198.511H277.455ZM276.455 191.273H275.398V193.273H276.455V191.273ZM282.305 200.114V199.114H281.676L281.404 199.681L282.305 200.114ZM282.357 200.114H283.357V199.114H282.357V200.114ZM282.357 201H281.357V202H282.357V201ZM283.362 201V202H284.362V201H283.362ZM278.317 195.903L277.398 195.509L276.979 196.487L277.98 196.845L278.317 195.903ZM279.271 196.244L278.935 197.186L279.794 197.493L280.178 196.665L279.271 196.244ZM280.669 197.216L280.542 196.224L280.54 196.224L280.669 197.216ZM280.618 198.085L280.499 197.092L280.489 197.094L280.618 198.085ZM282.357 197.71H283.357V194.948L281.588 197.07L282.357 197.71ZM280.362 202.153C281.913 202.153 282.847 201.297 283.207 200.546L281.404 199.681C281.355 199.783 281.096 200.153 280.362 200.153V202.153ZM282.305 201.114H282.357V199.114H282.305V201.114ZM281.357 200.114V201H283.357V200.114H281.357ZM282.357 202H283.362V200H282.357V202ZM284.362 201V196.688H282.362V201H284.362ZM284.362 196.688C284.362 195.348 283.825 194.43 283.003 193.906C282.26 193.432 281.423 193.369 280.942 193.369V195.369C281.296 195.369 281.668 195.426 281.927 195.592C282.106 195.706 282.362 195.947 282.362 196.688H284.362ZM280.942 193.369C279.76 193.369 278.135 193.79 277.398 195.509L279.236 196.297C279.522 195.631 280.146 195.369 280.942 195.369V193.369ZM277.98 196.845L278.935 197.186L279.608 195.303L278.653 194.962L277.98 196.845ZM280.178 196.665C280.221 196.573 280.295 196.475 280.405 196.401C280.509 196.331 280.683 196.256 280.976 196.256V194.256C279.59 194.256 278.733 195.028 278.364 195.823L280.178 196.665ZM280.976 196.256C281.121 196.256 281.21 196.275 281.258 196.292C281.282 196.3 281.295 196.307 281.302 196.311C281.305 196.313 281.307 196.314 281.308 196.315C281.309 196.316 281.309 196.316 281.309 196.316C281.309 196.316 281.309 196.316 281.31 196.317C281.31 196.317 281.311 196.318 281.312 196.32C281.315 196.324 281.32 196.334 281.327 196.353C281.34 196.391 281.357 196.464 281.357 196.585H283.357C283.357 195.991 283.193 195.367 282.717 194.895C282.242 194.425 281.607 194.256 280.976 194.256V196.256ZM281.357 196.585V196.619H283.357V196.585H281.357ZM281.357 196.619C281.357 196.559 281.379 196.368 281.544 196.198C281.672 196.067 281.789 196.054 281.714 196.073C281.65 196.089 281.537 196.108 281.319 196.133C281.126 196.156 280.845 196.185 280.542 196.224L280.797 198.208C281.09 198.17 281.318 198.147 281.553 198.119C281.764 198.095 281.998 198.064 282.206 198.012C282.404 197.961 282.719 197.858 282.977 197.594C283.273 197.29 283.357 196.922 283.357 196.619H281.357ZM280.54 196.224C279.948 196.301 279.126 196.422 278.45 196.806C278.091 197.01 277.747 197.3 277.498 197.716C277.247 198.133 277.129 198.615 277.129 199.142H279.129C279.129 198.919 279.177 198.805 279.213 198.745C279.25 198.683 279.313 198.616 279.437 198.545C279.728 198.38 280.175 198.288 280.798 198.208L280.54 196.224ZM277.129 199.142C277.129 200.061 277.495 200.847 278.131 201.388C278.748 201.914 279.551 202.153 280.362 202.153V200.153C279.929 200.153 279.615 200.026 279.428 199.866C279.258 199.721 279.129 199.501 279.129 199.142H277.129ZM280.516 199.25C280.246 199.25 280.13 199.187 280.11 199.173C280.106 199.17 280.119 199.179 280.13 199.201C280.141 199.223 280.135 199.227 280.135 199.193H278.135C278.135 199.859 278.43 200.427 278.94 200.795C279.41 201.134 279.984 201.25 280.516 201.25V199.25ZM280.135 199.193C280.135 199.16 280.141 199.18 280.118 199.219C280.097 199.254 280.08 199.258 280.108 199.241C280.14 199.221 280.206 199.19 280.323 199.157C280.438 199.125 280.579 199.099 280.747 199.077L280.489 197.094C280.068 197.149 279.519 197.254 279.057 197.539C278.521 197.87 278.135 198.427 278.135 199.193H280.135ZM280.737 199.078C280.934 199.054 281.36 199.008 281.752 198.941C281.947 198.907 282.164 198.864 282.357 198.807C282.453 198.778 282.566 198.74 282.679 198.687C282.77 198.643 282.964 198.543 283.125 198.35L281.588 197.07C281.655 196.991 281.718 196.943 281.751 196.921C281.787 196.896 281.813 196.884 281.822 196.879C281.838 196.872 281.831 196.877 281.789 196.889C281.707 196.913 281.579 196.941 281.414 196.97C281.086 197.026 280.728 197.065 280.499 197.092L280.737 199.078ZM281.357 197.71V198.631H283.357V197.71H281.357ZM281.357 198.631C281.357 198.776 281.299 198.92 281.186 199.03C281.081 199.133 280.879 199.25 280.516 199.25V201.25C282.235 201.25 283.357 200.027 283.357 198.631H281.357ZM289.374 201H288.374V202H289.374V201ZM290.38 201V202H291.38V201H290.38ZM286.255 195.477V196.477H286.894L287.163 195.896L286.255 195.477ZM286.169 195.477H285.169V196.477H286.169V195.477ZM286.169 194.455H287.169V193.455H286.169V194.455ZM285.198 194.455V193.455H284.198V194.455H285.198ZM285.198 201H284.198V202H285.198V201ZM286.203 201V202H287.203V201H286.203ZM287.203 197.062C287.203 196.701 287.311 196.522 287.393 196.438C287.476 196.353 287.621 196.273 287.874 196.273V194.273C287.164 194.273 286.474 194.516 285.962 195.041C285.449 195.566 285.203 196.282 285.203 197.062H287.203ZM287.874 196.273C288.115 196.273 288.203 196.345 288.238 196.383C288.283 196.432 288.374 196.574 288.374 196.909H290.374C290.374 196.217 290.181 195.541 289.71 195.029C289.228 194.506 288.566 194.273 287.874 194.273V196.273ZM288.374 196.909V201H290.374V196.909H288.374ZM289.374 202H290.38V200H289.374V202ZM291.38 201V196.841H289.38V201H291.38ZM291.38 196.841C291.38 195.835 291.11 194.939 290.494 194.29C289.872 193.636 289.029 193.369 288.164 193.369V195.369C288.624 195.369 288.888 195.504 289.043 195.667C289.204 195.837 289.38 196.177 289.38 196.841H291.38ZM288.164 193.369C287.518 193.369 286.929 193.515 286.43 193.822C285.928 194.13 285.573 194.567 285.347 195.058L287.163 195.896C287.243 195.723 287.348 195.605 287.477 195.526C287.609 195.445 287.821 195.369 288.164 195.369V193.369ZM286.255 194.477H286.169V196.477H286.255V194.477ZM287.169 195.477V194.455H285.169V195.477H287.169ZM286.169 193.455H285.198V195.455H286.169V193.455ZM284.198 194.455V201H286.198V194.455H284.198ZM285.198 202H286.203V200H285.198V202ZM287.203 201V197.062H285.203V201H287.203Z" fill="#718EBF" mask="url(#path-20-inside-7_1_1155)"/>
<path d="M271 185.309V181" stroke="#718EBF"/>
<path d="M45 181H51.3985" stroke="#718EBF"/>
<mask id="path-24-inside-8_1_1155" fill="white">
<path d="M36.25 186.119C38.1761 186.119 39.2841 184.487 39.2841 181.636C39.2841 178.807 38.1591 177.153 36.25 177.153C34.3409 177.153 33.2159 178.807 33.2159 181.636C33.2159 184.487 34.3239 186.119 36.25 186.119ZM36.25 185.182C34.9801 185.182 34.2386 183.908 34.2386 181.636C34.2386 179.369 34.9886 178.074 36.25 178.074C37.5114 178.074 38.2614 179.369 38.2614 181.636C38.2614 183.908 37.5199 185.182 36.25 185.182Z"/>
</mask>
<path d="M36.25 186.119C38.1761 186.119 39.2841 184.487 39.2841 181.636C39.2841 178.807 38.1591 177.153 36.25 177.153C34.3409 177.153 33.2159 178.807 33.2159 181.636C33.2159 184.487 34.3239 186.119 36.25 186.119ZM36.25 185.182C34.9801 185.182 34.2386 183.908 34.2386 181.636C34.2386 179.369 34.9886 178.074 36.25 178.074C37.5114 178.074 38.2614 179.369 38.2614 181.636C38.2614 183.908 37.5199 185.182 36.25 185.182Z" fill="#718EBF"/>
<path d="M36.25 187.119C37.5409 187.119 38.6113 186.55 39.3173 185.508C39.9897 184.515 40.2841 183.169 40.2841 181.636H38.2841C38.2841 182.954 38.0245 183.85 37.6614 184.386C37.3319 184.873 36.8852 185.119 36.25 185.119V187.119ZM40.2841 181.636C40.2841 180.11 39.9838 178.766 39.3107 177.773C38.6064 176.734 37.5391 176.153 36.25 176.153V178.153C36.87 178.153 37.3197 178.4 37.6552 178.895C38.0219 179.436 38.2841 180.333 38.2841 181.636H40.2841ZM36.25 176.153C34.9609 176.153 33.8936 176.734 33.1893 177.773C32.5162 178.766 32.2159 180.11 32.2159 181.636H34.2159C34.2159 180.333 34.4781 179.436 34.8448 178.895C35.1803 178.4 35.63 178.153 36.25 178.153V176.153ZM32.2159 181.636C32.2159 183.169 32.5103 184.515 33.1827 185.508C33.8887 186.55 34.9591 187.119 36.25 187.119V185.119C35.6148 185.119 35.1681 184.873 34.8386 184.386C34.4755 183.85 34.2159 182.954 34.2159 181.636H32.2159ZM36.25 184.182C36.0224 184.182 35.8279 184.1 35.6364 183.765C35.4143 183.376 35.2386 182.688 35.2386 181.636H33.2386C33.2386 182.856 33.4337 183.941 33.8998 184.757C34.3965 185.626 35.2077 186.182 36.25 186.182V184.182ZM35.2386 181.636C35.2386 180.589 35.4156 179.895 35.6407 179.499C35.8377 179.153 36.0351 179.074 36.25 179.074V177.074C35.2035 177.074 34.3953 177.643 33.9019 178.511C33.4367 179.329 33.2386 180.416 33.2386 181.636H35.2386ZM36.25 179.074C36.4649 179.074 36.6623 179.153 36.8593 179.499C37.0844 179.895 37.2614 180.589 37.2614 181.636H39.2614C39.2614 180.416 39.0633 179.329 38.5981 178.511C38.1047 177.643 37.2965 177.074 36.25 177.074V179.074ZM37.2614 181.636C37.2614 182.688 37.0857 183.376 36.8636 183.765C36.6721 184.1 36.4776 184.182 36.25 184.182V186.182C37.2923 186.182 38.1035 185.626 38.6002 184.757C39.0663 183.941 39.2614 182.856 39.2614 181.636H37.2614Z" fill="#718EBF" mask="url(#path-24-inside-8_1_1155)"/>
<path d="M45.6501 140.765H51.9999" stroke="#718EBF"/>
<mask id="path-27-inside-9_1_1155" fill="white">
<path d="M20.6378 146H26.1435V145.062H22.0866V144.994L24.0469 142.898C25.5469 141.291 25.9901 140.541 25.9901 139.574C25.9901 138.227 24.8991 137.153 23.3651 137.153C21.8352 137.153 20.6719 138.193 20.6719 139.727H21.6776C21.6776 138.734 22.321 138.074 23.331 138.074C24.277 138.074 25.0014 138.653 25.0014 139.574C25.0014 140.379 24.5284 140.976 23.5185 142.08L20.6378 145.233V146ZM30.75 146.119C32.6761 146.119 33.7841 144.487 33.7841 141.636C33.7841 138.807 32.6591 137.153 30.75 137.153C28.8409 137.153 27.7159 138.807 27.7159 141.636C27.7159 144.487 28.8239 146.119 30.75 146.119ZM30.75 145.182C29.4801 145.182 28.7386 143.908 28.7386 141.636C28.7386 139.369 29.4886 138.074 30.75 138.074C32.0114 138.074 32.7614 139.369 32.7614 141.636C32.7614 143.908 32.0199 145.182 30.75 145.182ZM38.25 146.119C40.1761 146.119 41.2841 144.487 41.2841 141.636C41.2841 138.807 40.1591 137.153 38.25 137.153C36.3409 137.153 35.2159 138.807 35.2159 141.636C35.2159 144.487 36.3239 146.119 38.25 146.119ZM38.25 145.182C36.9801 145.182 36.2386 143.908 36.2386 141.636C36.2386 139.369 36.9886 138.074 38.25 138.074C39.5114 138.074 40.2614 139.369 40.2614 141.636C40.2614 143.908 39.5199 145.182 38.25 145.182Z"/>
</mask>
<path d="M20.6378 146H26.1435V145.062H22.0866V144.994L24.0469 142.898C25.5469 141.291 25.9901 140.541 25.9901 139.574C25.9901 138.227 24.8991 137.153 23.3651 137.153C21.8352 137.153 20.6719 138.193 20.6719 139.727H21.6776C21.6776 138.734 22.321 138.074 23.331 138.074C24.277 138.074 25.0014 138.653 25.0014 139.574C25.0014 140.379 24.5284 140.976 23.5185 142.08L20.6378 145.233V146ZM30.75 146.119C32.6761 146.119 33.7841 144.487 33.7841 141.636C33.7841 138.807 32.6591 137.153 30.75 137.153C28.8409 137.153 27.7159 138.807 27.7159 141.636C27.7159 144.487 28.8239 146.119 30.75 146.119ZM30.75 145.182C29.4801 145.182 28.7386 143.908 28.7386 141.636C28.7386 139.369 29.4886 138.074 30.75 138.074C32.0114 138.074 32.7614 139.369 32.7614 141.636C32.7614 143.908 32.0199 145.182 30.75 145.182ZM38.25 146.119C40.1761 146.119 41.2841 144.487 41.2841 141.636C41.2841 138.807 40.1591 137.153 38.25 137.153C36.3409 137.153 35.2159 138.807 35.2159 141.636C35.2159 144.487 36.3239 146.119 38.25 146.119ZM38.25 145.182C36.9801 145.182 36.2386 143.908 36.2386 141.636C36.2386 139.369 36.9886 138.074 38.25 138.074C39.5114 138.074 40.2614 139.369 40.2614 141.636C40.2614 143.908 39.5199 145.182 38.25 145.182Z" fill="#718EBF"/>
<path d="M20.6378 146H19.6378V147H20.6378V146ZM26.1435 146V147H27.1435V146H26.1435ZM26.1435 145.062H27.1435V144.062H26.1435V145.062ZM22.0866 145.062H21.0866V146.062H22.0866V145.062ZM22.0866 144.994L21.3562 144.311L21.0866 144.6V144.994H22.0866ZM24.0469 142.898L24.7773 143.581L24.7778 143.58L24.0469 142.898ZM20.6719 139.727H19.6719V140.727H20.6719V139.727ZM21.6776 139.727V140.727H22.6776V139.727H21.6776ZM23.5185 142.08L22.7807 141.404L22.7802 141.405L23.5185 142.08ZM20.6378 145.233L19.8995 144.558L19.6378 144.845V145.233H20.6378ZM20.6378 147H26.1435V145H20.6378V147ZM27.1435 146V145.062H25.1435V146H27.1435ZM26.1435 144.062H22.0866V146.062H26.1435V144.062ZM23.0866 145.062V144.994H21.0866V145.062H23.0866ZM22.8171 145.677L24.7773 143.581L23.3164 142.215L21.3562 144.311L22.8171 145.677ZM24.7778 143.58C26.2709 141.981 26.9901 140.972 26.9901 139.574H24.9901C24.9901 140.111 24.8229 140.601 23.3159 142.215L24.7778 143.58ZM26.9901 139.574C26.9901 137.618 25.3926 136.153 23.3651 136.153V138.153C24.4057 138.153 24.9901 138.837 24.9901 139.574H26.9901ZM23.3651 136.153C21.3452 136.153 19.6719 137.581 19.6719 139.727H21.6719C21.6719 138.806 22.3252 138.153 23.3651 138.153V136.153ZM20.6719 140.727H21.6776V138.727H20.6719V140.727ZM22.6776 139.727C22.6776 139.45 22.7633 139.305 22.8352 139.233C22.9061 139.161 23.0491 139.074 23.331 139.074V137.074C22.6029 137.074 21.9192 137.317 21.4158 137.824C20.9136 138.33 20.6776 139.011 20.6776 139.727H22.6776ZM23.331 139.074C23.6045 139.074 23.7768 139.157 23.8653 139.234C23.9404 139.299 24.0014 139.396 24.0014 139.574H26.0014C26.0014 138.831 25.7002 138.178 25.1766 137.724C24.6663 137.281 24.0035 137.074 23.331 137.074V139.074ZM24.0014 139.574C24.0014 139.924 23.8519 140.234 22.7807 141.404L24.2562 142.755C25.2049 141.718 26.0014 140.834 26.0014 139.574H24.0014ZM22.7802 141.405L19.8995 144.558L21.3761 145.907L24.2568 142.754L22.7802 141.405ZM19.6378 145.233V146H21.6378V145.233H19.6378ZM30.75 147.119C32.0409 147.119 33.1113 146.55 33.8173 145.508C34.4897 144.515 34.7841 143.169 34.7841 141.636H32.7841C32.7841 142.954 32.5245 143.85 32.1614 144.386C31.8319 144.873 31.3852 145.119 30.75 145.119V147.119ZM34.7841 141.636C34.7841 140.11 34.4838 138.766 33.8107 137.773C33.1064 136.734 32.0391 136.153 30.75 136.153V138.153C31.37 138.153 31.8197 138.4 32.1552 138.895C32.5219 139.436 32.7841 140.333 32.7841 141.636H34.7841ZM30.75 136.153C29.4609 136.153 28.3936 136.734 27.6893 137.773C27.0162 138.766 26.7159 140.11 26.7159 141.636H28.7159C28.7159 140.333 28.9781 139.436 29.3448 138.895C29.6803 138.4 30.13 138.153 30.75 138.153V136.153ZM26.7159 141.636C26.7159 143.169 27.0103 144.515 27.6827 145.508C28.3887 146.55 29.4591 147.119 30.75 147.119V145.119C30.1148 145.119 29.6681 144.873 29.3386 144.386C28.9755 143.85 28.7159 142.954 28.7159 141.636H26.7159ZM30.75 144.182C30.5224 144.182 30.3279 144.1 30.1364 143.765C29.9143 143.376 29.7386 142.688 29.7386 141.636H27.7386C27.7386 142.856 27.9337 143.941 28.3998 144.757C28.8965 145.626 29.7077 146.182 30.75 146.182V144.182ZM29.7386 141.636C29.7386 140.589 29.9156 139.895 30.1407 139.499C30.3377 139.153 30.5351 139.074 30.75 139.074V137.074C29.7035 137.074 28.8953 137.643 28.4019 138.511C27.9367 139.329 27.7386 140.416 27.7386 141.636H29.7386ZM30.75 139.074C30.9649 139.074 31.1623 139.153 31.3593 139.499C31.5844 139.895 31.7614 140.589 31.7614 141.636H33.7614C33.7614 140.416 33.5633 139.329 33.0981 138.511C32.6047 137.643 31.7965 137.074 30.75 137.074V139.074ZM31.7614 141.636C31.7614 142.688 31.5857 143.376 31.3636 143.765C31.1721 144.1 30.9776 144.182 30.75 144.182V146.182C31.7923 146.182 32.6035 145.626 33.1002 144.757C33.5663 143.941 33.7614 142.856 33.7614 141.636H31.7614ZM38.25 147.119C39.5409 147.119 40.6113 146.55 41.3173 145.508C41.9897 144.515 42.2841 143.169 42.2841 141.636H40.2841C40.2841 142.954 40.0245 143.85 39.6614 144.386C39.3319 144.873 38.8852 145.119 38.25 145.119V147.119ZM42.2841 141.636C42.2841 140.11 41.9838 138.766 41.3107 137.773C40.6064 136.734 39.5391 136.153 38.25 136.153V138.153C38.87 138.153 39.3197 138.4 39.6552 138.895C40.0219 139.436 40.2841 140.333 40.2841 141.636H42.2841ZM38.25 136.153C36.9609 136.153 35.8936 136.734 35.1893 137.773C34.5162 138.766 34.2159 140.11 34.2159 141.636H36.2159C36.2159 140.333 36.4781 139.436 36.8448 138.895C37.1803 138.4 37.63 138.153 38.25 138.153V136.153ZM34.2159 141.636C34.2159 143.169 34.5103 144.515 35.1827 145.508C35.8887 146.55 36.9591 147.119 38.25 147.119V145.119C37.6148 145.119 37.1681 144.873 36.8386 144.386C36.4755 143.85 36.2159 142.954 36.2159 141.636H34.2159ZM38.25 144.182C38.0224 144.182 37.8279 144.1 37.6364 143.765C37.4143 143.376 37.2386 142.688 37.2386 141.636H35.2386C35.2386 142.856 35.4337 143.941 35.8998 144.757C36.3965 145.626 37.2077 146.182 38.25 146.182V144.182ZM37.2386 141.636C37.2386 140.589 37.4156 139.895 37.6407 139.499C37.8377 139.153 38.0351 139.074 38.25 139.074V137.074C37.2035 137.074 36.3953 137.643 35.9019 138.511C35.4367 139.329 35.2386 140.416 35.2386 141.636H37.2386ZM38.25 139.074C38.4649 139.074 38.6623 139.153 38.8593 139.499C39.0844 139.895 39.2614 140.589 39.2614 141.636H41.2614C41.2614 140.416 41.0634 139.329 40.5981 138.511C40.1047 137.643 39.2965 137.074 38.25 137.074V139.074ZM39.2614 141.636C39.2614 142.688 39.0857 143.376 38.8636 143.765C38.6721 144.1 38.4776 144.182 38.25 144.182V146.182C39.2923 146.182 40.1035 145.626 40.6002 144.757C41.0663 143.941 41.2614 142.856 41.2614 141.636H39.2614Z" fill="#718EBF" mask="url(#path-27-inside-9_1_1155)"/>
<path d="M45.6504 101.16H52.0001" stroke="#718EBF"/>
<mask id="path-30-inside-10_1_1155" fill="white">
<path d="M18.9996 104.21H23.1076V106H24.1133V104.21H25.3065V103.273H24.1133V97.2727H22.8349L18.9996 103.341V104.21ZM23.1076 103.273H20.1417V103.205L23.0394 98.6193H23.1076V103.273ZM29.75 106.119C31.6761 106.119 32.7841 104.487 32.7841 101.636C32.7841 98.8068 31.6591 97.1534 29.75 97.1534C27.8409 97.1534 26.7159 98.8068 26.7159 101.636C26.7159 104.487 27.8239 106.119 29.75 106.119ZM29.75 105.182C28.4801 105.182 27.7386 103.908 27.7386 101.636C27.7386 99.3693 28.4886 98.0739 29.75 98.0739C31.0114 98.0739 31.7614 99.3693 31.7614 101.636C31.7614 103.908 31.0199 105.182 29.75 105.182ZM37.25 106.119C39.1761 106.119 40.2841 104.487 40.2841 101.636C40.2841 98.8068 39.1591 97.1534 37.25 97.1534C35.3409 97.1534 34.2159 98.8068 34.2159 101.636C34.2159 104.487 35.3239 106.119 37.25 106.119ZM37.25 105.182C35.9801 105.182 35.2386 103.908 35.2386 101.636C35.2386 99.3693 35.9886 98.0739 37.25 98.0739C38.5114 98.0739 39.2614 99.3693 39.2614 101.636C39.2614 103.908 38.5199 105.182 37.25 105.182Z"/>
</mask>
<path d="M18.9996 104.21H23.1076V106H24.1133V104.21H25.3065V103.273H24.1133V97.2727H22.8349L18.9996 103.341V104.21ZM23.1076 103.273H20.1417V103.205L23.0394 98.6193H23.1076V103.273ZM29.75 106.119C31.6761 106.119 32.7841 104.487 32.7841 101.636C32.7841 98.8068 31.6591 97.1534 29.75 97.1534C27.8409 97.1534 26.7159 98.8068 26.7159 101.636C26.7159 104.487 27.8239 106.119 29.75 106.119ZM29.75 105.182C28.4801 105.182 27.7386 103.908 27.7386 101.636C27.7386 99.3693 28.4886 98.0739 29.75 98.0739C31.0114 98.0739 31.7614 99.3693 31.7614 101.636C31.7614 103.908 31.0199 105.182 29.75 105.182ZM37.25 106.119C39.1761 106.119 40.2841 104.487 40.2841 101.636C40.2841 98.8068 39.1591 97.1534 37.25 97.1534C35.3409 97.1534 34.2159 98.8068 34.2159 101.636C34.2159 104.487 35.3239 106.119 37.25 106.119ZM37.25 105.182C35.9801 105.182 35.2386 103.908 35.2386 101.636C35.2386 99.3693 35.9886 98.0739 37.25 98.0739C38.5114 98.0739 39.2614 99.3693 39.2614 101.636C39.2614 103.908 38.5199 105.182 37.25 105.182Z" fill="#718EBF"/>
<path d="M18.9996 104.21H17.9996V105.21H18.9996V104.21ZM23.1076 104.21H24.1076V103.21H23.1076V104.21ZM23.1076 106H22.1076V107H23.1076V106ZM24.1133 106V107H25.1133V106H24.1133ZM24.1133 104.21V103.21H23.1133V104.21H24.1133ZM25.3065 104.21V105.21H26.3065V104.21H25.3065ZM25.3065 103.273H26.3065V102.273H25.3065V103.273ZM24.1133 103.273H23.1133V104.273H24.1133V103.273ZM24.1133 97.2727H25.1133V96.2727H24.1133V97.2727ZM22.8349 97.2727V96.2727H22.2839L21.9896 96.7385L22.8349 97.2727ZM18.9996 103.341L18.1543 102.807L17.9996 103.051V103.341H18.9996ZM23.1076 103.273V104.273H24.1076V103.273H23.1076ZM20.1417 103.273H19.1417V104.273H20.1417V103.273ZM20.1417 103.205L19.2964 102.67L19.1417 102.915V103.205H20.1417ZM23.0394 98.6193V97.6193H22.4884L22.1941 98.0851L23.0394 98.6193ZM23.1076 98.6193H24.1076V97.6193H23.1076V98.6193ZM18.9996 105.21H23.1076V103.21H18.9996V105.21ZM22.1076 104.21V106H24.1076V104.21H22.1076ZM23.1076 107H24.1133V105H23.1076V107ZM25.1133 106V104.21H23.1133V106H25.1133ZM24.1133 105.21H25.3065V103.21H24.1133V105.21ZM26.3065 104.21V103.273H24.3065V104.21H26.3065ZM25.3065 102.273H24.1133V104.273H25.3065V102.273ZM25.1133 103.273V97.2727H23.1133V103.273H25.1133ZM24.1133 96.2727H22.8349V98.2727H24.1133V96.2727ZM21.9896 96.7385L18.1543 102.807L19.845 103.875L23.6802 97.807L21.9896 96.7385ZM17.9996 103.341V104.21H19.9996V103.341H17.9996ZM23.1076 102.273H20.1417V104.273H23.1076V102.273ZM21.1417 103.273V103.205H19.1417V103.273H21.1417ZM20.987 103.739L23.8848 99.1535L22.1941 98.0851L19.2964 102.67L20.987 103.739ZM23.0394 99.6193H23.1076V97.6193H23.0394V99.6193ZM22.1076 98.6193V103.273H24.1076V98.6193H22.1076ZM29.75 107.119C31.0409 107.119 32.1113 106.55 32.8173 105.508C33.4897 104.515 33.7841 103.169 33.7841 101.636H31.7841C31.7841 102.954 31.5245 103.85 31.1614 104.386C30.8319 104.873 30.3852 105.119 29.75 105.119V107.119ZM33.7841 101.636C33.7841 100.11 33.4838 98.7658 32.8107 97.7728C32.1064 96.7336 31.0391 96.1534 29.75 96.1534V98.1534C30.37 98.1534 30.8197 98.3999 31.1552 98.8949C31.5219 99.4359 31.7841 100.333 31.7841 101.636H33.7841ZM29.75 96.1534C28.4609 96.1534 27.3936 96.7336 26.6893 97.7728C26.0162 98.7658 25.7159 100.11 25.7159 101.636H27.7159C27.7159 100.333 27.9781 99.4359 28.3448 98.8949C28.6803 98.3999 29.13 98.1534 29.75 98.1534V96.1534ZM25.7159 101.636C25.7159 103.169 26.0103 104.515 26.6827 105.508C27.3887 106.55 28.4591 107.119 29.75 107.119V105.119C29.1148 105.119 28.6681 104.873 28.3386 104.386C27.9755 103.85 27.7159 102.954 27.7159 101.636H25.7159ZM29.75 104.182C29.5224 104.182 29.3279 104.1 29.1364 103.765C28.9143 103.376 28.7386 102.688 28.7386 101.636H26.7386C26.7386 102.856 26.9337 103.941 27.3998 104.757C27.8965 105.626 28.7077 106.182 29.75 106.182V104.182ZM28.7386 101.636C28.7386 100.589 28.9156 99.8951 29.1407 99.4991C29.3377 99.1525 29.5351 99.0739 29.75 99.0739V97.0739C28.7035 97.0739 27.8953 97.6429 27.4019 98.5108C26.9367 99.3294 26.7386 100.416 26.7386 101.636H28.7386ZM29.75 99.0739C29.9649 99.0739 30.1623 99.1525 30.3593 99.4991C30.5844 99.8951 30.7614 100.589 30.7614 101.636H32.7614C32.7614 100.416 32.5633 99.3294 32.0981 98.5108C31.6047 97.6429 30.7965 97.0739 29.75 97.0739V99.0739ZM30.7614 101.636C30.7614 102.688 30.5857 103.376 30.3636 103.765C30.1721 104.1 29.9776 104.182 29.75 104.182V106.182C30.7923 106.182 31.6035 105.626 32.1002 104.757C32.5663 103.941 32.7614 102.856 32.7614 101.636H30.7614ZM37.25 107.119C38.5409 107.119 39.6113 106.55 40.3173 105.508C40.9897 104.515 41.2841 103.169 41.2841 101.636H39.2841C39.2841 102.954 39.0245 103.85 38.6614 104.386C38.3319 104.873 37.8852 105.119 37.25 105.119V107.119ZM41.2841 101.636C41.2841 100.11 40.9838 98.7658 40.3107 97.7728C39.6064 96.7336 38.5391 96.1534 37.25 96.1534V98.1534C37.87 98.1534 38.3197 98.3999 38.6552 98.8949C39.0219 99.4359 39.2841 100.333 39.2841 101.636H41.2841ZM37.25 96.1534C35.9609 96.1534 34.8936 96.7336 34.1893 97.7728C33.5162 98.7658 33.2159 100.11 33.2159 101.636H35.2159C35.2159 100.333 35.4781 99.4359 35.8448 98.8949C36.1803 98.3999 36.63 98.1534 37.25 98.1534V96.1534ZM33.2159 101.636C33.2159 103.169 33.5103 104.515 34.1827 105.508C34.8887 106.55 35.9591 107.119 37.25 107.119V105.119C36.6148 105.119 36.1681 104.873 35.8386 104.386C35.4755 103.85 35.2159 102.954 35.2159 101.636H33.2159ZM37.25 104.182C37.0224 104.182 36.8279 104.1 36.6364 103.765C36.4143 103.376 36.2386 102.688 36.2386 101.636H34.2386C34.2386 102.856 34.4337 103.941 34.8998 104.757C35.3965 105.626 36.2077 106.182 37.25 106.182V104.182ZM36.2386 101.636C36.2386 100.589 36.4156 99.8951 36.6407 99.4991C36.8377 99.1525 37.0351 99.0739 37.25 99.0739V97.0739C36.2035 97.0739 35.3953 97.6429 34.9019 98.5108C34.4367 99.3294 34.2386 100.416 34.2386 101.636H36.2386ZM37.25 99.0739C37.4649 99.0739 37.6623 99.1525 37.8593 99.4991C38.0844 99.8951 38.2614 100.589 38.2614 101.636H40.2614C40.2614 100.416 40.0634 99.3294 39.5981 98.5108C39.1047 97.6429 38.2965 97.0739 37.25 97.0739V99.0739ZM38.2614 101.636C38.2614 102.688 38.0857 103.376 37.8636 103.765C37.6721 104.1 37.4776 104.182 37.25 104.182V106.182C38.2923 106.182 39.1035 105.626 39.6002 104.757C40.0663 103.941 40.2614 102.856 40.2614 101.636H38.2614Z" fill="#718EBF" mask="url(#path-30-inside-10_1_1155)"/>
<path d="M45.6504 61.1599H52.0001" stroke="#718EBF"/>
<mask id="path-33-inside-11_1_1155" fill="white">
<path d="M22.3129 66.1193C24.0771 66.1406 25.2276 64.8111 25.2276 63.1875C25.2276 61.5 23.979 60.2898 22.4833 60.2898C21.5842 60.2898 20.8129 60.7287 20.3356 61.4489H20.2674C20.2717 59.3224 21.0984 58.0909 22.4492 58.0909C23.3697 58.0909 23.9237 58.6705 24.1197 59.4545H25.1594C24.9464 58.0994 23.9151 57.1534 22.4492 57.1534C20.4847 57.1534 19.2788 58.892 19.2788 61.9773C19.2788 65.2031 20.881 66.1023 22.3129 66.1193ZM22.3129 65.1818C21.2177 65.1818 20.4165 64.2486 20.4208 63.2045C20.4251 62.1605 21.2646 61.2273 22.3469 61.2273C23.4165 61.2273 24.2049 62.1051 24.2049 63.1875C24.2049 64.2955 23.3825 65.1818 22.3129 65.1818ZM29.75 66.1193C31.6761 66.1193 32.7841 64.4872 32.7841 61.6364C32.7841 58.8068 31.6591 57.1534 29.75 57.1534C27.8409 57.1534 26.7159 58.8068 26.7159 61.6364C26.7159 64.4872 27.8239 66.1193 29.75 66.1193ZM29.75 65.1818C28.4801 65.1818 27.7386 63.9077 27.7386 61.6364C27.7386 59.3693 28.4886 58.0739 29.75 58.0739C31.0114 58.0739 31.7614 59.3693 31.7614 61.6364C31.7614 63.9077 31.0199 65.1818 29.75 65.1818ZM37.25 66.1193C39.1761 66.1193 40.2841 64.4872 40.2841 61.6364C40.2841 58.8068 39.1591 57.1534 37.25 57.1534C35.3409 57.1534 34.2159 58.8068 34.2159 61.6364C34.2159 64.4872 35.3239 66.1193 37.25 66.1193ZM37.25 65.1818C35.9801 65.1818 35.2386 63.9077 35.2386 61.6364C35.2386 59.3693 35.9886 58.0739 37.25 58.0739C38.5114 58.0739 39.2614 59.3693 39.2614 61.6364C39.2614 63.9077 38.5199 65.1818 37.25 65.1818Z"/>
</mask>
<path d="M22.3129 66.1193C24.0771 66.1406 25.2276 64.8111 25.2276 63.1875C25.2276 61.5 23.979 60.2898 22.4833 60.2898C21.5842 60.2898 20.8129 60.7287 20.3356 61.4489H20.2674C20.2717 59.3224 21.0984 58.0909 22.4492 58.0909C23.3697 58.0909 23.9237 58.6705 24.1197 59.4545H25.1594C24.9464 58.0994 23.9151 57.1534 22.4492 57.1534C20.4847 57.1534 19.2788 58.892 19.2788 61.9773C19.2788 65.2031 20.881 66.1023 22.3129 66.1193ZM22.3129 65.1818C21.2177 65.1818 20.4165 64.2486 20.4208 63.2045C20.4251 62.1605 21.2646 61.2273 22.3469 61.2273C23.4165 61.2273 24.2049 62.1051 24.2049 63.1875C24.2049 64.2955 23.3825 65.1818 22.3129 65.1818ZM29.75 66.1193C31.6761 66.1193 32.7841 64.4872 32.7841 61.6364C32.7841 58.8068 31.6591 57.1534 29.75 57.1534C27.8409 57.1534 26.7159 58.8068 26.7159 61.6364C26.7159 64.4872 27.8239 66.1193 29.75 66.1193ZM29.75 65.1818C28.4801 65.1818 27.7386 63.9077 27.7386 61.6364C27.7386 59.3693 28.4886 58.0739 29.75 58.0739C31.0114 58.0739 31.7614 59.3693 31.7614 61.6364C31.7614 63.9077 31.0199 65.1818 29.75 65.1818ZM37.25 66.1193C39.1761 66.1193 40.2841 64.4872 40.2841 61.6364C40.2841 58.8068 39.1591 57.1534 37.25 57.1534C35.3409 57.1534 34.2159 58.8068 34.2159 61.6364C34.2159 64.4872 35.3239 66.1193 37.25 66.1193ZM37.25 65.1818C35.9801 65.1818 35.2386 63.9077 35.2386 61.6364C35.2386 59.3693 35.9886 58.0739 37.25 58.0739C38.5114 58.0739 39.2614 59.3693 39.2614 61.6364C39.2614 63.9077 38.5199 65.1818 37.25 65.1818Z" fill="#718EBF"/>
<path d="M22.3129 66.1193L22.3249 65.1194L22.3248 65.1194L22.3129 66.1193ZM20.3356 61.4489V62.4489H20.8725L21.1691 62.0013L20.3356 61.4489ZM20.2674 61.4489L19.2674 61.4469L19.2654 62.4489H20.2674V61.4489ZM24.1197 59.4545L23.1495 59.6971L23.3389 60.4545H24.1197V59.4545ZM25.1594 59.4545V60.4545H26.329L26.1473 59.2992L25.1594 59.4545ZM20.4208 63.2045L19.4208 63.2005V63.2005L20.4208 63.2045ZM22.3008 67.1192C24.6772 67.1479 26.2276 65.3112 26.2276 63.1875H24.2276C24.2276 64.311 23.4769 65.1333 22.3249 65.1194L22.3008 67.1192ZM26.2276 63.1875C26.2276 60.9747 24.5579 59.2898 22.4833 59.2898V61.2898C23.4002 61.2898 24.2276 62.0253 24.2276 63.1875H26.2276ZM22.4833 59.2898C21.2367 59.2898 20.1577 59.9071 19.502 60.8964L21.1691 62.0013C21.468 61.5503 21.9317 61.2898 22.4833 61.2898V59.2898ZM20.3356 60.4489H20.2674V62.4489H20.3356V60.4489ZM21.2674 61.4509C21.2693 60.4963 21.4588 59.8729 21.6897 59.5207C21.891 59.2136 22.1288 59.0909 22.4492 59.0909V57.0909C21.4187 57.0909 20.5678 57.584 20.017 58.4242C19.4958 59.2194 19.2698 60.275 19.2674 61.4469L21.2674 61.4509ZM22.4492 59.0909C22.6857 59.0909 22.8156 59.1596 22.8982 59.2318C22.992 59.3137 23.0902 59.4597 23.1495 59.6971L25.0898 59.212C24.9531 58.6653 24.6764 58.1295 24.214 57.7256C23.7405 57.3119 23.1332 57.0909 22.4492 57.0909V59.0909ZM24.1197 60.4545H25.1594V58.4545H24.1197V60.4545ZM26.1473 59.2992C25.8598 57.4706 24.4203 56.1534 22.4492 56.1534V58.1534C23.4099 58.1534 24.033 58.7283 24.1716 59.6099L26.1473 59.2992ZM22.4492 56.1534C21.124 56.1534 20.023 56.7624 19.2953 57.8536C18.5984 58.8987 18.2788 60.3252 18.2788 61.9773H20.2788C20.2788 60.5441 20.5621 59.5587 20.9593 58.9632C21.3257 58.4138 21.8099 58.1534 22.4492 58.1534V56.1534ZM18.2788 61.9773C18.2788 63.7461 18.7187 65.0542 19.5228 65.9285C20.3333 66.8097 21.3826 67.1083 22.301 67.1192L22.3248 65.1194C21.8113 65.1133 21.3436 64.9538 20.9949 64.5747C20.64 64.1887 20.2788 63.4343 20.2788 61.9773H18.2788ZM22.3129 64.1818C21.8397 64.1818 21.4185 63.7694 21.4208 63.2086L19.4208 63.2005C19.4146 64.7277 20.5957 66.1818 22.3129 66.1818V64.1818ZM21.4208 63.2086C21.423 62.6627 21.8664 62.2273 22.3469 62.2273V60.2273C20.6627 60.2273 19.4271 61.6583 19.4208 63.2005L21.4208 63.2086ZM22.3469 62.2273C22.7995 62.2273 23.2049 62.5904 23.2049 63.1875H25.2049C25.2049 61.6199 24.0336 60.2273 22.3469 60.2273V62.2273ZM23.2049 63.1875C23.2049 63.8 22.775 64.1818 22.3129 64.1818V66.1818C23.9899 66.1818 25.2049 64.7909 25.2049 63.1875H23.2049ZM29.75 67.1193C31.0409 67.1193 32.1113 66.55 32.8173 65.5077C33.4897 64.515 33.7841 63.1693 33.7841 61.6364H31.7841C31.7841 62.9543 31.5245 63.8501 31.1614 64.3861C30.8319 64.8726 30.3852 65.1193 29.75 65.1193V67.1193ZM33.7841 61.6364C33.7841 60.1098 33.4838 58.7658 32.8107 57.7728C32.1064 56.7336 31.0391 56.1534 29.75 56.1534V58.1534C30.37 58.1534 30.8197 58.3999 31.1552 58.8949C31.5219 59.4359 31.7841 60.3334 31.7841 61.6364H33.7841ZM29.75 56.1534C28.4609 56.1534 27.3936 56.7336 26.6893 57.7728C26.0162 58.7658 25.7159 60.1098 25.7159 61.6364H27.7159C27.7159 60.3334 27.9781 59.4359 28.3448 58.8949C28.6803 58.3999 29.13 58.1534 29.75 58.1534V56.1534ZM25.7159 61.6364C25.7159 63.1693 26.0103 64.515 26.6827 65.5077C27.3887 66.55 28.4591 67.1193 29.75 67.1193V65.1193C29.1148 65.1193 28.6681 64.8726 28.3386 64.3861C27.9755 63.8501 27.7159 62.9543 27.7159 61.6364H25.7159ZM29.75 64.1818C29.5224 64.1818 29.3279 64.1001 29.1364 63.7649C28.9143 63.3759 28.7386 62.6878 28.7386 61.6364H26.7386C26.7386 62.8562 26.9337 63.9409 27.3998 64.7568C27.8965 65.6264 28.7077 66.1818 29.75 66.1818V64.1818ZM28.7386 61.6364C28.7386 60.5895 28.9156 59.8951 29.1407 59.4991C29.3377 59.1525 29.5351 59.0739 29.75 59.0739V57.0739C28.7035 57.0739 27.8953 57.6429 27.4019 58.5108C26.9367 59.3294 26.7386 60.4162 26.7386 61.6364H28.7386ZM29.75 59.0739C29.9649 59.0739 30.1623 59.1525 30.3593 59.4991C30.5844 59.8951 30.7614 60.5895 30.7614 61.6364H32.7614C32.7614 60.4162 32.5633 59.3294 32.0981 58.5108C31.6047 57.6429 30.7965 57.0739 29.75 57.0739V59.0739ZM30.7614 61.6364C30.7614 62.6878 30.5857 63.3759 30.3636 63.7649C30.1721 64.1001 29.9776 64.1818 29.75 64.1818V66.1818C30.7923 66.1818 31.6035 65.6264 32.1002 64.7568C32.5663 63.9409 32.7614 62.8562 32.7614 61.6364H30.7614ZM37.25 67.1193C38.5409 67.1193 39.6113 66.55 40.3173 65.5077C40.9897 64.515 41.2841 63.1693 41.2841 61.6364H39.2841C39.2841 62.9543 39.0245 63.8501 38.6614 64.3861C38.3319 64.8726 37.8852 65.1193 37.25 65.1193V67.1193ZM41.2841 61.6364C41.2841 60.1098 40.9838 58.7658 40.3107 57.7728C39.6064 56.7336 38.5391 56.1534 37.25 56.1534V58.1534C37.87 58.1534 38.3197 58.3999 38.6552 58.8949C39.0219 59.4359 39.2841 60.3334 39.2841 61.6364H41.2841ZM37.25 56.1534C35.9609 56.1534 34.8936 56.7336 34.1893 57.7728C33.5162 58.7658 33.2159 60.1098 33.2159 61.6364H35.2159C35.2159 60.3334 35.4781 59.4359 35.8448 58.8949C36.1803 58.3999 36.63 58.1534 37.25 58.1534V56.1534ZM33.2159 61.6364C33.2159 63.1693 33.5103 64.515 34.1827 65.5077C34.8887 66.55 35.9591 67.1193 37.25 67.1193V65.1193C36.6148 65.1193 36.1681 64.8726 35.8386 64.3861C35.4755 63.8501 35.2159 62.9543 35.2159 61.6364H33.2159ZM37.25 64.1818C37.0224 64.1818 36.8279 64.1001 36.6364 63.7649C36.4143 63.3759 36.2386 62.6878 36.2386 61.6364H34.2386C34.2386 62.8562 34.4337 63.9409 34.8998 64.7568C35.3965 65.6264 36.2077 66.1818 37.25 66.1818V64.1818ZM36.2386 61.6364C36.2386 60.5895 36.4156 59.8951 36.6407 59.4991C36.8377 59.1525 37.0351 59.0739 37.25 59.0739V57.0739C36.2035 57.0739 35.3953 57.6429 34.9019 58.5108C34.4367 59.3294 34.2386 60.4162 34.2386 61.6364H36.2386ZM37.25 59.0739C37.4649 59.0739 37.6623 59.1525 37.8593 59.4991C38.0844 59.8951 38.2614 60.5895 38.2614 61.6364H40.2614C40.2614 60.4162 40.0634 59.3294 39.5981 58.5108C39.1047 57.6429 38.2965 57.0739 37.25 57.0739V59.0739ZM38.2614 61.6364C38.2614 62.6878 38.0857 63.3759 37.8636 63.7649C37.6721 64.1001 37.4776 64.1818 37.25 64.1818V66.1818C38.2923 66.1818 39.1035 65.6264 39.6002 64.7568C40.0663 63.9409 40.2614 62.8562 40.2614 61.6364H38.2614Z" fill="#718EBF" mask="url(#path-33-inside-11_1_1155)"/>
<path d="M45.6504 21.1599H52.0001" stroke="#718EBF"/>
<mask id="path-36-inside-12_1_1155" fill="white">
<path d="M22.3043 26.1193C24.0472 26.1193 25.2617 25.1009 25.2702 23.6818C25.2617 22.5781 24.5245 21.6406 23.5827 21.4659V21.4148C24.4009 21.2017 24.9379 20.4006 24.9464 19.4716C24.9379 18.142 23.8214 17.1534 22.3043 17.1534C20.7702 17.1534 19.6538 18.142 19.6623 19.4716C19.6538 20.4006 20.1907 21.2017 21.0259 21.4148V21.4659C20.0671 21.6406 19.3299 22.5781 19.3384 23.6818C19.3299 25.1009 20.5444 26.1193 22.3043 26.1193ZM22.3043 25.1818C21.1069 25.1818 20.3697 24.5682 20.3782 23.6307C20.3697 22.6463 21.1836 21.9432 22.3043 21.9432C23.408 21.9432 24.2219 22.6463 24.2305 23.6307C24.2219 24.5682 23.4847 25.1818 22.3043 25.1818ZM22.3043 21.0398C21.3498 21.0398 20.6765 20.4432 20.685 19.5398C20.6765 18.6534 21.3242 18.0739 22.3043 18.0739C23.2674 18.0739 23.9151 18.6534 23.9237 19.5398C23.9151 20.4432 23.2418 21.0398 22.3043 21.0398ZM29.75 26.1193C31.6761 26.1193 32.7841 24.4872 32.7841 21.6364C32.7841 18.8068 31.6591 17.1534 29.75 17.1534C27.8409 17.1534 26.7159 18.8068 26.7159 21.6364C26.7159 24.4872 27.8239 26.1193 29.75 26.1193ZM29.75 25.1818C28.4801 25.1818 27.7386 23.9077 27.7386 21.6364C27.7386 19.3693 28.4886 18.0739 29.75 18.0739C31.0114 18.0739 31.7614 19.3693 31.7614 21.6364C31.7614 23.9077 31.0199 25.1818 29.75 25.1818ZM37.25 26.1193C39.1761 26.1193 40.2841 24.4872 40.2841 21.6364C40.2841 18.8068 39.1591 17.1534 37.25 17.1534C35.3409 17.1534 34.2159 18.8068 34.2159 21.6364C34.2159 24.4872 35.3239 26.1193 37.25 26.1193ZM37.25 25.1818C35.9801 25.1818 35.2386 23.9077 35.2386 21.6364C35.2386 19.3693 35.9886 18.0739 37.25 18.0739C38.5114 18.0739 39.2614 19.3693 39.2614 21.6364C39.2614 23.9077 38.5199 25.1818 37.25 25.1818Z"/>
</mask>
<path d="M22.3043 26.1193C24.0472 26.1193 25.2617 25.1009 25.2702 23.6818C25.2617 22.5781 24.5245 21.6406 23.5827 21.4659V21.4148C24.4009 21.2017 24.9379 20.4006 24.9464 19.4716C24.9379 18.142 23.8214 17.1534 22.3043 17.1534C20.7702 17.1534 19.6538 18.142 19.6623 19.4716C19.6538 20.4006 20.1907 21.2017 21.0259 21.4148V21.4659C20.0671 21.6406 19.3299 22.5781 19.3384 23.6818C19.3299 25.1009 20.5444 26.1193 22.3043 26.1193ZM22.3043 25.1818C21.1069 25.1818 20.3697 24.5682 20.3782 23.6307C20.3697 22.6463 21.1836 21.9432 22.3043 21.9432C23.408 21.9432 24.2219 22.6463 24.2305 23.6307C24.2219 24.5682 23.4847 25.1818 22.3043 25.1818ZM22.3043 21.0398C21.3498 21.0398 20.6765 20.4432 20.685 19.5398C20.6765 18.6534 21.3242 18.0739 22.3043 18.0739C23.2674 18.0739 23.9151 18.6534 23.9237 19.5398C23.9151 20.4432 23.2418 21.0398 22.3043 21.0398ZM29.75 26.1193C31.6761 26.1193 32.7841 24.4872 32.7841 21.6364C32.7841 18.8068 31.6591 17.1534 29.75 17.1534C27.8409 17.1534 26.7159 18.8068 26.7159 21.6364C26.7159 24.4872 27.8239 26.1193 29.75 26.1193ZM29.75 25.1818C28.4801 25.1818 27.7386 23.9077 27.7386 21.6364C27.7386 19.3693 28.4886 18.0739 29.75 18.0739C31.0114 18.0739 31.7614 19.3693 31.7614 21.6364C31.7614 23.9077 31.0199 25.1818 29.75 25.1818ZM37.25 26.1193C39.1761 26.1193 40.2841 24.4872 40.2841 21.6364C40.2841 18.8068 39.1591 17.1534 37.25 17.1534C35.3409 17.1534 34.2159 18.8068 34.2159 21.6364C34.2159 24.4872 35.3239 26.1193 37.25 26.1193ZM37.25 25.1818C35.9801 25.1818 35.2386 23.9077 35.2386 21.6364C35.2386 19.3693 35.9886 18.0739 37.25 18.0739C38.5114 18.0739 39.2614 19.3693 39.2614 21.6364C39.2614 23.9077 38.5199 25.1818 37.25 25.1818Z" fill="#718EBF"/>
<path d="M25.2702 23.6818L26.2703 23.6878L26.2702 23.6741L25.2702 23.6818ZM23.5827 21.4659H22.5827V22.2975L23.4003 22.4491L23.5827 21.4659ZM23.5827 21.4148L23.3307 20.447L22.5827 20.6418V21.4148H23.5827ZM24.9464 19.4716L25.9463 19.4808L25.9464 19.473L25.9464 19.4652L24.9464 19.4716ZM19.6623 19.4716L20.6622 19.4808L20.6623 19.473L20.6623 19.4652L19.6623 19.4716ZM21.0259 21.4148H22.0259V20.6378L21.2731 20.4458L21.0259 21.4148ZM21.0259 21.4659L21.2052 22.4497L22.0259 22.3002V21.4659H21.0259ZM19.3384 23.6818L20.3385 23.6878L20.3384 23.6741L19.3384 23.6818ZM20.3782 23.6307L21.3782 23.6398L21.3782 23.6309L21.3782 23.622L20.3782 23.6307ZM24.2305 23.6307L25.2304 23.6398L25.2305 23.6309L25.2304 23.622L24.2305 23.6307ZM20.685 19.5398L21.685 19.5492L21.6851 19.5397L21.685 19.5302L20.685 19.5398ZM23.9237 19.5398L24.9236 19.5492L24.9237 19.5397L24.9236 19.5302L23.9237 19.5398ZM22.3043 27.1193C24.4173 27.1193 26.2574 25.8208 26.2702 23.6878L24.2703 23.6758C24.266 24.3809 23.6771 25.1193 22.3043 25.1193V27.1193ZM26.2702 23.6741C26.2586 22.1659 25.2475 20.7577 23.7651 20.4827L23.4003 22.4491C23.8015 22.5236 24.2649 22.9904 24.2703 23.6895L26.2702 23.6741ZM24.5827 21.4659V21.4148H22.5827V21.4659H24.5827ZM23.8348 22.3825C25.1791 22.0324 25.9346 20.7625 25.9463 19.4808L23.9464 19.4624C23.9411 20.0386 23.6227 20.371 23.3307 20.447L23.8348 22.3825ZM25.9464 19.4652C25.9336 17.4754 24.2538 16.1534 22.3043 16.1534V18.1534C23.389 18.1534 23.9421 18.8087 23.9464 19.478L25.9464 19.4652ZM22.3043 16.1534C20.3464 16.1534 18.6494 17.4712 18.6623 19.478L20.6623 19.4652C20.6581 18.8129 21.1941 18.1534 22.3043 18.1534V16.1534ZM18.6623 19.4624C18.6504 20.7641 19.4175 22.0365 20.7787 22.3837L21.2731 20.4458C20.9639 20.3669 20.6571 20.037 20.6622 19.4808L18.6623 19.4624ZM20.0259 21.4148V21.4659H22.0259V21.4148H20.0259ZM20.8467 20.4821C19.3494 20.7549 18.3267 22.1637 18.3385 23.6895L20.3384 23.6741C20.3331 22.9926 20.7848 22.5263 21.2052 22.4497L20.8467 20.4821ZM18.3384 23.6758C18.3323 24.6951 18.7745 25.5863 19.521 26.2034C20.2548 26.81 21.2369 27.1193 22.3043 27.1193V25.1193C21.6119 25.1193 21.1067 24.9194 20.7954 24.662C20.4968 24.4151 20.336 24.0875 20.3384 23.6878L18.3384 23.6758ZM22.3043 24.1818C21.866 24.1818 21.6271 24.0691 21.5198 23.9818C21.4349 23.9129 21.3765 23.8201 21.3782 23.6398L19.3782 23.6216C19.3714 24.3788 19.6773 25.0616 20.2583 25.5338C20.8168 25.9877 21.5453 26.1818 22.3043 26.1818V24.1818ZM21.3782 23.622C21.3756 23.3252 21.5975 22.9432 22.3043 22.9432V20.9432C20.7697 20.9432 19.3638 21.9674 19.3782 23.6393L21.3782 23.622ZM22.3043 22.9432C22.9824 22.9432 23.2277 23.3195 23.2305 23.6393L25.2304 23.622C25.2162 21.9731 23.8336 20.9432 22.3043 20.9432V22.9432ZM23.2305 23.6216C23.2288 23.808 23.1661 23.9087 23.0761 23.9818C22.9663 24.071 22.7302 24.1818 22.3043 24.1818V26.1818C23.0589 26.1818 23.7815 25.9858 24.3376 25.5338C24.9134 25.0658 25.2236 24.3909 25.2304 23.6398L23.2305 23.6216ZM22.3043 20.0398C22.0336 20.0398 21.8811 19.9571 21.8084 19.8906C21.7449 19.8325 21.6832 19.7358 21.685 19.5492L19.6851 19.5303C19.6783 20.2472 19.949 20.9004 20.4587 21.3665C20.9591 21.8242 21.6205 22.0398 22.3043 22.0398V20.0398ZM21.685 19.5302C21.6832 19.3473 21.7417 19.2639 21.7938 19.2169C21.857 19.1599 22.0079 19.0739 22.3043 19.0739V17.0739C21.6207 17.0739 20.9576 17.2776 20.454 17.732C19.9394 18.1963 19.6783 18.8459 19.6851 19.5494L21.685 19.5302ZM22.3043 19.0739C22.5871 19.0739 22.7356 19.157 22.8021 19.2169C22.8597 19.2689 22.9219 19.3606 22.9237 19.5494L24.9236 19.5302C24.9169 18.8326 24.6509 18.1913 24.1418 17.732C23.6415 17.2805 22.9846 17.0739 22.3043 17.0739V19.0739ZM22.9237 19.5303C22.9219 19.7227 22.8563 19.8276 22.7875 19.8906C22.7115 19.9601 22.5612 20.0398 22.3043 20.0398V22.0398C22.9849 22.0398 23.6401 21.8211 24.1372 21.3665C24.6415 20.9053 24.9169 20.2602 24.9236 19.5492L22.9237 19.5303ZM29.75 27.1193C31.0409 27.1193 32.1113 26.55 32.8173 25.5077C33.4897 24.515 33.7841 23.1693 33.7841 21.6364H31.7841C31.7841 22.9543 31.5245 23.8501 31.1614 24.3861C30.8319 24.8726 30.3852 25.1193 29.75 25.1193V27.1193ZM33.7841 21.6364C33.7841 20.1098 33.4838 18.7658 32.8107 17.7728C32.1064 16.7336 31.0391 16.1534 29.75 16.1534V18.1534C30.37 18.1534 30.8197 18.3999 31.1552 18.8949C31.5219 19.4359 31.7841 20.3334 31.7841 21.6364H33.7841ZM29.75 16.1534C28.4609 16.1534 27.3936 16.7336 26.6893 17.7728C26.0162 18.7658 25.7159 20.1098 25.7159 21.6364H27.7159C27.7159 20.3334 27.9781 19.4359 28.3448 18.8949C28.6803 18.3999 29.13 18.1534 29.75 18.1534V16.1534ZM25.7159 21.6364C25.7159 23.1693 26.0103 24.515 26.6827 25.5077C27.3887 26.55 28.4591 27.1193 29.75 27.1193V25.1193C29.1148 25.1193 28.6681 24.8726 28.3386 24.3861C27.9755 23.8501 27.7159 22.9543 27.7159 21.6364H25.7159ZM29.75 24.1818C29.5224 24.1818 29.3279 24.1001 29.1364 23.7649C28.9143 23.3759 28.7386 22.6878 28.7386 21.6364H26.7386C26.7386 22.8562 26.9337 23.9409 27.3998 24.7568C27.8965 25.6264 28.7077 26.1818 29.75 26.1818V24.1818ZM28.7386 21.6364C28.7386 20.5895 28.9156 19.8951 29.1407 19.4991C29.3377 19.1525 29.5351 19.0739 29.75 19.0739V17.0739C28.7035 17.0739 27.8953 17.6429 27.4019 18.5108C26.9367 19.3294 26.7386 20.4162 26.7386 21.6364H28.7386ZM29.75 19.0739C29.9649 19.0739 30.1623 19.1525 30.3593 19.4991C30.5844 19.8951 30.7614 20.5895 30.7614 21.6364H32.7614C32.7614 20.4162 32.5633 19.3294 32.0981 18.5108C31.6047 17.6429 30.7965 17.0739 29.75 17.0739V19.0739ZM30.7614 21.6364C30.7614 22.6878 30.5857 23.3759 30.3636 23.7649C30.1721 24.1001 29.9776 24.1818 29.75 24.1818V26.1818C30.7923 26.1818 31.6035 25.6264 32.1002 24.7568C32.5663 23.9409 32.7614 22.8562 32.7614 21.6364H30.7614ZM37.25 27.1193C38.5409 27.1193 39.6113 26.55 40.3173 25.5077C40.9897 24.515 41.2841 23.1693 41.2841 21.6364H39.2841C39.2841 22.9543 39.0245 23.8501 38.6614 24.3861C38.3319 24.8726 37.8852 25.1193 37.25 25.1193V27.1193ZM41.2841 21.6364C41.2841 20.1098 40.9838 18.7658 40.3107 17.7728C39.6064 16.7336 38.5391 16.1534 37.25 16.1534V18.1534C37.87 18.1534 38.3197 18.3999 38.6552 18.8949C39.0219 19.4359 39.2841 20.3334 39.2841 21.6364H41.2841ZM37.25 16.1534C35.9609 16.1534 34.8936 16.7336 34.1893 17.7728C33.5162 18.7658 33.2159 20.1098 33.2159 21.6364H35.2159C35.2159 20.3334 35.4781 19.4359 35.8448 18.8949C36.1803 18.3999 36.63 18.1534 37.25 18.1534V16.1534ZM33.2159 21.6364C33.2159 23.1693 33.5103 24.515 34.1827 25.5077C34.8887 26.55 35.9591 27.1193 37.25 27.1193V25.1193C36.6148 25.1193 36.1681 24.8726 35.8386 24.3861C35.4755 23.8501 35.2159 22.9543 35.2159 21.6364H33.2159ZM37.25 24.1818C37.0224 24.1818 36.8279 24.1001 36.6364 23.7649C36.4143 23.3759 36.2386 22.6878 36.2386 21.6364H34.2386C34.2386 22.8562 34.4337 23.9409 34.8998 24.7568C35.3965 25.6264 36.2077 26.1818 37.25 26.1818V24.1818ZM36.2386 21.6364C36.2386 20.5895 36.4156 19.8951 36.6407 19.4991C36.8377 19.1525 37.0351 19.0739 37.25 19.0739V17.0739C36.2035 17.0739 35.3953 17.6429 34.9019 18.5108C34.4367 19.3294 34.2386 20.4162 34.2386 21.6364H36.2386ZM37.25 19.0739C37.4649 19.0739 37.6623 19.1525 37.8593 19.4991C38.0844 19.8951 38.2614 20.5895 38.2614 21.6364H40.2614C40.2614 20.4162 40.0634 19.3294 39.5981 18.5108C39.1047 17.6429 38.2965 17.0739 37.25 17.0739V19.0739ZM38.2614 21.6364C38.2614 22.6878 38.0857 23.3759 37.8636 23.7649C37.6721 24.1001 37.4776 24.1818 37.25 24.1818V26.1818C38.2923 26.1818 39.1035 25.6264 39.6002 24.7568C40.0663 23.9409 40.2614 22.8562 40.2614 21.6364H38.2614Z" fill="#718EBF" mask="url(#path-36-inside-12_1_1155)"/>
<path d="M52 181H307" stroke="#DFE5EE" stroke-dasharray="4 4"/>
<path d="M52 141H307" stroke="#DFE5EE" stroke-dasharray="4 4"/>
<path d="M52 101H307" stroke="#DFE5EE" stroke-dasharray="4 4"/>
<path d="M52 61.0002H307" stroke="#DFE5EE" stroke-dasharray="4 4"/>
<path d="M52 21H307" stroke="#DFE5EE" stroke-dasharray="4 4"/>
<path d="M52 21.0001V181" stroke="#DFE5EE" stroke-dasharray="4 4"/>
<path d="M88.4285 21V181" stroke="#DFE5EE" stroke-dasharray="4 4"/>
<path d="M124.857 21V181" stroke="#DFE5EE" stroke-dasharray="4 4"/>
<path d="M161.285 21V181" stroke="#DFE5EE" stroke-dasharray="4 4"/>
<path d="M197.714 21V181" stroke="#DFE5EE" stroke-dasharray="4 4"/>
<path d="M234.143 21V181" stroke="#DFE5EE" stroke-dasharray="4 4"/>
<path d="M270.571 21V181" stroke="#DFE5EE" stroke-dasharray="4 4"/>
<path d="M306.954 21V181" stroke="#EFF3F9"/>
<path d="M69.5785 122.112C60.9005 128.771 57.3403 150.134 52 163.729V182H307V69.6746C304.775 69.6746 296.319 56.7734 288.531 62.5997C280.743 68.4261 278.518 136.678 265.168 139.175C251.817 141.672 245.586 72.1717 229.343 74.6687C213.099 77.1656 217.105 141.458 201.974 143.753C186.843 146.047 174.16 30.5548 160.809 35.1326C147.458 39.7104 147.013 91.3154 139.448 99.2226C131.882 107.13 124.984 87.9861 117.196 91.7316C109.408 95.4771 106.293 136.678 98.2827 138.343C90.2723 140.007 78.2565 115.453 69.5785 122.112Z" fill="url(#paint0_linear_1_1155)" fill-opacity="0.5"/>
<path d="M52 163.729C57.3403 150.134 60.9005 128.771 69.5785 122.112C78.2565 115.453 90.2723 140.007 98.2827 138.343C106.293 136.678 109.408 95.4771 117.196 91.7316C124.984 87.9861 131.882 107.13 139.448 99.2226C147.013 91.3154 147.458 39.7104 160.809 35.1326C174.16 30.5548 186.843 146.047 201.974 143.753C217.105 141.458 213.099 77.1656 229.343 74.6687C245.586 72.1717 251.817 141.672 265.168 139.175C278.518 136.678 280.743 68.4261 288.531 62.5998C296.319 56.7734 304.775 69.6746 307 69.6746" stroke="#1814F3" stroke-width="3"/>
<defs>
<linearGradient id="paint0_linear_1_1155" x1="179.5" y1="35" x2="179.5" y2="182" gradientUnits="userSpaceOnUse">
<stop stop-color="#2D60FF" stop-opacity="0.5"/>
<stop offset="1" stop-color="#2D60FF" stop-opacity="0"/>
</linearGradient>
</defs>
</svg>
