<svg width="487" height="69" viewBox="0 0 487 69" fill="none" xmlns="http://www.w3.org/2000/svg">
<rect width="487" height="69" rx="15" fill="white"/>
<rect x="12" y="12" width="45" height="45" rx="15" fill="#E7EDFF"/>
<g clip-path="url(#clip0_1_2179)">
<path d="M42.6621 30.5103V30.2367C42.6621 28.9791 41.6389 27.9558 40.3812 27.9558H27.2809C26.0232 27.9558 25 28.9791 25 30.2367V30.5103H42.6621Z" fill="#396AFF"/>
<path d="M35.4347 37.8476C35.4347 36.6644 35.8152 35.5398 36.5178 34.613H25V37.7948C25 39.0525 26.0232 40.0757 27.2809 40.0757H35.9162C35.601 39.3852 35.4347 38.6292 35.4347 37.8476ZM33.8311 37.1562H31.8625V35.9844H33.8311V37.1562ZM27.6273 35.9844H30.6906V37.1562H27.6273V35.9844Z" fill="#396AFF"/>
<path d="M37.7344 33.441C38.6281 32.8157 39.6898 32.4788 40.8033 32.4788C41.4478 32.4788 42.0748 32.592 42.6621 32.8083V31.6821H25V33.441H37.7344Z" fill="#396AFF"/>
<path d="M44.9999 37.8476C44.9999 35.5298 43.1209 33.6509 40.8032 33.6509C38.4854 33.6509 36.6064 35.5298 36.6064 37.8476C36.6064 40.1653 38.4854 42.0442 40.8032 42.0442C43.1209 42.0442 44.9999 40.1653 44.9999 37.8476ZM41.3689 40.0896V40.5665H40.7829V40.5665V40.5665H40.197V40.0931C39.8427 39.9731 39.5529 39.7621 39.2698 39.5551L39.9616 38.6092C40.3419 38.8873 40.5365 39.021 40.8032 39.021C40.9539 39.021 41.076 38.9492 41.1218 38.8337C41.1772 38.6938 41.0989 38.565 40.9123 38.489C40.9123 38.489 40.0747 38.2097 39.6875 37.8149C39.3626 37.4837 39.2593 37.0169 39.3627 36.5729C39.4668 36.1258 39.7687 35.7763 40.197 35.6017V35.1286H41.3689V35.5821C41.6665 35.6647 41.9184 35.7869 42.0632 35.8655L41.5041 36.8954C41.1334 36.6942 40.7924 36.6338 40.6597 36.6792C40.5309 36.7232 40.5113 36.8072 40.5039 36.8388C40.4935 36.8836 40.4879 36.9524 40.5596 37.0322C40.6285 37.109 41.3541 37.4037 41.3541 37.4037C42.137 37.7224 42.5054 38.5228 42.2112 39.2654C42.0584 39.6513 41.7507 39.9437 41.3689 40.0896Z" fill="#396AFF"/>
</g>
<path d="M77.2074 24.1108C76.9091 22.2443 75.4474 21.1534 73.6023 21.1534C71.3438 21.1534 69.6776 22.8452 69.6776 25.6364C69.6776 28.4276 71.3352 30.1193 73.6023 30.1193C75.5199 30.1193 76.9219 28.9176 77.2074 27.1918L75.8778 27.1875C75.652 28.304 74.7145 28.9176 73.6108 28.9176C72.1151 28.9176 70.9858 27.7713 70.9858 25.6364C70.9858 23.5185 72.1108 22.3551 73.6151 22.3551C74.7273 22.3551 75.6605 22.9815 75.8778 24.1108H77.2074ZM80.5856 30.1449C81.668 30.1449 82.2773 29.5952 82.5202 29.1051H82.5714V30H83.8157V25.6534C83.8157 23.7486 82.3157 23.3693 81.2759 23.3693C80.0913 23.3693 79.0004 23.8466 78.5742 25.0398L79.7717 25.3125C79.9592 24.848 80.4364 24.4006 81.293 24.4006C82.1154 24.4006 82.5373 24.831 82.5373 25.5724V25.6023C82.5373 26.0668 82.06 26.0582 80.8839 26.1946C79.6438 26.3395 78.3739 26.6634 78.3739 28.1506C78.3739 29.4375 79.3413 30.1449 80.5856 30.1449ZM80.8626 29.1222C80.1424 29.1222 79.6225 28.7983 79.6225 28.1676C79.6225 27.4858 80.2276 27.2429 80.9648 27.1449C81.3782 27.0895 82.3583 26.9787 82.5415 26.7955V27.6392C82.5415 28.4148 81.9237 29.1222 80.8626 29.1222ZM85.5128 30H86.7869V26.0028C86.7869 25.1463 87.4474 24.5284 88.3509 24.5284C88.6151 24.5284 88.9134 24.5753 89.0156 24.6051V23.3864C88.8878 23.3693 88.6364 23.3565 88.4744 23.3565C87.7074 23.3565 87.0511 23.7912 86.8125 24.4943H86.7443V23.4545H85.5128V30ZM92.3342 30.1278C93.5273 30.1278 93.9961 29.3991 94.2262 28.9815H94.3327V30H95.5771V21.2727H94.3029V24.5156H94.2262C93.9961 24.1108 93.5614 23.3693 92.3427 23.3693C90.7617 23.3693 89.5984 24.6179 89.5984 26.7401C89.5984 28.858 90.7447 30.1278 92.3342 30.1278ZM92.6154 29.0412C91.4776 29.0412 90.8853 28.0398 90.8853 26.7273C90.8853 25.4276 91.4648 24.4517 92.6154 24.4517C93.7276 24.4517 94.3242 25.3594 94.3242 26.7273C94.3242 28.1037 93.7148 29.0412 92.6154 29.0412ZM100.243 22.4062H102.962V30H104.275V22.4062H106.998V21.2727H100.243V22.4062ZM108.443 32.4545C109.496 32.4545 110.161 31.9048 110.54 30.8736L113.246 23.4673L111.869 23.4545L110.212 28.5341H110.143L108.486 23.4545H107.122L109.517 30.0852L109.359 30.5199C109.036 31.3892 108.58 31.4616 107.881 31.2699L107.574 32.3139C107.727 32.3821 108.06 32.4545 108.443 32.4545ZM114.446 32.4545H115.721V28.9815H115.797C116.027 29.3991 116.496 30.1278 117.689 30.1278C119.275 30.1278 120.425 28.858 120.425 26.7401C120.425 24.6179 119.257 23.3693 117.676 23.3693C116.462 23.3693 116.023 24.1108 115.797 24.5156H115.691V23.4545H114.446V32.4545ZM115.695 26.7273C115.695 25.3594 116.292 24.4517 117.404 24.4517C118.559 24.4517 119.138 25.4276 119.138 26.7273C119.138 28.0398 118.542 29.0412 117.404 29.0412C116.309 29.0412 115.695 28.1037 115.695 26.7273ZM124.674 30.1321C126.101 30.1321 127.111 29.429 127.401 28.3636L126.195 28.1463C125.965 28.7642 125.411 29.0795 124.686 29.0795C123.596 29.0795 122.863 28.3722 122.828 27.1108H127.482V26.6591C127.482 24.294 126.067 23.3693 124.584 23.3693C122.76 23.3693 121.559 24.7585 121.559 26.7699C121.559 28.8026 122.743 30.1321 124.674 30.1321ZM122.833 26.1562C122.884 25.2273 123.557 24.4219 124.593 24.4219C125.581 24.4219 126.229 25.1548 126.233 26.1562H122.833Z" fill="#232323"/>
<path d="M74.8295 41.4545H75.8523C75.8054 40.1378 74.5909 39.1534 72.9034 39.1534C71.233 39.1534 69.9205 40.125 69.9205 41.5909C69.9205 42.767 70.7727 43.4659 72.1364 43.858L73.2102 44.1648C74.1307 44.4205 74.9489 44.7443 74.9489 45.6136C74.9489 46.5682 74.0284 47.1989 72.8182 47.1989C71.7784 47.1989 70.858 46.7386 70.7727 45.75H69.6818C69.7841 47.1818 70.9432 48.1534 72.8182 48.1534C74.8295 48.1534 75.9716 47.0455 75.9716 45.6307C75.9716 43.9943 74.4205 43.4659 73.517 43.2273L72.6307 42.9886C71.983 42.8182 70.9432 42.4773 70.9432 41.5398C70.9432 40.7045 71.7102 40.0909 72.8693 40.0909C73.9261 40.0909 74.7273 40.5938 74.8295 41.4545ZM80.3171 48.1364C81.6467 48.1364 82.6183 47.4716 82.9251 46.483L81.9535 46.2102C81.6978 46.892 81.1055 47.233 80.3171 47.233C79.1367 47.233 78.3228 46.4702 78.2759 45.0682H83.0273V44.642C83.0273 42.2045 81.5785 41.3693 80.2148 41.3693C78.4421 41.3693 77.266 42.767 77.266 44.7784C77.266 46.7898 78.4251 48.1364 80.3171 48.1364ZM78.2759 44.1989C78.3441 43.1804 79.0643 42.2727 80.2148 42.2727C81.3058 42.2727 82.0046 43.0909 82.0046 44.1989H78.2759ZM87.2163 48.1364C88.6651 48.1364 89.6197 47.25 89.7901 46.0909H88.7844C88.5969 46.8068 88.0004 47.233 87.2163 47.233C86.0231 47.233 85.256 46.2443 85.256 44.7273C85.256 43.2443 86.0401 42.2727 87.2163 42.2727C88.1026 42.2727 88.631 42.8182 88.7844 43.4148H89.7901C89.6197 42.1875 88.5799 41.3693 87.1992 41.3693C85.4265 41.3693 84.2504 42.767 84.2504 44.7614C84.2504 46.7216 85.3754 48.1364 87.2163 48.1364ZM93.9194 48.1364C95.6921 48.1364 96.8853 46.7898 96.8853 44.7614C96.8853 42.7159 95.6921 41.3693 93.9194 41.3693C92.1467 41.3693 90.9535 42.7159 90.9535 44.7614C90.9535 46.7898 92.1467 48.1364 93.9194 48.1364ZM93.9194 47.233C92.5728 47.233 91.9592 46.0739 91.9592 44.7614C91.9592 43.4489 92.5728 42.2727 93.9194 42.2727C95.266 42.2727 95.8796 43.4489 95.8796 44.7614C95.8796 46.0739 95.266 47.233 93.9194 47.233ZM99.4261 44.0625C99.4261 42.9205 100.134 42.2727 101.097 42.2727C102.03 42.2727 102.597 42.8821 102.597 43.9091V48H103.602V43.8409C103.602 42.1705 102.712 41.3693 101.386 41.3693C100.398 41.3693 99.7841 41.8125 99.4773 42.4773H99.392V41.4545H98.4205V48H99.4261V44.0625ZM107.912 48.1364C109.173 48.1364 109.599 47.3523 109.821 46.9943H109.94V48H110.912V39.2727H109.906V42.4943H109.821C109.599 42.1534 109.207 41.3693 107.929 41.3693C106.275 41.3693 105.133 42.6818 105.133 44.7443C105.133 46.8239 106.275 48.1364 107.912 48.1364ZM108.048 47.233C106.787 47.233 106.139 46.125 106.139 44.7273C106.139 43.3466 106.77 42.2727 108.048 42.2727C109.275 42.2727 109.923 43.2614 109.923 44.7273C109.923 46.2102 109.258 47.233 108.048 47.233ZM114.819 48.1534C115.961 48.1534 116.558 47.5398 116.762 47.1136H116.814V48H117.819V43.6875C117.819 41.608 116.234 41.3693 115.399 41.3693C114.41 41.3693 113.285 41.7102 112.774 42.9034L113.728 43.2443C113.95 42.767 114.474 42.2557 115.433 42.2557C116.358 42.2557 116.814 42.7457 116.814 43.5852V43.6193C116.814 44.1051 116.319 44.0625 115.126 44.2159C113.912 44.3736 112.586 44.642 112.586 46.142C112.586 47.4205 113.575 48.1534 114.819 48.1534ZM114.973 47.25C114.172 47.25 113.592 46.892 113.592 46.1932C113.592 45.4261 114.291 45.1875 115.075 45.0852C115.501 45.0341 116.643 44.9148 116.814 44.7102V45.6307C116.814 46.4489 116.166 47.25 114.973 47.25ZM119.655 48H120.661V43.858C120.661 42.9716 121.359 42.3239 122.314 42.3239C122.582 42.3239 122.859 42.375 122.928 42.392V41.3693C122.812 41.3608 122.548 41.3523 122.399 41.3523C121.615 41.3523 120.933 41.7955 120.695 42.4432H120.626V41.4545H119.655V48ZM124.967 50.4545C125.874 50.4545 126.513 49.973 126.893 48.9545L129.68 41.4716L128.58 41.4545L126.773 46.6705H126.705L124.898 41.4545H123.808L126.228 48.0341L126.04 48.5455C125.674 49.5426 125.222 49.6364 124.489 49.4489L124.234 50.3352C124.336 50.3864 124.626 50.4545 124.967 50.4545Z" fill="#718EBF"/>
<path d="M147.959 30H151.304C153.332 30 154.249 28.9901 154.249 27.652C154.249 26.3011 153.303 25.5384 152.438 25.4915V25.4062C153.239 25.2017 153.908 24.6562 153.908 23.5653C153.908 22.2741 153.013 21.2727 151.155 21.2727H147.959V30ZM149.276 28.8707V26.0753H151.223C152.28 26.0753 152.94 26.7571 152.94 27.5881C152.94 28.321 152.442 28.8707 151.176 28.8707H149.276ZM149.276 25.0483V22.3935H151.074C152.118 22.3935 152.616 22.9432 152.616 23.6676C152.616 24.5114 151.926 25.0483 151.04 25.0483H149.276ZM157.613 30.1449C158.695 30.1449 159.305 29.5952 159.548 29.1051H159.599V30H160.843V25.6534C160.843 23.7486 159.343 23.3693 158.303 23.3693C157.119 23.3693 156.028 23.8466 155.602 25.0398L156.799 25.3125C156.987 24.848 157.464 24.4006 158.32 24.4006C159.143 24.4006 159.565 24.831 159.565 25.5724V25.6023C159.565 26.0668 159.087 26.0582 157.911 26.1946C156.671 26.3395 155.401 26.6634 155.401 28.1506C155.401 29.4375 156.369 30.1449 157.613 30.1449ZM157.89 29.1222C157.17 29.1222 156.65 28.7983 156.65 28.1676C156.65 27.4858 157.255 27.2429 157.992 27.1449C158.406 27.0895 159.386 26.9787 159.569 26.7955V27.6392C159.569 28.4148 158.951 29.1222 157.89 29.1222ZM163.814 26.1136C163.814 25.0696 164.453 24.473 165.34 24.473C166.205 24.473 166.729 25.0398 166.729 25.9901V30H168.003V25.8366C168.003 24.2173 167.113 23.3693 165.775 23.3693C164.79 23.3693 164.147 23.8253 163.844 24.5199H163.763V23.4545H162.54V30H163.814V26.1136ZM169.712 30H170.986V27.6776L171.621 27.0426L173.846 30H175.409L172.58 26.2628L175.23 23.4545H173.705L171.097 26.2244H170.986V21.2727H169.712V30Z" fill="#232323"/>
<path d="M150.75 48C153.409 48 154.909 46.3466 154.909 43.6193C154.909 40.9091 153.409 39.2727 150.869 39.2727H148.057V48H150.75ZM149.114 47.0625V40.2102H150.801C152.847 40.2102 153.886 41.5057 153.886 43.6193C153.886 45.75 152.847 47.0625 150.682 47.0625H149.114ZM156.682 48H159.835C161.898 48 162.75 46.9943 162.75 45.6818C162.75 44.3011 161.795 43.5511 160.994 43.5V43.4148C161.744 43.2102 162.409 42.7159 162.409 41.5909C162.409 40.3125 161.557 39.2727 159.733 39.2727H156.682V48ZM157.739 47.0625V44.0284H159.886C161.028 44.0284 161.744 44.7955 161.744 45.6818C161.744 46.4489 161.216 47.0625 159.835 47.0625H157.739ZM157.739 43.108V40.2102H159.733C160.892 40.2102 161.403 40.8239 161.403 41.5909C161.403 42.5114 160.653 43.108 159.699 43.108H157.739ZM164.487 48H169.6V47.0625H165.543V39.2727H164.487V48ZM174.612 48H177.765C179.827 48 180.68 46.9943 180.68 45.6818C180.68 44.3011 179.725 43.5511 178.924 43.5V43.4148C179.674 43.2102 180.339 42.7159 180.339 41.5909C180.339 40.3125 179.487 39.2727 177.663 39.2727H174.612V48ZM175.668 47.0625V44.0284H177.816C178.958 44.0284 179.674 44.7955 179.674 45.6818C179.674 46.4489 179.146 47.0625 177.765 47.0625H175.668ZM175.668 43.108V40.2102H177.663C178.822 40.2102 179.333 40.8239 179.333 41.5909C179.333 42.5114 178.583 43.108 177.629 43.108H175.668ZM184.206 48.1534C185.348 48.1534 185.945 47.5398 186.149 47.1136H186.2V48H187.206V43.6875C187.206 41.608 185.621 41.3693 184.786 41.3693C183.797 41.3693 182.672 41.7102 182.161 42.9034L183.115 43.2443C183.337 42.767 183.861 42.2557 184.82 42.2557C185.744 42.2557 186.2 42.7457 186.2 43.5852V43.6193C186.2 44.1051 185.706 44.0625 184.513 44.2159C183.298 44.3736 181.973 44.642 181.973 46.142C181.973 47.4205 182.962 48.1534 184.206 48.1534ZM184.359 47.25C183.558 47.25 182.979 46.892 182.979 46.1932C182.979 45.4261 183.678 45.1875 184.462 45.0852C184.888 45.0341 186.03 44.9148 186.2 44.7102V45.6307C186.2 46.4489 185.553 47.25 184.359 47.25ZM190.047 44.0625C190.047 42.9205 190.755 42.2727 191.718 42.2727C192.651 42.2727 193.218 42.8821 193.218 43.9091V48H194.223V43.8409C194.223 42.1705 193.333 41.3693 192.007 41.3693C191.019 41.3693 190.405 41.8125 190.098 42.4773H190.013V41.4545H189.042V48H190.047V44.0625ZM196.061 48H197.067V45.5497L197.77 44.8977L200.22 48H201.499L198.528 44.25L201.294 41.4545H200.05L197.186 44.3693H197.067V39.2727H196.061V48Z" fill="#718EBF"/>
<path d="M327.003 21.2727H325.699V27.6818H325.618L321.178 21.2727H319.959V30H321.276V23.5994H321.357L325.793 30H327.003V21.2727ZM330.726 30.1449C331.809 30.1449 332.418 29.5952 332.661 29.1051H332.712V30H333.956V25.6534C333.956 23.7486 332.456 23.3693 331.417 23.3693C330.232 23.3693 329.141 23.8466 328.715 25.0398L329.912 25.3125C330.1 24.848 330.577 24.4006 331.434 24.4006C332.256 24.4006 332.678 24.831 332.678 25.5724V25.6023C332.678 26.0668 332.201 26.0582 331.025 26.1946C329.784 26.3395 328.515 26.6634 328.515 28.1506C328.515 29.4375 329.482 30.1449 330.726 30.1449ZM331.003 29.1222C330.283 29.1222 329.763 28.7983 329.763 28.1676C329.763 27.4858 330.368 27.2429 331.105 27.1449C331.519 27.0895 332.499 26.9787 332.682 26.7955V27.6392C332.682 28.4148 332.064 29.1222 331.003 29.1222ZM335.653 30H336.928V25.9645C336.928 25.0824 337.545 24.4688 338.27 24.4688C338.977 24.4688 339.467 24.9375 339.467 25.6491V30H340.737V25.8281C340.737 25.0398 341.219 24.4688 342.05 24.4688C342.723 24.4688 343.277 24.8438 343.277 25.7301V30H344.551V25.6108C344.551 24.1151 343.716 23.3693 342.531 23.3693C341.589 23.3693 340.882 23.821 340.567 24.5199H340.499C340.213 23.804 339.612 23.3693 338.739 23.3693C337.874 23.3693 337.23 23.7997 336.957 24.5199H336.876V23.4545H335.653V30ZM348.164 30.1449C349.246 30.1449 349.855 29.5952 350.098 29.1051H350.15V30H351.394V25.6534C351.394 23.7486 349.894 23.3693 348.854 23.3693C347.669 23.3693 346.578 23.8466 346.152 25.0398L347.35 25.3125C347.537 24.848 348.015 24.4006 348.871 24.4006C349.694 24.4006 350.115 24.831 350.115 25.5724V25.6023C350.115 26.0668 349.638 26.0582 348.462 26.1946C347.222 26.3395 345.952 26.6634 345.952 28.1506C345.952 29.4375 346.919 30.1449 348.164 30.1449ZM348.441 29.1222C347.721 29.1222 347.201 28.7983 347.201 28.1676C347.201 27.4858 347.806 27.2429 348.543 27.1449C348.956 27.0895 349.936 26.9787 350.12 26.7955V27.6392C350.12 28.4148 349.502 29.1222 348.441 29.1222ZM353.091 30H354.365V23.4545H353.091V30ZM353.734 22.4446C354.173 22.4446 354.54 22.1037 354.54 21.6861C354.54 21.2685 354.173 20.9233 353.734 20.9233C353.291 20.9233 352.929 21.2685 352.929 21.6861C352.929 22.1037 353.291 22.4446 353.734 22.4446ZM357.353 26.1136C357.353 25.0696 357.993 24.473 358.879 24.473C359.744 24.473 360.268 25.0398 360.268 25.9901V30H361.542V25.8366C361.542 24.2173 360.652 23.3693 359.314 23.3693C358.329 23.3693 357.686 23.8253 357.383 24.5199H357.302V23.4545H356.079V30H357.353V26.1136ZM373.778 24.1108C373.479 22.2443 372.018 21.1534 370.173 21.1534C367.914 21.1534 366.248 22.8452 366.248 25.6364C366.248 28.4276 367.906 30.1193 370.173 30.1193C372.09 30.1193 373.492 28.9176 373.778 27.1918L372.448 27.1875C372.222 28.304 371.285 28.9176 370.181 28.9176C368.685 28.9176 367.556 27.7713 367.556 25.6364C367.556 23.5185 368.681 22.3551 370.185 22.3551C371.298 22.3551 372.231 22.9815 372.448 24.1108H373.778ZM377.156 30.1449C378.238 30.1449 378.848 29.5952 379.091 29.1051H379.142V30H380.386V25.6534C380.386 23.7486 378.886 23.3693 377.846 23.3693C376.662 23.3693 375.571 23.8466 375.145 25.0398L376.342 25.3125C376.529 24.848 377.007 24.4006 377.863 24.4006C378.686 24.4006 379.108 24.831 379.108 25.5724V25.6023C379.108 26.0668 378.63 26.0582 377.454 26.1946C376.214 26.3395 374.944 26.6634 374.944 28.1506C374.944 29.4375 375.912 30.1449 377.156 30.1449ZM377.433 29.1222C376.713 29.1222 376.193 28.7983 376.193 28.1676C376.193 27.4858 376.798 27.2429 377.535 27.1449C377.949 27.0895 378.929 26.9787 379.112 26.7955V27.6392C379.112 28.4148 378.494 29.1222 377.433 29.1222ZM382.083 30H383.357V26.0028C383.357 25.1463 384.018 24.5284 384.921 24.5284C385.185 24.5284 385.484 24.5753 385.586 24.6051V23.3864C385.458 23.3693 385.207 23.3565 385.045 23.3565C384.278 23.3565 383.621 23.7912 383.383 24.4943H383.315V23.4545H382.083V30ZM388.904 30.1278C390.098 30.1278 390.566 29.3991 390.797 28.9815H390.903V30H392.147V21.2727H390.873V24.5156H390.797C390.566 24.1108 390.132 23.3693 388.913 23.3693C387.332 23.3693 386.169 24.6179 386.169 26.7401C386.169 28.858 387.315 30.1278 388.904 30.1278ZM389.186 29.0412C388.048 29.0412 387.456 28.0398 387.456 26.7273C387.456 25.4276 388.035 24.4517 389.186 24.4517C390.298 24.4517 390.895 25.3594 390.895 26.7273C390.895 28.1037 390.285 29.0412 389.186 29.0412Z" fill="#232323"/>
<path d="M321.642 48H322.733L324.659 41.0455H324.727L326.653 48H327.744L330.131 39.2727H329.057L327.233 46.3807H327.148L325.29 39.2727H324.097L322.239 46.3807H322.153L320.33 39.2727H319.256L321.642 48ZM331.311 48H332.317V41.4545H331.311V48ZM331.822 40.3636C332.214 40.3636 332.538 40.0568 332.538 39.6818C332.538 39.3068 332.214 39 331.822 39C331.43 39 331.107 39.3068 331.107 39.6818C331.107 40.0568 331.43 40.3636 331.822 40.3636ZM335.164 39.2727H334.159V48H335.164V39.2727ZM338.012 39.2727H337.006V48H338.012V39.2727ZM339.854 48H340.86V41.4545H339.854V48ZM340.365 40.3636C340.757 40.3636 341.081 40.0568 341.081 39.6818C341.081 39.3068 340.757 39 340.365 39C339.973 39 339.65 39.3068 339.65 39.6818C339.65 40.0568 339.973 40.3636 340.365 40.3636ZM344.628 48.1534C345.77 48.1534 346.366 47.5398 346.571 47.1136H346.622V48H347.628V43.6875C347.628 41.608 346.043 41.3693 345.207 41.3693C344.219 41.3693 343.094 41.7102 342.582 42.9034L343.537 43.2443C343.759 42.767 344.283 42.2557 345.241 42.2557C346.166 42.2557 346.622 42.7457 346.622 43.5852V43.6193C346.622 44.1051 346.128 44.0625 344.935 44.2159C343.72 44.3736 342.395 44.642 342.395 46.142C342.395 47.4205 343.384 48.1534 344.628 48.1534ZM344.781 47.25C343.98 47.25 343.401 46.892 343.401 46.1932C343.401 45.4261 344.099 45.1875 344.884 45.0852C345.31 45.0341 346.452 44.9148 346.622 44.7102V45.6307C346.622 46.4489 345.974 47.25 344.781 47.25ZM349.463 48H350.469V43.9091C350.469 42.9503 351.168 42.2727 351.952 42.2727C352.715 42.2727 353.248 42.7713 353.248 43.517V48H354.27V43.7386C354.27 42.8949 354.799 42.2727 355.719 42.2727C356.435 42.2727 357.049 42.652 357.049 43.6193V48H358.054V43.6193C358.054 42.081 357.228 41.3693 356.06 41.3693C355.123 41.3693 354.436 41.7997 354.1 42.4773H354.032C353.708 41.7784 353.137 41.3693 352.276 41.3693C351.424 41.3693 350.793 41.7784 350.52 42.4773H350.435V41.4545H349.463V48Z" fill="#718EBF"/>
<path d="M226.207 24.1108C225.909 22.2443 224.447 21.1534 222.602 21.1534C220.344 21.1534 218.678 22.8452 218.678 25.6364C218.678 28.4276 220.335 30.1193 222.602 30.1193C224.52 30.1193 225.922 28.9176 226.207 27.1918L224.878 27.1875C224.652 28.304 223.714 28.9176 222.611 28.9176C221.115 28.9176 219.986 27.7713 219.986 25.6364C219.986 23.5185 221.111 22.3551 222.615 22.3551C223.727 22.3551 224.661 22.9815 224.878 24.1108H226.207ZM229.586 30.1449C230.668 30.1449 231.277 29.5952 231.52 29.1051H231.571V30H232.816V25.6534C232.816 23.7486 231.316 23.3693 230.276 23.3693C229.091 23.3693 228 23.8466 227.574 25.0398L228.772 25.3125C228.959 24.848 229.436 24.4006 230.293 24.4006C231.115 24.4006 231.537 24.831 231.537 25.5724V25.6023C231.537 26.0668 231.06 26.0582 229.884 26.1946C228.644 26.3395 227.374 26.6634 227.374 28.1506C227.374 29.4375 228.341 30.1449 229.586 30.1449ZM229.863 29.1222C229.142 29.1222 228.623 28.7983 228.623 28.1676C228.623 27.4858 229.228 27.2429 229.965 27.1449C230.378 27.0895 231.358 26.9787 231.542 26.7955V27.6392C231.542 28.4148 230.924 29.1222 229.863 29.1222ZM234.513 30H235.787V26.0028C235.787 25.1463 236.447 24.5284 237.351 24.5284C237.615 24.5284 237.913 24.5753 238.016 24.6051V23.3864C237.888 23.3693 237.636 23.3565 237.474 23.3565C236.707 23.3565 236.051 23.7912 235.812 24.4943H235.744V23.4545H234.513V30ZM241.334 30.1278C242.527 30.1278 242.996 29.3991 243.226 28.9815H243.333V30H244.577V21.2727H243.303V24.5156H243.226C242.996 24.1108 242.561 23.3693 241.343 23.3693C239.762 23.3693 238.598 24.6179 238.598 26.7401C238.598 28.858 239.745 30.1278 241.334 30.1278ZM241.615 29.0412C240.478 29.0412 239.885 28.0398 239.885 26.7273C239.885 25.4276 240.465 24.4517 241.615 24.4517C242.728 24.4517 243.324 25.3594 243.324 26.7273C243.324 28.1037 242.715 29.0412 241.615 29.0412ZM256.718 21.2727H255.414V27.6818H255.333L250.892 21.2727H249.674V30H250.99V23.5994H251.071L255.507 30H256.718V21.2727ZM262.683 27.2855C262.687 28.3977 261.86 28.9261 261.144 28.9261C260.356 28.9261 259.81 28.3551 259.81 27.4645V23.4545H258.536V27.6179C258.536 29.2415 259.427 30.0852 260.684 30.0852C261.668 30.0852 262.337 29.5653 262.64 28.8665H262.708V30H263.961V23.4545H262.683V27.2855ZM265.673 30H266.947V25.9645C266.947 25.0824 267.565 24.4688 268.289 24.4688C268.997 24.4688 269.487 24.9375 269.487 25.6491V30H270.757V25.8281C270.757 25.0398 271.238 24.4688 272.069 24.4688C272.743 24.4688 273.297 24.8438 273.297 25.7301V30H274.571V25.6108C274.571 24.1151 273.735 23.3693 272.551 23.3693C271.609 23.3693 270.902 23.821 270.586 24.5199H270.518C270.233 23.804 269.632 23.3693 268.758 23.3693C267.893 23.3693 267.25 23.7997 266.977 24.5199H266.896V23.4545H265.673V30ZM276.381 30H277.625V28.9815H277.732C277.962 29.3991 278.43 30.1278 279.624 30.1278C281.209 30.1278 282.359 28.858 282.359 26.7401C282.359 24.6179 281.192 23.3693 279.611 23.3693C278.396 23.3693 277.957 24.1108 277.732 24.5156H277.655V21.2727H276.381V30ZM277.629 26.7273C277.629 25.3594 278.226 24.4517 279.338 24.4517C280.493 24.4517 281.072 25.4276 281.072 26.7273C281.072 28.0398 280.476 29.0412 279.338 29.0412C278.243 29.0412 277.629 28.1037 277.629 26.7273ZM286.611 30.1321C288.039 30.1321 289.049 29.429 289.338 28.3636L288.132 28.1463C287.902 28.7642 287.348 29.0795 286.624 29.0795C285.533 29.0795 284.8 28.3722 284.766 27.1108H289.419V26.6591C289.419 24.294 288.005 23.3693 286.522 23.3693C284.698 23.3693 283.496 24.7585 283.496 26.7699C283.496 28.8026 284.681 30.1321 286.611 30.1321ZM284.77 26.1562C284.821 25.2273 285.495 24.4219 286.53 24.4219C287.519 24.4219 288.167 25.1548 288.171 26.1562H284.77ZM290.833 30H292.107V26.0028C292.107 25.1463 292.768 24.5284 293.671 24.5284C293.935 24.5284 294.234 24.5753 294.336 24.6051V23.3864C294.208 23.3693 293.957 23.3565 293.795 23.3565C293.028 23.3565 292.371 23.7912 292.133 24.4943H292.065V23.4545H290.833V30Z" fill="#232323"/>
<path d="M220.591 44.1818H221.409L221.341 42.3068L222.926 43.3125L223.335 42.5966L221.665 41.7273L223.335 40.858L222.926 40.142L221.341 41.1477L221.409 39.2727H220.591L220.659 41.1477L219.074 40.142L218.665 40.858L220.335 41.7273L218.665 42.5966L219.074 43.3125L220.659 42.3068L220.591 44.1818ZM226.591 44.1818H227.409L227.341 42.3068L228.926 43.3125L229.335 42.5966L227.665 41.7273L229.335 40.858L228.926 40.142L227.341 41.1477L227.409 39.2727H226.591L226.659 41.1477L225.074 40.142L224.665 40.858L226.335 41.7273L224.665 42.5966L225.074 43.3125L226.659 42.3068L226.591 44.1818ZM232.591 44.1818H233.409L233.341 42.3068L234.926 43.3125L235.335 42.5966L233.665 41.7273L235.335 40.858L234.926 40.142L233.341 41.1477L233.409 39.2727H232.591L232.659 41.1477L231.074 40.142L230.665 40.858L232.335 41.7273L230.665 42.5966L231.074 43.3125L232.659 42.3068L232.591 44.1818ZM238.591 44.1818H239.409L239.341 42.3068L240.926 43.3125L241.335 42.5966L239.665 41.7273L241.335 40.858L240.926 40.142L239.341 41.1477L239.409 39.2727H238.591L238.659 41.1477L237.074 40.142L236.665 40.858L238.335 41.7273L236.665 42.5966L237.074 43.3125L238.659 42.3068L238.591 44.1818ZM247.966 44.1818H248.784L248.716 42.3068L250.301 43.3125L250.71 42.5966L249.04 41.7273L250.71 40.858L250.301 40.142L248.716 41.1477L248.784 39.2727H247.966L248.034 41.1477L246.449 40.142L246.04 40.858L247.71 41.7273L246.04 42.5966L246.449 43.3125L248.034 42.3068L247.966 44.1818ZM253.966 44.1818H254.784L254.716 42.3068L256.301 43.3125L256.71 42.5966L255.04 41.7273L256.71 40.858L256.301 40.142L254.716 41.1477L254.784 39.2727H253.966L254.034 41.1477L252.449 40.142L252.04 40.858L253.71 41.7273L252.04 42.5966L252.449 43.3125L254.034 42.3068L253.966 44.1818ZM259.966 44.1818H260.784L260.716 42.3068L262.301 43.3125L262.71 42.5966L261.04 41.7273L262.71 40.858L262.301 40.142L260.716 41.1477L260.784 39.2727H259.966L260.034 41.1477L258.449 40.142L258.04 40.858L259.71 41.7273L258.04 42.5966L258.449 43.3125L260.034 42.3068L259.966 44.1818ZM265.966 44.1818H266.784L266.716 42.3068L268.301 43.3125L268.71 42.5966L267.04 41.7273L268.71 40.858L268.301 40.142L266.716 41.1477L266.784 39.2727H265.966L266.034 41.1477L264.449 40.142L264.04 40.858L265.71 41.7273L264.04 42.5966L264.449 43.3125L266.034 42.3068L265.966 44.1818ZM276.381 48.1193C278.043 48.1193 279.261 46.892 279.261 45.2216C279.261 43.5298 278.085 42.2898 276.483 42.2898C275.895 42.2898 275.324 42.4986 274.966 42.7841H274.915L275.222 40.2102H278.869V39.2727H274.335L273.807 43.5682L274.795 43.6875C275.158 43.4276 275.776 43.2401 276.312 43.2443C277.425 43.2528 278.239 44.0966 278.239 45.2386C278.239 46.3594 277.455 47.1818 276.381 47.1818C275.486 47.1818 274.774 46.6065 274.693 45.8182H273.67C273.734 47.1477 274.881 48.1193 276.381 48.1193ZM283.852 48.1193C285.616 48.1406 286.767 46.8111 286.767 45.1875C286.767 43.5 285.518 42.2898 284.022 42.2898C283.123 42.2898 282.352 42.7287 281.875 43.4489H281.806C281.811 41.3224 282.637 40.0909 283.988 40.0909C284.909 40.0909 285.463 40.6705 285.659 41.4545H286.699C286.485 40.0994 285.454 39.1534 283.988 39.1534C282.024 39.1534 280.818 40.892 280.818 43.9773C280.818 47.2031 282.42 48.1023 283.852 48.1193ZM283.852 47.1818C282.757 47.1818 281.956 46.2486 281.96 45.2045C281.964 44.1605 282.804 43.2273 283.886 43.2273C284.956 43.2273 285.744 44.1051 285.744 45.1875C285.744 46.2955 284.922 47.1818 283.852 47.1818ZM291.289 48.1193C293.215 48.1193 294.323 46.4872 294.323 43.6364C294.323 40.8068 293.198 39.1534 291.289 39.1534C289.38 39.1534 288.255 40.8068 288.255 43.6364C288.255 46.4872 289.363 48.1193 291.289 48.1193ZM291.289 47.1818C290.019 47.1818 289.278 45.9077 289.278 43.6364C289.278 41.3693 290.028 40.0739 291.289 40.0739C292.55 40.0739 293.3 41.3693 293.3 43.6364C293.3 45.9077 292.559 47.1818 291.289 47.1818ZM298.789 48.1193C300.715 48.1193 301.823 46.4872 301.823 43.6364C301.823 40.8068 300.698 39.1534 298.789 39.1534C296.88 39.1534 295.755 40.8068 295.755 43.6364C295.755 46.4872 296.863 48.1193 298.789 48.1193ZM298.789 47.1818C297.519 47.1818 296.778 45.9077 296.778 43.6364C296.778 41.3693 297.528 40.0739 298.789 40.0739C300.05 40.0739 300.8 41.3693 300.8 43.6364C300.8 45.9077 300.059 47.1818 298.789 47.1818Z" fill="#718EBF"/>
<path d="M407.578 30H406.273L409.152 38H410.547L413.426 30H412.121L409.895 36.5156H409.805L407.578 30ZM414.487 38H415.655V32H414.487V38ZM415.077 31.0742C415.479 31.0742 415.815 30.7617 415.815 30.3789C415.815 29.9961 415.479 29.6797 415.077 29.6797C414.671 29.6797 414.339 29.9961 414.339 30.3789C414.339 30.7617 414.671 31.0742 415.077 31.0742ZM419.812 38.1211C421.121 38.1211 422.047 37.4766 422.313 36.5L421.207 36.3008C420.996 36.8672 420.488 37.1562 419.824 37.1562C418.824 37.1562 418.152 36.5078 418.121 35.3516H422.387V34.9375C422.387 32.7695 421.09 31.9219 419.73 31.9219C418.059 31.9219 416.957 33.1953 416.957 35.0391C416.957 36.9023 418.043 38.1211 419.812 38.1211ZM418.125 34.4766C418.172 33.625 418.789 32.8867 419.738 32.8867C420.645 32.8867 421.238 33.5586 421.242 34.4766H418.125ZM424.973 38H426.16L427.379 33.668H427.469L428.688 38H429.879L431.641 32H430.434L429.266 36.3867H429.207L428.035 32H426.828L425.648 36.4062H425.59L424.414 32H423.207L424.973 38ZM438.344 38C440.781 38 442.191 36.4883 442.191 33.9883C442.191 31.5 440.781 30 438.426 30H435.754V38H438.344ZM436.961 36.9453V31.0547H438.352C440.102 31.0547 441.004 32.1016 441.004 33.9883C441.004 35.8828 440.102 36.9453 438.277 36.9453H436.961ZM446.185 38.1211C447.493 38.1211 448.419 37.4766 448.685 36.5L447.579 36.3008C447.368 36.8672 446.86 37.1562 446.196 37.1562C445.196 37.1562 444.524 36.5078 444.493 35.3516H448.759V34.9375C448.759 32.7695 447.462 31.9219 446.103 31.9219C444.431 31.9219 443.329 33.1953 443.329 35.0391C443.329 36.9023 444.415 38.1211 446.185 38.1211ZM444.497 34.4766C444.544 33.625 445.161 32.8867 446.11 32.8867C447.017 32.8867 447.61 33.5586 447.614 34.4766H444.497ZM452.855 32H451.625V30.5625H450.457V32H449.578V32.9375H450.457V36.4805C450.453 37.5703 451.285 38.0977 452.207 38.0781C452.578 38.0742 452.828 38.0039 452.965 37.9531L452.754 36.9883C452.676 37.0039 452.531 37.0391 452.344 37.0391C451.965 37.0391 451.625 36.9141 451.625 36.2383V32.9375H452.855V32ZM455.894 38.1328C456.886 38.1328 457.444 37.6289 457.667 37.1797H457.714V38H458.854V34.0156C458.854 32.2695 457.479 31.9219 456.526 31.9219C455.44 31.9219 454.44 32.3594 454.05 33.4531L455.147 33.7031C455.319 33.2773 455.757 32.8672 456.542 32.8672C457.296 32.8672 457.683 33.2617 457.683 33.9414V33.9687C457.683 34.3945 457.245 34.3867 456.167 34.5117C455.03 34.6445 453.866 34.9414 453.866 36.3047C453.866 37.4844 454.753 38.1328 455.894 38.1328ZM456.147 37.1953C455.487 37.1953 455.011 36.8984 455.011 36.3203C455.011 35.6953 455.565 35.4727 456.241 35.3828C456.62 35.332 457.519 35.2305 457.687 35.0625V35.8359C457.687 36.5469 457.12 37.1953 456.147 37.1953ZM460.41 38H461.578V32H460.41V38ZM461 31.0742C461.402 31.0742 461.738 30.7617 461.738 30.3789C461.738 29.9961 461.402 29.6797 461 29.6797C460.594 29.6797 460.262 29.9961 460.262 30.3789C460.262 30.7617 460.594 31.0742 461 31.0742ZM464.317 30H463.149V38H464.317V30ZM470.385 33.4648C470.143 32.5312 469.412 31.9219 468.115 31.9219C466.76 31.9219 465.799 32.6367 465.799 33.6992C465.799 34.5508 466.314 35.1172 467.439 35.3672L468.455 35.5898C469.033 35.7187 469.303 35.9766 469.303 36.3516C469.303 36.8164 468.807 37.1797 468.041 37.1797C467.342 37.1797 466.893 36.8789 466.752 36.2891L465.623 36.4609C465.818 37.5234 466.701 38.1211 468.049 38.1211C469.498 38.1211 470.502 37.3516 470.502 36.2656C470.502 35.418 469.963 34.8945 468.861 34.6406L467.908 34.4219C467.248 34.2656 466.963 34.043 466.967 33.6367C466.963 33.1758 467.463 32.8477 468.127 32.8477C468.854 32.8477 469.189 33.25 469.326 33.6523L470.385 33.4648Z" fill="#1814F3"/>
<defs>
<clipPath id="clip0_1_2179">
<rect width="20" height="20" fill="white" transform="translate(25 25)"/>
</clipPath>
</defs>
</svg>
