<svg width="231" height="231" viewBox="0 0 231 231" fill="none" xmlns="http://www.w3.org/2000/svg">
<rect width="231" height="231" rx="20" fill="white"/>
<path opacity="0.83" d="M155.662 62.5683C145.401 52.1089 131.153 45.5727 115.349 45.4219C99.5446 45.271 85.1699 51.545 74.7184 61.7979C64.267 72.0508 57.7229 86.3064 57.572 102.111C57.4211 117.915 63.6952 132.29 73.9481 142.741C84.201 153.193 98.4566 159.737 114.261 159.888C130.065 160.038 144.44 153.764 154.891 143.511C165.351 133.251 171.887 119.003 172.038 103.199C172.189 87.3945 165.915 73.0277 155.662 62.5683Z" fill="url(#paint0_radial_1_2149)" fill-opacity="0.5"/>
<path d="M50.9486 94.9231C50.7898 111.458 57.3497 126.5 68.0871 137.444C78.8245 148.388 93.7313 155.233 110.266 155.392L110.838 95.5029L50.9486 94.9231Z" fill="#FFBB38"/>
<path d="M74.5041 95.1455C74.4088 105.184 78.3877 114.309 84.9079 120.949C91.4202 127.588 100.466 131.741 110.504 131.837L110.854 95.4949L74.5041 95.1455Z" fill="#FFB11F"/>
<path d="M64.7275 48.4953C52.6956 60.2969 45.1747 76.6888 45 94.8677L110.846 95.4951L111.473 29.6493C93.2864 29.4746 76.7594 36.6938 64.7275 48.4953Z" fill="#4C78FF"/>
<path d="M85.3926 69.5489C78.7533 76.0612 74.5997 85.107 74.5044 95.1454L110.846 95.4949L111.196 59.153C101.157 59.0577 92.032 63.0366 85.3926 69.5489Z" fill="#3464F3"/>
<path d="M164.74 42.6183C151.207 28.8234 132.416 20.1985 111.561 20L110.838 95.4951L186.333 96.2178C186.54 75.3625 178.272 56.4054 164.74 42.6183Z" fill="#16DBCC"/>
<path d="M136.784 70.0413C130.272 63.402 121.226 59.2484 111.188 59.1531L110.838 95.4949L147.18 95.8443C147.283 85.8059 143.305 76.6807 136.784 70.0413Z" fill="#1EC6B8"/>
<path d="M110.846 95.4949L110.33 149.341C125.197 149.483 138.714 143.583 148.554 133.933C158.394 124.284 164.549 110.878 164.684 96.0111L110.846 95.4949Z" fill="#FF82AC"/>
<path opacity="0.08" d="M110.79 101.348L110.846 95.4949L50.9566 94.9231C50.9407 96.9006 51.0201 98.8543 51.1869 100.776L110.79 101.348Z" fill="url(#paint1_linear_1_2149)"/>
<path d="M110.846 95.4949L110.497 131.837C120.535 131.932 129.66 127.953 136.3 121.441C142.939 114.929 147.093 105.883 147.188 95.8443L110.846 95.4949Z" fill="#FF6195"/>
<path opacity="0.83" d="M134.942 82.8677C130.272 78.1105 123.791 75.1324 116.596 75.0609C109.401 74.9894 102.865 77.8485 98.1074 82.5103C93.3503 87.1801 90.3721 93.6607 90.3006 100.856C90.2291 108.051 93.0882 114.587 97.7501 119.345C102.42 124.102 108.9 127.08 116.096 127.151C123.291 127.223 129.827 124.364 134.584 119.702C139.341 115.032 142.32 108.552 142.391 101.356C142.463 94.161 139.611 87.6249 134.942 82.8677Z" fill="url(#paint2_radial_1_2149)" fill-opacity="0.5"/>
<path d="M129.438 77.2527C124.768 72.4955 118.287 69.5174 111.092 69.4459C103.897 69.3744 97.3607 72.2335 92.6035 76.8953C87.8464 81.5651 84.8682 88.0457 84.7967 95.241C84.7252 102.436 87.5843 108.972 92.2462 113.73C96.916 118.487 103.396 121.465 110.592 121.536C117.787 121.608 124.323 118.749 129.08 114.087C133.838 109.417 136.816 102.937 136.887 95.7413C136.959 88.546 134.108 82.0099 129.438 77.2527Z" fill="white"/>
<circle cx="32" cy="178" r="6" fill="#4C78FF"/>
<path d="M51.7841 182C54.4432 182 55.9815 180.351 55.9815 177.624C55.9815 174.909 54.4432 173.273 51.8736 173.273H48.9588V182H51.7841ZM50.2756 180.849V174.423H51.7926C53.7017 174.423 54.6861 175.565 54.6861 177.624C54.6861 179.69 53.7017 180.849 51.7116 180.849H50.2756ZM57.619 182H60.9641C62.9925 182 63.9087 180.99 63.9087 179.652C63.9087 178.301 62.9627 177.538 62.0977 177.491V177.406C62.8988 177.202 63.5678 176.656 63.5678 175.565C63.5678 174.274 62.6729 173.273 60.815 173.273H57.619V182ZM58.9357 180.871V178.075H60.8832C61.94 178.075 62.6005 178.757 62.6005 179.588C62.6005 180.321 62.1019 180.871 60.8363 180.871H58.9357ZM58.9357 177.048V174.393H60.734C61.7781 174.393 62.2766 174.943 62.2766 175.668C62.2766 176.511 61.5863 177.048 60.6999 177.048H58.9357ZM65.4705 182H70.7418V180.866H66.7873V173.273H65.4705V182ZM75.4197 182H78.7649C80.7933 182 81.7095 180.99 81.7095 179.652C81.7095 178.301 80.7635 177.538 79.8984 177.491V177.406C80.6996 177.202 81.3686 176.656 81.3686 175.565C81.3686 174.274 80.4737 173.273 78.6158 173.273H75.4197V182ZM76.7365 180.871V178.075H78.6839C79.7408 178.075 80.4013 178.757 80.4013 179.588C80.4013 180.321 79.9027 180.871 78.6371 180.871H76.7365ZM76.7365 177.048V174.393H78.5348C79.5788 174.393 80.0774 174.943 80.0774 175.668C80.0774 176.511 79.3871 177.048 78.5007 177.048H76.7365ZM85.0739 182.145C86.1562 182.145 86.7656 181.595 87.0085 181.105H87.0597V182H88.304V177.653C88.304 175.749 86.804 175.369 85.7642 175.369C84.5795 175.369 83.4886 175.847 83.0625 177.04L84.2599 177.312C84.4474 176.848 84.9247 176.401 85.7812 176.401C86.6037 176.401 87.0256 176.831 87.0256 177.572V177.602C87.0256 178.067 86.5483 178.058 85.3722 178.195C84.1321 178.339 82.8622 178.663 82.8622 180.151C82.8622 181.438 83.8295 182.145 85.0739 182.145ZM85.3509 181.122C84.6307 181.122 84.1108 180.798 84.1108 180.168C84.1108 179.486 84.7159 179.243 85.4531 179.145C85.8665 179.089 86.8466 178.979 87.0298 178.795V179.639C87.0298 180.415 86.4119 181.122 85.3509 181.122ZM91.2752 178.114C91.2752 177.07 91.9144 176.473 92.8008 176.473C93.6658 176.473 94.19 177.04 94.19 177.99V182H95.4641V177.837C95.4641 176.217 94.5735 175.369 93.2354 175.369C92.2511 175.369 91.6076 175.825 91.305 176.52H91.2241V175.455H90.0011V182H91.2752V178.114ZM97.1729 182H98.4471V179.678L99.082 179.043L101.306 182H102.87L100.041 178.263L102.691 175.455H101.166L98.5579 178.224H98.4471V173.273H97.1729V182Z" fill="#718EBF"/>
<circle cx="32" cy="205" r="6" fill="#16DBCC"/>
<path d="M49.696 209L50.4972 206.69H53.9062L54.7031 209H56.1009L52.9602 200.273H51.4389L48.2983 209H49.696ZM50.8807 205.582L52.1676 201.858H52.2358L53.5227 205.582H50.8807ZM57.3612 209H60.7063C62.7347 209 63.6509 207.99 63.6509 206.652C63.6509 205.301 62.7049 204.538 61.8398 204.491V204.406C62.641 204.202 63.31 203.656 63.31 202.565C63.31 201.274 62.4151 200.273 60.5572 200.273H57.3612V209ZM58.6779 207.871V205.075H60.6254C61.6822 205.075 62.3427 205.757 62.3427 206.588C62.3427 207.321 61.8441 207.871 60.5785 207.871H58.6779ZM58.6779 204.048V201.393H60.4762C61.5202 201.393 62.0188 201.943 62.0188 202.668C62.0188 203.511 61.3285 204.048 60.4421 204.048H58.6779ZM65.2127 200.273V209H66.4656V202.68H66.5465L69.1204 208.987H70.1602L72.734 202.685H72.815V209H74.0678V200.273H72.4698L69.6914 207.057H69.5891L66.8107 200.273H65.2127ZM79.158 209H82.5032C84.5316 209 85.4478 207.99 85.4478 206.652C85.4478 205.301 84.5018 204.538 83.6367 204.491V204.406C84.4379 204.202 85.1069 203.656 85.1069 202.565C85.1069 201.274 84.212 200.273 82.354 200.273H79.158V209ZM80.4748 207.871V205.075H82.4222C83.479 205.075 84.1396 205.757 84.1396 206.588C84.1396 207.321 83.641 207.871 82.3754 207.871H80.4748ZM80.4748 204.048V201.393H82.2731C83.3171 201.393 83.8157 201.943 83.8157 202.668C83.8157 203.511 83.1254 204.048 82.239 204.048H80.4748ZM88.8121 209.145C89.8945 209.145 90.5039 208.595 90.7468 208.105H90.7979V209H92.0423V204.653C92.0423 202.749 90.5423 202.369 89.5025 202.369C88.3178 202.369 87.2269 202.847 86.8008 204.04L87.9982 204.312C88.1857 203.848 88.663 203.401 89.5195 203.401C90.342 203.401 90.7638 203.831 90.7638 204.572V204.602C90.7638 205.067 90.2866 205.058 89.1104 205.195C87.8704 205.339 86.6005 205.663 86.6005 207.151C86.6005 208.438 87.5678 209.145 88.8121 209.145ZM89.0891 208.122C88.369 208.122 87.8491 207.798 87.8491 207.168C87.8491 206.486 88.4542 206.243 89.1914 206.145C89.6048 206.089 90.5849 205.979 90.7681 205.795V206.639C90.7681 207.415 90.1502 208.122 89.0891 208.122ZM95.0135 205.114C95.0135 204.07 95.6527 203.473 96.5391 203.473C97.4041 203.473 97.9283 204.04 97.9283 204.99V209H99.2024V204.837C99.2024 203.217 98.3118 202.369 96.9737 202.369C95.9893 202.369 95.3459 202.825 95.0433 203.52H94.9624V202.455H93.7393V209H95.0135V205.114ZM100.911 209H102.185V206.678L102.82 206.043L105.045 209H106.609L103.779 205.263L106.43 202.455H104.904L102.296 205.224H102.185V200.273H100.911V209Z" fill="#718EBF"/>
<circle cx="130" cy="178" r="6" fill="#FF82AC"/>
<path d="M146.959 182H150.304C152.332 182 153.249 180.99 153.249 179.652C153.249 178.301 152.303 177.538 151.438 177.491V177.406C152.239 177.202 152.908 176.656 152.908 175.565C152.908 174.274 152.013 173.273 150.155 173.273H146.959V182ZM148.276 180.871V178.075H150.223C151.28 178.075 151.94 178.757 151.94 179.588C151.94 180.321 151.442 180.871 150.176 180.871H148.276ZM148.276 177.048V174.393H150.074C151.118 174.393 151.616 174.943 151.616 175.668C151.616 176.511 150.926 177.048 150.04 177.048H148.276ZM154.81 182H156.127V178.697H157.917C157.947 178.697 157.972 178.697 158.002 178.697L159.775 182H161.275L159.34 178.467C160.41 178.071 160.942 177.18 160.942 176.009C160.942 174.402 159.945 173.273 157.921 173.273H154.81V182ZM156.127 177.564V174.402H157.781C159.08 174.402 159.617 175.02 159.617 176.009C159.617 176.993 159.08 177.564 157.798 177.564H156.127ZM169.793 176.111C169.495 174.244 168.033 173.153 166.188 173.153C163.93 173.153 162.263 174.845 162.263 177.636C162.263 180.428 163.921 182.119 166.188 182.119C168.106 182.119 169.508 180.918 169.793 179.192L168.464 179.188C168.238 180.304 167.3 180.918 166.197 180.918C164.701 180.918 163.572 179.771 163.572 177.636C163.572 175.518 164.697 174.355 166.201 174.355C167.313 174.355 168.246 174.982 168.464 176.111H169.793ZM174.545 182H177.89C179.918 182 180.835 180.99 180.835 179.652C180.835 178.301 179.888 177.538 179.023 177.491V177.406C179.825 177.202 180.494 176.656 180.494 175.565C180.494 174.274 179.599 173.273 177.741 173.273H174.545V182ZM175.862 180.871V178.075H177.809C178.866 178.075 179.526 178.757 179.526 179.588C179.526 180.321 179.028 180.871 177.762 180.871H175.862ZM175.862 177.048V174.393H177.66C178.704 174.393 179.202 174.943 179.202 175.668C179.202 176.511 178.512 177.048 177.626 177.048H175.862ZM184.199 182.145C185.281 182.145 185.891 181.595 186.134 181.105H186.185V182H187.429V177.653C187.429 175.749 185.929 175.369 184.889 175.369C183.705 175.369 182.614 175.847 182.188 177.04L183.385 177.312C183.572 176.848 184.05 176.401 184.906 176.401C185.729 176.401 186.151 176.831 186.151 177.572V177.602C186.151 178.067 185.673 178.058 184.497 178.195C183.257 178.339 181.987 178.663 181.987 180.151C181.987 181.438 182.955 182.145 184.199 182.145ZM184.476 181.122C183.756 181.122 183.236 180.798 183.236 180.168C183.236 179.486 183.841 179.243 184.578 179.145C184.991 179.089 185.972 178.979 186.155 178.795V179.639C186.155 180.415 185.537 181.122 184.476 181.122ZM190.4 178.114C190.4 177.07 191.039 176.473 191.926 176.473C192.791 176.473 193.315 177.04 193.315 177.99V182H194.589V177.837C194.589 176.217 193.699 175.369 192.36 175.369C191.376 175.369 190.733 175.825 190.43 176.52H190.349V175.455H189.126V182H190.4V178.114ZM196.298 182H197.572V179.678L198.207 179.043L200.431 182H201.995L199.166 178.263L201.816 175.455H200.291L197.683 178.224H197.572V173.273H196.298V182Z" fill="#718EBF"/>
<circle cx="130" cy="205" r="6" fill="#FFBB38"/>
<path d="M146.959 200.273V209H148.212V202.68H148.293L150.866 208.987H151.906L154.48 202.685H154.561V209H155.814V200.273H154.216L151.438 207.057H151.335L148.557 200.273H146.959ZM164.977 203.111C164.679 201.244 163.217 200.153 161.372 200.153C159.113 200.153 157.447 201.845 157.447 204.636C157.447 207.428 159.105 209.119 161.372 209.119C163.289 209.119 164.691 207.918 164.977 206.192L163.647 206.188C163.422 207.304 162.484 207.918 161.38 207.918C159.885 207.918 158.755 206.771 158.755 204.636C158.755 202.518 159.88 201.355 161.385 201.355C162.497 201.355 163.43 201.982 163.647 203.111H164.977ZM166.553 209H167.869V205.932H169.659C171.683 205.932 172.685 204.709 172.685 203.098C172.685 201.491 171.692 200.273 169.663 200.273H166.553V209ZM167.869 204.815V201.402H169.523C170.827 201.402 171.359 202.109 171.359 203.098C171.359 204.087 170.827 204.815 169.54 204.815H167.869ZM177.404 209H180.749C182.778 209 183.694 207.99 183.694 206.652C183.694 205.301 182.748 204.538 181.883 204.491V204.406C182.684 204.202 183.353 203.656 183.353 202.565C183.353 201.274 182.458 200.273 180.6 200.273H177.404V209ZM178.721 207.871V205.075H180.668C181.725 205.075 182.386 205.757 182.386 206.588C182.386 207.321 181.887 207.871 180.621 207.871H178.721ZM178.721 204.048V201.393H180.519C181.563 201.393 182.062 201.943 182.062 202.668C182.062 203.511 181.371 204.048 180.485 204.048H178.721ZM187.058 209.145C188.141 209.145 188.75 208.595 188.993 208.105H189.044V209H190.288V204.653C190.288 202.749 188.788 202.369 187.749 202.369C186.564 202.369 185.473 202.847 185.047 204.04L186.244 204.312C186.432 203.848 186.909 203.401 187.766 203.401C188.588 203.401 189.01 203.831 189.01 204.572V204.602C189.01 205.067 188.533 205.058 187.357 205.195C186.116 205.339 184.847 205.663 184.847 207.151C184.847 208.438 185.814 209.145 187.058 209.145ZM187.335 208.122C186.615 208.122 186.095 207.798 186.095 207.168C186.095 206.486 186.7 206.243 187.438 206.145C187.851 206.089 188.831 205.979 189.014 205.795V206.639C189.014 207.415 188.396 208.122 187.335 208.122ZM193.26 205.114C193.26 204.07 193.899 203.473 194.785 203.473C195.65 203.473 196.174 204.04 196.174 204.99V209H197.449V204.837C197.449 203.217 196.558 202.369 195.22 202.369C194.235 202.369 193.592 202.825 193.289 203.52H193.208V202.455H191.985V209H193.26V205.114ZM199.157 209H200.431V206.678L201.066 206.043L203.291 209H204.855L202.025 205.263L204.676 202.455H203.15L200.542 205.224H200.431V200.273H199.157V209Z" fill="#718EBF"/>
<defs>
<radialGradient id="paint0_radial_1_2149" cx="0" cy="0" r="1" gradientUnits="userSpaceOnUse" gradientTransform="translate(114.802 102.655) rotate(0.544294) scale(57.2389)">
<stop/>
<stop offset="1" stop-opacity="0"/>
</radialGradient>
<linearGradient id="paint1_linear_1_2149" x1="80.8317" y1="102.231" x2="80.8972" y2="95.3443" gradientUnits="userSpaceOnUse">
<stop stop-color="white"/>
<stop offset="1"/>
</linearGradient>
<radialGradient id="paint2_radial_1_2149" cx="0" cy="0" r="1" gradientUnits="userSpaceOnUse" gradientTransform="translate(116.352 101.106) rotate(0.544293) scale(26.0454 26.0454)">
<stop/>
<stop offset="1" stop-opacity="0"/>
</radialGradient>
</defs>
</svg>
