<svg width="325" height="69" viewBox="0 0 325 69" fill="none" xmlns="http://www.w3.org/2000/svg">
<rect width="325" height="69" rx="10" fill="white"/>
<rect x="12" y="12" width="45" height="45" rx="12" fill="#FFF5D9"/>
<g clip-path="url(#clip0_1_2537)">
<path d="M42.6621 30.5103V30.2367C42.6621 28.979 41.6389 27.9557 40.3812 27.9557H27.2809C26.0232 27.9558 25 28.979 25 30.2367V30.5103H42.6621Z" fill="#FFBB38"/>
<path d="M35.4347 37.8474C35.4347 36.6643 35.8152 35.5397 36.5178 34.6129H25V37.7946C25 39.0523 26.0232 40.0756 27.2809 40.0756H35.9162C35.601 39.3851 35.4347 38.6291 35.4347 37.8474ZM33.8311 37.1561H31.8625V35.9842H33.8311V37.1561ZM27.6273 35.9842H30.6906V37.1561H27.6273V35.9842Z" fill="#FFBB38"/>
<path d="M37.7344 33.4411C38.6281 32.8158 39.6898 32.4789 40.8033 32.4789C41.4478 32.4789 42.0748 32.5921 42.6621 32.8084V31.6822H25V33.4411H37.7344Z" fill="#FFBB38"/>
<path d="M45 37.8474C45 35.5297 43.1211 33.6508 40.8033 33.6508C38.4855 33.6508 36.6066 35.5297 36.6066 37.8474C36.6066 40.1652 38.4855 42.0441 40.8033 42.0441C43.1211 42.0441 45 40.1652 45 37.8474ZM41.369 40.0894V40.5663H40.7831V40.5664V40.5663H40.1971V40.0929C39.8429 39.973 39.553 39.7619 39.27 39.5549L39.9618 38.609C40.3421 38.8872 40.5367 39.0208 40.8033 39.0208C40.9541 39.0208 41.0762 38.9491 41.1219 38.8336C41.1773 38.6937 41.0991 38.5649 40.9124 38.4889C40.9124 38.4889 40.0749 38.2096 39.6877 37.8148C39.3628 37.4836 39.2594 37.0168 39.3628 36.5728C39.467 36.1257 39.7689 35.7761 40.1971 35.6016V35.1285H41.369V35.582C41.6666 35.6646 41.9185 35.7868 42.0634 35.8654L41.5043 36.8953C41.1336 36.6941 40.7926 36.6337 40.6598 36.6791C40.531 36.7231 40.5115 36.807 40.5041 36.8387C40.4937 36.8835 40.4881 36.9522 40.5597 37.0321C40.6287 37.1089 41.3543 37.4036 41.3543 37.4036C42.1371 37.7223 42.5056 38.5226 42.2114 39.2652C42.0585 39.6512 41.7509 39.9435 41.369 40.0894Z" fill="#FFBB38"/>
</g>
<path d="M78.5753 24.1293C78.2273 21.9517 76.522 20.679 74.3693 20.679C71.7344 20.679 69.7905 22.6527 69.7905 25.9091C69.7905 29.1655 71.7244 31.1392 74.3693 31.1392C76.6065 31.1392 78.2422 29.7372 78.5753 27.7237L77.0241 27.7188C76.7607 29.0213 75.6669 29.7372 74.3793 29.7372C72.6342 29.7372 71.3168 28.3999 71.3168 25.9091C71.3168 23.4382 72.6293 22.081 74.3842 22.081C75.6818 22.081 76.7706 22.8118 77.0241 24.1293H78.5753ZM82.5165 31.169C83.7793 31.169 84.4902 30.5277 84.7736 29.956H84.8333V31H86.285V25.929C86.285 23.7067 84.535 23.2642 83.3219 23.2642C81.9398 23.2642 80.6671 23.821 80.1699 25.2131L81.5669 25.5312C81.7857 24.9893 82.3425 24.4673 83.3418 24.4673C84.3013 24.4673 84.7935 24.9695 84.7935 25.8345V25.8693C84.7935 26.4112 84.2367 26.4013 82.8645 26.5604C81.4178 26.7294 79.9363 27.1072 79.9363 28.8423C79.9363 30.3438 81.0648 31.169 82.5165 31.169ZM82.8397 29.9759C81.9995 29.9759 81.3929 29.598 81.3929 28.8622C81.3929 28.0668 82.0989 27.7834 82.959 27.669C83.4412 27.6044 84.5847 27.4751 84.7985 27.2614V28.2457C84.7985 29.1506 84.0776 29.9759 82.8397 29.9759ZM88.2649 31H89.7514V26.3366C89.7514 25.3374 90.522 24.6165 91.576 24.6165C91.8842 24.6165 92.2322 24.6712 92.3516 24.706V23.2841C92.2024 23.2642 91.9091 23.2493 91.7202 23.2493C90.8253 23.2493 90.0597 23.7564 89.7812 24.5767H89.7017V23.3636H88.2649V31ZM96.2232 31.1491C97.6152 31.1491 98.1621 30.299 98.4306 29.8118H98.5549V31H100.007V20.8182H98.5201V24.6016H98.4306C98.1621 24.1293 97.655 23.2642 96.2331 23.2642C94.3887 23.2642 93.0314 24.7209 93.0314 27.1967C93.0314 29.6676 94.3688 31.1491 96.2232 31.1491ZM96.5513 29.8814C95.2239 29.8814 94.5328 28.7131 94.5328 27.1818C94.5328 25.6655 95.209 24.527 96.5513 24.527C97.8489 24.527 98.5449 25.5859 98.5449 27.1818C98.5449 28.7876 97.834 29.8814 96.5513 29.8814ZM105.45 22.1406H108.622V31H110.154V22.1406H113.33V20.8182H105.45V22.1406ZM115.017 33.8636C116.245 33.8636 117.021 33.2223 117.463 32.0192L120.62 23.3786L119.014 23.3636L117.08 29.2898H117.001L115.067 23.3636H113.476L116.27 31.0994L116.086 31.6065C115.708 32.6207 115.176 32.7053 114.361 32.4815L114.003 33.6996C114.182 33.7791 114.57 33.8636 115.017 33.8636ZM122.021 33.8636H123.507V29.8118H123.597C123.865 30.299 124.412 31.1491 125.804 31.1491C127.654 31.1491 128.996 29.6676 128.996 27.1967C128.996 24.7209 127.634 23.2642 125.789 23.2642C124.372 23.2642 123.86 24.1293 123.597 24.6016H123.472V23.3636H122.021V33.8636ZM123.477 27.1818C123.477 25.5859 124.173 24.527 125.471 24.527C126.818 24.527 127.494 25.6655 127.494 27.1818C127.494 28.7131 126.798 29.8814 125.471 29.8814C124.193 29.8814 123.477 28.7876 123.477 27.1818ZM133.953 31.1541C135.618 31.1541 136.796 30.3338 137.134 29.0909L135.727 28.8374C135.459 29.5582 134.813 29.9261 133.968 29.9261C132.695 29.9261 131.84 29.1009 131.8 27.6293H137.229V27.1023C137.229 24.343 135.578 23.2642 133.848 23.2642C131.72 23.2642 130.318 24.8849 130.318 27.2315C130.318 29.603 131.7 31.1541 133.953 31.1541ZM131.805 26.5156C131.865 25.4318 132.65 24.4922 133.858 24.4922C135.012 24.4922 135.767 25.3473 135.772 26.5156H131.805Z" fill="#232323"/>
<path d="M74.8295 43.4545H75.8523C75.8054 42.1378 74.5909 41.1534 72.9034 41.1534C71.233 41.1534 69.9205 42.125 69.9205 43.5909C69.9205 44.767 70.7727 45.4659 72.1364 45.858L73.2102 46.1648C74.1307 46.4205 74.9489 46.7443 74.9489 47.6136C74.9489 48.5682 74.0284 49.1989 72.8182 49.1989C71.7784 49.1989 70.858 48.7386 70.7727 47.75H69.6818C69.7841 49.1818 70.9432 50.1534 72.8182 50.1534C74.8295 50.1534 75.9716 49.0455 75.9716 47.6307C75.9716 45.9943 74.4205 45.4659 73.517 45.2273L72.6307 44.9886C71.983 44.8182 70.9432 44.4773 70.9432 43.5398C70.9432 42.7045 71.7102 42.0909 72.8693 42.0909C73.9261 42.0909 74.7273 42.5938 74.8295 43.4545ZM80.3171 50.1364C81.6467 50.1364 82.6183 49.4716 82.9251 48.483L81.9535 48.2102C81.6978 48.892 81.1055 49.233 80.3171 49.233C79.1367 49.233 78.3228 48.4702 78.2759 47.0682H83.0273V46.642C83.0273 44.2045 81.5785 43.3693 80.2148 43.3693C78.4421 43.3693 77.266 44.767 77.266 46.7784C77.266 48.7898 78.4251 50.1364 80.3171 50.1364ZM78.2759 46.1989C78.3441 45.1804 79.0643 44.2727 80.2148 44.2727C81.3058 44.2727 82.0046 45.0909 82.0046 46.1989H78.2759ZM87.2163 50.1364C88.6651 50.1364 89.6197 49.25 89.7901 48.0909H88.7844C88.5969 48.8068 88.0004 49.233 87.2163 49.233C86.0231 49.233 85.256 48.2443 85.256 46.7273C85.256 45.2443 86.0401 44.2727 87.2163 44.2727C88.1026 44.2727 88.631 44.8182 88.7844 45.4148H89.7901C89.6197 44.1875 88.5799 43.3693 87.1992 43.3693C85.4265 43.3693 84.2504 44.767 84.2504 46.7614C84.2504 48.7216 85.3754 50.1364 87.2163 50.1364ZM93.9194 50.1364C95.6921 50.1364 96.8853 48.7898 96.8853 46.7614C96.8853 44.7159 95.6921 43.3693 93.9194 43.3693C92.1467 43.3693 90.9535 44.7159 90.9535 46.7614C90.9535 48.7898 92.1467 50.1364 93.9194 50.1364ZM93.9194 49.233C92.5728 49.233 91.9592 48.0739 91.9592 46.7614C91.9592 45.4489 92.5728 44.2727 93.9194 44.2727C95.266 44.2727 95.8796 45.4489 95.8796 46.7614C95.8796 48.0739 95.266 49.233 93.9194 49.233ZM99.4261 46.0625C99.4261 44.9205 100.134 44.2727 101.097 44.2727C102.03 44.2727 102.597 44.8821 102.597 45.9091V50H103.602V45.8409C103.602 44.1705 102.712 43.3693 101.386 43.3693C100.398 43.3693 99.7841 43.8125 99.4773 44.4773H99.392V43.4545H98.4205V50H99.4261V46.0625ZM107.912 50.1364C109.173 50.1364 109.599 49.3523 109.821 48.9943H109.94V50H110.912V41.2727H109.906V44.4943H109.821C109.599 44.1534 109.207 43.3693 107.929 43.3693C106.275 43.3693 105.133 44.6818 105.133 46.7443C105.133 48.8239 106.275 50.1364 107.912 50.1364ZM108.048 49.233C106.787 49.233 106.139 48.125 106.139 46.7273C106.139 45.3466 106.77 44.2727 108.048 44.2727C109.275 44.2727 109.923 45.2614 109.923 46.7273C109.923 48.2102 109.258 49.233 108.048 49.233ZM114.819 50.1534C115.961 50.1534 116.558 49.5398 116.762 49.1136H116.814V50H117.819V45.6875C117.819 43.608 116.234 43.3693 115.399 43.3693C114.41 43.3693 113.285 43.7102 112.774 44.9034L113.728 45.2443C113.95 44.767 114.474 44.2557 115.433 44.2557C116.358 44.2557 116.814 44.7457 116.814 45.5852V45.6193C116.814 46.1051 116.319 46.0625 115.126 46.2159C113.912 46.3736 112.586 46.642 112.586 48.142C112.586 49.4205 113.575 50.1534 114.819 50.1534ZM114.973 49.25C114.172 49.25 113.592 48.892 113.592 48.1932C113.592 47.4261 114.291 47.1875 115.075 47.0852C115.501 47.0341 116.643 46.9148 116.814 46.7102V47.6307C116.814 48.4489 116.166 49.25 114.973 49.25ZM119.655 50H120.661V45.858C120.661 44.9716 121.359 44.3239 122.314 44.3239C122.582 44.3239 122.859 44.375 122.928 44.392V43.3693C122.812 43.3608 122.548 43.3523 122.399 43.3523C121.615 43.3523 120.933 43.7955 120.695 44.4432H120.626V43.4545H119.655V50ZM124.967 52.4545C125.874 52.4545 126.513 51.973 126.893 50.9545L129.68 43.4716L128.58 43.4545L126.773 48.6705H126.705L124.898 43.4545H123.808L126.228 50.0341L126.04 50.5455C125.674 51.5426 125.222 51.6364 124.489 51.4489L124.234 52.3352C124.336 52.3864 124.626 52.4545 124.967 52.4545Z" fill="#718EBF"/>
<path d="M167.119 31H171.021C173.388 31 174.457 29.8217 174.457 28.2607C174.457 26.6847 173.353 25.7947 172.344 25.7401V25.6406C173.278 25.402 174.059 24.7656 174.059 23.4929C174.059 21.9865 173.015 20.8182 170.847 20.8182H167.119V31ZM168.655 29.6825V26.4212H170.927C172.16 26.4212 172.93 27.2166 172.93 28.1861C172.93 29.0412 172.349 29.6825 170.872 29.6825H168.655ZM168.655 25.223V22.1257H170.753C171.971 22.1257 172.553 22.767 172.553 23.6122C172.553 24.5966 171.747 25.223 170.713 25.223H168.655ZM178.382 31.169C179.645 31.169 180.355 30.5277 180.639 29.956H180.699V31H182.15V25.929C182.15 23.7067 180.4 23.2642 179.187 23.2642C177.805 23.2642 176.532 23.821 176.035 25.2131L177.432 25.5312C177.651 24.9893 178.208 24.4673 179.207 24.4673C180.167 24.4673 180.659 24.9695 180.659 25.8345V25.8693C180.659 26.4112 180.102 26.4013 178.73 26.5604C177.283 26.7294 175.801 27.1072 175.801 28.8423C175.801 30.3438 176.93 31.169 178.382 31.169ZM178.705 29.9759C177.865 29.9759 177.258 29.598 177.258 28.8622C177.258 28.0668 177.964 27.7834 178.824 27.669C179.306 27.6044 180.45 27.4751 180.664 27.2614V28.2457C180.664 29.1506 179.943 29.9759 178.705 29.9759ZM185.617 26.4659C185.617 25.2479 186.362 24.5518 187.396 24.5518C188.406 24.5518 189.017 25.2131 189.017 26.3217V31H190.504V26.1428C190.504 24.2536 189.465 23.2642 187.904 23.2642C186.755 23.2642 186.004 23.7962 185.651 24.6065H185.557V23.3636H184.13V31H185.617V26.4659ZM192.497 31H193.984V28.2905L194.725 27.5497L197.32 31H199.144L195.843 26.6399L198.936 23.3636H197.156L194.113 26.5952H193.984V20.8182H192.497V31Z" fill="#232323"/>
<path d="M167.415 50L168.293 47.5284H171.821L172.699 50H173.807L170.602 41.2727H169.511L166.307 50H167.415ZM168.625 46.5909L170.023 42.6534H170.091L171.489 46.5909H168.625ZM175.166 50H178.32C180.382 50 181.234 48.9943 181.234 47.6818C181.234 46.3011 180.28 45.5511 179.479 45.5V45.4148C180.229 45.2102 180.893 44.7159 180.893 43.5909C180.893 42.3125 180.041 41.2727 178.217 41.2727H175.166V50ZM176.223 49.0625V46.0284H178.371C179.513 46.0284 180.229 46.7955 180.229 47.6818C180.229 48.4489 179.7 49.0625 178.32 49.0625H176.223ZM176.223 45.108V42.2102H178.217C179.376 42.2102 179.888 42.8239 179.888 43.5909C179.888 44.5114 179.138 45.108 178.183 45.108H176.223ZM182.971 41.2727V50H183.96V43.3693H184.045L186.772 50H187.727L190.454 43.3693H190.539V50H191.528V41.2727H190.266L187.3 48.517H187.198L184.232 41.2727H182.971ZM197.022 50H200.175C202.238 50 203.09 48.9943 203.09 47.6818C203.09 46.3011 202.135 45.5511 201.334 45.5V45.4148C202.084 45.2102 202.749 44.7159 202.749 43.5909C202.749 42.3125 201.897 41.2727 200.073 41.2727H197.022V50ZM198.078 49.0625V46.0284H200.226C201.368 46.0284 202.084 46.7955 202.084 47.6818C202.084 48.4489 201.556 49.0625 200.175 49.0625H198.078ZM198.078 45.108V42.2102H200.073C201.232 42.2102 201.743 42.8239 201.743 43.5909C201.743 44.5114 200.993 45.108 200.039 45.108H198.078ZM206.616 50.1534C207.758 50.1534 208.355 49.5398 208.559 49.1136H208.61V50H209.616V45.6875C209.616 43.608 208.031 43.3693 207.196 43.3693C206.207 43.3693 205.082 43.7102 204.571 44.9034L205.525 45.2443C205.747 44.767 206.271 44.2557 207.23 44.2557C208.154 44.2557 208.61 44.7457 208.61 45.5852V45.6193C208.61 46.1051 208.116 46.0625 206.923 46.2159C205.708 46.3736 204.383 46.642 204.383 48.142C204.383 49.4205 205.372 50.1534 206.616 50.1534ZM206.77 49.25C205.968 49.25 205.389 48.892 205.389 48.1932C205.389 47.4261 206.088 47.1875 206.872 47.0852C207.298 47.0341 208.44 46.9148 208.61 46.7102V47.6307C208.61 48.4489 207.963 49.25 206.77 49.25ZM212.457 46.0625C212.457 44.9205 213.165 44.2727 214.128 44.2727C215.061 44.2727 215.628 44.8821 215.628 45.9091V50H216.634V45.8409C216.634 44.1705 215.743 43.3693 214.418 43.3693C213.429 43.3693 212.815 43.8125 212.509 44.4773H212.423V43.4545H211.452V50H212.457V46.0625ZM218.471 50H219.477V47.5497L220.18 46.8977L222.63 50H223.909L220.939 46.25L223.704 43.4545H222.46L219.596 46.3693H219.477V41.2727H218.471V50Z" fill="#718EBF"/>
<path d="M246.578 31H245.273L248.152 39H249.547L252.426 31H251.121L248.895 37.5156H248.805L246.578 31ZM253.487 39H254.655V33H253.487V39ZM254.077 32.0742C254.479 32.0742 254.815 31.7617 254.815 31.3789C254.815 30.9961 254.479 30.6797 254.077 30.6797C253.671 30.6797 253.339 30.9961 253.339 31.3789C253.339 31.7617 253.671 32.0742 254.077 32.0742ZM258.812 39.1211C260.121 39.1211 261.047 38.4766 261.313 37.5L260.207 37.3008C259.996 37.8672 259.488 38.1562 258.824 38.1562C257.824 38.1562 257.152 37.5078 257.121 36.3516H261.387V35.9375C261.387 33.7695 260.09 32.9219 258.73 32.9219C257.059 32.9219 255.957 34.1953 255.957 36.0391C255.957 37.9023 257.043 39.1211 258.812 39.1211ZM257.125 35.4766C257.172 34.625 257.789 33.8867 258.738 33.8867C259.645 33.8867 260.238 34.5586 260.242 35.4766H257.125ZM263.973 39H265.16L266.379 34.668H266.469L267.688 39H268.879L270.641 33H269.434L268.266 37.3867H268.207L267.035 33H265.828L264.648 37.4062H264.59L263.414 33H262.207L263.973 39ZM277.344 39C279.781 39 281.191 37.4883 281.191 34.9883C281.191 32.5 279.781 31 277.426 31H274.754V39H277.344ZM275.961 37.9453V32.0547H277.352C279.102 32.0547 280.004 33.1016 280.004 34.9883C280.004 36.8828 279.102 37.9453 277.277 37.9453H275.961ZM285.185 39.1211C286.493 39.1211 287.419 38.4766 287.685 37.5L286.579 37.3008C286.368 37.8672 285.86 38.1562 285.196 38.1562C284.196 38.1562 283.524 37.5078 283.493 36.3516H287.759V35.9375C287.759 33.7695 286.462 32.9219 285.103 32.9219C283.431 32.9219 282.329 34.1953 282.329 36.0391C282.329 37.9023 283.415 39.1211 285.185 39.1211ZM283.497 35.4766C283.544 34.625 284.161 33.8867 285.11 33.8867C286.017 33.8867 286.61 34.5586 286.614 35.4766H283.497ZM291.855 33H290.625V31.5625H289.457V33H288.578V33.9375H289.457V37.4805C289.453 38.5703 290.285 39.0977 291.207 39.0781C291.578 39.0742 291.828 39.0039 291.965 38.9531L291.754 37.9883C291.676 38.0039 291.531 38.0391 291.344 38.0391C290.965 38.0391 290.625 37.9141 290.625 37.2383V33.9375H291.855V33ZM294.894 39.1328C295.886 39.1328 296.444 38.6289 296.667 38.1797H296.714V39H297.854V35.0156C297.854 33.2695 296.479 32.9219 295.526 32.9219C294.44 32.9219 293.44 33.3594 293.05 34.4531L294.147 34.7031C294.319 34.2773 294.757 33.8672 295.542 33.8672C296.296 33.8672 296.683 34.2617 296.683 34.9414V34.9687C296.683 35.3945 296.245 35.3867 295.167 35.5117C294.03 35.6445 292.866 35.9414 292.866 37.3047C292.866 38.4844 293.753 39.1328 294.894 39.1328ZM295.147 38.1953C294.487 38.1953 294.011 37.8984 294.011 37.3203C294.011 36.6953 294.565 36.4727 295.241 36.3828C295.62 36.332 296.519 36.2305 296.687 36.0625V36.8359C296.687 37.5469 296.12 38.1953 295.147 38.1953ZM299.41 39H300.578V33H299.41V39ZM300 32.0742C300.402 32.0742 300.738 31.7617 300.738 31.3789C300.738 30.9961 300.402 30.6797 300 30.6797C299.594 30.6797 299.262 30.9961 299.262 31.3789C299.262 31.7617 299.594 32.0742 300 32.0742ZM303.317 31H302.149V39H303.317V31ZM309.385 34.4648C309.143 33.5312 308.412 32.9219 307.115 32.9219C305.76 32.9219 304.799 33.6367 304.799 34.6992C304.799 35.5508 305.314 36.1172 306.439 36.3672L307.455 36.5898C308.033 36.7187 308.303 36.9766 308.303 37.3516C308.303 37.8164 307.807 38.1797 307.041 38.1797C306.342 38.1797 305.893 37.8789 305.752 37.2891L304.623 37.4609C304.818 38.5234 305.701 39.1211 307.049 39.1211C308.498 39.1211 309.502 38.3516 309.502 37.2656C309.502 36.418 308.963 35.8945 307.861 35.6406L306.908 35.4219C306.248 35.2656 305.963 35.043 305.967 34.6367C305.963 34.1758 306.463 33.8477 307.127 33.8477C307.854 33.8477 308.189 34.25 308.326 34.6523L309.385 34.4648Z" fill="#1814F3"/>
<defs>
<clipPath id="clip0_1_2537">
<rect width="20" height="20" fill="white" transform="translate(25 25)"/>
</clipPath>
</defs>
</svg>
