<svg width="30" height="30" viewBox="0 0 30 30" fill="none" xmlns="http://www.w3.org/2000/svg">
<path d="M25.1322 0C23.4163 0 22.0253 1.39102 22.0253 3.10693V12.3773H27.3602C27.8456 12.3773 28.2391 11.9838 28.2391 11.4984V3.10693C28.2391 1.39102 26.8481 0 25.1322 0V0Z" fill="#FF82AC"/>
<path d="M10.6266 22.0898C10.6266 16.7805 14.9456 12.4076 20.3261 12.4223V3.48551C20.3261 2.14857 20.8293 0.927129 21.656 0H6.1541C3.73184 0 1.76074 1.97109 1.76074 4.39336V29.1053C1.76074 29.8959 2.72795 30.2844 3.2748 29.7129L4.39922 28.5387L5.58691 29.727C5.92969 30.0697 6.48633 30.0697 6.82969 29.727L7.95527 28.602L9.09199 29.7293C9.43477 30.0691 9.9873 30.0691 10.3301 29.7293L11.485 28.5844L12.6404 29.7293C12.9826 30.0691 13.5346 30.0691 13.8773 29.7299L14.1012 29.5084C11.922 27.6864 10.6266 24.9923 10.6266 22.0898ZM8.87086 7.08984H10.6055V5.35523C10.6055 4.86984 10.999 4.47633 11.4844 4.47633C11.9698 4.47633 12.3633 4.86984 12.3633 5.35523V7.08984H14.0979C14.5833 7.08984 14.9768 7.48336 14.9768 7.96875C14.9768 8.45414 14.5833 8.84766 14.0979 8.84766H12.3633V10.5823C12.3633 11.0677 11.9698 11.4612 11.4844 11.4612C10.999 11.4612 10.6055 11.0677 10.6055 10.5823V8.84766H8.87086C8.38547 8.84766 7.99195 8.45414 7.99195 7.96875C7.99195 7.48336 8.38547 7.08984 8.87086 7.08984ZM6.21088 13.2451H12.1289C12.6143 13.2451 13.0078 13.6386 13.0078 14.124C13.0078 14.6094 12.6143 15.0029 12.1289 15.0029H6.21088C5.72549 15.0029 5.33197 14.6094 5.33197 14.124C5.33197 13.6386 5.72549 13.2451 6.21088 13.2451ZM9.1435 22.0283H6.20502C5.71963 22.0283 5.32611 21.6348 5.32611 21.1494C5.32611 20.664 5.71963 20.2705 6.20502 20.2705H9.1435C9.62889 20.2705 10.0224 20.664 10.0224 21.1494C10.0224 21.6348 9.62889 22.0283 9.1435 22.0283ZM9.72949 18.5186H6.20789C5.7225 18.5186 5.32898 18.125 5.32898 17.6396C5.32898 17.1543 5.7225 16.7607 6.20789 16.7607H9.72949C10.2149 16.7607 10.6084 17.1543 10.6084 17.6396C10.6084 18.125 10.2149 18.5186 9.72949 18.5186Z" fill="#FF82AC"/>
<path d="M20.2946 14.1797C15.9329 14.1797 12.3844 17.7282 12.3844 22.0898C12.3844 26.4515 15.9329 30 20.2946 30C24.6562 30 28.2047 26.4515 28.2047 22.0898C28.2047 17.7282 24.6562 14.1797 20.2946 14.1797ZM21.1762 25.4747V25.5583C21.1762 26.0437 20.7827 26.4372 20.2973 26.4372C19.8119 26.4372 19.4184 26.0437 19.4184 25.5583V25.5434C19.0247 25.4496 18.6594 25.2945 18.3698 25.105C17.9636 24.8392 17.8497 24.2946 18.1155 23.8883C18.3812 23.482 18.9259 23.3682 19.3322 23.634C19.6919 23.8693 20.2848 23.9587 20.5763 23.8216C20.7651 23.7327 20.9113 23.543 20.9316 23.3603C20.9751 22.9712 20.3654 22.7541 20.0014 22.6103C19.4505 22.3927 18.7648 22.1219 18.3668 21.4033C17.7994 20.3791 18.2963 19.0287 19.4184 18.5669V18.5227C19.4184 18.0373 19.8119 17.6437 20.2973 17.6437C20.7779 17.6437 21.1678 18.0296 21.1755 18.5084C21.4919 18.6073 21.7833 18.7655 22.0166 18.9807C22.3735 19.3098 22.3959 19.8658 22.0668 20.2226C21.7377 20.5795 21.1816 20.6019 20.8248 20.2728C20.6803 20.1394 20.2347 20.0856 20.041 20.2156C19.9108 20.3031 19.8598 20.4709 19.9044 20.5514C20.09 20.8865 21.0621 21.0013 21.7977 21.5746C23.3005 22.7457 22.7776 24.8604 21.1762 25.4747Z" fill="#FF82AC"/>
</svg>
