<svg width="30" height="30" viewBox="0 0 30 30" fill="none" xmlns="http://www.w3.org/2000/svg">
<path d="M17.6873 14.843C21.7795 14.843 25.1082 11.5137 25.1082 7.42151C25.1082 3.32931 21.7795 0 17.6873 0C13.5951 0 10.2657 3.32931 10.2657 7.42151C10.2657 11.5137 13.5951 14.843 17.6873 14.843ZM16.8083 3.05919V2.85763C16.8083 2.37188 17.2015 1.97872 17.6873 1.97872C18.1724 1.97872 18.5662 2.37188 18.5662 2.85763V3.06036C19.6121 3.28478 20.399 4.21642 20.399 5.32853C20.399 5.81369 20.0052 6.20744 19.5201 6.20744C19.0343 6.20744 18.6412 5.81369 18.6412 5.32853C18.6412 5.01857 18.3886 4.76603 18.0787 4.76603H17.2906C16.9806 4.76603 16.7281 5.01857 16.7281 5.32853C16.7281 5.50607 16.813 5.67482 16.956 5.78029L17.6873 6.3217L19.4638 7.63655C20.0474 8.06838 20.399 8.75921 20.4037 9.48577V9.49397C20.4078 10.1139 20.1705 10.6987 19.7345 11.1399C19.4111 11.4674 19.0068 11.6871 18.5662 11.7797V11.9854C18.5662 12.4711 18.1724 12.8643 17.6873 12.8643C17.2015 12.8643 16.8083 12.4711 16.8083 11.9854V11.7827C16.3794 11.6912 15.9851 11.4803 15.6664 11.1651C15.2251 10.7297 14.9802 10.1485 14.9767 9.52855C14.9738 9.04339 15.3646 8.64729 15.8498 8.64436H15.8556C16.3384 8.64436 16.7316 9.0346 16.7345 9.518C16.7357 9.82134 16.9797 10.077 17.2999 10.077C17.7856 10.0741 17.6047 10.0751 18.0869 10.0723C18.3988 10.0698 18.6483 9.81665 18.6459 9.50569V9.49749C18.6447 9.32171 18.5597 9.15413 18.4179 9.04925L17.6873 8.50843L15.9101 7.19358C15.3218 6.75764 14.9703 6.06037 14.9703 5.32853C14.9703 4.21408 15.7595 3.28185 16.8083 3.05919Z" fill="#396AFF"/>
<path d="M5.66251 19.0661C5.43721 18.6755 4.93676 18.5397 4.54377 18.7664L0.409502 21.1529C0.018036 21.3795 -0.116261 21.8801 0.109736 22.2721L4.33518 29.5906C4.56135 29.982 5.06174 30.1164 5.45391 29.8904L9.58818 27.5033C9.98024 27.2772 10.114 26.7766 9.88795 26.3846L5.66251 19.0661Z" fill="#396AFF"/>
<path d="M29.3515 17.6051C28.9536 17.0525 28.1837 16.9277 27.6318 17.3256C25.9571 18.532 22.7415 20.8488 22.486 21.0334C22.3683 21.1336 22.2446 21.2244 22.1157 21.3047C21.6101 21.6229 21.0235 21.7928 20.4112 21.7928H16.2012C15.7161 21.7928 15.3223 21.3996 15.3223 20.9139C15.3223 20.4276 15.7167 20.035 16.2012 20.035H20.7036C21.3651 20.035 21.8948 19.4842 21.8673 18.8215C21.8415 18.1928 21.3048 17.7053 20.6755 17.7053H17.2483C17.0163 17.4598 16.762 17.2348 16.4895 17.0338C15.5526 16.343 14.3948 15.9346 13.1415 15.9346C10.9131 15.9346 8.69595 17.3385 7.77661 19.2123L11.3719 25.4391H18.1161C19.4403 25.4391 20.7446 25.1004 21.8925 24.4401C22.2903 24.2115 22.7163 23.9367 23.178 23.6051C25.1128 22.2153 29.0685 19.3277 29.0714 19.326C29.6245 18.9287 29.7499 18.1576 29.3515 17.6051Z" fill="#396AFF"/>
</svg>
