<svg width="635" height="90" viewBox="0 0 635 90" fill="none" xmlns="http://www.w3.org/2000/svg">
<rect width="635" height="90" rx="20" fill="white"/>
<path d="M95.7045 27.875H99.3295V38H101.08V27.875H104.71V26.3636H95.7045V27.875ZM109.06 38.1761C110.963 38.1761 112.31 37.2386 112.696 35.8182L111.088 35.5284C110.781 36.3523 110.043 36.7727 109.077 36.7727C107.622 36.7727 106.645 35.8295 106.599 34.1477H112.804V33.5455C112.804 30.392 110.918 29.1591 108.94 29.1591C106.509 29.1591 104.906 31.0114 104.906 33.6932C104.906 36.4034 106.486 38.1761 109.06 38.1761ZM106.605 32.875C106.673 31.6364 107.571 30.5625 108.952 30.5625C110.27 30.5625 111.134 31.5398 111.139 32.875H106.605ZM121.229 31.4034C120.876 30.0455 119.814 29.1591 117.928 29.1591C115.956 29.1591 114.558 30.1989 114.558 31.7443C114.558 32.983 115.308 33.8068 116.945 34.1705L118.422 34.4943C119.263 34.6818 119.655 35.0568 119.655 35.6023C119.655 36.2784 118.933 36.8068 117.82 36.8068C116.803 36.8068 116.149 36.3693 115.945 35.5114L114.303 35.7614C114.587 37.3068 115.871 38.1761 117.831 38.1761C119.939 38.1761 121.399 37.0568 121.399 35.4773C121.399 34.2443 120.615 33.483 119.013 33.1136L117.626 32.7955C116.666 32.5682 116.251 32.2443 116.257 31.6534C116.251 30.983 116.979 30.5057 117.945 30.5057C119.001 30.5057 119.49 31.0909 119.689 31.6761L121.229 31.4034ZM124.966 26.3636H123.267V38H124.966V26.3636ZM129.791 38.1932C131.234 38.1932 132.047 37.4602 132.371 36.8068H132.439V38H134.098V32.2045C134.098 29.6648 132.098 29.1591 130.712 29.1591C129.132 29.1591 127.678 29.7955 127.109 31.3864L128.706 31.75C128.956 31.1307 129.592 30.5341 130.734 30.5341C131.831 30.5341 132.393 31.108 132.393 32.0966V32.1364C132.393 32.7557 131.757 32.7443 130.189 32.9261C128.536 33.1193 126.842 33.5511 126.842 35.5341C126.842 37.25 128.132 38.1932 129.791 38.1932ZM130.161 36.8295C129.2 36.8295 128.507 36.3977 128.507 35.5568C128.507 34.6477 129.314 34.3239 130.297 34.1932C130.848 34.1193 132.155 33.9716 132.399 33.7273V34.8523C132.399 35.8864 131.575 36.8295 130.161 36.8295ZM140.732 26.3636V38H142.402V29.5739H142.51L145.942 37.983H147.328L150.76 29.5795H150.868V38H152.538V26.3636H150.408L146.703 35.4091H146.567L142.862 26.3636H140.732ZM158.631 38.1761C161.091 38.1761 162.699 36.375 162.699 33.6761C162.699 30.9602 161.091 29.1591 158.631 29.1591C156.17 29.1591 154.562 30.9602 154.562 33.6761C154.562 36.375 156.17 38.1761 158.631 38.1761ZM158.636 36.75C157.028 36.75 156.278 35.3466 156.278 33.6705C156.278 32 157.028 30.5795 158.636 30.5795C160.233 30.5795 160.983 32 160.983 33.6705C160.983 35.3466 160.233 36.75 158.636 36.75ZM168.669 29.2727H166.879V27.1818H165.18V29.2727H163.902V30.6364H165.18V35.7898C165.175 37.375 166.385 38.142 167.726 38.1136C168.266 38.108 168.629 38.0057 168.828 37.9318L168.521 36.5284C168.408 36.5511 168.197 36.6023 167.925 36.6023C167.374 36.6023 166.879 36.4205 166.879 35.4375V30.6364H168.669V29.2727ZM174.131 38.1761C176.591 38.1761 178.199 36.375 178.199 33.6761C178.199 30.9602 176.591 29.1591 174.131 29.1591C171.67 29.1591 170.062 30.9602 170.062 33.6761C170.062 36.375 171.67 38.1761 174.131 38.1761ZM174.136 36.75C172.528 36.75 171.778 35.3466 171.778 33.6705C171.778 32 172.528 30.5795 174.136 30.5795C175.733 30.5795 176.483 32 176.483 33.6705C176.483 35.3466 175.733 36.75 174.136 36.75ZM180.095 38H181.794V32.6705C181.794 31.5284 182.675 30.7045 183.879 30.7045C184.232 30.7045 184.629 30.767 184.766 30.8068V29.1818C184.595 29.1591 184.26 29.142 184.044 29.142C183.021 29.142 182.146 29.7216 181.828 30.6591H181.737V29.2727H180.095V38ZM192.776 31.4034C192.423 30.0455 191.361 29.1591 189.474 29.1591C187.503 29.1591 186.105 30.1989 186.105 31.7443C186.105 32.983 186.855 33.8068 188.491 34.1705L189.969 34.4943C190.81 34.6818 191.202 35.0568 191.202 35.6023C191.202 36.2784 190.48 36.8068 189.366 36.8068C188.349 36.8068 187.696 36.3693 187.491 35.5114L185.849 35.7614C186.134 37.3068 187.418 38.1761 189.378 38.1761C191.486 38.1761 192.946 37.0568 192.946 35.4773C192.946 34.2443 192.162 33.483 190.56 33.1136L189.173 32.7955C188.213 32.5682 187.798 32.2443 187.804 31.6534C187.798 30.983 188.526 30.5057 189.491 30.5057C190.548 30.5057 191.037 31.0909 191.236 31.6761L192.776 31.4034Z" fill="#232323"/>
<path d="M96.321 63H102.99V61.8281H97.642V58.1207H102.564V56.9489H97.642V53.2628H102.905V52.0909H96.321V63ZM106.373 52.0909H105.115V63H106.373V52.0909ZM112.105 63.1705C113.767 63.1705 114.982 62.3395 115.365 61.1037L114.151 60.7628C113.831 61.6151 113.091 62.0412 112.105 62.0412C110.63 62.0412 109.612 61.0877 109.554 59.3352H115.493V58.8026C115.493 55.7557 113.682 54.7116 111.978 54.7116C109.762 54.7116 108.291 56.4588 108.291 58.973C108.291 61.4872 109.74 63.1705 112.105 63.1705ZM109.554 58.2486C109.639 56.9755 110.539 55.8409 111.978 55.8409C113.341 55.8409 114.215 56.8636 114.215 58.2486H109.554ZM120.729 63.1705C122.54 63.1705 123.734 62.0625 123.947 60.6136H122.69C122.455 61.5085 121.709 62.0412 120.729 62.0412C119.238 62.0412 118.279 60.8054 118.279 58.9091C118.279 57.0554 119.259 55.8409 120.729 55.8409C121.837 55.8409 122.498 56.5227 122.69 57.2685H123.947C123.734 55.7344 122.434 54.7116 120.708 54.7116C118.492 54.7116 117.022 56.4588 117.022 58.9517C117.022 61.402 118.428 63.1705 120.729 63.1705ZM129.343 54.8182H127.595V52.858H126.338V54.8182H125.103V55.8835H126.338V60.9972C126.338 62.4247 127.489 63.1065 128.554 63.1065C129.023 63.1065 129.321 63.0213 129.492 62.9574L129.236 61.8281C129.13 61.8494 128.959 61.892 128.682 61.892C128.128 61.892 127.595 61.7216 127.595 60.6562V55.8835H129.343V54.8182ZM131.234 63H132.491V57.8224C132.491 56.7145 133.364 55.9048 134.557 55.9048C134.893 55.9048 135.239 55.9688 135.324 55.9901V54.7116C135.181 54.701 134.85 54.6903 134.664 54.6903C133.684 54.6903 132.832 55.2443 132.533 56.054H132.448V54.8182H131.234V63ZM136.815 63H138.072V54.8182H136.815V63ZM137.454 53.4545C137.944 53.4545 138.349 53.071 138.349 52.6023C138.349 52.1335 137.944 51.75 137.454 51.75C136.964 51.75 136.559 52.1335 136.559 52.6023C136.559 53.071 136.964 53.4545 137.454 53.4545ZM143.698 63.1705C145.509 63.1705 146.702 62.0625 146.915 60.6136H145.658C145.424 61.5085 144.678 62.0412 143.698 62.0412C142.207 62.0412 141.248 60.8054 141.248 58.9091C141.248 57.0554 142.228 55.8409 143.698 55.8409C144.806 55.8409 145.467 56.5227 145.658 57.2685H146.915C146.702 55.7344 145.403 54.7116 143.677 54.7116C141.461 54.7116 139.991 56.4588 139.991 58.9517C139.991 61.402 141.397 63.1705 143.698 63.1705ZM153.59 52.0909H152.205L156.21 63H157.574L161.58 52.0909H160.195L156.956 61.2741H156.828L153.59 52.0909ZM165.777 63.1705C167.439 63.1705 168.654 62.3395 169.037 61.1037L167.823 60.7628C167.503 61.6151 166.763 62.0412 165.777 62.0412C164.302 62.0412 163.284 61.0877 163.226 59.3352H169.165V58.8026C169.165 55.7557 167.354 54.7116 165.649 54.7116C163.434 54.7116 161.963 56.4588 161.963 58.973C161.963 61.4872 163.412 63.1705 165.777 63.1705ZM163.226 58.2486C163.311 56.9755 164.211 55.8409 165.649 55.8409C167.013 55.8409 167.887 56.8636 167.887 58.2486H163.226ZM172.334 58.0781C172.334 56.6506 173.245 55.8409 174.486 55.8409C175.669 55.8409 176.383 56.5866 176.383 57.8864V63H177.64V57.8011C177.64 55.6971 176.521 54.7116 174.849 54.7116C173.56 54.7116 172.824 55.2496 172.441 56.0966H172.334V52.0909H171.077V63H172.334V58.0781ZM179.94 63H181.197V54.8182H179.94V63ZM180.579 53.4545C181.069 53.4545 181.474 53.071 181.474 52.6023C181.474 52.1335 181.069 51.75 180.579 51.75C180.089 51.75 179.684 52.1335 179.684 52.6023C179.684 53.071 180.089 53.4545 180.579 53.4545ZM186.823 63.1705C188.634 63.1705 189.827 62.0625 190.04 60.6136H188.783C188.549 61.5085 187.803 62.0412 186.823 62.0412C185.332 62.0412 184.373 60.8054 184.373 58.9091C184.373 57.0554 185.353 55.8409 186.823 55.8409C187.931 55.8409 188.592 56.5227 188.783 57.2685H190.04C189.827 55.7344 188.528 54.7116 186.802 54.7116C184.586 54.7116 183.116 56.4588 183.116 58.9517C183.116 61.402 184.522 63.1705 186.823 63.1705ZM193.135 52.0909H191.878V63H193.135V52.0909ZM198.868 63.1705C200.53 63.1705 201.744 62.3395 202.128 61.1037L200.914 60.7628C200.594 61.6151 199.854 62.0412 198.868 62.0412C197.393 62.0412 196.375 61.0877 196.317 59.3352H202.256V58.8026C202.256 55.7557 200.445 54.7116 198.74 54.7116C196.524 54.7116 195.054 56.4588 195.054 58.973C195.054 61.4872 196.503 63.1705 198.868 63.1705ZM196.317 58.2486C196.402 56.9755 197.302 55.8409 198.74 55.8409C200.104 55.8409 200.977 56.8636 200.977 58.2486H196.317ZM209.964 56.6506C209.569 55.4893 208.685 54.7116 207.066 54.7116C205.34 54.7116 204.062 55.6918 204.062 57.0767C204.062 58.206 204.733 58.9624 206.235 59.3139L207.599 59.6335C208.424 59.8253 208.813 60.2195 208.813 60.7841C208.813 61.4872 208.067 62.0625 206.895 62.0625C205.867 62.0625 205.223 61.6204 204.999 60.7415L203.806 61.0398C204.099 62.43 205.244 63.1705 206.917 63.1705C208.818 63.1705 210.113 62.1317 210.113 60.7202C210.113 59.5803 209.399 58.8612 207.939 58.5043L206.725 58.206C205.756 57.9663 205.319 57.6413 205.319 57.0128C205.319 56.3097 206.064 55.7983 207.066 55.7983C208.163 55.7983 208.616 56.4055 208.834 56.9702L209.964 56.6506Z" fill="#718EBF"/>
<path d="M342.625 39.4545H343.693L343.699 38.1761C346.102 38 347.477 36.625 347.477 34.7841C347.477 32.6875 345.608 31.875 344.131 31.5114L343.716 31.4034L343.727 27.7557C344.79 27.8977 345.517 28.4886 345.625 29.4205H347.318C347.273 27.6875 345.841 26.392 343.733 26.2216L343.739 24.9091H342.67L342.665 26.233C340.625 26.4375 339.131 27.7102 339.131 29.5455C339.131 31.1648 340.29 32.1136 342.159 32.6193L342.648 32.75L342.636 36.6193C341.528 36.483 340.67 35.8807 340.58 34.7841H338.818C338.926 36.7443 340.341 38.0057 342.631 38.1761L342.625 39.4545ZM343.705 36.6193L343.716 33.0455C344.869 33.3636 345.739 33.7841 345.739 34.767C345.739 35.7614 344.909 36.4602 343.705 36.6193ZM342.653 31.1193C341.807 30.8693 340.875 30.4205 340.881 29.4432C340.881 28.5909 341.557 27.9261 342.659 27.7614L342.653 31.1193ZM353.348 38.1591C355.768 38.1591 357.479 36.7841 357.49 34.8977C357.479 33.4318 356.45 32.1989 355.149 31.9659V31.8977C356.28 31.625 357.047 30.5625 357.058 29.3068C357.047 27.5284 355.479 26.2045 353.348 26.2045C351.195 26.2045 349.626 27.5284 349.638 29.3068C349.626 30.5568 350.393 31.625 351.547 31.8977V31.9659C350.223 32.1989 349.195 33.4318 349.206 34.8977C349.195 36.7841 350.905 38.1591 353.348 38.1591ZM353.348 36.7216C351.893 36.7216 350.973 35.9489 350.984 34.7841C350.973 33.5739 351.973 32.7102 353.348 32.7102C354.7 32.7102 355.7 33.5739 355.712 34.7841C355.7 35.9489 354.786 36.7216 353.348 36.7216ZM353.348 31.3068C352.172 31.3068 351.337 30.5625 351.348 29.4545C351.337 28.3636 352.143 27.642 353.348 27.642C354.53 27.642 355.337 28.3636 355.348 29.4545C355.337 30.5625 354.507 31.3068 353.348 31.3068ZM361.399 36.4091H359.763L359.706 37.0455C359.575 38.5852 359.212 40.1364 359.058 40.8409H360.263C360.536 40.0966 361.138 38.392 361.314 37.0284L361.399 36.4091ZM363.776 38H371.435V36.4943H366.196V36.4091L368.509 33.9886C370.639 31.8352 371.247 30.8068 371.247 29.5057C371.247 27.6364 369.724 26.2045 367.531 26.2045C365.355 26.2045 363.764 27.6136 363.764 29.7386H365.44C365.435 28.4886 366.241 27.6705 367.497 27.6705C368.679 27.6705 369.577 28.3977 369.577 29.5568C369.577 30.5852 368.963 31.3239 367.713 32.6477L363.776 36.7273V38ZM377.639 38.1932C380.327 38.1932 381.901 36 381.901 32.1875C381.901 28.4034 380.304 26.2045 377.639 26.2045C374.969 26.2045 373.378 28.3977 373.372 32.1875C373.372 35.9943 374.946 38.1875 377.639 38.1932ZM377.639 36.6761C376.065 36.6761 375.116 35.0966 375.116 32.1875C375.122 29.2898 376.071 27.6932 377.639 27.6932C379.202 27.6932 380.156 29.2898 380.156 32.1875C380.156 35.0966 379.207 36.6761 377.639 36.6761ZM387.967 38.1932C390.655 38.1932 392.229 36 392.229 32.1875C392.229 28.4034 390.632 26.2045 387.967 26.2045C385.297 26.2045 383.706 28.3977 383.7 32.1875C383.7 35.9943 385.274 38.1875 387.967 38.1932ZM387.967 36.6761C386.393 36.6761 385.445 35.0966 385.445 32.1875C385.45 29.2898 386.399 27.6932 387.967 27.6932C389.53 27.6932 390.484 29.2898 390.484 32.1875C390.484 35.0966 389.536 36.6761 387.967 36.6761Z" fill="#232323"/>
<path d="M339.321 63H345.99V61.8281H340.642V58.1207H345.564V56.9489H340.642V53.2628H345.905V52.0909H339.321V63ZM349.373 58.0781C349.373 56.6506 350.257 55.8409 351.461 55.8409C352.627 55.8409 353.336 56.6026 353.336 57.8864V63H354.593V57.8011C354.593 55.7131 353.479 54.7116 351.823 54.7116C350.587 54.7116 349.82 55.2656 349.436 56.0966H349.33V54.8182H348.115V63H349.373V58.0781ZM363.287 54.8182H361.924L359.665 61.3381H359.58L357.321 54.8182H355.958L358.983 63H360.262L363.287 54.8182ZM368.084 63.1705C369.746 63.1705 370.96 62.3395 371.344 61.1037L370.129 60.7628C369.81 61.6151 369.069 62.0412 368.084 62.0412C366.608 62.0412 365.591 61.0877 365.532 59.3352H371.472V58.8026C371.472 55.7557 369.661 54.7116 367.956 54.7116C365.74 54.7116 364.27 56.4588 364.27 58.973C364.27 61.4872 365.719 63.1705 368.084 63.1705ZM365.532 58.2486C365.618 56.9755 366.518 55.8409 367.956 55.8409C369.32 55.8409 370.193 56.8636 370.193 58.2486H365.532ZM379.179 56.6506C378.785 55.4893 377.901 54.7116 376.282 54.7116C374.556 54.7116 373.277 55.6918 373.277 57.0767C373.277 58.206 373.949 58.9624 375.451 59.3139L376.814 59.6335C377.64 59.8253 378.029 60.2195 378.029 60.7841C378.029 61.4872 377.283 62.0625 376.111 62.0625C375.083 62.0625 374.439 61.6204 374.215 60.7415L373.022 61.0398C373.315 62.43 374.46 63.1705 376.133 63.1705C378.034 63.1705 379.329 62.1317 379.329 60.7202C379.329 59.5803 378.615 58.8612 377.155 58.5043L375.941 58.206C374.971 57.9663 374.535 57.6413 374.535 57.0128C374.535 56.3097 375.28 55.7983 376.282 55.7983C377.379 55.7983 377.832 56.4055 378.05 56.9702L379.179 56.6506ZM384.779 54.8182H383.032V52.858H381.775V54.8182H380.539V55.8835H381.775V60.9972C381.775 62.4247 382.925 63.1065 383.991 63.1065C384.46 63.1065 384.758 63.0213 384.928 62.9574L384.673 61.8281C384.566 61.8494 384.396 61.892 384.119 61.892C383.565 61.892 383.032 61.7216 383.032 60.6562V55.8835H384.779V54.8182ZM386.67 63H387.927V57.8864C387.927 56.6879 388.801 55.8409 389.781 55.8409C390.734 55.8409 391.4 56.4641 391.4 57.3963V63H392.679V57.6733C392.679 56.6186 393.339 55.8409 394.49 55.8409C395.385 55.8409 396.152 56.315 396.152 57.5241V63H397.409V57.5241C397.409 55.6012 396.375 54.7116 394.916 54.7116C393.744 54.7116 392.886 55.2496 392.466 56.0966H392.38C391.975 55.223 391.262 54.7116 390.186 54.7116C389.12 54.7116 388.332 55.223 387.991 56.0966H387.885V54.8182H386.67V63ZM403.138 63.1705C404.8 63.1705 406.014 62.3395 406.398 61.1037L405.183 60.7628C404.863 61.6151 404.123 62.0412 403.138 62.0412C401.662 62.0412 400.645 61.0877 400.586 59.3352H406.525V58.8026C406.525 55.7557 404.714 54.7116 403.01 54.7116C400.794 54.7116 399.324 56.4588 399.324 58.973C399.324 61.4872 400.773 63.1705 403.138 63.1705ZM400.586 58.2486C400.671 56.9755 401.572 55.8409 403.01 55.8409C404.373 55.8409 405.247 56.8636 405.247 58.2486H400.586ZM409.695 58.0781C409.695 56.6506 410.579 55.8409 411.783 55.8409C412.949 55.8409 413.658 56.6026 413.658 57.8864V63H414.915V57.8011C414.915 55.7131 413.802 54.7116 412.145 54.7116C410.909 54.7116 410.142 55.2656 409.759 56.0966H409.652V54.8182H408.438V63H409.695V58.0781ZM420.77 54.8182H419.023V52.858H417.766V54.8182H416.53V55.8835H417.766V60.9972C417.766 62.4247 418.917 63.1065 419.982 63.1065C420.451 63.1065 420.749 63.0213 420.919 62.9574L420.664 61.8281C420.557 61.8494 420.387 61.892 420.11 61.892C419.556 61.892 419.023 61.7216 419.023 60.6562V55.8835H420.77V54.8182ZM427.498 52.0909H426.113L430.119 63H431.482L435.488 52.0909H434.103L430.864 61.2741H430.737L427.498 52.0909ZM438.663 63.1918C440.09 63.1918 440.836 62.4247 441.092 61.892H441.156V63H442.413V57.6094C442.413 55.0099 440.431 54.7116 439.387 54.7116C438.151 54.7116 436.745 55.1378 436.106 56.6293L437.299 57.0554C437.576 56.4588 438.231 55.8196 439.43 55.8196C440.586 55.8196 441.156 56.4322 441.156 57.4815V57.5241C441.156 58.1314 440.538 58.0781 439.046 58.2699C437.528 58.467 435.872 58.8026 435.872 60.6776C435.872 62.2756 437.107 63.1918 438.663 63.1918ZM438.854 62.0625C437.853 62.0625 437.129 61.6151 437.129 60.7415C437.129 59.7827 438.002 59.4844 438.982 59.3565C439.515 59.2926 440.943 59.1435 441.156 58.8878V60.0384C441.156 61.0611 440.346 62.0625 438.854 62.0625ZM445.964 52.0909H444.707V63H445.964V52.0909ZM453.423 59.6548C453.423 61.1889 452.251 61.892 451.314 61.892C450.27 61.892 449.524 61.125 449.524 59.9318V54.8182H448.267V60.017C448.267 62.1051 449.375 63.1065 450.909 63.1065C452.145 63.1065 452.954 62.446 453.338 61.6151H453.423V63H454.68V54.8182H453.423V59.6548ZM460.413 63.1705C462.075 63.1705 463.289 62.3395 463.673 61.1037L462.458 60.7628C462.139 61.6151 461.398 62.0412 460.413 62.0412C458.938 62.0412 457.92 61.0877 457.862 59.3352H463.801V58.8026C463.801 55.7557 461.99 54.7116 460.285 54.7116C458.069 54.7116 456.599 56.4588 456.599 58.973C456.599 61.4872 458.048 63.1705 460.413 63.1705ZM457.862 58.2486C457.947 56.9755 458.847 55.8409 460.285 55.8409C461.649 55.8409 462.522 56.8636 462.522 58.2486H457.862Z" fill="#718EBF"/>
<path d="M513.562 36.0455H515.091V32.9659H518.17V31.4375H515.091V28.3636H513.562V31.4375H510.489V32.9659H513.562V36.0455ZM520.307 38H527.966V36.4943H522.727V36.4091L525.04 33.9886C527.17 31.8352 527.778 30.8068 527.778 29.5057C527.778 27.6364 526.256 26.2045 524.062 26.2045C521.886 26.2045 520.295 27.6136 520.295 29.7386H521.972C521.966 28.4886 522.773 27.6705 524.028 27.6705C525.21 27.6705 526.108 28.3977 526.108 29.5568C526.108 30.5852 525.494 31.3239 524.244 32.6477L520.307 36.7273V38ZM533.96 38.1591C536.301 38.1591 537.972 36.5057 537.966 34.2386C537.972 31.9886 536.403 30.3523 534.284 30.3523C533.42 30.3523 532.619 30.6818 532.165 31.125H532.097L532.466 27.8693H537.403V26.3636H531.006L530.352 32.2273L531.96 32.4659C532.398 32.0739 533.182 31.8068 533.886 31.8068C535.267 31.8182 536.267 32.8523 536.267 34.2727C536.267 35.6705 535.295 36.6818 533.96 36.6818C532.835 36.6818 531.943 35.9659 531.852 34.9659H530.148C530.216 36.8182 531.824 38.1591 533.96 38.1591ZM546.115 35.8182C546.121 37.1307 546.945 38.2386 548.484 38.2386C550.007 38.2386 550.842 37.1307 550.842 35.8182V35.2045C550.842 33.8864 550.03 32.7841 548.484 32.7841C546.967 32.7841 546.121 33.892 546.115 35.2045V35.8182ZM540.263 29.1591C540.263 30.4716 541.092 31.5795 542.632 31.5795C544.149 31.5795 544.99 30.4773 544.984 29.1591V28.5455C544.99 27.2273 544.172 26.125 542.632 26.125C541.121 26.125 540.263 27.2273 540.263 28.5455V29.1591ZM540.74 38H542.098L550.098 26.3636H548.74L540.74 38ZM547.439 35.2045C547.445 34.5511 547.729 33.9205 548.484 33.9205C549.268 33.9205 549.513 34.5511 549.513 35.2045V35.8182C549.513 36.4716 549.246 37.1023 548.484 37.1023C547.712 37.1023 547.445 36.4659 547.439 35.8182V35.2045ZM541.592 28.5455C541.592 27.8977 541.876 27.2614 542.632 27.2614C543.416 27.2614 543.661 27.892 543.661 28.5455V29.1591C543.661 29.8125 543.393 30.4432 542.632 30.4432C541.859 30.4432 541.592 29.8125 541.592 29.1591V28.5455Z" fill="#16DBAA"/>
<path d="M510.321 63H511.642V58.7386H514.028C514.124 58.7386 514.215 58.7386 514.305 58.7333L516.607 63H518.141L515.674 58.4936C517.065 58.0195 517.714 56.8849 517.714 55.4361C517.714 53.5078 516.564 52.0909 514.007 52.0909H510.321V63ZM511.642 57.5455V53.2628H513.964C515.733 53.2628 516.415 54.1257 516.415 55.4361C516.415 56.7464 515.733 57.5455 513.986 57.5455H511.642ZM523.088 63.1705C524.75 63.1705 525.964 62.3395 526.348 61.1037L525.133 60.7628C524.814 61.6151 524.073 62.0412 523.088 62.0412C521.612 62.0412 520.595 61.0877 520.536 59.3352H526.476V58.8026C526.476 55.7557 524.665 54.7116 522.96 54.7116C520.744 54.7116 519.274 56.4588 519.274 58.973C519.274 61.4872 520.723 63.1705 523.088 63.1705ZM520.536 58.2486C520.622 56.9755 521.522 55.8409 522.96 55.8409C524.324 55.8409 525.197 56.8636 525.197 58.2486H520.536ZM531.946 54.8182H530.199V52.858H528.942V54.8182H527.706V55.8835H528.942V60.9972C528.942 62.4247 530.092 63.1065 531.158 63.1065C531.627 63.1065 531.925 63.0213 532.095 62.9574L531.84 61.8281C531.733 61.8494 531.563 61.892 531.286 61.892C530.732 61.892 530.199 61.7216 530.199 60.6562V55.8835H531.946V54.8182ZM538.993 59.6548C538.993 61.1889 537.821 61.892 536.884 61.892C535.84 61.892 535.094 61.125 535.094 59.9318V54.8182H533.837V60.017C533.837 62.1051 534.945 63.1065 536.479 63.1065C537.715 63.1065 538.525 62.446 538.908 61.6151H538.993V63H540.25V54.8182H538.993V59.6548ZM542.553 63H543.81V57.8224C543.81 56.7145 544.684 55.9048 545.877 55.9048C546.212 55.9048 546.559 55.9688 546.644 55.9901V54.7116C546.5 54.701 546.17 54.6903 545.983 54.6903C545.003 54.6903 544.151 55.2443 543.853 56.054H543.767V54.8182H542.553V63ZM549.391 58.0781C549.391 56.6506 550.275 55.8409 551.479 55.8409C552.646 55.8409 553.354 56.6026 553.354 57.8864V63H554.611V57.8011C554.611 55.7131 553.498 54.7116 551.841 54.7116C550.606 54.7116 549.839 55.2656 549.455 56.0966H549.348V54.8182H548.134V63H549.391V58.0781ZM561.745 52.0909H560.36L564.366 63H565.729L569.735 52.0909H568.35L565.112 61.2741H564.984L561.745 52.0909ZM572.91 63.1918C574.337 63.1918 575.083 62.4247 575.339 61.892H575.403V63H576.66V57.6094C576.66 55.0099 574.678 54.7116 573.634 54.7116C572.398 54.7116 570.992 55.1378 570.353 56.6293L571.546 57.0554C571.823 56.4588 572.478 55.8196 573.677 55.8196C574.833 55.8196 575.403 56.4322 575.403 57.4815V57.5241C575.403 58.1314 574.785 58.0781 573.293 58.2699C571.775 58.467 570.119 58.8026 570.119 60.6776C570.119 62.2756 571.354 63.1918 572.91 63.1918ZM573.102 62.0625C572.1 62.0625 571.376 61.6151 571.376 60.7415C571.376 59.7827 572.249 59.4844 573.229 59.3565C573.762 59.2926 575.19 59.1435 575.403 58.8878V60.0384C575.403 61.0611 574.593 62.0625 573.102 62.0625ZM580.211 52.0909H578.954V63H580.211V52.0909ZM587.67 59.6548C587.67 61.1889 586.498 61.892 585.561 61.892C584.517 61.892 583.771 61.125 583.771 59.9318V54.8182H582.514V60.017C582.514 62.1051 583.622 63.1065 585.156 63.1065C586.392 63.1065 587.201 62.446 587.585 61.6151H587.67V63H588.927V54.8182H587.67V59.6548ZM594.66 63.1705C596.322 63.1705 597.536 62.3395 597.92 61.1037L596.706 60.7628C596.386 61.6151 595.646 62.0412 594.66 62.0412C593.185 62.0412 592.167 61.0877 592.109 59.3352H598.048V58.8026C598.048 55.7557 596.237 54.7116 594.532 54.7116C592.316 54.7116 590.846 56.4588 590.846 58.973C590.846 61.4872 592.295 63.1705 594.66 63.1705ZM592.109 58.2486C592.194 56.9755 593.094 55.8409 594.532 55.8409C595.896 55.8409 596.769 56.8636 596.769 58.2486H592.109Z" fill="#718EBF"/>
<rect x="15" y="15" width="60" height="60" rx="20" fill="#FFF5D9"/>
<path d="M44.555 58.0001L48.0675 38.2459C51.4155 38.2459 52.4715 38.613 52.624 40.1115C52.624 40.1115 54.8699 39.2741 56.0027 37.5733C51.5823 35.525 47.1409 35.4326 47.1409 35.4326L44.5492 38.5892L44.555 38.5888L41.9634 35.4321C41.9634 35.4321 37.5218 35.5246 33.1021 37.5729C34.2338 39.2737 36.4806 40.1111 36.4806 40.1111C36.634 38.6125 37.6887 38.2454 41.0143 38.243L44.555 58.0001Z" fill="#FFBB38"/>
<path d="M44.5536 34.5208C48.1268 34.4935 52.2168 35.0735 56.4037 36.8984C56.9633 35.8912 57.1071 35.446 57.1071 35.446C52.5302 33.6352 48.244 33.0155 44.5531 33C40.8623 33.0155 36.5763 33.6353 32 35.446C32 35.446 32.2042 35.9943 32.703 36.8984C36.8891 35.0735 40.9797 34.4935 44.5531 34.5208H44.5536Z" fill="#FFBB38"/>
</svg>
