<svg width="30" height="30" viewBox="0 0 30 30" fill="none" xmlns="http://www.w3.org/2000/svg">
<g clip-path="url(#clip0_1_1838)">
<path d="M15.879 15.8783V0C7.37387 0.446115 0.446847 7.37308 0.000732422 15.8783H15.879ZM12.3635 13.2416H10.6058V11.4839H12.3635V13.2416ZM7.09029 7.96842H8.84803V9.72616H7.09029V7.96842ZM11.4846 7.60451L12.7274 8.84729L7.96916 13.6056L6.72637 12.3628L11.4846 7.60451Z" fill="#FF82AC"/>
<path d="M15.8789 17.636H5.36597C5.79427 23.2371 10.2779 27.7207 15.879 28.149V17.636H15.8789Z" fill="#FF82AC"/>
<path d="M17.6367 3.51538C17.6367 3.70416 17.6367 30.2062 17.6367 29.9987C24.4961 29.5431 29.9995 23.6422 29.9995 16.6693C29.9995 9.69577 24.4978 3.96941 17.6367 3.51538ZM22.9099 15.8782C24.3638 15.8782 25.5466 17.0609 25.5466 18.5148C25.5466 19.6591 24.8096 20.6255 23.7888 20.9895V22.9091H22.0311V20.9895C21.0103 20.6255 20.2733 19.6591 20.2733 18.5148H22.0311C22.0311 18.9997 22.425 19.3936 22.9099 19.3936C23.3949 19.3936 23.7888 18.9997 23.7888 18.5148C23.7888 18.0299 23.3949 17.6359 22.9099 17.6359C21.4561 17.6359 20.2733 16.4532 20.2733 14.9993C20.2733 13.855 21.0103 12.8886 22.0311 12.5246V10.6049H23.7888V12.5246C24.8096 12.8886 25.5466 13.855 25.5466 14.9993H23.7888C23.7888 14.5144 23.3949 14.1204 22.9099 14.1204C22.425 14.1204 22.0311 14.5144 22.0311 14.9993C22.0311 15.4842 22.425 15.8782 22.9099 15.8782Z" fill="#FF82AC"/>
</g>
<defs>
<clipPath id="clip0_1_1838">
<rect width="30" height="30" fill="white"/>
</clipPath>
</defs>
</svg>
