<svg width="27" height="31" viewBox="0 0 27 31" fill="none" xmlns="http://www.w3.org/2000/svg">
<path d="M17.6282 7.6615H20.6801L20.6276 5.8025H18.0477L20.4724 0.791286L17.7292 0.561741L15.3198 2.40861L16.1232 0.320071L13.3114 0L12.3892 2.60987L10.8737 0.589221L6.70483 0.444543L9.46335 5.80331L6.97316 5.72329V7.66069H9.37283C4.25506 10.6561 0.567871 18.4857 0.567871 22.7153C0.567871 28.0175 6.35809 31 13.4997 31C20.6413 31 26.4315 28.0175 26.4315 22.7153C26.4323 18.4857 22.7459 10.6569 17.6282 7.6615ZM14.5811 25.2589V27.0945H12.8167V25.385C11.6108 25.3325 10.4405 25.0059 9.75674 24.6115L10.2966 22.5068C11.0523 22.9214 12.1152 23.2981 13.2847 23.2981C14.3104 23.2981 15.0127 22.902 15.0127 22.1835C15.0127 21.4973 14.4372 21.0649 13.1053 20.6163C11.1784 19.9689 9.86504 19.0677 9.86504 17.3234C9.86504 15.7392 10.9812 14.4961 12.9073 14.1195V12.4092H14.6716V13.9934C15.8767 14.0484 16.6882 14.2981 17.2814 14.5867L16.7593 16.6211C16.2913 16.4238 15.4629 16.0084 14.1673 16.0084C12.997 16.0084 12.6187 16.5119 12.6187 17.0155C12.6187 17.6104 13.2491 17.9878 14.7791 18.5641C16.9202 19.3223 17.785 20.31 17.785 21.9313C17.7858 23.5309 16.651 24.8993 14.5811 25.2589Z" fill="#16DBCC"/>
</svg>
