<svg width="30" height="30" viewBox="0 0 30 30" fill="none" xmlns="http://www.w3.org/2000/svg">
<g clip-path="url(#clip0_1_304)">
<path d="M27.9816 14.3653H26.1973C25.7912 13.2291 25.1367 12.2118 24.299 11.3801L27.0508 10.1654C27.4439 9.99181 27.6592 9.5581 27.5474 9.14325C27.2155 7.91178 26.0954 7.00586 24.7647 7.00586H22.495C21.1899 7.00586 20.0879 7.87756 19.7328 9.07294H17.3358C16.4355 12.3986 13.3944 14.8522 9.79114 14.8522C7.59158 14.8522 5.60167 13.9377 4.18012 12.469C3.77975 13.0403 3.4518 13.6664 3.2101 14.3342C2.49215 14.1771 1.90181 13.6092 1.73675 12.8697C1.63105 12.3959 1.16095 12.0972 0.687511 12.2033C0.213779 12.3091 -0.0845818 12.7788 0.0211803 13.2526C0.200947 14.0581 0.653351 14.7894 1.29501 15.3118C1.73418 15.6693 2.25056 15.9182 2.79771 16.043C2.75512 16.378 2.73309 16.7195 2.73309 17.066V17.9182C2.73309 21.1482 4.64008 23.9303 7.38445 25.191V27.1279C7.38445 28.182 8.23905 29.0366 9.29321 29.0366C10.3474 29.0366 11.202 28.182 11.202 27.1279V25.9113H18.3523V27.1279C18.3523 28.182 19.2069 29.0366 20.2611 29.0366C21.3152 29.0366 22.1698 28.182 22.1698 27.1279V25.1165C24.1764 24.1404 25.7131 22.3424 26.3466 20.1577H27.9815C29.0963 20.1577 30 19.2498 30 18.1298V16.3931C30.0001 15.2732 29.0964 14.3653 27.9816 14.3653ZM21.4963 14.8727C21.0126 14.8727 20.6205 14.4807 20.6205 13.997C20.6205 13.5133 21.0126 13.1213 21.4963 13.1213C21.98 13.1213 22.372 13.5133 22.372 13.997C22.372 14.4807 21.98 14.8727 21.4963 14.8727Z" fill="#16DBCC"/>
<path d="M9.79137 0.963379C6.45087 0.963379 3.73328 3.68437 3.73328 7.02885C3.73328 10.3734 6.45093 13.0944 9.79137 13.0944C13.1318 13.0944 15.8494 10.3734 15.8494 7.02885C15.8494 3.68425 13.1317 0.963379 9.79137 0.963379ZM9.22881 6.10207H10.3539C11.6231 6.10207 12.6556 7.13532 12.6556 8.40534C12.6556 9.56785 11.7902 10.5314 10.6703 10.6862V11.0163C10.6703 11.5017 10.2768 11.8953 9.79137 11.8953C9.30598 11.8953 8.91246 11.5017 8.91246 11.0163V10.7085H8.68822C7.7172 10.7085 6.92712 9.91806 6.92712 8.94646C6.92712 8.46106 7.32064 8.06755 7.80603 8.06755C8.29142 8.06755 8.68494 8.46106 8.68494 8.94646L10.3539 8.95068C10.6538 8.95068 10.8977 8.70599 10.8977 8.40528C10.8977 8.10458 10.6538 7.85989 10.3539 7.85989H9.22875C7.9596 7.85989 6.92712 6.8267 6.92712 5.55668C6.92712 4.39411 7.79249 3.43054 8.91246 3.27573V3.04141C8.91246 2.55602 9.30598 2.1625 9.79137 2.1625C10.2768 2.1625 10.6703 2.55602 10.6703 3.04141V3.25341H10.8945C11.8655 3.25341 12.6556 4.0439 12.6556 5.0155C12.6556 5.5009 12.262 5.89441 11.7767 5.89441C11.2913 5.89441 10.8977 5.5009 10.8977 5.0155C10.8977 5.0141 10.8976 5.01351 10.8976 5.01351L9.22881 5.01123C8.92893 5.01123 8.685 5.25592 8.685 5.55668C8.685 5.85738 8.92893 6.10207 9.22881 6.10207Z" fill="#16DBCC"/>
</g>
<defs>
<clipPath id="clip0_1_304">
<rect width="30" height="30" fill="white"/>
</clipPath>
</defs>
</svg>
