<svg width="445" height="300" viewBox="0 0 445 300" fill="none" xmlns="http://www.w3.org/2000/svg">
<rect width="445" height="300" rx="25" fill="white"/>
<path d="M37.625 33.4205H39.3182C39.267 31.5568 37.6193 30.2045 35.2557 30.2045C32.9205 30.2045 31.1307 31.5398 31.1307 33.5455C31.1307 35.1648 32.2898 36.1136 34.1591 36.6193L35.5341 36.9943C36.7784 37.3239 37.7386 37.733 37.7386 38.767C37.7386 39.9034 36.6534 40.6534 35.1591 40.6534C33.8068 40.6534 32.6818 40.0511 32.5795 38.7841H30.8182C30.9318 40.892 32.5625 42.1932 35.1705 42.1932C37.9034 42.1932 39.4773 40.7557 39.4773 38.7841C39.4773 36.6875 37.608 35.875 36.1307 35.5114L34.9943 35.2159C34.0852 34.983 32.875 34.5568 32.8807 33.4432C32.8807 32.4545 33.7841 31.7216 35.2159 31.7216C36.5511 31.7216 37.5 32.3466 37.625 33.4205ZM41.5753 42H48.6037V40.4886H43.331V30.3636H41.5753V42ZM64.233 30.3636H62.4943V38.9091H62.3864L56.4659 30.3636H54.8409V42H56.5966V33.4659H56.7045L62.6193 42H64.233V30.3636ZM70.3338 42.1761C72.794 42.1761 74.402 40.375 74.402 37.6761C74.402 34.9602 72.794 33.1591 70.3338 33.1591C67.8736 33.1591 66.2656 34.9602 66.2656 37.6761C66.2656 40.375 67.8736 42.1761 70.3338 42.1761ZM70.3395 40.75C68.7315 40.75 67.9815 39.3466 67.9815 37.6705C67.9815 36 68.7315 34.5795 70.3395 34.5795C71.9361 34.5795 72.6861 36 72.6861 37.6705C72.6861 39.3466 71.9361 40.75 70.3395 40.75Z" fill="#718EBF"/>
<path d="M122.67 30.3636H120.932V38.9091H120.824L114.903 30.3636H113.278V42H115.034V33.4659H115.142L121.057 42H122.67V30.3636ZM127.635 42.1932C129.078 42.1932 129.891 41.4602 130.214 40.8068H130.283V42H131.942V36.2045C131.942 33.6648 129.942 33.1591 128.555 33.1591C126.976 33.1591 125.521 33.7955 124.953 35.3864L126.55 35.75C126.8 35.1307 127.436 34.5341 128.578 34.5341C129.675 34.5341 130.237 35.108 130.237 36.0966V36.1364C130.237 36.7557 129.601 36.7443 128.033 36.9261C126.379 37.1193 124.686 37.5511 124.686 39.5341C124.686 41.25 125.976 42.1932 127.635 42.1932ZM128.004 40.8295C127.044 40.8295 126.351 40.3977 126.351 39.5568C126.351 38.6477 127.158 38.3239 128.141 38.1932C128.692 38.1193 129.999 37.9716 130.243 37.7273V38.8523C130.243 39.8864 129.419 40.8295 128.004 40.8295ZM134.205 42H135.903V36.6193C135.903 35.4432 136.727 34.625 137.693 34.625C138.636 34.625 139.29 35.25 139.29 36.1989V42H140.983V36.4375C140.983 35.3864 141.625 34.625 142.733 34.625C143.631 34.625 144.369 35.125 144.369 36.3068V42H146.068V36.1477C146.068 34.1534 144.955 33.1591 143.375 33.1591C142.119 33.1591 141.176 33.7614 140.756 34.6932H140.665C140.284 33.7386 139.483 33.1591 138.318 33.1591C137.165 33.1591 136.307 33.733 135.943 34.6932H135.835V33.2727H134.205V42ZM152.107 42.1761C154.01 42.1761 155.357 41.2386 155.743 39.8182L154.135 39.5284C153.828 40.3523 153.089 40.7727 152.124 40.7727C150.669 40.7727 149.692 39.8295 149.646 38.1477H155.851V37.5455C155.851 34.392 153.964 33.1591 151.987 33.1591C149.555 33.1591 147.953 35.0114 147.953 37.6932C147.953 40.4034 149.533 42.1761 152.107 42.1761ZM149.652 36.875C149.72 35.6364 150.618 34.5625 151.999 34.5625C153.317 34.5625 154.18 35.5398 154.186 36.875H149.652Z" fill="#718EBF"/>
<path d="M244.278 42H246.034V37.9091H248.42C251.119 37.9091 252.455 36.2784 252.455 34.1307C252.455 31.9886 251.131 30.3636 248.426 30.3636H244.278V42ZM246.034 36.4205V31.8693H248.239C249.977 31.8693 250.688 32.8125 250.688 34.1307C250.688 35.4489 249.977 36.4205 248.261 36.4205H246.034ZM254.376 42H256.075V36.6705C256.075 35.5284 256.956 34.7045 258.161 34.7045C258.513 34.7045 258.911 34.767 259.047 34.8068V33.1818C258.876 33.1591 258.541 33.142 258.325 33.142C257.303 33.142 256.428 33.7216 256.109 34.6591H256.018V33.2727H254.376V42ZM260.517 42H262.216V33.2727H260.517V42ZM261.375 31.9261C261.96 31.9261 262.449 31.4716 262.449 30.9148C262.449 30.358 261.96 29.8977 261.375 29.8977C260.784 29.8977 260.301 30.358 260.301 30.9148C260.301 31.4716 260.784 31.9261 261.375 31.9261ZM268.178 42.1761C270.24 42.1761 271.575 40.9375 271.763 39.2386H270.109C269.893 40.1818 269.161 40.7386 268.189 40.7386C266.751 40.7386 265.825 39.5398 265.825 37.6364C265.825 35.767 266.768 34.5909 268.189 34.5909C269.268 34.5909 269.928 35.2727 270.109 36.0909H271.763C271.581 34.3295 270.143 33.1591 268.161 33.1591C265.7 33.1591 264.109 35.0114 264.109 37.6761C264.109 40.3068 265.643 42.1761 268.178 42.1761ZM277.341 42.1761C279.244 42.1761 280.591 41.2386 280.977 39.8182L279.369 39.5284C279.062 40.3523 278.324 40.7727 277.358 40.7727C275.903 40.7727 274.926 39.8295 274.881 38.1477H281.085V37.5455C281.085 34.392 279.199 33.1591 277.222 33.1591C274.79 33.1591 273.188 35.0114 273.188 37.6932C273.188 40.4034 274.767 42.1761 277.341 42.1761ZM274.886 36.875C274.955 35.6364 275.852 34.5625 277.233 34.5625C278.551 34.5625 279.415 35.5398 279.42 36.875H274.886Z" fill="#718EBF"/>
<path d="M348.278 42H350.034V37.5966H352.42C352.46 37.5966 352.494 37.5966 352.534 37.5966L354.898 42H356.898L354.318 37.2898C355.744 36.7614 356.455 35.5739 356.455 34.0114C356.455 31.8693 355.125 30.3636 352.426 30.3636H348.278V42ZM350.034 36.0852V31.8693H352.239C353.972 31.8693 354.688 32.6932 354.688 34.0114C354.688 35.3239 353.972 36.0852 352.261 36.0852H350.034ZM362.107 42.1761C364.01 42.1761 365.357 41.2386 365.743 39.8182L364.135 39.5284C363.828 40.3523 363.089 40.7727 362.124 40.7727C360.669 40.7727 359.692 39.8295 359.646 38.1477H365.851V37.5455C365.851 34.392 363.964 33.1591 361.987 33.1591C359.555 33.1591 357.953 35.0114 357.953 37.6932C357.953 40.4034 359.533 42.1761 362.107 42.1761ZM359.652 36.875C359.72 35.6364 360.618 34.5625 361.999 34.5625C363.317 34.5625 364.18 35.5398 364.186 36.875H359.652ZM371.81 33.2727H370.02V31.1818H368.321V33.2727H367.043V34.6364H368.321V39.7898C368.315 41.375 369.526 42.142 370.866 42.1136C371.406 42.108 371.77 42.0057 371.969 41.9318L371.662 40.5284C371.548 40.5511 371.338 40.6023 371.065 40.6023C370.514 40.6023 370.02 40.4205 370.02 39.4375V34.6364H371.81V33.2727ZM379.217 38.3807C379.223 39.8636 378.121 40.5682 377.166 40.5682C376.115 40.5682 375.388 39.8068 375.388 38.6193V33.2727H373.689V38.8239C373.689 40.9886 374.876 42.1136 376.553 42.1136C377.865 42.1136 378.757 41.4205 379.161 40.4886H379.251V42H380.922V33.2727H379.217V38.3807ZM383.205 42H384.903V36.6705C384.903 35.5284 385.784 34.7045 386.989 34.7045C387.341 34.7045 387.739 34.767 387.875 34.8068V33.1818C387.705 33.1591 387.369 33.142 387.153 33.142C386.131 33.142 385.256 33.7216 384.938 34.6591H384.847V33.2727H383.205V42ZM391.044 36.8182C391.044 35.4261 391.896 34.6307 393.078 34.6307C394.232 34.6307 394.93 35.3864 394.93 36.6534V42H396.629V36.4489C396.629 34.2898 395.442 33.1591 393.658 33.1591C392.345 33.1591 391.487 33.767 391.084 34.6932H390.976V33.2727H389.345V42H391.044V36.8182Z" fill="#718EBF"/>
<rect x="30" y="54" width="385" height="1" fill="#F4F5F7"/>
<path d="M35 83.1591C37.5682 83.1591 39.0455 80.983 39.0455 77.1818C39.0455 73.4091 37.5455 71.2045 35 71.2045C32.4545 71.2045 30.9545 73.4091 30.9545 77.1818C30.9545 80.983 32.4318 83.1591 35 83.1591ZM35 81.9091C33.3068 81.9091 32.3182 80.2102 32.3182 77.1818C32.3182 74.1591 33.3182 72.4318 35 72.4318C36.6818 72.4318 37.6818 74.1591 37.6818 77.1818C37.6818 80.2102 36.6932 81.9091 35 81.9091ZM45.2955 71.3636H43.8864L40.9773 73.2955V74.7273L43.8182 72.8409H43.8864V83H45.2955V71.3636ZM48.9545 83.0909C49.517 83.0909 49.9773 82.6307 49.9773 82.0682C49.9773 81.5057 49.517 81.0455 48.9545 81.0455C48.392 81.0455 47.9318 81.5057 47.9318 82.0682C47.9318 82.6307 48.392 83.0909 48.9545 83.0909Z" fill="#232323"/>
<path d="M112.773 72.6136H116.432V83H117.841V72.6136H121.5V71.3636H112.773V72.6136ZM122.587 83H123.928V77.4773C123.928 76.2955 124.859 75.4318 126.132 75.4318C126.49 75.4318 126.859 75.5 126.95 75.5227V74.1591C126.797 74.1477 126.445 74.1364 126.246 74.1364C125.2 74.1364 124.291 74.7273 123.973 75.5909H123.882V74.2727H122.587V83ZM128.54 83H129.881V74.2727H128.54V83ZM129.222 72.8182C129.744 72.8182 130.176 72.4091 130.176 71.9091C130.176 71.4091 129.744 71 129.222 71C128.699 71 128.267 71.4091 128.267 71.9091C128.267 72.4091 128.699 72.8182 129.222 72.8182ZM139.473 74.2727H138.018L135.609 81.2273H135.518L133.109 74.2727H131.655L134.882 83H136.246L139.473 74.2727ZM143.545 83.2045C145.068 83.2045 145.864 82.3864 146.136 81.8182H146.205V83H147.545V77.25C147.545 74.4773 145.432 74.1591 144.318 74.1591C143 74.1591 141.5 74.6136 140.818 76.2045L142.091 76.6591C142.386 76.0227 143.085 75.3409 144.364 75.3409C145.597 75.3409 146.205 75.9943 146.205 77.1136V77.1591C146.205 77.8068 145.545 77.75 143.955 77.9545C142.335 78.1648 140.568 78.5227 140.568 80.5227C140.568 82.2273 141.886 83.2045 143.545 83.2045ZM143.75 82C142.682 82 141.909 81.5227 141.909 80.5909C141.909 79.5682 142.841 79.25 143.886 79.1136C144.455 79.0455 145.977 78.8864 146.205 78.6136V79.8409C146.205 80.9318 145.341 82 143.75 82ZM153.516 86.4545C155.607 86.4545 157.288 85.5 157.288 83.25V74.2727H155.993V75.6591H155.857C155.561 75.2045 155.016 74.1591 153.311 74.1591C151.107 74.1591 149.584 75.9091 149.584 78.5909C149.584 81.3182 151.175 82.8636 153.288 82.8636C154.993 82.8636 155.538 81.8636 155.834 81.3864H155.947V83.1591C155.947 84.6136 154.925 85.2727 153.516 85.2727C151.93 85.2727 151.374 84.4375 151.016 83.9545L149.947 84.7045C150.493 85.6193 151.567 86.4545 153.516 86.4545ZM153.47 81.6591C151.788 81.6591 150.925 80.3864 150.925 78.5682C150.925 76.7955 151.766 75.3636 153.47 75.3636C155.107 75.3636 155.97 76.6818 155.97 78.5682C155.97 80.5 155.084 81.6591 153.47 81.6591ZM163.288 83.1818C165.652 83.1818 167.243 81.3864 167.243 78.6818C167.243 75.9545 165.652 74.1591 163.288 74.1591C160.925 74.1591 159.334 75.9545 159.334 78.6818C159.334 81.3864 160.925 83.1818 163.288 83.1818ZM163.288 81.9773C161.493 81.9773 160.675 80.4318 160.675 78.6818C160.675 76.9318 161.493 75.3636 163.288 75.3636C165.084 75.3636 165.902 76.9318 165.902 78.6818C165.902 80.4318 165.084 81.9773 163.288 81.9773Z" fill="#232323"/>
<path d="M247.636 84.4545H248.568V83.1875C250.955 83.0227 252.295 81.6136 252.295 79.8409C252.295 77.6591 250.227 76.9545 249.023 76.6364L248.568 76.5114V72.4716C249.773 72.5909 250.648 73.2386 250.773 74.2727H252.136C252.08 72.6136 250.625 71.3523 248.568 71.2159V69.9091H247.636V71.233C245.688 71.4318 244.227 72.6705 244.227 74.4545C244.227 76.0227 245.364 76.9545 247.182 77.4773L247.636 77.608V81.9091C246.443 81.7841 245.466 81.1705 245.364 80H243.909C244.04 81.7898 245.403 83.0398 247.636 83.1875V84.4545ZM248.568 81.9091V77.875L248.614 77.8864C249.841 78.2273 250.932 78.6591 250.932 79.8182C250.932 80.9602 249.943 81.7557 248.568 81.9091ZM247.636 76.2614C246.773 76.017 245.591 75.5398 245.591 74.3864C245.591 73.4034 246.386 72.6534 247.636 72.4886V76.2614ZM258.044 83.1591C260.26 83.1591 261.885 81.5227 261.885 79.2955C261.885 77.0398 260.317 75.3864 258.18 75.3864C257.396 75.3864 256.635 75.6648 256.158 76.0455H256.089L256.499 72.6136H261.362V71.3636H255.317L254.612 77.0909L255.93 77.25C256.413 76.9034 257.237 76.6534 257.953 76.6591C259.436 76.6705 260.521 77.7955 260.521 79.3182C260.521 80.8125 259.476 81.9091 258.044 81.9091C256.851 81.9091 255.902 81.142 255.794 80.0909H254.43C254.516 81.8636 256.044 83.1591 258.044 83.1591ZM264.142 83H271.483V81.75H266.074V81.6591L268.688 78.8636C270.688 76.7216 271.278 75.7216 271.278 74.4318C271.278 72.6364 269.824 71.2045 267.778 71.2045C265.739 71.2045 264.188 72.5909 264.188 74.6364H265.528C265.528 73.3125 266.386 72.4318 267.733 72.4318C268.994 72.4318 269.96 73.2045 269.96 74.4318C269.96 75.5057 269.33 76.3011 267.983 77.7727L264.142 81.9773V83ZM277.625 83.1591C280.193 83.1591 281.67 80.983 281.67 77.1818C281.67 73.4091 280.17 71.2045 277.625 71.2045C275.08 71.2045 273.58 73.4091 273.58 77.1818C273.58 80.983 275.057 83.1591 277.625 83.1591ZM277.625 81.9091C275.932 81.9091 274.943 80.2102 274.943 77.1818C274.943 74.1591 275.943 72.4318 277.625 72.4318C279.307 72.4318 280.307 74.1591 280.307 77.1818C280.307 80.2102 279.318 81.9091 277.625 81.9091Z" fill="#232323"/>
<path d="M351.562 81.0455H353.091V77.9659H356.17V76.4375H353.091V73.3636H351.562V76.4375H348.489V77.9659H351.562V81.0455ZM362.616 83.1591C364.957 83.1591 366.628 81.5057 366.622 79.2386C366.628 76.9886 365.06 75.3523 362.94 75.3523C362.077 75.3523 361.276 75.6818 360.821 76.125H360.753L361.122 72.8693H366.06V71.3636H359.662L359.009 77.2273L360.616 77.4659C361.054 77.0739 361.838 76.8068 362.543 76.8068C363.923 76.8182 364.923 77.8523 364.923 79.2727C364.923 80.6705 363.952 81.6818 362.616 81.6818C361.491 81.6818 360.599 80.9659 360.509 79.9659H358.804C358.872 81.8182 360.48 83.1591 362.616 83.1591ZM374.771 80.8182C374.777 82.1307 375.601 83.2386 377.141 83.2386C378.663 83.2386 379.499 82.1307 379.499 80.8182V80.2045C379.499 78.8864 378.686 77.7841 377.141 77.7841C375.624 77.7841 374.777 78.892 374.771 80.2045V80.8182ZM368.919 74.1591C368.919 75.4716 369.749 76.5795 371.288 76.5795C372.805 76.5795 373.646 75.4773 373.641 74.1591V73.5455C373.646 72.2273 372.828 71.125 371.288 71.125C369.777 71.125 368.919 72.2273 368.919 73.5455V74.1591ZM369.396 83H370.754L378.754 71.3636H377.396L369.396 83ZM376.095 80.2045C376.101 79.5511 376.385 78.9205 377.141 78.9205C377.925 78.9205 378.169 79.5511 378.169 80.2045V80.8182C378.169 81.4716 377.902 82.1023 377.141 82.1023C376.368 82.1023 376.101 81.4659 376.095 80.8182V80.2045ZM370.249 73.5455C370.249 72.8977 370.533 72.2614 371.288 72.2614C372.072 72.2614 372.317 72.892 372.317 73.5455V74.1591C372.317 74.8125 372.05 75.4432 371.288 75.4432C370.516 75.4432 370.249 74.8125 370.249 74.1591V73.5455Z" fill="#16DBAA"/>
<path d="M35 130.159C37.5682 130.159 39.0455 127.983 39.0455 124.182C39.0455 120.409 37.5455 118.205 35 118.205C32.4545 118.205 30.9545 120.409 30.9545 124.182C30.9545 127.983 32.4318 130.159 35 130.159ZM35 128.909C33.3068 128.909 32.3182 127.21 32.3182 124.182C32.3182 121.159 33.3182 119.432 35 119.432C36.6818 119.432 37.6818 121.159 37.6818 124.182C37.6818 127.21 36.6932 128.909 35 128.909ZM41.2045 130H48.5455V128.75H43.1364V128.659L45.75 125.864C47.75 123.722 48.3409 122.722 48.3409 121.432C48.3409 119.636 46.8864 118.205 44.8409 118.205C42.8011 118.205 41.25 119.591 41.25 121.636H42.5909C42.5909 120.312 43.4489 119.432 44.7955 119.432C46.0568 119.432 47.0227 120.205 47.0227 121.432C47.0227 122.506 46.392 123.301 45.0455 124.773L41.2045 128.977V130ZM51.892 130.091C52.4545 130.091 52.9148 129.631 52.9148 129.068C52.9148 128.506 52.4545 128.045 51.892 128.045C51.3295 128.045 50.8693 128.506 50.8693 129.068C50.8693 129.631 51.3295 130.091 51.892 130.091Z" fill="#232323"/>
<path d="M122.773 122C122.341 119.614 120.432 118.205 118.091 118.205C115.114 118.205 112.955 120.5 112.955 124.182C112.955 127.864 115.114 130.159 118.091 130.159C120.432 130.159 122.341 128.75 122.773 126.364H121.364C121.023 127.977 119.636 128.841 118.091 128.841C115.977 128.841 114.318 127.205 114.318 124.182C114.318 121.159 115.977 119.523 118.091 119.523C119.636 119.523 121.023 120.386 121.364 122H122.773ZM127.436 130.205C128.959 130.205 129.754 129.386 130.027 128.818H130.095V130H131.436V124.25C131.436 121.477 129.322 121.159 128.209 121.159C126.891 121.159 125.391 121.614 124.709 123.205L125.982 123.659C126.277 123.023 126.976 122.341 128.254 122.341C129.487 122.341 130.095 122.994 130.095 124.114V124.159C130.095 124.807 129.436 124.75 127.845 124.955C126.226 125.165 124.459 125.523 124.459 127.523C124.459 129.227 125.777 130.205 127.436 130.205ZM127.641 129C126.572 129 125.8 128.523 125.8 127.591C125.8 126.568 126.732 126.25 127.777 126.114C128.345 126.045 129.868 125.886 130.095 125.614V126.841C130.095 127.932 129.232 129 127.641 129ZM135.224 124.75C135.224 123.227 136.168 122.364 137.452 122.364C138.696 122.364 139.452 123.176 139.452 124.545V130H140.793V124.455C140.793 122.227 139.605 121.159 137.838 121.159C136.52 121.159 135.702 121.75 135.293 122.636H135.179V121.273H133.884V130H135.224V124.75ZM146.788 130.182C149.152 130.182 150.743 128.386 150.743 125.682C150.743 122.955 149.152 121.159 146.788 121.159C144.425 121.159 142.834 122.955 142.834 125.682C142.834 128.386 144.425 130.182 146.788 130.182ZM146.788 128.977C144.993 128.977 144.175 127.432 144.175 125.682C144.175 123.932 144.993 122.364 146.788 122.364C148.584 122.364 149.402 123.932 149.402 125.682C149.402 127.432 148.584 128.977 146.788 128.977ZM154.131 124.75C154.131 123.227 155.074 122.364 156.358 122.364C157.602 122.364 158.358 123.176 158.358 124.545V130H159.699V124.455C159.699 122.227 158.511 121.159 156.744 121.159C155.426 121.159 154.608 121.75 154.199 122.636H154.085V121.273H152.79V130H154.131V124.75Z" fill="#232323"/>
<path d="M247.636 131.455H248.568V130.188C250.955 130.023 252.295 128.614 252.295 126.841C252.295 124.659 250.227 123.955 249.023 123.636L248.568 123.511V119.472C249.773 119.591 250.648 120.239 250.773 121.273H252.136C252.08 119.614 250.625 118.352 248.568 118.216V116.909H247.636V118.233C245.688 118.432 244.227 119.67 244.227 121.455C244.227 123.023 245.364 123.955 247.182 124.477L247.636 124.608V128.909C246.443 128.784 245.466 128.17 245.364 127H243.909C244.04 128.79 245.403 130.04 247.636 130.188V131.455ZM248.568 128.909V124.875L248.614 124.886C249.841 125.227 250.932 125.659 250.932 126.818C250.932 127.96 249.943 128.756 248.568 128.909ZM247.636 123.261C246.773 123.017 245.591 122.54 245.591 121.386C245.591 120.403 246.386 119.653 247.636 119.489V123.261ZM254.135 127.614H259.612V130H260.953V127.614H262.544V126.364H260.953V118.364H259.249L254.135 126.455V127.614ZM259.612 126.364H255.658V126.273L259.521 120.159H259.612V126.364ZM268.401 130.159C270.724 130.159 272.344 128.801 272.355 126.909C272.344 125.438 271.361 124.188 270.105 123.955V123.886C271.196 123.602 271.912 122.534 271.923 121.295C271.912 119.523 270.423 118.205 268.401 118.205C266.355 118.205 264.866 119.523 264.878 121.295C264.866 122.534 265.582 123.602 266.696 123.886V123.955C265.418 124.188 264.435 125.438 264.446 126.909C264.435 128.801 266.054 130.159 268.401 130.159ZM268.401 128.909C266.804 128.909 265.821 128.091 265.832 126.841C265.821 125.528 266.906 124.591 268.401 124.591C269.872 124.591 270.957 125.528 270.969 126.841C270.957 128.091 269.974 128.909 268.401 128.909ZM268.401 123.386C267.128 123.386 266.23 122.591 266.241 121.386C266.23 120.205 267.094 119.432 268.401 119.432C269.685 119.432 270.548 120.205 270.56 121.386C270.548 122.591 269.651 123.386 268.401 123.386ZM278.328 130.159C280.896 130.159 282.374 127.983 282.374 124.182C282.374 120.409 280.874 118.205 278.328 118.205C275.783 118.205 274.283 120.409 274.283 124.182C274.283 127.983 275.76 130.159 278.328 130.159ZM278.328 128.909C276.635 128.909 275.646 127.21 275.646 124.182C275.646 121.159 276.646 119.432 278.328 119.432C280.01 119.432 281.01 121.159 281.01 124.182C281.01 127.21 280.021 128.909 278.328 128.909Z" fill="#232323"/>
<path d="M351.562 128.045H353.091V124.966H356.17V123.438H353.091V120.364H351.562V123.438H348.489V124.966H351.562V128.045ZM363.19 118.364H361.48L358.577 120.261V121.943L361.361 120.125H361.429V130H363.19V118.364ZM370.389 130.193C373.077 130.193 374.651 128 374.651 124.188C374.651 120.403 373.054 118.205 370.389 118.205C367.719 118.205 366.128 120.398 366.122 124.188C366.122 127.994 367.696 130.188 370.389 130.193ZM370.389 128.676C368.815 128.676 367.866 127.097 367.866 124.188C367.872 121.29 368.821 119.693 370.389 119.693C371.952 119.693 372.906 121.29 372.906 124.188C372.906 127.097 371.957 128.676 370.389 128.676ZM382.74 127.818C382.746 129.131 383.57 130.239 385.109 130.239C386.632 130.239 387.467 129.131 387.467 127.818V127.205C387.467 125.886 386.655 124.784 385.109 124.784C383.592 124.784 382.746 125.892 382.74 127.205V127.818ZM376.888 121.159C376.888 122.472 377.717 123.58 379.257 123.58C380.774 123.58 381.615 122.477 381.609 121.159V120.545C381.615 119.227 380.797 118.125 379.257 118.125C377.746 118.125 376.888 119.227 376.888 120.545V121.159ZM377.365 130H378.723L386.723 118.364H385.365L377.365 130ZM384.064 127.205C384.07 126.551 384.354 125.92 385.109 125.92C385.893 125.92 386.138 126.551 386.138 127.205V127.818C386.138 128.472 385.871 129.102 385.109 129.102C384.337 129.102 384.07 128.466 384.064 127.818V127.205ZM378.217 120.545C378.217 119.898 378.501 119.261 379.257 119.261C380.041 119.261 380.286 119.892 380.286 120.545V121.159C380.286 121.812 380.018 122.443 379.257 122.443C378.484 122.443 378.217 121.812 378.217 121.159V120.545Z" fill="#16DBAA"/>
<path d="M35 177.159C37.5682 177.159 39.0455 174.983 39.0455 171.182C39.0455 167.409 37.5455 165.205 35 165.205C32.4545 165.205 30.9545 167.409 30.9545 171.182C30.9545 174.983 32.4318 177.159 35 177.159ZM35 175.909C33.3068 175.909 32.3182 174.21 32.3182 171.182C32.3182 168.159 33.3182 166.432 35 166.432C36.6818 166.432 37.6818 168.159 37.6818 171.182C37.6818 174.21 36.6932 175.909 35 175.909ZM45.1364 177.159C47.392 177.159 49.0682 175.744 49.0682 173.841C49.0682 172.364 48.1932 171.29 46.7273 171.045V170.955C47.9034 170.597 48.6364 169.631 48.6364 168.318C48.6364 166.67 47.3352 165.205 45.1818 165.205C43.1705 165.205 41.5 166.443 41.4318 168.273H42.7955C42.8466 167.114 43.9489 166.432 45.1591 166.432C46.4432 166.432 47.2727 167.21 47.2727 168.386C47.2727 169.614 46.3125 170.409 44.9318 170.409H44V171.659H44.9318C46.6989 171.659 47.6818 172.557 47.6818 173.841C47.6818 175.074 46.608 175.909 45.1136 175.909C43.767 175.909 42.6989 175.216 42.6136 174.091H41.1818C41.267 175.92 42.8807 177.159 45.1364 177.159ZM52.0327 177.091C52.5952 177.091 53.0554 176.631 53.0554 176.068C53.0554 175.506 52.5952 175.045 52.0327 175.045C51.4702 175.045 51.0099 175.506 51.0099 176.068C51.0099 176.631 51.4702 177.091 52.0327 177.091Z" fill="#232323"/>
<path d="M121.045 165.364V172.955C121.045 174.659 119.875 175.886 117.932 175.886C115.989 175.886 114.818 174.659 114.818 172.955V165.364H113.409V173.068C113.409 175.455 115.193 177.205 117.932 177.205C120.67 177.205 122.455 175.455 122.455 173.068V165.364H121.045ZM125.268 177H126.564V175.659H126.723C127.018 176.136 127.587 177.182 129.268 177.182C131.45 177.182 132.973 175.432 132.973 172.659C132.973 169.909 131.45 168.159 129.246 168.159C127.541 168.159 127.018 169.205 126.723 169.659H126.609V165.364H125.268V177ZM126.587 172.636C126.587 170.682 127.45 169.364 129.087 169.364C130.791 169.364 131.632 170.795 131.632 172.636C131.632 174.5 130.768 175.977 129.087 175.977C127.473 175.977 126.587 174.614 126.587 172.636ZM138.683 177.182C140.456 177.182 141.751 176.295 142.161 174.977L140.865 174.614C140.524 175.523 139.734 175.977 138.683 175.977C137.109 175.977 136.024 174.96 135.962 173.091H142.297V172.523C142.297 169.273 140.365 168.159 138.547 168.159C136.183 168.159 134.615 170.023 134.615 172.705C134.615 175.386 136.161 177.182 138.683 177.182ZM135.962 171.932C136.053 170.574 137.013 169.364 138.547 169.364C140.001 169.364 140.933 170.455 140.933 171.932H135.962ZM144.337 177H145.678V171.477C145.678 170.295 146.609 169.432 147.882 169.432C148.24 169.432 148.609 169.5 148.7 169.523V168.159C148.547 168.148 148.195 168.136 147.996 168.136C146.95 168.136 146.041 168.727 145.723 169.591H145.632V168.273H144.337V177ZM154.972 177H156.381V171.795H161.426V170.545H156.381V166.614H161.949V165.364H154.972V177ZM167.085 177.182C169.449 177.182 171.04 175.386 171.04 172.682C171.04 169.955 169.449 168.159 167.085 168.159C164.722 168.159 163.131 169.955 163.131 172.682C163.131 175.386 164.722 177.182 167.085 177.182ZM167.085 175.977C165.29 175.977 164.472 174.432 164.472 172.682C164.472 170.932 165.29 169.364 167.085 169.364C168.881 169.364 169.699 170.932 169.699 172.682C169.699 174.432 168.881 175.977 167.085 175.977ZM176.632 177.182C178.996 177.182 180.587 175.386 180.587 172.682C180.587 169.955 178.996 168.159 176.632 168.159C174.268 168.159 172.678 169.955 172.678 172.682C172.678 175.386 174.268 177.182 176.632 177.182ZM176.632 175.977C174.837 175.977 174.018 174.432 174.018 172.682C174.018 170.932 174.837 169.364 176.632 169.364C178.428 169.364 179.246 170.932 179.246 172.682C179.246 174.432 178.428 175.977 176.632 175.977ZM185.929 177.182C187.611 177.182 188.179 176.136 188.474 175.659H188.634V177H189.929V165.364H188.588V169.659H188.474C188.179 169.205 187.656 168.159 185.952 168.159C183.747 168.159 182.224 169.909 182.224 172.659C182.224 175.432 183.747 177.182 185.929 177.182ZM186.111 175.977C184.429 175.977 183.565 174.5 183.565 172.636C183.565 170.795 184.406 169.364 186.111 169.364C187.747 169.364 188.611 170.682 188.611 172.636C188.611 174.614 187.724 175.977 186.111 175.977Z" fill="#232323"/>
<path d="M247.636 178.455H248.568V177.188C250.955 177.023 252.295 175.614 252.295 173.841C252.295 171.659 250.227 170.955 249.023 170.636L248.568 170.511V166.472C249.773 166.591 250.648 167.239 250.773 168.273H252.136C252.08 166.614 250.625 165.352 248.568 165.216V163.909H247.636V165.233C245.688 165.432 244.227 166.67 244.227 168.455C244.227 170.023 245.364 170.955 247.182 171.477L247.636 171.608V175.909C246.443 175.784 245.466 175.17 245.364 174H243.909C244.04 175.79 245.403 177.04 247.636 177.188V178.455ZM248.568 175.909V171.875L248.614 171.886C249.841 172.227 250.932 172.659 250.932 173.818C250.932 174.96 249.943 175.756 248.568 175.909ZM247.636 170.261C246.773 170.017 245.591 169.54 245.591 168.386C245.591 167.403 246.386 166.653 247.636 166.489V170.261ZM258.339 177.159C260.595 177.159 262.271 175.744 262.271 173.841C262.271 172.364 261.396 171.29 259.93 171.045V170.955C261.107 170.597 261.839 169.631 261.839 168.318C261.839 166.67 260.538 165.205 258.385 165.205C256.374 165.205 254.703 166.443 254.635 168.273H255.999C256.05 167.114 257.152 166.432 258.362 166.432C259.646 166.432 260.476 167.21 260.476 168.386C260.476 169.614 259.516 170.409 258.135 170.409H257.203V171.659H258.135C259.902 171.659 260.885 172.557 260.885 173.841C260.885 175.074 259.811 175.909 258.317 175.909C256.97 175.909 255.902 175.216 255.817 174.091H254.385C254.47 175.92 256.084 177.159 258.339 177.159ZM268.232 177.159C270.447 177.159 272.072 175.523 272.072 173.295C272.072 171.04 270.504 169.386 268.368 169.386C267.584 169.386 266.822 169.665 266.345 170.045H266.277L266.686 166.614H271.55V165.364H265.504L264.8 171.091L266.118 171.25C266.601 170.903 267.425 170.653 268.141 170.659C269.624 170.67 270.709 171.795 270.709 173.318C270.709 174.812 269.663 175.909 268.232 175.909C267.038 175.909 266.089 175.142 265.982 174.091H264.618C264.703 175.864 266.232 177.159 268.232 177.159ZM278.125 177.159C280.693 177.159 282.17 174.983 282.17 171.182C282.17 167.409 280.67 165.205 278.125 165.205C275.58 165.205 274.08 167.409 274.08 171.182C274.08 174.983 275.557 177.159 278.125 177.159ZM278.125 175.909C276.432 175.909 275.443 174.21 275.443 171.182C275.443 168.159 276.443 166.432 278.125 166.432C279.807 166.432 280.807 168.159 280.807 171.182C280.807 174.21 279.818 175.909 278.125 175.909Z" fill="#232323"/>
<path d="M353.284 170.449H348.125V171.92H353.284V170.449ZM359.436 177.159C361.811 177.159 363.555 175.739 363.55 173.807C363.555 172.335 362.663 171.278 361.118 171.04V170.949C362.334 170.636 363.124 169.682 363.118 168.375C363.124 166.665 361.72 165.205 359.482 165.205C357.345 165.205 355.629 166.494 355.572 168.386H357.271C357.311 167.318 358.317 166.67 359.459 166.67C360.646 166.67 361.425 167.392 361.419 168.466C361.425 169.591 360.521 170.33 359.232 170.33H358.249V171.761H359.232C360.845 171.761 361.777 172.58 361.777 173.75C361.777 174.881 360.794 175.648 359.425 175.648C358.163 175.648 357.18 175 357.112 173.966H355.328C355.402 175.864 357.084 177.159 359.436 177.159ZM371.771 174.818C371.777 176.131 372.601 177.239 374.141 177.239C375.663 177.239 376.499 176.131 376.499 174.818V174.205C376.499 172.886 375.686 171.784 374.141 171.784C372.624 171.784 371.777 172.892 371.771 174.205V174.818ZM365.919 168.159C365.919 169.472 366.749 170.58 368.288 170.58C369.805 170.58 370.646 169.477 370.641 168.159V167.545C370.646 166.227 369.828 165.125 368.288 165.125C366.777 165.125 365.919 166.227 365.919 167.545V168.159ZM366.396 177H367.754L375.754 165.364H374.396L366.396 177ZM373.095 174.205C373.101 173.551 373.385 172.92 374.141 172.92C374.925 172.92 375.169 173.551 375.169 174.205V174.818C375.169 175.472 374.902 176.102 374.141 176.102C373.368 176.102 373.101 175.466 373.095 174.818V174.205ZM367.249 167.545C367.249 166.898 367.533 166.261 368.288 166.261C369.072 166.261 369.317 166.892 369.317 167.545V168.159C369.317 168.812 369.05 169.443 368.288 169.443C367.516 169.443 367.249 168.812 367.249 168.159V167.545Z" fill="#FE5C73"/>
<path d="M35 224.159C37.5682 224.159 39.0455 221.983 39.0455 218.182C39.0455 214.409 37.5455 212.205 35 212.205C32.4545 212.205 30.9545 214.409 30.9545 218.182C30.9545 221.983 32.4318 224.159 35 224.159ZM35 222.909C33.3068 222.909 32.3182 221.21 32.3182 218.182C32.3182 215.159 33.3182 213.432 35 213.432C36.6818 213.432 37.6818 215.159 37.6818 218.182C37.6818 221.21 36.6932 222.909 35 222.909ZM40.9318 221.614H46.4091V224H47.75V221.614H49.3409V220.364H47.75V212.364H46.0455L40.9318 220.455V221.614ZM46.4091 220.364H42.4545V220.273L46.3182 214.159H46.4091V220.364ZM51.9233 224.091C52.4858 224.091 52.946 223.631 52.946 223.068C52.946 222.506 52.4858 222.045 51.9233 222.045C51.3608 222.045 50.9006 222.506 50.9006 223.068C50.9006 223.631 51.3608 224.091 51.9233 224.091Z" fill="#232323"/>
<path d="M122.636 212.364H121.25V221.523H121.136L114.773 212.364H113.409V224H114.818V214.864H114.932L121.273 224H122.636V212.364ZM128.82 224.182C131.183 224.182 132.774 222.386 132.774 219.682C132.774 216.955 131.183 215.159 128.82 215.159C126.456 215.159 124.865 216.955 124.865 219.682C124.865 222.386 126.456 224.182 128.82 224.182ZM128.82 222.977C127.024 222.977 126.206 221.432 126.206 219.682C126.206 217.932 127.024 216.364 128.82 216.364C130.615 216.364 131.433 217.932 131.433 219.682C131.433 221.432 130.615 222.977 128.82 222.977ZM134.821 224H136.162V220.733L137.099 219.864L140.366 224H142.071L138.111 219L141.798 215.273H140.139L136.321 219.159H136.162V212.364H134.821V224ZM143.524 224H144.865V215.273H143.524V224ZM144.206 213.818C144.729 213.818 145.161 213.409 145.161 212.909C145.161 212.409 144.729 212 144.206 212C143.683 212 143.251 212.409 143.251 212.909C143.251 213.409 143.683 213.818 144.206 213.818ZM149.889 224.205C151.412 224.205 152.207 223.386 152.48 222.818H152.548V224H153.889V218.25C153.889 215.477 151.776 215.159 150.662 215.159C149.344 215.159 147.844 215.614 147.162 217.205L148.435 217.659C148.73 217.023 149.429 216.341 150.707 216.341C151.94 216.341 152.548 216.994 152.548 218.114V218.159C152.548 218.807 151.889 218.75 150.298 218.955C148.679 219.165 146.912 219.523 146.912 221.523C146.912 223.227 148.23 224.205 149.889 224.205ZM150.094 223C149.026 223 148.253 222.523 148.253 221.591C148.253 220.568 149.185 220.25 150.23 220.114C150.798 220.045 152.321 219.886 152.548 219.614V220.841C152.548 221.932 151.685 223 150.094 223Z" fill="#232323"/>
<path d="M247.636 225.455H248.568V224.188C250.955 224.023 252.295 222.614 252.295 220.841C252.295 218.659 250.227 217.955 249.023 217.636L248.568 217.511V213.472C249.773 213.591 250.648 214.239 250.773 215.273H252.136C252.08 213.614 250.625 212.352 248.568 212.216V210.909H247.636V212.233C245.688 212.432 244.227 213.67 244.227 215.455C244.227 217.023 245.364 217.955 247.182 218.477L247.636 218.608V222.909C246.443 222.784 245.466 222.17 245.364 221H243.909C244.04 222.79 245.403 224.04 247.636 224.188V225.455ZM248.568 222.909V218.875L248.614 218.886C249.841 219.227 250.932 219.659 250.932 220.818C250.932 221.96 249.943 222.756 248.568 222.909ZM247.636 217.261C246.773 217.017 245.591 216.54 245.591 215.386C245.591 214.403 246.386 213.653 247.636 213.489V217.261ZM258.112 212.205C255.749 212.176 254.226 213.955 254.226 216.091C254.226 218.341 255.885 219.955 257.885 219.955C259.089 219.955 260.112 219.364 260.749 218.409H260.839C260.839 221.273 259.726 222.909 257.93 222.909C256.703 222.909 255.953 222.136 255.703 221.068H254.317C254.589 222.909 255.976 224.159 257.93 224.159C260.544 224.159 262.158 221.841 262.158 217.705C262.158 213.432 260.021 212.227 258.112 212.205ZM258.112 213.455C259.567 213.455 260.635 214.705 260.635 216.068C260.635 217.455 259.499 218.705 258.067 218.705C256.635 218.705 255.589 217.545 255.589 216.091C255.589 214.636 256.68 213.455 258.112 213.455ZM264.119 221.614H269.597V224H270.938V221.614H272.528V220.364H270.938V212.364H269.233L264.119 220.455V221.614ZM269.597 220.364H265.642V220.273L269.506 214.159H269.597V220.364ZM278.453 224.159C281.021 224.159 282.499 221.983 282.499 218.182C282.499 214.409 280.999 212.205 278.453 212.205C275.908 212.205 274.408 214.409 274.408 218.182C274.408 221.983 275.885 224.159 278.453 224.159ZM278.453 222.909C276.76 222.909 275.771 221.21 275.771 218.182C275.771 215.159 276.771 213.432 278.453 213.432C280.135 213.432 281.135 215.159 281.135 218.182C281.135 221.21 280.146 222.909 278.453 222.909Z" fill="#232323"/>
<path d="M351.562 222.045H353.091V218.966H356.17V217.438H353.091V214.364H351.562V217.438H348.489V218.966H351.562V222.045ZM358.307 224H365.966V222.494H360.727V222.409L363.04 219.989C365.17 217.835 365.778 216.807 365.778 215.506C365.778 213.636 364.256 212.205 362.062 212.205C359.886 212.205 358.295 213.614 358.295 215.739H359.972C359.966 214.489 360.773 213.67 362.028 213.67C363.21 213.67 364.108 214.398 364.108 215.557C364.108 216.585 363.494 217.324 362.244 218.648L358.307 222.727V224ZM374.193 221.818C374.199 223.131 375.023 224.239 376.562 224.239C378.085 224.239 378.92 223.131 378.92 221.818V221.205C378.92 219.886 378.108 218.784 376.562 218.784C375.045 218.784 374.199 219.892 374.193 221.205V221.818ZM368.341 215.159C368.341 216.472 369.17 217.58 370.71 217.58C372.227 217.58 373.068 216.477 373.062 215.159V214.545C373.068 213.227 372.25 212.125 370.71 212.125C369.199 212.125 368.341 213.227 368.341 214.545V215.159ZM368.818 224H370.176L378.176 212.364H376.818L368.818 224ZM375.517 221.205C375.523 220.551 375.807 219.92 376.562 219.92C377.347 219.92 377.591 220.551 377.591 221.205V221.818C377.591 222.472 377.324 223.102 376.562 223.102C375.79 223.102 375.523 222.466 375.517 221.818V221.205ZM369.67 214.545C369.67 213.898 369.955 213.261 370.71 213.261C371.494 213.261 371.739 213.892 371.739 214.545V215.159C371.739 215.812 371.472 216.443 370.71 216.443C369.938 216.443 369.67 215.812 369.67 215.159V214.545Z" fill="#16DBAA"/>
<path d="M35 271.159C37.5682 271.159 39.0455 268.983 39.0455 265.182C39.0455 261.409 37.5455 259.205 35 259.205C32.4545 259.205 30.9545 261.409 30.9545 265.182C30.9545 268.983 32.4318 271.159 35 271.159ZM35 269.909C33.3068 269.909 32.3182 268.21 32.3182 265.182C32.3182 262.159 33.3182 260.432 35 260.432C36.6818 260.432 37.6818 262.159 37.6818 265.182C37.6818 268.21 36.6932 269.909 35 269.909ZM44.8409 271.159C47.0568 271.159 48.6818 269.523 48.6818 267.295C48.6818 265.04 47.1136 263.386 44.9773 263.386C44.1932 263.386 43.4318 263.665 42.9545 264.045H42.8864L43.2955 260.614H48.1591V259.364H42.1136L41.4091 265.091L42.7273 265.25C43.2102 264.903 44.0341 264.653 44.75 264.659C46.233 264.67 47.3182 265.795 47.3182 267.318C47.3182 268.812 46.2727 269.909 44.8409 269.909C43.6477 269.909 42.6989 269.142 42.5909 268.091H41.2273C41.3125 269.864 42.8409 271.159 44.8409 271.159ZM51.5014 271.091C52.0639 271.091 52.5241 270.631 52.5241 270.068C52.5241 269.506 52.0639 269.045 51.5014 269.045C50.9389 269.045 50.4787 269.506 50.4787 270.068C50.4787 270.631 50.9389 271.091 51.5014 271.091Z" fill="#232323"/>
<path d="M112.773 260.614H116.432V271H117.841V260.614H121.5V259.364H112.773V260.614ZM123.493 271H124.834V262.273H123.493V271ZM124.175 260.818C124.697 260.818 125.129 260.409 125.129 259.909C125.129 259.409 124.697 259 124.175 259C123.652 259 123.22 259.409 123.22 259.909C123.22 260.409 123.652 260.818 124.175 260.818ZM127.29 271H128.631V267.733L129.568 266.864L132.835 271H134.54L130.58 266L134.267 262.273H132.608L128.79 266.159H128.631V259.364H127.29V271ZM139.788 262.273H137.925V260.182H136.584V262.273H135.266V263.409H136.584V268.864C136.584 270.386 137.811 271.114 138.947 271.114C139.447 271.114 139.766 271.023 139.947 270.955L139.675 269.75C139.561 269.773 139.379 269.818 139.084 269.818C138.493 269.818 137.925 269.636 137.925 268.5V263.409H139.788V262.273ZM145.257 271.182C147.621 271.182 149.212 269.386 149.212 266.682C149.212 263.955 147.621 262.159 145.257 262.159C142.893 262.159 141.303 263.955 141.303 266.682C141.303 269.386 142.893 271.182 145.257 271.182ZM145.257 269.977C143.462 269.977 142.643 268.432 142.643 266.682C142.643 264.932 143.462 263.364 145.257 263.364C147.053 263.364 147.871 264.932 147.871 266.682C147.871 268.432 147.053 269.977 145.257 269.977ZM151.259 271H152.599V267.733L153.537 266.864L156.804 271H158.509L154.548 266L158.236 262.273H156.577L152.759 266.159H152.599V259.364H151.259V271Z" fill="#232323"/>
<path d="M247.636 272.455H248.568V271.188C250.955 271.023 252.295 269.614 252.295 267.841C252.295 265.659 250.227 264.955 249.023 264.636L248.568 264.511V260.472C249.773 260.591 250.648 261.239 250.773 262.273H252.136C252.08 260.614 250.625 259.352 248.568 259.216V257.909H247.636V259.233C245.688 259.432 244.227 260.67 244.227 262.455C244.227 264.023 245.364 264.955 247.182 265.477L247.636 265.608V269.909C246.443 269.784 245.466 269.17 245.364 268H243.909C244.04 269.79 245.403 271.04 247.636 271.188V272.455ZM248.568 269.909V265.875L248.614 265.886C249.841 266.227 250.932 266.659 250.932 267.818C250.932 268.96 249.943 269.756 248.568 269.909ZM247.636 264.261C246.773 264.017 245.591 263.54 245.591 262.386C245.591 261.403 246.386 260.653 247.636 260.489V264.261ZM258.271 271.159C260.624 271.188 262.158 269.415 262.158 267.25C262.158 265 260.493 263.386 258.499 263.386C257.3 263.386 256.271 263.972 255.635 264.932H255.544C255.55 262.097 256.652 260.455 258.453 260.455C259.68 260.455 260.419 261.227 260.68 262.273H262.067C261.783 260.466 260.408 259.205 258.453 259.205C255.834 259.205 254.226 261.523 254.226 265.636C254.226 269.938 256.362 271.136 258.271 271.159ZM258.271 269.909C256.811 269.909 255.743 268.665 255.749 267.273C255.754 265.881 256.874 264.636 258.317 264.636C259.743 264.636 260.794 265.807 260.794 267.25C260.794 268.727 259.697 269.909 258.271 269.909ZM264.756 271H266.233L271.415 260.682V259.364H263.96V260.614H269.96V260.705L264.756 271ZM277.078 271.159C279.646 271.159 281.124 268.983 281.124 265.182C281.124 261.409 279.624 259.205 277.078 259.205C274.533 259.205 273.033 261.409 273.033 265.182C273.033 268.983 274.51 271.159 277.078 271.159ZM277.078 269.909C275.385 269.909 274.396 268.21 274.396 265.182C274.396 262.159 275.396 260.432 277.078 260.432C278.76 260.432 279.76 262.159 279.76 265.182C279.76 268.21 278.771 269.909 277.078 269.909Z" fill="#232323"/>
<path d="M353.284 264.449H348.125V265.92H353.284V264.449ZM359.94 259.364H358.23L355.327 261.261V262.943L358.111 261.125H358.179V271H359.94V259.364ZM363.088 271H370.747V269.494H365.509V269.409L367.821 266.989C369.952 264.835 370.56 263.807 370.56 262.506C370.56 260.636 369.037 259.205 366.844 259.205C364.668 259.205 363.077 260.614 363.077 262.739H364.753C364.747 261.489 365.554 260.67 366.81 260.67C367.991 260.67 368.889 261.398 368.889 262.557C368.889 263.585 368.276 264.324 367.026 265.648L363.088 269.727V271ZM378.974 268.818C378.98 270.131 379.804 271.239 381.344 271.239C382.866 271.239 383.702 270.131 383.702 268.818V268.205C383.702 266.886 382.889 265.784 381.344 265.784C379.827 265.784 378.98 266.892 378.974 268.205V268.818ZM373.122 262.159C373.122 263.472 373.952 264.58 375.491 264.58C377.009 264.58 377.849 263.477 377.844 262.159V261.545C377.849 260.227 377.031 259.125 375.491 259.125C373.98 259.125 373.122 260.227 373.122 261.545V262.159ZM373.599 271H374.957L382.957 259.364H381.599L373.599 271ZM380.298 268.205C380.304 267.551 380.588 266.92 381.344 266.92C382.128 266.92 382.372 267.551 382.372 268.205V268.818C382.372 269.472 382.105 270.102 381.344 270.102C380.571 270.102 380.304 269.466 380.298 268.818V268.205ZM374.452 261.545C374.452 260.898 374.736 260.261 375.491 260.261C376.276 260.261 376.52 260.892 376.52 261.545V262.159C376.52 262.812 376.253 263.443 375.491 263.443C374.719 263.443 374.452 262.812 374.452 262.159V261.545Z" fill="#FE5C73"/>
</svg>
